M48
; DRILL file {KiCad 5.1.2} date 20.10.2020 14:42:35
; FORMAT={-:-/ absolute / metric / decimal}
; #@! TF.CreationDate,2020-10-20T14:42:35+02:00
; #@! TF.GenerationSoftware,Kicad,Pcbnew,5.1.2
; #@! TF.FileFunction,Plated,1,2,PTH
FMAT,2
METRIC
T1C0.610
T2C0.813
T3C1.016
%
G90
G05
T1
X100.882Y-113.095
X104.692Y-109.444
X106.28Y-103.411
X108.979Y-113.254
X111.36Y-116.27
X115.329Y-97.22
X117.392Y-117.222
X123.584Y-116.111
X125.012Y-114.841
X125.33Y-92.457
X128.187Y-89.282
X128.664Y-107.539
X129.299Y-114.841
X130.41Y-93.41
X133.902Y-97.22
X136.919Y-103.252
X138.982Y-107.539
X139.141Y-122.461
X141.681Y-108.65
X141.999Y-90.552
X141.999Y-106.586
X142.951Y-111.031
X142.951Y-112.301
X142.951Y-121.509
X143.269Y-104.681
X144.221Y-85.631
X144.856Y-93.41
X145.332Y-86.584
X145.491Y-98.172
X146.761Y-98.649
X147.872Y-91.505
X148.349Y-94.045
X148.507Y-87.377
X149.301Y-96.585
X149.619Y-115.317
X150.254Y-106.11
X150.73Y-103.411
X151.524Y-101.347
X151.682Y-110.237
X152.794Y-94.045
X152.952Y-121.35
X153.905Y-100.236
X154.857Y-122.461
X156.604Y-89.917
X157.239Y-95.95
X157.874Y-89.917
X157.874Y-112.619
X158.35Y-102.617
X158.985Y-109.285
X159.461Y-115.317
X159.937Y-103.729
X160.414Y-113.889
X161.049Y-88.012
X161.049Y-90.552
X162.001Y-122.461
X162.16Y-101.03
X164.065Y-88.012
X164.065Y-98.014
X165.97Y-88.647
X166.446Y-121.985
X168.51Y-104.205
X169.304Y-117.857
X169.462Y-99.284
X169.78Y-104.205
X170.097Y-91.187
X170.574Y-92.934
X170.732Y-106.904
X170.732Y-109.92
X170.732Y-111.19
X171.685Y-121.032
X172.002Y-95.95
X172.796Y-91.981
X172.955Y-94.839
X173.114Y-123.255
X173.749Y-89.282
X173.749Y-121.35
X175.495Y-97.855
X175.654Y-104.681
X175.654Y-120.715
X176.606Y-108.809
X177.082Y-100.712
X177.559Y-106.11
X177.559Y-107.856
X178.352Y-89.282
X178.511Y-116.587
X179.464Y-102.776
X179.622Y-110.237
X180.892Y-90.711
X181.369Y-117.064
X182.48Y-96.902
X183.432Y-102.617
X184.067Y-116.587
X184.385Y-108.332
X186.131Y-123.572
X188.512Y-116.587
X191.052Y-111.19
T2
X179.781Y-92.299
X179.781Y-99.919
X182.321Y-92.299
X182.321Y-99.919
X184.861Y-92.299
X184.861Y-99.919
X187.401Y-92.299
X187.401Y-99.919
X189.941Y-92.299
X189.941Y-99.919
X192.481Y-92.299
X192.481Y-99.919
X195.021Y-92.299
X195.021Y-99.919
X197.561Y-92.299
X197.561Y-99.919
X153.111Y-98.649
X155.651Y-98.649
X182.321Y-106.269
X182.321Y-113.889
X184.861Y-106.269
X184.861Y-113.889
X187.401Y-106.269
X187.401Y-113.889
X189.941Y-106.269
X189.941Y-113.889
X192.481Y-106.269
X192.481Y-113.889
X195.021Y-106.269
X195.021Y-113.889
X197.561Y-106.269
X197.561Y-113.889
X146.761Y-84.679
X146.761Y-87.219
X170.891Y-98.649
X173.431Y-98.649
X99.771Y-84.679
X99.771Y-87.219
X102.311Y-84.679
X102.311Y-99.919
X104.851Y-84.679
X104.851Y-99.919
X107.391Y-84.679
X107.391Y-99.919
X109.931Y-84.679
X109.931Y-99.919
X112.471Y-84.679
X112.471Y-99.919
X115.011Y-84.679
X115.011Y-99.919
X117.551Y-84.679
X117.551Y-99.919
X120.091Y-84.679
X120.091Y-99.919
X122.631Y-84.679
X122.631Y-99.919
X125.171Y-84.679
X125.171Y-99.919
X127.711Y-84.679
X127.711Y-99.919
X130.251Y-84.679
X130.251Y-99.919
X132.791Y-84.679
X132.791Y-99.919
X135.331Y-84.679
X135.331Y-99.919
X137.871Y-84.679
X137.871Y-99.919
X140.411Y-84.679
X140.411Y-99.919
X148.031Y-101.189
X148.031Y-103.729
X148.031Y-106.269
X148.031Y-108.809
X148.031Y-111.349
X148.031Y-113.889
X148.031Y-116.429
X148.031Y-118.969
X155.651Y-101.189
X155.651Y-103.729
X155.651Y-106.269
X155.651Y-108.809
X155.651Y-111.349
X155.651Y-113.889
X155.651Y-116.429
X155.651Y-118.969
X165.811Y-101.189
X165.811Y-103.729
X165.811Y-106.269
X165.811Y-108.809
X165.811Y-111.349
X165.811Y-113.889
X165.811Y-116.429
X165.811Y-118.969
X173.431Y-101.189
X173.431Y-103.729
X173.431Y-106.269
X173.431Y-108.809
X173.431Y-111.349
X173.431Y-113.889
X173.431Y-116.429
X173.431Y-118.969
X102.311Y-104.999
X102.311Y-120.239
X104.851Y-104.999
X104.851Y-120.239
X107.391Y-104.999
X107.391Y-120.239
X109.931Y-104.999
X109.931Y-120.239
X112.471Y-104.999
X112.471Y-120.239
X115.011Y-104.999
X115.011Y-120.239
X117.551Y-104.999
X117.551Y-120.239
X120.091Y-104.999
X120.091Y-120.239
X122.631Y-104.999
X122.631Y-120.239
X125.171Y-104.999
X125.171Y-120.239
X127.711Y-104.999
X127.711Y-120.239
X130.251Y-104.999
X130.251Y-120.239
X132.791Y-104.999
X132.791Y-120.239
X135.331Y-104.999
X135.331Y-120.239
X137.871Y-104.999
X137.871Y-120.239
X140.411Y-104.999
X140.411Y-120.239
X149.301Y-84.679
X149.301Y-92.299
X151.841Y-84.679
X151.841Y-92.299
X154.381Y-84.679
X154.381Y-92.299
X156.921Y-84.679
X156.921Y-92.299
X159.461Y-84.679
X159.461Y-92.299
X162.001Y-84.679
X162.001Y-92.299
X164.541Y-84.679
X164.541Y-92.299
X167.081Y-84.679
X167.081Y-92.299
X99.771Y-104.999
X99.771Y-107.539
X163.271Y-107.539
X163.271Y-110.079
X163.271Y-112.619
X163.271Y-115.159
X163.271Y-117.699
X163.271Y-120.239
X177.241Y-92.299
X177.241Y-94.839
X179.781Y-106.269
X179.781Y-108.809
X145.491Y-107.539
X145.491Y-110.079
X145.491Y-112.619
X145.491Y-115.159
X145.491Y-117.699
X145.491Y-120.239
T3
X179.781Y-85.949
X179.781Y-88.489
X182.321Y-85.949
X182.321Y-88.489
X184.861Y-85.949
X184.861Y-88.489
X187.401Y-85.949
X187.401Y-88.489
X189.941Y-85.949
X189.941Y-88.489
X192.481Y-85.949
X192.481Y-88.489
X195.021Y-85.949
X195.021Y-88.489
X197.561Y-85.949
X197.561Y-88.489
X98.501Y-125.319
X101.041Y-125.319
X103.581Y-125.319
X106.121Y-125.319
X108.661Y-125.319
X111.201Y-125.319
X113.741Y-125.319
X116.281Y-125.319
X118.821Y-125.319
X121.361Y-125.319
X123.901Y-125.319
X126.441Y-125.319
X128.981Y-125.319
X131.521Y-125.319
X134.061Y-125.319
X136.601Y-125.319
X139.141Y-125.319
X141.681Y-125.319
X144.221Y-125.319
X146.761Y-125.319
X149.301Y-125.319
X151.841Y-125.319
X154.381Y-125.319
X156.921Y-125.319
X159.461Y-125.319
X162.001Y-125.319
X164.541Y-125.319
X167.081Y-125.319
X169.621Y-125.319
X172.161Y-125.319
X174.701Y-125.319
X177.241Y-125.319
X179.781Y-125.319
X182.321Y-125.319
X184.861Y-125.319
X187.401Y-125.319
X189.941Y-125.319
X192.481Y-125.319
X195.021Y-125.319
X197.561Y-125.319
T0
M30
