G04 #@! TF.GenerationSoftware,KiCad,Pcbnew,5.1.2*
G04 #@! TF.CreationDate,2020-10-23T13:05:21+02:00*
G04 #@! TF.ProjectId,2fe143d13a9057f7874dd1e763167673,32666531-3433-4643-9133-613930353766,rev?*
G04 #@! TF.SameCoordinates,Original*
G04 #@! TF.FileFunction,Copper,L1,Top*
G04 #@! TF.FilePolarity,Positive*
%FSLAX46Y46*%
G04 Gerber Fmt 4.6, Leading zero omitted, Abs format (unit mm)*
G04 Created by KiCad (PCBNEW 5.1.2) date 2020-10-23 13:05:21*
%MOMM*%
%LPD*%
G04 APERTURE LIST*
%ADD10O,1.524000X3.048000*%
%ADD11C,1.320800*%
%ADD12O,1.320800X2.641600*%
%ADD13O,2.641600X1.320800*%
%ADD14C,1.524000*%
%ADD15C,1.016000*%
%ADD16C,0.508000*%
%ADD17C,0.254000*%
G04 APERTURE END LIST*
D10*
X149301100Y-125318600D03*
X151841100Y-125318600D03*
X154381100Y-125318600D03*
X156921100Y-125318600D03*
X159461100Y-125318600D03*
X162001100Y-125318600D03*
X164541100Y-125318600D03*
X167081100Y-125318600D03*
X169621100Y-125318600D03*
X172161100Y-125318600D03*
X174701100Y-125318600D03*
X177241100Y-125318600D03*
X179781100Y-125318600D03*
X182321100Y-125318600D03*
X184861100Y-125318600D03*
X187401100Y-125318600D03*
X189941100Y-125318600D03*
X192481100Y-125318600D03*
X195021100Y-125318600D03*
X197561100Y-125318600D03*
X103581100Y-125318600D03*
X98501100Y-125318600D03*
X101041100Y-125318600D03*
X106121100Y-125318600D03*
X108661100Y-125318600D03*
X111201100Y-125318600D03*
X113741100Y-125318600D03*
X116281100Y-125318600D03*
X118821100Y-125318600D03*
X121361100Y-125318600D03*
X123901100Y-125318600D03*
X126441100Y-125318600D03*
X128981100Y-125318600D03*
X131521100Y-125318600D03*
X134061100Y-125318600D03*
X136601100Y-125318600D03*
X139141100Y-125318600D03*
X141681100Y-125318600D03*
X144221100Y-125318600D03*
X146761100Y-125318600D03*
D11*
X99771100Y-87218600D03*
X99771100Y-84678600D03*
X99771100Y-107538600D03*
X99771100Y-104998600D03*
X146761100Y-87218600D03*
X146761100Y-84678600D03*
X153111100Y-98648600D03*
X155651100Y-98648600D03*
X170891100Y-98648600D03*
X173431100Y-98648600D03*
D12*
X102311100Y-104998600D03*
X104851100Y-104998600D03*
X107391100Y-104998600D03*
X109931100Y-104998600D03*
X112471100Y-104998600D03*
X115011100Y-104998600D03*
X117551100Y-104998600D03*
X120091100Y-104998600D03*
X122631100Y-104998600D03*
X125171100Y-104998600D03*
X127711100Y-104998600D03*
X130251100Y-104998600D03*
X132791100Y-104998600D03*
X135331100Y-104998600D03*
X137871100Y-104998600D03*
X140411100Y-104998600D03*
X140411100Y-120238600D03*
X137871100Y-120238600D03*
X135331100Y-120238600D03*
X132791100Y-120238600D03*
X130251100Y-120238600D03*
X127711100Y-120238600D03*
X125171100Y-120238600D03*
X122631100Y-120238600D03*
X112471100Y-120238600D03*
X115011100Y-120238600D03*
X109931100Y-120238600D03*
X107391100Y-120238600D03*
X120091100Y-120238600D03*
X117551100Y-120238600D03*
X104851100Y-120238600D03*
X102311100Y-120238600D03*
X102311100Y-84678600D03*
X104851100Y-84678600D03*
X107391100Y-84678600D03*
X109931100Y-84678600D03*
X112471100Y-84678600D03*
X115011100Y-84678600D03*
X117551100Y-84678600D03*
X120091100Y-84678600D03*
X122631100Y-84678600D03*
X125171100Y-84678600D03*
X127711100Y-84678600D03*
X130251100Y-84678600D03*
X132791100Y-84678600D03*
X135331100Y-84678600D03*
X137871100Y-84678600D03*
X140411100Y-84678600D03*
X140411100Y-99918600D03*
X137871100Y-99918600D03*
X135331100Y-99918600D03*
X132791100Y-99918600D03*
X130251100Y-99918600D03*
X127711100Y-99918600D03*
X125171100Y-99918600D03*
X122631100Y-99918600D03*
X112471100Y-99918600D03*
X115011100Y-99918600D03*
X109931100Y-99918600D03*
X107391100Y-99918600D03*
X120091100Y-99918600D03*
X117551100Y-99918600D03*
X104851100Y-99918600D03*
X102311100Y-99918600D03*
D13*
X155651100Y-101188600D03*
X155651100Y-103728600D03*
X155651100Y-106268600D03*
X155651100Y-108808600D03*
X155651100Y-111348600D03*
X155651100Y-113888600D03*
X155651100Y-116428600D03*
X155651100Y-118968600D03*
X148031100Y-111348600D03*
X148031100Y-113888600D03*
X148031100Y-108808600D03*
X148031100Y-106268600D03*
X148031100Y-118968600D03*
X148031100Y-116428600D03*
X148031100Y-103728600D03*
X148031100Y-101188600D03*
X173431100Y-101188600D03*
X173431100Y-103728600D03*
X173431100Y-106268600D03*
X173431100Y-108808600D03*
X173431100Y-111348600D03*
X173431100Y-113888600D03*
X173431100Y-116428600D03*
X173431100Y-118968600D03*
X165811100Y-111348600D03*
X165811100Y-113888600D03*
X165811100Y-108808600D03*
X165811100Y-106268600D03*
X165811100Y-118968600D03*
X165811100Y-116428600D03*
X165811100Y-103728600D03*
X165811100Y-101188600D03*
D12*
X149301100Y-84678600D03*
X151841100Y-84678600D03*
X154381100Y-84678600D03*
X156921100Y-84678600D03*
X159461100Y-84678600D03*
X162001100Y-84678600D03*
X164541100Y-84678600D03*
X167081100Y-84678600D03*
X159461100Y-92298600D03*
X162001100Y-92298600D03*
X156921100Y-92298600D03*
X154381100Y-92298600D03*
X167081100Y-92298600D03*
X164541100Y-92298600D03*
X151841100Y-92298600D03*
X149301100Y-92298600D03*
X179781100Y-92298600D03*
X182321100Y-92298600D03*
X184861100Y-92298600D03*
X187401100Y-92298600D03*
X189941100Y-92298600D03*
X192481100Y-92298600D03*
X195021100Y-92298600D03*
X197561100Y-92298600D03*
X189941100Y-99918600D03*
X192481100Y-99918600D03*
X187401100Y-99918600D03*
X184861100Y-99918600D03*
X197561100Y-99918600D03*
X195021100Y-99918600D03*
X182321100Y-99918600D03*
X179781100Y-99918600D03*
X182321100Y-106268600D03*
X184861100Y-106268600D03*
X187401100Y-106268600D03*
X189941100Y-106268600D03*
X192481100Y-106268600D03*
X195021100Y-106268600D03*
X192481100Y-113888600D03*
X195021100Y-113888600D03*
X189941100Y-113888600D03*
X187401100Y-113888600D03*
X197561100Y-106268600D03*
X197561100Y-113888600D03*
X184861100Y-113888600D03*
X182321100Y-113888600D03*
D14*
X179781100Y-88488600D03*
X182321100Y-88488600D03*
X179781100Y-85948600D03*
X182321100Y-85948600D03*
X184861100Y-88488600D03*
X187401100Y-88488600D03*
X189941100Y-88488600D03*
X192481100Y-88488600D03*
X195021100Y-88488600D03*
X197561100Y-88488600D03*
X184861100Y-85948600D03*
X187401100Y-85948600D03*
X189941100Y-85948600D03*
X192481100Y-85948600D03*
X195021100Y-85948600D03*
X197561100Y-85948600D03*
D11*
X177241100Y-94838600D03*
X177241100Y-92298600D03*
D13*
X163271100Y-120238600D03*
X163271100Y-117698600D03*
X163271100Y-115158600D03*
X163271100Y-112618600D03*
X163271100Y-110078600D03*
X163271100Y-107538600D03*
X145491100Y-120238600D03*
X145491100Y-117698600D03*
X145491100Y-115158600D03*
X145491100Y-112618600D03*
X145491100Y-110078600D03*
X145491100Y-107538600D03*
D11*
X179781100Y-108808600D03*
X179781100Y-106268600D03*
D15*
X170573600Y-92933600D03*
X172954850Y-94838600D03*
X141998600Y-106586100D03*
X146761100Y-98648600D03*
X142951100Y-121508600D03*
X142951100Y-111031100D03*
X100882350Y-113094850D03*
X106279850Y-103411100D03*
X111359850Y-116269850D03*
X125012350Y-114841100D03*
X117392350Y-117222350D03*
X186131100Y-123572350D03*
X172796100Y-91981100D03*
X152793600Y-94044850D03*
X148348600Y-94044850D03*
X115328600Y-97219850D03*
X180892350Y-90711100D03*
X161048600Y-90552350D03*
X161048600Y-88012350D03*
X147872350Y-91504850D03*
X125329850Y-92457350D03*
X149301100Y-96584850D03*
X172002350Y-95949850D03*
X157238600Y-95949850D03*
X150253600Y-106109850D03*
X144856100Y-93409850D03*
X130409850Y-93409850D03*
X191052350Y-111189850D03*
X184384850Y-108332350D03*
X170097350Y-91187350D03*
X169462350Y-99283600D03*
X179463600Y-102776100D03*
X141681100Y-108649850D03*
X151523600Y-101347350D03*
X150729850Y-103411100D03*
X143268600Y-104681100D03*
X123583600Y-116111100D03*
X154857350Y-122461100D03*
X139141100Y-122461100D03*
X138982350Y-107538600D03*
X188512350Y-116587350D03*
X173748600Y-121349850D03*
X159937350Y-103728600D03*
X184067350Y-116587350D03*
X169303600Y-117857350D03*
X149618600Y-115317350D03*
X159461100Y-115317350D03*
X145491100Y-98172350D03*
X152952350Y-121349850D03*
X136918600Y-103252350D03*
X166446100Y-121984850D03*
X144221100Y-85631100D03*
X178352350Y-89282350D03*
X141998600Y-90552350D03*
X182479850Y-96902350D03*
X183432350Y-102617350D03*
X177558600Y-107856100D03*
X170732350Y-109919850D03*
X169779850Y-104204850D03*
X164064850Y-98013600D03*
X133902350Y-97219850D03*
X179622350Y-110237350D03*
X177558600Y-106109850D03*
X177082350Y-100712350D03*
X170732350Y-106903600D03*
X171684850Y-121032350D03*
X145332350Y-86583600D03*
X148507350Y-87377350D03*
X164064850Y-88012350D03*
X104692350Y-109443600D03*
X128663600Y-107538600D03*
X129298600Y-114841100D03*
X142951100Y-112301100D03*
X108978600Y-113253600D03*
X157873600Y-112618600D03*
X153904850Y-100236100D03*
X128187350Y-89282350D03*
X170732350Y-111189850D03*
X168509850Y-104204850D03*
X158349850Y-102617350D03*
X157873600Y-89917350D03*
X173748600Y-89282350D03*
X178511100Y-116587350D03*
X156603600Y-89917350D03*
X165969850Y-88647350D03*
X181368600Y-117063600D03*
X175653600Y-120714850D03*
X173113600Y-123254850D03*
X162001100Y-122461100D03*
X160413600Y-113888600D03*
X162159850Y-101029850D03*
X175653600Y-104681100D03*
X176606100Y-108808600D03*
X175494850Y-97854850D03*
X158984850Y-109284850D03*
X151682350Y-110237350D03*
D16*
X148824850Y-118174850D02*
X148031100Y-118968600D01*
X154063600Y-118174850D02*
X148824850Y-118174850D01*
X154539850Y-117698600D02*
X154063600Y-118174850D01*
X160889850Y-117698600D02*
X154539850Y-117698600D01*
X162159850Y-118968600D02*
X160889850Y-117698600D01*
X165811100Y-118968600D02*
X162159850Y-118968600D01*
X169938600Y-92298600D02*
X170573600Y-92933600D01*
X167081100Y-92298600D02*
X169938600Y-92298600D01*
X180416100Y-108173600D02*
X179781100Y-108808600D01*
X182956100Y-108173600D02*
X180416100Y-108173600D01*
X184861100Y-106268600D02*
X182956100Y-108173600D01*
X184861100Y-106268600D02*
X187401100Y-106268600D01*
X187401100Y-106268600D02*
X189941100Y-106268600D01*
X189941100Y-106268600D02*
X192481100Y-106268600D01*
X189941100Y-106268600D02*
X197561100Y-113888600D01*
X180416100Y-98013600D02*
X177241100Y-94838600D01*
X195656100Y-98013600D02*
X180416100Y-98013600D01*
X197561100Y-99918600D02*
X195656100Y-98013600D01*
X177241100Y-94838600D02*
X172954850Y-94838600D01*
X169779850Y-107538600D02*
X163271100Y-107538600D01*
X170256100Y-108014850D02*
X169779850Y-107538600D01*
X171843600Y-108014850D02*
X170256100Y-108014850D01*
X172319850Y-107538600D02*
X171843600Y-108014850D01*
X174542350Y-107538600D02*
X172319850Y-107538600D01*
X177717350Y-104363600D02*
X174542350Y-107538600D01*
X182956100Y-104363600D02*
X177717350Y-104363600D01*
X184861100Y-106268600D02*
X182956100Y-104363600D01*
X141046100Y-99283600D02*
X140411100Y-99918600D01*
X152476100Y-99283600D02*
X146761100Y-99283600D01*
X146761100Y-99283600D02*
X141046100Y-99283600D01*
X153111100Y-98648600D02*
X152476100Y-99283600D01*
X144538600Y-106586100D02*
X145491100Y-107538600D01*
X141998600Y-106586100D02*
X144538600Y-106586100D01*
X146761100Y-99283600D02*
X146761100Y-98648600D01*
X100247350Y-87694850D02*
X99771100Y-87218600D01*
X146284850Y-87694850D02*
X100247350Y-87694850D01*
X146761100Y-87218600D02*
X146284850Y-87694850D01*
X141681100Y-120238600D02*
X142951100Y-121508600D01*
X140411100Y-120238600D02*
X141681100Y-120238600D01*
D17*
X149142350Y-107697350D02*
X148031100Y-108808600D01*
X161207350Y-107697350D02*
X149142350Y-107697350D01*
X162318600Y-108808600D02*
X161207350Y-107697350D01*
X165811100Y-108808600D02*
X162318600Y-108808600D01*
X98501100Y-114047350D02*
X98501100Y-125318600D01*
X106121100Y-114047350D02*
X98501100Y-114047350D01*
X109137350Y-111031100D02*
X106121100Y-114047350D01*
X142951100Y-111031100D02*
X109137350Y-111031100D01*
X149142350Y-112459850D02*
X148031100Y-111348600D01*
X156762350Y-112459850D02*
X149142350Y-112459850D01*
X157873600Y-111348600D02*
X156762350Y-112459850D01*
X165811100Y-111348600D02*
X157873600Y-111348600D01*
X103581100Y-110396100D02*
X100882350Y-113094850D01*
X142316100Y-110396100D02*
X103581100Y-110396100D01*
X142633600Y-110078600D02*
X142316100Y-110396100D01*
X143268600Y-110078600D02*
X142633600Y-110078600D01*
X144538600Y-111348600D02*
X143268600Y-110078600D01*
X148031100Y-111348600D02*
X144538600Y-111348600D01*
X106121100Y-124048600D02*
X109931100Y-120238600D01*
X106121100Y-125318600D02*
X106121100Y-124048600D01*
X106438600Y-103252350D02*
X106279850Y-103411100D01*
X118344850Y-103252350D02*
X106438600Y-103252350D01*
X120091100Y-104998600D02*
X118344850Y-103252350D01*
X112788600Y-114841100D02*
X111359850Y-116269850D01*
X125012350Y-114841100D02*
X112788600Y-114841100D01*
X113741100Y-122302350D02*
X113741100Y-125318600D01*
X112312350Y-122302350D02*
X113741100Y-122302350D01*
X111359850Y-121349850D02*
X112312350Y-122302350D01*
X111359850Y-117222350D02*
X111359850Y-121349850D01*
X117392350Y-117222350D02*
X111359850Y-117222350D01*
X115646100Y-123413600D02*
X112471100Y-120238600D01*
X116916100Y-123413600D02*
X115646100Y-123413600D01*
X118821100Y-125318600D02*
X116916100Y-123413600D01*
X186131100Y-127223600D02*
X186131100Y-123572350D01*
X120726100Y-127223600D02*
X186131100Y-127223600D01*
X118821100Y-125318600D02*
X120726100Y-127223600D01*
X118186100Y-123413600D02*
X115011100Y-120238600D01*
X119456100Y-123413600D02*
X118186100Y-123413600D01*
X121361100Y-125318600D02*
X119456100Y-123413600D01*
X170732350Y-94044850D02*
X172796100Y-91981100D01*
X152793600Y-94044850D02*
X170732350Y-94044850D01*
X147396100Y-94997350D02*
X148348600Y-94044850D01*
X117551100Y-94997350D02*
X147396100Y-94997350D01*
X115328600Y-97219850D02*
X117551100Y-94997350D01*
X120726100Y-123413600D02*
X117551100Y-120238600D01*
X121996100Y-123413600D02*
X120726100Y-123413600D01*
X123901100Y-125318600D02*
X121996100Y-123413600D01*
X180416100Y-90234850D02*
X180892350Y-90711100D01*
X161366100Y-90234850D02*
X180416100Y-90234850D01*
X161048600Y-90552350D02*
X161366100Y-90234850D01*
X160731100Y-88329850D02*
X161048600Y-88012350D01*
X122948600Y-88329850D02*
X160731100Y-88329850D01*
X114376100Y-96902350D02*
X122948600Y-88329850D01*
X114376100Y-98172350D02*
X114376100Y-96902350D01*
X115804850Y-98172350D02*
X114376100Y-98172350D01*
X117551100Y-99918600D02*
X115804850Y-98172350D01*
X123266100Y-123413600D02*
X120091100Y-120238600D01*
X124536100Y-123413600D02*
X123266100Y-123413600D01*
X126441100Y-125318600D02*
X124536100Y-123413600D01*
X176764850Y-96902350D02*
X179781100Y-99918600D01*
X150888600Y-96902350D02*
X176764850Y-96902350D01*
X149618600Y-95632350D02*
X150888600Y-96902350D01*
X124377350Y-95632350D02*
X149618600Y-95632350D01*
X120091100Y-99918600D02*
X124377350Y-95632350D01*
X125806100Y-123413600D02*
X122631100Y-120238600D01*
X127076100Y-123413600D02*
X125806100Y-123413600D01*
X128981100Y-125318600D02*
X127076100Y-123413600D01*
X128346100Y-123413600D02*
X125171100Y-120238600D01*
X129616100Y-123413600D02*
X128346100Y-123413600D01*
X131521100Y-125318600D02*
X129616100Y-123413600D01*
X146919850Y-92457350D02*
X147872350Y-91504850D01*
X125329850Y-92457350D02*
X146919850Y-92457350D01*
X130886100Y-123413600D02*
X127711100Y-120238600D01*
X132156100Y-123413600D02*
X130886100Y-123413600D01*
X134061100Y-125318600D02*
X132156100Y-123413600D01*
X148983600Y-96267350D02*
X149301100Y-96584850D01*
X131362350Y-96267350D02*
X148983600Y-96267350D01*
X127711100Y-99918600D02*
X131362350Y-96267350D01*
X157238600Y-95949850D02*
X172002350Y-95949850D01*
X156762350Y-105157350D02*
X155651100Y-106268600D01*
X171843600Y-105157350D02*
X156762350Y-105157350D01*
X172954850Y-106268600D02*
X171843600Y-105157350D01*
X173431100Y-106268600D02*
X172954850Y-106268600D01*
X133426100Y-123413600D02*
X130251100Y-120238600D01*
X134696100Y-123413600D02*
X133426100Y-123413600D01*
X136601100Y-125318600D02*
X134696100Y-123413600D01*
X150253600Y-106109850D02*
X155651100Y-106109850D01*
X130409850Y-93409850D02*
X144856100Y-93409850D01*
X155651100Y-106109850D02*
X155651100Y-106268600D01*
D16*
X182321100Y-106268600D02*
X179781100Y-106268600D01*
X188194850Y-108332350D02*
X191052350Y-111189850D01*
X184384850Y-108332350D02*
X188194850Y-108332350D01*
X179781100Y-92298600D02*
X177241100Y-92298600D01*
X155651100Y-98648600D02*
X155651100Y-99442350D01*
X155651100Y-99442350D02*
X155651100Y-101188600D01*
X173431100Y-98648600D02*
X173431100Y-99918600D01*
X173431100Y-99918600D02*
X173431100Y-101188600D01*
X169938600Y-99442350D02*
X169462350Y-99442350D01*
X169462350Y-99442350D02*
X155651100Y-99442350D01*
X170414850Y-99918600D02*
X169938600Y-99442350D01*
X173431100Y-99918600D02*
X170414850Y-99918600D01*
X175812350Y-90869850D02*
X177241100Y-92298600D01*
X170414850Y-90869850D02*
X175812350Y-90869850D01*
X170097350Y-91187350D02*
X170414850Y-90869850D01*
X169462350Y-99283600D02*
X169462350Y-99442350D01*
X178511100Y-101823600D02*
X179463600Y-102776100D01*
X174066100Y-101823600D02*
X178511100Y-101823600D01*
X173431100Y-101188600D02*
X174066100Y-101823600D01*
X102311100Y-104998600D02*
X99771100Y-104998600D01*
X102311100Y-84678600D02*
X99771100Y-84678600D01*
X149301100Y-84678600D02*
X146761100Y-84678600D01*
X105962350Y-108649850D02*
X102311100Y-104998600D01*
X141681100Y-108649850D02*
X105962350Y-108649850D01*
X151523600Y-101347350D02*
X155492350Y-101347350D01*
X149142350Y-104998600D02*
X150729850Y-103411100D01*
X143586100Y-104998600D02*
X149142350Y-104998600D01*
X143268600Y-104681100D02*
X143586100Y-104998600D01*
X155492350Y-101347350D02*
X155651100Y-101188600D01*
D17*
X157556100Y-123413600D02*
X159461100Y-125318600D01*
X136283600Y-123413600D02*
X157556100Y-123413600D01*
X133902350Y-121032350D02*
X136283600Y-123413600D01*
X133902350Y-116111100D02*
X133902350Y-121032350D01*
X123583600Y-116111100D02*
X133902350Y-116111100D01*
X150094850Y-82932350D02*
X151841100Y-84678600D01*
X106597350Y-82932350D02*
X150094850Y-82932350D01*
X104851100Y-84678600D02*
X106597350Y-82932350D01*
X139141100Y-122461100D02*
X154857350Y-122461100D01*
X138188600Y-106744850D02*
X138982350Y-107538600D01*
X129139850Y-106744850D02*
X138188600Y-106744850D01*
X128981100Y-106586100D02*
X129139850Y-106744850D01*
X128346100Y-106586100D02*
X128981100Y-106586100D01*
X128187350Y-106744850D02*
X128346100Y-106586100D01*
X111677350Y-106744850D02*
X128187350Y-106744850D01*
X109931100Y-104998600D02*
X111677350Y-106744850D01*
X183432350Y-121667350D02*
X188512350Y-116587350D01*
X174066100Y-121667350D02*
X183432350Y-121667350D01*
X173748600Y-121349850D02*
X174066100Y-121667350D01*
X159937350Y-103728600D02*
X155651100Y-103728600D01*
X183114850Y-115634850D02*
X184067350Y-116587350D01*
X176447350Y-115634850D02*
X183114850Y-115634850D01*
X174224850Y-117857350D02*
X176447350Y-115634850D01*
X169303600Y-117857350D02*
X174224850Y-117857350D01*
X159461100Y-115317350D02*
X149618600Y-115317350D01*
X137077350Y-98172350D02*
X145491100Y-98172350D01*
X135331100Y-99918600D02*
X137077350Y-98172350D01*
X165176100Y-123413600D02*
X167081100Y-125318600D01*
X158349850Y-123413600D02*
X165176100Y-123413600D01*
X156286100Y-121349850D02*
X158349850Y-123413600D01*
X152952350Y-121349850D02*
X156286100Y-121349850D01*
X147554850Y-103252350D02*
X148031100Y-103728600D01*
X136918600Y-103252350D02*
X147554850Y-103252350D01*
X165811100Y-121349850D02*
X166446100Y-121984850D01*
X157079850Y-121349850D02*
X165811100Y-121349850D01*
X156127350Y-120397350D02*
X157079850Y-121349850D01*
X151523600Y-120397350D02*
X156127350Y-120397350D01*
X150571100Y-121349850D02*
X151523600Y-120397350D01*
X144062350Y-121349850D02*
X150571100Y-121349850D01*
X141204850Y-118492350D02*
X144062350Y-121349850D01*
X139617350Y-118492350D02*
X141204850Y-118492350D01*
X137871100Y-120238600D02*
X139617350Y-118492350D01*
X147396100Y-105633600D02*
X148031100Y-106268600D01*
X141046100Y-105633600D02*
X147396100Y-105633600D01*
X140411100Y-104998600D02*
X141046100Y-105633600D01*
X141363600Y-85631100D02*
X140411100Y-84678600D01*
X144221100Y-85631100D02*
X141363600Y-85631100D01*
X175494850Y-86424850D02*
X178352350Y-89282350D01*
X147554850Y-86424850D02*
X175494850Y-86424850D01*
X146919850Y-85789850D02*
X147554850Y-86424850D01*
X145808600Y-85789850D02*
X146919850Y-85789850D01*
X145649850Y-85631100D02*
X145808600Y-85789850D01*
X144221100Y-85631100D02*
X145649850Y-85631100D01*
X149777350Y-90552350D02*
X141998600Y-90552350D01*
X150729850Y-91504850D02*
X149777350Y-90552350D01*
X150729850Y-94997350D02*
X150729850Y-91504850D01*
X171526100Y-94997350D02*
X150729850Y-94997350D01*
X172796100Y-93727350D02*
X171526100Y-94997350D01*
X178987350Y-93727350D02*
X172796100Y-93727350D01*
X182162350Y-96902350D02*
X178987350Y-93727350D01*
X182479850Y-96902350D02*
X182162350Y-96902350D01*
X182321100Y-103728600D02*
X183432350Y-102617350D01*
X173431100Y-103728600D02*
X182321100Y-103728600D01*
X165017350Y-101982350D02*
X165811100Y-101188600D01*
X158984850Y-101982350D02*
X165017350Y-101982350D01*
X158667350Y-101664850D02*
X158984850Y-101982350D01*
X157397350Y-101664850D02*
X158667350Y-101664850D01*
X156762350Y-102299850D02*
X157397350Y-101664850D01*
X136601100Y-102299850D02*
X156762350Y-102299850D01*
X135331100Y-103569850D02*
X136601100Y-102299850D01*
X135331100Y-104998600D02*
X135331100Y-103569850D01*
X176288600Y-107856100D02*
X177558600Y-107856100D01*
X175177350Y-108967350D02*
X176288600Y-107856100D01*
X175177350Y-109919850D02*
X175177350Y-108967350D01*
X170732350Y-109919850D02*
X175177350Y-109919850D01*
X166922350Y-101347350D02*
X169779850Y-104204850D01*
X165811100Y-101347350D02*
X166922350Y-101347350D01*
X165811100Y-101347350D02*
X165811100Y-101188600D01*
X163588600Y-97537350D02*
X163667975Y-97616725D01*
X163667975Y-97616725D02*
X164064850Y-98013600D01*
X146126100Y-97537350D02*
X163588600Y-97537350D01*
X145808600Y-97219850D02*
X146126100Y-97537350D01*
X133902350Y-97219850D02*
X145808600Y-97219850D01*
X178511100Y-109126100D02*
X179622350Y-110237350D01*
X178511100Y-106109850D02*
X178511100Y-109126100D01*
X177558600Y-106109850D02*
X178511100Y-106109850D01*
X173907350Y-97537350D02*
X177082350Y-100712350D01*
X163747350Y-97537350D02*
X173907350Y-97537350D01*
X163747350Y-97537350D02*
X163667975Y-97616725D01*
X166446100Y-106903600D02*
X165811100Y-106268600D01*
X170732350Y-106903600D02*
X166446100Y-106903600D01*
X172954850Y-122302350D02*
X171684850Y-121032350D01*
X179304850Y-122302350D02*
X172954850Y-122302350D01*
X182321100Y-125318600D02*
X179304850Y-122302350D01*
X132156100Y-86583600D02*
X130251100Y-84678600D01*
X145332350Y-86583600D02*
X132156100Y-86583600D01*
X148824850Y-87059850D02*
X148507350Y-87377350D01*
X163112350Y-87059850D02*
X148824850Y-87059850D01*
X164064850Y-88012350D02*
X163112350Y-87059850D01*
X107391100Y-114364850D02*
X107391100Y-120238600D01*
X112471100Y-114364850D02*
X107391100Y-114364850D01*
X112947350Y-113888600D02*
X112471100Y-114364850D01*
X141681100Y-113888600D02*
X112947350Y-113888600D01*
X145491100Y-117698600D02*
X141681100Y-113888600D01*
X155016100Y-117063600D02*
X155651100Y-116428600D01*
X149618600Y-117063600D02*
X155016100Y-117063600D01*
X149142350Y-117539850D02*
X149618600Y-117063600D01*
X145491100Y-117539850D02*
X149142350Y-117539850D01*
X145491100Y-117539850D02*
X145491100Y-117698600D01*
X108184850Y-86424850D02*
X109931100Y-84678600D01*
X100564850Y-86424850D02*
X108184850Y-86424850D01*
X100247350Y-86107350D02*
X100564850Y-86424850D01*
X99294850Y-86107350D02*
X100247350Y-86107350D01*
X98659850Y-86742350D02*
X99294850Y-86107350D01*
X98659850Y-109443600D02*
X98659850Y-86742350D01*
X104692350Y-109443600D02*
X98659850Y-109443600D01*
X104851100Y-101664850D02*
X104851100Y-104998600D01*
X105644850Y-101664850D02*
X104851100Y-101664850D01*
X107391100Y-99918600D02*
X105644850Y-101664850D01*
X145649850Y-120079850D02*
X145491100Y-120238600D01*
X151047350Y-120079850D02*
X145649850Y-120079850D01*
X152158600Y-118968600D02*
X151047350Y-120079850D01*
X155651100Y-118968600D02*
X152158600Y-118968600D01*
X107391100Y-107538600D02*
X104851100Y-104998600D01*
X128663600Y-107538600D02*
X107391100Y-107538600D01*
X129933600Y-115476100D02*
X129298600Y-114841100D01*
X140887350Y-115476100D02*
X129933600Y-115476100D01*
X145491100Y-120079850D02*
X140887350Y-115476100D01*
X145491100Y-120079850D02*
X145491100Y-120238600D01*
X146761100Y-115158600D02*
X148031100Y-116428600D01*
X145491100Y-115158600D02*
X146761100Y-115158600D01*
X108661100Y-112301100D02*
X142951100Y-112301100D01*
X104851100Y-116111100D02*
X108661100Y-112301100D01*
X104851100Y-120238600D02*
X104851100Y-116111100D01*
X146761100Y-113888600D02*
X145491100Y-112618600D01*
X148031100Y-113888600D02*
X146761100Y-113888600D01*
X145014850Y-113253600D02*
X145491100Y-112777350D01*
X108978600Y-113253600D02*
X145014850Y-113253600D01*
X145491100Y-112777350D02*
X145491100Y-112618600D01*
X169621100Y-112618600D02*
X173431100Y-116428600D01*
X163271100Y-112618600D02*
X169621100Y-112618600D01*
X157873600Y-112618600D02*
X163271100Y-112618600D01*
X153746100Y-100077350D02*
X153904850Y-100236100D01*
X142474850Y-100077350D02*
X153746100Y-100077350D01*
X140887350Y-101664850D02*
X142474850Y-100077350D01*
X109454850Y-101664850D02*
X140887350Y-101664850D01*
X108502350Y-100712350D02*
X109454850Y-101664850D01*
X108502350Y-98172350D02*
X108502350Y-100712350D01*
X104057350Y-98172350D02*
X108502350Y-98172350D01*
X102311100Y-99918600D02*
X104057350Y-98172350D01*
X153904850Y-89282350D02*
X156921100Y-92298600D01*
X128187350Y-89282350D02*
X153904850Y-89282350D01*
X173272350Y-111189850D02*
X173431100Y-111348600D01*
X170732350Y-111189850D02*
X173272350Y-111189850D01*
X166922350Y-102617350D02*
X168509850Y-104204850D01*
X158349850Y-102617350D02*
X166922350Y-102617350D01*
X163429850Y-120079850D02*
X163271100Y-120238600D01*
X172319850Y-120079850D02*
X163429850Y-120079850D01*
X173431100Y-118968600D02*
X172319850Y-120079850D01*
X158191100Y-89599850D02*
X157873600Y-89917350D01*
X173431100Y-89599850D02*
X158191100Y-89599850D01*
X173748600Y-89282350D02*
X173431100Y-89599850D01*
X176129850Y-118968600D02*
X178511100Y-116587350D01*
X173431100Y-118968600D02*
X176129850Y-118968600D01*
X164541100Y-116428600D02*
X163271100Y-117698600D01*
X165811100Y-116428600D02*
X164541100Y-116428600D01*
X157556100Y-88964850D02*
X156603600Y-89917350D01*
X165652350Y-88964850D02*
X157556100Y-88964850D01*
X165969850Y-88647350D02*
X165652350Y-88964850D01*
X182321100Y-89758600D02*
X182321100Y-92298600D01*
X181051100Y-89758600D02*
X182321100Y-89758600D01*
X179781100Y-88488600D02*
X181051100Y-89758600D01*
X158667350Y-82932350D02*
X156921100Y-84678600D01*
X176764850Y-82932350D02*
X158667350Y-82932350D01*
X179781100Y-85948600D02*
X176764850Y-82932350D01*
X179781100Y-85948600D02*
X182321100Y-85948600D01*
X182321100Y-85948600D02*
X184861100Y-85948600D01*
X184861100Y-85948600D02*
X187401100Y-85948600D01*
X187401100Y-85948600D02*
X189941100Y-85948600D01*
X189941100Y-85948600D02*
X192481100Y-85948600D01*
X192481100Y-85948600D02*
X195021100Y-85948600D01*
X195021100Y-85948600D02*
X197561100Y-85948600D01*
X177717350Y-120714850D02*
X181368600Y-117063600D01*
X175653600Y-120714850D02*
X177717350Y-120714850D01*
X172796100Y-122937350D02*
X173113600Y-123254850D01*
X165493600Y-122937350D02*
X172796100Y-122937350D01*
X165017350Y-122461100D02*
X165493600Y-122937350D01*
X162001100Y-122461100D02*
X165017350Y-122461100D01*
X160413600Y-113888600D02*
X155651100Y-113888600D01*
X163112350Y-100077350D02*
X162159850Y-101029850D01*
X167557350Y-100077350D02*
X163112350Y-100077350D01*
X172319850Y-104839850D02*
X167557350Y-100077350D01*
X175494850Y-104839850D02*
X172319850Y-104839850D01*
X175653600Y-104681100D02*
X175494850Y-104839850D01*
X176606100Y-113888600D02*
X176606100Y-112142350D01*
X176606100Y-112142350D02*
X176606100Y-108808600D01*
X173431100Y-113888600D02*
X176606100Y-113888600D01*
X193274850Y-112142350D02*
X195021100Y-113888600D01*
X176606100Y-112142350D02*
X193274850Y-112142350D01*
X184067350Y-115634850D02*
X182321100Y-113888600D01*
X198037350Y-115634850D02*
X184067350Y-115634850D01*
X198672350Y-114999850D02*
X198037350Y-115634850D01*
X198672350Y-101664850D02*
X198672350Y-114999850D01*
X179304850Y-101664850D02*
X198672350Y-101664850D01*
X175494850Y-97854850D02*
X179304850Y-101664850D01*
X158032350Y-110237350D02*
X158984850Y-109284850D01*
X151682350Y-110237350D02*
X158032350Y-110237350D01*
M02*
