G04 #@! TF.GenerationSoftware,KiCad,Pcbnew,5.1.2*
G04 #@! TF.CreationDate,2020-10-23T15:14:39+02:00*
G04 #@! TF.ProjectId,2fe143d13a9057f7874dd1e763167673,32666531-3433-4643-9133-613930353766,rev?*
G04 #@! TF.SameCoordinates,Original*
G04 #@! TF.FileFunction,Legend,Top*
G04 #@! TF.FilePolarity,Positive*
%FSLAX46Y46*%
G04 Gerber Fmt 4.6, Leading zero omitted, Abs format (unit mm)*
G04 Created by KiCad (PCBNEW 5.1.2) date 2020-10-23 15:14:39*
%MOMM*%
%LPD*%
G04 APERTURE LIST*
%ADD10C,0.065024*%
%ADD11C,0.048768*%
%ADD12C,0.152400*%
%ADD13C,0.254000*%
%ADD14C,0.127000*%
%ADD15C,0.120650*%
%ADD16C,0.135128*%
%ADD17C,0.118872*%
G04 APERTURE END LIST*
D10*
X99023230Y-122709886D02*
X98251070Y-122709886D01*
X98251070Y-122415730D01*
X98287840Y-122342191D01*
X98324609Y-122305422D01*
X98398148Y-122268652D01*
X98508457Y-122268652D01*
X98581996Y-122305422D01*
X98618765Y-122342191D01*
X98655535Y-122415730D01*
X98655535Y-122709886D01*
X99023230Y-121937726D02*
X98251070Y-121937726D01*
X99023230Y-121570031D02*
X98251070Y-121570031D01*
X99023230Y-121128797D01*
X98251070Y-121128797D01*
X99023230Y-120356637D02*
X99023230Y-120797871D01*
X99023230Y-120577254D02*
X98251070Y-120577254D01*
X98361379Y-120650793D01*
X98434918Y-120724332D01*
X98471687Y-120797871D01*
X184720137Y-120459217D02*
X184867215Y-120973990D01*
X185014293Y-120606295D01*
X185161371Y-120973990D01*
X185308449Y-120459217D01*
X185529066Y-120459217D02*
X185676144Y-120973990D01*
X185823222Y-120606295D01*
X185970301Y-120973990D01*
X186117379Y-120459217D01*
X186337996Y-120459217D02*
X186485074Y-120973990D01*
X186632152Y-120606295D01*
X186779230Y-120973990D01*
X186926308Y-120459217D01*
X187220464Y-120900451D02*
X187257234Y-120937220D01*
X187220464Y-120973990D01*
X187183695Y-120937220D01*
X187220464Y-120900451D01*
X187220464Y-120973990D01*
X187551390Y-120937220D02*
X187624929Y-120973990D01*
X187772007Y-120973990D01*
X187845546Y-120937220D01*
X187882316Y-120863681D01*
X187882316Y-120826912D01*
X187845546Y-120753373D01*
X187772007Y-120716603D01*
X187661699Y-120716603D01*
X187588160Y-120679834D01*
X187551390Y-120606295D01*
X187551390Y-120569525D01*
X187588160Y-120495986D01*
X187661699Y-120459217D01*
X187772007Y-120459217D01*
X187845546Y-120495986D01*
X188213242Y-120973990D02*
X188213242Y-120459217D01*
X188213242Y-120532756D02*
X188250011Y-120495986D01*
X188323550Y-120459217D01*
X188433859Y-120459217D01*
X188507398Y-120495986D01*
X188544167Y-120569525D01*
X188544167Y-120973990D01*
X188544167Y-120569525D02*
X188580937Y-120495986D01*
X188654476Y-120459217D01*
X188764784Y-120459217D01*
X188838323Y-120495986D01*
X188875093Y-120569525D01*
X188875093Y-120973990D01*
X189242788Y-120973990D02*
X189242788Y-120201830D01*
X189242788Y-120495986D02*
X189316327Y-120459217D01*
X189463405Y-120459217D01*
X189536944Y-120495986D01*
X189573714Y-120532756D01*
X189610483Y-120606295D01*
X189610483Y-120826912D01*
X189573714Y-120900451D01*
X189536944Y-120937220D01*
X189463405Y-120973990D01*
X189316327Y-120973990D01*
X189242788Y-120937220D01*
X190272335Y-120973990D02*
X190272335Y-120569525D01*
X190235565Y-120495986D01*
X190162026Y-120459217D01*
X190014948Y-120459217D01*
X189941409Y-120495986D01*
X190272335Y-120937220D02*
X190198796Y-120973990D01*
X190014948Y-120973990D01*
X189941409Y-120937220D01*
X189904640Y-120863681D01*
X189904640Y-120790142D01*
X189941409Y-120716603D01*
X190014948Y-120679834D01*
X190198796Y-120679834D01*
X190272335Y-120643064D01*
X190640030Y-120973990D02*
X190640030Y-120201830D01*
X190713569Y-120679834D02*
X190934186Y-120973990D01*
X190934186Y-120459217D02*
X190640030Y-120753373D01*
X191559268Y-120937220D02*
X191485729Y-120973990D01*
X191338651Y-120973990D01*
X191265112Y-120937220D01*
X191228342Y-120863681D01*
X191228342Y-120569525D01*
X191265112Y-120495986D01*
X191338651Y-120459217D01*
X191485729Y-120459217D01*
X191559268Y-120495986D01*
X191596038Y-120569525D01*
X191596038Y-120643064D01*
X191228342Y-120716603D01*
X191926963Y-120973990D02*
X191926963Y-120459217D01*
X191926963Y-120606295D02*
X191963733Y-120532756D01*
X192000502Y-120495986D01*
X192074042Y-120459217D01*
X192147581Y-120459217D01*
X192404967Y-120900451D02*
X192441737Y-120937220D01*
X192404967Y-120973990D01*
X192368198Y-120937220D01*
X192404967Y-120900451D01*
X192404967Y-120973990D01*
X193103588Y-120937220D02*
X193030049Y-120973990D01*
X192882971Y-120973990D01*
X192809432Y-120937220D01*
X192772662Y-120900451D01*
X192735893Y-120826912D01*
X192735893Y-120606295D01*
X192772662Y-120532756D01*
X192809432Y-120495986D01*
X192882971Y-120459217D01*
X193030049Y-120459217D01*
X193103588Y-120495986D01*
X193544822Y-120973990D02*
X193471283Y-120937220D01*
X193434514Y-120900451D01*
X193397744Y-120826912D01*
X193397744Y-120606295D01*
X193434514Y-120532756D01*
X193471283Y-120495986D01*
X193544822Y-120459217D01*
X193655131Y-120459217D01*
X193728670Y-120495986D01*
X193765440Y-120532756D01*
X193802209Y-120606295D01*
X193802209Y-120826912D01*
X193765440Y-120900451D01*
X193728670Y-120937220D01*
X193655131Y-120973990D01*
X193544822Y-120973990D01*
X194133135Y-120973990D02*
X194133135Y-120459217D01*
X194133135Y-120532756D02*
X194169904Y-120495986D01*
X194243443Y-120459217D01*
X194353752Y-120459217D01*
X194427291Y-120495986D01*
X194464061Y-120569525D01*
X194464061Y-120973990D01*
X194464061Y-120569525D02*
X194500830Y-120495986D01*
X194574369Y-120459217D01*
X194684678Y-120459217D01*
X194758217Y-120495986D01*
X194794986Y-120569525D01*
X194794986Y-120973990D01*
D11*
X179193302Y-83910106D02*
X179193302Y-83854952D01*
X179220880Y-83799797D01*
X179248457Y-83772220D01*
X179303611Y-83744643D01*
X179413920Y-83717066D01*
X179551805Y-83717066D01*
X179662114Y-83744643D01*
X179717268Y-83772220D01*
X179744845Y-83799797D01*
X179772422Y-83854952D01*
X179772422Y-83910106D01*
X179744845Y-83965260D01*
X179717268Y-83992837D01*
X179662114Y-84020415D01*
X179551805Y-84047992D01*
X179413920Y-84047992D01*
X179303611Y-84020415D01*
X179248457Y-83992837D01*
X179220880Y-83965260D01*
X179193302Y-83910106D01*
X179193302Y-83358563D02*
X179193302Y-83303409D01*
X179220880Y-83248255D01*
X179248457Y-83220677D01*
X179303611Y-83193100D01*
X179413920Y-83165523D01*
X179551805Y-83165523D01*
X179662114Y-83193100D01*
X179717268Y-83220677D01*
X179744845Y-83248255D01*
X179772422Y-83303409D01*
X179772422Y-83358563D01*
X179744845Y-83413717D01*
X179717268Y-83441295D01*
X179662114Y-83468872D01*
X179551805Y-83496449D01*
X179413920Y-83496449D01*
X179303611Y-83468872D01*
X179248457Y-83441295D01*
X179220880Y-83413717D01*
X179193302Y-83358563D01*
X182352422Y-83717066D02*
X182352422Y-84047992D01*
X182352422Y-83882529D02*
X181773302Y-83882529D01*
X181856034Y-83937683D01*
X181911188Y-83992837D01*
X181938765Y-84047992D01*
X181773302Y-83358563D02*
X181773302Y-83303409D01*
X181800880Y-83248255D01*
X181828457Y-83220677D01*
X181883611Y-83193100D01*
X181993920Y-83165523D01*
X182131805Y-83165523D01*
X182242114Y-83193100D01*
X182297268Y-83220677D01*
X182324845Y-83248255D01*
X182352422Y-83303409D01*
X182352422Y-83358563D01*
X182324845Y-83413717D01*
X182297268Y-83441295D01*
X182242114Y-83468872D01*
X182131805Y-83496449D01*
X181993920Y-83496449D01*
X181883611Y-83468872D01*
X181828457Y-83441295D01*
X181800880Y-83413717D01*
X181773302Y-83358563D01*
X184418457Y-83977992D02*
X184390880Y-83950415D01*
X184363302Y-83895260D01*
X184363302Y-83757375D01*
X184390880Y-83702220D01*
X184418457Y-83674643D01*
X184473611Y-83647066D01*
X184528765Y-83647066D01*
X184611497Y-83674643D01*
X184942422Y-84005569D01*
X184942422Y-83647066D01*
X184363302Y-83288563D02*
X184363302Y-83233409D01*
X184390880Y-83178255D01*
X184418457Y-83150677D01*
X184473611Y-83123100D01*
X184583920Y-83095523D01*
X184721805Y-83095523D01*
X184832114Y-83123100D01*
X184887268Y-83150677D01*
X184914845Y-83178255D01*
X184942422Y-83233409D01*
X184942422Y-83288563D01*
X184914845Y-83343717D01*
X184887268Y-83371295D01*
X184832114Y-83398872D01*
X184721805Y-83426449D01*
X184583920Y-83426449D01*
X184473611Y-83398872D01*
X184418457Y-83371295D01*
X184390880Y-83343717D01*
X184363302Y-83288563D01*
X186873302Y-84005569D02*
X186873302Y-83647066D01*
X187093920Y-83840106D01*
X187093920Y-83757375D01*
X187121497Y-83702220D01*
X187149074Y-83674643D01*
X187204228Y-83647066D01*
X187342114Y-83647066D01*
X187397268Y-83674643D01*
X187424845Y-83702220D01*
X187452422Y-83757375D01*
X187452422Y-83922837D01*
X187424845Y-83977992D01*
X187397268Y-84005569D01*
X186873302Y-83288563D02*
X186873302Y-83233409D01*
X186900880Y-83178255D01*
X186928457Y-83150677D01*
X186983611Y-83123100D01*
X187093920Y-83095523D01*
X187231805Y-83095523D01*
X187342114Y-83123100D01*
X187397268Y-83150677D01*
X187424845Y-83178255D01*
X187452422Y-83233409D01*
X187452422Y-83288563D01*
X187424845Y-83343717D01*
X187397268Y-83371295D01*
X187342114Y-83398872D01*
X187231805Y-83426449D01*
X187093920Y-83426449D01*
X186983611Y-83398872D01*
X186928457Y-83371295D01*
X186900880Y-83343717D01*
X186873302Y-83288563D01*
X189656342Y-83702220D02*
X190042422Y-83702220D01*
X189435725Y-83840106D02*
X189849382Y-83977992D01*
X189849382Y-83619489D01*
X189463302Y-83288563D02*
X189463302Y-83233409D01*
X189490880Y-83178255D01*
X189518457Y-83150677D01*
X189573611Y-83123100D01*
X189683920Y-83095523D01*
X189821805Y-83095523D01*
X189932114Y-83123100D01*
X189987268Y-83150677D01*
X190014845Y-83178255D01*
X190042422Y-83233409D01*
X190042422Y-83288563D01*
X190014845Y-83343717D01*
X189987268Y-83371295D01*
X189932114Y-83398872D01*
X189821805Y-83426449D01*
X189683920Y-83426449D01*
X189573611Y-83398872D01*
X189518457Y-83371295D01*
X189490880Y-83343717D01*
X189463302Y-83288563D01*
X192043302Y-83674643D02*
X192043302Y-83950415D01*
X192319074Y-83977992D01*
X192291497Y-83950415D01*
X192263920Y-83895260D01*
X192263920Y-83757375D01*
X192291497Y-83702220D01*
X192319074Y-83674643D01*
X192374228Y-83647066D01*
X192512114Y-83647066D01*
X192567268Y-83674643D01*
X192594845Y-83702220D01*
X192622422Y-83757375D01*
X192622422Y-83895260D01*
X192594845Y-83950415D01*
X192567268Y-83977992D01*
X192043302Y-83288563D02*
X192043302Y-83233409D01*
X192070880Y-83178255D01*
X192098457Y-83150677D01*
X192153611Y-83123100D01*
X192263920Y-83095523D01*
X192401805Y-83095523D01*
X192512114Y-83123100D01*
X192567268Y-83150677D01*
X192594845Y-83178255D01*
X192622422Y-83233409D01*
X192622422Y-83288563D01*
X192594845Y-83343717D01*
X192567268Y-83371295D01*
X192512114Y-83398872D01*
X192401805Y-83426449D01*
X192263920Y-83426449D01*
X192153611Y-83398872D01*
X192098457Y-83371295D01*
X192070880Y-83343717D01*
X192043302Y-83288563D01*
X194553302Y-83772220D02*
X194553302Y-83882529D01*
X194580880Y-83937683D01*
X194608457Y-83965260D01*
X194691188Y-84020415D01*
X194801497Y-84047992D01*
X195022114Y-84047992D01*
X195077268Y-84020415D01*
X195104845Y-83992837D01*
X195132422Y-83937683D01*
X195132422Y-83827375D01*
X195104845Y-83772220D01*
X195077268Y-83744643D01*
X195022114Y-83717066D01*
X194884228Y-83717066D01*
X194829074Y-83744643D01*
X194801497Y-83772220D01*
X194773920Y-83827375D01*
X194773920Y-83937683D01*
X194801497Y-83992837D01*
X194829074Y-84020415D01*
X194884228Y-84047992D01*
X194553302Y-83358563D02*
X194553302Y-83303409D01*
X194580880Y-83248255D01*
X194608457Y-83220677D01*
X194663611Y-83193100D01*
X194773920Y-83165523D01*
X194911805Y-83165523D01*
X195022114Y-83193100D01*
X195077268Y-83220677D01*
X195104845Y-83248255D01*
X195132422Y-83303409D01*
X195132422Y-83358563D01*
X195104845Y-83413717D01*
X195077268Y-83441295D01*
X195022114Y-83468872D01*
X194911805Y-83496449D01*
X194773920Y-83496449D01*
X194663611Y-83468872D01*
X194608457Y-83441295D01*
X194580880Y-83413717D01*
X194553302Y-83358563D01*
X196863302Y-84075569D02*
X196863302Y-83689489D01*
X197442422Y-83937683D01*
X196863302Y-83358563D02*
X196863302Y-83303409D01*
X196890880Y-83248255D01*
X196918457Y-83220677D01*
X196973611Y-83193100D01*
X197083920Y-83165523D01*
X197221805Y-83165523D01*
X197332114Y-83193100D01*
X197387268Y-83220677D01*
X197414845Y-83248255D01*
X197442422Y-83303409D01*
X197442422Y-83358563D01*
X197414845Y-83413717D01*
X197387268Y-83441295D01*
X197332114Y-83468872D01*
X197221805Y-83496449D01*
X197083920Y-83496449D01*
X196973611Y-83468872D01*
X196918457Y-83441295D01*
X196890880Y-83413717D01*
X196863302Y-83358563D01*
D12*
X99771100Y-85694600D02*
X99771100Y-85567600D01*
D13*
X99771100Y-85694600D02*
X99009100Y-85694600D01*
X100533100Y-85694600D02*
X99771100Y-85694600D01*
X99771100Y-86202600D02*
X99009100Y-86202600D01*
X99771100Y-86202600D02*
X100533100Y-86202600D01*
D12*
X99771100Y-86329600D02*
X99771100Y-86202600D01*
X98501100Y-83789600D02*
G75*
G02X98755100Y-83535600I254000J0D01*
G01*
X98755100Y-88361600D02*
G75*
G02X98501100Y-88107600I0J254000D01*
G01*
X101041100Y-83789600D02*
G75*
G03X100787100Y-83535600I-254000J0D01*
G01*
X100787100Y-88361600D02*
G75*
G03X101041100Y-88107600I0J254000D01*
G01*
X100787100Y-83535600D02*
X98755100Y-83535600D01*
X100787100Y-88361600D02*
X98755100Y-88361600D01*
X98501100Y-88107600D02*
X98501100Y-83789600D01*
X101041100Y-83789600D02*
X101041100Y-88107600D01*
X99771100Y-106014600D02*
X99771100Y-105887600D01*
D13*
X99771100Y-106014600D02*
X99009100Y-106014600D01*
X100533100Y-106014600D02*
X99771100Y-106014600D01*
X99771100Y-106522600D02*
X99009100Y-106522600D01*
X99771100Y-106522600D02*
X100533100Y-106522600D01*
D12*
X99771100Y-106649600D02*
X99771100Y-106522600D01*
X98501100Y-104109600D02*
G75*
G02X98755100Y-103855600I254000J0D01*
G01*
X98755100Y-108681600D02*
G75*
G02X98501100Y-108427600I0J254000D01*
G01*
X101041100Y-104109600D02*
G75*
G03X100787100Y-103855600I-254000J0D01*
G01*
X100787100Y-108681600D02*
G75*
G03X101041100Y-108427600I0J254000D01*
G01*
X100787100Y-103855600D02*
X98755100Y-103855600D01*
X100787100Y-108681600D02*
X98755100Y-108681600D01*
X98501100Y-108427600D02*
X98501100Y-104109600D01*
X101041100Y-104109600D02*
X101041100Y-108427600D01*
X146761100Y-85694600D02*
X146761100Y-85567600D01*
D13*
X146761100Y-85694600D02*
X145999100Y-85694600D01*
X147523100Y-85694600D02*
X146761100Y-85694600D01*
X146761100Y-86202600D02*
X145999100Y-86202600D01*
X146761100Y-86202600D02*
X147523100Y-86202600D01*
D12*
X146761100Y-86329600D02*
X146761100Y-86202600D01*
X145491100Y-83789600D02*
G75*
G02X145745100Y-83535600I254000J0D01*
G01*
X145745100Y-88361600D02*
G75*
G02X145491100Y-88107600I0J254000D01*
G01*
X148031100Y-83789600D02*
G75*
G03X147777100Y-83535600I-254000J0D01*
G01*
X147777100Y-88361600D02*
G75*
G03X148031100Y-88107600I0J254000D01*
G01*
X147777100Y-83535600D02*
X145745100Y-83535600D01*
X147777100Y-88361600D02*
X145745100Y-88361600D01*
X145491100Y-88107600D02*
X145491100Y-83789600D01*
X148031100Y-83789600D02*
X148031100Y-88107600D01*
X154635100Y-98648600D02*
X154762100Y-98648600D01*
D13*
X154635100Y-98648600D02*
X154635100Y-97886600D01*
X154635100Y-99410600D02*
X154635100Y-98648600D01*
X154127100Y-98648600D02*
X154127100Y-97886600D01*
X154127100Y-98648600D02*
X154127100Y-99410600D01*
D12*
X154000100Y-98648600D02*
X154127100Y-98648600D01*
X156540100Y-97378600D02*
G75*
G02X156794100Y-97632600I0J-254000D01*
G01*
X151968100Y-97632600D02*
G75*
G02X152222100Y-97378600I254000J0D01*
G01*
X156540100Y-99918600D02*
G75*
G03X156794100Y-99664600I0J254000D01*
G01*
X151968100Y-99664600D02*
G75*
G03X152222100Y-99918600I254000J0D01*
G01*
X156794100Y-99664600D02*
X156794100Y-97632600D01*
X151968100Y-99664600D02*
X151968100Y-97632600D01*
X152222100Y-97378600D02*
X156540100Y-97378600D01*
X156540100Y-99918600D02*
X152222100Y-99918600D01*
X172415100Y-98648600D02*
X172542100Y-98648600D01*
D13*
X172415100Y-98648600D02*
X172415100Y-97886600D01*
X172415100Y-99410600D02*
X172415100Y-98648600D01*
X171907100Y-98648600D02*
X171907100Y-97886600D01*
X171907100Y-98648600D02*
X171907100Y-99410600D01*
D12*
X171780100Y-98648600D02*
X171907100Y-98648600D01*
X174320100Y-97378600D02*
G75*
G02X174574100Y-97632600I0J-254000D01*
G01*
X169748100Y-97632600D02*
G75*
G02X170002100Y-97378600I254000J0D01*
G01*
X174320100Y-99918600D02*
G75*
G03X174574100Y-99664600I0J254000D01*
G01*
X169748100Y-99664600D02*
G75*
G03X170002100Y-99918600I254000J0D01*
G01*
X174574100Y-99664600D02*
X174574100Y-97632600D01*
X169748100Y-99664600D02*
X169748100Y-97632600D01*
X170002100Y-97378600D02*
X174320100Y-97378600D01*
X174320100Y-99918600D02*
X170002100Y-99918600D01*
X101041100Y-113634600D02*
G75*
G03X101041100Y-111602600I0J1016000D01*
G01*
X101041100Y-119349600D02*
X101041100Y-113634600D01*
X101041100Y-105887600D02*
X101041100Y-111602600D01*
X141681100Y-105887600D02*
X141681100Y-119349600D01*
X101041100Y-119349600D02*
X141681100Y-119349600D01*
X141681100Y-105887600D02*
X101041100Y-105887600D01*
X101041100Y-93314600D02*
G75*
G03X101041100Y-91282600I0J1016000D01*
G01*
X101041100Y-99029600D02*
X101041100Y-93314600D01*
X101041100Y-85567600D02*
X101041100Y-91282600D01*
X141681100Y-85567600D02*
X141681100Y-99029600D01*
X101041100Y-99029600D02*
X141681100Y-99029600D01*
X141681100Y-85567600D02*
X101041100Y-85567600D01*
X150825100Y-99918600D02*
G75*
G03X152857100Y-99918600I1016000J0D01*
G01*
X148920100Y-99918600D02*
X150825100Y-99918600D01*
X154762100Y-99918600D02*
X152857100Y-99918600D01*
X154762100Y-120238600D02*
X148920100Y-120238600D01*
X148920100Y-99918600D02*
X148920100Y-120238600D01*
X154762100Y-120238600D02*
X154762100Y-99918600D01*
X168605100Y-99918600D02*
G75*
G03X170637100Y-99918600I1016000J0D01*
G01*
X166700100Y-99918600D02*
X168605100Y-99918600D01*
X172542100Y-99918600D02*
X170637100Y-99918600D01*
X172542100Y-120238600D02*
X166700100Y-120238600D01*
X166700100Y-99918600D02*
X166700100Y-120238600D01*
X172542100Y-120238600D02*
X172542100Y-99918600D01*
X148031100Y-89504600D02*
G75*
G03X148031100Y-87472600I0J1016000D01*
G01*
X148031100Y-91409600D02*
X148031100Y-89504600D01*
X148031100Y-85567600D02*
X148031100Y-87472600D01*
X168351100Y-85567600D02*
X168351100Y-91409600D01*
X148031100Y-91409600D02*
X168351100Y-91409600D01*
X168351100Y-85567600D02*
X148031100Y-85567600D01*
X178511100Y-97124600D02*
G75*
G03X178511100Y-95092600I0J1016000D01*
G01*
X178511100Y-99029600D02*
X178511100Y-97124600D01*
X178511100Y-93187600D02*
X178511100Y-95092600D01*
X198831100Y-93187600D02*
X198831100Y-99029600D01*
X178511100Y-99029600D02*
X198831100Y-99029600D01*
X198831100Y-93187600D02*
X178511100Y-93187600D01*
X181051100Y-111094600D02*
G75*
G03X181051100Y-109062600I0J1016000D01*
G01*
X181051100Y-112999600D02*
X181051100Y-111094600D01*
X181051100Y-107157600D02*
X181051100Y-109062600D01*
X198831100Y-107157600D02*
X198831100Y-112999600D01*
X181051100Y-112999600D02*
X198831100Y-112999600D01*
X198831100Y-107157600D02*
X181051100Y-107157600D01*
X181686100Y-84678600D02*
X182956100Y-84678600D01*
X183591100Y-85313600D02*
X182956100Y-84678600D01*
X180416100Y-84678600D02*
X181051100Y-85313600D01*
X179146100Y-84678600D02*
X180416100Y-84678600D01*
X178511100Y-85313600D02*
X179146100Y-84678600D01*
X181051100Y-85313600D02*
X181686100Y-84678600D01*
X178511100Y-89123600D02*
X178511100Y-85313600D01*
X182956100Y-89758600D02*
X183591100Y-89123600D01*
X179146100Y-89758600D02*
X178511100Y-89123600D01*
X180416100Y-89758600D02*
X179146100Y-89758600D01*
X181051100Y-89123600D02*
X180416100Y-89758600D01*
X181686100Y-89758600D02*
X181051100Y-89123600D01*
X182956100Y-89758600D02*
X181686100Y-89758600D01*
X185496100Y-84678600D02*
X186131100Y-85313600D01*
X184226100Y-84678600D02*
X185496100Y-84678600D01*
X183591100Y-85313600D02*
X184226100Y-84678600D01*
X189306100Y-84678600D02*
X190576100Y-84678600D01*
X191211100Y-85313600D02*
X190576100Y-84678600D01*
X188036100Y-84678600D02*
X188671100Y-85313600D01*
X186766100Y-84678600D02*
X188036100Y-84678600D01*
X186131100Y-85313600D02*
X186766100Y-84678600D01*
X188671100Y-85313600D02*
X189306100Y-84678600D01*
X193116100Y-84678600D02*
X193751100Y-85313600D01*
X191846100Y-84678600D02*
X193116100Y-84678600D01*
X191211100Y-85313600D02*
X191846100Y-84678600D01*
X196926100Y-84678600D02*
X198196100Y-84678600D01*
X198831100Y-85313600D02*
X198196100Y-84678600D01*
X198831100Y-89123600D02*
X198831100Y-85313600D01*
X195656100Y-84678600D02*
X196291100Y-85313600D01*
X194386100Y-84678600D02*
X195656100Y-84678600D01*
X193751100Y-85313600D02*
X194386100Y-84678600D01*
X196291100Y-85313600D02*
X196926100Y-84678600D01*
X184226100Y-89758600D02*
X183591100Y-89123600D01*
X185496100Y-89758600D02*
X184226100Y-89758600D01*
X186131100Y-89123600D02*
X185496100Y-89758600D01*
X190576100Y-89758600D02*
X191211100Y-89123600D01*
X186766100Y-89758600D02*
X186131100Y-89123600D01*
X188036100Y-89758600D02*
X186766100Y-89758600D01*
X188671100Y-89123600D02*
X188036100Y-89758600D01*
X189306100Y-89758600D02*
X188671100Y-89123600D01*
X190576100Y-89758600D02*
X189306100Y-89758600D01*
X191846100Y-89758600D02*
X191211100Y-89123600D01*
X193116100Y-89758600D02*
X191846100Y-89758600D01*
X193751100Y-89123600D02*
X193116100Y-89758600D01*
X198196100Y-89758600D02*
X198831100Y-89123600D01*
X194386100Y-89758600D02*
X193751100Y-89123600D01*
X195656100Y-89758600D02*
X194386100Y-89758600D01*
X196291100Y-89123600D02*
X195656100Y-89758600D01*
X196926100Y-89758600D02*
X196291100Y-89123600D01*
X198196100Y-89758600D02*
X196926100Y-89758600D01*
X177241100Y-93314600D02*
X177241100Y-93187600D01*
D13*
X177241100Y-93314600D02*
X176479100Y-93314600D01*
X178003100Y-93314600D02*
X177241100Y-93314600D01*
X177241100Y-93822600D02*
X176479100Y-93822600D01*
X177241100Y-93822600D02*
X178003100Y-93822600D01*
D12*
X177241100Y-93949600D02*
X177241100Y-93822600D01*
X175971100Y-91409600D02*
G75*
G02X176225100Y-91155600I254000J0D01*
G01*
X176225100Y-95981600D02*
G75*
G02X175971100Y-95727600I0J254000D01*
G01*
X178511100Y-91409600D02*
G75*
G03X178257100Y-91155600I-254000J0D01*
G01*
X178257100Y-95981600D02*
G75*
G03X178511100Y-95727600I0J254000D01*
G01*
X178257100Y-91155600D02*
X176225100Y-91155600D01*
X178257100Y-95981600D02*
X176225100Y-95981600D01*
X175971100Y-95727600D02*
X175971100Y-91409600D01*
X178511100Y-91409600D02*
X178511100Y-95727600D01*
X164160100Y-106649600D02*
X162382100Y-106649600D01*
X164160100Y-108427600D02*
X164160100Y-106649600D01*
X162255100Y-106776600D02*
X162255100Y-121000600D01*
X164287100Y-106776600D02*
X164287100Y-121000600D01*
X163779100Y-121508600D02*
X162763100Y-121508600D01*
X162255101Y-106776601D02*
G75*
G02X162763100Y-106268600I508000J1D01*
G01*
X163779099Y-121508601D02*
G75*
G03X164287100Y-121000600I0J508001D01*
G01*
X162763101Y-121508601D02*
G75*
G02X162255100Y-121000600I0J508001D01*
G01*
X164287099Y-106776601D02*
G75*
G03X163779100Y-106268600I-508000J1D01*
G01*
X162382100Y-108427600D02*
X162382100Y-106649600D01*
X164160100Y-108427600D02*
X162382100Y-108427600D01*
X163779100Y-106268600D02*
X162763100Y-106268600D01*
X146380100Y-106649600D02*
X144602100Y-106649600D01*
X146380100Y-108427600D02*
X146380100Y-106649600D01*
X144475100Y-106776600D02*
X144475100Y-121000600D01*
X146507100Y-106776600D02*
X146507100Y-121000600D01*
X145999100Y-121508600D02*
X144983100Y-121508600D01*
X144475101Y-106776601D02*
G75*
G02X144983100Y-106268600I508000J1D01*
G01*
X145999099Y-121508601D02*
G75*
G03X146507100Y-121000600I0J508001D01*
G01*
X144983101Y-121508601D02*
G75*
G02X144475100Y-121000600I0J508001D01*
G01*
X146507099Y-106776601D02*
G75*
G03X145999100Y-106268600I-508000J1D01*
G01*
X144602100Y-108427600D02*
X144602100Y-106649600D01*
X146380100Y-108427600D02*
X144602100Y-108427600D01*
X145999100Y-106268600D02*
X144983100Y-106268600D01*
X179781100Y-107284600D02*
X179781100Y-107157600D01*
D13*
X179781100Y-107284600D02*
X179019100Y-107284600D01*
X180543100Y-107284600D02*
X179781100Y-107284600D01*
X179781100Y-107792600D02*
X179019100Y-107792600D01*
X179781100Y-107792600D02*
X180543100Y-107792600D01*
D12*
X179781100Y-107919600D02*
X179781100Y-107792600D01*
X178511100Y-105379600D02*
G75*
G02X178765100Y-105125600I254000J0D01*
G01*
X178765100Y-109951600D02*
G75*
G02X178511100Y-109697600I0J254000D01*
G01*
X181051100Y-105379600D02*
G75*
G03X180797100Y-105125600I-254000J0D01*
G01*
X180797100Y-109951600D02*
G75*
G03X181051100Y-109697600I0J254000D01*
G01*
X180797100Y-105125600D02*
X178765100Y-105125600D01*
X180797100Y-109951600D02*
X178765100Y-109951600D01*
X178511100Y-109697600D02*
X178511100Y-105379600D01*
X181051100Y-105379600D02*
X181051100Y-109697600D01*
D14*
X100094142Y-90361407D02*
X100151595Y-90418859D01*
X100209047Y-90591216D01*
X100209047Y-90706121D01*
X100151595Y-90878478D01*
X100036690Y-90993383D01*
X99921785Y-91050835D01*
X99691976Y-91108288D01*
X99519619Y-91108288D01*
X99289809Y-91050835D01*
X99174904Y-90993383D01*
X99060000Y-90878478D01*
X99002547Y-90706121D01*
X99002547Y-90591216D01*
X99060000Y-90418859D01*
X99117452Y-90361407D01*
X100209047Y-89212359D02*
X100209047Y-89901788D01*
X100209047Y-89557073D02*
X99002547Y-89557073D01*
X99174904Y-89671978D01*
X99289809Y-89786883D01*
X99347261Y-89901788D01*
D15*
X98685047Y-88298065D02*
X98685047Y-88987493D01*
X98685047Y-88642779D02*
X97478547Y-88642779D01*
X97650904Y-88757684D01*
X97765809Y-88872589D01*
X97823261Y-88987493D01*
X97478547Y-87551184D02*
X97478547Y-87436279D01*
X97536000Y-87321374D01*
X97593452Y-87263922D01*
X97708357Y-87206470D01*
X97938166Y-87149017D01*
X98225428Y-87149017D01*
X98455238Y-87206470D01*
X98570142Y-87263922D01*
X98627595Y-87321374D01*
X98685047Y-87436279D01*
X98685047Y-87551184D01*
X98627595Y-87666089D01*
X98570142Y-87723541D01*
X98455238Y-87780993D01*
X98225428Y-87838446D01*
X97938166Y-87838446D01*
X97708357Y-87780993D01*
X97593452Y-87723541D01*
X97536000Y-87666089D01*
X97478547Y-87551184D01*
X97478547Y-86402136D02*
X97478547Y-86287232D01*
X97536000Y-86172327D01*
X97593452Y-86114874D01*
X97708357Y-86057422D01*
X97938166Y-85999970D01*
X98225428Y-85999970D01*
X98455238Y-86057422D01*
X98570142Y-86114874D01*
X98627595Y-86172327D01*
X98685047Y-86287232D01*
X98685047Y-86402136D01*
X98627595Y-86517041D01*
X98570142Y-86574493D01*
X98455238Y-86631946D01*
X98225428Y-86689398D01*
X97938166Y-86689398D01*
X97708357Y-86631946D01*
X97593452Y-86574493D01*
X97536000Y-86517041D01*
X97478547Y-86402136D01*
X97880714Y-85482898D02*
X98685047Y-85482898D01*
X97995619Y-85482898D02*
X97938166Y-85425446D01*
X97880714Y-85310541D01*
X97880714Y-85138184D01*
X97938166Y-85023279D01*
X98053071Y-84965827D01*
X98685047Y-84965827D01*
X98053071Y-83989136D02*
X98053071Y-84391303D01*
X98685047Y-84391303D02*
X97478547Y-84391303D01*
X97478547Y-83816779D01*
D14*
X100094142Y-110681407D02*
X100151595Y-110738859D01*
X100209047Y-110911216D01*
X100209047Y-111026121D01*
X100151595Y-111198478D01*
X100036690Y-111313383D01*
X99921785Y-111370835D01*
X99691976Y-111428288D01*
X99519619Y-111428288D01*
X99289809Y-111370835D01*
X99174904Y-111313383D01*
X99060000Y-111198478D01*
X99002547Y-111026121D01*
X99002547Y-110911216D01*
X99060000Y-110738859D01*
X99117452Y-110681407D01*
X99117452Y-110221788D02*
X99060000Y-110164335D01*
X99002547Y-110049430D01*
X99002547Y-109762169D01*
X99060000Y-109647264D01*
X99117452Y-109589811D01*
X99232357Y-109532359D01*
X99347261Y-109532359D01*
X99519619Y-109589811D01*
X100209047Y-110279240D01*
X100209047Y-109532359D01*
D15*
X98685047Y-108618065D02*
X98685047Y-109307493D01*
X98685047Y-108962779D02*
X97478547Y-108962779D01*
X97650904Y-109077684D01*
X97765809Y-109192589D01*
X97823261Y-109307493D01*
X97478547Y-107871184D02*
X97478547Y-107756279D01*
X97536000Y-107641374D01*
X97593452Y-107583922D01*
X97708357Y-107526470D01*
X97938166Y-107469017D01*
X98225428Y-107469017D01*
X98455238Y-107526470D01*
X98570142Y-107583922D01*
X98627595Y-107641374D01*
X98685047Y-107756279D01*
X98685047Y-107871184D01*
X98627595Y-107986089D01*
X98570142Y-108043541D01*
X98455238Y-108100993D01*
X98225428Y-108158446D01*
X97938166Y-108158446D01*
X97708357Y-108100993D01*
X97593452Y-108043541D01*
X97536000Y-107986089D01*
X97478547Y-107871184D01*
X97478547Y-106722136D02*
X97478547Y-106607232D01*
X97536000Y-106492327D01*
X97593452Y-106434874D01*
X97708357Y-106377422D01*
X97938166Y-106319970D01*
X98225428Y-106319970D01*
X98455238Y-106377422D01*
X98570142Y-106434874D01*
X98627595Y-106492327D01*
X98685047Y-106607232D01*
X98685047Y-106722136D01*
X98627595Y-106837041D01*
X98570142Y-106894493D01*
X98455238Y-106951946D01*
X98225428Y-107009398D01*
X97938166Y-107009398D01*
X97708357Y-106951946D01*
X97593452Y-106894493D01*
X97536000Y-106837041D01*
X97478547Y-106722136D01*
X97880714Y-105802898D02*
X98685047Y-105802898D01*
X97995619Y-105802898D02*
X97938166Y-105745446D01*
X97880714Y-105630541D01*
X97880714Y-105458184D01*
X97938166Y-105343279D01*
X98053071Y-105285827D01*
X98685047Y-105285827D01*
X98053071Y-104309136D02*
X98053071Y-104711303D01*
X98685047Y-104711303D02*
X97478547Y-104711303D01*
X97478547Y-104136779D01*
D14*
X147084142Y-90361407D02*
X147141595Y-90418859D01*
X147199047Y-90591216D01*
X147199047Y-90706121D01*
X147141595Y-90878478D01*
X147026690Y-90993383D01*
X146911785Y-91050835D01*
X146681976Y-91108288D01*
X146509619Y-91108288D01*
X146279809Y-91050835D01*
X146164904Y-90993383D01*
X146050000Y-90878478D01*
X145992547Y-90706121D01*
X145992547Y-90591216D01*
X146050000Y-90418859D01*
X146107452Y-90361407D01*
X145992547Y-89959240D02*
X145992547Y-89212359D01*
X146452166Y-89614526D01*
X146452166Y-89442169D01*
X146509619Y-89327264D01*
X146567071Y-89269811D01*
X146681976Y-89212359D01*
X146969238Y-89212359D01*
X147084142Y-89269811D01*
X147141595Y-89327264D01*
X147199047Y-89442169D01*
X147199047Y-89786883D01*
X147141595Y-89901788D01*
X147084142Y-89959240D01*
D15*
X145116147Y-88394665D02*
X145116147Y-89084093D01*
X145116147Y-88739379D02*
X143909647Y-88739379D01*
X144082004Y-88854284D01*
X144196909Y-88969189D01*
X144254361Y-89084093D01*
X143909647Y-87647784D02*
X143909647Y-87532879D01*
X143967100Y-87417974D01*
X144024552Y-87360522D01*
X144139457Y-87303070D01*
X144369266Y-87245617D01*
X144656528Y-87245617D01*
X144886338Y-87303070D01*
X145001242Y-87360522D01*
X145058695Y-87417974D01*
X145116147Y-87532879D01*
X145116147Y-87647784D01*
X145058695Y-87762689D01*
X145001242Y-87820141D01*
X144886338Y-87877593D01*
X144656528Y-87935046D01*
X144369266Y-87935046D01*
X144139457Y-87877593D01*
X144024552Y-87820141D01*
X143967100Y-87762689D01*
X143909647Y-87647784D01*
X143909647Y-86498736D02*
X143909647Y-86383832D01*
X143967100Y-86268927D01*
X144024552Y-86211474D01*
X144139457Y-86154022D01*
X144369266Y-86096570D01*
X144656528Y-86096570D01*
X144886338Y-86154022D01*
X145001242Y-86211474D01*
X145058695Y-86268927D01*
X145116147Y-86383832D01*
X145116147Y-86498736D01*
X145058695Y-86613641D01*
X145001242Y-86671093D01*
X144886338Y-86728546D01*
X144656528Y-86785998D01*
X144369266Y-86785998D01*
X144139457Y-86728546D01*
X144024552Y-86671093D01*
X143967100Y-86613641D01*
X143909647Y-86498736D01*
X144311814Y-85579498D02*
X145116147Y-85579498D01*
X144426719Y-85579498D02*
X144369266Y-85522046D01*
X144311814Y-85407141D01*
X144311814Y-85234784D01*
X144369266Y-85119879D01*
X144484171Y-85062427D01*
X145116147Y-85062427D01*
X144484171Y-84085736D02*
X144484171Y-84487903D01*
X145116147Y-84487903D02*
X143909647Y-84487903D01*
X143909647Y-83913379D01*
D14*
X149928592Y-98744142D02*
X149871140Y-98801595D01*
X149698783Y-98859047D01*
X149583878Y-98859047D01*
X149411521Y-98801595D01*
X149296616Y-98686690D01*
X149239164Y-98571785D01*
X149181711Y-98341976D01*
X149181711Y-98169619D01*
X149239164Y-97939809D01*
X149296616Y-97824904D01*
X149411521Y-97710000D01*
X149583878Y-97652547D01*
X149698783Y-97652547D01*
X149871140Y-97710000D01*
X149928592Y-97767452D01*
X150962735Y-98054714D02*
X150962735Y-98859047D01*
X150675473Y-97595095D02*
X150388211Y-98456880D01*
X151135092Y-98456880D01*
D15*
X151935034Y-97003647D02*
X151245606Y-97003647D01*
X151590320Y-97003647D02*
X151590320Y-95797147D01*
X151475415Y-95969504D01*
X151360510Y-96084409D01*
X151245606Y-96141861D01*
X152681915Y-95797147D02*
X152796820Y-95797147D01*
X152911725Y-95854600D01*
X152969177Y-95912052D01*
X153026629Y-96026957D01*
X153084082Y-96256766D01*
X153084082Y-96544028D01*
X153026629Y-96773838D01*
X152969177Y-96888742D01*
X152911725Y-96946195D01*
X152796820Y-97003647D01*
X152681915Y-97003647D01*
X152567010Y-96946195D01*
X152509558Y-96888742D01*
X152452106Y-96773838D01*
X152394653Y-96544028D01*
X152394653Y-96256766D01*
X152452106Y-96026957D01*
X152509558Y-95912052D01*
X152567010Y-95854600D01*
X152681915Y-95797147D01*
X153830963Y-95797147D02*
X153945867Y-95797147D01*
X154060772Y-95854600D01*
X154118225Y-95912052D01*
X154175677Y-96026957D01*
X154233129Y-96256766D01*
X154233129Y-96544028D01*
X154175677Y-96773838D01*
X154118225Y-96888742D01*
X154060772Y-96946195D01*
X153945867Y-97003647D01*
X153830963Y-97003647D01*
X153716058Y-96946195D01*
X153658606Y-96888742D01*
X153601153Y-96773838D01*
X153543701Y-96544028D01*
X153543701Y-96256766D01*
X153601153Y-96026957D01*
X153658606Y-95912052D01*
X153716058Y-95854600D01*
X153830963Y-95797147D01*
X154750201Y-96199314D02*
X154750201Y-97003647D01*
X154750201Y-96314219D02*
X154807653Y-96256766D01*
X154922558Y-96199314D01*
X155094915Y-96199314D01*
X155209820Y-96256766D01*
X155267272Y-96371671D01*
X155267272Y-97003647D01*
X156243963Y-96371671D02*
X155841796Y-96371671D01*
X155841796Y-97003647D02*
X155841796Y-95797147D01*
X156416320Y-95797147D01*
D14*
X167388592Y-99014142D02*
X167331140Y-99071595D01*
X167158783Y-99129047D01*
X167043878Y-99129047D01*
X166871521Y-99071595D01*
X166756616Y-98956690D01*
X166699164Y-98841785D01*
X166641711Y-98611976D01*
X166641711Y-98439619D01*
X166699164Y-98209809D01*
X166756616Y-98094904D01*
X166871521Y-97980000D01*
X167043878Y-97922547D01*
X167158783Y-97922547D01*
X167331140Y-97980000D01*
X167388592Y-98037452D01*
X168480188Y-97922547D02*
X167905664Y-97922547D01*
X167848211Y-98497071D01*
X167905664Y-98439619D01*
X168020569Y-98382166D01*
X168307830Y-98382166D01*
X168422735Y-98439619D01*
X168480188Y-98497071D01*
X168537640Y-98611976D01*
X168537640Y-98899238D01*
X168480188Y-99014142D01*
X168422735Y-99071595D01*
X168307830Y-99129047D01*
X168020569Y-99129047D01*
X167905664Y-99071595D01*
X167848211Y-99014142D01*
D15*
X169715034Y-97003647D02*
X169025606Y-97003647D01*
X169370320Y-97003647D02*
X169370320Y-95797147D01*
X169255415Y-95969504D01*
X169140510Y-96084409D01*
X169025606Y-96141861D01*
X170461915Y-95797147D02*
X170576820Y-95797147D01*
X170691725Y-95854600D01*
X170749177Y-95912052D01*
X170806629Y-96026957D01*
X170864082Y-96256766D01*
X170864082Y-96544028D01*
X170806629Y-96773838D01*
X170749177Y-96888742D01*
X170691725Y-96946195D01*
X170576820Y-97003647D01*
X170461915Y-97003647D01*
X170347010Y-96946195D01*
X170289558Y-96888742D01*
X170232106Y-96773838D01*
X170174653Y-96544028D01*
X170174653Y-96256766D01*
X170232106Y-96026957D01*
X170289558Y-95912052D01*
X170347010Y-95854600D01*
X170461915Y-95797147D01*
X171610963Y-95797147D02*
X171725867Y-95797147D01*
X171840772Y-95854600D01*
X171898225Y-95912052D01*
X171955677Y-96026957D01*
X172013129Y-96256766D01*
X172013129Y-96544028D01*
X171955677Y-96773838D01*
X171898225Y-96888742D01*
X171840772Y-96946195D01*
X171725867Y-97003647D01*
X171610963Y-97003647D01*
X171496058Y-96946195D01*
X171438606Y-96888742D01*
X171381153Y-96773838D01*
X171323701Y-96544028D01*
X171323701Y-96256766D01*
X171381153Y-96026957D01*
X171438606Y-95912052D01*
X171496058Y-95854600D01*
X171610963Y-95797147D01*
X172530201Y-96199314D02*
X172530201Y-97003647D01*
X172530201Y-96314219D02*
X172587653Y-96256766D01*
X172702558Y-96199314D01*
X172874915Y-96199314D01*
X172989820Y-96256766D01*
X173047272Y-96371671D01*
X173047272Y-97003647D01*
X174023963Y-96371671D02*
X173621796Y-96371671D01*
X173621796Y-97003647D02*
X173621796Y-95797147D01*
X174196320Y-95797147D01*
D16*
X120327099Y-113427166D02*
X120327099Y-111738066D01*
X122096633Y-113266300D02*
X122016199Y-113346733D01*
X121774899Y-113427166D01*
X121614033Y-113427166D01*
X121372733Y-113346733D01*
X121211866Y-113185866D01*
X121131433Y-113025000D01*
X121050999Y-112703266D01*
X121050999Y-112461966D01*
X121131433Y-112140233D01*
X121211866Y-111979366D01*
X121372733Y-111818500D01*
X121614033Y-111738066D01*
X121774899Y-111738066D01*
X122016199Y-111818500D01*
X122096633Y-111898933D01*
X122659666Y-111738066D02*
X123785733Y-111738066D01*
X123061833Y-113427166D01*
X104879666Y-112944566D02*
X105683999Y-112944566D01*
X104718799Y-113427166D02*
X105281833Y-111738066D01*
X105844866Y-113427166D01*
X106327466Y-113346733D02*
X106568766Y-113427166D01*
X106970933Y-113427166D01*
X107131799Y-113346733D01*
X107212233Y-113266300D01*
X107292666Y-113105433D01*
X107292666Y-112944566D01*
X107212233Y-112783700D01*
X107131799Y-112703266D01*
X106970933Y-112622833D01*
X106649199Y-112542400D01*
X106488333Y-112461966D01*
X106407899Y-112381533D01*
X106327466Y-112220666D01*
X106327466Y-112059800D01*
X106407899Y-111898933D01*
X106488333Y-111818500D01*
X106649199Y-111738066D01*
X107051366Y-111738066D01*
X107292666Y-111818500D01*
X108740466Y-111738066D02*
X108418733Y-111738066D01*
X108257866Y-111818500D01*
X108177433Y-111898933D01*
X108016566Y-112140233D01*
X107936133Y-112461966D01*
X107936133Y-113105433D01*
X108016566Y-113266300D01*
X108096999Y-113346733D01*
X108257866Y-113427166D01*
X108579599Y-113427166D01*
X108740466Y-113346733D01*
X108820899Y-113266300D01*
X108901333Y-113105433D01*
X108901333Y-112703266D01*
X108820899Y-112542400D01*
X108740466Y-112461966D01*
X108579599Y-112381533D01*
X108257866Y-112381533D01*
X108096999Y-112461966D01*
X108016566Y-112542400D01*
X107936133Y-112703266D01*
X110590433Y-113266300D02*
X110509999Y-113346733D01*
X110268699Y-113427166D01*
X110107833Y-113427166D01*
X109866533Y-113346733D01*
X109705666Y-113185866D01*
X109625233Y-113025000D01*
X109544799Y-112703266D01*
X109544799Y-112461966D01*
X109625233Y-112140233D01*
X109705666Y-111979366D01*
X109866533Y-111818500D01*
X110107833Y-111738066D01*
X110268699Y-111738066D01*
X110509999Y-111818500D01*
X110590433Y-111898933D01*
X112038233Y-112301100D02*
X112038233Y-113427166D01*
X111636066Y-111657633D02*
X111233899Y-112864133D01*
X112279533Y-112864133D01*
X113244733Y-111738066D02*
X113405599Y-111738066D01*
X113566466Y-111818500D01*
X113646899Y-111898933D01*
X113727333Y-112059800D01*
X113807766Y-112381533D01*
X113807766Y-112783700D01*
X113727333Y-113105433D01*
X113646899Y-113266300D01*
X113566466Y-113346733D01*
X113405599Y-113427166D01*
X113244733Y-113427166D01*
X113083866Y-113346733D01*
X113003433Y-113266300D01*
X112922999Y-113105433D01*
X112842566Y-112783700D01*
X112842566Y-112381533D01*
X112922999Y-112059800D01*
X113003433Y-111898933D01*
X113083866Y-111818500D01*
X113244733Y-111738066D01*
X114853399Y-111738066D02*
X115014266Y-111738066D01*
X115175133Y-111818500D01*
X115255566Y-111898933D01*
X115335999Y-112059800D01*
X115416433Y-112381533D01*
X115416433Y-112783700D01*
X115335999Y-113105433D01*
X115255566Y-113266300D01*
X115175133Y-113346733D01*
X115014266Y-113427166D01*
X114853399Y-113427166D01*
X114692533Y-113346733D01*
X114612099Y-113266300D01*
X114531666Y-113105433D01*
X114451233Y-112783700D01*
X114451233Y-112381533D01*
X114531666Y-112059800D01*
X114612099Y-111898933D01*
X114692533Y-111818500D01*
X114853399Y-111738066D01*
X116381633Y-112461966D02*
X116220766Y-112381533D01*
X116140333Y-112301100D01*
X116059899Y-112140233D01*
X116059899Y-112059800D01*
X116140333Y-111898933D01*
X116220766Y-111818500D01*
X116381633Y-111738066D01*
X116703366Y-111738066D01*
X116864233Y-111818500D01*
X116944666Y-111898933D01*
X117025099Y-112059800D01*
X117025099Y-112140233D01*
X116944666Y-112301100D01*
X116864233Y-112381533D01*
X116703366Y-112461966D01*
X116381633Y-112461966D01*
X116220766Y-112542400D01*
X116140333Y-112622833D01*
X116059899Y-112783700D01*
X116059899Y-113105433D01*
X116140333Y-113266300D01*
X116220766Y-113346733D01*
X116381633Y-113427166D01*
X116703366Y-113427166D01*
X116864233Y-113346733D01*
X116944666Y-113266300D01*
X117025099Y-113105433D01*
X117025099Y-112783700D01*
X116944666Y-112622833D01*
X116864233Y-112542400D01*
X116703366Y-112461966D01*
X120327099Y-93107166D02*
X120327099Y-91418066D01*
X122096633Y-92946300D02*
X122016199Y-93026733D01*
X121774899Y-93107166D01*
X121614033Y-93107166D01*
X121372733Y-93026733D01*
X121211866Y-92865866D01*
X121131433Y-92705000D01*
X121050999Y-92383266D01*
X121050999Y-92141966D01*
X121131433Y-91820233D01*
X121211866Y-91659366D01*
X121372733Y-91498500D01*
X121614033Y-91418066D01*
X121774899Y-91418066D01*
X122016199Y-91498500D01*
X122096633Y-91578933D01*
X123544433Y-91418066D02*
X123222699Y-91418066D01*
X123061833Y-91498500D01*
X122981399Y-91578933D01*
X122820533Y-91820233D01*
X122740099Y-92141966D01*
X122740099Y-92785433D01*
X122820533Y-92946300D01*
X122900966Y-93026733D01*
X123061833Y-93107166D01*
X123383566Y-93107166D01*
X123544433Y-93026733D01*
X123624866Y-92946300D01*
X123705299Y-92785433D01*
X123705299Y-92383266D01*
X123624866Y-92222400D01*
X123544433Y-92141966D01*
X123383566Y-92061533D01*
X123061833Y-92061533D01*
X122900966Y-92141966D01*
X122820533Y-92222400D01*
X122740099Y-92383266D01*
X104799233Y-91418066D02*
X105844866Y-91418066D01*
X105281833Y-92061533D01*
X105523133Y-92061533D01*
X105683999Y-92141966D01*
X105764433Y-92222400D01*
X105844866Y-92383266D01*
X105844866Y-92785433D01*
X105764433Y-92946300D01*
X105683999Y-93026733D01*
X105523133Y-93107166D01*
X105040533Y-93107166D01*
X104879666Y-93026733D01*
X104799233Y-92946300D01*
X106649199Y-93107166D02*
X106970933Y-93107166D01*
X107131799Y-93026733D01*
X107212233Y-92946300D01*
X107373099Y-92705000D01*
X107453533Y-92383266D01*
X107453533Y-91739800D01*
X107373099Y-91578933D01*
X107292666Y-91498500D01*
X107131799Y-91418066D01*
X106810066Y-91418066D01*
X106649199Y-91498500D01*
X106568766Y-91578933D01*
X106488333Y-91739800D01*
X106488333Y-92141966D01*
X106568766Y-92302833D01*
X106649199Y-92383266D01*
X106810066Y-92463700D01*
X107131799Y-92463700D01*
X107292666Y-92383266D01*
X107373099Y-92302833D01*
X107453533Y-92141966D01*
X108096999Y-93026733D02*
X108338299Y-93107166D01*
X108740466Y-93107166D01*
X108901333Y-93026733D01*
X108981766Y-92946300D01*
X109062199Y-92785433D01*
X109062199Y-92624566D01*
X108981766Y-92463700D01*
X108901333Y-92383266D01*
X108740466Y-92302833D01*
X108418733Y-92222400D01*
X108257866Y-92141966D01*
X108177433Y-92061533D01*
X108096999Y-91900666D01*
X108096999Y-91739800D01*
X108177433Y-91578933D01*
X108257866Y-91498500D01*
X108418733Y-91418066D01*
X108820899Y-91418066D01*
X109062199Y-91498500D01*
X110349133Y-92222400D02*
X109786099Y-92222400D01*
X109786099Y-93107166D02*
X109786099Y-91418066D01*
X110590433Y-91418066D01*
X111555633Y-91418066D02*
X111716499Y-91418066D01*
X111877366Y-91498500D01*
X111957799Y-91578933D01*
X112038233Y-91739800D01*
X112118666Y-92061533D01*
X112118666Y-92463700D01*
X112038233Y-92785433D01*
X111957799Y-92946300D01*
X111877366Y-93026733D01*
X111716499Y-93107166D01*
X111555633Y-93107166D01*
X111394766Y-93026733D01*
X111314333Y-92946300D01*
X111233899Y-92785433D01*
X111153466Y-92463700D01*
X111153466Y-92061533D01*
X111233899Y-91739800D01*
X111314333Y-91578933D01*
X111394766Y-91498500D01*
X111555633Y-91418066D01*
X113566466Y-91981100D02*
X113566466Y-93107166D01*
X113164299Y-91337633D02*
X112762133Y-92544133D01*
X113807766Y-92544133D01*
X114772966Y-91418066D02*
X114933833Y-91418066D01*
X115094699Y-91498500D01*
X115175133Y-91578933D01*
X115255566Y-91739800D01*
X115335999Y-92061533D01*
X115335999Y-92463700D01*
X115255566Y-92785433D01*
X115175133Y-92946300D01*
X115094699Y-93026733D01*
X114933833Y-93107166D01*
X114772966Y-93107166D01*
X114612099Y-93026733D01*
X114531666Y-92946300D01*
X114451233Y-92785433D01*
X114370799Y-92463700D01*
X114370799Y-92061533D01*
X114451233Y-91739800D01*
X114531666Y-91578933D01*
X114612099Y-91498500D01*
X114772966Y-91418066D01*
D15*
X152242547Y-116544315D02*
X151036047Y-116544315D01*
X152127642Y-115280363D02*
X152185095Y-115337815D01*
X152242547Y-115510172D01*
X152242547Y-115625077D01*
X152185095Y-115797434D01*
X152070190Y-115912339D01*
X151955285Y-115969791D01*
X151725476Y-116027244D01*
X151553119Y-116027244D01*
X151323309Y-115969791D01*
X151208404Y-115912339D01*
X151093500Y-115797434D01*
X151036047Y-115625077D01*
X151036047Y-115510172D01*
X151093500Y-115337815D01*
X151150952Y-115280363D01*
X152242547Y-114131315D02*
X152242547Y-114820744D01*
X152242547Y-114476029D02*
X151036047Y-114476029D01*
X151208404Y-114590934D01*
X151323309Y-114705839D01*
X151380761Y-114820744D01*
X151148647Y-112890546D02*
X151148647Y-112086212D01*
X152355147Y-112603284D01*
X151550814Y-111109522D02*
X152355147Y-111109522D01*
X151091195Y-111396784D02*
X151952980Y-111684046D01*
X151952980Y-110937165D01*
X152355147Y-110477546D02*
X151148647Y-110477546D01*
X151723171Y-110477546D02*
X151723171Y-109788117D01*
X152355147Y-109788117D02*
X151148647Y-109788117D01*
X152240242Y-108524165D02*
X152297695Y-108581617D01*
X152355147Y-108753974D01*
X152355147Y-108868879D01*
X152297695Y-109041236D01*
X152182790Y-109156141D01*
X152067885Y-109213593D01*
X151838076Y-109271046D01*
X151665719Y-109271046D01*
X151435909Y-109213593D01*
X151321004Y-109156141D01*
X151206100Y-109041236D01*
X151148647Y-108868879D01*
X151148647Y-108753974D01*
X151206100Y-108581617D01*
X151263552Y-108524165D01*
X151148647Y-108179451D02*
X151148647Y-107490022D01*
X152355147Y-107834736D02*
X151148647Y-107834736D01*
X151148647Y-106570784D02*
X151148647Y-106800593D01*
X151206100Y-106915498D01*
X151263552Y-106972951D01*
X151435909Y-107087855D01*
X151665719Y-107145308D01*
X152125338Y-107145308D01*
X152240242Y-107087855D01*
X152297695Y-107030403D01*
X152355147Y-106915498D01*
X152355147Y-106685689D01*
X152297695Y-106570784D01*
X152240242Y-106513332D01*
X152125338Y-106455879D01*
X151838076Y-106455879D01*
X151723171Y-106513332D01*
X151665719Y-106570784D01*
X151608266Y-106685689D01*
X151608266Y-106915498D01*
X151665719Y-107030403D01*
X151723171Y-107087855D01*
X151838076Y-107145308D01*
X151148647Y-106053712D02*
X151148647Y-105249379D01*
X152355147Y-105766451D01*
X151148647Y-104559951D02*
X151148647Y-104445046D01*
X151206100Y-104330141D01*
X151263552Y-104272689D01*
X151378457Y-104215236D01*
X151608266Y-104157784D01*
X151895528Y-104157784D01*
X152125338Y-104215236D01*
X152240242Y-104272689D01*
X152297695Y-104330141D01*
X152355147Y-104445046D01*
X152355147Y-104559951D01*
X152297695Y-104674855D01*
X152240242Y-104732308D01*
X152125338Y-104789760D01*
X151895528Y-104847212D01*
X151608266Y-104847212D01*
X151378457Y-104789760D01*
X151263552Y-104732308D01*
X151206100Y-104674855D01*
X151148647Y-104559951D01*
X152355147Y-103640712D02*
X151148647Y-103640712D01*
X152355147Y-102951284D01*
X151148647Y-102951284D01*
X170192547Y-117244315D02*
X168986047Y-117244315D01*
X170077642Y-115980363D02*
X170135095Y-116037815D01*
X170192547Y-116210172D01*
X170192547Y-116325077D01*
X170135095Y-116497434D01*
X170020190Y-116612339D01*
X169905285Y-116669791D01*
X169675476Y-116727244D01*
X169503119Y-116727244D01*
X169273309Y-116669791D01*
X169158404Y-116612339D01*
X169043500Y-116497434D01*
X168986047Y-116325077D01*
X168986047Y-116210172D01*
X169043500Y-116037815D01*
X169100952Y-115980363D01*
X169100952Y-115520744D02*
X169043500Y-115463291D01*
X168986047Y-115348387D01*
X168986047Y-115061125D01*
X169043500Y-114946220D01*
X169100952Y-114888767D01*
X169215857Y-114831315D01*
X169330761Y-114831315D01*
X169503119Y-114888767D01*
X170192547Y-115578196D01*
X170192547Y-114831315D01*
X168928647Y-112890546D02*
X168928647Y-112086212D01*
X170135147Y-112603284D01*
X169330814Y-111109522D02*
X170135147Y-111109522D01*
X168871195Y-111396784D02*
X169732980Y-111684046D01*
X169732980Y-110937165D01*
X170135147Y-110477546D02*
X168928647Y-110477546D01*
X169503171Y-110477546D02*
X169503171Y-109788117D01*
X170135147Y-109788117D02*
X168928647Y-109788117D01*
X170020242Y-108524165D02*
X170077695Y-108581617D01*
X170135147Y-108753974D01*
X170135147Y-108868879D01*
X170077695Y-109041236D01*
X169962790Y-109156141D01*
X169847885Y-109213593D01*
X169618076Y-109271046D01*
X169445719Y-109271046D01*
X169215909Y-109213593D01*
X169101004Y-109156141D01*
X168986100Y-109041236D01*
X168928647Y-108868879D01*
X168928647Y-108753974D01*
X168986100Y-108581617D01*
X169043552Y-108524165D01*
X168928647Y-108179451D02*
X168928647Y-107490022D01*
X170135147Y-107834736D02*
X168928647Y-107834736D01*
X168928647Y-106570784D02*
X168928647Y-106800593D01*
X168986100Y-106915498D01*
X169043552Y-106972951D01*
X169215909Y-107087855D01*
X169445719Y-107145308D01*
X169905338Y-107145308D01*
X170020242Y-107087855D01*
X170077695Y-107030403D01*
X170135147Y-106915498D01*
X170135147Y-106685689D01*
X170077695Y-106570784D01*
X170020242Y-106513332D01*
X169905338Y-106455879D01*
X169618076Y-106455879D01*
X169503171Y-106513332D01*
X169445719Y-106570784D01*
X169388266Y-106685689D01*
X169388266Y-106915498D01*
X169445719Y-107030403D01*
X169503171Y-107087855D01*
X169618076Y-107145308D01*
X168928647Y-106053712D02*
X168928647Y-105249379D01*
X170135147Y-105766451D01*
X168928647Y-104559951D02*
X168928647Y-104445046D01*
X168986100Y-104330141D01*
X169043552Y-104272689D01*
X169158457Y-104215236D01*
X169388266Y-104157784D01*
X169675528Y-104157784D01*
X169905338Y-104215236D01*
X170020242Y-104272689D01*
X170077695Y-104330141D01*
X170135147Y-104445046D01*
X170135147Y-104559951D01*
X170077695Y-104674855D01*
X170020242Y-104732308D01*
X169905338Y-104789760D01*
X169675528Y-104847212D01*
X169388266Y-104847212D01*
X169158457Y-104789760D01*
X169043552Y-104732308D01*
X168986100Y-104674855D01*
X168928647Y-104559951D01*
X170135147Y-103640712D02*
X168928647Y-103640712D01*
X170135147Y-102951284D01*
X168928647Y-102951284D01*
X162410867Y-89028647D02*
X162410867Y-87822147D01*
X163674820Y-88913742D02*
X163617367Y-88971195D01*
X163445010Y-89028647D01*
X163330106Y-89028647D01*
X163157748Y-88971195D01*
X163042844Y-88856290D01*
X162985391Y-88741385D01*
X162927939Y-88511576D01*
X162927939Y-88339219D01*
X162985391Y-88109409D01*
X163042844Y-87994504D01*
X163157748Y-87879600D01*
X163330106Y-87822147D01*
X163445010Y-87822147D01*
X163617367Y-87879600D01*
X163674820Y-87937052D01*
X164076987Y-87822147D02*
X164823867Y-87822147D01*
X164421701Y-88281766D01*
X164594058Y-88281766D01*
X164708963Y-88339219D01*
X164766415Y-88396671D01*
X164823867Y-88511576D01*
X164823867Y-88798838D01*
X164766415Y-88913742D01*
X164708963Y-88971195D01*
X164594058Y-89028647D01*
X164249344Y-89028647D01*
X164134439Y-88971195D01*
X164076987Y-88913742D01*
X151158879Y-87942797D02*
X151963212Y-87942797D01*
X151446141Y-89149297D01*
X152939903Y-88344964D02*
X152939903Y-89149297D01*
X152652641Y-87885345D02*
X152365379Y-88747130D01*
X153112260Y-88747130D01*
X153571879Y-89149297D02*
X153571879Y-87942797D01*
X153571879Y-88517321D02*
X154261308Y-88517321D01*
X154261308Y-89149297D02*
X154261308Y-87942797D01*
X155525260Y-89034392D02*
X155467808Y-89091845D01*
X155295451Y-89149297D01*
X155180546Y-89149297D01*
X155008189Y-89091845D01*
X154893284Y-88976940D01*
X154835832Y-88862035D01*
X154778379Y-88632226D01*
X154778379Y-88459869D01*
X154835832Y-88230059D01*
X154893284Y-88115154D01*
X155008189Y-88000250D01*
X155180546Y-87942797D01*
X155295451Y-87942797D01*
X155467808Y-88000250D01*
X155525260Y-88057702D01*
X155869974Y-87942797D02*
X156559403Y-87942797D01*
X156214689Y-89149297D02*
X156214689Y-87942797D01*
X157593546Y-89149297D02*
X156904117Y-89149297D01*
X157248832Y-89149297D02*
X157248832Y-87942797D01*
X157133927Y-88115154D01*
X157019022Y-88230059D01*
X156904117Y-88287511D01*
X157995712Y-87942797D02*
X158742593Y-87942797D01*
X158340427Y-88402416D01*
X158512784Y-88402416D01*
X158627689Y-88459869D01*
X158685141Y-88517321D01*
X158742593Y-88632226D01*
X158742593Y-88919488D01*
X158685141Y-89034392D01*
X158627689Y-89091845D01*
X158512784Y-89149297D01*
X158168070Y-89149297D01*
X158053165Y-89091845D01*
X157995712Y-89034392D01*
X159317117Y-89149297D02*
X159546927Y-89149297D01*
X159661832Y-89091845D01*
X159719284Y-89034392D01*
X159834189Y-88862035D01*
X159891641Y-88632226D01*
X159891641Y-88172607D01*
X159834189Y-88057702D01*
X159776736Y-88000250D01*
X159661832Y-87942797D01*
X159432022Y-87942797D01*
X159317117Y-88000250D01*
X159259665Y-88057702D01*
X159202212Y-88172607D01*
X159202212Y-88459869D01*
X159259665Y-88574773D01*
X159317117Y-88632226D01*
X159432022Y-88689678D01*
X159661832Y-88689678D01*
X159776736Y-88632226D01*
X159834189Y-88574773D01*
X159891641Y-88459869D01*
X160408712Y-89149297D02*
X160408712Y-87942797D01*
X161098141Y-89149297D01*
X161098141Y-87942797D01*
X193913684Y-96716547D02*
X193913684Y-95510047D01*
X195177636Y-96601642D02*
X195120184Y-96659095D01*
X194947827Y-96716547D01*
X194832922Y-96716547D01*
X194660565Y-96659095D01*
X194545660Y-96544190D01*
X194488208Y-96429285D01*
X194430755Y-96199476D01*
X194430755Y-96027119D01*
X194488208Y-95797309D01*
X194545660Y-95682404D01*
X194660565Y-95567500D01*
X194832922Y-95510047D01*
X194947827Y-95510047D01*
X195120184Y-95567500D01*
X195177636Y-95624952D01*
X196211779Y-95912214D02*
X196211779Y-96716547D01*
X195924517Y-95452595D02*
X195637255Y-96314380D01*
X196384136Y-96314380D01*
X181428879Y-95479647D02*
X182233212Y-95479647D01*
X181716141Y-96686147D01*
X183209903Y-95881814D02*
X183209903Y-96686147D01*
X182922641Y-95422195D02*
X182635379Y-96283980D01*
X183382260Y-96283980D01*
X183841879Y-96686147D02*
X183841879Y-95479647D01*
X183841879Y-96054171D02*
X184531308Y-96054171D01*
X184531308Y-96686147D02*
X184531308Y-95479647D01*
X185795260Y-96571242D02*
X185737808Y-96628695D01*
X185565451Y-96686147D01*
X185450546Y-96686147D01*
X185278189Y-96628695D01*
X185163284Y-96513790D01*
X185105832Y-96398885D01*
X185048379Y-96169076D01*
X185048379Y-95996719D01*
X185105832Y-95766909D01*
X185163284Y-95652004D01*
X185278189Y-95537100D01*
X185450546Y-95479647D01*
X185565451Y-95479647D01*
X185737808Y-95537100D01*
X185795260Y-95594552D01*
X186139974Y-95479647D02*
X186829403Y-95479647D01*
X186484689Y-96686147D02*
X186484689Y-95479647D01*
X187863546Y-96686147D02*
X187174117Y-96686147D01*
X187518832Y-96686147D02*
X187518832Y-95479647D01*
X187403927Y-95652004D01*
X187289022Y-95766909D01*
X187174117Y-95824361D01*
X188265712Y-95479647D02*
X189012593Y-95479647D01*
X188610427Y-95939266D01*
X188782784Y-95939266D01*
X188897689Y-95996719D01*
X188955141Y-96054171D01*
X189012593Y-96169076D01*
X189012593Y-96456338D01*
X188955141Y-96571242D01*
X188897689Y-96628695D01*
X188782784Y-96686147D01*
X188438070Y-96686147D01*
X188323165Y-96628695D01*
X188265712Y-96571242D01*
X189702022Y-95996719D02*
X189587117Y-95939266D01*
X189529665Y-95881814D01*
X189472212Y-95766909D01*
X189472212Y-95709457D01*
X189529665Y-95594552D01*
X189587117Y-95537100D01*
X189702022Y-95479647D01*
X189931832Y-95479647D01*
X190046736Y-95537100D01*
X190104189Y-95594552D01*
X190161641Y-95709457D01*
X190161641Y-95766909D01*
X190104189Y-95881814D01*
X190046736Y-95939266D01*
X189931832Y-95996719D01*
X189702022Y-95996719D01*
X189587117Y-96054171D01*
X189529665Y-96111623D01*
X189472212Y-96226528D01*
X189472212Y-96456338D01*
X189529665Y-96571242D01*
X189587117Y-96628695D01*
X189702022Y-96686147D01*
X189931832Y-96686147D01*
X190046736Y-96628695D01*
X190104189Y-96571242D01*
X190161641Y-96456338D01*
X190161641Y-96226528D01*
X190104189Y-96111623D01*
X190046736Y-96054171D01*
X189931832Y-95996719D01*
X190678712Y-96686147D02*
X190678712Y-95479647D01*
X191368141Y-96686147D01*
X191368141Y-95479647D01*
X194421684Y-110686547D02*
X194421684Y-109480047D01*
X195685636Y-110571642D02*
X195628184Y-110629095D01*
X195455827Y-110686547D01*
X195340922Y-110686547D01*
X195168565Y-110629095D01*
X195053660Y-110514190D01*
X194996208Y-110399285D01*
X194938755Y-110169476D01*
X194938755Y-109997119D01*
X194996208Y-109767309D01*
X195053660Y-109652404D01*
X195168565Y-109537500D01*
X195340922Y-109480047D01*
X195455827Y-109480047D01*
X195628184Y-109537500D01*
X195685636Y-109594952D01*
X196777232Y-109480047D02*
X196202708Y-109480047D01*
X196145255Y-110054571D01*
X196202708Y-109997119D01*
X196317612Y-109939666D01*
X196604874Y-109939666D01*
X196719779Y-109997119D01*
X196777232Y-110054571D01*
X196834684Y-110169476D01*
X196834684Y-110456738D01*
X196777232Y-110571642D01*
X196719779Y-110629095D01*
X196604874Y-110686547D01*
X196317612Y-110686547D01*
X196202708Y-110629095D01*
X196145255Y-110571642D01*
X183460879Y-109449647D02*
X184265212Y-109449647D01*
X183748141Y-110656147D01*
X185241903Y-109851814D02*
X185241903Y-110656147D01*
X184954641Y-109392195D02*
X184667379Y-110253980D01*
X185414260Y-110253980D01*
X185873879Y-110656147D02*
X185873879Y-109449647D01*
X185873879Y-110024171D02*
X186563308Y-110024171D01*
X186563308Y-110656147D02*
X186563308Y-109449647D01*
X187827260Y-110541242D02*
X187769808Y-110598695D01*
X187597451Y-110656147D01*
X187482546Y-110656147D01*
X187310189Y-110598695D01*
X187195284Y-110483790D01*
X187137832Y-110368885D01*
X187080379Y-110139076D01*
X187080379Y-109966719D01*
X187137832Y-109736909D01*
X187195284Y-109622004D01*
X187310189Y-109507100D01*
X187482546Y-109449647D01*
X187597451Y-109449647D01*
X187769808Y-109507100D01*
X187827260Y-109564552D01*
X188171974Y-109449647D02*
X188861403Y-109449647D01*
X188516689Y-110656147D02*
X188516689Y-109449647D01*
X189148665Y-109449647D02*
X189952998Y-109449647D01*
X189435927Y-110656147D01*
X190929689Y-109851814D02*
X190929689Y-110656147D01*
X190642427Y-109392195D02*
X190355165Y-110253980D01*
X191102046Y-110253980D01*
X191561665Y-110656147D02*
X191561665Y-109449647D01*
X192251093Y-110656147D01*
X192251093Y-109449647D01*
D14*
X177113595Y-88020978D02*
X177171047Y-87848621D01*
X177171047Y-87561359D01*
X177113595Y-87446454D01*
X177056142Y-87389002D01*
X176941238Y-87331550D01*
X176826333Y-87331550D01*
X176711428Y-87389002D01*
X176653976Y-87446454D01*
X176596523Y-87561359D01*
X176539071Y-87791169D01*
X176481619Y-87906073D01*
X176424166Y-87963526D01*
X176309261Y-88020978D01*
X176194357Y-88020978D01*
X176079452Y-87963526D01*
X176022000Y-87906073D01*
X175964547Y-87791169D01*
X175964547Y-87503907D01*
X176022000Y-87331550D01*
X175964547Y-86986835D02*
X177171047Y-86584669D01*
X175964547Y-86182502D01*
X177171047Y-85148359D02*
X177171047Y-85837788D01*
X177171047Y-85493073D02*
X175964547Y-85493073D01*
X176136904Y-85607978D01*
X176251809Y-85722883D01*
X176309261Y-85837788D01*
X177564142Y-97981407D02*
X177621595Y-98038859D01*
X177679047Y-98211216D01*
X177679047Y-98326121D01*
X177621595Y-98498478D01*
X177506690Y-98613383D01*
X177391785Y-98670835D01*
X177161976Y-98728288D01*
X176989619Y-98728288D01*
X176759809Y-98670835D01*
X176644904Y-98613383D01*
X176530000Y-98498478D01*
X176472547Y-98326121D01*
X176472547Y-98211216D01*
X176530000Y-98038859D01*
X176587452Y-97981407D01*
X176472547Y-96947264D02*
X176472547Y-97177073D01*
X176530000Y-97291978D01*
X176587452Y-97349430D01*
X176759809Y-97464335D01*
X176989619Y-97521788D01*
X177449238Y-97521788D01*
X177564142Y-97464335D01*
X177621595Y-97406883D01*
X177679047Y-97291978D01*
X177679047Y-97062169D01*
X177621595Y-96947264D01*
X177564142Y-96889811D01*
X177449238Y-96832359D01*
X177161976Y-96832359D01*
X177047071Y-96889811D01*
X176989619Y-96947264D01*
X176932166Y-97062169D01*
X176932166Y-97291978D01*
X176989619Y-97406883D01*
X177047071Y-97464335D01*
X177161976Y-97521788D01*
D15*
X175596147Y-96014665D02*
X175596147Y-96704093D01*
X175596147Y-96359379D02*
X174389647Y-96359379D01*
X174562004Y-96474284D01*
X174676909Y-96589189D01*
X174734361Y-96704093D01*
X174389647Y-95267784D02*
X174389647Y-95152879D01*
X174447100Y-95037974D01*
X174504552Y-94980522D01*
X174619457Y-94923070D01*
X174849266Y-94865617D01*
X175136528Y-94865617D01*
X175366338Y-94923070D01*
X175481242Y-94980522D01*
X175538695Y-95037974D01*
X175596147Y-95152879D01*
X175596147Y-95267784D01*
X175538695Y-95382689D01*
X175481242Y-95440141D01*
X175366338Y-95497593D01*
X175136528Y-95555046D01*
X174849266Y-95555046D01*
X174619457Y-95497593D01*
X174504552Y-95440141D01*
X174447100Y-95382689D01*
X174389647Y-95267784D01*
X174389647Y-94118736D02*
X174389647Y-94003832D01*
X174447100Y-93888927D01*
X174504552Y-93831474D01*
X174619457Y-93774022D01*
X174849266Y-93716570D01*
X175136528Y-93716570D01*
X175366338Y-93774022D01*
X175481242Y-93831474D01*
X175538695Y-93888927D01*
X175596147Y-94003832D01*
X175596147Y-94118736D01*
X175538695Y-94233641D01*
X175481242Y-94291093D01*
X175366338Y-94348546D01*
X175136528Y-94405998D01*
X174849266Y-94405998D01*
X174619457Y-94348546D01*
X174504552Y-94291093D01*
X174447100Y-94233641D01*
X174389647Y-94118736D01*
X174791814Y-93199498D02*
X175596147Y-93199498D01*
X174906719Y-93199498D02*
X174849266Y-93142046D01*
X174791814Y-93027141D01*
X174791814Y-92854784D01*
X174849266Y-92739879D01*
X174964171Y-92682427D01*
X175596147Y-92682427D01*
X174964171Y-91705736D02*
X174964171Y-92107903D01*
X175596147Y-92107903D02*
X174389647Y-92107903D01*
X174389647Y-91533379D01*
D14*
X161169047Y-118041359D02*
X160594523Y-118443526D01*
X161169047Y-118730788D02*
X159962547Y-118730788D01*
X159962547Y-118271169D01*
X160020000Y-118156264D01*
X160077452Y-118098811D01*
X160192357Y-118041359D01*
X160364714Y-118041359D01*
X160479619Y-118098811D01*
X160537071Y-118156264D01*
X160594523Y-118271169D01*
X160594523Y-118730788D01*
X161169047Y-117524288D02*
X159962547Y-117524288D01*
X161169047Y-116834859D01*
X159962547Y-116834859D01*
X161169047Y-115628359D02*
X161169047Y-116317788D01*
X161169047Y-115973073D02*
X159962547Y-115973073D01*
X160134904Y-116087978D01*
X160249809Y-116202883D01*
X160307261Y-116317788D01*
D15*
X161169047Y-112137779D02*
X161169047Y-112827208D01*
X161169047Y-112482493D02*
X159962547Y-112482493D01*
X160134904Y-112597398D01*
X160249809Y-112712303D01*
X160307261Y-112827208D01*
X159962547Y-111390898D02*
X159962547Y-111275993D01*
X160020000Y-111161089D01*
X160077452Y-111103636D01*
X160192357Y-111046184D01*
X160422166Y-110988732D01*
X160709428Y-110988732D01*
X160939238Y-111046184D01*
X161054142Y-111103636D01*
X161111595Y-111161089D01*
X161169047Y-111275993D01*
X161169047Y-111390898D01*
X161111595Y-111505803D01*
X161054142Y-111563255D01*
X160939238Y-111620708D01*
X160709428Y-111678160D01*
X160422166Y-111678160D01*
X160192357Y-111620708D01*
X160077452Y-111563255D01*
X160020000Y-111505803D01*
X159962547Y-111390898D01*
X161169047Y-110471660D02*
X159962547Y-110471660D01*
X161169047Y-109782232D02*
X160479619Y-110299303D01*
X159962547Y-109782232D02*
X160651976Y-110471660D01*
D17*
X161245187Y-107155727D02*
X161245187Y-107693481D01*
X161245187Y-107424604D02*
X160304117Y-107424604D01*
X160438555Y-107514230D01*
X160528181Y-107603856D01*
X160572994Y-107693481D01*
D14*
X143389047Y-118041359D02*
X142814523Y-118443526D01*
X143389047Y-118730788D02*
X142182547Y-118730788D01*
X142182547Y-118271169D01*
X142240000Y-118156264D01*
X142297452Y-118098811D01*
X142412357Y-118041359D01*
X142584714Y-118041359D01*
X142699619Y-118098811D01*
X142757071Y-118156264D01*
X142814523Y-118271169D01*
X142814523Y-118730788D01*
X143389047Y-117524288D02*
X142182547Y-117524288D01*
X143389047Y-116834859D01*
X142182547Y-116834859D01*
X142297452Y-116317788D02*
X142240000Y-116260335D01*
X142182547Y-116145430D01*
X142182547Y-115858169D01*
X142240000Y-115743264D01*
X142297452Y-115685811D01*
X142412357Y-115628359D01*
X142527261Y-115628359D01*
X142699619Y-115685811D01*
X143389047Y-116375240D01*
X143389047Y-115628359D01*
D15*
X143389047Y-111883779D02*
X143389047Y-112573208D01*
X143389047Y-112228493D02*
X142182547Y-112228493D01*
X142354904Y-112343398D01*
X142469809Y-112458303D01*
X142527261Y-112573208D01*
X142182547Y-111136898D02*
X142182547Y-111021993D01*
X142240000Y-110907089D01*
X142297452Y-110849636D01*
X142412357Y-110792184D01*
X142642166Y-110734732D01*
X142929428Y-110734732D01*
X143159238Y-110792184D01*
X143274142Y-110849636D01*
X143331595Y-110907089D01*
X143389047Y-111021993D01*
X143389047Y-111136898D01*
X143331595Y-111251803D01*
X143274142Y-111309255D01*
X143159238Y-111366708D01*
X142929428Y-111424160D01*
X142642166Y-111424160D01*
X142412357Y-111366708D01*
X142297452Y-111309255D01*
X142240000Y-111251803D01*
X142182547Y-111136898D01*
X143389047Y-110217660D02*
X142182547Y-110217660D01*
X143389047Y-109528232D02*
X142699619Y-110045303D01*
X142182547Y-109528232D02*
X142871976Y-110217660D01*
D17*
X143465187Y-107155727D02*
X143465187Y-107693481D01*
X143465187Y-107424604D02*
X142524117Y-107424604D01*
X142658555Y-107514230D01*
X142748181Y-107603856D01*
X142792994Y-107693481D01*
D14*
X180104142Y-111951407D02*
X180161595Y-112008859D01*
X180219047Y-112181216D01*
X180219047Y-112296121D01*
X180161595Y-112468478D01*
X180046690Y-112583383D01*
X179931785Y-112640835D01*
X179701976Y-112698288D01*
X179529619Y-112698288D01*
X179299809Y-112640835D01*
X179184904Y-112583383D01*
X179070000Y-112468478D01*
X179012547Y-112296121D01*
X179012547Y-112181216D01*
X179070000Y-112008859D01*
X179127452Y-111951407D01*
X179012547Y-111549240D02*
X179012547Y-110744907D01*
X180219047Y-111261978D01*
D15*
X178136147Y-109984665D02*
X178136147Y-110674093D01*
X178136147Y-110329379D02*
X176929647Y-110329379D01*
X177102004Y-110444284D01*
X177216909Y-110559189D01*
X177274361Y-110674093D01*
X176929647Y-109237784D02*
X176929647Y-109122879D01*
X176987100Y-109007974D01*
X177044552Y-108950522D01*
X177159457Y-108893070D01*
X177389266Y-108835617D01*
X177676528Y-108835617D01*
X177906338Y-108893070D01*
X178021242Y-108950522D01*
X178078695Y-109007974D01*
X178136147Y-109122879D01*
X178136147Y-109237784D01*
X178078695Y-109352689D01*
X178021242Y-109410141D01*
X177906338Y-109467593D01*
X177676528Y-109525046D01*
X177389266Y-109525046D01*
X177159457Y-109467593D01*
X177044552Y-109410141D01*
X176987100Y-109352689D01*
X176929647Y-109237784D01*
X176929647Y-108088736D02*
X176929647Y-107973832D01*
X176987100Y-107858927D01*
X177044552Y-107801474D01*
X177159457Y-107744022D01*
X177389266Y-107686570D01*
X177676528Y-107686570D01*
X177906338Y-107744022D01*
X178021242Y-107801474D01*
X178078695Y-107858927D01*
X178136147Y-107973832D01*
X178136147Y-108088736D01*
X178078695Y-108203641D01*
X178021242Y-108261093D01*
X177906338Y-108318546D01*
X177676528Y-108375998D01*
X177389266Y-108375998D01*
X177159457Y-108318546D01*
X177044552Y-108261093D01*
X176987100Y-108203641D01*
X176929647Y-108088736D01*
X177331814Y-107169498D02*
X178136147Y-107169498D01*
X177446719Y-107169498D02*
X177389266Y-107112046D01*
X177331814Y-106997141D01*
X177331814Y-106824784D01*
X177389266Y-106709879D01*
X177504171Y-106652427D01*
X178136147Y-106652427D01*
X177504171Y-105675736D02*
X177504171Y-106077903D01*
X178136147Y-106077903D02*
X176929647Y-106077903D01*
X176929647Y-105503379D01*
M02*
