M48
; DRILL file {KiCad 5.1.6} date 10/23/20 20:35:45
; FORMAT={-:-/ absolute / metric / decimal}
; #@! TF.CreationDate,2020-10-23T20:35:45+02:00
; #@! TF.GenerationSoftware,Kicad,Pcbnew,5.1.6
; #@! TF.FileFunction,Plated,1,2,PTH
FMAT,2
METRIC
T1C0.610
T2C0.813
T3C0.914
T4C1.016
%
G90
G05
T1
X140.665Y-96.998
X141.935Y-97.379
X146.761Y-100.935
X158.572Y-107.793
X160.858Y-112.746
X165.43Y-104.999
X168.859Y-114.016
X175.59Y-109.698
X181.178Y-106.396
T2
X177.241Y-96.109
X177.241Y-103.729
X179.781Y-96.109
X179.781Y-103.729
X182.321Y-96.109
X182.321Y-103.729
X184.861Y-96.109
X184.861Y-103.729
X187.401Y-96.109
X187.401Y-103.729
X189.941Y-96.109
X189.941Y-103.729
X192.481Y-96.109
X192.481Y-103.729
X195.021Y-96.109
X195.021Y-103.729
X98.501Y-112.619
X101.041Y-112.619
X149.301Y-102.459
X149.301Y-110.079
X151.841Y-102.459
X151.841Y-110.079
X154.381Y-102.459
X154.381Y-110.079
X156.921Y-102.459
X156.921Y-110.079
X159.461Y-102.459
X159.461Y-110.079
X162.001Y-102.459
X162.001Y-110.079
X164.541Y-102.459
X164.541Y-110.079
X167.081Y-102.459
X167.081Y-110.079
X169.621Y-102.459
X169.621Y-110.079
X172.161Y-102.459
X172.161Y-110.079
X101.041Y-96.109
X103.581Y-96.109
X197.561Y-99.919
X197.561Y-102.459
X146.761Y-102.459
X146.761Y-104.999
X106.121Y-96.109
X106.121Y-111.349
X108.661Y-96.109
X108.661Y-111.349
X111.201Y-96.109
X111.201Y-111.349
X113.741Y-96.109
X113.741Y-111.349
X116.281Y-96.109
X116.281Y-111.349
X118.821Y-96.109
X118.821Y-111.349
X121.361Y-96.109
X121.361Y-111.349
X123.901Y-96.109
X123.901Y-111.349
X126.441Y-96.109
X126.441Y-111.349
X128.981Y-96.109
X128.981Y-111.349
X131.521Y-96.109
X131.521Y-111.349
X134.061Y-96.109
X134.061Y-111.349
X136.601Y-96.109
X136.601Y-111.349
X139.141Y-96.109
X139.141Y-111.349
T3
X99.771Y-99.919
X99.771Y-102.459
T4
X179.781Y-108.809
X179.781Y-111.349
X182.321Y-108.809
X182.321Y-111.349
X184.861Y-108.809
X184.861Y-111.349
X187.401Y-108.809
X187.401Y-111.349
X189.941Y-108.809
X189.941Y-111.349
X192.481Y-108.809
X192.481Y-111.349
X195.021Y-108.809
X195.021Y-111.349
X197.561Y-108.809
X197.561Y-111.349
X98.501Y-116.429
X101.041Y-116.429
X103.581Y-116.429
X106.121Y-116.429
X108.661Y-116.429
X111.201Y-116.429
X113.741Y-116.429
X116.281Y-116.429
X118.821Y-116.429
X121.361Y-116.429
X123.901Y-116.429
X126.441Y-116.429
X128.981Y-116.429
X131.521Y-116.429
X134.061Y-116.429
X136.601Y-116.429
X139.141Y-116.429
X141.681Y-116.429
X144.221Y-116.429
X146.761Y-116.429
X149.301Y-116.429
X151.841Y-116.429
X154.381Y-116.429
X156.921Y-116.429
X159.461Y-116.429
X162.001Y-116.429
X164.541Y-116.429
X167.081Y-116.429
X169.621Y-116.429
X172.161Y-116.429
X174.701Y-116.429
X177.241Y-116.429
X179.781Y-116.429
X182.321Y-116.429
X184.861Y-116.429
X187.401Y-116.429
X189.941Y-116.429
X192.481Y-116.429
X195.021Y-116.429
X197.561Y-116.429
X149.301Y-97.379
X151.841Y-97.379
X154.381Y-97.379
X156.921Y-97.379
X159.461Y-97.379
X162.001Y-97.379
X164.541Y-97.379
X167.081Y-97.379
X169.621Y-97.379
X172.161Y-97.379
T0
M30
