%TF.GenerationSoftware,KiCad,Pcbnew,5.1.6*%
%TF.CreationDate,2020-10-23T20:35:42+02:00*%
%TF.ProjectId,RC2014 Real-Time Clock and IO,52433230-3134-4205-9265-616c2d54696d,rev?*%
%TF.SameCoordinates,Original*%
%TF.FileFunction,Soldermask,Top*%
%TF.FilePolarity,Negative*%
%FSLAX46Y46*%
G04 Gerber Fmt 4.6, Leading zero omitted, Abs format (unit mm)*
G04 Created by KiCad (PCBNEW 5.1.6) date 2020-10-23 20:35:42*
%MOMM*%
%LPD*%
G01*
G04 APERTURE LIST*
%ADD10O,1.524000X2.844800*%
%ADD11C,1.524000*%
%ADD12C,1.727200*%
%ADD13O,1.727200X3.251200*%
%ADD14O,3.048000X1.625600*%
G04 APERTURE END LIST*
D10*
%TO.C,IC1*%
X195021100Y-103728600D03*
X192481100Y-103728600D03*
X189941100Y-103728600D03*
X187401100Y-103728600D03*
X184861100Y-103728600D03*
X182321100Y-103728600D03*
X179781100Y-103728600D03*
X177241100Y-103728600D03*
X184861100Y-96108600D03*
X182321100Y-96108600D03*
X187401100Y-96108600D03*
X189941100Y-96108600D03*
X177241100Y-96108600D03*
X179781100Y-96108600D03*
X192481100Y-96108600D03*
X195021100Y-96108600D03*
%TD*%
D11*
%TO.C,Q1*%
X101041100Y-112618600D03*
X98501100Y-112618600D03*
%TD*%
D12*
%TO.C,SV1*%
X197561100Y-108808600D03*
X195021100Y-108808600D03*
X197561100Y-111348600D03*
X195021100Y-111348600D03*
X192481100Y-108808600D03*
X189941100Y-108808600D03*
X187401100Y-108808600D03*
X184861100Y-108808600D03*
X182321100Y-108808600D03*
X179781100Y-108808600D03*
X192481100Y-111348600D03*
X189941100Y-111348600D03*
X187401100Y-111348600D03*
X184861100Y-111348600D03*
X182321100Y-111348600D03*
X179781100Y-111348600D03*
%TD*%
D10*
%TO.C,IC3*%
X106121100Y-96108600D03*
X108661100Y-96108600D03*
X111201100Y-96108600D03*
X113741100Y-96108600D03*
X116281100Y-96108600D03*
X118821100Y-96108600D03*
X121361100Y-96108600D03*
X123901100Y-96108600D03*
X126441100Y-96108600D03*
X128981100Y-96108600D03*
X131521100Y-96108600D03*
X134061100Y-96108600D03*
X136601100Y-96108600D03*
X139141100Y-96108600D03*
X139141100Y-111348600D03*
X136601100Y-111348600D03*
X134061100Y-111348600D03*
X131521100Y-111348600D03*
X128981100Y-111348600D03*
X126441100Y-111348600D03*
X123901100Y-111348600D03*
X121361100Y-111348600D03*
X118821100Y-111348600D03*
X116281100Y-111348600D03*
X113741100Y-111348600D03*
X111201100Y-111348600D03*
X108661100Y-111348600D03*
X106121100Y-111348600D03*
%TD*%
D13*
%TO.C,CON1*%
X149301100Y-116428600D03*
X151841100Y-116428600D03*
X154381100Y-116428600D03*
X156921100Y-116428600D03*
X159461100Y-116428600D03*
X162001100Y-116428600D03*
X164541100Y-116428600D03*
X167081100Y-116428600D03*
X169621100Y-116428600D03*
X172161100Y-116428600D03*
X174701100Y-116428600D03*
X177241100Y-116428600D03*
X179781100Y-116428600D03*
X182321100Y-116428600D03*
X184861100Y-116428600D03*
X187401100Y-116428600D03*
X189941100Y-116428600D03*
X192481100Y-116428600D03*
X195021100Y-116428600D03*
X197561100Y-116428600D03*
X103581100Y-116428600D03*
X98501100Y-116428600D03*
X101041100Y-116428600D03*
X106121100Y-116428600D03*
X108661100Y-116428600D03*
X111201100Y-116428600D03*
X113741100Y-116428600D03*
X116281100Y-116428600D03*
X118821100Y-116428600D03*
X121361100Y-116428600D03*
X123901100Y-116428600D03*
X126441100Y-116428600D03*
X128981100Y-116428600D03*
X131521100Y-116428600D03*
X134061100Y-116428600D03*
X136601100Y-116428600D03*
X139141100Y-116428600D03*
X141681100Y-116428600D03*
X144221100Y-116428600D03*
X146761100Y-116428600D03*
%TD*%
D10*
%TO.C,IC2*%
X149301100Y-102458600D03*
X151841100Y-102458600D03*
X154381100Y-102458600D03*
X156921100Y-102458600D03*
X159461100Y-102458600D03*
X162001100Y-102458600D03*
X164541100Y-102458600D03*
X167081100Y-102458600D03*
X169621100Y-102458600D03*
X172161100Y-102458600D03*
X172161100Y-110078600D03*
X169621100Y-110078600D03*
X159461100Y-110078600D03*
X162001100Y-110078600D03*
X156921100Y-110078600D03*
X154381100Y-110078600D03*
X167081100Y-110078600D03*
X164541100Y-110078600D03*
X151841100Y-110078600D03*
X149301100Y-110078600D03*
%TD*%
D14*
%TO.C,JP1*%
X99771100Y-102458600D03*
X99771100Y-99918600D03*
%TD*%
D13*
%TO.C,SV2*%
X172161100Y-97378600D03*
X169621100Y-97378600D03*
X167081100Y-97378600D03*
X164541100Y-97378600D03*
X162001100Y-97378600D03*
X159461100Y-97378600D03*
X156921100Y-97378600D03*
X154381100Y-97378600D03*
X151841100Y-97378600D03*
X149301100Y-97378600D03*
%TD*%
D11*
%TO.C,C1*%
X101041100Y-96108600D03*
X103581100Y-96108600D03*
%TD*%
%TO.C,C2*%
X146761100Y-104998600D03*
X146761100Y-102458600D03*
%TD*%
%TO.C,C3*%
X197561100Y-99918600D03*
X197561100Y-102458600D03*
%TD*%
M02*
