%TF.GenerationSoftware,KiCad,Pcbnew,5.1.6*%
%TF.CreationDate,2020-10-23T20:35:41+02:00*%
%TF.ProjectId,RC2014 Real-Time Clock and IO,52433230-3134-4205-9265-616c2d54696d,rev?*%
%TF.SameCoordinates,Original*%
%TF.FileFunction,Legend,Top*%
%TF.FilePolarity,Positive*%
%FSLAX46Y46*%
G04 Gerber Fmt 4.6, Leading zero omitted, Abs format (unit mm)*
G04 Created by KiCad (PCBNEW 5.1.6) date 2020-10-23 20:35:41*
%MOMM*%
%LPD*%
G01*
G04 APERTURE LIST*
%ADD10C,0.081280*%
%ADD11C,0.152400*%
%ADD12C,0.100000*%
%ADD13C,0.406400*%
%ADD14C,0.254000*%
%ADD15C,0.120650*%
%ADD16C,0.060000*%
%ADD17C,0.127000*%
%ADD18C,0.168910*%
%ADD19C,0.096520*%
G04 APERTURE END LIST*
D10*
X103099322Y-102001400D02*
X103007398Y-101955438D01*
X102869512Y-101955438D01*
X102731627Y-102001400D01*
X102639703Y-102093323D01*
X102593741Y-102185247D01*
X102547779Y-102369095D01*
X102547779Y-102506980D01*
X102593741Y-102690828D01*
X102639703Y-102782752D01*
X102731627Y-102874676D01*
X102869512Y-102920638D01*
X102961436Y-102920638D01*
X103099322Y-102874676D01*
X103145284Y-102828714D01*
X103145284Y-102506980D01*
X102961436Y-102506980D01*
X102915474Y-99875057D02*
X103053360Y-99921019D01*
X103099322Y-99966980D01*
X103145284Y-100058904D01*
X103145284Y-100196790D01*
X103099322Y-100288714D01*
X103053360Y-100334676D01*
X102961436Y-100380638D01*
X102593741Y-100380638D01*
X102593741Y-99415438D01*
X102915474Y-99415438D01*
X103007398Y-99461400D01*
X103053360Y-99507361D01*
X103099322Y-99599285D01*
X103099322Y-99691209D01*
X103053360Y-99783133D01*
X103007398Y-99829095D01*
X102915474Y-99875057D01*
X102593741Y-99875057D01*
X103558941Y-100012942D02*
X104294332Y-100012942D01*
X103926636Y-100380638D02*
X103926636Y-99645247D01*
D11*
%TO.C,IC1*%
X196291100Y-96997600D02*
X196291100Y-98902600D01*
X196291100Y-102839600D02*
X196291100Y-100934600D01*
X175971100Y-102839600D02*
X175971100Y-96997600D01*
X196291100Y-96997600D02*
X175971100Y-96997600D01*
X175971100Y-102839600D02*
X196291100Y-102839600D01*
X196291100Y-98902600D02*
G75*
G03*
X196291100Y-100934600I0J-1016000D01*
G01*
D12*
%TO.C,Q1*%
G36*
X99059900Y-111602600D02*
G01*
X99466300Y-111602600D01*
X99466300Y-111018400D01*
X99059900Y-111018400D01*
X99059900Y-111602600D01*
G37*
G36*
X100075900Y-111602600D02*
G01*
X100482300Y-111602600D01*
X100482300Y-111018400D01*
X100075900Y-111018400D01*
X100075900Y-111602600D01*
G37*
D11*
X100660100Y-110586600D02*
X98882100Y-110586600D01*
X100787100Y-110586600D02*
X100660100Y-110586600D01*
X99771100Y-107284600D02*
X100279100Y-107284600D01*
X99771100Y-107284600D02*
X99771100Y-106776600D01*
X99771100Y-108427600D02*
X100279100Y-108427600D01*
X99771100Y-108427600D02*
X99771100Y-108935600D01*
X99263100Y-108427600D02*
X99771100Y-108427600D01*
X99263100Y-107284600D02*
X99771100Y-107284600D01*
X99263100Y-107665600D02*
X100279100Y-107665600D01*
X100279100Y-108046600D02*
X100279100Y-107665600D01*
X100279100Y-108046600D02*
X99263100Y-108046600D01*
X99263100Y-107665600D02*
X99263100Y-108046600D01*
D13*
X99263100Y-111856600D02*
X99263100Y-111348600D01*
X100279100Y-111856600D02*
X100279100Y-111475600D01*
D11*
X98755100Y-110586600D02*
X98755100Y-105125600D01*
X98755100Y-110586600D02*
X98882100Y-110586600D01*
X98882100Y-110967600D02*
X98882100Y-110586600D01*
X100787100Y-110586600D02*
X100787100Y-105125600D01*
X100660100Y-110967600D02*
X100660100Y-110586600D01*
X99009100Y-104871600D02*
X100533100Y-104871600D01*
X98882100Y-110967600D02*
X100660100Y-110967600D01*
X99009100Y-104871600D02*
G75*
G03*
X98755100Y-105125600I0J-254000D01*
G01*
X100787100Y-105125600D02*
G75*
G03*
X100533100Y-104871600I-254000J0D01*
G01*
%TO.C,SV1*%
X195656100Y-112618600D02*
X194386100Y-112618600D01*
X193751100Y-111983600D02*
X194386100Y-112618600D01*
X196926100Y-112618600D02*
X196291100Y-111983600D01*
X198196100Y-112618600D02*
X196926100Y-112618600D01*
X198831100Y-111983600D02*
X198196100Y-112618600D01*
X196291100Y-111983600D02*
X195656100Y-112618600D01*
X198831100Y-108173600D02*
X198831100Y-111983600D01*
X194386100Y-107538600D02*
X193751100Y-108173600D01*
X198196100Y-107538600D02*
X198831100Y-108173600D01*
X196926100Y-107538600D02*
X198196100Y-107538600D01*
X196291100Y-108173600D02*
X196926100Y-107538600D01*
X195656100Y-107538600D02*
X196291100Y-108173600D01*
X194386100Y-107538600D02*
X195656100Y-107538600D01*
X191846100Y-112618600D02*
X191211100Y-111983600D01*
X193116100Y-112618600D02*
X191846100Y-112618600D01*
X193751100Y-111983600D02*
X193116100Y-112618600D01*
X188036100Y-112618600D02*
X186766100Y-112618600D01*
X186131100Y-111983600D02*
X186766100Y-112618600D01*
X189306100Y-112618600D02*
X188671100Y-111983600D01*
X190576100Y-112618600D02*
X189306100Y-112618600D01*
X191211100Y-111983600D02*
X190576100Y-112618600D01*
X188671100Y-111983600D02*
X188036100Y-112618600D01*
X184226100Y-112618600D02*
X183591100Y-111983600D01*
X185496100Y-112618600D02*
X184226100Y-112618600D01*
X186131100Y-111983600D02*
X185496100Y-112618600D01*
X180416100Y-112618600D02*
X179146100Y-112618600D01*
X178511100Y-111983600D02*
X179146100Y-112618600D01*
X178511100Y-108173600D02*
X178511100Y-111983600D01*
X181686100Y-112618600D02*
X181051100Y-111983600D01*
X182956100Y-112618600D02*
X181686100Y-112618600D01*
X183591100Y-111983600D02*
X182956100Y-112618600D01*
X181051100Y-111983600D02*
X180416100Y-112618600D01*
X193116100Y-107538600D02*
X193751100Y-108173600D01*
X191846100Y-107538600D02*
X193116100Y-107538600D01*
X191211100Y-108173600D02*
X191846100Y-107538600D01*
X186766100Y-107538600D02*
X186131100Y-108173600D01*
X190576100Y-107538600D02*
X191211100Y-108173600D01*
X189306100Y-107538600D02*
X190576100Y-107538600D01*
X188671100Y-108173600D02*
X189306100Y-107538600D01*
X188036100Y-107538600D02*
X188671100Y-108173600D01*
X186766100Y-107538600D02*
X188036100Y-107538600D01*
X185496100Y-107538600D02*
X186131100Y-108173600D01*
X184226100Y-107538600D02*
X185496100Y-107538600D01*
X183591100Y-108173600D02*
X184226100Y-107538600D01*
X179146100Y-107538600D02*
X178511100Y-108173600D01*
X182956100Y-107538600D02*
X183591100Y-108173600D01*
X181686100Y-107538600D02*
X182956100Y-107538600D01*
X181051100Y-108173600D02*
X181686100Y-107538600D01*
X180416100Y-107538600D02*
X181051100Y-108173600D01*
X179146100Y-107538600D02*
X180416100Y-107538600D01*
%TO.C,IC3*%
X104089100Y-104998600D02*
X104089100Y-109951600D01*
X141300100Y-109951600D02*
X104089100Y-109951600D01*
X104089100Y-97505600D02*
X141300100Y-97505600D01*
X104089100Y-97505600D02*
X104089100Y-102458600D01*
X141300100Y-109951600D02*
X141300100Y-97505600D01*
X104089100Y-104998600D02*
G75*
G03*
X104089100Y-102458600I0J1270000D01*
G01*
%TO.C,IC2*%
X148031100Y-109189600D02*
X148031100Y-107284600D01*
X148031100Y-103347600D02*
X148031100Y-105252600D01*
X173431100Y-103347600D02*
X173431100Y-109189600D01*
X148031100Y-109189600D02*
X173431100Y-109189600D01*
X173431100Y-103347600D02*
X148031100Y-103347600D01*
X148031100Y-107284600D02*
G75*
G03*
X148031100Y-105252600I0J1016000D01*
G01*
%TO.C,JP1*%
X100787100Y-98648600D02*
X98755100Y-98648600D01*
X100787100Y-98648600D02*
X101041100Y-98902600D01*
X101041100Y-100934600D02*
X101041100Y-98902600D01*
X101041100Y-103474600D02*
X101041100Y-101442600D01*
X101041100Y-103474600D02*
X100787100Y-103728600D01*
X98755100Y-103728600D02*
X100787100Y-103728600D01*
X98501100Y-103474600D02*
X98501100Y-101442600D01*
X98501100Y-103474600D02*
X98755100Y-103728600D01*
X98755100Y-98648600D02*
X98501100Y-98902600D01*
X98501100Y-100934600D02*
X98501100Y-98902600D01*
X98755100Y-101188600D02*
X98501100Y-100934600D01*
X98755100Y-101188600D02*
X98501100Y-101442600D01*
X100787100Y-101188600D02*
X101041100Y-100934600D01*
X100787100Y-101188600D02*
X101041100Y-101442600D01*
%TO.C,SV2*%
X173431100Y-96743600D02*
X173431100Y-98013600D01*
X170256100Y-98648600D02*
X168986100Y-98648600D01*
X168351100Y-98013600D02*
X168986100Y-98648600D01*
X168986100Y-96108600D02*
X168351100Y-96743600D01*
X171526100Y-98648600D02*
X170891100Y-98013600D01*
X172796100Y-98648600D02*
X171526100Y-98648600D01*
X173431100Y-98013600D02*
X172796100Y-98648600D01*
X172796100Y-96108600D02*
X173431100Y-96743600D01*
X171526100Y-96108600D02*
X172796100Y-96108600D01*
X170891100Y-96743600D02*
X171526100Y-96108600D01*
X170891100Y-98013600D02*
X170256100Y-98648600D01*
X170256100Y-96108600D02*
X170891100Y-96743600D01*
X168986100Y-96108600D02*
X170256100Y-96108600D01*
X167716100Y-98648600D02*
X166446100Y-98648600D01*
X165811100Y-98013600D02*
X166446100Y-98648600D01*
X166446100Y-96108600D02*
X165811100Y-96743600D01*
X168351100Y-98013600D02*
X167716100Y-98648600D01*
X167716100Y-96108600D02*
X168351100Y-96743600D01*
X166446100Y-96108600D02*
X167716100Y-96108600D01*
X163906100Y-98648600D02*
X163271100Y-98013600D01*
X165176100Y-98648600D02*
X163906100Y-98648600D01*
X165811100Y-98013600D02*
X165176100Y-98648600D01*
X165176100Y-96108600D02*
X165811100Y-96743600D01*
X163906100Y-96108600D02*
X165176100Y-96108600D01*
X163271100Y-96743600D02*
X163906100Y-96108600D01*
X160096100Y-98648600D02*
X158826100Y-98648600D01*
X158191100Y-98013600D02*
X158826100Y-98648600D01*
X158826100Y-96108600D02*
X158191100Y-96743600D01*
X161366100Y-98648600D02*
X160731100Y-98013600D01*
X162636100Y-98648600D02*
X161366100Y-98648600D01*
X163271100Y-98013600D02*
X162636100Y-98648600D01*
X162636100Y-96108600D02*
X163271100Y-96743600D01*
X161366100Y-96108600D02*
X162636100Y-96108600D01*
X160731100Y-96743600D02*
X161366100Y-96108600D01*
X160731100Y-98013600D02*
X160096100Y-98648600D01*
X160096100Y-96108600D02*
X160731100Y-96743600D01*
X158826100Y-96108600D02*
X160096100Y-96108600D01*
X157556100Y-98648600D02*
X156286100Y-98648600D01*
X155651100Y-98013600D02*
X156286100Y-98648600D01*
X156286100Y-96108600D02*
X155651100Y-96743600D01*
X158191100Y-98013600D02*
X157556100Y-98648600D01*
X157556100Y-96108600D02*
X158191100Y-96743600D01*
X156286100Y-96108600D02*
X157556100Y-96108600D01*
X153746100Y-98648600D02*
X153111100Y-98013600D01*
X155016100Y-98648600D02*
X153746100Y-98648600D01*
X155651100Y-98013600D02*
X155016100Y-98648600D01*
X155016100Y-96108600D02*
X155651100Y-96743600D01*
X153746100Y-96108600D02*
X155016100Y-96108600D01*
X153111100Y-96743600D02*
X153746100Y-96108600D01*
X149936100Y-98648600D02*
X148666100Y-98648600D01*
X148031100Y-98013600D02*
X148666100Y-98648600D01*
X148666100Y-96108600D02*
X148031100Y-96743600D01*
X148031100Y-96743600D02*
X148031100Y-98013600D01*
X151206100Y-98648600D02*
X150571100Y-98013600D01*
X152476100Y-98648600D02*
X151206100Y-98648600D01*
X153111100Y-98013600D02*
X152476100Y-98648600D01*
X152476100Y-96108600D02*
X153111100Y-96743600D01*
X151206100Y-96108600D02*
X152476100Y-96108600D01*
X150571100Y-96743600D02*
X151206100Y-96108600D01*
X150571100Y-98013600D02*
X149936100Y-98648600D01*
X149936100Y-96108600D02*
X150571100Y-96743600D01*
X148666100Y-96108600D02*
X149936100Y-96108600D01*
%TO.C,C1*%
X102565100Y-96108600D02*
X102692100Y-96108600D01*
D14*
X102565100Y-96108600D02*
X102565100Y-95346600D01*
X102565100Y-96870600D02*
X102565100Y-96108600D01*
X102057100Y-96108600D02*
X102057100Y-95346600D01*
X102057100Y-96108600D02*
X102057100Y-96870600D01*
D11*
X101930100Y-96108600D02*
X102057100Y-96108600D01*
X104724100Y-97124600D02*
X104724100Y-95092600D01*
X99898100Y-97124600D02*
X99898100Y-95092600D01*
X100152100Y-94838600D02*
X104470100Y-94838600D01*
X104470100Y-97378600D02*
X100152100Y-97378600D01*
X104470100Y-94838600D02*
G75*
G02*
X104724100Y-95092600I0J-254000D01*
G01*
X99898100Y-95092600D02*
G75*
G02*
X100152100Y-94838600I254000J0D01*
G01*
X104470100Y-97378600D02*
G75*
G03*
X104724100Y-97124600I0J254000D01*
G01*
X99898100Y-97124600D02*
G75*
G03*
X100152100Y-97378600I254000J0D01*
G01*
%TO.C,C2*%
X146761100Y-103474600D02*
X146761100Y-103347600D01*
D14*
X146761100Y-103474600D02*
X145999100Y-103474600D01*
X147523100Y-103474600D02*
X146761100Y-103474600D01*
X146761100Y-103982600D02*
X145999100Y-103982600D01*
X146761100Y-103982600D02*
X147523100Y-103982600D01*
D11*
X146761100Y-104109600D02*
X146761100Y-103982600D01*
X147777100Y-101315600D02*
X145745100Y-101315600D01*
X147777100Y-106141600D02*
X145745100Y-106141600D01*
X145491100Y-105887600D02*
X145491100Y-101569600D01*
X148031100Y-101569600D02*
X148031100Y-105887600D01*
X145491100Y-101569600D02*
G75*
G02*
X145745100Y-101315600I254000J0D01*
G01*
X145745100Y-106141600D02*
G75*
G02*
X145491100Y-105887600I0J254000D01*
G01*
X148031100Y-101569600D02*
G75*
G03*
X147777100Y-101315600I-254000J0D01*
G01*
X147777100Y-106141600D02*
G75*
G03*
X148031100Y-105887600I0J254000D01*
G01*
%TO.C,C3*%
X197561100Y-101442600D02*
X197561100Y-101569600D01*
D14*
X197561100Y-101442600D02*
X198323100Y-101442600D01*
X196799100Y-101442600D02*
X197561100Y-101442600D01*
X197561100Y-100934600D02*
X198323100Y-100934600D01*
X197561100Y-100934600D02*
X196799100Y-100934600D01*
D11*
X197561100Y-100807600D02*
X197561100Y-100934600D01*
X196545100Y-103601600D02*
X198577100Y-103601600D01*
X196545100Y-98775600D02*
X198577100Y-98775600D01*
X198831100Y-99029600D02*
X198831100Y-103347600D01*
X196291100Y-103347600D02*
X196291100Y-99029600D01*
X198831100Y-103347600D02*
G75*
G02*
X198577100Y-103601600I-254000J0D01*
G01*
X198577100Y-98775600D02*
G75*
G02*
X198831100Y-99029600I0J-254000D01*
G01*
X196291100Y-103347600D02*
G75*
G03*
X196545100Y-103601600I254000J0D01*
G01*
X196545100Y-98775600D02*
G75*
G03*
X196291100Y-99029600I0J-254000D01*
G01*
%TO.C,IC1*%
D15*
X191119684Y-100750147D02*
X191119684Y-99543647D01*
X192383636Y-100635242D02*
X192326184Y-100692695D01*
X192153827Y-100750147D01*
X192038922Y-100750147D01*
X191866565Y-100692695D01*
X191751660Y-100577790D01*
X191694208Y-100462885D01*
X191636755Y-100233076D01*
X191636755Y-100060719D01*
X191694208Y-99830909D01*
X191751660Y-99716004D01*
X191866565Y-99601100D01*
X192038922Y-99543647D01*
X192153827Y-99543647D01*
X192326184Y-99601100D01*
X192383636Y-99658552D01*
X193532684Y-100750147D02*
X192843255Y-100750147D01*
X193187970Y-100750147D02*
X193187970Y-99543647D01*
X193073065Y-99716004D01*
X192958160Y-99830909D01*
X192843255Y-99888361D01*
X179828779Y-99574047D02*
X180633112Y-99574047D01*
X180116041Y-100780547D01*
X181609803Y-99976214D02*
X181609803Y-100780547D01*
X181322541Y-99516595D02*
X181035279Y-100378380D01*
X181782160Y-100378380D01*
X182241779Y-100780547D02*
X182241779Y-99574047D01*
X182241779Y-100148571D02*
X182931208Y-100148571D01*
X182931208Y-100780547D02*
X182931208Y-99574047D01*
X184195160Y-100665642D02*
X184137708Y-100723095D01*
X183965351Y-100780547D01*
X183850446Y-100780547D01*
X183678089Y-100723095D01*
X183563184Y-100608190D01*
X183505732Y-100493285D01*
X183448279Y-100263476D01*
X183448279Y-100091119D01*
X183505732Y-99861309D01*
X183563184Y-99746404D01*
X183678089Y-99631500D01*
X183850446Y-99574047D01*
X183965351Y-99574047D01*
X184137708Y-99631500D01*
X184195160Y-99688952D01*
X185344208Y-100780547D02*
X184654779Y-100780547D01*
X184999493Y-100780547D02*
X184999493Y-99574047D01*
X184884589Y-99746404D01*
X184769684Y-99861309D01*
X184654779Y-99918761D01*
X185746374Y-99574047D02*
X186493255Y-99574047D01*
X186091089Y-100033666D01*
X186263446Y-100033666D01*
X186378351Y-100091119D01*
X186435803Y-100148571D01*
X186493255Y-100263476D01*
X186493255Y-100550738D01*
X186435803Y-100665642D01*
X186378351Y-100723095D01*
X186263446Y-100780547D01*
X185918732Y-100780547D01*
X185803827Y-100723095D01*
X185746374Y-100665642D01*
X187182684Y-100091119D02*
X187067779Y-100033666D01*
X187010327Y-99976214D01*
X186952874Y-99861309D01*
X186952874Y-99803857D01*
X187010327Y-99688952D01*
X187067779Y-99631500D01*
X187182684Y-99574047D01*
X187412493Y-99574047D01*
X187527398Y-99631500D01*
X187584851Y-99688952D01*
X187642303Y-99803857D01*
X187642303Y-99861309D01*
X187584851Y-99976214D01*
X187527398Y-100033666D01*
X187412493Y-100091119D01*
X187182684Y-100091119D01*
X187067779Y-100148571D01*
X187010327Y-100206023D01*
X186952874Y-100320928D01*
X186952874Y-100550738D01*
X187010327Y-100665642D01*
X187067779Y-100723095D01*
X187182684Y-100780547D01*
X187412493Y-100780547D01*
X187527398Y-100723095D01*
X187584851Y-100665642D01*
X187642303Y-100550738D01*
X187642303Y-100320928D01*
X187584851Y-100206023D01*
X187527398Y-100148571D01*
X187412493Y-100091119D01*
X188159374Y-100780547D02*
X188159374Y-99574047D01*
X188848803Y-100780547D01*
X188848803Y-99574047D01*
%TO.C,Q1*%
D16*
X102495428Y-111381285D02*
X102495428Y-111009857D01*
X102724000Y-111209857D01*
X102724000Y-111124142D01*
X102752571Y-111067000D01*
X102781142Y-111038428D01*
X102838285Y-111009857D01*
X102981142Y-111009857D01*
X103038285Y-111038428D01*
X103066857Y-111067000D01*
X103095428Y-111124142D01*
X103095428Y-111295571D01*
X103066857Y-111352714D01*
X103038285Y-111381285D01*
X102552571Y-110781285D02*
X102524000Y-110752714D01*
X102495428Y-110695571D01*
X102495428Y-110552714D01*
X102524000Y-110495571D01*
X102552571Y-110467000D01*
X102609714Y-110438428D01*
X102666857Y-110438428D01*
X102752571Y-110467000D01*
X103095428Y-110809857D01*
X103095428Y-110438428D01*
X103038285Y-110181285D02*
X103066857Y-110152714D01*
X103095428Y-110181285D01*
X103066857Y-110209857D01*
X103038285Y-110181285D01*
X103095428Y-110181285D01*
X102495428Y-109952714D02*
X102495428Y-109552714D01*
X103095428Y-109809857D01*
X102495428Y-109067000D02*
X102495428Y-109181285D01*
X102524000Y-109238428D01*
X102552571Y-109267000D01*
X102638285Y-109324142D01*
X102752571Y-109352714D01*
X102981142Y-109352714D01*
X103038285Y-109324142D01*
X103066857Y-109295571D01*
X103095428Y-109238428D01*
X103095428Y-109124142D01*
X103066857Y-109067000D01*
X103038285Y-109038428D01*
X102981142Y-109009857D01*
X102838285Y-109009857D01*
X102781142Y-109038428D01*
X102752571Y-109067000D01*
X102724000Y-109124142D01*
X102724000Y-109238428D01*
X102752571Y-109295571D01*
X102781142Y-109324142D01*
X102838285Y-109352714D01*
X102752571Y-108667000D02*
X102724000Y-108724142D01*
X102695428Y-108752714D01*
X102638285Y-108781285D01*
X102609714Y-108781285D01*
X102552571Y-108752714D01*
X102524000Y-108724142D01*
X102495428Y-108667000D01*
X102495428Y-108552714D01*
X102524000Y-108495571D01*
X102552571Y-108467000D01*
X102609714Y-108438428D01*
X102638285Y-108438428D01*
X102695428Y-108467000D01*
X102724000Y-108495571D01*
X102752571Y-108552714D01*
X102752571Y-108667000D01*
X102781142Y-108724142D01*
X102809714Y-108752714D01*
X102866857Y-108781285D01*
X102981142Y-108781285D01*
X103038285Y-108752714D01*
X103066857Y-108724142D01*
X103095428Y-108667000D01*
X103095428Y-108552714D01*
X103066857Y-108495571D01*
X103038285Y-108467000D01*
X102981142Y-108438428D01*
X102866857Y-108438428D01*
X102809714Y-108467000D01*
X102781142Y-108495571D01*
X102752571Y-108552714D01*
X103095428Y-108181285D02*
X102495428Y-108181285D01*
X102866857Y-108124142D02*
X103095428Y-107952714D01*
X102695428Y-107952714D02*
X102924000Y-108181285D01*
X103095428Y-107695571D02*
X102495428Y-107695571D01*
X102781142Y-107695571D02*
X102781142Y-107352714D01*
X103095428Y-107352714D02*
X102495428Y-107352714D01*
X102495428Y-107124142D02*
X102495428Y-106724142D01*
X103095428Y-107124142D01*
X103095428Y-106724142D01*
X103066857Y-106467000D02*
X103095428Y-106467000D01*
X103152571Y-106495571D01*
X103181142Y-106524142D01*
X102495428Y-105495571D02*
X102495428Y-105609857D01*
X102524000Y-105667000D01*
X102552571Y-105695571D01*
X102638285Y-105752714D01*
X102752571Y-105781285D01*
X102981142Y-105781285D01*
X103038285Y-105752714D01*
X103066857Y-105724142D01*
X103095428Y-105667000D01*
X103095428Y-105552714D01*
X103066857Y-105495571D01*
X103038285Y-105467000D01*
X102981142Y-105438428D01*
X102838285Y-105438428D01*
X102781142Y-105467000D01*
X102752571Y-105495571D01*
X102724000Y-105552714D01*
X102724000Y-105667000D01*
X102752571Y-105724142D01*
X102781142Y-105752714D01*
X102838285Y-105781285D01*
X102695428Y-105181285D02*
X103295428Y-105181285D01*
X102724000Y-105181285D02*
X102695428Y-105124142D01*
X102695428Y-105009857D01*
X102724000Y-104952714D01*
X102752571Y-104924142D01*
X102809714Y-104895571D01*
X102981142Y-104895571D01*
X103038285Y-104924142D01*
X103066857Y-104952714D01*
X103095428Y-105009857D01*
X103095428Y-105124142D01*
X103066857Y-105181285D01*
X102781142Y-104438428D02*
X102781142Y-104638428D01*
X103095428Y-104638428D02*
X102495428Y-104638428D01*
X102495428Y-104352714D01*
%TO.C,SV1*%
D17*
X178823459Y-107042695D02*
X178995816Y-107100147D01*
X179283078Y-107100147D01*
X179397983Y-107042695D01*
X179455435Y-106985242D01*
X179512888Y-106870338D01*
X179512888Y-106755433D01*
X179455435Y-106640528D01*
X179397983Y-106583076D01*
X179283078Y-106525623D01*
X179053269Y-106468171D01*
X178938364Y-106410719D01*
X178880911Y-106353266D01*
X178823459Y-106238361D01*
X178823459Y-106123457D01*
X178880911Y-106008552D01*
X178938364Y-105951100D01*
X179053269Y-105893647D01*
X179340530Y-105893647D01*
X179512888Y-105951100D01*
X179857602Y-105893647D02*
X180259769Y-107100147D01*
X180661935Y-105893647D01*
X181696078Y-107100147D02*
X181006650Y-107100147D01*
X181351364Y-107100147D02*
X181351364Y-105893647D01*
X181236459Y-106066004D01*
X181121554Y-106180909D01*
X181006650Y-106238361D01*
X197292888Y-107100147D02*
X196603459Y-107100147D01*
X196948173Y-107100147D02*
X196948173Y-105893647D01*
X196833269Y-106066004D01*
X196718364Y-106180909D01*
X196603459Y-106238361D01*
X198327030Y-105893647D02*
X198097221Y-105893647D01*
X197982316Y-105951100D01*
X197924864Y-106008552D01*
X197809959Y-106180909D01*
X197752507Y-106410719D01*
X197752507Y-106870338D01*
X197809959Y-106985242D01*
X197867411Y-107042695D01*
X197982316Y-107100147D01*
X198212126Y-107100147D01*
X198327030Y-107042695D01*
X198384483Y-106985242D01*
X198441935Y-106870338D01*
X198441935Y-106583076D01*
X198384483Y-106468171D01*
X198327030Y-106410719D01*
X198212126Y-106353266D01*
X197982316Y-106353266D01*
X197867411Y-106410719D01*
X197809959Y-106468171D01*
X197752507Y-106583076D01*
X180274888Y-114212147D02*
X179585459Y-114212147D01*
X179930173Y-114212147D02*
X179930173Y-113005647D01*
X179815269Y-113178004D01*
X179700364Y-113292909D01*
X179585459Y-113350361D01*
%TO.C,IC3*%
D18*
X124971958Y-104821566D02*
X124971958Y-103132466D01*
X126741491Y-104660700D02*
X126661058Y-104741133D01*
X126419758Y-104821566D01*
X126258891Y-104821566D01*
X126017591Y-104741133D01*
X125856724Y-104580266D01*
X125776291Y-104419400D01*
X125695858Y-104097666D01*
X125695858Y-103856366D01*
X125776291Y-103534633D01*
X125856724Y-103373766D01*
X126017591Y-103212900D01*
X126258891Y-103132466D01*
X126419758Y-103132466D01*
X126661058Y-103212900D01*
X126741491Y-103293333D01*
X127304524Y-103132466D02*
X128350158Y-103132466D01*
X127787124Y-103775933D01*
X128028424Y-103775933D01*
X128189291Y-103856366D01*
X128269724Y-103936800D01*
X128350158Y-104097666D01*
X128350158Y-104499833D01*
X128269724Y-104660700D01*
X128189291Y-104741133D01*
X128028424Y-104821566D01*
X127545824Y-104821566D01*
X127384958Y-104741133D01*
X127304524Y-104660700D01*
X112326991Y-103936800D02*
X112568291Y-104017233D01*
X112648724Y-104097666D01*
X112729158Y-104258533D01*
X112729158Y-104499833D01*
X112648724Y-104660700D01*
X112568291Y-104741133D01*
X112407424Y-104821566D01*
X111763958Y-104821566D01*
X111763958Y-103132466D01*
X112326991Y-103132466D01*
X112487858Y-103212900D01*
X112568291Y-103293333D01*
X112648724Y-103454200D01*
X112648724Y-103615066D01*
X112568291Y-103775933D01*
X112487858Y-103856366D01*
X112326991Y-103936800D01*
X111763958Y-103936800D01*
X114579124Y-104982433D02*
X114418258Y-104902000D01*
X114257391Y-104741133D01*
X114016091Y-104499833D01*
X113855224Y-104419400D01*
X113694358Y-104419400D01*
X113774791Y-104821566D02*
X113613924Y-104741133D01*
X113453058Y-104580266D01*
X113372624Y-104258533D01*
X113372624Y-103695500D01*
X113453058Y-103373766D01*
X113613924Y-103212900D01*
X113774791Y-103132466D01*
X114096524Y-103132466D01*
X114257391Y-103212900D01*
X114418258Y-103373766D01*
X114498691Y-103695500D01*
X114498691Y-104258533D01*
X114418258Y-104580266D01*
X114257391Y-104741133D01*
X114096524Y-104821566D01*
X113774791Y-104821566D01*
X115946491Y-103695500D02*
X115946491Y-104821566D01*
X115544324Y-103052033D02*
X115142158Y-104258533D01*
X116187791Y-104258533D01*
X117072558Y-103856366D02*
X116911691Y-103775933D01*
X116831258Y-103695500D01*
X116750824Y-103534633D01*
X116750824Y-103454200D01*
X116831258Y-103293333D01*
X116911691Y-103212900D01*
X117072558Y-103132466D01*
X117394291Y-103132466D01*
X117555158Y-103212900D01*
X117635591Y-103293333D01*
X117716024Y-103454200D01*
X117716024Y-103534633D01*
X117635591Y-103695500D01*
X117555158Y-103775933D01*
X117394291Y-103856366D01*
X117072558Y-103856366D01*
X116911691Y-103936800D01*
X116831258Y-104017233D01*
X116750824Y-104178100D01*
X116750824Y-104499833D01*
X116831258Y-104660700D01*
X116911691Y-104741133D01*
X117072558Y-104821566D01*
X117394291Y-104821566D01*
X117555158Y-104741133D01*
X117635591Y-104660700D01*
X117716024Y-104499833D01*
X117716024Y-104178100D01*
X117635591Y-104017233D01*
X117555158Y-103936800D01*
X117394291Y-103856366D01*
X119163824Y-103695500D02*
X119163824Y-104821566D01*
X118761658Y-103052033D02*
X118359491Y-104258533D01*
X119405124Y-104258533D01*
X120852924Y-103132466D02*
X120048591Y-103132466D01*
X119968158Y-103936800D01*
X120048591Y-103856366D01*
X120209458Y-103775933D01*
X120611624Y-103775933D01*
X120772491Y-103856366D01*
X120852924Y-103936800D01*
X120933358Y-104097666D01*
X120933358Y-104499833D01*
X120852924Y-104660700D01*
X120772491Y-104741133D01*
X120611624Y-104821566D01*
X120209458Y-104821566D01*
X120048591Y-104741133D01*
X119968158Y-104660700D01*
%TO.C,IC2*%
D19*
X162909999Y-107130547D02*
X162909999Y-105924047D01*
X164173952Y-107015642D02*
X164116499Y-107073095D01*
X163944142Y-107130547D01*
X163829238Y-107130547D01*
X163656880Y-107073095D01*
X163541976Y-106958190D01*
X163484523Y-106843285D01*
X163427071Y-106613476D01*
X163427071Y-106441119D01*
X163484523Y-106211309D01*
X163541976Y-106096404D01*
X163656880Y-105981500D01*
X163829238Y-105924047D01*
X163944142Y-105924047D01*
X164116499Y-105981500D01*
X164173952Y-106038952D01*
X164633571Y-106038952D02*
X164691023Y-105981500D01*
X164805928Y-105924047D01*
X165093190Y-105924047D01*
X165208095Y-105981500D01*
X165265547Y-106038952D01*
X165322999Y-106153857D01*
X165322999Y-106268761D01*
X165265547Y-106441119D01*
X164576118Y-107130547D01*
X165322999Y-107130547D01*
X152381095Y-105924047D02*
X153185428Y-105924047D01*
X152668357Y-107130547D01*
X154162118Y-106326214D02*
X154162118Y-107130547D01*
X153874857Y-105866595D02*
X153587595Y-106728380D01*
X154334476Y-106728380D01*
X155368618Y-107130547D02*
X154794095Y-107130547D01*
X154794095Y-105924047D01*
X155713333Y-107073095D02*
X155885690Y-107130547D01*
X156172952Y-107130547D01*
X156287857Y-107073095D01*
X156345309Y-107015642D01*
X156402761Y-106900738D01*
X156402761Y-106785833D01*
X156345309Y-106670928D01*
X156287857Y-106613476D01*
X156172952Y-106556023D01*
X155943142Y-106498571D01*
X155828238Y-106441119D01*
X155770785Y-106383666D01*
X155713333Y-106268761D01*
X155713333Y-106153857D01*
X155770785Y-106038952D01*
X155828238Y-105981500D01*
X155943142Y-105924047D01*
X156230404Y-105924047D01*
X156402761Y-105981500D01*
X156804928Y-105924047D02*
X157551809Y-105924047D01*
X157149642Y-106383666D01*
X157321999Y-106383666D01*
X157436904Y-106441119D01*
X157494357Y-106498571D01*
X157551809Y-106613476D01*
X157551809Y-106900738D01*
X157494357Y-107015642D01*
X157436904Y-107073095D01*
X157321999Y-107130547D01*
X156977285Y-107130547D01*
X156862380Y-107073095D01*
X156804928Y-107015642D01*
X157953976Y-105924047D02*
X158758309Y-105924047D01*
X158241238Y-107130547D01*
X159734999Y-106326214D02*
X159734999Y-107130547D01*
X159447738Y-105866595D02*
X159160476Y-106728380D01*
X159907357Y-106728380D01*
X160366976Y-107130547D02*
X160366976Y-105924047D01*
X161056404Y-107130547D01*
X161056404Y-105924047D01*
%TO.C,SV2*%
D17*
X148140359Y-95135095D02*
X148312716Y-95192547D01*
X148599978Y-95192547D01*
X148714883Y-95135095D01*
X148772335Y-95077642D01*
X148829788Y-94962738D01*
X148829788Y-94847833D01*
X148772335Y-94732928D01*
X148714883Y-94675476D01*
X148599978Y-94618023D01*
X148370169Y-94560571D01*
X148255264Y-94503119D01*
X148197811Y-94445666D01*
X148140359Y-94330761D01*
X148140359Y-94215857D01*
X148197811Y-94100952D01*
X148255264Y-94043500D01*
X148370169Y-93986047D01*
X148657430Y-93986047D01*
X148829788Y-94043500D01*
X149174502Y-93986047D02*
X149576669Y-95192547D01*
X149978835Y-93986047D01*
X150323550Y-94100952D02*
X150381002Y-94043500D01*
X150495907Y-93986047D01*
X150783169Y-93986047D01*
X150898073Y-94043500D01*
X150955526Y-94100952D01*
X151012978Y-94215857D01*
X151012978Y-94330761D01*
X150955526Y-94503119D01*
X150266097Y-95192547D01*
X151012978Y-95192547D01*
X171943788Y-95192547D02*
X171254359Y-95192547D01*
X171599073Y-95192547D02*
X171599073Y-93986047D01*
X171484169Y-94158404D01*
X171369264Y-94273309D01*
X171254359Y-94330761D01*
X172690669Y-93986047D02*
X172805573Y-93986047D01*
X172920478Y-94043500D01*
X172977930Y-94100952D01*
X173035383Y-94215857D01*
X173092835Y-94445666D01*
X173092835Y-94732928D01*
X173035383Y-94962738D01*
X172977930Y-95077642D01*
X172920478Y-95135095D01*
X172805573Y-95192547D01*
X172690669Y-95192547D01*
X172575764Y-95135095D01*
X172518311Y-95077642D01*
X172460859Y-94962738D01*
X172403407Y-94732928D01*
X172403407Y-94445666D01*
X172460859Y-94215857D01*
X172518311Y-94100952D01*
X172575764Y-94043500D01*
X172690669Y-93986047D01*
X149591788Y-100526547D02*
X148902359Y-100526547D01*
X149247073Y-100526547D02*
X149247073Y-99320047D01*
X149132169Y-99492404D01*
X149017264Y-99607309D01*
X148902359Y-99664761D01*
%TO.C,C1*%
D15*
X100623112Y-94315642D02*
X100565660Y-94373095D01*
X100393303Y-94430547D01*
X100278398Y-94430547D01*
X100106041Y-94373095D01*
X99991136Y-94258190D01*
X99933684Y-94143285D01*
X99876232Y-93913476D01*
X99876232Y-93741119D01*
X99933684Y-93511309D01*
X99991136Y-93396404D01*
X100106041Y-93281500D01*
X100278398Y-93224047D01*
X100393303Y-93224047D01*
X100565660Y-93281500D01*
X100623112Y-93338952D01*
X101772160Y-94430547D02*
X101082732Y-94430547D01*
X101427446Y-94430547D02*
X101427446Y-93224047D01*
X101312541Y-93396404D01*
X101197636Y-93511309D01*
X101082732Y-93568761D01*
D16*
X102604142Y-94459428D02*
X102261285Y-94459428D01*
X102432714Y-94459428D02*
X102432714Y-93859428D01*
X102375571Y-93945142D01*
X102318428Y-94002285D01*
X102261285Y-94030857D01*
X102975571Y-93859428D02*
X103032714Y-93859428D01*
X103089857Y-93888000D01*
X103118428Y-93916571D01*
X103147000Y-93973714D01*
X103175571Y-94088000D01*
X103175571Y-94230857D01*
X103147000Y-94345142D01*
X103118428Y-94402285D01*
X103089857Y-94430857D01*
X103032714Y-94459428D01*
X102975571Y-94459428D01*
X102918428Y-94430857D01*
X102889857Y-94402285D01*
X102861285Y-94345142D01*
X102832714Y-94230857D01*
X102832714Y-94088000D01*
X102861285Y-93973714D01*
X102889857Y-93916571D01*
X102918428Y-93888000D01*
X102975571Y-93859428D01*
X103547000Y-93859428D02*
X103604142Y-93859428D01*
X103661285Y-93888000D01*
X103689857Y-93916571D01*
X103718428Y-93973714D01*
X103747000Y-94088000D01*
X103747000Y-94230857D01*
X103718428Y-94345142D01*
X103689857Y-94402285D01*
X103661285Y-94430857D01*
X103604142Y-94459428D01*
X103547000Y-94459428D01*
X103489857Y-94430857D01*
X103461285Y-94402285D01*
X103432714Y-94345142D01*
X103404142Y-94230857D01*
X103404142Y-94088000D01*
X103432714Y-93973714D01*
X103461285Y-93916571D01*
X103489857Y-93888000D01*
X103547000Y-93859428D01*
X104004142Y-94059428D02*
X104004142Y-94459428D01*
X104004142Y-94116571D02*
X104032714Y-94088000D01*
X104089857Y-94059428D01*
X104175571Y-94059428D01*
X104232714Y-94088000D01*
X104261285Y-94145142D01*
X104261285Y-94459428D01*
X104461285Y-94059428D02*
X104689857Y-94059428D01*
X104547000Y-94459428D02*
X104547000Y-93945142D01*
X104575571Y-93888000D01*
X104632714Y-93859428D01*
X104689857Y-93859428D01*
%TO.C,C2*%
D15*
X144861642Y-105624887D02*
X144919095Y-105682339D01*
X144976547Y-105854696D01*
X144976547Y-105969601D01*
X144919095Y-106141958D01*
X144804190Y-106256863D01*
X144689285Y-106314315D01*
X144459476Y-106371767D01*
X144287119Y-106371767D01*
X144057309Y-106314315D01*
X143942404Y-106256863D01*
X143827500Y-106141958D01*
X143770047Y-105969601D01*
X143770047Y-105854696D01*
X143827500Y-105682339D01*
X143884952Y-105624887D01*
X143884952Y-105165267D02*
X143827500Y-105107815D01*
X143770047Y-104992910D01*
X143770047Y-104705648D01*
X143827500Y-104590744D01*
X143884952Y-104533291D01*
X143999857Y-104475839D01*
X144114761Y-104475839D01*
X144287119Y-104533291D01*
X144976547Y-105222720D01*
X144976547Y-104475839D01*
D16*
X145005428Y-103643857D02*
X145005428Y-103986714D01*
X145005428Y-103815285D02*
X144405428Y-103815285D01*
X144491142Y-103872428D01*
X144548285Y-103929571D01*
X144576857Y-103986714D01*
X144405428Y-103272428D02*
X144405428Y-103215285D01*
X144434000Y-103158142D01*
X144462571Y-103129571D01*
X144519714Y-103101000D01*
X144634000Y-103072428D01*
X144776857Y-103072428D01*
X144891142Y-103101000D01*
X144948285Y-103129571D01*
X144976857Y-103158142D01*
X145005428Y-103215285D01*
X145005428Y-103272428D01*
X144976857Y-103329571D01*
X144948285Y-103358142D01*
X144891142Y-103386714D01*
X144776857Y-103415285D01*
X144634000Y-103415285D01*
X144519714Y-103386714D01*
X144462571Y-103358142D01*
X144434000Y-103329571D01*
X144405428Y-103272428D01*
X144405428Y-102701000D02*
X144405428Y-102643857D01*
X144434000Y-102586714D01*
X144462571Y-102558142D01*
X144519714Y-102529571D01*
X144634000Y-102501000D01*
X144776857Y-102501000D01*
X144891142Y-102529571D01*
X144948285Y-102558142D01*
X144976857Y-102586714D01*
X145005428Y-102643857D01*
X145005428Y-102701000D01*
X144976857Y-102758142D01*
X144948285Y-102786714D01*
X144891142Y-102815285D01*
X144776857Y-102843857D01*
X144634000Y-102843857D01*
X144519714Y-102815285D01*
X144462571Y-102786714D01*
X144434000Y-102758142D01*
X144405428Y-102701000D01*
X144605428Y-102243857D02*
X145005428Y-102243857D01*
X144662571Y-102243857D02*
X144634000Y-102215285D01*
X144605428Y-102158142D01*
X144605428Y-102072428D01*
X144634000Y-102015285D01*
X144691142Y-101986714D01*
X145005428Y-101986714D01*
X144691142Y-101501000D02*
X144691142Y-101701000D01*
X145005428Y-101701000D02*
X144405428Y-101701000D01*
X144405428Y-101415285D01*
%TO.C,C3*%
D15*
X197693642Y-97242887D02*
X197751095Y-97300339D01*
X197808547Y-97472696D01*
X197808547Y-97587601D01*
X197751095Y-97759958D01*
X197636190Y-97874863D01*
X197521285Y-97932315D01*
X197291476Y-97989767D01*
X197119119Y-97989767D01*
X196889309Y-97932315D01*
X196774404Y-97874863D01*
X196659500Y-97759958D01*
X196602047Y-97587601D01*
X196602047Y-97472696D01*
X196659500Y-97300339D01*
X196716952Y-97242887D01*
X196602047Y-96840720D02*
X196602047Y-96093839D01*
X197061666Y-96496006D01*
X197061666Y-96323648D01*
X197119119Y-96208744D01*
X197176571Y-96151291D01*
X197291476Y-96093839D01*
X197578738Y-96093839D01*
X197693642Y-96151291D01*
X197751095Y-96208744D01*
X197808547Y-96323648D01*
X197808547Y-96668363D01*
X197751095Y-96783267D01*
X197693642Y-96840720D01*
D16*
X199107428Y-97547857D02*
X199107428Y-97890714D01*
X199107428Y-97719285D02*
X198507428Y-97719285D01*
X198593142Y-97776428D01*
X198650285Y-97833571D01*
X198678857Y-97890714D01*
X198507428Y-97176428D02*
X198507428Y-97119285D01*
X198536000Y-97062142D01*
X198564571Y-97033571D01*
X198621714Y-97005000D01*
X198736000Y-96976428D01*
X198878857Y-96976428D01*
X198993142Y-97005000D01*
X199050285Y-97033571D01*
X199078857Y-97062142D01*
X199107428Y-97119285D01*
X199107428Y-97176428D01*
X199078857Y-97233571D01*
X199050285Y-97262142D01*
X198993142Y-97290714D01*
X198878857Y-97319285D01*
X198736000Y-97319285D01*
X198621714Y-97290714D01*
X198564571Y-97262142D01*
X198536000Y-97233571D01*
X198507428Y-97176428D01*
X198507428Y-96605000D02*
X198507428Y-96547857D01*
X198536000Y-96490714D01*
X198564571Y-96462142D01*
X198621714Y-96433571D01*
X198736000Y-96405000D01*
X198878857Y-96405000D01*
X198993142Y-96433571D01*
X199050285Y-96462142D01*
X199078857Y-96490714D01*
X199107428Y-96547857D01*
X199107428Y-96605000D01*
X199078857Y-96662142D01*
X199050285Y-96690714D01*
X198993142Y-96719285D01*
X198878857Y-96747857D01*
X198736000Y-96747857D01*
X198621714Y-96719285D01*
X198564571Y-96690714D01*
X198536000Y-96662142D01*
X198507428Y-96605000D01*
X198707428Y-96147857D02*
X199107428Y-96147857D01*
X198764571Y-96147857D02*
X198736000Y-96119285D01*
X198707428Y-96062142D01*
X198707428Y-95976428D01*
X198736000Y-95919285D01*
X198793142Y-95890714D01*
X199107428Y-95890714D01*
X198793142Y-95405000D02*
X198793142Y-95605000D01*
X199107428Y-95605000D02*
X198507428Y-95605000D01*
X198507428Y-95319285D01*
%TD*%
M02*
