G04 #@! TF.GenerationSoftware,KiCad,Pcbnew,5.1.2*
G04 #@! TF.CreationDate,2020-10-23T15:37:40+02:00*
G04 #@! TF.ProjectId,RC2014 Floppy WD37C65,52433230-3134-4204-966c-6f7070792057,rev?*
G04 #@! TF.SameCoordinates,Original*
G04 #@! TF.FileFunction,Legend,Top*
G04 #@! TF.FilePolarity,Positive*
%FSLAX46Y46*%
G04 Gerber Fmt 4.6, Leading zero omitted, Abs format (unit mm)*
G04 Created by KiCad (PCBNEW 5.1.2) date 2020-10-23 15:37:40*
%MOMM*%
%LPD*%
G04 APERTURE LIST*
%ADD10C,0.065024*%
%ADD11C,0.142240*%
%ADD12C,0.152400*%
%ADD13C,0.254000*%
%ADD14C,0.304800*%
%ADD15C,0.100000*%
%ADD16C,0.127000*%
%ADD17C,0.120650*%
%ADD18C,0.099060*%
%ADD19C,0.118872*%
G04 APERTURE END LIST*
D10*
X119954765Y-99847158D02*
X119954765Y-99589771D01*
X120359230Y-99479462D02*
X120359230Y-99847158D01*
X119587070Y-99847158D01*
X119587070Y-99479462D01*
X119587070Y-99001459D02*
X119587070Y-98927920D01*
X119623840Y-98854380D01*
X119660609Y-98817611D01*
X119734148Y-98780841D01*
X119881226Y-98744072D01*
X120065074Y-98744072D01*
X120212152Y-98780841D01*
X120285691Y-98817611D01*
X120322460Y-98854380D01*
X120359230Y-98927920D01*
X120359230Y-99001459D01*
X120322460Y-99074998D01*
X120285691Y-99111767D01*
X120212152Y-99148537D01*
X120065074Y-99185306D01*
X119881226Y-99185306D01*
X119734148Y-99148537D01*
X119660609Y-99111767D01*
X119623840Y-99074998D01*
X119587070Y-99001459D01*
X117745691Y-99408652D02*
X117782460Y-99445422D01*
X117819230Y-99555730D01*
X117819230Y-99629269D01*
X117782460Y-99739578D01*
X117708921Y-99813117D01*
X117635382Y-99849886D01*
X117488304Y-99886656D01*
X117377996Y-99886656D01*
X117230918Y-99849886D01*
X117157379Y-99813117D01*
X117083840Y-99739578D01*
X117047070Y-99629269D01*
X117047070Y-99555730D01*
X117083840Y-99445422D01*
X117120609Y-99408652D01*
X117047070Y-98930648D02*
X117047070Y-98857109D01*
X117083840Y-98783570D01*
X117120609Y-98746801D01*
X117194148Y-98710031D01*
X117341226Y-98673262D01*
X117525074Y-98673262D01*
X117672152Y-98710031D01*
X117745691Y-98746801D01*
X117782460Y-98783570D01*
X117819230Y-98857109D01*
X117819230Y-98930648D01*
X117782460Y-99004187D01*
X117745691Y-99040957D01*
X117672152Y-99077726D01*
X117525074Y-99114496D01*
X117341226Y-99114496D01*
X117194148Y-99077726D01*
X117120609Y-99040957D01*
X117083840Y-99004187D01*
X117047070Y-98930648D01*
X115058613Y-99886656D02*
X115058613Y-99518961D01*
X115279230Y-99960195D02*
X114507070Y-99702808D01*
X115279230Y-99445422D01*
X114507070Y-99040957D02*
X114507070Y-98967418D01*
X114543840Y-98893879D01*
X114580609Y-98857109D01*
X114654148Y-98820340D01*
X114801226Y-98783570D01*
X114985074Y-98783570D01*
X115132152Y-98820340D01*
X115205691Y-98857109D01*
X115242460Y-98893879D01*
X115279230Y-98967418D01*
X115279230Y-99040957D01*
X115242460Y-99114496D01*
X115205691Y-99151265D01*
X115132152Y-99188035D01*
X114985074Y-99224804D01*
X114801226Y-99224804D01*
X114654148Y-99188035D01*
X114580609Y-99151265D01*
X114543840Y-99114496D01*
X114507070Y-99040957D01*
X112297996Y-99739578D02*
X112261226Y-99813117D01*
X112224457Y-99849886D01*
X112150918Y-99886656D01*
X112114148Y-99886656D01*
X112040609Y-99849886D01*
X112003840Y-99813117D01*
X111967070Y-99739578D01*
X111967070Y-99592500D01*
X112003840Y-99518961D01*
X112040609Y-99482191D01*
X112114148Y-99445422D01*
X112150918Y-99445422D01*
X112224457Y-99482191D01*
X112261226Y-99518961D01*
X112297996Y-99592500D01*
X112297996Y-99739578D01*
X112334765Y-99813117D01*
X112371535Y-99849886D01*
X112445074Y-99886656D01*
X112592152Y-99886656D01*
X112665691Y-99849886D01*
X112702460Y-99813117D01*
X112739230Y-99739578D01*
X112739230Y-99592500D01*
X112702460Y-99518961D01*
X112665691Y-99482191D01*
X112592152Y-99445422D01*
X112445074Y-99445422D01*
X112371535Y-99482191D01*
X112334765Y-99518961D01*
X112297996Y-99592500D01*
X111967070Y-98967418D02*
X111967070Y-98893879D01*
X112003840Y-98820340D01*
X112040609Y-98783570D01*
X112114148Y-98746801D01*
X112261226Y-98710031D01*
X112445074Y-98710031D01*
X112592152Y-98746801D01*
X112665691Y-98783570D01*
X112702460Y-98820340D01*
X112739230Y-98893879D01*
X112739230Y-98967418D01*
X112702460Y-99040957D01*
X112665691Y-99077726D01*
X112592152Y-99114496D01*
X112445074Y-99151265D01*
X112261226Y-99151265D01*
X112114148Y-99114496D01*
X112040609Y-99077726D01*
X112003840Y-99040957D01*
X111967070Y-98967418D01*
X109427070Y-99518961D02*
X109427070Y-99666039D01*
X109463840Y-99739578D01*
X109500609Y-99776347D01*
X109610918Y-99849886D01*
X109757996Y-99886656D01*
X110052152Y-99886656D01*
X110125691Y-99849886D01*
X110162460Y-99813117D01*
X110199230Y-99739578D01*
X110199230Y-99592500D01*
X110162460Y-99518961D01*
X110125691Y-99482191D01*
X110052152Y-99445422D01*
X109868304Y-99445422D01*
X109794765Y-99482191D01*
X109757996Y-99518961D01*
X109721226Y-99592500D01*
X109721226Y-99739578D01*
X109757996Y-99813117D01*
X109794765Y-99849886D01*
X109868304Y-99886656D01*
X109427070Y-98967418D02*
X109427070Y-98893879D01*
X109463840Y-98820340D01*
X109500609Y-98783570D01*
X109574148Y-98746801D01*
X109721226Y-98710031D01*
X109905074Y-98710031D01*
X110052152Y-98746801D01*
X110125691Y-98783570D01*
X110162460Y-98820340D01*
X110199230Y-98893879D01*
X110199230Y-98967418D01*
X110162460Y-99040957D01*
X110125691Y-99077726D01*
X110052152Y-99114496D01*
X109905074Y-99151265D01*
X109721226Y-99151265D01*
X109574148Y-99114496D01*
X109500609Y-99077726D01*
X109463840Y-99040957D01*
X109427070Y-98967418D01*
X107144457Y-99518961D02*
X107659230Y-99518961D01*
X106850300Y-99702808D02*
X107401843Y-99886656D01*
X107401843Y-99408652D01*
X106887070Y-98967418D02*
X106887070Y-98893879D01*
X106923840Y-98820340D01*
X106960609Y-98783570D01*
X107034148Y-98746801D01*
X107181226Y-98710031D01*
X107365074Y-98710031D01*
X107512152Y-98746801D01*
X107585691Y-98783570D01*
X107622460Y-98820340D01*
X107659230Y-98893879D01*
X107659230Y-98967418D01*
X107622460Y-99040957D01*
X107585691Y-99077726D01*
X107512152Y-99114496D01*
X107365074Y-99151265D01*
X107181226Y-99151265D01*
X107034148Y-99114496D01*
X106960609Y-99077726D01*
X106923840Y-99040957D01*
X106887070Y-98967418D01*
X104420609Y-99886656D02*
X104383840Y-99849886D01*
X104347070Y-99776347D01*
X104347070Y-99592500D01*
X104383840Y-99518961D01*
X104420609Y-99482191D01*
X104494148Y-99445422D01*
X104567687Y-99445422D01*
X104677996Y-99482191D01*
X105119230Y-99923425D01*
X105119230Y-99445422D01*
X104347070Y-98967418D02*
X104347070Y-98893879D01*
X104383840Y-98820340D01*
X104420609Y-98783570D01*
X104494148Y-98746801D01*
X104641226Y-98710031D01*
X104825074Y-98710031D01*
X104972152Y-98746801D01*
X105045691Y-98783570D01*
X105082460Y-98820340D01*
X105119230Y-98893879D01*
X105119230Y-98967418D01*
X105082460Y-99040957D01*
X105045691Y-99077726D01*
X104972152Y-99114496D01*
X104825074Y-99151265D01*
X104641226Y-99151265D01*
X104494148Y-99114496D01*
X104420609Y-99077726D01*
X104383840Y-99040957D01*
X104347070Y-98967418D01*
X101807070Y-99702808D02*
X101807070Y-99629269D01*
X101843840Y-99555730D01*
X101880609Y-99518961D01*
X101954148Y-99482191D01*
X102101226Y-99445422D01*
X102285074Y-99445422D01*
X102432152Y-99482191D01*
X102505691Y-99518961D01*
X102542460Y-99555730D01*
X102579230Y-99629269D01*
X102579230Y-99702808D01*
X102542460Y-99776347D01*
X102505691Y-99813117D01*
X102432152Y-99849886D01*
X102285074Y-99886656D01*
X102101226Y-99886656D01*
X101954148Y-99849886D01*
X101880609Y-99813117D01*
X101843840Y-99776347D01*
X101807070Y-99702808D01*
X101807070Y-98967418D02*
X101807070Y-98893879D01*
X101843840Y-98820340D01*
X101880609Y-98783570D01*
X101954148Y-98746801D01*
X102101226Y-98710031D01*
X102285074Y-98710031D01*
X102432152Y-98746801D01*
X102505691Y-98783570D01*
X102542460Y-98820340D01*
X102579230Y-98893879D01*
X102579230Y-98967418D01*
X102542460Y-99040957D01*
X102505691Y-99077726D01*
X102432152Y-99114496D01*
X102285074Y-99151265D01*
X102101226Y-99151265D01*
X101954148Y-99114496D01*
X101880609Y-99077726D01*
X101843840Y-99040957D01*
X101807070Y-98967418D01*
X98769230Y-118899886D02*
X97997070Y-118899886D01*
X97997070Y-118605730D01*
X98033840Y-118532191D01*
X98070609Y-118495422D01*
X98144148Y-118458652D01*
X98254457Y-118458652D01*
X98327996Y-118495422D01*
X98364765Y-118532191D01*
X98401535Y-118605730D01*
X98401535Y-118899886D01*
X98769230Y-118127726D02*
X97997070Y-118127726D01*
X98769230Y-117760031D02*
X97997070Y-117760031D01*
X98769230Y-117318797D01*
X97997070Y-117318797D01*
X98769230Y-116546637D02*
X98769230Y-116987871D01*
X98769230Y-116767254D02*
X97997070Y-116767254D01*
X98107379Y-116840793D01*
X98180918Y-116914332D01*
X98217687Y-116987871D01*
D11*
X153444856Y-103157100D02*
X153766589Y-104283166D01*
X154088322Y-103478833D01*
X154410056Y-104283166D01*
X154731789Y-103157100D01*
X155214389Y-103157100D02*
X155536122Y-104283166D01*
X155857856Y-103478833D01*
X156179589Y-104283166D01*
X156501322Y-103157100D01*
X156983922Y-103157100D02*
X157305656Y-104283166D01*
X157627389Y-103478833D01*
X157949122Y-104283166D01*
X158270856Y-103157100D01*
X158914322Y-104122300D02*
X158994756Y-104202733D01*
X158914322Y-104283166D01*
X158833889Y-104202733D01*
X158914322Y-104122300D01*
X158914322Y-104283166D01*
X159638222Y-104202733D02*
X159799089Y-104283166D01*
X160120822Y-104283166D01*
X160281689Y-104202733D01*
X160362122Y-104041866D01*
X160362122Y-103961433D01*
X160281689Y-103800566D01*
X160120822Y-103720133D01*
X159879522Y-103720133D01*
X159718656Y-103639700D01*
X159638222Y-103478833D01*
X159638222Y-103398400D01*
X159718656Y-103237533D01*
X159879522Y-103157100D01*
X160120822Y-103157100D01*
X160281689Y-103237533D01*
X161086022Y-104283166D02*
X161086022Y-103157100D01*
X161086022Y-103317966D02*
X161166456Y-103237533D01*
X161327322Y-103157100D01*
X161568622Y-103157100D01*
X161729489Y-103237533D01*
X161809922Y-103398400D01*
X161809922Y-104283166D01*
X161809922Y-103398400D02*
X161890356Y-103237533D01*
X162051222Y-103157100D01*
X162292522Y-103157100D01*
X162453389Y-103237533D01*
X162533822Y-103398400D01*
X162533822Y-104283166D01*
X163338156Y-104283166D02*
X163338156Y-102594066D01*
X163338156Y-103237533D02*
X163499022Y-103157100D01*
X163820756Y-103157100D01*
X163981622Y-103237533D01*
X164062056Y-103317966D01*
X164142489Y-103478833D01*
X164142489Y-103961433D01*
X164062056Y-104122300D01*
X163981622Y-104202733D01*
X163820756Y-104283166D01*
X163499022Y-104283166D01*
X163338156Y-104202733D01*
X165590289Y-104283166D02*
X165590289Y-103398400D01*
X165509856Y-103237533D01*
X165348989Y-103157100D01*
X165027256Y-103157100D01*
X164866389Y-103237533D01*
X165590289Y-104202733D02*
X165429422Y-104283166D01*
X165027256Y-104283166D01*
X164866389Y-104202733D01*
X164785956Y-104041866D01*
X164785956Y-103881000D01*
X164866389Y-103720133D01*
X165027256Y-103639700D01*
X165429422Y-103639700D01*
X165590289Y-103559266D01*
X166394622Y-104283166D02*
X166394622Y-102594066D01*
X166555489Y-103639700D02*
X167038089Y-104283166D01*
X167038089Y-103157100D02*
X166394622Y-103800566D01*
X168405456Y-104202733D02*
X168244589Y-104283166D01*
X167922856Y-104283166D01*
X167761989Y-104202733D01*
X167681556Y-104041866D01*
X167681556Y-103398400D01*
X167761989Y-103237533D01*
X167922856Y-103157100D01*
X168244589Y-103157100D01*
X168405456Y-103237533D01*
X168485889Y-103398400D01*
X168485889Y-103559266D01*
X167681556Y-103720133D01*
X169209789Y-104283166D02*
X169209789Y-103157100D01*
X169209789Y-103478833D02*
X169290222Y-103317966D01*
X169370656Y-103237533D01*
X169531522Y-103157100D01*
X169692389Y-103157100D01*
X170255422Y-104122300D02*
X170335856Y-104202733D01*
X170255422Y-104283166D01*
X170174989Y-104202733D01*
X170255422Y-104122300D01*
X170255422Y-104283166D01*
X171783656Y-104202733D02*
X171622789Y-104283166D01*
X171301056Y-104283166D01*
X171140189Y-104202733D01*
X171059756Y-104122300D01*
X170979322Y-103961433D01*
X170979322Y-103478833D01*
X171059756Y-103317966D01*
X171140189Y-103237533D01*
X171301056Y-103157100D01*
X171622789Y-103157100D01*
X171783656Y-103237533D01*
X172748856Y-104283166D02*
X172587989Y-104202733D01*
X172507556Y-104122300D01*
X172427122Y-103961433D01*
X172427122Y-103478833D01*
X172507556Y-103317966D01*
X172587989Y-103237533D01*
X172748856Y-103157100D01*
X172990156Y-103157100D01*
X173151022Y-103237533D01*
X173231456Y-103317966D01*
X173311889Y-103478833D01*
X173311889Y-103961433D01*
X173231456Y-104122300D01*
X173151022Y-104202733D01*
X172990156Y-104283166D01*
X172748856Y-104283166D01*
X174035789Y-104283166D02*
X174035789Y-103157100D01*
X174035789Y-103317966D02*
X174116222Y-103237533D01*
X174277089Y-103157100D01*
X174518389Y-103157100D01*
X174679256Y-103237533D01*
X174759689Y-103398400D01*
X174759689Y-104283166D01*
X174759689Y-103398400D02*
X174840122Y-103237533D01*
X175000989Y-103157100D01*
X175242289Y-103157100D01*
X175403156Y-103237533D01*
X175483589Y-103398400D01*
X175483589Y-104283166D01*
D12*
X104216100Y-100553600D02*
X105486100Y-100553600D01*
X106121100Y-101188600D02*
X105486100Y-100553600D01*
X102946100Y-100553600D02*
X103581100Y-101188600D01*
X101676100Y-100553600D02*
X102946100Y-100553600D01*
X101041100Y-101188600D02*
X101676100Y-100553600D01*
X103581100Y-101188600D02*
X104216100Y-100553600D01*
X101041100Y-104998600D02*
X101041100Y-101188600D01*
X105486100Y-105633600D02*
X106121100Y-104998600D01*
X101676100Y-105633600D02*
X101041100Y-104998600D01*
X102946100Y-105633600D02*
X101676100Y-105633600D01*
X103581100Y-104998600D02*
X102946100Y-105633600D01*
X104216100Y-105633600D02*
X103581100Y-104998600D01*
X105486100Y-105633600D02*
X104216100Y-105633600D01*
X108026100Y-100553600D02*
X108661100Y-101188600D01*
X106756100Y-100553600D02*
X108026100Y-100553600D01*
X106121100Y-101188600D02*
X106756100Y-100553600D01*
X111836100Y-100553600D02*
X113106100Y-100553600D01*
X113741100Y-101188600D02*
X113106100Y-100553600D01*
X110566100Y-100553600D02*
X111201100Y-101188600D01*
X109296100Y-100553600D02*
X110566100Y-100553600D01*
X108661100Y-101188600D02*
X109296100Y-100553600D01*
X111201100Y-101188600D02*
X111836100Y-100553600D01*
X115646100Y-100553600D02*
X116281100Y-101188600D01*
X114376100Y-100553600D02*
X115646100Y-100553600D01*
X113741100Y-101188600D02*
X114376100Y-100553600D01*
X119456100Y-100553600D02*
X120726100Y-100553600D01*
X121361100Y-101188600D02*
X120726100Y-100553600D01*
X121361100Y-104998600D02*
X121361100Y-101188600D01*
X118186100Y-100553600D02*
X118821100Y-101188600D01*
X116916100Y-100553600D02*
X118186100Y-100553600D01*
X116281100Y-101188600D02*
X116916100Y-100553600D01*
X118821100Y-101188600D02*
X119456100Y-100553600D01*
X106756100Y-105633600D02*
X106121100Y-104998600D01*
X108026100Y-105633600D02*
X106756100Y-105633600D01*
X108661100Y-104998600D02*
X108026100Y-105633600D01*
X113106100Y-105633600D02*
X113741100Y-104998600D01*
X109296100Y-105633600D02*
X108661100Y-104998600D01*
X110566100Y-105633600D02*
X109296100Y-105633600D01*
X111201100Y-104998600D02*
X110566100Y-105633600D01*
X111836100Y-105633600D02*
X111201100Y-104998600D01*
X113106100Y-105633600D02*
X111836100Y-105633600D01*
X114376100Y-105633600D02*
X113741100Y-104998600D01*
X115646100Y-105633600D02*
X114376100Y-105633600D01*
X116281100Y-104998600D02*
X115646100Y-105633600D01*
X120726100Y-105633600D02*
X121361100Y-104998600D01*
X116916100Y-105633600D02*
X116281100Y-104998600D01*
X118186100Y-105633600D02*
X116916100Y-105633600D01*
X118821100Y-104998600D02*
X118186100Y-105633600D01*
X119456100Y-105633600D02*
X118821100Y-104998600D01*
X120726100Y-105633600D02*
X119456100Y-105633600D01*
X179781100Y-93949600D02*
X179781100Y-93822600D01*
D13*
X179781100Y-93949600D02*
X179019100Y-93949600D01*
X180543100Y-93949600D02*
X179781100Y-93949600D01*
X179781100Y-94457600D02*
X179019100Y-94457600D01*
X179781100Y-94457600D02*
X180543100Y-94457600D01*
D12*
X179781100Y-94584600D02*
X179781100Y-94457600D01*
X178511100Y-92044600D02*
G75*
G02X178765100Y-91790600I254000J0D01*
G01*
X178765100Y-96616600D02*
G75*
G02X178511100Y-96362600I0J254000D01*
G01*
X181051100Y-92044600D02*
G75*
G03X180797100Y-91790600I-254000J0D01*
G01*
X180797100Y-96616600D02*
G75*
G03X181051100Y-96362600I0J254000D01*
G01*
X180797100Y-91790600D02*
X178765100Y-91790600D01*
X180797100Y-96616600D02*
X178765100Y-96616600D01*
X178511100Y-96362600D02*
X178511100Y-92044600D01*
X181051100Y-92044600D02*
X181051100Y-96362600D01*
X99771100Y-103347600D02*
X99771100Y-103474600D01*
D13*
X99771100Y-103347600D02*
X100533100Y-103347600D01*
X99009100Y-103347600D02*
X99771100Y-103347600D01*
X99771100Y-102839600D02*
X100533100Y-102839600D01*
X99771100Y-102839600D02*
X99009100Y-102839600D01*
D12*
X99771100Y-102712600D02*
X99771100Y-102839600D01*
X101041100Y-105252600D02*
G75*
G02X100787100Y-105506600I-254000J0D01*
G01*
X100787100Y-100680600D02*
G75*
G02X101041100Y-100934600I0J-254000D01*
G01*
X98501100Y-105252600D02*
G75*
G03X98755100Y-105506600I254000J0D01*
G01*
X98755100Y-100680600D02*
G75*
G03X98501100Y-100934600I0J-254000D01*
G01*
X98755100Y-105506600D02*
X100787100Y-105506600D01*
X98755100Y-100680600D02*
X100787100Y-100680600D01*
X101041100Y-100934600D02*
X101041100Y-105252600D01*
X98501100Y-105252600D02*
X98501100Y-100934600D01*
X98501100Y-112999600D02*
G75*
G03X98501100Y-110967600I0J1016000D01*
G01*
X98501100Y-114904600D02*
X98501100Y-112999600D01*
X98501100Y-109062600D02*
X98501100Y-110967600D01*
X118821100Y-109062600D02*
X118821100Y-114904600D01*
X98501100Y-114904600D02*
X118821100Y-114904600D01*
X118821100Y-109062600D02*
X98501100Y-109062600D01*
X177241100Y-92298600D02*
X176606100Y-92933600D01*
X176606100Y-87853600D02*
X177241100Y-88488600D01*
X177241100Y-88488600D02*
X177241100Y-92298600D01*
X175336100Y-92933600D02*
X174701100Y-92298600D01*
X176606100Y-92933600D02*
X175336100Y-92933600D01*
X171526100Y-92933600D02*
X170256100Y-92933600D01*
X169621100Y-92298600D02*
X170256100Y-92933600D01*
X172796100Y-92933600D02*
X172161100Y-92298600D01*
X174066100Y-92933600D02*
X172796100Y-92933600D01*
X174701100Y-92298600D02*
X174066100Y-92933600D01*
X172161100Y-92298600D02*
X171526100Y-92933600D01*
X175336100Y-87853600D02*
X176606100Y-87853600D01*
X174701100Y-88488600D02*
X175336100Y-87853600D01*
X170256100Y-87853600D02*
X169621100Y-88488600D01*
X174066100Y-87853600D02*
X174701100Y-88488600D01*
X172796100Y-87853600D02*
X174066100Y-87853600D01*
X172161100Y-88488600D02*
X172796100Y-87853600D01*
X171526100Y-87853600D02*
X172161100Y-88488600D01*
X170256100Y-87853600D02*
X171526100Y-87853600D01*
X169621100Y-92298600D02*
X168986100Y-92933600D01*
X168986100Y-92933600D02*
X167716100Y-92933600D01*
X167716100Y-92933600D02*
X167081100Y-92298600D01*
X167081100Y-88488600D02*
X167716100Y-87853600D01*
X167716100Y-87853600D02*
X168986100Y-87853600D01*
X168986100Y-87853600D02*
X169621100Y-88488600D01*
X165176100Y-92933600D02*
X164541100Y-92298600D01*
X166446100Y-92933600D02*
X165176100Y-92933600D01*
X167081100Y-92298600D02*
X166446100Y-92933600D01*
X161366100Y-92933600D02*
X160096100Y-92933600D01*
X159461100Y-92298600D02*
X160096100Y-92933600D01*
X162636100Y-92933600D02*
X162001100Y-92298600D01*
X163906100Y-92933600D02*
X162636100Y-92933600D01*
X164541100Y-92298600D02*
X163906100Y-92933600D01*
X162001100Y-92298600D02*
X161366100Y-92933600D01*
X157556100Y-92933600D02*
X156921100Y-92298600D01*
X158826100Y-92933600D02*
X157556100Y-92933600D01*
X159461100Y-92298600D02*
X158826100Y-92933600D01*
X153746100Y-92933600D02*
X152476100Y-92933600D01*
X151841100Y-92298600D02*
X152476100Y-92933600D01*
X155016100Y-92933600D02*
X154381100Y-92298600D01*
X156286100Y-92933600D02*
X155016100Y-92933600D01*
X156921100Y-92298600D02*
X156286100Y-92933600D01*
X154381100Y-92298600D02*
X153746100Y-92933600D01*
X166446100Y-87853600D02*
X167081100Y-88488600D01*
X165176100Y-87853600D02*
X166446100Y-87853600D01*
X164541100Y-88488600D02*
X165176100Y-87853600D01*
X160096100Y-87853600D02*
X159461100Y-88488600D01*
X163906100Y-87853600D02*
X164541100Y-88488600D01*
X162636100Y-87853600D02*
X163906100Y-87853600D01*
X162001100Y-88488600D02*
X162636100Y-87853600D01*
X161366100Y-87853600D02*
X162001100Y-88488600D01*
X160096100Y-87853600D02*
X161366100Y-87853600D01*
X158826100Y-87853600D02*
X159461100Y-88488600D01*
X157556100Y-87853600D02*
X158826100Y-87853600D01*
X156921100Y-88488600D02*
X157556100Y-87853600D01*
X152476100Y-87853600D02*
X151841100Y-88488600D01*
X156286100Y-87853600D02*
X156921100Y-88488600D01*
X155016100Y-87853600D02*
X156286100Y-87853600D01*
X154381100Y-88488600D02*
X155016100Y-87853600D01*
X153746100Y-87853600D02*
X154381100Y-88488600D01*
X152476100Y-87853600D02*
X153746100Y-87853600D01*
X151841100Y-92298600D02*
X151206100Y-92933600D01*
X151206100Y-92933600D02*
X149936100Y-92933600D01*
X149936100Y-92933600D02*
X149301100Y-92298600D01*
X149301100Y-88488600D02*
X149936100Y-87853600D01*
X149936100Y-87853600D02*
X151206100Y-87853600D01*
X151206100Y-87853600D02*
X151841100Y-88488600D01*
X147396100Y-92933600D02*
X146761100Y-92298600D01*
X148666100Y-92933600D02*
X147396100Y-92933600D01*
X149301100Y-92298600D02*
X148666100Y-92933600D01*
X143586100Y-92933600D02*
X142316100Y-92933600D01*
X141681100Y-92298600D02*
X142316100Y-92933600D01*
X144856100Y-92933600D02*
X144221100Y-92298600D01*
X146126100Y-92933600D02*
X144856100Y-92933600D01*
X146761100Y-92298600D02*
X146126100Y-92933600D01*
X144221100Y-92298600D02*
X143586100Y-92933600D01*
X139776100Y-92933600D02*
X139141100Y-92298600D01*
X141046100Y-92933600D02*
X139776100Y-92933600D01*
X141681100Y-92298600D02*
X141046100Y-92933600D01*
X135966100Y-92933600D02*
X134696100Y-92933600D01*
X134061100Y-92298600D02*
X134696100Y-92933600D01*
X134061100Y-88488600D02*
X134061100Y-92298600D01*
X137236100Y-92933600D02*
X136601100Y-92298600D01*
X138506100Y-92933600D02*
X137236100Y-92933600D01*
X139141100Y-92298600D02*
X138506100Y-92933600D01*
X136601100Y-92298600D02*
X135966100Y-92933600D01*
X148666100Y-87853600D02*
X149301100Y-88488600D01*
X147396100Y-87853600D02*
X148666100Y-87853600D01*
X146761100Y-88488600D02*
X147396100Y-87853600D01*
X142316100Y-87853600D02*
X141681100Y-88488600D01*
X146126100Y-87853600D02*
X146761100Y-88488600D01*
X144856100Y-87853600D02*
X146126100Y-87853600D01*
X144221100Y-88488600D02*
X144856100Y-87853600D01*
X143586100Y-87853600D02*
X144221100Y-88488600D01*
X142316100Y-87853600D02*
X143586100Y-87853600D01*
X141046100Y-87853600D02*
X141681100Y-88488600D01*
X139776100Y-87853600D02*
X141046100Y-87853600D01*
X139141100Y-88488600D02*
X139776100Y-87853600D01*
X134696100Y-87853600D02*
X134061100Y-88488600D01*
X138506100Y-87853600D02*
X139141100Y-88488600D01*
X137236100Y-87853600D02*
X138506100Y-87853600D01*
X136601100Y-88488600D02*
X137236100Y-87853600D01*
X135966100Y-87853600D02*
X136601100Y-88488600D01*
X134696100Y-87853600D02*
X135966100Y-87853600D01*
D14*
X191541300Y-106903600D02*
X191541300Y-108173600D01*
D12*
X191541300Y-106903600D02*
X189941100Y-106903600D01*
D14*
X193420900Y-106903600D02*
X193420900Y-108173600D01*
D12*
X193420900Y-106903600D02*
X195021100Y-106903600D01*
D14*
X191541300Y-105633600D02*
X191541300Y-106903600D01*
X193420900Y-105633600D02*
X193420900Y-106903600D01*
X192785900Y-105633600D02*
X192150900Y-105633600D01*
X192785900Y-108173600D02*
X192785900Y-105633600D01*
X192150900Y-108173600D02*
X192785900Y-108173600D01*
X192150900Y-105633600D02*
X192150900Y-108173600D01*
D12*
X187147100Y-116682600D02*
G75*
G02X186512100Y-116047600I0J635000D01*
G01*
D13*
X187147100Y-104109600D02*
G75*
G03X185877100Y-105379600I0J-1270000D01*
G01*
D12*
X187147100Y-104744600D02*
G75*
G03X186512100Y-105379600I0J-635000D01*
G01*
D13*
X199085100Y-105379600D02*
G75*
G03X197815100Y-104109600I-1270000J0D01*
G01*
D12*
X198450100Y-105379600D02*
G75*
G03X197815100Y-104744600I-635000J0D01*
G01*
X198450100Y-116047600D02*
G75*
G02X197815100Y-116682600I-635000J0D01*
G01*
D13*
X199085100Y-116047600D02*
G75*
G02X197815100Y-117317600I-1270000J0D01*
G01*
D12*
X186512100Y-105379600D02*
X186512100Y-116047600D01*
X197815100Y-104744600D02*
X187147100Y-104744600D01*
X198450100Y-116047600D02*
X198450100Y-105379600D01*
X187147100Y-116682600D02*
X197815100Y-116682600D01*
D13*
X185877100Y-117317600D02*
X185877100Y-105379600D01*
X197815100Y-104109600D02*
X187147100Y-104109600D01*
X199085100Y-116047600D02*
X199085100Y-105379600D01*
X185877100Y-117317600D02*
X197815100Y-117317600D01*
D12*
X125425100Y-99283600D02*
X125552100Y-99283600D01*
D13*
X125425100Y-99283600D02*
X125425100Y-98521600D01*
X125425100Y-100045600D02*
X125425100Y-99283600D01*
X124917100Y-99283600D02*
X124917100Y-98521600D01*
X124917100Y-99283600D02*
X124917100Y-100045600D01*
D12*
X124790100Y-99283600D02*
X124917100Y-99283600D01*
X127330100Y-98013600D02*
G75*
G02X127584100Y-98267600I0J-254000D01*
G01*
X122758100Y-98267600D02*
G75*
G02X123012100Y-98013600I254000J0D01*
G01*
X127330100Y-100553600D02*
G75*
G03X127584100Y-100299600I0J254000D01*
G01*
X122758100Y-100299600D02*
G75*
G03X123012100Y-100553600I254000J0D01*
G01*
X127584100Y-100299600D02*
X127584100Y-98267600D01*
X122758100Y-100299600D02*
X122758100Y-98267600D01*
X123012100Y-98013600D02*
X127330100Y-98013600D01*
X127330100Y-100553600D02*
X123012100Y-100553600D01*
X183591100Y-107919600D02*
X183591100Y-107792600D01*
D13*
X183591100Y-107919600D02*
X182829100Y-107919600D01*
X184353100Y-107919600D02*
X183591100Y-107919600D01*
X183591100Y-108427600D02*
X182829100Y-108427600D01*
X183591100Y-108427600D02*
X184353100Y-108427600D01*
D12*
X183591100Y-108554600D02*
X183591100Y-108427600D01*
X182321100Y-106014600D02*
G75*
G02X182575100Y-105760600I254000J0D01*
G01*
X182575100Y-110586600D02*
G75*
G02X182321100Y-110332600I0J254000D01*
G01*
X184861100Y-106014600D02*
G75*
G03X184607100Y-105760600I-254000J0D01*
G01*
X184607100Y-110586600D02*
G75*
G03X184861100Y-110332600I0J254000D01*
G01*
X184607100Y-105760600D02*
X182575100Y-105760600D01*
X184607100Y-110586600D02*
X182575100Y-110586600D01*
X182321100Y-110332600D02*
X182321100Y-106014600D01*
X184861100Y-106014600D02*
X184861100Y-110332600D01*
X127711100Y-108046600D02*
G75*
G03X127711100Y-106014600I0J1016000D01*
G01*
X127711100Y-113634600D02*
X127711100Y-108046600D01*
X127711100Y-100172600D02*
X127711100Y-106014600D01*
X178511100Y-100172600D02*
X178511100Y-113634600D01*
X127711100Y-113634600D02*
X178511100Y-113634600D01*
X178511100Y-100172600D02*
X127711100Y-100172600D01*
X98501100Y-93949600D02*
G75*
G03X98501100Y-91917600I0J1016000D01*
G01*
X98501100Y-95854600D02*
X98501100Y-93949600D01*
X98501100Y-90012600D02*
X98501100Y-91917600D01*
X118821100Y-90012600D02*
X118821100Y-95854600D01*
X98501100Y-95854600D02*
X118821100Y-95854600D01*
X118821100Y-90012600D02*
X98501100Y-90012600D01*
X181051100Y-95219600D02*
G75*
G03X181051100Y-93187600I0J1016000D01*
G01*
X181051100Y-97124600D02*
X181051100Y-95219600D01*
X181051100Y-91282600D02*
X181051100Y-93187600D01*
X198831100Y-91282600D02*
X198831100Y-97124600D01*
X181051100Y-97124600D02*
X198831100Y-97124600D01*
X198831100Y-91282600D02*
X181051100Y-91282600D01*
D15*
G36*
X138252100Y-116809600D02*
G01*
X137871100Y-116809600D01*
X137871100Y-117317600D01*
X138252100Y-117317600D01*
X138252100Y-116809600D01*
G37*
G36*
X132791100Y-116809600D02*
G01*
X132410100Y-116809600D01*
X132410100Y-117317600D01*
X132791100Y-117317600D01*
X132791100Y-116809600D01*
G37*
D12*
X132791100Y-116301600D02*
X132791100Y-117825600D01*
X133045100Y-116047600D02*
X133426100Y-116047600D01*
X133045100Y-118079600D02*
X133426100Y-118079600D01*
X133553100Y-116174600D02*
X137109100Y-116174600D01*
X133553100Y-116174600D02*
X133426100Y-116047600D01*
X133553100Y-117952600D02*
X137109100Y-117952600D01*
X133553100Y-117952600D02*
X133426100Y-118079600D01*
X137109100Y-116174600D02*
X137236100Y-116047600D01*
X137617100Y-116047600D02*
X137236100Y-116047600D01*
X137109100Y-117952600D02*
X137236100Y-118079600D01*
X137617100Y-118079600D02*
X137236100Y-118079600D01*
X137871100Y-116301600D02*
X137871100Y-117825600D01*
X132791100Y-117825600D02*
G75*
G03X133045100Y-118079600I254000J0D01*
G01*
X132791100Y-116301600D02*
G75*
G02X133045100Y-116047600I254000J0D01*
G01*
X137617100Y-116047600D02*
G75*
G02X137871100Y-116301600I0J-254000D01*
G01*
X137617100Y-118079600D02*
G75*
G03X137871100Y-117825600I0J254000D01*
G01*
X128981100Y-94457600D02*
X128981100Y-96489600D01*
X128981100Y-91917600D02*
X128981100Y-93949600D01*
X128727100Y-96743600D02*
X128981100Y-96489600D01*
X128981100Y-94457600D02*
X128727100Y-94203600D01*
X128727100Y-94203600D02*
X128981100Y-93949600D01*
X128981100Y-91917600D02*
X128727100Y-91663600D01*
X126441100Y-94457600D02*
X126441100Y-96489600D01*
X126695100Y-96743600D02*
X126441100Y-96489600D01*
X126441100Y-94457600D02*
X126695100Y-94203600D01*
X126695100Y-94203600D02*
X126441100Y-93949600D01*
X126441100Y-91917600D02*
X126441100Y-93949600D01*
X126441100Y-91917600D02*
X126695100Y-91663600D01*
X126695100Y-89123600D02*
X128727100Y-89123600D01*
X126441100Y-89377600D02*
X126695100Y-89123600D01*
X128981100Y-89377600D02*
X128727100Y-89123600D01*
X128727100Y-91663600D02*
X128981100Y-91409600D01*
X128981100Y-89377600D02*
X128981100Y-91409600D01*
X126695100Y-91663600D02*
X126441100Y-91409600D01*
X126441100Y-89377600D02*
X126441100Y-91409600D01*
X128727100Y-96743600D02*
X126695100Y-96743600D01*
X123901100Y-94457600D02*
X123901100Y-96489600D01*
X123901100Y-91917600D02*
X123901100Y-93949600D01*
X123647100Y-96743600D02*
X123901100Y-96489600D01*
X123901100Y-94457600D02*
X123647100Y-94203600D01*
X123647100Y-94203600D02*
X123901100Y-93949600D01*
X123901100Y-91917600D02*
X123647100Y-91663600D01*
X121361100Y-94457600D02*
X121361100Y-96489600D01*
X121615100Y-96743600D02*
X121361100Y-96489600D01*
X121361100Y-94457600D02*
X121615100Y-94203600D01*
X121615100Y-94203600D02*
X121361100Y-93949600D01*
X121361100Y-91917600D02*
X121361100Y-93949600D01*
X121361100Y-91917600D02*
X121615100Y-91663600D01*
X121615100Y-89123600D02*
X123647100Y-89123600D01*
X121361100Y-89377600D02*
X121615100Y-89123600D01*
X123901100Y-89377600D02*
X123647100Y-89123600D01*
X123647100Y-91663600D02*
X123901100Y-91409600D01*
X123901100Y-89377600D02*
X123901100Y-91409600D01*
X121615100Y-91663600D02*
X121361100Y-91409600D01*
X121361100Y-89377600D02*
X121361100Y-91409600D01*
X123647100Y-96743600D02*
X121615100Y-96743600D01*
D15*
G36*
X148412100Y-116809600D02*
G01*
X148031100Y-116809600D01*
X148031100Y-117317600D01*
X148412100Y-117317600D01*
X148412100Y-116809600D01*
G37*
G36*
X142951100Y-116809600D02*
G01*
X142570100Y-116809600D01*
X142570100Y-117317600D01*
X142951100Y-117317600D01*
X142951100Y-116809600D01*
G37*
D12*
X142951100Y-116301600D02*
X142951100Y-117825600D01*
X143205100Y-116047600D02*
X143586100Y-116047600D01*
X143205100Y-118079600D02*
X143586100Y-118079600D01*
X143713100Y-116174600D02*
X147269100Y-116174600D01*
X143713100Y-116174600D02*
X143586100Y-116047600D01*
X143713100Y-117952600D02*
X147269100Y-117952600D01*
X143713100Y-117952600D02*
X143586100Y-118079600D01*
X147269100Y-116174600D02*
X147396100Y-116047600D01*
X147777100Y-116047600D02*
X147396100Y-116047600D01*
X147269100Y-117952600D02*
X147396100Y-118079600D01*
X147777100Y-118079600D02*
X147396100Y-118079600D01*
X148031100Y-116301600D02*
X148031100Y-117825600D01*
X142951100Y-117825600D02*
G75*
G03X143205100Y-118079600I254000J0D01*
G01*
X142951100Y-116301600D02*
G75*
G02X143205100Y-116047600I254000J0D01*
G01*
X147777100Y-116047600D02*
G75*
G02X148031100Y-116301600I0J-254000D01*
G01*
X147777100Y-118079600D02*
G75*
G03X148031100Y-117825600I0J254000D01*
G01*
D15*
G36*
X181305100Y-108554600D02*
G01*
X181305100Y-108173600D01*
X180797100Y-108173600D01*
X180797100Y-108554600D01*
X181305100Y-108554600D01*
G37*
G36*
X181305100Y-103093600D02*
G01*
X181305100Y-102712600D01*
X180797100Y-102712600D01*
X180797100Y-103093600D01*
X181305100Y-103093600D01*
G37*
D12*
X181813100Y-103093600D02*
X180289100Y-103093600D01*
X182067100Y-103347600D02*
X182067100Y-103728600D01*
X180035100Y-103347600D02*
X180035100Y-103728600D01*
X181940100Y-103855600D02*
X181940100Y-107411600D01*
X181940100Y-103855600D02*
X182067100Y-103728600D01*
X180162100Y-103855600D02*
X180162100Y-107411600D01*
X180162100Y-103855600D02*
X180035100Y-103728600D01*
X181940100Y-107411600D02*
X182067100Y-107538600D01*
X182067100Y-107919600D02*
X182067100Y-107538600D01*
X180162100Y-107411600D02*
X180035100Y-107538600D01*
X180035100Y-107919600D02*
X180035100Y-107538600D01*
X181813100Y-108173600D02*
X180289100Y-108173600D01*
X180289100Y-103093600D02*
G75*
G03X180035100Y-103347600I0J-254000D01*
G01*
X181813100Y-103093600D02*
G75*
G02X182067100Y-103347600I0J-254000D01*
G01*
X182067100Y-107919600D02*
G75*
G02X181813100Y-108173600I-254000J0D01*
G01*
X180035100Y-107919600D02*
G75*
G03X180289100Y-108173600I254000J0D01*
G01*
X130632100Y-94584600D02*
X130632100Y-96362600D01*
X132410100Y-94584600D02*
X130632100Y-94584600D01*
X130759100Y-96489600D02*
X144983100Y-96489600D01*
X130759100Y-94457600D02*
X144983100Y-94457600D01*
X145491100Y-94965600D02*
X145491100Y-95981600D01*
X130759101Y-96489599D02*
G75*
G02X130251100Y-95981600I-1J508000D01*
G01*
X145491101Y-94965601D02*
G75*
G03X144983100Y-94457600I-508001J0D01*
G01*
X145491101Y-95981599D02*
G75*
G02X144983100Y-96489600I-508001J0D01*
G01*
X130759101Y-94457601D02*
G75*
G03X130251100Y-94965600I-1J-508000D01*
G01*
X132410100Y-96362600D02*
X130632100Y-96362600D01*
X132410100Y-94584600D02*
X132410100Y-96362600D01*
X130251100Y-94965600D02*
X130251100Y-95981600D01*
D16*
X123011595Y-104784978D02*
X123069047Y-104612621D01*
X123069047Y-104325359D01*
X123011595Y-104210454D01*
X122954142Y-104153002D01*
X122839238Y-104095550D01*
X122724333Y-104095550D01*
X122609428Y-104153002D01*
X122551976Y-104210454D01*
X122494523Y-104325359D01*
X122437071Y-104555169D01*
X122379619Y-104670073D01*
X122322166Y-104727526D01*
X122207261Y-104784978D01*
X122092357Y-104784978D01*
X121977452Y-104727526D01*
X121920000Y-104670073D01*
X121862547Y-104555169D01*
X121862547Y-104267907D01*
X121920000Y-104095550D01*
X121862547Y-103750835D02*
X123069047Y-103348669D01*
X121862547Y-102946502D01*
X123069047Y-101912359D02*
X123069047Y-102601788D01*
X123069047Y-102257073D02*
X121862547Y-102257073D01*
X122034904Y-102371978D01*
X122149809Y-102486883D01*
X122207261Y-102601788D01*
X180104142Y-90361407D02*
X180161595Y-90418859D01*
X180219047Y-90591216D01*
X180219047Y-90706121D01*
X180161595Y-90878478D01*
X180046690Y-90993383D01*
X179931785Y-91050835D01*
X179701976Y-91108288D01*
X179529619Y-91108288D01*
X179299809Y-91050835D01*
X179184904Y-90993383D01*
X179070000Y-90878478D01*
X179012547Y-90706121D01*
X179012547Y-90591216D01*
X179070000Y-90418859D01*
X179127452Y-90361407D01*
X179127452Y-89901788D02*
X179070000Y-89844335D01*
X179012547Y-89729430D01*
X179012547Y-89442169D01*
X179070000Y-89327264D01*
X179127452Y-89269811D01*
X179242357Y-89212359D01*
X179357261Y-89212359D01*
X179529619Y-89269811D01*
X180219047Y-89959240D01*
X180219047Y-89212359D01*
D17*
X178136147Y-96934065D02*
X178136147Y-97623493D01*
X178136147Y-97278779D02*
X176929647Y-97278779D01*
X177102004Y-97393684D01*
X177216909Y-97508589D01*
X177274361Y-97623493D01*
X176929647Y-96187184D02*
X176929647Y-96072279D01*
X176987100Y-95957374D01*
X177044552Y-95899922D01*
X177159457Y-95842470D01*
X177389266Y-95785017D01*
X177676528Y-95785017D01*
X177906338Y-95842470D01*
X178021242Y-95899922D01*
X178078695Y-95957374D01*
X178136147Y-96072279D01*
X178136147Y-96187184D01*
X178078695Y-96302089D01*
X178021242Y-96359541D01*
X177906338Y-96416993D01*
X177676528Y-96474446D01*
X177389266Y-96474446D01*
X177159457Y-96416993D01*
X177044552Y-96359541D01*
X176987100Y-96302089D01*
X176929647Y-96187184D01*
X176929647Y-95038136D02*
X176929647Y-94923232D01*
X176987100Y-94808327D01*
X177044552Y-94750874D01*
X177159457Y-94693422D01*
X177389266Y-94635970D01*
X177676528Y-94635970D01*
X177906338Y-94693422D01*
X178021242Y-94750874D01*
X178078695Y-94808327D01*
X178136147Y-94923232D01*
X178136147Y-95038136D01*
X178078695Y-95153041D01*
X178021242Y-95210493D01*
X177906338Y-95267946D01*
X177676528Y-95325398D01*
X177389266Y-95325398D01*
X177159457Y-95267946D01*
X177044552Y-95210493D01*
X176987100Y-95153041D01*
X176929647Y-95038136D01*
X177331814Y-94118898D02*
X178136147Y-94118898D01*
X177446719Y-94118898D02*
X177389266Y-94061446D01*
X177331814Y-93946541D01*
X177331814Y-93774184D01*
X177389266Y-93659279D01*
X177504171Y-93601827D01*
X178136147Y-93601827D01*
X177504171Y-92625136D02*
X177504171Y-93027303D01*
X178136147Y-93027303D02*
X176929647Y-93027303D01*
X176929647Y-92452779D01*
D16*
X100157642Y-99524759D02*
X100215095Y-99582211D01*
X100272547Y-99754569D01*
X100272547Y-99869473D01*
X100215095Y-100041830D01*
X100100190Y-100156735D01*
X99985285Y-100214188D01*
X99755476Y-100271640D01*
X99583119Y-100271640D01*
X99353309Y-100214188D01*
X99238404Y-100156735D01*
X99123500Y-100041830D01*
X99066047Y-99869473D01*
X99066047Y-99754569D01*
X99123500Y-99582211D01*
X99180952Y-99524759D01*
X99066047Y-99122592D02*
X99066047Y-98375711D01*
X99525666Y-98777878D01*
X99525666Y-98605521D01*
X99583119Y-98490616D01*
X99640571Y-98433164D01*
X99755476Y-98375711D01*
X100042738Y-98375711D01*
X100157642Y-98433164D01*
X100215095Y-98490616D01*
X100272547Y-98605521D01*
X100272547Y-98950235D01*
X100215095Y-99065140D01*
X100157642Y-99122592D01*
D17*
X99002547Y-104920339D02*
X99002547Y-105609767D01*
X99002547Y-105265053D02*
X97796047Y-105265053D01*
X97968404Y-105379958D01*
X98083309Y-105494863D01*
X98140761Y-105609767D01*
X97796047Y-104173458D02*
X97796047Y-104058553D01*
X97853500Y-103943648D01*
X97910952Y-103886196D01*
X98025857Y-103828744D01*
X98255666Y-103771291D01*
X98542928Y-103771291D01*
X98772738Y-103828744D01*
X98887642Y-103886196D01*
X98945095Y-103943648D01*
X99002547Y-104058553D01*
X99002547Y-104173458D01*
X98945095Y-104288363D01*
X98887642Y-104345815D01*
X98772738Y-104403267D01*
X98542928Y-104460720D01*
X98255666Y-104460720D01*
X98025857Y-104403267D01*
X97910952Y-104345815D01*
X97853500Y-104288363D01*
X97796047Y-104173458D01*
X97796047Y-103024410D02*
X97796047Y-102909506D01*
X97853500Y-102794601D01*
X97910952Y-102737148D01*
X98025857Y-102679696D01*
X98255666Y-102622244D01*
X98542928Y-102622244D01*
X98772738Y-102679696D01*
X98887642Y-102737148D01*
X98945095Y-102794601D01*
X99002547Y-102909506D01*
X99002547Y-103024410D01*
X98945095Y-103139315D01*
X98887642Y-103196767D01*
X98772738Y-103254220D01*
X98542928Y-103311672D01*
X98255666Y-103311672D01*
X98025857Y-103254220D01*
X97910952Y-103196767D01*
X97853500Y-103139315D01*
X97796047Y-103024410D01*
X98198214Y-102105172D02*
X99002547Y-102105172D01*
X98313119Y-102105172D02*
X98255666Y-102047720D01*
X98198214Y-101932815D01*
X98198214Y-101760458D01*
X98255666Y-101645553D01*
X98370571Y-101588101D01*
X99002547Y-101588101D01*
X98370571Y-100611410D02*
X98370571Y-101013577D01*
X99002547Y-101013577D02*
X97796047Y-101013577D01*
X97796047Y-100439053D01*
X112848767Y-112655047D02*
X112848767Y-111448547D01*
X114112720Y-112540142D02*
X114055267Y-112597595D01*
X113882910Y-112655047D01*
X113768006Y-112655047D01*
X113595648Y-112597595D01*
X113480744Y-112482690D01*
X113423291Y-112367785D01*
X113365839Y-112137976D01*
X113365839Y-111965619D01*
X113423291Y-111735809D01*
X113480744Y-111620904D01*
X113595648Y-111506000D01*
X113768006Y-111448547D01*
X113882910Y-111448547D01*
X114055267Y-111506000D01*
X114112720Y-111563452D01*
X115261767Y-112655047D02*
X114572339Y-112655047D01*
X114917053Y-112655047D02*
X114917053Y-111448547D01*
X114802148Y-111620904D01*
X114687244Y-111735809D01*
X114572339Y-111793261D01*
X101418879Y-111354647D02*
X102223212Y-111354647D01*
X101706141Y-112561147D01*
X103199903Y-111756814D02*
X103199903Y-112561147D01*
X102912641Y-111297195D02*
X102625379Y-112158980D01*
X103372260Y-112158980D01*
X103831879Y-112561147D02*
X103831879Y-111354647D01*
X103831879Y-111929171D02*
X104521308Y-111929171D01*
X104521308Y-112561147D02*
X104521308Y-111354647D01*
X105785260Y-112446242D02*
X105727808Y-112503695D01*
X105555451Y-112561147D01*
X105440546Y-112561147D01*
X105268189Y-112503695D01*
X105153284Y-112388790D01*
X105095832Y-112273885D01*
X105038379Y-112044076D01*
X105038379Y-111871719D01*
X105095832Y-111641909D01*
X105153284Y-111527004D01*
X105268189Y-111412100D01*
X105440546Y-111354647D01*
X105555451Y-111354647D01*
X105727808Y-111412100D01*
X105785260Y-111469552D01*
X106129974Y-111354647D02*
X106819403Y-111354647D01*
X106474689Y-112561147D02*
X106474689Y-111354647D01*
X107853546Y-112561147D02*
X107164117Y-112561147D01*
X107508832Y-112561147D02*
X107508832Y-111354647D01*
X107393927Y-111527004D01*
X107279022Y-111641909D01*
X107164117Y-111699361D01*
X108255712Y-111354647D02*
X109002593Y-111354647D01*
X108600427Y-111814266D01*
X108772784Y-111814266D01*
X108887689Y-111871719D01*
X108945141Y-111929171D01*
X109002593Y-112044076D01*
X109002593Y-112331338D01*
X108945141Y-112446242D01*
X108887689Y-112503695D01*
X108772784Y-112561147D01*
X108428070Y-112561147D01*
X108313165Y-112503695D01*
X108255712Y-112446242D01*
X109692022Y-111871719D02*
X109577117Y-111814266D01*
X109519665Y-111756814D01*
X109462212Y-111641909D01*
X109462212Y-111584457D01*
X109519665Y-111469552D01*
X109577117Y-111412100D01*
X109692022Y-111354647D01*
X109921832Y-111354647D01*
X110036736Y-111412100D01*
X110094189Y-111469552D01*
X110151641Y-111584457D01*
X110151641Y-111641909D01*
X110094189Y-111756814D01*
X110036736Y-111814266D01*
X109921832Y-111871719D01*
X109692022Y-111871719D01*
X109577117Y-111929171D01*
X109519665Y-111986623D01*
X109462212Y-112101528D01*
X109462212Y-112331338D01*
X109519665Y-112446242D01*
X109577117Y-112503695D01*
X109692022Y-112561147D01*
X109921832Y-112561147D01*
X110036736Y-112503695D01*
X110094189Y-112446242D01*
X110151641Y-112331338D01*
X110151641Y-112101528D01*
X110094189Y-111986623D01*
X110036736Y-111929171D01*
X109921832Y-111871719D01*
X110668712Y-112561147D02*
X110668712Y-111354647D01*
X111358141Y-112561147D01*
X111358141Y-111354647D01*
D16*
X129837240Y-88219642D02*
X129779788Y-88277095D01*
X129607430Y-88334547D01*
X129492526Y-88334547D01*
X129320169Y-88277095D01*
X129205264Y-88162190D01*
X129147811Y-88047285D01*
X129090359Y-87817476D01*
X129090359Y-87645119D01*
X129147811Y-87415309D01*
X129205264Y-87300404D01*
X129320169Y-87185500D01*
X129492526Y-87128047D01*
X129607430Y-87128047D01*
X129779788Y-87185500D01*
X129837240Y-87242952D01*
X130584121Y-87128047D02*
X130813930Y-87128047D01*
X130928835Y-87185500D01*
X131043740Y-87300404D01*
X131101192Y-87530214D01*
X131101192Y-87932380D01*
X131043740Y-88162190D01*
X130928835Y-88277095D01*
X130813930Y-88334547D01*
X130584121Y-88334547D01*
X130469216Y-88277095D01*
X130354311Y-88162190D01*
X130296859Y-87932380D01*
X130296859Y-87530214D01*
X130354311Y-87300404D01*
X130469216Y-87185500D01*
X130584121Y-87128047D01*
X131618264Y-88334547D02*
X131618264Y-87128047D01*
X132307692Y-88334547D01*
X132307692Y-87128047D01*
X132824764Y-87242952D02*
X132882216Y-87185500D01*
X132997121Y-87128047D01*
X133284383Y-87128047D01*
X133399288Y-87185500D01*
X133456740Y-87242952D01*
X133514192Y-87357857D01*
X133514192Y-87472761D01*
X133456740Y-87645119D01*
X132767311Y-88334547D01*
X133514192Y-88334547D01*
D17*
X159517851Y-94560571D02*
X159115684Y-94560571D01*
X159115684Y-95192547D02*
X159115684Y-93986047D01*
X159690208Y-93986047D01*
X160724351Y-95192547D02*
X160149827Y-95192547D01*
X160149827Y-93986047D01*
X161356327Y-93986047D02*
X161586136Y-93986047D01*
X161701041Y-94043500D01*
X161815946Y-94158404D01*
X161873398Y-94388214D01*
X161873398Y-94790380D01*
X161815946Y-95020190D01*
X161701041Y-95135095D01*
X161586136Y-95192547D01*
X161356327Y-95192547D01*
X161241422Y-95135095D01*
X161126517Y-95020190D01*
X161069065Y-94790380D01*
X161069065Y-94388214D01*
X161126517Y-94158404D01*
X161241422Y-94043500D01*
X161356327Y-93986047D01*
X162390470Y-95192547D02*
X162390470Y-93986047D01*
X162850089Y-93986047D01*
X162964993Y-94043500D01*
X163022446Y-94100952D01*
X163079898Y-94215857D01*
X163079898Y-94388214D01*
X163022446Y-94503119D01*
X162964993Y-94560571D01*
X162850089Y-94618023D01*
X162390470Y-94618023D01*
X163596970Y-95192547D02*
X163596970Y-93986047D01*
X164056589Y-93986047D01*
X164171493Y-94043500D01*
X164228946Y-94100952D01*
X164286398Y-94215857D01*
X164286398Y-94388214D01*
X164228946Y-94503119D01*
X164171493Y-94560571D01*
X164056589Y-94618023D01*
X163596970Y-94618023D01*
X165033279Y-94618023D02*
X165033279Y-95192547D01*
X164631112Y-93986047D02*
X165033279Y-94618023D01*
X165435446Y-93986047D01*
X165722708Y-93986047D02*
X166469589Y-93986047D01*
X166067422Y-94445666D01*
X166239779Y-94445666D01*
X166354684Y-94503119D01*
X166412136Y-94560571D01*
X166469589Y-94675476D01*
X166469589Y-94962738D01*
X166412136Y-95077642D01*
X166354684Y-95135095D01*
X166239779Y-95192547D01*
X165895065Y-95192547D01*
X165780160Y-95135095D01*
X165722708Y-95077642D01*
X167503732Y-94388214D02*
X167503732Y-95192547D01*
X167216470Y-93928595D02*
X166929208Y-94790380D01*
X167676089Y-94790380D01*
D16*
X178054907Y-87382047D02*
X178801788Y-87382047D01*
X178399621Y-87841666D01*
X178571978Y-87841666D01*
X178686883Y-87899119D01*
X178744335Y-87956571D01*
X178801788Y-88071476D01*
X178801788Y-88358738D01*
X178744335Y-88473642D01*
X178686883Y-88531095D01*
X178571978Y-88588547D01*
X178227264Y-88588547D01*
X178112359Y-88531095D01*
X178054907Y-88473642D01*
X179835930Y-87784214D02*
X179835930Y-88588547D01*
X179548669Y-87324595D02*
X179261407Y-88186380D01*
X180008288Y-88186380D01*
X133589788Y-92398547D02*
X132900359Y-92398547D01*
X133245073Y-92398547D02*
X133245073Y-91192047D01*
X133130169Y-91364404D01*
X133015264Y-91479309D01*
X132900359Y-91536761D01*
X191928145Y-115119452D02*
X191813240Y-115062000D01*
X191698335Y-114947095D01*
X191525978Y-114774738D01*
X191411073Y-114717285D01*
X191296169Y-114717285D01*
X191353621Y-115004547D02*
X191238716Y-114947095D01*
X191123811Y-114832190D01*
X191066359Y-114602380D01*
X191066359Y-114200214D01*
X191123811Y-113970404D01*
X191238716Y-113855500D01*
X191353621Y-113798047D01*
X191583430Y-113798047D01*
X191698335Y-113855500D01*
X191813240Y-113970404D01*
X191870692Y-114200214D01*
X191870692Y-114602380D01*
X191813240Y-114832190D01*
X191698335Y-114947095D01*
X191583430Y-115004547D01*
X191353621Y-115004547D01*
X193019740Y-113855500D02*
X192904835Y-113798047D01*
X192732478Y-113798047D01*
X192560121Y-113855500D01*
X192445216Y-113970404D01*
X192387764Y-114085309D01*
X192330311Y-114315119D01*
X192330311Y-114487476D01*
X192387764Y-114717285D01*
X192445216Y-114832190D01*
X192560121Y-114947095D01*
X192732478Y-115004547D01*
X192847383Y-115004547D01*
X193019740Y-114947095D01*
X193077192Y-114889642D01*
X193077192Y-114487476D01*
X192847383Y-114487476D01*
X194226240Y-115004547D02*
X193536811Y-115004547D01*
X193881526Y-115004547D02*
X193881526Y-113798047D01*
X193766621Y-113970404D01*
X193651716Y-114085309D01*
X193536811Y-114142761D01*
X189723788Y-111702547D02*
X189034359Y-111702547D01*
X189379073Y-111702547D02*
X189379073Y-110496047D01*
X189264169Y-110668404D01*
X189149264Y-110783309D01*
X189034359Y-110840761D01*
X190757930Y-110496047D02*
X190528121Y-110496047D01*
X190413216Y-110553500D01*
X190355764Y-110610952D01*
X190240859Y-110783309D01*
X190183407Y-111013119D01*
X190183407Y-111472738D01*
X190240859Y-111587642D01*
X190298311Y-111645095D01*
X190413216Y-111702547D01*
X190643026Y-111702547D01*
X190757930Y-111645095D01*
X190815383Y-111587642D01*
X190872835Y-111472738D01*
X190872835Y-111185476D01*
X190815383Y-111070571D01*
X190757930Y-111013119D01*
X190643026Y-110955666D01*
X190413216Y-110955666D01*
X190298311Y-111013119D01*
X190240859Y-111070571D01*
X190183407Y-111185476D01*
X192309145Y-111702547D02*
X192309145Y-110496047D01*
X192711311Y-111357833D01*
X193113478Y-110496047D01*
X193113478Y-111702547D01*
X193688002Y-111702547D02*
X193688002Y-110496047D01*
X194205073Y-111702547D02*
X194205073Y-111070571D01*
X194147621Y-110955666D01*
X194032716Y-110898214D01*
X193860359Y-110898214D01*
X193745454Y-110955666D01*
X193688002Y-111013119D01*
X194664692Y-110898214D02*
X195296669Y-110898214D01*
X194664692Y-111702547D01*
X195296669Y-111702547D01*
X190688888Y-116371147D02*
X189999459Y-116371147D01*
X190344173Y-116371147D02*
X190344173Y-115164647D01*
X190229269Y-115337004D01*
X190114364Y-115451909D01*
X189999459Y-115509361D01*
X125030592Y-102126142D02*
X124973140Y-102183595D01*
X124800783Y-102241047D01*
X124685878Y-102241047D01*
X124513521Y-102183595D01*
X124398616Y-102068690D01*
X124341164Y-101953785D01*
X124283711Y-101723976D01*
X124283711Y-101551619D01*
X124341164Y-101321809D01*
X124398616Y-101206904D01*
X124513521Y-101092000D01*
X124685878Y-101034547D01*
X124800783Y-101034547D01*
X124973140Y-101092000D01*
X125030592Y-101149452D01*
X126179640Y-102241047D02*
X125490211Y-102241047D01*
X125834926Y-102241047D02*
X125834926Y-101034547D01*
X125720021Y-101206904D01*
X125605116Y-101321809D01*
X125490211Y-101379261D01*
X123533807Y-98177047D02*
X122844378Y-98177047D01*
X123189092Y-98177047D02*
X123189092Y-96970547D01*
X123074188Y-97142904D01*
X122959283Y-97257809D01*
X122844378Y-97315261D01*
X124280688Y-96970547D02*
X124395592Y-96970547D01*
X124510497Y-97028000D01*
X124567950Y-97085452D01*
X124625402Y-97200357D01*
X124682854Y-97430166D01*
X124682854Y-97717428D01*
X124625402Y-97947238D01*
X124567950Y-98062142D01*
X124510497Y-98119595D01*
X124395592Y-98177047D01*
X124280688Y-98177047D01*
X124165783Y-98119595D01*
X124108330Y-98062142D01*
X124050878Y-97947238D01*
X123993426Y-97717428D01*
X123993426Y-97430166D01*
X124050878Y-97200357D01*
X124108330Y-97085452D01*
X124165783Y-97028000D01*
X124280688Y-96970547D01*
X125429735Y-96970547D02*
X125544640Y-96970547D01*
X125659545Y-97028000D01*
X125716997Y-97085452D01*
X125774450Y-97200357D01*
X125831902Y-97430166D01*
X125831902Y-97717428D01*
X125774450Y-97947238D01*
X125716997Y-98062142D01*
X125659545Y-98119595D01*
X125544640Y-98177047D01*
X125429735Y-98177047D01*
X125314830Y-98119595D01*
X125257378Y-98062142D01*
X125199926Y-97947238D01*
X125142473Y-97717428D01*
X125142473Y-97430166D01*
X125199926Y-97200357D01*
X125257378Y-97085452D01*
X125314830Y-97028000D01*
X125429735Y-96970547D01*
X126348973Y-97372714D02*
X126348973Y-98177047D01*
X126348973Y-97487619D02*
X126406426Y-97430166D01*
X126521330Y-97372714D01*
X126693688Y-97372714D01*
X126808592Y-97430166D01*
X126866045Y-97545071D01*
X126866045Y-98177047D01*
X127842735Y-97545071D02*
X127440569Y-97545071D01*
X127440569Y-98177047D02*
X127440569Y-96970547D01*
X128015092Y-96970547D01*
X183685240Y-112286142D02*
X183627788Y-112343595D01*
X183455430Y-112401047D01*
X183340526Y-112401047D01*
X183168169Y-112343595D01*
X183053264Y-112228690D01*
X182995811Y-112113785D01*
X182938359Y-111883976D01*
X182938359Y-111711619D01*
X182995811Y-111481809D01*
X183053264Y-111366904D01*
X183168169Y-111252000D01*
X183340526Y-111194547D01*
X183455430Y-111194547D01*
X183627788Y-111252000D01*
X183685240Y-111309452D01*
X184719383Y-111596714D02*
X184719383Y-112401047D01*
X184432121Y-111137095D02*
X184144859Y-111998880D01*
X184891740Y-111998880D01*
X184029047Y-104558192D02*
X184029047Y-105247621D01*
X184029047Y-104902907D02*
X182822547Y-104902907D01*
X182994904Y-105017811D01*
X183109809Y-105132716D01*
X183167261Y-105247621D01*
X182822547Y-103811311D02*
X182822547Y-103696407D01*
X182880000Y-103581502D01*
X182937452Y-103524050D01*
X183052357Y-103466597D01*
X183282166Y-103409145D01*
X183569428Y-103409145D01*
X183799238Y-103466597D01*
X183914142Y-103524050D01*
X183971595Y-103581502D01*
X184029047Y-103696407D01*
X184029047Y-103811311D01*
X183971595Y-103926216D01*
X183914142Y-103983669D01*
X183799238Y-104041121D01*
X183569428Y-104098573D01*
X183282166Y-104098573D01*
X183052357Y-104041121D01*
X182937452Y-103983669D01*
X182880000Y-103926216D01*
X182822547Y-103811311D01*
X182822547Y-102662264D02*
X182822547Y-102547359D01*
X182880000Y-102432454D01*
X182937452Y-102375002D01*
X183052357Y-102317550D01*
X183282166Y-102260097D01*
X183569428Y-102260097D01*
X183799238Y-102317550D01*
X183914142Y-102375002D01*
X183971595Y-102432454D01*
X184029047Y-102547359D01*
X184029047Y-102662264D01*
X183971595Y-102777169D01*
X183914142Y-102834621D01*
X183799238Y-102892073D01*
X183569428Y-102949526D01*
X183282166Y-102949526D01*
X183052357Y-102892073D01*
X182937452Y-102834621D01*
X182880000Y-102777169D01*
X182822547Y-102662264D01*
X183224714Y-101743026D02*
X184029047Y-101743026D01*
X183339619Y-101743026D02*
X183282166Y-101685573D01*
X183224714Y-101570669D01*
X183224714Y-101398311D01*
X183282166Y-101283407D01*
X183397071Y-101225954D01*
X184029047Y-101225954D01*
X183397071Y-100249264D02*
X183397071Y-100651430D01*
X184029047Y-100651430D02*
X182822547Y-100651430D01*
X182822547Y-100076907D01*
D11*
X164578622Y-107869566D02*
X164578622Y-106180466D01*
X166348156Y-107708700D02*
X166267722Y-107789133D01*
X166026422Y-107869566D01*
X165865556Y-107869566D01*
X165624256Y-107789133D01*
X165463389Y-107628266D01*
X165382956Y-107467400D01*
X165302522Y-107145666D01*
X165302522Y-106904366D01*
X165382956Y-106582633D01*
X165463389Y-106421766D01*
X165624256Y-106260900D01*
X165865556Y-106180466D01*
X166026422Y-106180466D01*
X166267722Y-106260900D01*
X166348156Y-106341333D01*
X167795956Y-106743500D02*
X167795956Y-107869566D01*
X167393789Y-106100033D02*
X166991622Y-107306533D01*
X168037256Y-107306533D01*
X136299856Y-106150066D02*
X136702022Y-107839166D01*
X137023756Y-106632666D01*
X137345489Y-107839166D01*
X137747656Y-106150066D01*
X138391122Y-107839166D02*
X138391122Y-106150066D01*
X138793289Y-106150066D01*
X139034589Y-106230500D01*
X139195456Y-106391366D01*
X139275889Y-106552233D01*
X139356322Y-106873966D01*
X139356322Y-107115266D01*
X139275889Y-107437000D01*
X139195456Y-107597866D01*
X139034589Y-107758733D01*
X138793289Y-107839166D01*
X138391122Y-107839166D01*
X139919356Y-106150066D02*
X140964989Y-106150066D01*
X140401956Y-106793533D01*
X140643256Y-106793533D01*
X140804122Y-106873966D01*
X140884556Y-106954400D01*
X140964989Y-107115266D01*
X140964989Y-107517433D01*
X140884556Y-107678300D01*
X140804122Y-107758733D01*
X140643256Y-107839166D01*
X140160656Y-107839166D01*
X139999789Y-107758733D01*
X139919356Y-107678300D01*
X141528022Y-106150066D02*
X142654089Y-106150066D01*
X141930189Y-107839166D01*
X144262756Y-107678300D02*
X144182322Y-107758733D01*
X143941022Y-107839166D01*
X143780156Y-107839166D01*
X143538856Y-107758733D01*
X143377989Y-107597866D01*
X143297556Y-107437000D01*
X143217122Y-107115266D01*
X143217122Y-106873966D01*
X143297556Y-106552233D01*
X143377989Y-106391366D01*
X143538856Y-106230500D01*
X143780156Y-106150066D01*
X143941022Y-106150066D01*
X144182322Y-106230500D01*
X144262756Y-106310933D01*
X145710556Y-106150066D02*
X145388822Y-106150066D01*
X145227956Y-106230500D01*
X145147522Y-106310933D01*
X144986656Y-106552233D01*
X144906222Y-106873966D01*
X144906222Y-107517433D01*
X144986656Y-107678300D01*
X145067089Y-107758733D01*
X145227956Y-107839166D01*
X145549689Y-107839166D01*
X145710556Y-107758733D01*
X145790989Y-107678300D01*
X145871422Y-107517433D01*
X145871422Y-107115266D01*
X145790989Y-106954400D01*
X145710556Y-106873966D01*
X145549689Y-106793533D01*
X145227956Y-106793533D01*
X145067089Y-106873966D01*
X144986656Y-106954400D01*
X144906222Y-107115266D01*
X147399656Y-106150066D02*
X146595322Y-106150066D01*
X146514889Y-106954400D01*
X146595322Y-106873966D01*
X146756189Y-106793533D01*
X147158356Y-106793533D01*
X147319222Y-106873966D01*
X147399656Y-106954400D01*
X147480089Y-107115266D01*
X147480089Y-107517433D01*
X147399656Y-107678300D01*
X147319222Y-107758733D01*
X147158356Y-107839166D01*
X146756189Y-107839166D01*
X146595322Y-107758733D01*
X146514889Y-107678300D01*
X149169189Y-107678300D02*
X149088756Y-107758733D01*
X148847456Y-107839166D01*
X148686589Y-107839166D01*
X148445289Y-107758733D01*
X148284422Y-107597866D01*
X148203989Y-107437000D01*
X148123556Y-107115266D01*
X148123556Y-106873966D01*
X148203989Y-106552233D01*
X148284422Y-106391366D01*
X148445289Y-106230500D01*
X148686589Y-106150066D01*
X148847456Y-106150066D01*
X149088756Y-106230500D01*
X149169189Y-106310933D01*
D16*
X113399811Y-93668547D02*
X113399811Y-92462047D01*
X114663764Y-93553642D02*
X114606311Y-93611095D01*
X114433954Y-93668547D01*
X114319050Y-93668547D01*
X114146692Y-93611095D01*
X114031788Y-93496190D01*
X113974335Y-93381285D01*
X113916883Y-93151476D01*
X113916883Y-92979119D01*
X113974335Y-92749309D01*
X114031788Y-92634404D01*
X114146692Y-92519500D01*
X114319050Y-92462047D01*
X114433954Y-92462047D01*
X114606311Y-92519500D01*
X114663764Y-92576952D01*
X115123383Y-92576952D02*
X115180835Y-92519500D01*
X115295740Y-92462047D01*
X115583002Y-92462047D01*
X115697907Y-92519500D01*
X115755359Y-92576952D01*
X115812811Y-92691857D01*
X115812811Y-92806761D01*
X115755359Y-92979119D01*
X115065930Y-93668547D01*
X115812811Y-93668547D01*
X101423007Y-92304647D02*
X102227340Y-92304647D01*
X101710269Y-93511147D01*
X103204030Y-92706814D02*
X103204030Y-93511147D01*
X102916769Y-92247195D02*
X102629507Y-93108980D01*
X103376388Y-93108980D01*
X103836007Y-93511147D02*
X103836007Y-92304647D01*
X103836007Y-92879171D02*
X104525435Y-92879171D01*
X104525435Y-93511147D02*
X104525435Y-92304647D01*
X105789388Y-93396242D02*
X105731935Y-93453695D01*
X105559578Y-93511147D01*
X105444673Y-93511147D01*
X105272316Y-93453695D01*
X105157411Y-93338790D01*
X105099959Y-93223885D01*
X105042507Y-92994076D01*
X105042507Y-92821719D01*
X105099959Y-92591909D01*
X105157411Y-92477004D01*
X105272316Y-92362100D01*
X105444673Y-92304647D01*
X105559578Y-92304647D01*
X105731935Y-92362100D01*
X105789388Y-92419552D01*
X106134102Y-92304647D02*
X106823530Y-92304647D01*
X106478816Y-93511147D02*
X106478816Y-92304647D01*
X107857673Y-93511147D02*
X107168245Y-93511147D01*
X107512959Y-93511147D02*
X107512959Y-92304647D01*
X107398054Y-92477004D01*
X107283150Y-92591909D01*
X107168245Y-92649361D01*
X108259840Y-92304647D02*
X109006721Y-92304647D01*
X108604554Y-92764266D01*
X108776911Y-92764266D01*
X108891816Y-92821719D01*
X108949269Y-92879171D01*
X109006721Y-92994076D01*
X109006721Y-93281338D01*
X108949269Y-93396242D01*
X108891816Y-93453695D01*
X108776911Y-93511147D01*
X108432197Y-93511147D01*
X108317292Y-93453695D01*
X108259840Y-93396242D01*
X109696150Y-92821719D02*
X109581245Y-92764266D01*
X109523792Y-92706814D01*
X109466340Y-92591909D01*
X109466340Y-92534457D01*
X109523792Y-92419552D01*
X109581245Y-92362100D01*
X109696150Y-92304647D01*
X109925959Y-92304647D01*
X110040864Y-92362100D01*
X110098316Y-92419552D01*
X110155769Y-92534457D01*
X110155769Y-92591909D01*
X110098316Y-92706814D01*
X110040864Y-92764266D01*
X109925959Y-92821719D01*
X109696150Y-92821719D01*
X109581245Y-92879171D01*
X109523792Y-92936623D01*
X109466340Y-93051528D01*
X109466340Y-93281338D01*
X109523792Y-93396242D01*
X109581245Y-93453695D01*
X109696150Y-93511147D01*
X109925959Y-93511147D01*
X110040864Y-93453695D01*
X110098316Y-93396242D01*
X110155769Y-93281338D01*
X110155769Y-93051528D01*
X110098316Y-92936623D01*
X110040864Y-92879171D01*
X109925959Y-92821719D01*
X110672840Y-93511147D02*
X110672840Y-92304647D01*
X111362269Y-93511147D01*
X111362269Y-92304647D01*
X195187811Y-94938547D02*
X195187811Y-93732047D01*
X196451764Y-94823642D02*
X196394311Y-94881095D01*
X196221954Y-94938547D01*
X196107050Y-94938547D01*
X195934692Y-94881095D01*
X195819788Y-94766190D01*
X195762335Y-94651285D01*
X195704883Y-94421476D01*
X195704883Y-94249119D01*
X195762335Y-94019309D01*
X195819788Y-93904404D01*
X195934692Y-93789500D01*
X196107050Y-93732047D01*
X196221954Y-93732047D01*
X196394311Y-93789500D01*
X196451764Y-93846952D01*
X196853930Y-93732047D02*
X197600811Y-93732047D01*
X197198645Y-94191666D01*
X197371002Y-94191666D01*
X197485907Y-94249119D01*
X197543359Y-94306571D01*
X197600811Y-94421476D01*
X197600811Y-94708738D01*
X197543359Y-94823642D01*
X197485907Y-94881095D01*
X197371002Y-94938547D01*
X197026288Y-94938547D01*
X196911383Y-94881095D01*
X196853930Y-94823642D01*
X183465007Y-93574647D02*
X184269340Y-93574647D01*
X183752269Y-94781147D01*
X185246030Y-93976814D02*
X185246030Y-94781147D01*
X184958769Y-93517195D02*
X184671507Y-94378980D01*
X185418388Y-94378980D01*
X185878007Y-94781147D02*
X185878007Y-93574647D01*
X185878007Y-94149171D02*
X186567435Y-94149171D01*
X186567435Y-94781147D02*
X186567435Y-93574647D01*
X187831388Y-94666242D02*
X187773935Y-94723695D01*
X187601578Y-94781147D01*
X187486673Y-94781147D01*
X187314316Y-94723695D01*
X187199411Y-94608790D01*
X187141959Y-94493885D01*
X187084507Y-94264076D01*
X187084507Y-94091719D01*
X187141959Y-93861909D01*
X187199411Y-93747004D01*
X187314316Y-93632100D01*
X187486673Y-93574647D01*
X187601578Y-93574647D01*
X187773935Y-93632100D01*
X187831388Y-93689552D01*
X188176102Y-93574647D02*
X188865530Y-93574647D01*
X188520816Y-94781147D02*
X188520816Y-93574647D01*
X189899673Y-94781147D02*
X189210245Y-94781147D01*
X189554959Y-94781147D02*
X189554959Y-93574647D01*
X189440054Y-93747004D01*
X189325150Y-93861909D01*
X189210245Y-93919361D01*
X190359292Y-93689552D02*
X190416745Y-93632100D01*
X190531650Y-93574647D01*
X190818911Y-93574647D01*
X190933816Y-93632100D01*
X190991269Y-93689552D01*
X191048721Y-93804457D01*
X191048721Y-93919361D01*
X190991269Y-94091719D01*
X190301840Y-94781147D01*
X191048721Y-94781147D01*
X192140316Y-93574647D02*
X191565792Y-93574647D01*
X191508340Y-94149171D01*
X191565792Y-94091719D01*
X191680697Y-94034266D01*
X191967959Y-94034266D01*
X192082864Y-94091719D01*
X192140316Y-94149171D01*
X192197769Y-94264076D01*
X192197769Y-94551338D01*
X192140316Y-94666242D01*
X192082864Y-94723695D01*
X191967959Y-94781147D01*
X191680697Y-94781147D01*
X191565792Y-94723695D01*
X191508340Y-94666242D01*
X192714840Y-94781147D02*
X192714840Y-93574647D01*
X193404269Y-94781147D01*
X193404269Y-93574647D01*
D18*
X129162102Y-117990257D02*
X128848412Y-117542128D01*
X128624348Y-117990257D02*
X128624348Y-117049187D01*
X128982851Y-117049187D01*
X129072476Y-117094000D01*
X129117289Y-117138812D01*
X129162102Y-117228438D01*
X129162102Y-117362877D01*
X129117289Y-117452502D01*
X129072476Y-117497315D01*
X128982851Y-117542128D01*
X128624348Y-117542128D01*
X130058359Y-117990257D02*
X129520605Y-117990257D01*
X129789482Y-117990257D02*
X129789482Y-117049187D01*
X129699856Y-117183625D01*
X129610231Y-117273251D01*
X129520605Y-117318064D01*
X134517229Y-116849877D02*
X134517229Y-117477257D01*
X134293165Y-116491374D02*
X134069101Y-117163567D01*
X134651668Y-117163567D01*
X135054983Y-117432444D02*
X135054983Y-117477257D01*
X135010171Y-117566882D01*
X134965358Y-117611695D01*
X135368673Y-116536187D02*
X135996053Y-116536187D01*
X135592738Y-117477257D01*
X136354556Y-117477257D02*
X136354556Y-116536187D01*
X136444182Y-117118754D02*
X136713059Y-117477257D01*
X136713059Y-116849877D02*
X136354556Y-117208380D01*
D16*
X124796147Y-95775073D02*
X125657933Y-95775073D01*
X125830290Y-95832526D01*
X125945195Y-95947430D01*
X126002647Y-96119788D01*
X126002647Y-96234692D01*
X126002647Y-95200550D02*
X124796147Y-95200550D01*
X124796147Y-94740930D01*
X124853600Y-94626026D01*
X124911052Y-94568573D01*
X125025957Y-94511121D01*
X125198314Y-94511121D01*
X125313219Y-94568573D01*
X125370671Y-94626026D01*
X125428123Y-94740930D01*
X125428123Y-95200550D01*
X126002647Y-93362073D02*
X126002647Y-94051502D01*
X126002647Y-93706788D02*
X124796147Y-93706788D01*
X124968504Y-93821692D01*
X125083409Y-93936597D01*
X125140861Y-94051502D01*
D19*
X129392217Y-90181894D02*
X129392217Y-89599327D01*
X129750720Y-89913017D01*
X129750720Y-89778578D01*
X129795532Y-89688953D01*
X129840345Y-89644140D01*
X129929971Y-89599327D01*
X130154035Y-89599327D01*
X130243661Y-89644140D01*
X130288474Y-89688953D01*
X130333287Y-89778578D01*
X130333287Y-90047456D01*
X130288474Y-90137081D01*
X130243661Y-90181894D01*
X129481842Y-92677081D02*
X129437030Y-92632268D01*
X129392217Y-92542643D01*
X129392217Y-92318578D01*
X129437030Y-92228953D01*
X129481842Y-92184140D01*
X129571468Y-92139327D01*
X129661094Y-92139327D01*
X129795532Y-92184140D01*
X130333287Y-92721894D01*
X130333287Y-92139327D01*
X130333287Y-94679327D02*
X130333287Y-95217081D01*
X130333287Y-94948204D02*
X129392217Y-94948204D01*
X129526655Y-95037830D01*
X129616281Y-95127456D01*
X129661094Y-95217081D01*
D16*
X119716147Y-95775073D02*
X120577933Y-95775073D01*
X120750290Y-95832526D01*
X120865195Y-95947430D01*
X120922647Y-96119788D01*
X120922647Y-96234692D01*
X120922647Y-95200550D02*
X119716147Y-95200550D01*
X119716147Y-94740930D01*
X119773600Y-94626026D01*
X119831052Y-94568573D01*
X119945957Y-94511121D01*
X120118314Y-94511121D01*
X120233219Y-94568573D01*
X120290671Y-94626026D01*
X120348123Y-94740930D01*
X120348123Y-95200550D01*
X119831052Y-94051502D02*
X119773600Y-93994050D01*
X119716147Y-93879145D01*
X119716147Y-93591883D01*
X119773600Y-93476978D01*
X119831052Y-93419526D01*
X119945957Y-93362073D01*
X120060861Y-93362073D01*
X120233219Y-93419526D01*
X120922647Y-94108954D01*
X120922647Y-93362073D01*
D19*
X124312217Y-90181894D02*
X124312217Y-89599327D01*
X124670720Y-89913017D01*
X124670720Y-89778578D01*
X124715532Y-89688953D01*
X124760345Y-89644140D01*
X124849971Y-89599327D01*
X125074035Y-89599327D01*
X125163661Y-89644140D01*
X125208474Y-89688953D01*
X125253287Y-89778578D01*
X125253287Y-90047456D01*
X125208474Y-90137081D01*
X125163661Y-90181894D01*
X124401842Y-92677081D02*
X124357030Y-92632268D01*
X124312217Y-92542643D01*
X124312217Y-92318578D01*
X124357030Y-92228953D01*
X124401842Y-92184140D01*
X124491468Y-92139327D01*
X124581094Y-92139327D01*
X124715532Y-92184140D01*
X125253287Y-92721894D01*
X125253287Y-92139327D01*
X125253287Y-94679327D02*
X125253287Y-95217081D01*
X125253287Y-94948204D02*
X124312217Y-94948204D01*
X124446655Y-95037830D01*
X124536281Y-95127456D01*
X124581094Y-95217081D01*
D18*
X151514102Y-117990257D02*
X151200412Y-117542128D01*
X150976348Y-117990257D02*
X150976348Y-117049187D01*
X151334851Y-117049187D01*
X151424476Y-117094000D01*
X151469289Y-117138812D01*
X151514102Y-117228438D01*
X151514102Y-117362877D01*
X151469289Y-117452502D01*
X151424476Y-117497315D01*
X151334851Y-117542128D01*
X150976348Y-117542128D01*
X151872605Y-117138812D02*
X151917418Y-117094000D01*
X152007043Y-117049187D01*
X152231108Y-117049187D01*
X152320733Y-117094000D01*
X152365546Y-117138812D01*
X152410359Y-117228438D01*
X152410359Y-117318064D01*
X152365546Y-117452502D01*
X151827792Y-117990257D01*
X152410359Y-117990257D01*
X144677229Y-116849877D02*
X144677229Y-117477257D01*
X144453165Y-116491374D02*
X144229101Y-117163567D01*
X144811668Y-117163567D01*
X145214983Y-117432444D02*
X145214983Y-117477257D01*
X145170171Y-117566882D01*
X145125358Y-117611695D01*
X145528673Y-116536187D02*
X146156053Y-116536187D01*
X145752738Y-117477257D01*
X146514556Y-117477257D02*
X146514556Y-116536187D01*
X146604182Y-117118754D02*
X146873059Y-117477257D01*
X146873059Y-116849877D02*
X146514556Y-117208380D01*
X181565187Y-111949792D02*
X181117058Y-112263482D01*
X181565187Y-112487546D02*
X180624117Y-112487546D01*
X180624117Y-112129043D01*
X180668930Y-112039418D01*
X180713742Y-111994605D01*
X180803368Y-111949792D01*
X180937807Y-111949792D01*
X181027432Y-111994605D01*
X181072245Y-112039418D01*
X181117058Y-112129043D01*
X181117058Y-112487546D01*
X180624117Y-111636102D02*
X180624117Y-111053535D01*
X180982620Y-111367225D01*
X180982620Y-111232786D01*
X181027432Y-111143161D01*
X181072245Y-111098348D01*
X181161871Y-111053535D01*
X181385935Y-111053535D01*
X181475561Y-111098348D01*
X181520374Y-111143161D01*
X181565187Y-111232786D01*
X181565187Y-111501663D01*
X181520374Y-111591289D01*
X181475561Y-111636102D01*
X180861507Y-106567431D02*
X181488887Y-106567431D01*
X180503004Y-106791495D02*
X181175197Y-107015559D01*
X181175197Y-106432992D01*
X181444074Y-106029676D02*
X181488887Y-106029676D01*
X181578512Y-106074489D01*
X181623325Y-106119302D01*
X180547817Y-105715986D02*
X180547817Y-105088606D01*
X181488887Y-105491922D01*
X181488887Y-104730103D02*
X180547817Y-104730103D01*
X181130384Y-104640478D02*
X181488887Y-104371601D01*
X180861507Y-104371601D02*
X181220010Y-104730103D01*
D16*
X131869240Y-93922547D02*
X131467073Y-93348023D01*
X131179811Y-93922547D02*
X131179811Y-92716047D01*
X131639430Y-92716047D01*
X131754335Y-92773500D01*
X131811788Y-92830952D01*
X131869240Y-92945857D01*
X131869240Y-93118214D01*
X131811788Y-93233119D01*
X131754335Y-93290571D01*
X131639430Y-93348023D01*
X131179811Y-93348023D01*
X132386311Y-93922547D02*
X132386311Y-92716047D01*
X133075740Y-93922547D01*
X133075740Y-92716047D01*
X134282240Y-93922547D02*
X133592811Y-93922547D01*
X133937526Y-93922547D02*
X133937526Y-92716047D01*
X133822621Y-92888404D01*
X133707716Y-93003309D01*
X133592811Y-93060761D01*
X147051788Y-96208547D02*
X146362359Y-96208547D01*
X146707073Y-96208547D02*
X146707073Y-95002047D01*
X146592169Y-95174404D01*
X146477264Y-95289309D01*
X146362359Y-95346761D01*
X147568859Y-96208547D02*
X147568859Y-95002047D01*
X147683764Y-95748928D02*
X148028478Y-96208547D01*
X148028478Y-95404214D02*
X147568859Y-95863833D01*
D19*
X130029372Y-95936787D02*
X129491618Y-95936787D01*
X129760495Y-95936787D02*
X129760495Y-94995717D01*
X129670869Y-95130155D01*
X129581243Y-95219781D01*
X129491618Y-95264594D01*
M02*
