M48
; DRILL file {KiCad 5.1.2} date 23.10.2020 15:37:44
; FORMAT={-:-/ absolute / metric / decimal}
; #@! TF.CreationDate,2020-10-23T15:37:44+02:00
; #@! TF.GenerationSoftware,Kicad,Pcbnew,5.1.2
; #@! TF.FileFunction,Plated,1,2,PTH
FMAT,2
METRIC
T1C0.610
T2C0.813
T3C0.914
T4C1.016
%
G90
G05
T1
X119.583Y-92.807
X124.663Y-87.727
X125.552Y-116.81
X126.695Y-104.11
X127.965Y-105.38
X129.235Y-104.999
X129.997Y-90.394
X140.411Y-116.302
X146.888Y-118.08
X158.318Y-103.221
X166.7Y-111.603
X176.352Y-102.332
X182.194Y-92.553
T2
X188.671Y-106.904
X188.671Y-114.524
X196.291Y-106.904
X196.291Y-114.524
X99.771Y-108.174
X99.771Y-115.794
X102.311Y-108.174
X102.311Y-115.794
X104.851Y-108.174
X104.851Y-115.794
X107.391Y-108.174
X107.391Y-115.794
X109.931Y-108.174
X109.931Y-115.794
X112.471Y-108.174
X112.471Y-115.794
X115.011Y-108.174
X115.011Y-115.794
X117.551Y-108.174
X117.551Y-115.794
X183.591Y-106.904
X183.591Y-109.444
X131.521Y-95.474
X134.061Y-95.474
X136.601Y-95.474
X139.141Y-95.474
X141.681Y-95.474
X144.221Y-95.474
X123.901Y-99.284
X126.441Y-99.284
X182.321Y-90.394
X182.321Y-98.014
X184.861Y-90.394
X184.861Y-98.014
X187.401Y-90.394
X187.401Y-98.014
X189.941Y-90.394
X189.941Y-98.014
X192.481Y-90.394
X192.481Y-98.014
X195.021Y-90.394
X195.021Y-98.014
X197.561Y-90.394
X197.561Y-98.014
X141.681Y-117.064
X149.301Y-117.064
X181.051Y-101.824
X181.051Y-109.444
X99.771Y-101.824
X99.771Y-104.364
X131.521Y-117.064
X139.141Y-117.064
X179.781Y-92.934
X179.781Y-95.474
X128.981Y-99.284
X128.981Y-114.524
X131.521Y-99.284
X131.521Y-114.524
X134.061Y-99.284
X134.061Y-114.524
X136.601Y-99.284
X136.601Y-114.524
X139.141Y-99.284
X139.141Y-114.524
X141.681Y-99.284
X141.681Y-114.524
X144.221Y-99.284
X144.221Y-114.524
X146.761Y-99.284
X146.761Y-114.524
X149.301Y-99.284
X149.301Y-114.524
X151.841Y-99.284
X151.841Y-114.524
X154.381Y-99.284
X154.381Y-114.524
X156.921Y-99.284
X156.921Y-114.524
X159.461Y-99.284
X159.461Y-114.524
X162.001Y-99.284
X162.001Y-114.524
X164.541Y-99.284
X164.541Y-114.524
X167.081Y-99.284
X167.081Y-114.524
X169.621Y-99.284
X169.621Y-114.524
X172.161Y-99.284
X172.161Y-114.524
X174.701Y-99.284
X174.701Y-114.524
X177.241Y-99.284
X177.241Y-114.524
X99.771Y-89.124
X99.771Y-96.744
X102.311Y-89.124
X102.311Y-96.744
X104.851Y-89.124
X104.851Y-96.744
X107.391Y-89.124
X107.391Y-96.744
X109.931Y-89.124
X109.931Y-96.744
X112.471Y-89.124
X112.471Y-96.744
X115.011Y-89.124
X115.011Y-96.744
X117.551Y-89.124
X117.551Y-96.744
T3
X127.711Y-90.394
X127.711Y-92.934
X127.711Y-95.474
X122.631Y-90.394
X122.631Y-92.934
X122.631Y-95.474
T4
X102.311Y-101.824
X102.311Y-104.364
X104.851Y-101.824
X104.851Y-104.364
X107.391Y-101.824
X107.391Y-104.364
X109.931Y-101.824
X109.931Y-104.364
X112.471Y-101.824
X112.471Y-104.364
X115.011Y-101.824
X115.011Y-104.364
X117.551Y-101.824
X117.551Y-104.364
X120.091Y-101.824
X120.091Y-104.364
X135.331Y-89.124
X135.331Y-91.664
X137.871Y-89.124
X137.871Y-91.664
X140.411Y-89.124
X140.411Y-91.664
X142.951Y-89.124
X142.951Y-91.664
X145.491Y-89.124
X145.491Y-91.664
X148.031Y-89.124
X148.031Y-91.664
X150.571Y-89.124
X150.571Y-91.664
X153.111Y-89.124
X153.111Y-91.664
X155.651Y-89.124
X155.651Y-91.664
X158.191Y-89.124
X158.191Y-91.664
X160.731Y-89.124
X160.731Y-91.664
X163.271Y-89.124
X163.271Y-91.664
X165.811Y-89.124
X165.811Y-91.664
X168.351Y-89.124
X168.351Y-91.664
X170.891Y-89.124
X170.891Y-91.664
X173.431Y-89.124
X173.431Y-91.664
X175.971Y-89.124
X175.971Y-91.664
X98.501Y-120.874
X101.041Y-120.874
X103.581Y-120.874
X106.121Y-120.874
X108.661Y-120.874
X111.201Y-120.874
X113.741Y-120.874
X116.281Y-120.874
X118.821Y-120.874
X121.361Y-120.874
X123.901Y-120.874
X126.441Y-120.874
X128.981Y-120.874
X131.521Y-120.874
X134.061Y-120.874
X136.601Y-120.874
X139.141Y-120.874
X141.681Y-120.874
X144.221Y-120.874
X146.761Y-120.874
X149.301Y-120.874
X151.841Y-120.874
X154.381Y-120.874
X156.921Y-120.874
X159.461Y-120.874
X162.001Y-120.874
X164.541Y-120.874
X167.081Y-120.874
X169.621Y-120.874
X172.161Y-120.874
X174.701Y-120.874
X177.241Y-120.874
X179.781Y-120.874
X182.321Y-120.874
X184.861Y-120.874
X187.401Y-120.874
X189.941Y-120.874
X192.481Y-120.874
X195.021Y-120.874
X197.561Y-120.874
T0
M30
