G04 #@! TF.GenerationSoftware,KiCad,Pcbnew,5.1.2*
G04 #@! TF.CreationDate,2020-10-20T15:01:19+02:00*
G04 #@! TF.ProjectId,RC2014 Floppy WD37C65,52433230-3134-4204-966c-6f7070792057,rev?*
G04 #@! TF.SameCoordinates,Original*
G04 #@! TF.FileFunction,Legend,Top*
G04 #@! TF.FilePolarity,Positive*
%FSLAX46Y46*%
G04 Gerber Fmt 4.6, Leading zero omitted, Abs format (unit mm)*
G04 Created by KiCad (PCBNEW 5.1.2) date 2020-10-20 15:01:19*
%MOMM*%
%LPD*%
G04 APERTURE LIST*
%ADD10C,0.065024*%
%ADD11C,0.142240*%
%ADD12C,0.152400*%
%ADD13C,0.254000*%
%ADD14C,0.304800*%
%ADD15C,0.100000*%
%ADD16C,0.127000*%
%ADD17C,0.120650*%
%ADD18C,0.099060*%
%ADD19C,0.118872*%
G04 APERTURE END LIST*
D10*
X119649865Y-97787486D02*
X119649865Y-97530100D01*
X120054330Y-97419791D02*
X120054330Y-97787486D01*
X119282170Y-97787486D01*
X119282170Y-97419791D01*
X119282170Y-96941787D02*
X119282170Y-96868248D01*
X119318940Y-96794709D01*
X119355709Y-96757940D01*
X119429248Y-96721170D01*
X119576326Y-96684401D01*
X119760174Y-96684401D01*
X119907252Y-96721170D01*
X119980791Y-96757940D01*
X120017560Y-96794709D01*
X120054330Y-96868248D01*
X120054330Y-96941787D01*
X120017560Y-97015326D01*
X119980791Y-97052096D01*
X119907252Y-97088865D01*
X119760174Y-97125635D01*
X119576326Y-97125635D01*
X119429248Y-97088865D01*
X119355709Y-97052096D01*
X119318940Y-97015326D01*
X119282170Y-96941787D01*
X117440791Y-98616252D02*
X117477560Y-98653022D01*
X117514330Y-98763330D01*
X117514330Y-98836869D01*
X117477560Y-98947178D01*
X117404021Y-99020717D01*
X117330482Y-99057486D01*
X117183404Y-99094256D01*
X117073096Y-99094256D01*
X116926018Y-99057486D01*
X116852479Y-99020717D01*
X116778940Y-98947178D01*
X116742170Y-98836869D01*
X116742170Y-98763330D01*
X116778940Y-98653022D01*
X116815709Y-98616252D01*
X116742170Y-98138248D02*
X116742170Y-98064709D01*
X116778940Y-97991170D01*
X116815709Y-97954401D01*
X116889248Y-97917631D01*
X117036326Y-97880862D01*
X117220174Y-97880862D01*
X117367252Y-97917631D01*
X117440791Y-97954401D01*
X117477560Y-97991170D01*
X117514330Y-98064709D01*
X117514330Y-98138248D01*
X117477560Y-98211787D01*
X117440791Y-98248557D01*
X117367252Y-98285326D01*
X117220174Y-98322096D01*
X117036326Y-98322096D01*
X116889248Y-98285326D01*
X116815709Y-98248557D01*
X116778940Y-98211787D01*
X116742170Y-98138248D01*
X114753713Y-99094256D02*
X114753713Y-98726561D01*
X114974330Y-99167795D02*
X114202170Y-98910408D01*
X114974330Y-98653022D01*
X114202170Y-98248557D02*
X114202170Y-98175018D01*
X114238940Y-98101479D01*
X114275709Y-98064709D01*
X114349248Y-98027940D01*
X114496326Y-97991170D01*
X114680174Y-97991170D01*
X114827252Y-98027940D01*
X114900791Y-98064709D01*
X114937560Y-98101479D01*
X114974330Y-98175018D01*
X114974330Y-98248557D01*
X114937560Y-98322096D01*
X114900791Y-98358865D01*
X114827252Y-98395635D01*
X114680174Y-98432404D01*
X114496326Y-98432404D01*
X114349248Y-98395635D01*
X114275709Y-98358865D01*
X114238940Y-98322096D01*
X114202170Y-98248557D01*
X111993096Y-98947178D02*
X111956326Y-99020717D01*
X111919557Y-99057486D01*
X111846018Y-99094256D01*
X111809248Y-99094256D01*
X111735709Y-99057486D01*
X111698940Y-99020717D01*
X111662170Y-98947178D01*
X111662170Y-98800100D01*
X111698940Y-98726561D01*
X111735709Y-98689791D01*
X111809248Y-98653022D01*
X111846018Y-98653022D01*
X111919557Y-98689791D01*
X111956326Y-98726561D01*
X111993096Y-98800100D01*
X111993096Y-98947178D01*
X112029865Y-99020717D01*
X112066635Y-99057486D01*
X112140174Y-99094256D01*
X112287252Y-99094256D01*
X112360791Y-99057486D01*
X112397560Y-99020717D01*
X112434330Y-98947178D01*
X112434330Y-98800100D01*
X112397560Y-98726561D01*
X112360791Y-98689791D01*
X112287252Y-98653022D01*
X112140174Y-98653022D01*
X112066635Y-98689791D01*
X112029865Y-98726561D01*
X111993096Y-98800100D01*
X111662170Y-98175018D02*
X111662170Y-98101479D01*
X111698940Y-98027940D01*
X111735709Y-97991170D01*
X111809248Y-97954401D01*
X111956326Y-97917631D01*
X112140174Y-97917631D01*
X112287252Y-97954401D01*
X112360791Y-97991170D01*
X112397560Y-98027940D01*
X112434330Y-98101479D01*
X112434330Y-98175018D01*
X112397560Y-98248557D01*
X112360791Y-98285326D01*
X112287252Y-98322096D01*
X112140174Y-98358865D01*
X111956326Y-98358865D01*
X111809248Y-98322096D01*
X111735709Y-98285326D01*
X111698940Y-98248557D01*
X111662170Y-98175018D01*
X109122170Y-98726561D02*
X109122170Y-98873639D01*
X109158940Y-98947178D01*
X109195709Y-98983947D01*
X109306018Y-99057486D01*
X109453096Y-99094256D01*
X109747252Y-99094256D01*
X109820791Y-99057486D01*
X109857560Y-99020717D01*
X109894330Y-98947178D01*
X109894330Y-98800100D01*
X109857560Y-98726561D01*
X109820791Y-98689791D01*
X109747252Y-98653022D01*
X109563404Y-98653022D01*
X109489865Y-98689791D01*
X109453096Y-98726561D01*
X109416326Y-98800100D01*
X109416326Y-98947178D01*
X109453096Y-99020717D01*
X109489865Y-99057486D01*
X109563404Y-99094256D01*
X109122170Y-98175018D02*
X109122170Y-98101479D01*
X109158940Y-98027940D01*
X109195709Y-97991170D01*
X109269248Y-97954401D01*
X109416326Y-97917631D01*
X109600174Y-97917631D01*
X109747252Y-97954401D01*
X109820791Y-97991170D01*
X109857560Y-98027940D01*
X109894330Y-98101479D01*
X109894330Y-98175018D01*
X109857560Y-98248557D01*
X109820791Y-98285326D01*
X109747252Y-98322096D01*
X109600174Y-98358865D01*
X109416326Y-98358865D01*
X109269248Y-98322096D01*
X109195709Y-98285326D01*
X109158940Y-98248557D01*
X109122170Y-98175018D01*
X106839557Y-98726561D02*
X107354330Y-98726561D01*
X106545400Y-98910408D02*
X107096943Y-99094256D01*
X107096943Y-98616252D01*
X106582170Y-98175018D02*
X106582170Y-98101479D01*
X106618940Y-98027940D01*
X106655709Y-97991170D01*
X106729248Y-97954401D01*
X106876326Y-97917631D01*
X107060174Y-97917631D01*
X107207252Y-97954401D01*
X107280791Y-97991170D01*
X107317560Y-98027940D01*
X107354330Y-98101479D01*
X107354330Y-98175018D01*
X107317560Y-98248557D01*
X107280791Y-98285326D01*
X107207252Y-98322096D01*
X107060174Y-98358865D01*
X106876326Y-98358865D01*
X106729248Y-98322096D01*
X106655709Y-98285326D01*
X106618940Y-98248557D01*
X106582170Y-98175018D01*
X104115709Y-99094256D02*
X104078940Y-99057486D01*
X104042170Y-98983947D01*
X104042170Y-98800100D01*
X104078940Y-98726561D01*
X104115709Y-98689791D01*
X104189248Y-98653022D01*
X104262787Y-98653022D01*
X104373096Y-98689791D01*
X104814330Y-99131025D01*
X104814330Y-98653022D01*
X104042170Y-98175018D02*
X104042170Y-98101479D01*
X104078940Y-98027940D01*
X104115709Y-97991170D01*
X104189248Y-97954401D01*
X104336326Y-97917631D01*
X104520174Y-97917631D01*
X104667252Y-97954401D01*
X104740791Y-97991170D01*
X104777560Y-98027940D01*
X104814330Y-98101479D01*
X104814330Y-98175018D01*
X104777560Y-98248557D01*
X104740791Y-98285326D01*
X104667252Y-98322096D01*
X104520174Y-98358865D01*
X104336326Y-98358865D01*
X104189248Y-98322096D01*
X104115709Y-98285326D01*
X104078940Y-98248557D01*
X104042170Y-98175018D01*
X101502170Y-98910408D02*
X101502170Y-98836869D01*
X101538940Y-98763330D01*
X101575709Y-98726561D01*
X101649248Y-98689791D01*
X101796326Y-98653022D01*
X101980174Y-98653022D01*
X102127252Y-98689791D01*
X102200791Y-98726561D01*
X102237560Y-98763330D01*
X102274330Y-98836869D01*
X102274330Y-98910408D01*
X102237560Y-98983947D01*
X102200791Y-99020717D01*
X102127252Y-99057486D01*
X101980174Y-99094256D01*
X101796326Y-99094256D01*
X101649248Y-99057486D01*
X101575709Y-99020717D01*
X101538940Y-98983947D01*
X101502170Y-98910408D01*
X101502170Y-98175018D02*
X101502170Y-98101479D01*
X101538940Y-98027940D01*
X101575709Y-97991170D01*
X101649248Y-97954401D01*
X101796326Y-97917631D01*
X101980174Y-97917631D01*
X102127252Y-97954401D01*
X102200791Y-97991170D01*
X102237560Y-98027940D01*
X102274330Y-98101479D01*
X102274330Y-98175018D01*
X102237560Y-98248557D01*
X102200791Y-98285326D01*
X102127252Y-98322096D01*
X101980174Y-98358865D01*
X101796326Y-98358865D01*
X101649248Y-98322096D01*
X101575709Y-98285326D01*
X101538940Y-98248557D01*
X101502170Y-98175018D01*
X98464330Y-118107486D02*
X97692170Y-118107486D01*
X97692170Y-117813330D01*
X97728940Y-117739791D01*
X97765709Y-117703022D01*
X97839248Y-117666252D01*
X97949557Y-117666252D01*
X98023096Y-117703022D01*
X98059865Y-117739791D01*
X98096635Y-117813330D01*
X98096635Y-118107486D01*
X98464330Y-117335326D02*
X97692170Y-117335326D01*
X98464330Y-116967631D02*
X97692170Y-116967631D01*
X98464330Y-116526397D01*
X97692170Y-116526397D01*
X98464330Y-115754237D02*
X98464330Y-116195471D01*
X98464330Y-115974854D02*
X97692170Y-115974854D01*
X97802479Y-116048393D01*
X97876018Y-116121932D01*
X97912787Y-116195471D01*
D11*
X153444856Y-103157100D02*
X153766589Y-104283166D01*
X154088322Y-103478833D01*
X154410056Y-104283166D01*
X154731789Y-103157100D01*
X155214389Y-103157100D02*
X155536122Y-104283166D01*
X155857856Y-103478833D01*
X156179589Y-104283166D01*
X156501322Y-103157100D01*
X156983922Y-103157100D02*
X157305656Y-104283166D01*
X157627389Y-103478833D01*
X157949122Y-104283166D01*
X158270856Y-103157100D01*
X158914322Y-104122300D02*
X158994756Y-104202733D01*
X158914322Y-104283166D01*
X158833889Y-104202733D01*
X158914322Y-104122300D01*
X158914322Y-104283166D01*
X159638222Y-104202733D02*
X159799089Y-104283166D01*
X160120822Y-104283166D01*
X160281689Y-104202733D01*
X160362122Y-104041866D01*
X160362122Y-103961433D01*
X160281689Y-103800566D01*
X160120822Y-103720133D01*
X159879522Y-103720133D01*
X159718656Y-103639700D01*
X159638222Y-103478833D01*
X159638222Y-103398400D01*
X159718656Y-103237533D01*
X159879522Y-103157100D01*
X160120822Y-103157100D01*
X160281689Y-103237533D01*
X161086022Y-104283166D02*
X161086022Y-103157100D01*
X161086022Y-103317966D02*
X161166456Y-103237533D01*
X161327322Y-103157100D01*
X161568622Y-103157100D01*
X161729489Y-103237533D01*
X161809922Y-103398400D01*
X161809922Y-104283166D01*
X161809922Y-103398400D02*
X161890356Y-103237533D01*
X162051222Y-103157100D01*
X162292522Y-103157100D01*
X162453389Y-103237533D01*
X162533822Y-103398400D01*
X162533822Y-104283166D01*
X163338156Y-104283166D02*
X163338156Y-102594066D01*
X163338156Y-103237533D02*
X163499022Y-103157100D01*
X163820756Y-103157100D01*
X163981622Y-103237533D01*
X164062056Y-103317966D01*
X164142489Y-103478833D01*
X164142489Y-103961433D01*
X164062056Y-104122300D01*
X163981622Y-104202733D01*
X163820756Y-104283166D01*
X163499022Y-104283166D01*
X163338156Y-104202733D01*
X165590289Y-104283166D02*
X165590289Y-103398400D01*
X165509856Y-103237533D01*
X165348989Y-103157100D01*
X165027256Y-103157100D01*
X164866389Y-103237533D01*
X165590289Y-104202733D02*
X165429422Y-104283166D01*
X165027256Y-104283166D01*
X164866389Y-104202733D01*
X164785956Y-104041866D01*
X164785956Y-103881000D01*
X164866389Y-103720133D01*
X165027256Y-103639700D01*
X165429422Y-103639700D01*
X165590289Y-103559266D01*
X166394622Y-104283166D02*
X166394622Y-102594066D01*
X166555489Y-103639700D02*
X167038089Y-104283166D01*
X167038089Y-103157100D02*
X166394622Y-103800566D01*
X168405456Y-104202733D02*
X168244589Y-104283166D01*
X167922856Y-104283166D01*
X167761989Y-104202733D01*
X167681556Y-104041866D01*
X167681556Y-103398400D01*
X167761989Y-103237533D01*
X167922856Y-103157100D01*
X168244589Y-103157100D01*
X168405456Y-103237533D01*
X168485889Y-103398400D01*
X168485889Y-103559266D01*
X167681556Y-103720133D01*
X169209789Y-104283166D02*
X169209789Y-103157100D01*
X169209789Y-103478833D02*
X169290222Y-103317966D01*
X169370656Y-103237533D01*
X169531522Y-103157100D01*
X169692389Y-103157100D01*
X170255422Y-104122300D02*
X170335856Y-104202733D01*
X170255422Y-104283166D01*
X170174989Y-104202733D01*
X170255422Y-104122300D01*
X170255422Y-104283166D01*
X171783656Y-104202733D02*
X171622789Y-104283166D01*
X171301056Y-104283166D01*
X171140189Y-104202733D01*
X171059756Y-104122300D01*
X170979322Y-103961433D01*
X170979322Y-103478833D01*
X171059756Y-103317966D01*
X171140189Y-103237533D01*
X171301056Y-103157100D01*
X171622789Y-103157100D01*
X171783656Y-103237533D01*
X172748856Y-104283166D02*
X172587989Y-104202733D01*
X172507556Y-104122300D01*
X172427122Y-103961433D01*
X172427122Y-103478833D01*
X172507556Y-103317966D01*
X172587989Y-103237533D01*
X172748856Y-103157100D01*
X172990156Y-103157100D01*
X173151022Y-103237533D01*
X173231456Y-103317966D01*
X173311889Y-103478833D01*
X173311889Y-103961433D01*
X173231456Y-104122300D01*
X173151022Y-104202733D01*
X172990156Y-104283166D01*
X172748856Y-104283166D01*
X174035789Y-104283166D02*
X174035789Y-103157100D01*
X174035789Y-103317966D02*
X174116222Y-103237533D01*
X174277089Y-103157100D01*
X174518389Y-103157100D01*
X174679256Y-103237533D01*
X174759689Y-103398400D01*
X174759689Y-104283166D01*
X174759689Y-103398400D02*
X174840122Y-103237533D01*
X175000989Y-103157100D01*
X175242289Y-103157100D01*
X175403156Y-103237533D01*
X175483589Y-103398400D01*
X175483589Y-104283166D01*
D12*
X104216100Y-100553600D02*
X105486100Y-100553600D01*
X106121100Y-101188600D02*
X105486100Y-100553600D01*
X102946100Y-100553600D02*
X103581100Y-101188600D01*
X101676100Y-100553600D02*
X102946100Y-100553600D01*
X101041100Y-101188600D02*
X101676100Y-100553600D01*
X103581100Y-101188600D02*
X104216100Y-100553600D01*
X101041100Y-104998600D02*
X101041100Y-101188600D01*
X105486100Y-105633600D02*
X106121100Y-104998600D01*
X101676100Y-105633600D02*
X101041100Y-104998600D01*
X102946100Y-105633600D02*
X101676100Y-105633600D01*
X103581100Y-104998600D02*
X102946100Y-105633600D01*
X104216100Y-105633600D02*
X103581100Y-104998600D01*
X105486100Y-105633600D02*
X104216100Y-105633600D01*
X108026100Y-100553600D02*
X108661100Y-101188600D01*
X106756100Y-100553600D02*
X108026100Y-100553600D01*
X106121100Y-101188600D02*
X106756100Y-100553600D01*
X111836100Y-100553600D02*
X113106100Y-100553600D01*
X113741100Y-101188600D02*
X113106100Y-100553600D01*
X110566100Y-100553600D02*
X111201100Y-101188600D01*
X109296100Y-100553600D02*
X110566100Y-100553600D01*
X108661100Y-101188600D02*
X109296100Y-100553600D01*
X111201100Y-101188600D02*
X111836100Y-100553600D01*
X115646100Y-100553600D02*
X116281100Y-101188600D01*
X114376100Y-100553600D02*
X115646100Y-100553600D01*
X113741100Y-101188600D02*
X114376100Y-100553600D01*
X119456100Y-100553600D02*
X120726100Y-100553600D01*
X121361100Y-101188600D02*
X120726100Y-100553600D01*
X121361100Y-104998600D02*
X121361100Y-101188600D01*
X118186100Y-100553600D02*
X118821100Y-101188600D01*
X116916100Y-100553600D02*
X118186100Y-100553600D01*
X116281100Y-101188600D02*
X116916100Y-100553600D01*
X118821100Y-101188600D02*
X119456100Y-100553600D01*
X106756100Y-105633600D02*
X106121100Y-104998600D01*
X108026100Y-105633600D02*
X106756100Y-105633600D01*
X108661100Y-104998600D02*
X108026100Y-105633600D01*
X113106100Y-105633600D02*
X113741100Y-104998600D01*
X109296100Y-105633600D02*
X108661100Y-104998600D01*
X110566100Y-105633600D02*
X109296100Y-105633600D01*
X111201100Y-104998600D02*
X110566100Y-105633600D01*
X111836100Y-105633600D02*
X111201100Y-104998600D01*
X113106100Y-105633600D02*
X111836100Y-105633600D01*
X114376100Y-105633600D02*
X113741100Y-104998600D01*
X115646100Y-105633600D02*
X114376100Y-105633600D01*
X116281100Y-104998600D02*
X115646100Y-105633600D01*
X120726100Y-105633600D02*
X121361100Y-104998600D01*
X116916100Y-105633600D02*
X116281100Y-104998600D01*
X118186100Y-105633600D02*
X116916100Y-105633600D01*
X118821100Y-104998600D02*
X118186100Y-105633600D01*
X119456100Y-105633600D02*
X118821100Y-104998600D01*
X120726100Y-105633600D02*
X119456100Y-105633600D01*
X179781100Y-93949600D02*
X179781100Y-93822600D01*
D13*
X179781100Y-93949600D02*
X179019100Y-93949600D01*
X180543100Y-93949600D02*
X179781100Y-93949600D01*
X179781100Y-94457600D02*
X179019100Y-94457600D01*
X179781100Y-94457600D02*
X180543100Y-94457600D01*
D12*
X179781100Y-94584600D02*
X179781100Y-94457600D01*
X178511100Y-92044600D02*
G75*
G02X178765100Y-91790600I254000J0D01*
G01*
X178765100Y-96616600D02*
G75*
G02X178511100Y-96362600I0J254000D01*
G01*
X181051100Y-92044600D02*
G75*
G03X180797100Y-91790600I-254000J0D01*
G01*
X180797100Y-96616600D02*
G75*
G03X181051100Y-96362600I0J254000D01*
G01*
X180797100Y-91790600D02*
X178765100Y-91790600D01*
X180797100Y-96616600D02*
X178765100Y-96616600D01*
X178511100Y-96362600D02*
X178511100Y-92044600D01*
X181051100Y-92044600D02*
X181051100Y-96362600D01*
X99771100Y-103347600D02*
X99771100Y-103474600D01*
D13*
X99771100Y-103347600D02*
X100533100Y-103347600D01*
X99009100Y-103347600D02*
X99771100Y-103347600D01*
X99771100Y-102839600D02*
X100533100Y-102839600D01*
X99771100Y-102839600D02*
X99009100Y-102839600D01*
D12*
X99771100Y-102712600D02*
X99771100Y-102839600D01*
X101041100Y-105252600D02*
G75*
G02X100787100Y-105506600I-254000J0D01*
G01*
X100787100Y-100680600D02*
G75*
G02X101041100Y-100934600I0J-254000D01*
G01*
X98501100Y-105252600D02*
G75*
G03X98755100Y-105506600I254000J0D01*
G01*
X98755100Y-100680600D02*
G75*
G03X98501100Y-100934600I0J-254000D01*
G01*
X98755100Y-105506600D02*
X100787100Y-105506600D01*
X98755100Y-100680600D02*
X100787100Y-100680600D01*
X101041100Y-100934600D02*
X101041100Y-105252600D01*
X98501100Y-105252600D02*
X98501100Y-100934600D01*
X98501100Y-112999600D02*
G75*
G03X98501100Y-110967600I0J1016000D01*
G01*
X98501100Y-114904600D02*
X98501100Y-112999600D01*
X98501100Y-109062600D02*
X98501100Y-110967600D01*
X118821100Y-109062600D02*
X118821100Y-114904600D01*
X98501100Y-114904600D02*
X118821100Y-114904600D01*
X118821100Y-109062600D02*
X98501100Y-109062600D01*
X177241100Y-92298600D02*
X176606100Y-92933600D01*
X176606100Y-87853600D02*
X177241100Y-88488600D01*
X177241100Y-88488600D02*
X177241100Y-92298600D01*
X175336100Y-92933600D02*
X174701100Y-92298600D01*
X176606100Y-92933600D02*
X175336100Y-92933600D01*
X171526100Y-92933600D02*
X170256100Y-92933600D01*
X169621100Y-92298600D02*
X170256100Y-92933600D01*
X172796100Y-92933600D02*
X172161100Y-92298600D01*
X174066100Y-92933600D02*
X172796100Y-92933600D01*
X174701100Y-92298600D02*
X174066100Y-92933600D01*
X172161100Y-92298600D02*
X171526100Y-92933600D01*
X175336100Y-87853600D02*
X176606100Y-87853600D01*
X174701100Y-88488600D02*
X175336100Y-87853600D01*
X170256100Y-87853600D02*
X169621100Y-88488600D01*
X174066100Y-87853600D02*
X174701100Y-88488600D01*
X172796100Y-87853600D02*
X174066100Y-87853600D01*
X172161100Y-88488600D02*
X172796100Y-87853600D01*
X171526100Y-87853600D02*
X172161100Y-88488600D01*
X170256100Y-87853600D02*
X171526100Y-87853600D01*
X169621100Y-92298600D02*
X168986100Y-92933600D01*
X168986100Y-92933600D02*
X167716100Y-92933600D01*
X167716100Y-92933600D02*
X167081100Y-92298600D01*
X167081100Y-88488600D02*
X167716100Y-87853600D01*
X167716100Y-87853600D02*
X168986100Y-87853600D01*
X168986100Y-87853600D02*
X169621100Y-88488600D01*
X165176100Y-92933600D02*
X164541100Y-92298600D01*
X166446100Y-92933600D02*
X165176100Y-92933600D01*
X167081100Y-92298600D02*
X166446100Y-92933600D01*
X161366100Y-92933600D02*
X160096100Y-92933600D01*
X159461100Y-92298600D02*
X160096100Y-92933600D01*
X162636100Y-92933600D02*
X162001100Y-92298600D01*
X163906100Y-92933600D02*
X162636100Y-92933600D01*
X164541100Y-92298600D02*
X163906100Y-92933600D01*
X162001100Y-92298600D02*
X161366100Y-92933600D01*
X157556100Y-92933600D02*
X156921100Y-92298600D01*
X158826100Y-92933600D02*
X157556100Y-92933600D01*
X159461100Y-92298600D02*
X158826100Y-92933600D01*
X153746100Y-92933600D02*
X152476100Y-92933600D01*
X151841100Y-92298600D02*
X152476100Y-92933600D01*
X155016100Y-92933600D02*
X154381100Y-92298600D01*
X156286100Y-92933600D02*
X155016100Y-92933600D01*
X156921100Y-92298600D02*
X156286100Y-92933600D01*
X154381100Y-92298600D02*
X153746100Y-92933600D01*
X166446100Y-87853600D02*
X167081100Y-88488600D01*
X165176100Y-87853600D02*
X166446100Y-87853600D01*
X164541100Y-88488600D02*
X165176100Y-87853600D01*
X160096100Y-87853600D02*
X159461100Y-88488600D01*
X163906100Y-87853600D02*
X164541100Y-88488600D01*
X162636100Y-87853600D02*
X163906100Y-87853600D01*
X162001100Y-88488600D02*
X162636100Y-87853600D01*
X161366100Y-87853600D02*
X162001100Y-88488600D01*
X160096100Y-87853600D02*
X161366100Y-87853600D01*
X158826100Y-87853600D02*
X159461100Y-88488600D01*
X157556100Y-87853600D02*
X158826100Y-87853600D01*
X156921100Y-88488600D02*
X157556100Y-87853600D01*
X152476100Y-87853600D02*
X151841100Y-88488600D01*
X156286100Y-87853600D02*
X156921100Y-88488600D01*
X155016100Y-87853600D02*
X156286100Y-87853600D01*
X154381100Y-88488600D02*
X155016100Y-87853600D01*
X153746100Y-87853600D02*
X154381100Y-88488600D01*
X152476100Y-87853600D02*
X153746100Y-87853600D01*
X151841100Y-92298600D02*
X151206100Y-92933600D01*
X151206100Y-92933600D02*
X149936100Y-92933600D01*
X149936100Y-92933600D02*
X149301100Y-92298600D01*
X149301100Y-88488600D02*
X149936100Y-87853600D01*
X149936100Y-87853600D02*
X151206100Y-87853600D01*
X151206100Y-87853600D02*
X151841100Y-88488600D01*
X147396100Y-92933600D02*
X146761100Y-92298600D01*
X148666100Y-92933600D02*
X147396100Y-92933600D01*
X149301100Y-92298600D02*
X148666100Y-92933600D01*
X143586100Y-92933600D02*
X142316100Y-92933600D01*
X141681100Y-92298600D02*
X142316100Y-92933600D01*
X144856100Y-92933600D02*
X144221100Y-92298600D01*
X146126100Y-92933600D02*
X144856100Y-92933600D01*
X146761100Y-92298600D02*
X146126100Y-92933600D01*
X144221100Y-92298600D02*
X143586100Y-92933600D01*
X139776100Y-92933600D02*
X139141100Y-92298600D01*
X141046100Y-92933600D02*
X139776100Y-92933600D01*
X141681100Y-92298600D02*
X141046100Y-92933600D01*
X135966100Y-92933600D02*
X134696100Y-92933600D01*
X134061100Y-92298600D02*
X134696100Y-92933600D01*
X134061100Y-88488600D02*
X134061100Y-92298600D01*
X137236100Y-92933600D02*
X136601100Y-92298600D01*
X138506100Y-92933600D02*
X137236100Y-92933600D01*
X139141100Y-92298600D02*
X138506100Y-92933600D01*
X136601100Y-92298600D02*
X135966100Y-92933600D01*
X148666100Y-87853600D02*
X149301100Y-88488600D01*
X147396100Y-87853600D02*
X148666100Y-87853600D01*
X146761100Y-88488600D02*
X147396100Y-87853600D01*
X142316100Y-87853600D02*
X141681100Y-88488600D01*
X146126100Y-87853600D02*
X146761100Y-88488600D01*
X144856100Y-87853600D02*
X146126100Y-87853600D01*
X144221100Y-88488600D02*
X144856100Y-87853600D01*
X143586100Y-87853600D02*
X144221100Y-88488600D01*
X142316100Y-87853600D02*
X143586100Y-87853600D01*
X141046100Y-87853600D02*
X141681100Y-88488600D01*
X139776100Y-87853600D02*
X141046100Y-87853600D01*
X139141100Y-88488600D02*
X139776100Y-87853600D01*
X134696100Y-87853600D02*
X134061100Y-88488600D01*
X138506100Y-87853600D02*
X139141100Y-88488600D01*
X137236100Y-87853600D02*
X138506100Y-87853600D01*
X136601100Y-88488600D02*
X137236100Y-87853600D01*
X135966100Y-87853600D02*
X136601100Y-88488600D01*
X134696100Y-87853600D02*
X135966100Y-87853600D01*
D14*
X191541300Y-106903600D02*
X191541300Y-108173600D01*
D12*
X191541300Y-106903600D02*
X189941100Y-106903600D01*
D14*
X193420900Y-106903600D02*
X193420900Y-108173600D01*
D12*
X193420900Y-106903600D02*
X195021100Y-106903600D01*
D14*
X191541300Y-105633600D02*
X191541300Y-106903600D01*
X193420900Y-105633600D02*
X193420900Y-106903600D01*
X192785900Y-105633600D02*
X192150900Y-105633600D01*
X192785900Y-108173600D02*
X192785900Y-105633600D01*
X192150900Y-108173600D02*
X192785900Y-108173600D01*
X192150900Y-105633600D02*
X192150900Y-108173600D01*
D12*
X187147100Y-116682600D02*
G75*
G02X186512100Y-116047600I0J635000D01*
G01*
D13*
X187147100Y-104109600D02*
G75*
G03X185877100Y-105379600I0J-1270000D01*
G01*
D12*
X187147100Y-104744600D02*
G75*
G03X186512100Y-105379600I0J-635000D01*
G01*
D13*
X199085100Y-105379600D02*
G75*
G03X197815100Y-104109600I-1270000J0D01*
G01*
D12*
X198450100Y-105379600D02*
G75*
G03X197815100Y-104744600I-635000J0D01*
G01*
X198450100Y-116047600D02*
G75*
G02X197815100Y-116682600I-635000J0D01*
G01*
D13*
X199085100Y-116047600D02*
G75*
G02X197815100Y-117317600I-1270000J0D01*
G01*
D12*
X186512100Y-105379600D02*
X186512100Y-116047600D01*
X197815100Y-104744600D02*
X187147100Y-104744600D01*
X198450100Y-116047600D02*
X198450100Y-105379600D01*
X187147100Y-116682600D02*
X197815100Y-116682600D01*
D13*
X185877100Y-117317600D02*
X185877100Y-105379600D01*
X197815100Y-104109600D02*
X187147100Y-104109600D01*
X199085100Y-116047600D02*
X199085100Y-105379600D01*
X185877100Y-117317600D02*
X197815100Y-117317600D01*
D12*
X125425100Y-99283600D02*
X125552100Y-99283600D01*
D13*
X125425100Y-99283600D02*
X125425100Y-98521600D01*
X125425100Y-100045600D02*
X125425100Y-99283600D01*
X124917100Y-99283600D02*
X124917100Y-98521600D01*
X124917100Y-99283600D02*
X124917100Y-100045600D01*
D12*
X124790100Y-99283600D02*
X124917100Y-99283600D01*
X127330100Y-98013600D02*
G75*
G02X127584100Y-98267600I0J-254000D01*
G01*
X122758100Y-98267600D02*
G75*
G02X123012100Y-98013600I254000J0D01*
G01*
X127330100Y-100553600D02*
G75*
G03X127584100Y-100299600I0J254000D01*
G01*
X122758100Y-100299600D02*
G75*
G03X123012100Y-100553600I254000J0D01*
G01*
X127584100Y-100299600D02*
X127584100Y-98267600D01*
X122758100Y-100299600D02*
X122758100Y-98267600D01*
X123012100Y-98013600D02*
X127330100Y-98013600D01*
X127330100Y-100553600D02*
X123012100Y-100553600D01*
X183591100Y-107919600D02*
X183591100Y-107792600D01*
D13*
X183591100Y-107919600D02*
X182829100Y-107919600D01*
X184353100Y-107919600D02*
X183591100Y-107919600D01*
X183591100Y-108427600D02*
X182829100Y-108427600D01*
X183591100Y-108427600D02*
X184353100Y-108427600D01*
D12*
X183591100Y-108554600D02*
X183591100Y-108427600D01*
X182321100Y-106014600D02*
G75*
G02X182575100Y-105760600I254000J0D01*
G01*
X182575100Y-110586600D02*
G75*
G02X182321100Y-110332600I0J254000D01*
G01*
X184861100Y-106014600D02*
G75*
G03X184607100Y-105760600I-254000J0D01*
G01*
X184607100Y-110586600D02*
G75*
G03X184861100Y-110332600I0J254000D01*
G01*
X184607100Y-105760600D02*
X182575100Y-105760600D01*
X184607100Y-110586600D02*
X182575100Y-110586600D01*
X182321100Y-110332600D02*
X182321100Y-106014600D01*
X184861100Y-106014600D02*
X184861100Y-110332600D01*
X127711100Y-108046600D02*
G75*
G03X127711100Y-106014600I0J1016000D01*
G01*
X127711100Y-113634600D02*
X127711100Y-108046600D01*
X127711100Y-100172600D02*
X127711100Y-106014600D01*
X178511100Y-100172600D02*
X178511100Y-113634600D01*
X127711100Y-113634600D02*
X178511100Y-113634600D01*
X178511100Y-100172600D02*
X127711100Y-100172600D01*
X98501100Y-93949600D02*
G75*
G03X98501100Y-91917600I0J1016000D01*
G01*
X98501100Y-95854600D02*
X98501100Y-93949600D01*
X98501100Y-90012600D02*
X98501100Y-91917600D01*
X118821100Y-90012600D02*
X118821100Y-95854600D01*
X98501100Y-95854600D02*
X118821100Y-95854600D01*
X118821100Y-90012600D02*
X98501100Y-90012600D01*
X181051100Y-95219600D02*
G75*
G03X181051100Y-93187600I0J1016000D01*
G01*
X181051100Y-97124600D02*
X181051100Y-95219600D01*
X181051100Y-91282600D02*
X181051100Y-93187600D01*
X198831100Y-91282600D02*
X198831100Y-97124600D01*
X181051100Y-97124600D02*
X198831100Y-97124600D01*
X198831100Y-91282600D02*
X181051100Y-91282600D01*
D15*
G36*
X138252100Y-116809600D02*
G01*
X137871100Y-116809600D01*
X137871100Y-117317600D01*
X138252100Y-117317600D01*
X138252100Y-116809600D01*
G37*
G36*
X132791100Y-116809600D02*
G01*
X132410100Y-116809600D01*
X132410100Y-117317600D01*
X132791100Y-117317600D01*
X132791100Y-116809600D01*
G37*
D12*
X132791100Y-116301600D02*
X132791100Y-117825600D01*
X133045100Y-116047600D02*
X133426100Y-116047600D01*
X133045100Y-118079600D02*
X133426100Y-118079600D01*
X133553100Y-116174600D02*
X137109100Y-116174600D01*
X133553100Y-116174600D02*
X133426100Y-116047600D01*
X133553100Y-117952600D02*
X137109100Y-117952600D01*
X133553100Y-117952600D02*
X133426100Y-118079600D01*
X137109100Y-116174600D02*
X137236100Y-116047600D01*
X137617100Y-116047600D02*
X137236100Y-116047600D01*
X137109100Y-117952600D02*
X137236100Y-118079600D01*
X137617100Y-118079600D02*
X137236100Y-118079600D01*
X137871100Y-116301600D02*
X137871100Y-117825600D01*
X132791100Y-117825600D02*
G75*
G03X133045100Y-118079600I254000J0D01*
G01*
X132791100Y-116301600D02*
G75*
G02X133045100Y-116047600I254000J0D01*
G01*
X137617100Y-116047600D02*
G75*
G02X137871100Y-116301600I0J-254000D01*
G01*
X137617100Y-118079600D02*
G75*
G03X137871100Y-117825600I0J254000D01*
G01*
X128981100Y-94457600D02*
X128981100Y-96489600D01*
X128981100Y-91917600D02*
X128981100Y-93949600D01*
X128727100Y-96743600D02*
X128981100Y-96489600D01*
X128981100Y-94457600D02*
X128727100Y-94203600D01*
X128727100Y-94203600D02*
X128981100Y-93949600D01*
X128981100Y-91917600D02*
X128727100Y-91663600D01*
X126441100Y-94457600D02*
X126441100Y-96489600D01*
X126695100Y-96743600D02*
X126441100Y-96489600D01*
X126441100Y-94457600D02*
X126695100Y-94203600D01*
X126695100Y-94203600D02*
X126441100Y-93949600D01*
X126441100Y-91917600D02*
X126441100Y-93949600D01*
X126441100Y-91917600D02*
X126695100Y-91663600D01*
X126695100Y-89123600D02*
X128727100Y-89123600D01*
X126441100Y-89377600D02*
X126695100Y-89123600D01*
X128981100Y-89377600D02*
X128727100Y-89123600D01*
X128727100Y-91663600D02*
X128981100Y-91409600D01*
X128981100Y-89377600D02*
X128981100Y-91409600D01*
X126695100Y-91663600D02*
X126441100Y-91409600D01*
X126441100Y-89377600D02*
X126441100Y-91409600D01*
X128727100Y-96743600D02*
X126695100Y-96743600D01*
X123901100Y-94457600D02*
X123901100Y-96489600D01*
X123901100Y-91917600D02*
X123901100Y-93949600D01*
X123647100Y-96743600D02*
X123901100Y-96489600D01*
X123901100Y-94457600D02*
X123647100Y-94203600D01*
X123647100Y-94203600D02*
X123901100Y-93949600D01*
X123901100Y-91917600D02*
X123647100Y-91663600D01*
X121361100Y-94457600D02*
X121361100Y-96489600D01*
X121615100Y-96743600D02*
X121361100Y-96489600D01*
X121361100Y-94457600D02*
X121615100Y-94203600D01*
X121615100Y-94203600D02*
X121361100Y-93949600D01*
X121361100Y-91917600D02*
X121361100Y-93949600D01*
X121361100Y-91917600D02*
X121615100Y-91663600D01*
X121615100Y-89123600D02*
X123647100Y-89123600D01*
X121361100Y-89377600D02*
X121615100Y-89123600D01*
X123901100Y-89377600D02*
X123647100Y-89123600D01*
X123647100Y-91663600D02*
X123901100Y-91409600D01*
X123901100Y-89377600D02*
X123901100Y-91409600D01*
X121615100Y-91663600D02*
X121361100Y-91409600D01*
X121361100Y-89377600D02*
X121361100Y-91409600D01*
X123647100Y-96743600D02*
X121615100Y-96743600D01*
D15*
G36*
X148412100Y-116809600D02*
G01*
X148031100Y-116809600D01*
X148031100Y-117317600D01*
X148412100Y-117317600D01*
X148412100Y-116809600D01*
G37*
G36*
X142951100Y-116809600D02*
G01*
X142570100Y-116809600D01*
X142570100Y-117317600D01*
X142951100Y-117317600D01*
X142951100Y-116809600D01*
G37*
D12*
X142951100Y-116301600D02*
X142951100Y-117825600D01*
X143205100Y-116047600D02*
X143586100Y-116047600D01*
X143205100Y-118079600D02*
X143586100Y-118079600D01*
X143713100Y-116174600D02*
X147269100Y-116174600D01*
X143713100Y-116174600D02*
X143586100Y-116047600D01*
X143713100Y-117952600D02*
X147269100Y-117952600D01*
X143713100Y-117952600D02*
X143586100Y-118079600D01*
X147269100Y-116174600D02*
X147396100Y-116047600D01*
X147777100Y-116047600D02*
X147396100Y-116047600D01*
X147269100Y-117952600D02*
X147396100Y-118079600D01*
X147777100Y-118079600D02*
X147396100Y-118079600D01*
X148031100Y-116301600D02*
X148031100Y-117825600D01*
X142951100Y-117825600D02*
G75*
G03X143205100Y-118079600I254000J0D01*
G01*
X142951100Y-116301600D02*
G75*
G02X143205100Y-116047600I254000J0D01*
G01*
X147777100Y-116047600D02*
G75*
G02X148031100Y-116301600I0J-254000D01*
G01*
X147777100Y-118079600D02*
G75*
G03X148031100Y-117825600I0J254000D01*
G01*
D15*
G36*
X181305100Y-108554600D02*
G01*
X181305100Y-108173600D01*
X180797100Y-108173600D01*
X180797100Y-108554600D01*
X181305100Y-108554600D01*
G37*
G36*
X181305100Y-103093600D02*
G01*
X181305100Y-102712600D01*
X180797100Y-102712600D01*
X180797100Y-103093600D01*
X181305100Y-103093600D01*
G37*
D12*
X181813100Y-103093600D02*
X180289100Y-103093600D01*
X182067100Y-103347600D02*
X182067100Y-103728600D01*
X180035100Y-103347600D02*
X180035100Y-103728600D01*
X181940100Y-103855600D02*
X181940100Y-107411600D01*
X181940100Y-103855600D02*
X182067100Y-103728600D01*
X180162100Y-103855600D02*
X180162100Y-107411600D01*
X180162100Y-103855600D02*
X180035100Y-103728600D01*
X181940100Y-107411600D02*
X182067100Y-107538600D01*
X182067100Y-107919600D02*
X182067100Y-107538600D01*
X180162100Y-107411600D02*
X180035100Y-107538600D01*
X180035100Y-107919600D02*
X180035100Y-107538600D01*
X181813100Y-108173600D02*
X180289100Y-108173600D01*
X180289100Y-103093600D02*
G75*
G03X180035100Y-103347600I0J-254000D01*
G01*
X181813100Y-103093600D02*
G75*
G02X182067100Y-103347600I0J-254000D01*
G01*
X182067100Y-107919600D02*
G75*
G02X181813100Y-108173600I-254000J0D01*
G01*
X180035100Y-107919600D02*
G75*
G03X180289100Y-108173600I254000J0D01*
G01*
X130632100Y-94584600D02*
X130632100Y-96362600D01*
X132410100Y-94584600D02*
X130632100Y-94584600D01*
X130759100Y-96489600D02*
X144983100Y-96489600D01*
X130759100Y-94457600D02*
X144983100Y-94457600D01*
X145491100Y-94965600D02*
X145491100Y-95981600D01*
X130759101Y-96489599D02*
G75*
G02X130251100Y-95981600I-1J508000D01*
G01*
X145491101Y-94965601D02*
G75*
G03X144983100Y-94457600I-508001J0D01*
G01*
X145491101Y-95981599D02*
G75*
G02X144983100Y-96489600I-508001J0D01*
G01*
X130759101Y-94457601D02*
G75*
G03X130251100Y-94965600I-1J-508000D01*
G01*
X132410100Y-96362600D02*
X130632100Y-96362600D01*
X132410100Y-94584600D02*
X132410100Y-96362600D01*
X130251100Y-94965600D02*
X130251100Y-95981600D01*
D16*
X104582888Y-105957147D02*
X103893459Y-105957147D01*
X104238173Y-105957147D02*
X104238173Y-104750647D01*
X104123269Y-104923004D01*
X104008364Y-105037909D01*
X103893459Y-105095361D01*
X105617030Y-104750647D02*
X105387221Y-104750647D01*
X105272316Y-104808100D01*
X105214864Y-104865552D01*
X105099959Y-105037909D01*
X105042507Y-105267719D01*
X105042507Y-105727338D01*
X105099959Y-105842242D01*
X105157411Y-105899695D01*
X105272316Y-105957147D01*
X105502126Y-105957147D01*
X105617030Y-105899695D01*
X105674483Y-105842242D01*
X105731935Y-105727338D01*
X105731935Y-105440076D01*
X105674483Y-105325171D01*
X105617030Y-105267719D01*
X105502126Y-105210266D01*
X105272316Y-105210266D01*
X105157411Y-105267719D01*
X105099959Y-105325171D01*
X105042507Y-105440076D01*
X121600888Y-98845147D02*
X120911459Y-98845147D01*
X121256173Y-98845147D02*
X121256173Y-97638647D01*
X121141269Y-97811004D01*
X121026364Y-97925909D01*
X120911459Y-97983361D01*
X180104142Y-90361407D02*
X180161595Y-90418859D01*
X180219047Y-90591216D01*
X180219047Y-90706121D01*
X180161595Y-90878478D01*
X180046690Y-90993383D01*
X179931785Y-91050835D01*
X179701976Y-91108288D01*
X179529619Y-91108288D01*
X179299809Y-91050835D01*
X179184904Y-90993383D01*
X179070000Y-90878478D01*
X179012547Y-90706121D01*
X179012547Y-90591216D01*
X179070000Y-90418859D01*
X179127452Y-90361407D01*
X179127452Y-89901788D02*
X179070000Y-89844335D01*
X179012547Y-89729430D01*
X179012547Y-89442169D01*
X179070000Y-89327264D01*
X179127452Y-89269811D01*
X179242357Y-89212359D01*
X179357261Y-89212359D01*
X179529619Y-89269811D01*
X180219047Y-89959240D01*
X180219047Y-89212359D01*
X100157642Y-99270759D02*
X100215095Y-99328211D01*
X100272547Y-99500569D01*
X100272547Y-99615473D01*
X100215095Y-99787830D01*
X100100190Y-99902735D01*
X99985285Y-99960188D01*
X99755476Y-100017640D01*
X99583119Y-100017640D01*
X99353309Y-99960188D01*
X99238404Y-99902735D01*
X99123500Y-99787830D01*
X99066047Y-99615473D01*
X99066047Y-99500569D01*
X99123500Y-99328211D01*
X99180952Y-99270759D01*
X99066047Y-98868592D02*
X99066047Y-98121711D01*
X99525666Y-98523878D01*
X99525666Y-98351521D01*
X99583119Y-98236616D01*
X99640571Y-98179164D01*
X99755476Y-98121711D01*
X100042738Y-98121711D01*
X100157642Y-98179164D01*
X100215095Y-98236616D01*
X100272547Y-98351521D01*
X100272547Y-98696235D01*
X100215095Y-98811140D01*
X100157642Y-98868592D01*
D17*
X112670867Y-112243647D02*
X112670867Y-111037147D01*
X113934820Y-112128742D02*
X113877367Y-112186195D01*
X113705010Y-112243647D01*
X113590106Y-112243647D01*
X113417748Y-112186195D01*
X113302844Y-112071290D01*
X113245391Y-111956385D01*
X113187939Y-111726576D01*
X113187939Y-111554219D01*
X113245391Y-111324409D01*
X113302844Y-111209504D01*
X113417748Y-111094600D01*
X113590106Y-111037147D01*
X113705010Y-111037147D01*
X113877367Y-111094600D01*
X113934820Y-111152052D01*
X115083867Y-112243647D02*
X114394439Y-112243647D01*
X114739153Y-112243647D02*
X114739153Y-111037147D01*
X114624248Y-111209504D01*
X114509344Y-111324409D01*
X114394439Y-111381861D01*
X101418879Y-111354647D02*
X102223212Y-111354647D01*
X101706141Y-112561147D01*
X103199903Y-111756814D02*
X103199903Y-112561147D01*
X102912641Y-111297195D02*
X102625379Y-112158980D01*
X103372260Y-112158980D01*
X103831879Y-112561147D02*
X103831879Y-111354647D01*
X103831879Y-111929171D02*
X104521308Y-111929171D01*
X104521308Y-112561147D02*
X104521308Y-111354647D01*
X105785260Y-112446242D02*
X105727808Y-112503695D01*
X105555451Y-112561147D01*
X105440546Y-112561147D01*
X105268189Y-112503695D01*
X105153284Y-112388790D01*
X105095832Y-112273885D01*
X105038379Y-112044076D01*
X105038379Y-111871719D01*
X105095832Y-111641909D01*
X105153284Y-111527004D01*
X105268189Y-111412100D01*
X105440546Y-111354647D01*
X105555451Y-111354647D01*
X105727808Y-111412100D01*
X105785260Y-111469552D01*
X106129974Y-111354647D02*
X106819403Y-111354647D01*
X106474689Y-112561147D02*
X106474689Y-111354647D01*
X107853546Y-112561147D02*
X107164117Y-112561147D01*
X107508832Y-112561147D02*
X107508832Y-111354647D01*
X107393927Y-111527004D01*
X107279022Y-111641909D01*
X107164117Y-111699361D01*
X108255712Y-111354647D02*
X109002593Y-111354647D01*
X108600427Y-111814266D01*
X108772784Y-111814266D01*
X108887689Y-111871719D01*
X108945141Y-111929171D01*
X109002593Y-112044076D01*
X109002593Y-112331338D01*
X108945141Y-112446242D01*
X108887689Y-112503695D01*
X108772784Y-112561147D01*
X108428070Y-112561147D01*
X108313165Y-112503695D01*
X108255712Y-112446242D01*
X109692022Y-111871719D02*
X109577117Y-111814266D01*
X109519665Y-111756814D01*
X109462212Y-111641909D01*
X109462212Y-111584457D01*
X109519665Y-111469552D01*
X109577117Y-111412100D01*
X109692022Y-111354647D01*
X109921832Y-111354647D01*
X110036736Y-111412100D01*
X110094189Y-111469552D01*
X110151641Y-111584457D01*
X110151641Y-111641909D01*
X110094189Y-111756814D01*
X110036736Y-111814266D01*
X109921832Y-111871719D01*
X109692022Y-111871719D01*
X109577117Y-111929171D01*
X109519665Y-111986623D01*
X109462212Y-112101528D01*
X109462212Y-112331338D01*
X109519665Y-112446242D01*
X109577117Y-112503695D01*
X109692022Y-112561147D01*
X109921832Y-112561147D01*
X110036736Y-112503695D01*
X110094189Y-112446242D01*
X110151641Y-112331338D01*
X110151641Y-112101528D01*
X110094189Y-111986623D01*
X110036736Y-111929171D01*
X109921832Y-111871719D01*
X110668712Y-112561147D02*
X110668712Y-111354647D01*
X111358141Y-112561147D01*
X111358141Y-111354647D01*
X166578951Y-93895171D02*
X166176784Y-93895171D01*
X166176784Y-94527147D02*
X166176784Y-93320647D01*
X166751308Y-93320647D01*
X167785451Y-94527147D02*
X167210927Y-94527147D01*
X167210927Y-93320647D01*
X168417427Y-93320647D02*
X168647236Y-93320647D01*
X168762141Y-93378100D01*
X168877046Y-93493004D01*
X168934498Y-93722814D01*
X168934498Y-94124980D01*
X168877046Y-94354790D01*
X168762141Y-94469695D01*
X168647236Y-94527147D01*
X168417427Y-94527147D01*
X168302522Y-94469695D01*
X168187617Y-94354790D01*
X168130165Y-94124980D01*
X168130165Y-93722814D01*
X168187617Y-93493004D01*
X168302522Y-93378100D01*
X168417427Y-93320647D01*
X169451570Y-94527147D02*
X169451570Y-93320647D01*
X169911189Y-93320647D01*
X170026093Y-93378100D01*
X170083546Y-93435552D01*
X170140998Y-93550457D01*
X170140998Y-93722814D01*
X170083546Y-93837719D01*
X170026093Y-93895171D01*
X169911189Y-93952623D01*
X169451570Y-93952623D01*
X170658070Y-94527147D02*
X170658070Y-93320647D01*
X171117689Y-93320647D01*
X171232593Y-93378100D01*
X171290046Y-93435552D01*
X171347498Y-93550457D01*
X171347498Y-93722814D01*
X171290046Y-93837719D01*
X171232593Y-93895171D01*
X171117689Y-93952623D01*
X170658070Y-93952623D01*
X172094379Y-93952623D02*
X172094379Y-94527147D01*
X171692212Y-93320647D02*
X172094379Y-93952623D01*
X172496546Y-93320647D01*
X172783808Y-93320647D02*
X173530689Y-93320647D01*
X173128522Y-93780266D01*
X173300879Y-93780266D01*
X173415784Y-93837719D01*
X173473236Y-93895171D01*
X173530689Y-94010076D01*
X173530689Y-94297338D01*
X173473236Y-94412242D01*
X173415784Y-94469695D01*
X173300879Y-94527147D01*
X172956165Y-94527147D01*
X172841260Y-94469695D01*
X172783808Y-94412242D01*
X174564832Y-93722814D02*
X174564832Y-94527147D01*
X174277570Y-93263195D02*
X173990308Y-94124980D01*
X174737189Y-94124980D01*
D16*
X175210007Y-86208647D02*
X175956888Y-86208647D01*
X175554721Y-86668266D01*
X175727078Y-86668266D01*
X175841983Y-86725719D01*
X175899435Y-86783171D01*
X175956888Y-86898076D01*
X175956888Y-87185338D01*
X175899435Y-87300242D01*
X175841983Y-87357695D01*
X175727078Y-87415147D01*
X175382364Y-87415147D01*
X175267459Y-87357695D01*
X175210007Y-87300242D01*
X176991030Y-86610814D02*
X176991030Y-87415147D01*
X176703769Y-86151195D02*
X176416507Y-87012980D01*
X177163388Y-87012980D01*
X135824888Y-94527147D02*
X135135459Y-94527147D01*
X135480173Y-94527147D02*
X135480173Y-93320647D01*
X135365269Y-93493004D01*
X135250364Y-93607909D01*
X135135459Y-93665361D01*
X188402888Y-111214947D02*
X187713459Y-111214947D01*
X188058173Y-111214947D02*
X188058173Y-110008447D01*
X187943269Y-110180804D01*
X187828364Y-110295709D01*
X187713459Y-110353161D01*
X189437030Y-110008447D02*
X189207221Y-110008447D01*
X189092316Y-110065900D01*
X189034864Y-110123352D01*
X188919959Y-110295709D01*
X188862507Y-110525519D01*
X188862507Y-110985138D01*
X188919959Y-111100042D01*
X188977411Y-111157495D01*
X189092316Y-111214947D01*
X189322126Y-111214947D01*
X189437030Y-111157495D01*
X189494483Y-111100042D01*
X189551935Y-110985138D01*
X189551935Y-110697876D01*
X189494483Y-110582971D01*
X189437030Y-110525519D01*
X189322126Y-110468066D01*
X189092316Y-110468066D01*
X188977411Y-110525519D01*
X188919959Y-110582971D01*
X188862507Y-110697876D01*
X190988245Y-111214947D02*
X190988245Y-110008447D01*
X191390411Y-110870233D01*
X191792578Y-110008447D01*
X191792578Y-111214947D01*
X192367102Y-111214947D02*
X192367102Y-110008447D01*
X192884173Y-111214947D02*
X192884173Y-110582971D01*
X192826721Y-110468066D01*
X192711816Y-110410614D01*
X192539459Y-110410614D01*
X192424554Y-110468066D01*
X192367102Y-110525519D01*
X193343792Y-110410614D02*
X193975769Y-110410614D01*
X193343792Y-111214947D01*
X193975769Y-111214947D01*
X190688888Y-116371147D02*
X189999459Y-116371147D01*
X190344173Y-116371147D02*
X190344173Y-115164647D01*
X190229269Y-115337004D01*
X190114364Y-115451909D01*
X189999459Y-115509361D01*
X125995692Y-101841742D02*
X125938240Y-101899195D01*
X125765883Y-101956647D01*
X125650978Y-101956647D01*
X125478621Y-101899195D01*
X125363716Y-101784290D01*
X125306264Y-101669385D01*
X125248811Y-101439576D01*
X125248811Y-101267219D01*
X125306264Y-101037409D01*
X125363716Y-100922504D01*
X125478621Y-100807600D01*
X125650978Y-100750147D01*
X125765883Y-100750147D01*
X125938240Y-100807600D01*
X125995692Y-100865052D01*
X127144740Y-101956647D02*
X126455311Y-101956647D01*
X126800026Y-101956647D02*
X126800026Y-100750147D01*
X126685121Y-100922504D01*
X126570216Y-101037409D01*
X126455311Y-101094861D01*
X183634340Y-111620742D02*
X183576888Y-111678195D01*
X183404530Y-111735647D01*
X183289626Y-111735647D01*
X183117269Y-111678195D01*
X183002364Y-111563290D01*
X182944911Y-111448385D01*
X182887459Y-111218576D01*
X182887459Y-111046219D01*
X182944911Y-110816409D01*
X183002364Y-110701504D01*
X183117269Y-110586600D01*
X183289626Y-110529147D01*
X183404530Y-110529147D01*
X183576888Y-110586600D01*
X183634340Y-110644052D01*
X184668483Y-110931314D02*
X184668483Y-111735647D01*
X184381221Y-110471695D02*
X184093959Y-111333480D01*
X184840840Y-111333480D01*
D11*
X127122666Y-113012977D02*
X125433566Y-113012977D01*
X126961800Y-111243444D02*
X127042233Y-111323877D01*
X127122666Y-111565177D01*
X127122666Y-111726044D01*
X127042233Y-111967344D01*
X126881366Y-112128210D01*
X126720500Y-112208644D01*
X126398766Y-112289077D01*
X126157466Y-112289077D01*
X125835733Y-112208644D01*
X125674866Y-112128210D01*
X125514000Y-111967344D01*
X125433566Y-111726044D01*
X125433566Y-111565177D01*
X125514000Y-111323877D01*
X125594433Y-111243444D01*
X125996600Y-109795644D02*
X127122666Y-109795644D01*
X125353133Y-110197810D02*
X126559633Y-110599977D01*
X126559633Y-109554344D01*
X136299856Y-106150066D02*
X136702022Y-107839166D01*
X137023756Y-106632666D01*
X137345489Y-107839166D01*
X137747656Y-106150066D01*
X138391122Y-107839166D02*
X138391122Y-106150066D01*
X138793289Y-106150066D01*
X139034589Y-106230500D01*
X139195456Y-106391366D01*
X139275889Y-106552233D01*
X139356322Y-106873966D01*
X139356322Y-107115266D01*
X139275889Y-107437000D01*
X139195456Y-107597866D01*
X139034589Y-107758733D01*
X138793289Y-107839166D01*
X138391122Y-107839166D01*
X139919356Y-106150066D02*
X140964989Y-106150066D01*
X140401956Y-106793533D01*
X140643256Y-106793533D01*
X140804122Y-106873966D01*
X140884556Y-106954400D01*
X140964989Y-107115266D01*
X140964989Y-107517433D01*
X140884556Y-107678300D01*
X140804122Y-107758733D01*
X140643256Y-107839166D01*
X140160656Y-107839166D01*
X139999789Y-107758733D01*
X139919356Y-107678300D01*
X141528022Y-106150066D02*
X142654089Y-106150066D01*
X141930189Y-107839166D01*
X144262756Y-107678300D02*
X144182322Y-107758733D01*
X143941022Y-107839166D01*
X143780156Y-107839166D01*
X143538856Y-107758733D01*
X143377989Y-107597866D01*
X143297556Y-107437000D01*
X143217122Y-107115266D01*
X143217122Y-106873966D01*
X143297556Y-106552233D01*
X143377989Y-106391366D01*
X143538856Y-106230500D01*
X143780156Y-106150066D01*
X143941022Y-106150066D01*
X144182322Y-106230500D01*
X144262756Y-106310933D01*
X145710556Y-106150066D02*
X145388822Y-106150066D01*
X145227956Y-106230500D01*
X145147522Y-106310933D01*
X144986656Y-106552233D01*
X144906222Y-106873966D01*
X144906222Y-107517433D01*
X144986656Y-107678300D01*
X145067089Y-107758733D01*
X145227956Y-107839166D01*
X145549689Y-107839166D01*
X145710556Y-107758733D01*
X145790989Y-107678300D01*
X145871422Y-107517433D01*
X145871422Y-107115266D01*
X145790989Y-106954400D01*
X145710556Y-106873966D01*
X145549689Y-106793533D01*
X145227956Y-106793533D01*
X145067089Y-106873966D01*
X144986656Y-106954400D01*
X144906222Y-107115266D01*
X147399656Y-106150066D02*
X146595322Y-106150066D01*
X146514889Y-106954400D01*
X146595322Y-106873966D01*
X146756189Y-106793533D01*
X147158356Y-106793533D01*
X147319222Y-106873966D01*
X147399656Y-106954400D01*
X147480089Y-107115266D01*
X147480089Y-107517433D01*
X147399656Y-107678300D01*
X147319222Y-107758733D01*
X147158356Y-107839166D01*
X146756189Y-107839166D01*
X146595322Y-107758733D01*
X146514889Y-107678300D01*
X149169189Y-107678300D02*
X149088756Y-107758733D01*
X148847456Y-107839166D01*
X148686589Y-107839166D01*
X148445289Y-107758733D01*
X148284422Y-107597866D01*
X148203989Y-107437000D01*
X148123556Y-107115266D01*
X148123556Y-106873966D01*
X148203989Y-106552233D01*
X148284422Y-106391366D01*
X148445289Y-106230500D01*
X148686589Y-106150066D01*
X148847456Y-106150066D01*
X149088756Y-106230500D01*
X149169189Y-106310933D01*
D16*
X113399811Y-93922547D02*
X113399811Y-92716047D01*
X114663764Y-93807642D02*
X114606311Y-93865095D01*
X114433954Y-93922547D01*
X114319050Y-93922547D01*
X114146692Y-93865095D01*
X114031788Y-93750190D01*
X113974335Y-93635285D01*
X113916883Y-93405476D01*
X113916883Y-93233119D01*
X113974335Y-93003309D01*
X114031788Y-92888404D01*
X114146692Y-92773500D01*
X114319050Y-92716047D01*
X114433954Y-92716047D01*
X114606311Y-92773500D01*
X114663764Y-92830952D01*
X115123383Y-92830952D02*
X115180835Y-92773500D01*
X115295740Y-92716047D01*
X115583002Y-92716047D01*
X115697907Y-92773500D01*
X115755359Y-92830952D01*
X115812811Y-92945857D01*
X115812811Y-93060761D01*
X115755359Y-93233119D01*
X115065930Y-93922547D01*
X115812811Y-93922547D01*
X101423007Y-92304647D02*
X102227340Y-92304647D01*
X101710269Y-93511147D01*
X103204030Y-92706814D02*
X103204030Y-93511147D01*
X102916769Y-92247195D02*
X102629507Y-93108980D01*
X103376388Y-93108980D01*
X103836007Y-93511147D02*
X103836007Y-92304647D01*
X103836007Y-92879171D02*
X104525435Y-92879171D01*
X104525435Y-93511147D02*
X104525435Y-92304647D01*
X105789388Y-93396242D02*
X105731935Y-93453695D01*
X105559578Y-93511147D01*
X105444673Y-93511147D01*
X105272316Y-93453695D01*
X105157411Y-93338790D01*
X105099959Y-93223885D01*
X105042507Y-92994076D01*
X105042507Y-92821719D01*
X105099959Y-92591909D01*
X105157411Y-92477004D01*
X105272316Y-92362100D01*
X105444673Y-92304647D01*
X105559578Y-92304647D01*
X105731935Y-92362100D01*
X105789388Y-92419552D01*
X106134102Y-92304647D02*
X106823530Y-92304647D01*
X106478816Y-93511147D02*
X106478816Y-92304647D01*
X107857673Y-93511147D02*
X107168245Y-93511147D01*
X107512959Y-93511147D02*
X107512959Y-92304647D01*
X107398054Y-92477004D01*
X107283150Y-92591909D01*
X107168245Y-92649361D01*
X108259840Y-92304647D02*
X109006721Y-92304647D01*
X108604554Y-92764266D01*
X108776911Y-92764266D01*
X108891816Y-92821719D01*
X108949269Y-92879171D01*
X109006721Y-92994076D01*
X109006721Y-93281338D01*
X108949269Y-93396242D01*
X108891816Y-93453695D01*
X108776911Y-93511147D01*
X108432197Y-93511147D01*
X108317292Y-93453695D01*
X108259840Y-93396242D01*
X109696150Y-92821719D02*
X109581245Y-92764266D01*
X109523792Y-92706814D01*
X109466340Y-92591909D01*
X109466340Y-92534457D01*
X109523792Y-92419552D01*
X109581245Y-92362100D01*
X109696150Y-92304647D01*
X109925959Y-92304647D01*
X110040864Y-92362100D01*
X110098316Y-92419552D01*
X110155769Y-92534457D01*
X110155769Y-92591909D01*
X110098316Y-92706814D01*
X110040864Y-92764266D01*
X109925959Y-92821719D01*
X109696150Y-92821719D01*
X109581245Y-92879171D01*
X109523792Y-92936623D01*
X109466340Y-93051528D01*
X109466340Y-93281338D01*
X109523792Y-93396242D01*
X109581245Y-93453695D01*
X109696150Y-93511147D01*
X109925959Y-93511147D01*
X110040864Y-93453695D01*
X110098316Y-93396242D01*
X110155769Y-93281338D01*
X110155769Y-93051528D01*
X110098316Y-92936623D01*
X110040864Y-92879171D01*
X109925959Y-92821719D01*
X110672840Y-93511147D02*
X110672840Y-92304647D01*
X111362269Y-93511147D01*
X111362269Y-92304647D01*
X194679811Y-95192547D02*
X194679811Y-93986047D01*
X195943764Y-95077642D02*
X195886311Y-95135095D01*
X195713954Y-95192547D01*
X195599050Y-95192547D01*
X195426692Y-95135095D01*
X195311788Y-95020190D01*
X195254335Y-94905285D01*
X195196883Y-94675476D01*
X195196883Y-94503119D01*
X195254335Y-94273309D01*
X195311788Y-94158404D01*
X195426692Y-94043500D01*
X195599050Y-93986047D01*
X195713954Y-93986047D01*
X195886311Y-94043500D01*
X195943764Y-94100952D01*
X196345930Y-93986047D02*
X197092811Y-93986047D01*
X196690645Y-94445666D01*
X196863002Y-94445666D01*
X196977907Y-94503119D01*
X197035359Y-94560571D01*
X197092811Y-94675476D01*
X197092811Y-94962738D01*
X197035359Y-95077642D01*
X196977907Y-95135095D01*
X196863002Y-95192547D01*
X196518288Y-95192547D01*
X196403383Y-95135095D01*
X196345930Y-95077642D01*
X183465007Y-93574647D02*
X184269340Y-93574647D01*
X183752269Y-94781147D01*
X185246030Y-93976814D02*
X185246030Y-94781147D01*
X184958769Y-93517195D02*
X184671507Y-94378980D01*
X185418388Y-94378980D01*
X185878007Y-94781147D02*
X185878007Y-93574647D01*
X185878007Y-94149171D02*
X186567435Y-94149171D01*
X186567435Y-94781147D02*
X186567435Y-93574647D01*
X187831388Y-94666242D02*
X187773935Y-94723695D01*
X187601578Y-94781147D01*
X187486673Y-94781147D01*
X187314316Y-94723695D01*
X187199411Y-94608790D01*
X187141959Y-94493885D01*
X187084507Y-94264076D01*
X187084507Y-94091719D01*
X187141959Y-93861909D01*
X187199411Y-93747004D01*
X187314316Y-93632100D01*
X187486673Y-93574647D01*
X187601578Y-93574647D01*
X187773935Y-93632100D01*
X187831388Y-93689552D01*
X188176102Y-93574647D02*
X188865530Y-93574647D01*
X188520816Y-94781147D02*
X188520816Y-93574647D01*
X189899673Y-94781147D02*
X189210245Y-94781147D01*
X189554959Y-94781147D02*
X189554959Y-93574647D01*
X189440054Y-93747004D01*
X189325150Y-93861909D01*
X189210245Y-93919361D01*
X190359292Y-93689552D02*
X190416745Y-93632100D01*
X190531650Y-93574647D01*
X190818911Y-93574647D01*
X190933816Y-93632100D01*
X190991269Y-93689552D01*
X191048721Y-93804457D01*
X191048721Y-93919361D01*
X190991269Y-94091719D01*
X190301840Y-94781147D01*
X191048721Y-94781147D01*
X192140316Y-93574647D02*
X191565792Y-93574647D01*
X191508340Y-94149171D01*
X191565792Y-94091719D01*
X191680697Y-94034266D01*
X191967959Y-94034266D01*
X192082864Y-94091719D01*
X192140316Y-94149171D01*
X192197769Y-94264076D01*
X192197769Y-94551338D01*
X192140316Y-94666242D01*
X192082864Y-94723695D01*
X191967959Y-94781147D01*
X191680697Y-94781147D01*
X191565792Y-94723695D01*
X191508340Y-94666242D01*
X192714840Y-94781147D02*
X192714840Y-93574647D01*
X193404269Y-94781147D01*
X193404269Y-93574647D01*
D18*
X136731202Y-119255257D02*
X136417512Y-118807128D01*
X136193448Y-119255257D02*
X136193448Y-118314187D01*
X136551951Y-118314187D01*
X136641576Y-118359000D01*
X136686389Y-118403812D01*
X136731202Y-118493438D01*
X136731202Y-118627877D01*
X136686389Y-118717502D01*
X136641576Y-118762315D01*
X136551951Y-118807128D01*
X136193448Y-118807128D01*
X137627459Y-119255257D02*
X137089705Y-119255257D01*
X137358582Y-119255257D02*
X137358582Y-118314187D01*
X137268956Y-118448625D01*
X137179331Y-118538251D01*
X137089705Y-118583064D01*
X134517229Y-116849877D02*
X134517229Y-117477257D01*
X134293165Y-116491374D02*
X134069101Y-117163567D01*
X134651668Y-117163567D01*
X135054983Y-117432444D02*
X135054983Y-117477257D01*
X135010171Y-117566882D01*
X134965358Y-117611695D01*
X135368673Y-116536187D02*
X135996053Y-116536187D01*
X135592738Y-117477257D01*
X136354556Y-117477257D02*
X136354556Y-116536187D01*
X136444182Y-117118754D02*
X136713059Y-117477257D01*
X136713059Y-116849877D02*
X136354556Y-117208380D01*
D16*
X124796147Y-95775073D02*
X125657933Y-95775073D01*
X125830290Y-95832526D01*
X125945195Y-95947430D01*
X126002647Y-96119788D01*
X126002647Y-96234692D01*
X126002647Y-95200550D02*
X124796147Y-95200550D01*
X124796147Y-94740930D01*
X124853600Y-94626026D01*
X124911052Y-94568573D01*
X125025957Y-94511121D01*
X125198314Y-94511121D01*
X125313219Y-94568573D01*
X125370671Y-94626026D01*
X125428123Y-94740930D01*
X125428123Y-95200550D01*
X126002647Y-93362073D02*
X126002647Y-94051502D01*
X126002647Y-93706788D02*
X124796147Y-93706788D01*
X124968504Y-93821692D01*
X125083409Y-93936597D01*
X125140861Y-94051502D01*
D19*
X129392217Y-90181894D02*
X129392217Y-89599327D01*
X129750720Y-89913017D01*
X129750720Y-89778578D01*
X129795532Y-89688953D01*
X129840345Y-89644140D01*
X129929971Y-89599327D01*
X130154035Y-89599327D01*
X130243661Y-89644140D01*
X130288474Y-89688953D01*
X130333287Y-89778578D01*
X130333287Y-90047456D01*
X130288474Y-90137081D01*
X130243661Y-90181894D01*
X129481842Y-92677081D02*
X129437030Y-92632268D01*
X129392217Y-92542643D01*
X129392217Y-92318578D01*
X129437030Y-92228953D01*
X129481842Y-92184140D01*
X129571468Y-92139327D01*
X129661094Y-92139327D01*
X129795532Y-92184140D01*
X130333287Y-92721894D01*
X130333287Y-92139327D01*
X130333287Y-94679327D02*
X130333287Y-95217081D01*
X130333287Y-94948204D02*
X129392217Y-94948204D01*
X129526655Y-95037830D01*
X129616281Y-95127456D01*
X129661094Y-95217081D01*
D16*
X119716147Y-95775073D02*
X120577933Y-95775073D01*
X120750290Y-95832526D01*
X120865195Y-95947430D01*
X120922647Y-96119788D01*
X120922647Y-96234692D01*
X120922647Y-95200550D02*
X119716147Y-95200550D01*
X119716147Y-94740930D01*
X119773600Y-94626026D01*
X119831052Y-94568573D01*
X119945957Y-94511121D01*
X120118314Y-94511121D01*
X120233219Y-94568573D01*
X120290671Y-94626026D01*
X120348123Y-94740930D01*
X120348123Y-95200550D01*
X119831052Y-94051502D02*
X119773600Y-93994050D01*
X119716147Y-93879145D01*
X119716147Y-93591883D01*
X119773600Y-93476978D01*
X119831052Y-93419526D01*
X119945957Y-93362073D01*
X120060861Y-93362073D01*
X120233219Y-93419526D01*
X120922647Y-94108954D01*
X120922647Y-93362073D01*
D19*
X124312217Y-90181894D02*
X124312217Y-89599327D01*
X124670720Y-89913017D01*
X124670720Y-89778578D01*
X124715532Y-89688953D01*
X124760345Y-89644140D01*
X124849971Y-89599327D01*
X125074035Y-89599327D01*
X125163661Y-89644140D01*
X125208474Y-89688953D01*
X125253287Y-89778578D01*
X125253287Y-90047456D01*
X125208474Y-90137081D01*
X125163661Y-90181894D01*
X124401842Y-92677081D02*
X124357030Y-92632268D01*
X124312217Y-92542643D01*
X124312217Y-92318578D01*
X124357030Y-92228953D01*
X124401842Y-92184140D01*
X124491468Y-92139327D01*
X124581094Y-92139327D01*
X124715532Y-92184140D01*
X125253287Y-92721894D01*
X125253287Y-92139327D01*
X125253287Y-94679327D02*
X125253287Y-95217081D01*
X125253287Y-94948204D02*
X124312217Y-94948204D01*
X124446655Y-95037830D01*
X124536281Y-95127456D01*
X124581094Y-95217081D01*
D18*
X146891202Y-119255257D02*
X146577512Y-118807128D01*
X146353448Y-119255257D02*
X146353448Y-118314187D01*
X146711951Y-118314187D01*
X146801576Y-118359000D01*
X146846389Y-118403812D01*
X146891202Y-118493438D01*
X146891202Y-118627877D01*
X146846389Y-118717502D01*
X146801576Y-118762315D01*
X146711951Y-118807128D01*
X146353448Y-118807128D01*
X147249705Y-118403812D02*
X147294518Y-118359000D01*
X147384143Y-118314187D01*
X147608208Y-118314187D01*
X147697833Y-118359000D01*
X147742646Y-118403812D01*
X147787459Y-118493438D01*
X147787459Y-118583064D01*
X147742646Y-118717502D01*
X147204892Y-119255257D01*
X147787459Y-119255257D01*
X144677229Y-116849877D02*
X144677229Y-117477257D01*
X144453165Y-116491374D02*
X144229101Y-117163567D01*
X144811668Y-117163567D01*
X145214983Y-117432444D02*
X145214983Y-117477257D01*
X145170171Y-117566882D01*
X145125358Y-117611695D01*
X145528673Y-116536187D02*
X146156053Y-116536187D01*
X145752738Y-117477257D01*
X146514556Y-117477257D02*
X146514556Y-116536187D01*
X146604182Y-117118754D02*
X146873059Y-117477257D01*
X146873059Y-116849877D02*
X146514556Y-117208380D01*
X179710887Y-107347392D02*
X179262758Y-107661082D01*
X179710887Y-107885146D02*
X178769817Y-107885146D01*
X178769817Y-107526643D01*
X178814630Y-107437018D01*
X178859442Y-107392205D01*
X178949068Y-107347392D01*
X179083507Y-107347392D01*
X179173132Y-107392205D01*
X179217945Y-107437018D01*
X179262758Y-107526643D01*
X179262758Y-107885146D01*
X178769817Y-107033702D02*
X178769817Y-106451135D01*
X179128320Y-106764825D01*
X179128320Y-106630386D01*
X179173132Y-106540761D01*
X179217945Y-106495948D01*
X179307571Y-106451135D01*
X179531635Y-106451135D01*
X179621261Y-106495948D01*
X179666074Y-106540761D01*
X179710887Y-106630386D01*
X179710887Y-106899263D01*
X179666074Y-106988889D01*
X179621261Y-107033702D01*
X180861507Y-106567431D02*
X181488887Y-106567431D01*
X180503004Y-106791495D02*
X181175197Y-107015559D01*
X181175197Y-106432992D01*
X181444074Y-106029676D02*
X181488887Y-106029676D01*
X181578512Y-106074489D01*
X181623325Y-106119302D01*
X180547817Y-105715986D02*
X180547817Y-105088606D01*
X181488887Y-105491922D01*
X181488887Y-104730103D02*
X180547817Y-104730103D01*
X181130384Y-104640478D02*
X181488887Y-104371601D01*
X180861507Y-104371601D02*
X181220010Y-104730103D01*
D16*
X131310340Y-94146147D02*
X130908173Y-93571623D01*
X130620911Y-94146147D02*
X130620911Y-92939647D01*
X131080530Y-92939647D01*
X131195435Y-92997100D01*
X131252888Y-93054552D01*
X131310340Y-93169457D01*
X131310340Y-93341814D01*
X131252888Y-93456719D01*
X131195435Y-93514171D01*
X131080530Y-93571623D01*
X130620911Y-93571623D01*
X131827411Y-94146147D02*
X131827411Y-92939647D01*
X132516840Y-94146147D01*
X132516840Y-92939647D01*
X133723340Y-94146147D02*
X133033911Y-94146147D01*
X133378626Y-94146147D02*
X133378626Y-92939647D01*
X133263721Y-93112004D01*
X133148816Y-93226909D01*
X133033911Y-93284361D01*
X138237888Y-94146147D02*
X137548459Y-94146147D01*
X137893173Y-94146147D02*
X137893173Y-92939647D01*
X137778269Y-93112004D01*
X137663364Y-93226909D01*
X137548459Y-93284361D01*
X138754959Y-94146147D02*
X138754959Y-92939647D01*
X138869864Y-93686528D02*
X139214578Y-94146147D01*
X139214578Y-93341814D02*
X138754959Y-93801433D01*
D19*
X130029372Y-95936787D02*
X129491618Y-95936787D01*
X129760495Y-95936787D02*
X129760495Y-94995717D01*
X129670869Y-95130155D01*
X129581243Y-95219781D01*
X129491618Y-95264594D01*
M02*
