M48
; DRILL file {KiCad 5.1.6} date 10/23/20 21:04:11
; FORMAT={-:-/ absolute / metric / decimal}
; #@! TF.CreationDate,2020-10-23T21:04:11+02:00
; #@! TF.GenerationSoftware,Kicad,Pcbnew,5.1.6
; #@! TF.FileFunction,Plated,1,2,PTH
FMAT,2
METRIC
T1C0.610
T2C0.800
T3C0.813
T4C1.016
T5C1.397
T6C1.524
%
G90
G05
T1
X135.649Y-101.506
X139.776Y-112.301
X168.351Y-96.109
T2
X101.041Y-103.094
X163.068Y-94.204
X165.075Y-94.204
X167.081Y-94.204
X171.069Y-94.204
T3
X162.001Y-100.554
X164.541Y-100.554
X113.766Y-95.474
X116.281Y-92.934
X118.796Y-95.474
X146.761Y-100.554
X149.301Y-100.554
X120.091Y-106.904
X120.091Y-109.444
X142.951Y-96.744
X142.951Y-99.284
X113.741Y-106.904
X116.281Y-106.904
X134.061Y-105.634
X134.061Y-108.174
X132.791Y-110.714
X140.411Y-110.714
X112.471Y-101.824
X120.091Y-101.824
X179.781Y-104.364
X179.781Y-111.984
X101.041Y-95.474
X101.041Y-110.714
X108.661Y-95.474
X108.661Y-110.714
X182.321Y-94.204
X182.321Y-101.824
X182.321Y-104.364
X182.321Y-111.984
X137.871Y-105.634
X137.871Y-108.174
X132.791Y-92.934
X135.331Y-92.934
X122.631Y-103.094
X122.631Y-110.714
X125.171Y-103.094
X125.171Y-110.714
X127.711Y-103.094
X127.711Y-110.714
X130.251Y-103.094
X130.251Y-110.714
X162.001Y-103.094
X162.001Y-110.714
X164.541Y-103.094
X164.541Y-110.714
X167.081Y-103.094
X167.081Y-110.714
X169.621Y-103.094
X169.621Y-110.714
X172.161Y-103.094
X172.161Y-110.714
X174.701Y-103.094
X174.701Y-110.714
X177.241Y-103.094
X177.241Y-110.714
X142.951Y-103.094
X142.951Y-110.714
X145.491Y-103.094
X145.491Y-110.714
X148.031Y-103.094
X148.031Y-110.714
X150.571Y-103.094
X150.571Y-110.714
X153.111Y-103.094
X153.111Y-110.714
X155.651Y-103.094
X155.651Y-110.714
X158.191Y-103.094
X158.191Y-110.714
X122.631Y-92.934
X122.631Y-100.554
X125.171Y-92.934
X125.171Y-100.554
X127.711Y-92.934
X127.711Y-100.554
X130.251Y-92.934
X130.251Y-100.554
X132.791Y-95.474
X140.411Y-95.474
X132.791Y-100.554
X140.411Y-100.554
X132.791Y-98.014
X140.411Y-98.014
X146.761Y-95.474
X154.381Y-95.474
X112.471Y-104.364
X120.091Y-104.364
X179.781Y-94.204
X179.781Y-101.824
X184.861Y-94.204
X184.861Y-101.824
T4
X184.861Y-109.444
X184.861Y-111.984
X187.401Y-109.444
X187.401Y-111.984
X189.941Y-109.444
X189.941Y-111.984
X192.481Y-109.444
X192.481Y-111.984
X195.021Y-109.444
X195.021Y-111.984
X197.561Y-109.444
X197.561Y-111.984
X98.501Y-115.794
X101.041Y-115.794
X103.581Y-115.794
X106.121Y-115.794
X108.661Y-115.794
X111.201Y-115.794
X113.741Y-115.794
X116.281Y-115.794
X118.821Y-115.794
X121.361Y-115.794
X123.901Y-115.794
X126.441Y-115.794
X128.981Y-115.794
X131.521Y-115.794
X134.061Y-115.794
X136.601Y-115.794
X139.141Y-115.794
X141.681Y-115.794
X144.221Y-115.794
X146.761Y-115.794
X149.301Y-115.794
X151.841Y-115.794
X154.381Y-115.794
X156.921Y-115.794
X159.461Y-115.794
X162.001Y-115.794
X164.541Y-115.794
X167.081Y-115.794
X169.621Y-115.794
X172.161Y-115.794
X174.701Y-115.794
X177.241Y-115.794
X179.781Y-115.794
X182.321Y-115.794
X184.861Y-115.794
X187.401Y-115.794
X189.941Y-115.794
X192.481Y-115.794
X195.021Y-115.794
X197.561Y-115.794
X190.233Y-94.229
X194.729Y-94.229
T5
X159.283Y-94.204
X174.879Y-94.204
X188.976Y-96.718
X195.986Y-96.718
T6
X160.985Y-94.204
X173.177Y-94.204
T0
M30
