G04 #@! TF.GenerationSoftware,KiCad,Pcbnew,5.1.6*
G04 #@! TF.CreationDate,2020-10-23T21:04:08+02:00*
G04 #@! TF.ProjectId,RC2014 - Single Stepper_ Revision 2,52433230-3134-4202-9d20-53696e676c65,rev?*
G04 #@! TF.SameCoordinates,Original*
G04 #@! TF.FileFunction,Soldermask,Bot*
G04 #@! TF.FilePolarity,Negative*
%FSLAX46Y46*%
G04 Gerber Fmt 4.6, Leading zero omitted, Abs format (unit mm)*
G04 Created by KiCad (PCBNEW 5.1.6) date 2020-10-23 21:04:08*
%MOMM*%
%LPD*%
G01*
G04 APERTURE LIST*
%ADD10C,0.100000*%
G04 APERTURE END LIST*
D10*
G36*
X172330394Y-114180496D02*
G01*
X172450826Y-114217029D01*
X172493187Y-114229879D01*
X172643207Y-114310066D01*
X172643210Y-114310068D01*
X172643211Y-114310069D01*
X172774712Y-114417988D01*
X172882631Y-114549488D01*
X172882633Y-114549492D01*
X172882634Y-114549493D01*
X172962821Y-114699513D01*
X172962822Y-114699516D01*
X173012204Y-114862305D01*
X173024700Y-114989180D01*
X173024700Y-116598020D01*
X173012204Y-116724895D01*
X172962822Y-116887684D01*
X172962821Y-116887687D01*
X172882634Y-117037707D01*
X172882631Y-117037712D01*
X172774712Y-117169212D01*
X172643212Y-117277131D01*
X172643208Y-117277133D01*
X172643207Y-117277134D01*
X172493187Y-117357321D01*
X172493184Y-117357322D01*
X172330395Y-117406704D01*
X172161100Y-117423378D01*
X171991806Y-117406704D01*
X171829017Y-117357322D01*
X171829014Y-117357321D01*
X171678994Y-117277134D01*
X171678993Y-117277133D01*
X171678989Y-117277131D01*
X171547489Y-117169212D01*
X171439570Y-117037712D01*
X171439567Y-117037707D01*
X171359380Y-116887687D01*
X171359379Y-116887684D01*
X171309997Y-116724895D01*
X171297501Y-116598020D01*
X171297500Y-114989181D01*
X171309996Y-114862306D01*
X171359378Y-114699517D01*
X171359379Y-114699513D01*
X171439566Y-114549493D01*
X171439570Y-114549488D01*
X171547488Y-114417988D01*
X171678988Y-114310069D01*
X171678992Y-114310067D01*
X171678993Y-114310066D01*
X171829013Y-114229879D01*
X171829016Y-114229878D01*
X171991805Y-114180496D01*
X172161100Y-114163822D01*
X172330394Y-114180496D01*
G37*
G36*
X149470394Y-114180496D02*
G01*
X149590826Y-114217029D01*
X149633187Y-114229879D01*
X149783207Y-114310066D01*
X149783210Y-114310068D01*
X149783211Y-114310069D01*
X149914712Y-114417988D01*
X150022631Y-114549488D01*
X150022633Y-114549492D01*
X150022634Y-114549493D01*
X150102821Y-114699513D01*
X150102822Y-114699516D01*
X150152204Y-114862305D01*
X150164700Y-114989180D01*
X150164700Y-116598020D01*
X150152204Y-116724895D01*
X150102822Y-116887684D01*
X150102821Y-116887687D01*
X150022634Y-117037707D01*
X150022631Y-117037712D01*
X149914712Y-117169212D01*
X149783212Y-117277131D01*
X149783208Y-117277133D01*
X149783207Y-117277134D01*
X149633187Y-117357321D01*
X149633184Y-117357322D01*
X149470395Y-117406704D01*
X149301100Y-117423378D01*
X149131806Y-117406704D01*
X148969017Y-117357322D01*
X148969014Y-117357321D01*
X148818994Y-117277134D01*
X148818993Y-117277133D01*
X148818989Y-117277131D01*
X148687489Y-117169212D01*
X148579570Y-117037712D01*
X148579567Y-117037707D01*
X148499380Y-116887687D01*
X148499379Y-116887684D01*
X148449997Y-116724895D01*
X148437501Y-116598020D01*
X148437500Y-114989181D01*
X148449996Y-114862306D01*
X148499378Y-114699517D01*
X148499379Y-114699513D01*
X148579566Y-114549493D01*
X148579570Y-114549488D01*
X148687488Y-114417988D01*
X148818988Y-114310069D01*
X148818992Y-114310067D01*
X148818993Y-114310066D01*
X148969013Y-114229879D01*
X148969016Y-114229878D01*
X149131805Y-114180496D01*
X149301100Y-114163822D01*
X149470394Y-114180496D01*
G37*
G36*
X152010394Y-114180496D02*
G01*
X152130826Y-114217029D01*
X152173187Y-114229879D01*
X152323207Y-114310066D01*
X152323210Y-114310068D01*
X152323211Y-114310069D01*
X152454712Y-114417988D01*
X152562631Y-114549488D01*
X152562633Y-114549492D01*
X152562634Y-114549493D01*
X152642821Y-114699513D01*
X152642822Y-114699516D01*
X152692204Y-114862305D01*
X152704700Y-114989180D01*
X152704700Y-116598020D01*
X152692204Y-116724895D01*
X152642822Y-116887684D01*
X152642821Y-116887687D01*
X152562634Y-117037707D01*
X152562631Y-117037712D01*
X152454712Y-117169212D01*
X152323212Y-117277131D01*
X152323208Y-117277133D01*
X152323207Y-117277134D01*
X152173187Y-117357321D01*
X152173184Y-117357322D01*
X152010395Y-117406704D01*
X151841100Y-117423378D01*
X151671806Y-117406704D01*
X151509017Y-117357322D01*
X151509014Y-117357321D01*
X151358994Y-117277134D01*
X151358993Y-117277133D01*
X151358989Y-117277131D01*
X151227489Y-117169212D01*
X151119570Y-117037712D01*
X151119567Y-117037707D01*
X151039380Y-116887687D01*
X151039379Y-116887684D01*
X150989997Y-116724895D01*
X150977501Y-116598020D01*
X150977500Y-114989181D01*
X150989996Y-114862306D01*
X151039378Y-114699517D01*
X151039379Y-114699513D01*
X151119566Y-114549493D01*
X151119570Y-114549488D01*
X151227488Y-114417988D01*
X151358988Y-114310069D01*
X151358992Y-114310067D01*
X151358993Y-114310066D01*
X151509013Y-114229879D01*
X151509016Y-114229878D01*
X151671805Y-114180496D01*
X151841100Y-114163822D01*
X152010394Y-114180496D01*
G37*
G36*
X154550394Y-114180496D02*
G01*
X154670826Y-114217029D01*
X154713187Y-114229879D01*
X154863207Y-114310066D01*
X154863210Y-114310068D01*
X154863211Y-114310069D01*
X154994712Y-114417988D01*
X155102631Y-114549488D01*
X155102633Y-114549492D01*
X155102634Y-114549493D01*
X155182821Y-114699513D01*
X155182822Y-114699516D01*
X155232204Y-114862305D01*
X155244700Y-114989180D01*
X155244700Y-116598020D01*
X155232204Y-116724895D01*
X155182822Y-116887684D01*
X155182821Y-116887687D01*
X155102634Y-117037707D01*
X155102631Y-117037712D01*
X154994712Y-117169212D01*
X154863212Y-117277131D01*
X154863208Y-117277133D01*
X154863207Y-117277134D01*
X154713187Y-117357321D01*
X154713184Y-117357322D01*
X154550395Y-117406704D01*
X154381100Y-117423378D01*
X154211806Y-117406704D01*
X154049017Y-117357322D01*
X154049014Y-117357321D01*
X153898994Y-117277134D01*
X153898993Y-117277133D01*
X153898989Y-117277131D01*
X153767489Y-117169212D01*
X153659570Y-117037712D01*
X153659567Y-117037707D01*
X153579380Y-116887687D01*
X153579379Y-116887684D01*
X153529997Y-116724895D01*
X153517501Y-116598020D01*
X153517500Y-114989181D01*
X153529996Y-114862306D01*
X153579378Y-114699517D01*
X153579379Y-114699513D01*
X153659566Y-114549493D01*
X153659570Y-114549488D01*
X153767488Y-114417988D01*
X153898988Y-114310069D01*
X153898992Y-114310067D01*
X153898993Y-114310066D01*
X154049013Y-114229879D01*
X154049016Y-114229878D01*
X154211805Y-114180496D01*
X154381100Y-114163822D01*
X154550394Y-114180496D01*
G37*
G36*
X157090394Y-114180496D02*
G01*
X157210826Y-114217029D01*
X157253187Y-114229879D01*
X157403207Y-114310066D01*
X157403210Y-114310068D01*
X157403211Y-114310069D01*
X157534712Y-114417988D01*
X157642631Y-114549488D01*
X157642633Y-114549492D01*
X157642634Y-114549493D01*
X157722821Y-114699513D01*
X157722822Y-114699516D01*
X157772204Y-114862305D01*
X157784700Y-114989180D01*
X157784700Y-116598020D01*
X157772204Y-116724895D01*
X157722822Y-116887684D01*
X157722821Y-116887687D01*
X157642634Y-117037707D01*
X157642631Y-117037712D01*
X157534712Y-117169212D01*
X157403212Y-117277131D01*
X157403208Y-117277133D01*
X157403207Y-117277134D01*
X157253187Y-117357321D01*
X157253184Y-117357322D01*
X157090395Y-117406704D01*
X156921100Y-117423378D01*
X156751806Y-117406704D01*
X156589017Y-117357322D01*
X156589014Y-117357321D01*
X156438994Y-117277134D01*
X156438993Y-117277133D01*
X156438989Y-117277131D01*
X156307489Y-117169212D01*
X156199570Y-117037712D01*
X156199567Y-117037707D01*
X156119380Y-116887687D01*
X156119379Y-116887684D01*
X156069997Y-116724895D01*
X156057501Y-116598020D01*
X156057500Y-114989181D01*
X156069996Y-114862306D01*
X156119378Y-114699517D01*
X156119379Y-114699513D01*
X156199566Y-114549493D01*
X156199570Y-114549488D01*
X156307488Y-114417988D01*
X156438988Y-114310069D01*
X156438992Y-114310067D01*
X156438993Y-114310066D01*
X156589013Y-114229879D01*
X156589016Y-114229878D01*
X156751805Y-114180496D01*
X156921100Y-114163822D01*
X157090394Y-114180496D01*
G37*
G36*
X159630394Y-114180496D02*
G01*
X159750826Y-114217029D01*
X159793187Y-114229879D01*
X159943207Y-114310066D01*
X159943210Y-114310068D01*
X159943211Y-114310069D01*
X160074712Y-114417988D01*
X160182631Y-114549488D01*
X160182633Y-114549492D01*
X160182634Y-114549493D01*
X160262821Y-114699513D01*
X160262822Y-114699516D01*
X160312204Y-114862305D01*
X160324700Y-114989180D01*
X160324700Y-116598020D01*
X160312204Y-116724895D01*
X160262822Y-116887684D01*
X160262821Y-116887687D01*
X160182634Y-117037707D01*
X160182631Y-117037712D01*
X160074712Y-117169212D01*
X159943212Y-117277131D01*
X159943208Y-117277133D01*
X159943207Y-117277134D01*
X159793187Y-117357321D01*
X159793184Y-117357322D01*
X159630395Y-117406704D01*
X159461100Y-117423378D01*
X159291806Y-117406704D01*
X159129017Y-117357322D01*
X159129014Y-117357321D01*
X158978994Y-117277134D01*
X158978993Y-117277133D01*
X158978989Y-117277131D01*
X158847489Y-117169212D01*
X158739570Y-117037712D01*
X158739567Y-117037707D01*
X158659380Y-116887687D01*
X158659379Y-116887684D01*
X158609997Y-116724895D01*
X158597501Y-116598020D01*
X158597500Y-114989181D01*
X158609996Y-114862306D01*
X158659378Y-114699517D01*
X158659379Y-114699513D01*
X158739566Y-114549493D01*
X158739570Y-114549488D01*
X158847488Y-114417988D01*
X158978988Y-114310069D01*
X158978992Y-114310067D01*
X158978993Y-114310066D01*
X159129013Y-114229879D01*
X159129016Y-114229878D01*
X159291805Y-114180496D01*
X159461100Y-114163822D01*
X159630394Y-114180496D01*
G37*
G36*
X162170394Y-114180496D02*
G01*
X162290826Y-114217029D01*
X162333187Y-114229879D01*
X162483207Y-114310066D01*
X162483210Y-114310068D01*
X162483211Y-114310069D01*
X162614712Y-114417988D01*
X162722631Y-114549488D01*
X162722633Y-114549492D01*
X162722634Y-114549493D01*
X162802821Y-114699513D01*
X162802822Y-114699516D01*
X162852204Y-114862305D01*
X162864700Y-114989180D01*
X162864700Y-116598020D01*
X162852204Y-116724895D01*
X162802822Y-116887684D01*
X162802821Y-116887687D01*
X162722634Y-117037707D01*
X162722631Y-117037712D01*
X162614712Y-117169212D01*
X162483212Y-117277131D01*
X162483208Y-117277133D01*
X162483207Y-117277134D01*
X162333187Y-117357321D01*
X162333184Y-117357322D01*
X162170395Y-117406704D01*
X162001100Y-117423378D01*
X161831806Y-117406704D01*
X161669017Y-117357322D01*
X161669014Y-117357321D01*
X161518994Y-117277134D01*
X161518993Y-117277133D01*
X161518989Y-117277131D01*
X161387489Y-117169212D01*
X161279570Y-117037712D01*
X161279567Y-117037707D01*
X161199380Y-116887687D01*
X161199379Y-116887684D01*
X161149997Y-116724895D01*
X161137501Y-116598020D01*
X161137500Y-114989181D01*
X161149996Y-114862306D01*
X161199378Y-114699517D01*
X161199379Y-114699513D01*
X161279566Y-114549493D01*
X161279570Y-114549488D01*
X161387488Y-114417988D01*
X161518988Y-114310069D01*
X161518992Y-114310067D01*
X161518993Y-114310066D01*
X161669013Y-114229879D01*
X161669016Y-114229878D01*
X161831805Y-114180496D01*
X162001100Y-114163822D01*
X162170394Y-114180496D01*
G37*
G36*
X164710394Y-114180496D02*
G01*
X164830826Y-114217029D01*
X164873187Y-114229879D01*
X165023207Y-114310066D01*
X165023210Y-114310068D01*
X165023211Y-114310069D01*
X165154712Y-114417988D01*
X165262631Y-114549488D01*
X165262633Y-114549492D01*
X165262634Y-114549493D01*
X165342821Y-114699513D01*
X165342822Y-114699516D01*
X165392204Y-114862305D01*
X165404700Y-114989180D01*
X165404700Y-116598020D01*
X165392204Y-116724895D01*
X165342822Y-116887684D01*
X165342821Y-116887687D01*
X165262634Y-117037707D01*
X165262631Y-117037712D01*
X165154712Y-117169212D01*
X165023212Y-117277131D01*
X165023208Y-117277133D01*
X165023207Y-117277134D01*
X164873187Y-117357321D01*
X164873184Y-117357322D01*
X164710395Y-117406704D01*
X164541100Y-117423378D01*
X164371806Y-117406704D01*
X164209017Y-117357322D01*
X164209014Y-117357321D01*
X164058994Y-117277134D01*
X164058993Y-117277133D01*
X164058989Y-117277131D01*
X163927489Y-117169212D01*
X163819570Y-117037712D01*
X163819567Y-117037707D01*
X163739380Y-116887687D01*
X163739379Y-116887684D01*
X163689997Y-116724895D01*
X163677501Y-116598020D01*
X163677500Y-114989181D01*
X163689996Y-114862306D01*
X163739378Y-114699517D01*
X163739379Y-114699513D01*
X163819566Y-114549493D01*
X163819570Y-114549488D01*
X163927488Y-114417988D01*
X164058988Y-114310069D01*
X164058992Y-114310067D01*
X164058993Y-114310066D01*
X164209013Y-114229879D01*
X164209016Y-114229878D01*
X164371805Y-114180496D01*
X164541100Y-114163822D01*
X164710394Y-114180496D01*
G37*
G36*
X167250394Y-114180496D02*
G01*
X167370826Y-114217029D01*
X167413187Y-114229879D01*
X167563207Y-114310066D01*
X167563210Y-114310068D01*
X167563211Y-114310069D01*
X167694712Y-114417988D01*
X167802631Y-114549488D01*
X167802633Y-114549492D01*
X167802634Y-114549493D01*
X167882821Y-114699513D01*
X167882822Y-114699516D01*
X167932204Y-114862305D01*
X167944700Y-114989180D01*
X167944700Y-116598020D01*
X167932204Y-116724895D01*
X167882822Y-116887684D01*
X167882821Y-116887687D01*
X167802634Y-117037707D01*
X167802631Y-117037712D01*
X167694712Y-117169212D01*
X167563212Y-117277131D01*
X167563208Y-117277133D01*
X167563207Y-117277134D01*
X167413187Y-117357321D01*
X167413184Y-117357322D01*
X167250395Y-117406704D01*
X167081100Y-117423378D01*
X166911806Y-117406704D01*
X166749017Y-117357322D01*
X166749014Y-117357321D01*
X166598994Y-117277134D01*
X166598993Y-117277133D01*
X166598989Y-117277131D01*
X166467489Y-117169212D01*
X166359570Y-117037712D01*
X166359567Y-117037707D01*
X166279380Y-116887687D01*
X166279379Y-116887684D01*
X166229997Y-116724895D01*
X166217501Y-116598020D01*
X166217500Y-114989181D01*
X166229996Y-114862306D01*
X166279378Y-114699517D01*
X166279379Y-114699513D01*
X166359566Y-114549493D01*
X166359570Y-114549488D01*
X166467488Y-114417988D01*
X166598988Y-114310069D01*
X166598992Y-114310067D01*
X166598993Y-114310066D01*
X166749013Y-114229879D01*
X166749016Y-114229878D01*
X166911805Y-114180496D01*
X167081100Y-114163822D01*
X167250394Y-114180496D01*
G37*
G36*
X169790394Y-114180496D02*
G01*
X169910826Y-114217029D01*
X169953187Y-114229879D01*
X170103207Y-114310066D01*
X170103210Y-114310068D01*
X170103211Y-114310069D01*
X170234712Y-114417988D01*
X170342631Y-114549488D01*
X170342633Y-114549492D01*
X170342634Y-114549493D01*
X170422821Y-114699513D01*
X170422822Y-114699516D01*
X170472204Y-114862305D01*
X170484700Y-114989180D01*
X170484700Y-116598020D01*
X170472204Y-116724895D01*
X170422822Y-116887684D01*
X170422821Y-116887687D01*
X170342634Y-117037707D01*
X170342631Y-117037712D01*
X170234712Y-117169212D01*
X170103212Y-117277131D01*
X170103208Y-117277133D01*
X170103207Y-117277134D01*
X169953187Y-117357321D01*
X169953184Y-117357322D01*
X169790395Y-117406704D01*
X169621100Y-117423378D01*
X169451806Y-117406704D01*
X169289017Y-117357322D01*
X169289014Y-117357321D01*
X169138994Y-117277134D01*
X169138993Y-117277133D01*
X169138989Y-117277131D01*
X169007489Y-117169212D01*
X168899570Y-117037712D01*
X168899567Y-117037707D01*
X168819380Y-116887687D01*
X168819379Y-116887684D01*
X168769997Y-116724895D01*
X168757501Y-116598020D01*
X168757500Y-114989181D01*
X168769996Y-114862306D01*
X168819378Y-114699517D01*
X168819379Y-114699513D01*
X168899566Y-114549493D01*
X168899570Y-114549488D01*
X169007488Y-114417988D01*
X169138988Y-114310069D01*
X169138992Y-114310067D01*
X169138993Y-114310066D01*
X169289013Y-114229879D01*
X169289016Y-114229878D01*
X169451805Y-114180496D01*
X169621100Y-114163822D01*
X169790394Y-114180496D01*
G37*
G36*
X195190394Y-114180496D02*
G01*
X195310826Y-114217029D01*
X195353187Y-114229879D01*
X195503207Y-114310066D01*
X195503210Y-114310068D01*
X195503211Y-114310069D01*
X195634712Y-114417988D01*
X195742631Y-114549488D01*
X195742633Y-114549492D01*
X195742634Y-114549493D01*
X195822821Y-114699513D01*
X195822822Y-114699516D01*
X195872204Y-114862305D01*
X195884700Y-114989180D01*
X195884700Y-116598020D01*
X195872204Y-116724895D01*
X195822822Y-116887684D01*
X195822821Y-116887687D01*
X195742634Y-117037707D01*
X195742631Y-117037712D01*
X195634712Y-117169212D01*
X195503212Y-117277131D01*
X195503208Y-117277133D01*
X195503207Y-117277134D01*
X195353187Y-117357321D01*
X195353184Y-117357322D01*
X195190395Y-117406704D01*
X195021100Y-117423378D01*
X194851806Y-117406704D01*
X194689017Y-117357322D01*
X194689014Y-117357321D01*
X194538994Y-117277134D01*
X194538993Y-117277133D01*
X194538989Y-117277131D01*
X194407489Y-117169212D01*
X194299570Y-117037712D01*
X194299567Y-117037707D01*
X194219380Y-116887687D01*
X194219379Y-116887684D01*
X194169997Y-116724895D01*
X194157501Y-116598020D01*
X194157500Y-114989181D01*
X194169996Y-114862306D01*
X194219378Y-114699517D01*
X194219379Y-114699513D01*
X194299566Y-114549493D01*
X194299570Y-114549488D01*
X194407488Y-114417988D01*
X194538988Y-114310069D01*
X194538992Y-114310067D01*
X194538993Y-114310066D01*
X194689013Y-114229879D01*
X194689016Y-114229878D01*
X194851805Y-114180496D01*
X195021100Y-114163822D01*
X195190394Y-114180496D01*
G37*
G36*
X177410394Y-114180496D02*
G01*
X177530826Y-114217029D01*
X177573187Y-114229879D01*
X177723207Y-114310066D01*
X177723210Y-114310068D01*
X177723211Y-114310069D01*
X177854712Y-114417988D01*
X177962631Y-114549488D01*
X177962633Y-114549492D01*
X177962634Y-114549493D01*
X178042821Y-114699513D01*
X178042822Y-114699516D01*
X178092204Y-114862305D01*
X178104700Y-114989180D01*
X178104700Y-116598020D01*
X178092204Y-116724895D01*
X178042822Y-116887684D01*
X178042821Y-116887687D01*
X177962634Y-117037707D01*
X177962631Y-117037712D01*
X177854712Y-117169212D01*
X177723212Y-117277131D01*
X177723208Y-117277133D01*
X177723207Y-117277134D01*
X177573187Y-117357321D01*
X177573184Y-117357322D01*
X177410395Y-117406704D01*
X177241100Y-117423378D01*
X177071806Y-117406704D01*
X176909017Y-117357322D01*
X176909014Y-117357321D01*
X176758994Y-117277134D01*
X176758993Y-117277133D01*
X176758989Y-117277131D01*
X176627489Y-117169212D01*
X176519570Y-117037712D01*
X176519567Y-117037707D01*
X176439380Y-116887687D01*
X176439379Y-116887684D01*
X176389997Y-116724895D01*
X176377501Y-116598020D01*
X176377500Y-114989181D01*
X176389996Y-114862306D01*
X176439378Y-114699517D01*
X176439379Y-114699513D01*
X176519566Y-114549493D01*
X176519570Y-114549488D01*
X176627488Y-114417988D01*
X176758988Y-114310069D01*
X176758992Y-114310067D01*
X176758993Y-114310066D01*
X176909013Y-114229879D01*
X176909016Y-114229878D01*
X177071805Y-114180496D01*
X177241100Y-114163822D01*
X177410394Y-114180496D01*
G37*
G36*
X179950394Y-114180496D02*
G01*
X180070826Y-114217029D01*
X180113187Y-114229879D01*
X180263207Y-114310066D01*
X180263210Y-114310068D01*
X180263211Y-114310069D01*
X180394712Y-114417988D01*
X180502631Y-114549488D01*
X180502633Y-114549492D01*
X180502634Y-114549493D01*
X180582821Y-114699513D01*
X180582822Y-114699516D01*
X180632204Y-114862305D01*
X180644700Y-114989180D01*
X180644700Y-116598020D01*
X180632204Y-116724895D01*
X180582822Y-116887684D01*
X180582821Y-116887687D01*
X180502634Y-117037707D01*
X180502631Y-117037712D01*
X180394712Y-117169212D01*
X180263212Y-117277131D01*
X180263208Y-117277133D01*
X180263207Y-117277134D01*
X180113187Y-117357321D01*
X180113184Y-117357322D01*
X179950395Y-117406704D01*
X179781100Y-117423378D01*
X179611806Y-117406704D01*
X179449017Y-117357322D01*
X179449014Y-117357321D01*
X179298994Y-117277134D01*
X179298993Y-117277133D01*
X179298989Y-117277131D01*
X179167489Y-117169212D01*
X179059570Y-117037712D01*
X179059567Y-117037707D01*
X178979380Y-116887687D01*
X178979379Y-116887684D01*
X178929997Y-116724895D01*
X178917501Y-116598020D01*
X178917500Y-114989181D01*
X178929996Y-114862306D01*
X178979378Y-114699517D01*
X178979379Y-114699513D01*
X179059566Y-114549493D01*
X179059570Y-114549488D01*
X179167488Y-114417988D01*
X179298988Y-114310069D01*
X179298992Y-114310067D01*
X179298993Y-114310066D01*
X179449013Y-114229879D01*
X179449016Y-114229878D01*
X179611805Y-114180496D01*
X179781100Y-114163822D01*
X179950394Y-114180496D01*
G37*
G36*
X182490394Y-114180496D02*
G01*
X182610826Y-114217029D01*
X182653187Y-114229879D01*
X182803207Y-114310066D01*
X182803210Y-114310068D01*
X182803211Y-114310069D01*
X182934712Y-114417988D01*
X183042631Y-114549488D01*
X183042633Y-114549492D01*
X183042634Y-114549493D01*
X183122821Y-114699513D01*
X183122822Y-114699516D01*
X183172204Y-114862305D01*
X183184700Y-114989180D01*
X183184700Y-116598020D01*
X183172204Y-116724895D01*
X183122822Y-116887684D01*
X183122821Y-116887687D01*
X183042634Y-117037707D01*
X183042631Y-117037712D01*
X182934712Y-117169212D01*
X182803212Y-117277131D01*
X182803208Y-117277133D01*
X182803207Y-117277134D01*
X182653187Y-117357321D01*
X182653184Y-117357322D01*
X182490395Y-117406704D01*
X182321100Y-117423378D01*
X182151806Y-117406704D01*
X181989017Y-117357322D01*
X181989014Y-117357321D01*
X181838994Y-117277134D01*
X181838993Y-117277133D01*
X181838989Y-117277131D01*
X181707489Y-117169212D01*
X181599570Y-117037712D01*
X181599567Y-117037707D01*
X181519380Y-116887687D01*
X181519379Y-116887684D01*
X181469997Y-116724895D01*
X181457501Y-116598020D01*
X181457500Y-114989181D01*
X181469996Y-114862306D01*
X181519378Y-114699517D01*
X181519379Y-114699513D01*
X181599566Y-114549493D01*
X181599570Y-114549488D01*
X181707488Y-114417988D01*
X181838988Y-114310069D01*
X181838992Y-114310067D01*
X181838993Y-114310066D01*
X181989013Y-114229879D01*
X181989016Y-114229878D01*
X182151805Y-114180496D01*
X182321100Y-114163822D01*
X182490394Y-114180496D01*
G37*
G36*
X185030394Y-114180496D02*
G01*
X185150826Y-114217029D01*
X185193187Y-114229879D01*
X185343207Y-114310066D01*
X185343210Y-114310068D01*
X185343211Y-114310069D01*
X185474712Y-114417988D01*
X185582631Y-114549488D01*
X185582633Y-114549492D01*
X185582634Y-114549493D01*
X185662821Y-114699513D01*
X185662822Y-114699516D01*
X185712204Y-114862305D01*
X185724700Y-114989180D01*
X185724700Y-116598020D01*
X185712204Y-116724895D01*
X185662822Y-116887684D01*
X185662821Y-116887687D01*
X185582634Y-117037707D01*
X185582631Y-117037712D01*
X185474712Y-117169212D01*
X185343212Y-117277131D01*
X185343208Y-117277133D01*
X185343207Y-117277134D01*
X185193187Y-117357321D01*
X185193184Y-117357322D01*
X185030395Y-117406704D01*
X184861100Y-117423378D01*
X184691806Y-117406704D01*
X184529017Y-117357322D01*
X184529014Y-117357321D01*
X184378994Y-117277134D01*
X184378993Y-117277133D01*
X184378989Y-117277131D01*
X184247489Y-117169212D01*
X184139570Y-117037712D01*
X184139567Y-117037707D01*
X184059380Y-116887687D01*
X184059379Y-116887684D01*
X184009997Y-116724895D01*
X183997501Y-116598020D01*
X183997500Y-114989181D01*
X184009996Y-114862306D01*
X184059378Y-114699517D01*
X184059379Y-114699513D01*
X184139566Y-114549493D01*
X184139570Y-114549488D01*
X184247488Y-114417988D01*
X184378988Y-114310069D01*
X184378992Y-114310067D01*
X184378993Y-114310066D01*
X184529013Y-114229879D01*
X184529016Y-114229878D01*
X184691805Y-114180496D01*
X184861100Y-114163822D01*
X185030394Y-114180496D01*
G37*
G36*
X187570394Y-114180496D02*
G01*
X187690826Y-114217029D01*
X187733187Y-114229879D01*
X187883207Y-114310066D01*
X187883210Y-114310068D01*
X187883211Y-114310069D01*
X188014712Y-114417988D01*
X188122631Y-114549488D01*
X188122633Y-114549492D01*
X188122634Y-114549493D01*
X188202821Y-114699513D01*
X188202822Y-114699516D01*
X188252204Y-114862305D01*
X188264700Y-114989180D01*
X188264700Y-116598020D01*
X188252204Y-116724895D01*
X188202822Y-116887684D01*
X188202821Y-116887687D01*
X188122634Y-117037707D01*
X188122631Y-117037712D01*
X188014712Y-117169212D01*
X187883212Y-117277131D01*
X187883208Y-117277133D01*
X187883207Y-117277134D01*
X187733187Y-117357321D01*
X187733184Y-117357322D01*
X187570395Y-117406704D01*
X187401100Y-117423378D01*
X187231806Y-117406704D01*
X187069017Y-117357322D01*
X187069014Y-117357321D01*
X186918994Y-117277134D01*
X186918993Y-117277133D01*
X186918989Y-117277131D01*
X186787489Y-117169212D01*
X186679570Y-117037712D01*
X186679567Y-117037707D01*
X186599380Y-116887687D01*
X186599379Y-116887684D01*
X186549997Y-116724895D01*
X186537501Y-116598020D01*
X186537500Y-114989181D01*
X186549996Y-114862306D01*
X186599378Y-114699517D01*
X186599379Y-114699513D01*
X186679566Y-114549493D01*
X186679570Y-114549488D01*
X186787488Y-114417988D01*
X186918988Y-114310069D01*
X186918992Y-114310067D01*
X186918993Y-114310066D01*
X187069013Y-114229879D01*
X187069016Y-114229878D01*
X187231805Y-114180496D01*
X187401100Y-114163822D01*
X187570394Y-114180496D01*
G37*
G36*
X190110394Y-114180496D02*
G01*
X190230826Y-114217029D01*
X190273187Y-114229879D01*
X190423207Y-114310066D01*
X190423210Y-114310068D01*
X190423211Y-114310069D01*
X190554712Y-114417988D01*
X190662631Y-114549488D01*
X190662633Y-114549492D01*
X190662634Y-114549493D01*
X190742821Y-114699513D01*
X190742822Y-114699516D01*
X190792204Y-114862305D01*
X190804700Y-114989180D01*
X190804700Y-116598020D01*
X190792204Y-116724895D01*
X190742822Y-116887684D01*
X190742821Y-116887687D01*
X190662634Y-117037707D01*
X190662631Y-117037712D01*
X190554712Y-117169212D01*
X190423212Y-117277131D01*
X190423208Y-117277133D01*
X190423207Y-117277134D01*
X190273187Y-117357321D01*
X190273184Y-117357322D01*
X190110395Y-117406704D01*
X189941100Y-117423378D01*
X189771806Y-117406704D01*
X189609017Y-117357322D01*
X189609014Y-117357321D01*
X189458994Y-117277134D01*
X189458993Y-117277133D01*
X189458989Y-117277131D01*
X189327489Y-117169212D01*
X189219570Y-117037712D01*
X189219567Y-117037707D01*
X189139380Y-116887687D01*
X189139379Y-116887684D01*
X189089997Y-116724895D01*
X189077501Y-116598020D01*
X189077500Y-114989181D01*
X189089996Y-114862306D01*
X189139378Y-114699517D01*
X189139379Y-114699513D01*
X189219566Y-114549493D01*
X189219570Y-114549488D01*
X189327488Y-114417988D01*
X189458988Y-114310069D01*
X189458992Y-114310067D01*
X189458993Y-114310066D01*
X189609013Y-114229879D01*
X189609016Y-114229878D01*
X189771805Y-114180496D01*
X189941100Y-114163822D01*
X190110394Y-114180496D01*
G37*
G36*
X192650394Y-114180496D02*
G01*
X192770826Y-114217029D01*
X192813187Y-114229879D01*
X192963207Y-114310066D01*
X192963210Y-114310068D01*
X192963211Y-114310069D01*
X193094712Y-114417988D01*
X193202631Y-114549488D01*
X193202633Y-114549492D01*
X193202634Y-114549493D01*
X193282821Y-114699513D01*
X193282822Y-114699516D01*
X193332204Y-114862305D01*
X193344700Y-114989180D01*
X193344700Y-116598020D01*
X193332204Y-116724895D01*
X193282822Y-116887684D01*
X193282821Y-116887687D01*
X193202634Y-117037707D01*
X193202631Y-117037712D01*
X193094712Y-117169212D01*
X192963212Y-117277131D01*
X192963208Y-117277133D01*
X192963207Y-117277134D01*
X192813187Y-117357321D01*
X192813184Y-117357322D01*
X192650395Y-117406704D01*
X192481100Y-117423378D01*
X192311806Y-117406704D01*
X192149017Y-117357322D01*
X192149014Y-117357321D01*
X191998994Y-117277134D01*
X191998993Y-117277133D01*
X191998989Y-117277131D01*
X191867489Y-117169212D01*
X191759570Y-117037712D01*
X191759567Y-117037707D01*
X191679380Y-116887687D01*
X191679379Y-116887684D01*
X191629997Y-116724895D01*
X191617501Y-116598020D01*
X191617500Y-114989181D01*
X191629996Y-114862306D01*
X191679378Y-114699517D01*
X191679379Y-114699513D01*
X191759566Y-114549493D01*
X191759570Y-114549488D01*
X191867488Y-114417988D01*
X191998988Y-114310069D01*
X191998992Y-114310067D01*
X191998993Y-114310066D01*
X192149013Y-114229879D01*
X192149016Y-114229878D01*
X192311805Y-114180496D01*
X192481100Y-114163822D01*
X192650394Y-114180496D01*
G37*
G36*
X197730394Y-114180496D02*
G01*
X197850826Y-114217029D01*
X197893187Y-114229879D01*
X198043207Y-114310066D01*
X198043210Y-114310068D01*
X198043211Y-114310069D01*
X198174712Y-114417988D01*
X198282631Y-114549488D01*
X198282633Y-114549492D01*
X198282634Y-114549493D01*
X198362821Y-114699513D01*
X198362822Y-114699516D01*
X198412204Y-114862305D01*
X198424700Y-114989180D01*
X198424700Y-116598020D01*
X198412204Y-116724895D01*
X198362822Y-116887684D01*
X198362821Y-116887687D01*
X198282634Y-117037707D01*
X198282631Y-117037712D01*
X198174712Y-117169212D01*
X198043212Y-117277131D01*
X198043208Y-117277133D01*
X198043207Y-117277134D01*
X197893187Y-117357321D01*
X197893184Y-117357322D01*
X197730395Y-117406704D01*
X197561100Y-117423378D01*
X197391806Y-117406704D01*
X197229017Y-117357322D01*
X197229014Y-117357321D01*
X197078994Y-117277134D01*
X197078993Y-117277133D01*
X197078989Y-117277131D01*
X196947489Y-117169212D01*
X196839570Y-117037712D01*
X196839567Y-117037707D01*
X196759380Y-116887687D01*
X196759379Y-116887684D01*
X196709997Y-116724895D01*
X196697501Y-116598020D01*
X196697500Y-114989181D01*
X196709996Y-114862306D01*
X196759378Y-114699517D01*
X196759379Y-114699513D01*
X196839566Y-114549493D01*
X196839570Y-114549488D01*
X196947488Y-114417988D01*
X197078988Y-114310069D01*
X197078992Y-114310067D01*
X197078993Y-114310066D01*
X197229013Y-114229879D01*
X197229016Y-114229878D01*
X197391805Y-114180496D01*
X197561100Y-114163822D01*
X197730394Y-114180496D01*
G37*
G36*
X126610394Y-114180496D02*
G01*
X126730826Y-114217029D01*
X126773187Y-114229879D01*
X126923207Y-114310066D01*
X126923210Y-114310068D01*
X126923211Y-114310069D01*
X127054712Y-114417988D01*
X127162631Y-114549488D01*
X127162633Y-114549492D01*
X127162634Y-114549493D01*
X127242821Y-114699513D01*
X127242822Y-114699516D01*
X127292204Y-114862305D01*
X127304700Y-114989180D01*
X127304700Y-116598020D01*
X127292204Y-116724895D01*
X127242822Y-116887684D01*
X127242821Y-116887687D01*
X127162634Y-117037707D01*
X127162631Y-117037712D01*
X127054712Y-117169212D01*
X126923212Y-117277131D01*
X126923208Y-117277133D01*
X126923207Y-117277134D01*
X126773187Y-117357321D01*
X126773184Y-117357322D01*
X126610395Y-117406704D01*
X126441100Y-117423378D01*
X126271806Y-117406704D01*
X126109017Y-117357322D01*
X126109014Y-117357321D01*
X125958994Y-117277134D01*
X125958993Y-117277133D01*
X125958989Y-117277131D01*
X125827489Y-117169212D01*
X125719570Y-117037712D01*
X125719567Y-117037707D01*
X125639380Y-116887687D01*
X125639379Y-116887684D01*
X125589997Y-116724895D01*
X125577501Y-116598020D01*
X125577500Y-114989181D01*
X125589996Y-114862306D01*
X125639378Y-114699517D01*
X125639379Y-114699513D01*
X125719566Y-114549493D01*
X125719570Y-114549488D01*
X125827488Y-114417988D01*
X125958988Y-114310069D01*
X125958992Y-114310067D01*
X125958993Y-114310066D01*
X126109013Y-114229879D01*
X126109016Y-114229878D01*
X126271805Y-114180496D01*
X126441100Y-114163822D01*
X126610394Y-114180496D01*
G37*
G36*
X146930394Y-114180496D02*
G01*
X147050826Y-114217029D01*
X147093187Y-114229879D01*
X147243207Y-114310066D01*
X147243210Y-114310068D01*
X147243211Y-114310069D01*
X147374712Y-114417988D01*
X147482631Y-114549488D01*
X147482633Y-114549492D01*
X147482634Y-114549493D01*
X147562821Y-114699513D01*
X147562822Y-114699516D01*
X147612204Y-114862305D01*
X147624700Y-114989180D01*
X147624700Y-116598020D01*
X147612204Y-116724895D01*
X147562822Y-116887684D01*
X147562821Y-116887687D01*
X147482634Y-117037707D01*
X147482631Y-117037712D01*
X147374712Y-117169212D01*
X147243212Y-117277131D01*
X147243208Y-117277133D01*
X147243207Y-117277134D01*
X147093187Y-117357321D01*
X147093184Y-117357322D01*
X146930395Y-117406704D01*
X146761100Y-117423378D01*
X146591806Y-117406704D01*
X146429017Y-117357322D01*
X146429014Y-117357321D01*
X146278994Y-117277134D01*
X146278993Y-117277133D01*
X146278989Y-117277131D01*
X146147489Y-117169212D01*
X146039570Y-117037712D01*
X146039567Y-117037707D01*
X145959380Y-116887687D01*
X145959379Y-116887684D01*
X145909997Y-116724895D01*
X145897501Y-116598020D01*
X145897500Y-114989181D01*
X145909996Y-114862306D01*
X145959378Y-114699517D01*
X145959379Y-114699513D01*
X146039566Y-114549493D01*
X146039570Y-114549488D01*
X146147488Y-114417988D01*
X146278988Y-114310069D01*
X146278992Y-114310067D01*
X146278993Y-114310066D01*
X146429013Y-114229879D01*
X146429016Y-114229878D01*
X146591805Y-114180496D01*
X146761100Y-114163822D01*
X146930394Y-114180496D01*
G37*
G36*
X98670394Y-114180496D02*
G01*
X98790826Y-114217029D01*
X98833187Y-114229879D01*
X98983207Y-114310066D01*
X98983210Y-114310068D01*
X98983211Y-114310069D01*
X99114712Y-114417988D01*
X99222631Y-114549488D01*
X99222633Y-114549492D01*
X99222634Y-114549493D01*
X99302821Y-114699513D01*
X99302822Y-114699516D01*
X99352204Y-114862305D01*
X99364700Y-114989180D01*
X99364700Y-116598020D01*
X99352204Y-116724895D01*
X99302822Y-116887684D01*
X99302821Y-116887687D01*
X99222634Y-117037707D01*
X99222631Y-117037712D01*
X99114712Y-117169212D01*
X98983212Y-117277131D01*
X98983208Y-117277133D01*
X98983207Y-117277134D01*
X98833187Y-117357321D01*
X98833184Y-117357322D01*
X98670395Y-117406704D01*
X98501100Y-117423378D01*
X98331806Y-117406704D01*
X98169017Y-117357322D01*
X98169014Y-117357321D01*
X98018994Y-117277134D01*
X98018993Y-117277133D01*
X98018989Y-117277131D01*
X97887489Y-117169212D01*
X97779570Y-117037712D01*
X97779567Y-117037707D01*
X97699380Y-116887687D01*
X97699379Y-116887684D01*
X97649997Y-116724895D01*
X97637501Y-116598020D01*
X97637500Y-114989181D01*
X97649996Y-114862306D01*
X97699378Y-114699517D01*
X97699379Y-114699513D01*
X97779566Y-114549493D01*
X97779570Y-114549488D01*
X97887488Y-114417988D01*
X98018988Y-114310069D01*
X98018992Y-114310067D01*
X98018993Y-114310066D01*
X98169013Y-114229879D01*
X98169016Y-114229878D01*
X98331805Y-114180496D01*
X98501100Y-114163822D01*
X98670394Y-114180496D01*
G37*
G36*
X101210394Y-114180496D02*
G01*
X101330826Y-114217029D01*
X101373187Y-114229879D01*
X101523207Y-114310066D01*
X101523210Y-114310068D01*
X101523211Y-114310069D01*
X101654712Y-114417988D01*
X101762631Y-114549488D01*
X101762633Y-114549492D01*
X101762634Y-114549493D01*
X101842821Y-114699513D01*
X101842822Y-114699516D01*
X101892204Y-114862305D01*
X101904700Y-114989180D01*
X101904700Y-116598020D01*
X101892204Y-116724895D01*
X101842822Y-116887684D01*
X101842821Y-116887687D01*
X101762634Y-117037707D01*
X101762631Y-117037712D01*
X101654712Y-117169212D01*
X101523212Y-117277131D01*
X101523208Y-117277133D01*
X101523207Y-117277134D01*
X101373187Y-117357321D01*
X101373184Y-117357322D01*
X101210395Y-117406704D01*
X101041100Y-117423378D01*
X100871806Y-117406704D01*
X100709017Y-117357322D01*
X100709014Y-117357321D01*
X100558994Y-117277134D01*
X100558993Y-117277133D01*
X100558989Y-117277131D01*
X100427489Y-117169212D01*
X100319570Y-117037712D01*
X100319567Y-117037707D01*
X100239380Y-116887687D01*
X100239379Y-116887684D01*
X100189997Y-116724895D01*
X100177501Y-116598020D01*
X100177500Y-114989181D01*
X100189996Y-114862306D01*
X100239378Y-114699517D01*
X100239379Y-114699513D01*
X100319566Y-114549493D01*
X100319570Y-114549488D01*
X100427488Y-114417988D01*
X100558988Y-114310069D01*
X100558992Y-114310067D01*
X100558993Y-114310066D01*
X100709013Y-114229879D01*
X100709016Y-114229878D01*
X100871805Y-114180496D01*
X101041100Y-114163822D01*
X101210394Y-114180496D01*
G37*
G36*
X106290394Y-114180496D02*
G01*
X106410826Y-114217029D01*
X106453187Y-114229879D01*
X106603207Y-114310066D01*
X106603210Y-114310068D01*
X106603211Y-114310069D01*
X106734712Y-114417988D01*
X106842631Y-114549488D01*
X106842633Y-114549492D01*
X106842634Y-114549493D01*
X106922821Y-114699513D01*
X106922822Y-114699516D01*
X106972204Y-114862305D01*
X106984700Y-114989180D01*
X106984700Y-116598020D01*
X106972204Y-116724895D01*
X106922822Y-116887684D01*
X106922821Y-116887687D01*
X106842634Y-117037707D01*
X106842631Y-117037712D01*
X106734712Y-117169212D01*
X106603212Y-117277131D01*
X106603208Y-117277133D01*
X106603207Y-117277134D01*
X106453187Y-117357321D01*
X106453184Y-117357322D01*
X106290395Y-117406704D01*
X106121100Y-117423378D01*
X105951806Y-117406704D01*
X105789017Y-117357322D01*
X105789014Y-117357321D01*
X105638994Y-117277134D01*
X105638993Y-117277133D01*
X105638989Y-117277131D01*
X105507489Y-117169212D01*
X105399570Y-117037712D01*
X105399567Y-117037707D01*
X105319380Y-116887687D01*
X105319379Y-116887684D01*
X105269997Y-116724895D01*
X105257501Y-116598020D01*
X105257500Y-114989181D01*
X105269996Y-114862306D01*
X105319378Y-114699517D01*
X105319379Y-114699513D01*
X105399566Y-114549493D01*
X105399570Y-114549488D01*
X105507488Y-114417988D01*
X105638988Y-114310069D01*
X105638992Y-114310067D01*
X105638993Y-114310066D01*
X105789013Y-114229879D01*
X105789016Y-114229878D01*
X105951805Y-114180496D01*
X106121100Y-114163822D01*
X106290394Y-114180496D01*
G37*
G36*
X108830394Y-114180496D02*
G01*
X108950826Y-114217029D01*
X108993187Y-114229879D01*
X109143207Y-114310066D01*
X109143210Y-114310068D01*
X109143211Y-114310069D01*
X109274712Y-114417988D01*
X109382631Y-114549488D01*
X109382633Y-114549492D01*
X109382634Y-114549493D01*
X109462821Y-114699513D01*
X109462822Y-114699516D01*
X109512204Y-114862305D01*
X109524700Y-114989180D01*
X109524700Y-116598020D01*
X109512204Y-116724895D01*
X109462822Y-116887684D01*
X109462821Y-116887687D01*
X109382634Y-117037707D01*
X109382631Y-117037712D01*
X109274712Y-117169212D01*
X109143212Y-117277131D01*
X109143208Y-117277133D01*
X109143207Y-117277134D01*
X108993187Y-117357321D01*
X108993184Y-117357322D01*
X108830395Y-117406704D01*
X108661100Y-117423378D01*
X108491806Y-117406704D01*
X108329017Y-117357322D01*
X108329014Y-117357321D01*
X108178994Y-117277134D01*
X108178993Y-117277133D01*
X108178989Y-117277131D01*
X108047489Y-117169212D01*
X107939570Y-117037712D01*
X107939567Y-117037707D01*
X107859380Y-116887687D01*
X107859379Y-116887684D01*
X107809997Y-116724895D01*
X107797501Y-116598020D01*
X107797500Y-114989181D01*
X107809996Y-114862306D01*
X107859378Y-114699517D01*
X107859379Y-114699513D01*
X107939566Y-114549493D01*
X107939570Y-114549488D01*
X108047488Y-114417988D01*
X108178988Y-114310069D01*
X108178992Y-114310067D01*
X108178993Y-114310066D01*
X108329013Y-114229879D01*
X108329016Y-114229878D01*
X108491805Y-114180496D01*
X108661100Y-114163822D01*
X108830394Y-114180496D01*
G37*
G36*
X111370394Y-114180496D02*
G01*
X111490826Y-114217029D01*
X111533187Y-114229879D01*
X111683207Y-114310066D01*
X111683210Y-114310068D01*
X111683211Y-114310069D01*
X111814712Y-114417988D01*
X111922631Y-114549488D01*
X111922633Y-114549492D01*
X111922634Y-114549493D01*
X112002821Y-114699513D01*
X112002822Y-114699516D01*
X112052204Y-114862305D01*
X112064700Y-114989180D01*
X112064700Y-116598020D01*
X112052204Y-116724895D01*
X112002822Y-116887684D01*
X112002821Y-116887687D01*
X111922634Y-117037707D01*
X111922631Y-117037712D01*
X111814712Y-117169212D01*
X111683212Y-117277131D01*
X111683208Y-117277133D01*
X111683207Y-117277134D01*
X111533187Y-117357321D01*
X111533184Y-117357322D01*
X111370395Y-117406704D01*
X111201100Y-117423378D01*
X111031806Y-117406704D01*
X110869017Y-117357322D01*
X110869014Y-117357321D01*
X110718994Y-117277134D01*
X110718993Y-117277133D01*
X110718989Y-117277131D01*
X110587489Y-117169212D01*
X110479570Y-117037712D01*
X110479567Y-117037707D01*
X110399380Y-116887687D01*
X110399379Y-116887684D01*
X110349997Y-116724895D01*
X110337501Y-116598020D01*
X110337500Y-114989181D01*
X110349996Y-114862306D01*
X110399378Y-114699517D01*
X110399379Y-114699513D01*
X110479566Y-114549493D01*
X110479570Y-114549488D01*
X110587488Y-114417988D01*
X110718988Y-114310069D01*
X110718992Y-114310067D01*
X110718993Y-114310066D01*
X110869013Y-114229879D01*
X110869016Y-114229878D01*
X111031805Y-114180496D01*
X111201100Y-114163822D01*
X111370394Y-114180496D01*
G37*
G36*
X113910394Y-114180496D02*
G01*
X114030826Y-114217029D01*
X114073187Y-114229879D01*
X114223207Y-114310066D01*
X114223210Y-114310068D01*
X114223211Y-114310069D01*
X114354712Y-114417988D01*
X114462631Y-114549488D01*
X114462633Y-114549492D01*
X114462634Y-114549493D01*
X114542821Y-114699513D01*
X114542822Y-114699516D01*
X114592204Y-114862305D01*
X114604700Y-114989180D01*
X114604700Y-116598020D01*
X114592204Y-116724895D01*
X114542822Y-116887684D01*
X114542821Y-116887687D01*
X114462634Y-117037707D01*
X114462631Y-117037712D01*
X114354712Y-117169212D01*
X114223212Y-117277131D01*
X114223208Y-117277133D01*
X114223207Y-117277134D01*
X114073187Y-117357321D01*
X114073184Y-117357322D01*
X113910395Y-117406704D01*
X113741100Y-117423378D01*
X113571806Y-117406704D01*
X113409017Y-117357322D01*
X113409014Y-117357321D01*
X113258994Y-117277134D01*
X113258993Y-117277133D01*
X113258989Y-117277131D01*
X113127489Y-117169212D01*
X113019570Y-117037712D01*
X113019567Y-117037707D01*
X112939380Y-116887687D01*
X112939379Y-116887684D01*
X112889997Y-116724895D01*
X112877501Y-116598020D01*
X112877500Y-114989181D01*
X112889996Y-114862306D01*
X112939378Y-114699517D01*
X112939379Y-114699513D01*
X113019566Y-114549493D01*
X113019570Y-114549488D01*
X113127488Y-114417988D01*
X113258988Y-114310069D01*
X113258992Y-114310067D01*
X113258993Y-114310066D01*
X113409013Y-114229879D01*
X113409016Y-114229878D01*
X113571805Y-114180496D01*
X113741100Y-114163822D01*
X113910394Y-114180496D01*
G37*
G36*
X116450394Y-114180496D02*
G01*
X116570826Y-114217029D01*
X116613187Y-114229879D01*
X116763207Y-114310066D01*
X116763210Y-114310068D01*
X116763211Y-114310069D01*
X116894712Y-114417988D01*
X117002631Y-114549488D01*
X117002633Y-114549492D01*
X117002634Y-114549493D01*
X117082821Y-114699513D01*
X117082822Y-114699516D01*
X117132204Y-114862305D01*
X117144700Y-114989180D01*
X117144700Y-116598020D01*
X117132204Y-116724895D01*
X117082822Y-116887684D01*
X117082821Y-116887687D01*
X117002634Y-117037707D01*
X117002631Y-117037712D01*
X116894712Y-117169212D01*
X116763212Y-117277131D01*
X116763208Y-117277133D01*
X116763207Y-117277134D01*
X116613187Y-117357321D01*
X116613184Y-117357322D01*
X116450395Y-117406704D01*
X116281100Y-117423378D01*
X116111806Y-117406704D01*
X115949017Y-117357322D01*
X115949014Y-117357321D01*
X115798994Y-117277134D01*
X115798993Y-117277133D01*
X115798989Y-117277131D01*
X115667489Y-117169212D01*
X115559570Y-117037712D01*
X115559567Y-117037707D01*
X115479380Y-116887687D01*
X115479379Y-116887684D01*
X115429997Y-116724895D01*
X115417501Y-116598020D01*
X115417500Y-114989181D01*
X115429996Y-114862306D01*
X115479378Y-114699517D01*
X115479379Y-114699513D01*
X115559566Y-114549493D01*
X115559570Y-114549488D01*
X115667488Y-114417988D01*
X115798988Y-114310069D01*
X115798992Y-114310067D01*
X115798993Y-114310066D01*
X115949013Y-114229879D01*
X115949016Y-114229878D01*
X116111805Y-114180496D01*
X116281100Y-114163822D01*
X116450394Y-114180496D01*
G37*
G36*
X118990394Y-114180496D02*
G01*
X119110826Y-114217029D01*
X119153187Y-114229879D01*
X119303207Y-114310066D01*
X119303210Y-114310068D01*
X119303211Y-114310069D01*
X119434712Y-114417988D01*
X119542631Y-114549488D01*
X119542633Y-114549492D01*
X119542634Y-114549493D01*
X119622821Y-114699513D01*
X119622822Y-114699516D01*
X119672204Y-114862305D01*
X119684700Y-114989180D01*
X119684700Y-116598020D01*
X119672204Y-116724895D01*
X119622822Y-116887684D01*
X119622821Y-116887687D01*
X119542634Y-117037707D01*
X119542631Y-117037712D01*
X119434712Y-117169212D01*
X119303212Y-117277131D01*
X119303208Y-117277133D01*
X119303207Y-117277134D01*
X119153187Y-117357321D01*
X119153184Y-117357322D01*
X118990395Y-117406704D01*
X118821100Y-117423378D01*
X118651806Y-117406704D01*
X118489017Y-117357322D01*
X118489014Y-117357321D01*
X118338994Y-117277134D01*
X118338993Y-117277133D01*
X118338989Y-117277131D01*
X118207489Y-117169212D01*
X118099570Y-117037712D01*
X118099567Y-117037707D01*
X118019380Y-116887687D01*
X118019379Y-116887684D01*
X117969997Y-116724895D01*
X117957501Y-116598020D01*
X117957500Y-114989181D01*
X117969996Y-114862306D01*
X118019378Y-114699517D01*
X118019379Y-114699513D01*
X118099566Y-114549493D01*
X118099570Y-114549488D01*
X118207488Y-114417988D01*
X118338988Y-114310069D01*
X118338992Y-114310067D01*
X118338993Y-114310066D01*
X118489013Y-114229879D01*
X118489016Y-114229878D01*
X118651805Y-114180496D01*
X118821100Y-114163822D01*
X118990394Y-114180496D01*
G37*
G36*
X121530394Y-114180496D02*
G01*
X121650826Y-114217029D01*
X121693187Y-114229879D01*
X121843207Y-114310066D01*
X121843210Y-114310068D01*
X121843211Y-114310069D01*
X121974712Y-114417988D01*
X122082631Y-114549488D01*
X122082633Y-114549492D01*
X122082634Y-114549493D01*
X122162821Y-114699513D01*
X122162822Y-114699516D01*
X122212204Y-114862305D01*
X122224700Y-114989180D01*
X122224700Y-116598020D01*
X122212204Y-116724895D01*
X122162822Y-116887684D01*
X122162821Y-116887687D01*
X122082634Y-117037707D01*
X122082631Y-117037712D01*
X121974712Y-117169212D01*
X121843212Y-117277131D01*
X121843208Y-117277133D01*
X121843207Y-117277134D01*
X121693187Y-117357321D01*
X121693184Y-117357322D01*
X121530395Y-117406704D01*
X121361100Y-117423378D01*
X121191806Y-117406704D01*
X121029017Y-117357322D01*
X121029014Y-117357321D01*
X120878994Y-117277134D01*
X120878993Y-117277133D01*
X120878989Y-117277131D01*
X120747489Y-117169212D01*
X120639570Y-117037712D01*
X120639567Y-117037707D01*
X120559380Y-116887687D01*
X120559379Y-116887684D01*
X120509997Y-116724895D01*
X120497501Y-116598020D01*
X120497500Y-114989181D01*
X120509996Y-114862306D01*
X120559378Y-114699517D01*
X120559379Y-114699513D01*
X120639566Y-114549493D01*
X120639570Y-114549488D01*
X120747488Y-114417988D01*
X120878988Y-114310069D01*
X120878992Y-114310067D01*
X120878993Y-114310066D01*
X121029013Y-114229879D01*
X121029016Y-114229878D01*
X121191805Y-114180496D01*
X121361100Y-114163822D01*
X121530394Y-114180496D01*
G37*
G36*
X103750394Y-114180496D02*
G01*
X103870826Y-114217029D01*
X103913187Y-114229879D01*
X104063207Y-114310066D01*
X104063210Y-114310068D01*
X104063211Y-114310069D01*
X104194712Y-114417988D01*
X104302631Y-114549488D01*
X104302633Y-114549492D01*
X104302634Y-114549493D01*
X104382821Y-114699513D01*
X104382822Y-114699516D01*
X104432204Y-114862305D01*
X104444700Y-114989180D01*
X104444700Y-116598020D01*
X104432204Y-116724895D01*
X104382822Y-116887684D01*
X104382821Y-116887687D01*
X104302634Y-117037707D01*
X104302631Y-117037712D01*
X104194712Y-117169212D01*
X104063212Y-117277131D01*
X104063208Y-117277133D01*
X104063207Y-117277134D01*
X103913187Y-117357321D01*
X103913184Y-117357322D01*
X103750395Y-117406704D01*
X103581100Y-117423378D01*
X103411806Y-117406704D01*
X103249017Y-117357322D01*
X103249014Y-117357321D01*
X103098994Y-117277134D01*
X103098993Y-117277133D01*
X103098989Y-117277131D01*
X102967489Y-117169212D01*
X102859570Y-117037712D01*
X102859567Y-117037707D01*
X102779380Y-116887687D01*
X102779379Y-116887684D01*
X102729997Y-116724895D01*
X102717501Y-116598020D01*
X102717500Y-114989181D01*
X102729996Y-114862306D01*
X102779378Y-114699517D01*
X102779379Y-114699513D01*
X102859566Y-114549493D01*
X102859570Y-114549488D01*
X102967488Y-114417988D01*
X103098988Y-114310069D01*
X103098992Y-114310067D01*
X103098993Y-114310066D01*
X103249013Y-114229879D01*
X103249016Y-114229878D01*
X103411805Y-114180496D01*
X103581100Y-114163822D01*
X103750394Y-114180496D01*
G37*
G36*
X174870394Y-114180496D02*
G01*
X174990826Y-114217029D01*
X175033187Y-114229879D01*
X175183207Y-114310066D01*
X175183210Y-114310068D01*
X175183211Y-114310069D01*
X175314712Y-114417988D01*
X175422631Y-114549488D01*
X175422633Y-114549492D01*
X175422634Y-114549493D01*
X175502821Y-114699513D01*
X175502822Y-114699516D01*
X175552204Y-114862305D01*
X175564700Y-114989180D01*
X175564700Y-116598020D01*
X175552204Y-116724895D01*
X175502822Y-116887684D01*
X175502821Y-116887687D01*
X175422634Y-117037707D01*
X175422631Y-117037712D01*
X175314712Y-117169212D01*
X175183212Y-117277131D01*
X175183208Y-117277133D01*
X175183207Y-117277134D01*
X175033187Y-117357321D01*
X175033184Y-117357322D01*
X174870395Y-117406704D01*
X174701100Y-117423378D01*
X174531806Y-117406704D01*
X174369017Y-117357322D01*
X174369014Y-117357321D01*
X174218994Y-117277134D01*
X174218993Y-117277133D01*
X174218989Y-117277131D01*
X174087489Y-117169212D01*
X173979570Y-117037712D01*
X173979567Y-117037707D01*
X173899380Y-116887687D01*
X173899379Y-116887684D01*
X173849997Y-116724895D01*
X173837501Y-116598020D01*
X173837500Y-114989181D01*
X173849996Y-114862306D01*
X173899378Y-114699517D01*
X173899379Y-114699513D01*
X173979566Y-114549493D01*
X173979570Y-114549488D01*
X174087488Y-114417988D01*
X174218988Y-114310069D01*
X174218992Y-114310067D01*
X174218993Y-114310066D01*
X174369013Y-114229879D01*
X174369016Y-114229878D01*
X174531805Y-114180496D01*
X174701100Y-114163822D01*
X174870394Y-114180496D01*
G37*
G36*
X144390394Y-114180496D02*
G01*
X144510826Y-114217029D01*
X144553187Y-114229879D01*
X144703207Y-114310066D01*
X144703210Y-114310068D01*
X144703211Y-114310069D01*
X144834712Y-114417988D01*
X144942631Y-114549488D01*
X144942633Y-114549492D01*
X144942634Y-114549493D01*
X145022821Y-114699513D01*
X145022822Y-114699516D01*
X145072204Y-114862305D01*
X145084700Y-114989180D01*
X145084700Y-116598020D01*
X145072204Y-116724895D01*
X145022822Y-116887684D01*
X145022821Y-116887687D01*
X144942634Y-117037707D01*
X144942631Y-117037712D01*
X144834712Y-117169212D01*
X144703212Y-117277131D01*
X144703208Y-117277133D01*
X144703207Y-117277134D01*
X144553187Y-117357321D01*
X144553184Y-117357322D01*
X144390395Y-117406704D01*
X144221100Y-117423378D01*
X144051806Y-117406704D01*
X143889017Y-117357322D01*
X143889014Y-117357321D01*
X143738994Y-117277134D01*
X143738993Y-117277133D01*
X143738989Y-117277131D01*
X143607489Y-117169212D01*
X143499570Y-117037712D01*
X143499567Y-117037707D01*
X143419380Y-116887687D01*
X143419379Y-116887684D01*
X143369997Y-116724895D01*
X143357501Y-116598020D01*
X143357500Y-114989181D01*
X143369996Y-114862306D01*
X143419378Y-114699517D01*
X143419379Y-114699513D01*
X143499566Y-114549493D01*
X143499570Y-114549488D01*
X143607488Y-114417988D01*
X143738988Y-114310069D01*
X143738992Y-114310067D01*
X143738993Y-114310066D01*
X143889013Y-114229879D01*
X143889016Y-114229878D01*
X144051805Y-114180496D01*
X144221100Y-114163822D01*
X144390394Y-114180496D01*
G37*
G36*
X141850394Y-114180496D02*
G01*
X141970826Y-114217029D01*
X142013187Y-114229879D01*
X142163207Y-114310066D01*
X142163210Y-114310068D01*
X142163211Y-114310069D01*
X142294712Y-114417988D01*
X142402631Y-114549488D01*
X142402633Y-114549492D01*
X142402634Y-114549493D01*
X142482821Y-114699513D01*
X142482822Y-114699516D01*
X142532204Y-114862305D01*
X142544700Y-114989180D01*
X142544700Y-116598020D01*
X142532204Y-116724895D01*
X142482822Y-116887684D01*
X142482821Y-116887687D01*
X142402634Y-117037707D01*
X142402631Y-117037712D01*
X142294712Y-117169212D01*
X142163212Y-117277131D01*
X142163208Y-117277133D01*
X142163207Y-117277134D01*
X142013187Y-117357321D01*
X142013184Y-117357322D01*
X141850395Y-117406704D01*
X141681100Y-117423378D01*
X141511806Y-117406704D01*
X141349017Y-117357322D01*
X141349014Y-117357321D01*
X141198994Y-117277134D01*
X141198993Y-117277133D01*
X141198989Y-117277131D01*
X141067489Y-117169212D01*
X140959570Y-117037712D01*
X140959567Y-117037707D01*
X140879380Y-116887687D01*
X140879379Y-116887684D01*
X140829997Y-116724895D01*
X140817501Y-116598020D01*
X140817500Y-114989181D01*
X140829996Y-114862306D01*
X140879378Y-114699517D01*
X140879379Y-114699513D01*
X140959566Y-114549493D01*
X140959570Y-114549488D01*
X141067488Y-114417988D01*
X141198988Y-114310069D01*
X141198992Y-114310067D01*
X141198993Y-114310066D01*
X141349013Y-114229879D01*
X141349016Y-114229878D01*
X141511805Y-114180496D01*
X141681100Y-114163822D01*
X141850394Y-114180496D01*
G37*
G36*
X139310394Y-114180496D02*
G01*
X139430826Y-114217029D01*
X139473187Y-114229879D01*
X139623207Y-114310066D01*
X139623210Y-114310068D01*
X139623211Y-114310069D01*
X139754712Y-114417988D01*
X139862631Y-114549488D01*
X139862633Y-114549492D01*
X139862634Y-114549493D01*
X139942821Y-114699513D01*
X139942822Y-114699516D01*
X139992204Y-114862305D01*
X140004700Y-114989180D01*
X140004700Y-116598020D01*
X139992204Y-116724895D01*
X139942822Y-116887684D01*
X139942821Y-116887687D01*
X139862634Y-117037707D01*
X139862631Y-117037712D01*
X139754712Y-117169212D01*
X139623212Y-117277131D01*
X139623208Y-117277133D01*
X139623207Y-117277134D01*
X139473187Y-117357321D01*
X139473184Y-117357322D01*
X139310395Y-117406704D01*
X139141100Y-117423378D01*
X138971806Y-117406704D01*
X138809017Y-117357322D01*
X138809014Y-117357321D01*
X138658994Y-117277134D01*
X138658993Y-117277133D01*
X138658989Y-117277131D01*
X138527489Y-117169212D01*
X138419570Y-117037712D01*
X138419567Y-117037707D01*
X138339380Y-116887687D01*
X138339379Y-116887684D01*
X138289997Y-116724895D01*
X138277501Y-116598020D01*
X138277500Y-114989181D01*
X138289996Y-114862306D01*
X138339378Y-114699517D01*
X138339379Y-114699513D01*
X138419566Y-114549493D01*
X138419570Y-114549488D01*
X138527488Y-114417988D01*
X138658988Y-114310069D01*
X138658992Y-114310067D01*
X138658993Y-114310066D01*
X138809013Y-114229879D01*
X138809016Y-114229878D01*
X138971805Y-114180496D01*
X139141100Y-114163822D01*
X139310394Y-114180496D01*
G37*
G36*
X134230394Y-114180496D02*
G01*
X134350826Y-114217029D01*
X134393187Y-114229879D01*
X134543207Y-114310066D01*
X134543210Y-114310068D01*
X134543211Y-114310069D01*
X134674712Y-114417988D01*
X134782631Y-114549488D01*
X134782633Y-114549492D01*
X134782634Y-114549493D01*
X134862821Y-114699513D01*
X134862822Y-114699516D01*
X134912204Y-114862305D01*
X134924700Y-114989180D01*
X134924700Y-116598020D01*
X134912204Y-116724895D01*
X134862822Y-116887684D01*
X134862821Y-116887687D01*
X134782634Y-117037707D01*
X134782631Y-117037712D01*
X134674712Y-117169212D01*
X134543212Y-117277131D01*
X134543208Y-117277133D01*
X134543207Y-117277134D01*
X134393187Y-117357321D01*
X134393184Y-117357322D01*
X134230395Y-117406704D01*
X134061100Y-117423378D01*
X133891806Y-117406704D01*
X133729017Y-117357322D01*
X133729014Y-117357321D01*
X133578994Y-117277134D01*
X133578993Y-117277133D01*
X133578989Y-117277131D01*
X133447489Y-117169212D01*
X133339570Y-117037712D01*
X133339567Y-117037707D01*
X133259380Y-116887687D01*
X133259379Y-116887684D01*
X133209997Y-116724895D01*
X133197501Y-116598020D01*
X133197500Y-114989181D01*
X133209996Y-114862306D01*
X133259378Y-114699517D01*
X133259379Y-114699513D01*
X133339566Y-114549493D01*
X133339570Y-114549488D01*
X133447488Y-114417988D01*
X133578988Y-114310069D01*
X133578992Y-114310067D01*
X133578993Y-114310066D01*
X133729013Y-114229879D01*
X133729016Y-114229878D01*
X133891805Y-114180496D01*
X134061100Y-114163822D01*
X134230394Y-114180496D01*
G37*
G36*
X124070394Y-114180496D02*
G01*
X124190826Y-114217029D01*
X124233187Y-114229879D01*
X124383207Y-114310066D01*
X124383210Y-114310068D01*
X124383211Y-114310069D01*
X124514712Y-114417988D01*
X124622631Y-114549488D01*
X124622633Y-114549492D01*
X124622634Y-114549493D01*
X124702821Y-114699513D01*
X124702822Y-114699516D01*
X124752204Y-114862305D01*
X124764700Y-114989180D01*
X124764700Y-116598020D01*
X124752204Y-116724895D01*
X124702822Y-116887684D01*
X124702821Y-116887687D01*
X124622634Y-117037707D01*
X124622631Y-117037712D01*
X124514712Y-117169212D01*
X124383212Y-117277131D01*
X124383208Y-117277133D01*
X124383207Y-117277134D01*
X124233187Y-117357321D01*
X124233184Y-117357322D01*
X124070395Y-117406704D01*
X123901100Y-117423378D01*
X123731806Y-117406704D01*
X123569017Y-117357322D01*
X123569014Y-117357321D01*
X123418994Y-117277134D01*
X123418993Y-117277133D01*
X123418989Y-117277131D01*
X123287489Y-117169212D01*
X123179570Y-117037712D01*
X123179567Y-117037707D01*
X123099380Y-116887687D01*
X123099379Y-116887684D01*
X123049997Y-116724895D01*
X123037501Y-116598020D01*
X123037500Y-114989181D01*
X123049996Y-114862306D01*
X123099378Y-114699517D01*
X123099379Y-114699513D01*
X123179566Y-114549493D01*
X123179570Y-114549488D01*
X123287488Y-114417988D01*
X123418988Y-114310069D01*
X123418992Y-114310067D01*
X123418993Y-114310066D01*
X123569013Y-114229879D01*
X123569016Y-114229878D01*
X123731805Y-114180496D01*
X123901100Y-114163822D01*
X124070394Y-114180496D01*
G37*
G36*
X129150394Y-114180496D02*
G01*
X129270826Y-114217029D01*
X129313187Y-114229879D01*
X129463207Y-114310066D01*
X129463210Y-114310068D01*
X129463211Y-114310069D01*
X129594712Y-114417988D01*
X129702631Y-114549488D01*
X129702633Y-114549492D01*
X129702634Y-114549493D01*
X129782821Y-114699513D01*
X129782822Y-114699516D01*
X129832204Y-114862305D01*
X129844700Y-114989180D01*
X129844700Y-116598020D01*
X129832204Y-116724895D01*
X129782822Y-116887684D01*
X129782821Y-116887687D01*
X129702634Y-117037707D01*
X129702631Y-117037712D01*
X129594712Y-117169212D01*
X129463212Y-117277131D01*
X129463208Y-117277133D01*
X129463207Y-117277134D01*
X129313187Y-117357321D01*
X129313184Y-117357322D01*
X129150395Y-117406704D01*
X128981100Y-117423378D01*
X128811806Y-117406704D01*
X128649017Y-117357322D01*
X128649014Y-117357321D01*
X128498994Y-117277134D01*
X128498993Y-117277133D01*
X128498989Y-117277131D01*
X128367489Y-117169212D01*
X128259570Y-117037712D01*
X128259567Y-117037707D01*
X128179380Y-116887687D01*
X128179379Y-116887684D01*
X128129997Y-116724895D01*
X128117501Y-116598020D01*
X128117500Y-114989181D01*
X128129996Y-114862306D01*
X128179378Y-114699517D01*
X128179379Y-114699513D01*
X128259566Y-114549493D01*
X128259570Y-114549488D01*
X128367488Y-114417988D01*
X128498988Y-114310069D01*
X128498992Y-114310067D01*
X128498993Y-114310066D01*
X128649013Y-114229879D01*
X128649016Y-114229878D01*
X128811805Y-114180496D01*
X128981100Y-114163822D01*
X129150394Y-114180496D01*
G37*
G36*
X131690394Y-114180496D02*
G01*
X131810826Y-114217029D01*
X131853187Y-114229879D01*
X132003207Y-114310066D01*
X132003210Y-114310068D01*
X132003211Y-114310069D01*
X132134712Y-114417988D01*
X132242631Y-114549488D01*
X132242633Y-114549492D01*
X132242634Y-114549493D01*
X132322821Y-114699513D01*
X132322822Y-114699516D01*
X132372204Y-114862305D01*
X132384700Y-114989180D01*
X132384700Y-116598020D01*
X132372204Y-116724895D01*
X132322822Y-116887684D01*
X132322821Y-116887687D01*
X132242634Y-117037707D01*
X132242631Y-117037712D01*
X132134712Y-117169212D01*
X132003212Y-117277131D01*
X132003208Y-117277133D01*
X132003207Y-117277134D01*
X131853187Y-117357321D01*
X131853184Y-117357322D01*
X131690395Y-117406704D01*
X131521100Y-117423378D01*
X131351806Y-117406704D01*
X131189017Y-117357322D01*
X131189014Y-117357321D01*
X131038994Y-117277134D01*
X131038993Y-117277133D01*
X131038989Y-117277131D01*
X130907489Y-117169212D01*
X130799570Y-117037712D01*
X130799567Y-117037707D01*
X130719380Y-116887687D01*
X130719379Y-116887684D01*
X130669997Y-116724895D01*
X130657501Y-116598020D01*
X130657500Y-114989181D01*
X130669996Y-114862306D01*
X130719378Y-114699517D01*
X130719379Y-114699513D01*
X130799566Y-114549493D01*
X130799570Y-114549488D01*
X130907488Y-114417988D01*
X131038988Y-114310069D01*
X131038992Y-114310067D01*
X131038993Y-114310066D01*
X131189013Y-114229879D01*
X131189016Y-114229878D01*
X131351805Y-114180496D01*
X131521100Y-114163822D01*
X131690394Y-114180496D01*
G37*
G36*
X136770394Y-114180496D02*
G01*
X136890826Y-114217029D01*
X136933187Y-114229879D01*
X137083207Y-114310066D01*
X137083210Y-114310068D01*
X137083211Y-114310069D01*
X137214712Y-114417988D01*
X137322631Y-114549488D01*
X137322633Y-114549492D01*
X137322634Y-114549493D01*
X137402821Y-114699513D01*
X137402822Y-114699516D01*
X137452204Y-114862305D01*
X137464700Y-114989180D01*
X137464700Y-116598020D01*
X137452204Y-116724895D01*
X137402822Y-116887684D01*
X137402821Y-116887687D01*
X137322634Y-117037707D01*
X137322631Y-117037712D01*
X137214712Y-117169212D01*
X137083212Y-117277131D01*
X137083208Y-117277133D01*
X137083207Y-117277134D01*
X136933187Y-117357321D01*
X136933184Y-117357322D01*
X136770395Y-117406704D01*
X136601100Y-117423378D01*
X136431806Y-117406704D01*
X136269017Y-117357322D01*
X136269014Y-117357321D01*
X136118994Y-117277134D01*
X136118993Y-117277133D01*
X136118989Y-117277131D01*
X135987489Y-117169212D01*
X135879570Y-117037712D01*
X135879567Y-117037707D01*
X135799380Y-116887687D01*
X135799379Y-116887684D01*
X135749997Y-116724895D01*
X135737501Y-116598020D01*
X135737500Y-114989181D01*
X135749996Y-114862306D01*
X135799378Y-114699517D01*
X135799379Y-114699513D01*
X135879566Y-114549493D01*
X135879570Y-114549488D01*
X135987488Y-114417988D01*
X136118988Y-114310069D01*
X136118992Y-114310067D01*
X136118993Y-114310066D01*
X136269013Y-114229879D01*
X136269016Y-114229878D01*
X136431805Y-114180496D01*
X136601100Y-114163822D01*
X136770394Y-114180496D01*
G37*
G36*
X185113003Y-111153187D02*
G01*
X185270168Y-111218287D01*
X185411613Y-111312798D01*
X185531902Y-111433087D01*
X185626413Y-111574532D01*
X185691513Y-111731697D01*
X185724700Y-111898543D01*
X185724700Y-112068657D01*
X185691513Y-112235503D01*
X185626413Y-112392668D01*
X185531902Y-112534113D01*
X185411613Y-112654402D01*
X185270168Y-112748913D01*
X185113003Y-112814013D01*
X184946157Y-112847200D01*
X184776043Y-112847200D01*
X184609197Y-112814013D01*
X184452032Y-112748913D01*
X184310587Y-112654402D01*
X184190298Y-112534113D01*
X184095787Y-112392668D01*
X184030687Y-112235503D01*
X183997500Y-112068657D01*
X183997500Y-111898543D01*
X184030687Y-111731697D01*
X184095787Y-111574532D01*
X184190298Y-111433087D01*
X184310587Y-111312798D01*
X184452032Y-111218287D01*
X184609197Y-111153187D01*
X184776043Y-111120000D01*
X184946157Y-111120000D01*
X185113003Y-111153187D01*
G37*
G36*
X187653003Y-111153187D02*
G01*
X187810168Y-111218287D01*
X187951613Y-111312798D01*
X188071902Y-111433087D01*
X188166413Y-111574532D01*
X188231513Y-111731697D01*
X188264700Y-111898543D01*
X188264700Y-112068657D01*
X188231513Y-112235503D01*
X188166413Y-112392668D01*
X188071902Y-112534113D01*
X187951613Y-112654402D01*
X187810168Y-112748913D01*
X187653003Y-112814013D01*
X187486157Y-112847200D01*
X187316043Y-112847200D01*
X187149197Y-112814013D01*
X186992032Y-112748913D01*
X186850587Y-112654402D01*
X186730298Y-112534113D01*
X186635787Y-112392668D01*
X186570687Y-112235503D01*
X186537500Y-112068657D01*
X186537500Y-111898543D01*
X186570687Y-111731697D01*
X186635787Y-111574532D01*
X186730298Y-111433087D01*
X186850587Y-111312798D01*
X186992032Y-111218287D01*
X187149197Y-111153187D01*
X187316043Y-111120000D01*
X187486157Y-111120000D01*
X187653003Y-111153187D01*
G37*
G36*
X192733003Y-111153187D02*
G01*
X192890168Y-111218287D01*
X193031613Y-111312798D01*
X193151902Y-111433087D01*
X193246413Y-111574532D01*
X193311513Y-111731697D01*
X193344700Y-111898543D01*
X193344700Y-112068657D01*
X193311513Y-112235503D01*
X193246413Y-112392668D01*
X193151902Y-112534113D01*
X193031613Y-112654402D01*
X192890168Y-112748913D01*
X192733003Y-112814013D01*
X192566157Y-112847200D01*
X192396043Y-112847200D01*
X192229197Y-112814013D01*
X192072032Y-112748913D01*
X191930587Y-112654402D01*
X191810298Y-112534113D01*
X191715787Y-112392668D01*
X191650687Y-112235503D01*
X191617500Y-112068657D01*
X191617500Y-111898543D01*
X191650687Y-111731697D01*
X191715787Y-111574532D01*
X191810298Y-111433087D01*
X191930587Y-111312798D01*
X192072032Y-111218287D01*
X192229197Y-111153187D01*
X192396043Y-111120000D01*
X192566157Y-111120000D01*
X192733003Y-111153187D01*
G37*
G36*
X195273003Y-111153187D02*
G01*
X195430168Y-111218287D01*
X195571613Y-111312798D01*
X195691902Y-111433087D01*
X195786413Y-111574532D01*
X195851513Y-111731697D01*
X195884700Y-111898543D01*
X195884700Y-112068657D01*
X195851513Y-112235503D01*
X195786413Y-112392668D01*
X195691902Y-112534113D01*
X195571613Y-112654402D01*
X195430168Y-112748913D01*
X195273003Y-112814013D01*
X195106157Y-112847200D01*
X194936043Y-112847200D01*
X194769197Y-112814013D01*
X194612032Y-112748913D01*
X194470587Y-112654402D01*
X194350298Y-112534113D01*
X194255787Y-112392668D01*
X194190687Y-112235503D01*
X194157500Y-112068657D01*
X194157500Y-111898543D01*
X194190687Y-111731697D01*
X194255787Y-111574532D01*
X194350298Y-111433087D01*
X194470587Y-111312798D01*
X194612032Y-111218287D01*
X194769197Y-111153187D01*
X194936043Y-111120000D01*
X195106157Y-111120000D01*
X195273003Y-111153187D01*
G37*
G36*
X197813003Y-111153187D02*
G01*
X197970168Y-111218287D01*
X198111613Y-111312798D01*
X198231902Y-111433087D01*
X198326413Y-111574532D01*
X198391513Y-111731697D01*
X198424700Y-111898543D01*
X198424700Y-112068657D01*
X198391513Y-112235503D01*
X198326413Y-112392668D01*
X198231902Y-112534113D01*
X198111613Y-112654402D01*
X197970168Y-112748913D01*
X197813003Y-112814013D01*
X197646157Y-112847200D01*
X197476043Y-112847200D01*
X197309197Y-112814013D01*
X197152032Y-112748913D01*
X197010587Y-112654402D01*
X196890298Y-112534113D01*
X196795787Y-112392668D01*
X196730687Y-112235503D01*
X196697500Y-112068657D01*
X196697500Y-111898543D01*
X196730687Y-111731697D01*
X196795787Y-111574532D01*
X196890298Y-111433087D01*
X197010587Y-111312798D01*
X197152032Y-111218287D01*
X197309197Y-111153187D01*
X197476043Y-111120000D01*
X197646157Y-111120000D01*
X197813003Y-111153187D01*
G37*
G36*
X190193003Y-111153187D02*
G01*
X190350168Y-111218287D01*
X190491613Y-111312798D01*
X190611902Y-111433087D01*
X190706413Y-111574532D01*
X190771513Y-111731697D01*
X190804700Y-111898543D01*
X190804700Y-112068657D01*
X190771513Y-112235503D01*
X190706413Y-112392668D01*
X190611902Y-112534113D01*
X190491613Y-112654402D01*
X190350168Y-112748913D01*
X190193003Y-112814013D01*
X190026157Y-112847200D01*
X189856043Y-112847200D01*
X189689197Y-112814013D01*
X189532032Y-112748913D01*
X189390587Y-112654402D01*
X189270298Y-112534113D01*
X189175787Y-112392668D01*
X189110687Y-112235503D01*
X189077500Y-112068657D01*
X189077500Y-111898543D01*
X189110687Y-111731697D01*
X189175787Y-111574532D01*
X189270298Y-111433087D01*
X189390587Y-111312798D01*
X189532032Y-111218287D01*
X189689197Y-111153187D01*
X189856043Y-111120000D01*
X190026157Y-111120000D01*
X190193003Y-111153187D01*
G37*
G36*
X179954295Y-111241122D02*
G01*
X180003367Y-111250883D01*
X180142042Y-111308324D01*
X180266847Y-111391716D01*
X180372984Y-111497853D01*
X180456376Y-111622658D01*
X180513817Y-111761333D01*
X180513817Y-111761334D01*
X180543100Y-111908548D01*
X180543100Y-112058652D01*
X180526981Y-112139686D01*
X180513817Y-112205867D01*
X180456376Y-112344542D01*
X180372984Y-112469347D01*
X180266847Y-112575484D01*
X180142042Y-112658876D01*
X180003367Y-112716317D01*
X179954295Y-112726078D01*
X179856152Y-112745600D01*
X179706048Y-112745600D01*
X179607905Y-112726078D01*
X179558833Y-112716317D01*
X179420158Y-112658876D01*
X179295353Y-112575484D01*
X179189216Y-112469347D01*
X179105824Y-112344542D01*
X179048383Y-112205867D01*
X179035219Y-112139686D01*
X179019100Y-112058652D01*
X179019100Y-111908548D01*
X179048383Y-111761334D01*
X179048383Y-111761333D01*
X179105824Y-111622658D01*
X179189216Y-111497853D01*
X179295353Y-111391716D01*
X179420158Y-111308324D01*
X179558833Y-111250883D01*
X179607905Y-111241122D01*
X179706048Y-111221600D01*
X179856152Y-111221600D01*
X179954295Y-111241122D01*
G37*
G36*
X182494295Y-111241122D02*
G01*
X182543367Y-111250883D01*
X182682042Y-111308324D01*
X182806847Y-111391716D01*
X182912984Y-111497853D01*
X182996376Y-111622658D01*
X183053817Y-111761333D01*
X183053817Y-111761334D01*
X183083100Y-111908548D01*
X183083100Y-112058652D01*
X183066981Y-112139686D01*
X183053817Y-112205867D01*
X182996376Y-112344542D01*
X182912984Y-112469347D01*
X182806847Y-112575484D01*
X182682042Y-112658876D01*
X182543367Y-112716317D01*
X182494295Y-112726078D01*
X182396152Y-112745600D01*
X182246048Y-112745600D01*
X182147905Y-112726078D01*
X182098833Y-112716317D01*
X181960158Y-112658876D01*
X181835353Y-112575484D01*
X181729216Y-112469347D01*
X181645824Y-112344542D01*
X181588383Y-112205867D01*
X181575219Y-112139686D01*
X181559100Y-112058652D01*
X181559100Y-111908548D01*
X181588383Y-111761334D01*
X181588383Y-111761333D01*
X181645824Y-111622658D01*
X181729216Y-111497853D01*
X181835353Y-111391716D01*
X181960158Y-111308324D01*
X182098833Y-111250883D01*
X182147905Y-111241122D01*
X182246048Y-111221600D01*
X182396152Y-111221600D01*
X182494295Y-111241122D01*
G37*
G36*
X174850477Y-109302226D02*
G01*
X174956741Y-109334461D01*
X174994118Y-109345799D01*
X175126490Y-109416554D01*
X175126492Y-109416555D01*
X175126491Y-109416555D01*
X175242522Y-109511778D01*
X175248163Y-109518652D01*
X175337746Y-109627809D01*
X175408501Y-109760181D01*
X175419839Y-109797558D01*
X175452074Y-109903822D01*
X175463100Y-110015774D01*
X175463100Y-111411426D01*
X175452074Y-111523378D01*
X175436556Y-111574533D01*
X175408501Y-111667019D01*
X175337746Y-111799391D01*
X175242522Y-111915422D01*
X175126491Y-112010646D01*
X174994119Y-112081401D01*
X174956742Y-112092739D01*
X174850478Y-112124974D01*
X174701100Y-112139686D01*
X174551723Y-112124974D01*
X174445459Y-112092739D01*
X174408082Y-112081401D01*
X174275710Y-112010646D01*
X174159679Y-111915422D01*
X174064455Y-111799391D01*
X173993700Y-111667019D01*
X173965645Y-111574533D01*
X173950127Y-111523378D01*
X173939101Y-111411426D01*
X173939100Y-110015775D01*
X173950126Y-109903823D01*
X173993698Y-109760186D01*
X173993699Y-109760182D01*
X174064454Y-109627810D01*
X174078934Y-109610166D01*
X174159678Y-109511778D01*
X174275708Y-109416555D01*
X174275707Y-109416555D01*
X174275709Y-109416554D01*
X174408081Y-109345799D01*
X174445458Y-109334461D01*
X174551722Y-109302226D01*
X174701100Y-109287514D01*
X174850477Y-109302226D01*
G37*
G36*
X164690477Y-109302226D02*
G01*
X164796741Y-109334461D01*
X164834118Y-109345799D01*
X164966490Y-109416554D01*
X164966492Y-109416555D01*
X164966491Y-109416555D01*
X165082522Y-109511778D01*
X165088163Y-109518652D01*
X165177746Y-109627809D01*
X165248501Y-109760181D01*
X165259839Y-109797558D01*
X165292074Y-109903822D01*
X165303100Y-110015774D01*
X165303100Y-111411426D01*
X165292074Y-111523378D01*
X165276556Y-111574533D01*
X165248501Y-111667019D01*
X165177746Y-111799391D01*
X165082522Y-111915422D01*
X164966491Y-112010646D01*
X164834119Y-112081401D01*
X164796742Y-112092739D01*
X164690478Y-112124974D01*
X164541100Y-112139686D01*
X164391723Y-112124974D01*
X164285459Y-112092739D01*
X164248082Y-112081401D01*
X164115710Y-112010646D01*
X163999679Y-111915422D01*
X163904455Y-111799391D01*
X163833700Y-111667019D01*
X163805645Y-111574533D01*
X163790127Y-111523378D01*
X163779101Y-111411426D01*
X163779100Y-110015775D01*
X163790126Y-109903823D01*
X163833698Y-109760186D01*
X163833699Y-109760182D01*
X163904454Y-109627810D01*
X163918934Y-109610166D01*
X163999678Y-109511778D01*
X164115708Y-109416555D01*
X164115707Y-109416555D01*
X164115709Y-109416554D01*
X164248081Y-109345799D01*
X164285458Y-109334461D01*
X164391722Y-109302226D01*
X164541100Y-109287514D01*
X164690477Y-109302226D01*
G37*
G36*
X177390477Y-109302226D02*
G01*
X177496741Y-109334461D01*
X177534118Y-109345799D01*
X177666490Y-109416554D01*
X177666492Y-109416555D01*
X177666491Y-109416555D01*
X177782522Y-109511778D01*
X177788163Y-109518652D01*
X177877746Y-109627809D01*
X177948501Y-109760181D01*
X177959839Y-109797558D01*
X177992074Y-109903822D01*
X178003100Y-110015774D01*
X178003100Y-111411426D01*
X177992074Y-111523378D01*
X177976556Y-111574533D01*
X177948501Y-111667019D01*
X177877746Y-111799391D01*
X177782522Y-111915422D01*
X177666491Y-112010646D01*
X177534119Y-112081401D01*
X177496742Y-112092739D01*
X177390478Y-112124974D01*
X177241100Y-112139686D01*
X177091723Y-112124974D01*
X176985459Y-112092739D01*
X176948082Y-112081401D01*
X176815710Y-112010646D01*
X176699679Y-111915422D01*
X176604455Y-111799391D01*
X176533700Y-111667019D01*
X176505645Y-111574533D01*
X176490127Y-111523378D01*
X176479101Y-111411426D01*
X176479100Y-110015775D01*
X176490126Y-109903823D01*
X176533698Y-109760186D01*
X176533699Y-109760182D01*
X176604454Y-109627810D01*
X176618934Y-109610166D01*
X176699678Y-109511778D01*
X176815708Y-109416555D01*
X176815707Y-109416555D01*
X176815709Y-109416554D01*
X176948081Y-109345799D01*
X176985458Y-109334461D01*
X177091722Y-109302226D01*
X177241100Y-109287514D01*
X177390477Y-109302226D01*
G37*
G36*
X169770477Y-109302226D02*
G01*
X169876741Y-109334461D01*
X169914118Y-109345799D01*
X170046490Y-109416554D01*
X170046492Y-109416555D01*
X170046491Y-109416555D01*
X170162522Y-109511778D01*
X170168163Y-109518652D01*
X170257746Y-109627809D01*
X170328501Y-109760181D01*
X170339839Y-109797558D01*
X170372074Y-109903822D01*
X170383100Y-110015774D01*
X170383100Y-111411426D01*
X170372074Y-111523378D01*
X170356556Y-111574533D01*
X170328501Y-111667019D01*
X170257746Y-111799391D01*
X170162522Y-111915422D01*
X170046491Y-112010646D01*
X169914119Y-112081401D01*
X169876742Y-112092739D01*
X169770478Y-112124974D01*
X169621100Y-112139686D01*
X169471723Y-112124974D01*
X169365459Y-112092739D01*
X169328082Y-112081401D01*
X169195710Y-112010646D01*
X169079679Y-111915422D01*
X168984455Y-111799391D01*
X168913700Y-111667019D01*
X168885645Y-111574533D01*
X168870127Y-111523378D01*
X168859101Y-111411426D01*
X168859100Y-110015775D01*
X168870126Y-109903823D01*
X168913698Y-109760186D01*
X168913699Y-109760182D01*
X168984454Y-109627810D01*
X168998934Y-109610166D01*
X169079678Y-109511778D01*
X169195708Y-109416555D01*
X169195707Y-109416555D01*
X169195709Y-109416554D01*
X169328081Y-109345799D01*
X169365458Y-109334461D01*
X169471722Y-109302226D01*
X169621100Y-109287514D01*
X169770477Y-109302226D01*
G37*
G36*
X172310477Y-109302226D02*
G01*
X172416741Y-109334461D01*
X172454118Y-109345799D01*
X172586490Y-109416554D01*
X172586492Y-109416555D01*
X172586491Y-109416555D01*
X172702522Y-109511778D01*
X172708163Y-109518652D01*
X172797746Y-109627809D01*
X172868501Y-109760181D01*
X172879839Y-109797558D01*
X172912074Y-109903822D01*
X172923100Y-110015774D01*
X172923100Y-111411426D01*
X172912074Y-111523378D01*
X172896556Y-111574533D01*
X172868501Y-111667019D01*
X172797746Y-111799391D01*
X172702522Y-111915422D01*
X172586491Y-112010646D01*
X172454119Y-112081401D01*
X172416742Y-112092739D01*
X172310478Y-112124974D01*
X172161100Y-112139686D01*
X172011723Y-112124974D01*
X171905459Y-112092739D01*
X171868082Y-112081401D01*
X171735710Y-112010646D01*
X171619679Y-111915422D01*
X171524455Y-111799391D01*
X171453700Y-111667019D01*
X171425645Y-111574533D01*
X171410127Y-111523378D01*
X171399101Y-111411426D01*
X171399100Y-110015775D01*
X171410126Y-109903823D01*
X171453698Y-109760186D01*
X171453699Y-109760182D01*
X171524454Y-109627810D01*
X171538934Y-109610166D01*
X171619678Y-109511778D01*
X171735708Y-109416555D01*
X171735707Y-109416555D01*
X171735709Y-109416554D01*
X171868081Y-109345799D01*
X171905458Y-109334461D01*
X172011722Y-109302226D01*
X172161100Y-109287514D01*
X172310477Y-109302226D01*
G37*
G36*
X167230477Y-109302226D02*
G01*
X167336741Y-109334461D01*
X167374118Y-109345799D01*
X167506490Y-109416554D01*
X167506492Y-109416555D01*
X167506491Y-109416555D01*
X167622522Y-109511778D01*
X167628163Y-109518652D01*
X167717746Y-109627809D01*
X167788501Y-109760181D01*
X167799839Y-109797558D01*
X167832074Y-109903822D01*
X167843100Y-110015774D01*
X167843100Y-111411426D01*
X167832074Y-111523378D01*
X167816556Y-111574533D01*
X167788501Y-111667019D01*
X167717746Y-111799391D01*
X167622522Y-111915422D01*
X167506491Y-112010646D01*
X167374119Y-112081401D01*
X167336742Y-112092739D01*
X167230478Y-112124974D01*
X167081100Y-112139686D01*
X166931723Y-112124974D01*
X166825459Y-112092739D01*
X166788082Y-112081401D01*
X166655710Y-112010646D01*
X166539679Y-111915422D01*
X166444455Y-111799391D01*
X166373700Y-111667019D01*
X166345645Y-111574533D01*
X166330127Y-111523378D01*
X166319101Y-111411426D01*
X166319100Y-110015775D01*
X166330126Y-109903823D01*
X166373698Y-109760186D01*
X166373699Y-109760182D01*
X166444454Y-109627810D01*
X166458934Y-109610166D01*
X166539678Y-109511778D01*
X166655708Y-109416555D01*
X166655707Y-109416555D01*
X166655709Y-109416554D01*
X166788081Y-109345799D01*
X166825458Y-109334461D01*
X166931722Y-109302226D01*
X167081100Y-109287514D01*
X167230477Y-109302226D01*
G37*
G36*
X145640477Y-109302226D02*
G01*
X145746741Y-109334461D01*
X145784118Y-109345799D01*
X145916490Y-109416554D01*
X145916492Y-109416555D01*
X145916491Y-109416555D01*
X146032522Y-109511778D01*
X146038163Y-109518652D01*
X146127746Y-109627809D01*
X146198501Y-109760181D01*
X146209839Y-109797558D01*
X146242074Y-109903822D01*
X146253100Y-110015774D01*
X146253100Y-111411426D01*
X146242074Y-111523378D01*
X146226556Y-111574533D01*
X146198501Y-111667019D01*
X146127746Y-111799391D01*
X146032522Y-111915422D01*
X145916491Y-112010646D01*
X145784119Y-112081401D01*
X145746742Y-112092739D01*
X145640478Y-112124974D01*
X145491100Y-112139686D01*
X145341723Y-112124974D01*
X145235459Y-112092739D01*
X145198082Y-112081401D01*
X145065710Y-112010646D01*
X144949679Y-111915422D01*
X144854455Y-111799391D01*
X144783700Y-111667019D01*
X144755645Y-111574533D01*
X144740127Y-111523378D01*
X144729101Y-111411426D01*
X144729100Y-110015775D01*
X144740126Y-109903823D01*
X144783698Y-109760186D01*
X144783699Y-109760182D01*
X144854454Y-109627810D01*
X144868934Y-109610166D01*
X144949678Y-109511778D01*
X145065708Y-109416555D01*
X145065707Y-109416555D01*
X145065709Y-109416554D01*
X145198081Y-109345799D01*
X145235458Y-109334461D01*
X145341722Y-109302226D01*
X145491100Y-109287514D01*
X145640477Y-109302226D01*
G37*
G36*
X150720477Y-109302226D02*
G01*
X150826741Y-109334461D01*
X150864118Y-109345799D01*
X150996490Y-109416554D01*
X150996492Y-109416555D01*
X150996491Y-109416555D01*
X151112522Y-109511778D01*
X151118163Y-109518652D01*
X151207746Y-109627809D01*
X151278501Y-109760181D01*
X151289839Y-109797558D01*
X151322074Y-109903822D01*
X151333100Y-110015774D01*
X151333100Y-111411426D01*
X151322074Y-111523378D01*
X151306556Y-111574533D01*
X151278501Y-111667019D01*
X151207746Y-111799391D01*
X151112522Y-111915422D01*
X150996491Y-112010646D01*
X150864119Y-112081401D01*
X150826742Y-112092739D01*
X150720478Y-112124974D01*
X150571100Y-112139686D01*
X150421723Y-112124974D01*
X150315459Y-112092739D01*
X150278082Y-112081401D01*
X150145710Y-112010646D01*
X150029679Y-111915422D01*
X149934455Y-111799391D01*
X149863700Y-111667019D01*
X149835645Y-111574533D01*
X149820127Y-111523378D01*
X149809101Y-111411426D01*
X149809100Y-110015775D01*
X149820126Y-109903823D01*
X149863698Y-109760186D01*
X149863699Y-109760182D01*
X149934454Y-109627810D01*
X149948934Y-109610166D01*
X150029678Y-109511778D01*
X150145708Y-109416555D01*
X150145707Y-109416555D01*
X150145709Y-109416554D01*
X150278081Y-109345799D01*
X150315458Y-109334461D01*
X150421722Y-109302226D01*
X150571100Y-109287514D01*
X150720477Y-109302226D01*
G37*
G36*
X153260477Y-109302226D02*
G01*
X153366741Y-109334461D01*
X153404118Y-109345799D01*
X153536490Y-109416554D01*
X153536492Y-109416555D01*
X153536491Y-109416555D01*
X153652522Y-109511778D01*
X153658163Y-109518652D01*
X153747746Y-109627809D01*
X153818501Y-109760181D01*
X153829839Y-109797558D01*
X153862074Y-109903822D01*
X153873100Y-110015774D01*
X153873100Y-111411426D01*
X153862074Y-111523378D01*
X153846556Y-111574533D01*
X153818501Y-111667019D01*
X153747746Y-111799391D01*
X153652522Y-111915422D01*
X153536491Y-112010646D01*
X153404119Y-112081401D01*
X153366742Y-112092739D01*
X153260478Y-112124974D01*
X153111100Y-112139686D01*
X152961723Y-112124974D01*
X152855459Y-112092739D01*
X152818082Y-112081401D01*
X152685710Y-112010646D01*
X152569679Y-111915422D01*
X152474455Y-111799391D01*
X152403700Y-111667019D01*
X152375645Y-111574533D01*
X152360127Y-111523378D01*
X152349101Y-111411426D01*
X152349100Y-110015775D01*
X152360126Y-109903823D01*
X152403698Y-109760186D01*
X152403699Y-109760182D01*
X152474454Y-109627810D01*
X152488934Y-109610166D01*
X152569678Y-109511778D01*
X152685708Y-109416555D01*
X152685707Y-109416555D01*
X152685709Y-109416554D01*
X152818081Y-109345799D01*
X152855458Y-109334461D01*
X152961722Y-109302226D01*
X153111100Y-109287514D01*
X153260477Y-109302226D01*
G37*
G36*
X155800477Y-109302226D02*
G01*
X155906741Y-109334461D01*
X155944118Y-109345799D01*
X156076490Y-109416554D01*
X156076492Y-109416555D01*
X156076491Y-109416555D01*
X156192522Y-109511778D01*
X156198163Y-109518652D01*
X156287746Y-109627809D01*
X156358501Y-109760181D01*
X156369839Y-109797558D01*
X156402074Y-109903822D01*
X156413100Y-110015774D01*
X156413100Y-111411426D01*
X156402074Y-111523378D01*
X156386556Y-111574533D01*
X156358501Y-111667019D01*
X156287746Y-111799391D01*
X156192522Y-111915422D01*
X156076491Y-112010646D01*
X155944119Y-112081401D01*
X155906742Y-112092739D01*
X155800478Y-112124974D01*
X155651100Y-112139686D01*
X155501723Y-112124974D01*
X155395459Y-112092739D01*
X155358082Y-112081401D01*
X155225710Y-112010646D01*
X155109679Y-111915422D01*
X155014455Y-111799391D01*
X154943700Y-111667019D01*
X154915645Y-111574533D01*
X154900127Y-111523378D01*
X154889101Y-111411426D01*
X154889100Y-110015775D01*
X154900126Y-109903823D01*
X154943698Y-109760186D01*
X154943699Y-109760182D01*
X155014454Y-109627810D01*
X155028934Y-109610166D01*
X155109678Y-109511778D01*
X155225708Y-109416555D01*
X155225707Y-109416555D01*
X155225709Y-109416554D01*
X155358081Y-109345799D01*
X155395458Y-109334461D01*
X155501722Y-109302226D01*
X155651100Y-109287514D01*
X155800477Y-109302226D01*
G37*
G36*
X158340477Y-109302226D02*
G01*
X158446741Y-109334461D01*
X158484118Y-109345799D01*
X158616490Y-109416554D01*
X158616492Y-109416555D01*
X158616491Y-109416555D01*
X158732522Y-109511778D01*
X158738163Y-109518652D01*
X158827746Y-109627809D01*
X158898501Y-109760181D01*
X158909839Y-109797558D01*
X158942074Y-109903822D01*
X158953100Y-110015774D01*
X158953100Y-111411426D01*
X158942074Y-111523378D01*
X158926556Y-111574533D01*
X158898501Y-111667019D01*
X158827746Y-111799391D01*
X158732522Y-111915422D01*
X158616491Y-112010646D01*
X158484119Y-112081401D01*
X158446742Y-112092739D01*
X158340478Y-112124974D01*
X158191100Y-112139686D01*
X158041723Y-112124974D01*
X157935459Y-112092739D01*
X157898082Y-112081401D01*
X157765710Y-112010646D01*
X157649679Y-111915422D01*
X157554455Y-111799391D01*
X157483700Y-111667019D01*
X157455645Y-111574533D01*
X157440127Y-111523378D01*
X157429101Y-111411426D01*
X157429100Y-110015775D01*
X157440126Y-109903823D01*
X157483698Y-109760186D01*
X157483699Y-109760182D01*
X157554454Y-109627810D01*
X157568934Y-109610166D01*
X157649678Y-109511778D01*
X157765708Y-109416555D01*
X157765707Y-109416555D01*
X157765709Y-109416554D01*
X157898081Y-109345799D01*
X157935458Y-109334461D01*
X158041722Y-109302226D01*
X158191100Y-109287514D01*
X158340477Y-109302226D01*
G37*
G36*
X162150477Y-109302226D02*
G01*
X162256741Y-109334461D01*
X162294118Y-109345799D01*
X162426490Y-109416554D01*
X162426492Y-109416555D01*
X162426491Y-109416555D01*
X162542522Y-109511778D01*
X162548163Y-109518652D01*
X162637746Y-109627809D01*
X162708501Y-109760181D01*
X162719839Y-109797558D01*
X162752074Y-109903822D01*
X162763100Y-110015774D01*
X162763100Y-111411426D01*
X162752074Y-111523378D01*
X162736556Y-111574533D01*
X162708501Y-111667019D01*
X162637746Y-111799391D01*
X162542522Y-111915422D01*
X162426491Y-112010646D01*
X162294119Y-112081401D01*
X162256742Y-112092739D01*
X162150478Y-112124974D01*
X162001100Y-112139686D01*
X161851723Y-112124974D01*
X161745459Y-112092739D01*
X161708082Y-112081401D01*
X161575710Y-112010646D01*
X161459679Y-111915422D01*
X161364455Y-111799391D01*
X161293700Y-111667019D01*
X161265645Y-111574533D01*
X161250127Y-111523378D01*
X161239101Y-111411426D01*
X161239100Y-110015775D01*
X161250126Y-109903823D01*
X161293698Y-109760186D01*
X161293699Y-109760182D01*
X161364454Y-109627810D01*
X161378934Y-109610166D01*
X161459678Y-109511778D01*
X161575708Y-109416555D01*
X161575707Y-109416555D01*
X161575709Y-109416554D01*
X161708081Y-109345799D01*
X161745458Y-109334461D01*
X161851722Y-109302226D01*
X162001100Y-109287514D01*
X162150477Y-109302226D01*
G37*
G36*
X143100477Y-109302226D02*
G01*
X143206741Y-109334461D01*
X143244118Y-109345799D01*
X143376490Y-109416554D01*
X143376492Y-109416555D01*
X143376491Y-109416555D01*
X143492522Y-109511778D01*
X143498163Y-109518652D01*
X143587746Y-109627809D01*
X143658501Y-109760181D01*
X143669839Y-109797558D01*
X143702074Y-109903822D01*
X143713100Y-110015774D01*
X143713100Y-111411426D01*
X143702074Y-111523378D01*
X143686556Y-111574533D01*
X143658501Y-111667019D01*
X143587746Y-111799391D01*
X143492522Y-111915422D01*
X143376491Y-112010646D01*
X143244119Y-112081401D01*
X143206742Y-112092739D01*
X143100478Y-112124974D01*
X142951100Y-112139686D01*
X142801723Y-112124974D01*
X142695459Y-112092739D01*
X142658082Y-112081401D01*
X142525710Y-112010646D01*
X142409679Y-111915422D01*
X142314455Y-111799391D01*
X142243700Y-111667019D01*
X142215645Y-111574533D01*
X142200127Y-111523378D01*
X142189101Y-111411426D01*
X142189100Y-110015775D01*
X142200126Y-109903823D01*
X142243698Y-109760186D01*
X142243699Y-109760182D01*
X142314454Y-109627810D01*
X142328934Y-109610166D01*
X142409678Y-109511778D01*
X142525708Y-109416555D01*
X142525707Y-109416555D01*
X142525709Y-109416554D01*
X142658081Y-109345799D01*
X142695458Y-109334461D01*
X142801722Y-109302226D01*
X142951100Y-109287514D01*
X143100477Y-109302226D01*
G37*
G36*
X148180477Y-109302226D02*
G01*
X148286741Y-109334461D01*
X148324118Y-109345799D01*
X148456490Y-109416554D01*
X148456492Y-109416555D01*
X148456491Y-109416555D01*
X148572522Y-109511778D01*
X148578163Y-109518652D01*
X148667746Y-109627809D01*
X148738501Y-109760181D01*
X148749839Y-109797558D01*
X148782074Y-109903822D01*
X148793100Y-110015774D01*
X148793100Y-111411426D01*
X148782074Y-111523378D01*
X148766556Y-111574533D01*
X148738501Y-111667019D01*
X148667746Y-111799391D01*
X148572522Y-111915422D01*
X148456491Y-112010646D01*
X148324119Y-112081401D01*
X148286742Y-112092739D01*
X148180478Y-112124974D01*
X148031100Y-112139686D01*
X147881723Y-112124974D01*
X147775459Y-112092739D01*
X147738082Y-112081401D01*
X147605710Y-112010646D01*
X147489679Y-111915422D01*
X147394455Y-111799391D01*
X147323700Y-111667019D01*
X147295645Y-111574533D01*
X147280127Y-111523378D01*
X147269101Y-111411426D01*
X147269100Y-110015775D01*
X147280126Y-109903823D01*
X147323698Y-109760186D01*
X147323699Y-109760182D01*
X147394454Y-109627810D01*
X147408934Y-109610166D01*
X147489678Y-109511778D01*
X147605708Y-109416555D01*
X147605707Y-109416555D01*
X147605709Y-109416554D01*
X147738081Y-109345799D01*
X147775458Y-109334461D01*
X147881722Y-109302226D01*
X148031100Y-109287514D01*
X148180477Y-109302226D01*
G37*
G36*
X108834295Y-109971122D02*
G01*
X108883367Y-109980883D01*
X109022042Y-110038324D01*
X109146847Y-110121716D01*
X109252984Y-110227853D01*
X109336376Y-110352658D01*
X109393817Y-110491333D01*
X109423100Y-110638550D01*
X109423100Y-110788650D01*
X109393817Y-110935867D01*
X109336376Y-111074542D01*
X109252984Y-111199347D01*
X109146847Y-111305484D01*
X109022042Y-111388876D01*
X108883367Y-111446317D01*
X108834295Y-111456078D01*
X108736152Y-111475600D01*
X108586048Y-111475600D01*
X108487905Y-111456078D01*
X108438833Y-111446317D01*
X108300158Y-111388876D01*
X108175353Y-111305484D01*
X108069216Y-111199347D01*
X107985824Y-111074542D01*
X107928383Y-110935867D01*
X107899100Y-110788650D01*
X107899100Y-110638550D01*
X107928383Y-110491333D01*
X107985824Y-110352658D01*
X108069216Y-110227853D01*
X108175353Y-110121716D01*
X108300158Y-110038324D01*
X108438833Y-109980883D01*
X108487905Y-109971122D01*
X108586048Y-109951600D01*
X108736152Y-109951600D01*
X108834295Y-109971122D01*
G37*
G36*
X132964295Y-109971122D02*
G01*
X133013367Y-109980883D01*
X133152042Y-110038324D01*
X133276847Y-110121716D01*
X133382984Y-110227853D01*
X133466376Y-110352658D01*
X133523817Y-110491333D01*
X133553100Y-110638550D01*
X133553100Y-110788650D01*
X133523817Y-110935867D01*
X133466376Y-111074542D01*
X133382984Y-111199347D01*
X133276847Y-111305484D01*
X133152042Y-111388876D01*
X133013367Y-111446317D01*
X132964295Y-111456078D01*
X132866152Y-111475600D01*
X132716048Y-111475600D01*
X132617905Y-111456078D01*
X132568833Y-111446317D01*
X132430158Y-111388876D01*
X132305353Y-111305484D01*
X132199216Y-111199347D01*
X132115824Y-111074542D01*
X132058383Y-110935867D01*
X132029100Y-110788650D01*
X132029100Y-110638550D01*
X132058383Y-110491333D01*
X132115824Y-110352658D01*
X132199216Y-110227853D01*
X132305353Y-110121716D01*
X132430158Y-110038324D01*
X132568833Y-109980883D01*
X132617905Y-109971122D01*
X132716048Y-109951600D01*
X132866152Y-109951600D01*
X132964295Y-109971122D01*
G37*
G36*
X140584295Y-109971122D02*
G01*
X140633367Y-109980883D01*
X140772042Y-110038324D01*
X140896847Y-110121716D01*
X141002984Y-110227853D01*
X141086376Y-110352658D01*
X141143817Y-110491333D01*
X141173100Y-110638550D01*
X141173100Y-110788650D01*
X141143817Y-110935867D01*
X141086376Y-111074542D01*
X141002984Y-111199347D01*
X140896847Y-111305484D01*
X140772042Y-111388876D01*
X140633367Y-111446317D01*
X140584295Y-111456078D01*
X140486152Y-111475600D01*
X140336048Y-111475600D01*
X140237905Y-111456078D01*
X140188833Y-111446317D01*
X140050158Y-111388876D01*
X139925353Y-111305484D01*
X139819216Y-111199347D01*
X139735824Y-111074542D01*
X139678383Y-110935867D01*
X139649100Y-110788650D01*
X139649100Y-110638550D01*
X139678383Y-110491333D01*
X139735824Y-110352658D01*
X139819216Y-110227853D01*
X139925353Y-110121716D01*
X140050158Y-110038324D01*
X140188833Y-109980883D01*
X140237905Y-109971122D01*
X140336048Y-109951600D01*
X140486152Y-109951600D01*
X140584295Y-109971122D01*
G37*
G36*
X101214295Y-109971122D02*
G01*
X101263367Y-109980883D01*
X101402042Y-110038324D01*
X101526847Y-110121716D01*
X101632984Y-110227853D01*
X101716376Y-110352658D01*
X101773817Y-110491333D01*
X101803100Y-110638550D01*
X101803100Y-110788650D01*
X101773817Y-110935867D01*
X101716376Y-111074542D01*
X101632984Y-111199347D01*
X101526847Y-111305484D01*
X101402042Y-111388876D01*
X101263367Y-111446317D01*
X101214295Y-111456078D01*
X101116152Y-111475600D01*
X100966048Y-111475600D01*
X100867905Y-111456078D01*
X100818833Y-111446317D01*
X100680158Y-111388876D01*
X100555353Y-111305484D01*
X100449216Y-111199347D01*
X100365824Y-111074542D01*
X100308383Y-110935867D01*
X100279100Y-110788650D01*
X100279100Y-110638550D01*
X100308383Y-110491333D01*
X100365824Y-110352658D01*
X100449216Y-110227853D01*
X100555353Y-110121716D01*
X100680158Y-110038324D01*
X100818833Y-109980883D01*
X100867905Y-109971122D01*
X100966048Y-109951600D01*
X101116152Y-109951600D01*
X101214295Y-109971122D01*
G37*
G36*
X125314803Y-109991153D02*
G01*
X125385958Y-110005307D01*
X125441484Y-110028307D01*
X125520010Y-110060833D01*
X125520011Y-110060834D01*
X125640655Y-110141445D01*
X125743255Y-110244045D01*
X125785453Y-110307200D01*
X125823867Y-110364690D01*
X125879393Y-110498743D01*
X125907700Y-110641050D01*
X125907700Y-110786150D01*
X125879393Y-110928457D01*
X125823867Y-111062510D01*
X125823866Y-111062511D01*
X125743255Y-111183155D01*
X125640655Y-111285755D01*
X125560043Y-111339618D01*
X125520010Y-111366367D01*
X125458811Y-111391716D01*
X125385958Y-111421893D01*
X125329682Y-111433087D01*
X125243650Y-111450200D01*
X125098550Y-111450200D01*
X125012518Y-111433087D01*
X124956242Y-111421893D01*
X124883389Y-111391716D01*
X124822190Y-111366367D01*
X124782157Y-111339618D01*
X124701545Y-111285755D01*
X124598945Y-111183155D01*
X124518334Y-111062511D01*
X124518333Y-111062510D01*
X124462807Y-110928457D01*
X124434500Y-110786150D01*
X124434500Y-110641050D01*
X124462807Y-110498743D01*
X124518333Y-110364690D01*
X124556747Y-110307200D01*
X124598945Y-110244045D01*
X124701545Y-110141445D01*
X124822189Y-110060834D01*
X124822190Y-110060833D01*
X124900716Y-110028307D01*
X124956242Y-110005307D01*
X125027397Y-109991153D01*
X125098550Y-109977000D01*
X125243650Y-109977000D01*
X125314803Y-109991153D01*
G37*
G36*
X130394803Y-109991153D02*
G01*
X130465958Y-110005307D01*
X130521484Y-110028307D01*
X130600010Y-110060833D01*
X130600011Y-110060834D01*
X130720655Y-110141445D01*
X130823255Y-110244045D01*
X130865453Y-110307200D01*
X130903867Y-110364690D01*
X130959393Y-110498743D01*
X130987700Y-110641050D01*
X130987700Y-110786150D01*
X130959393Y-110928457D01*
X130903867Y-111062510D01*
X130903866Y-111062511D01*
X130823255Y-111183155D01*
X130720655Y-111285755D01*
X130640043Y-111339618D01*
X130600010Y-111366367D01*
X130538811Y-111391716D01*
X130465958Y-111421893D01*
X130409682Y-111433087D01*
X130323650Y-111450200D01*
X130178550Y-111450200D01*
X130092518Y-111433087D01*
X130036242Y-111421893D01*
X129963389Y-111391716D01*
X129902190Y-111366367D01*
X129862157Y-111339618D01*
X129781545Y-111285755D01*
X129678945Y-111183155D01*
X129598334Y-111062511D01*
X129598333Y-111062510D01*
X129542807Y-110928457D01*
X129514500Y-110786150D01*
X129514500Y-110641050D01*
X129542807Y-110498743D01*
X129598333Y-110364690D01*
X129636747Y-110307200D01*
X129678945Y-110244045D01*
X129781545Y-110141445D01*
X129902189Y-110060834D01*
X129902190Y-110060833D01*
X129980716Y-110028307D01*
X130036242Y-110005307D01*
X130107397Y-109991153D01*
X130178550Y-109977000D01*
X130323650Y-109977000D01*
X130394803Y-109991153D01*
G37*
G36*
X122774803Y-109991153D02*
G01*
X122845958Y-110005307D01*
X122901484Y-110028307D01*
X122980010Y-110060833D01*
X122980011Y-110060834D01*
X123100655Y-110141445D01*
X123203255Y-110244045D01*
X123245453Y-110307200D01*
X123283867Y-110364690D01*
X123339393Y-110498743D01*
X123367700Y-110641050D01*
X123367700Y-110786150D01*
X123339393Y-110928457D01*
X123283867Y-111062510D01*
X123283866Y-111062511D01*
X123203255Y-111183155D01*
X123100655Y-111285755D01*
X123020043Y-111339618D01*
X122980010Y-111366367D01*
X122918811Y-111391716D01*
X122845958Y-111421893D01*
X122789682Y-111433087D01*
X122703650Y-111450200D01*
X122558550Y-111450200D01*
X122472518Y-111433087D01*
X122416242Y-111421893D01*
X122343389Y-111391716D01*
X122282190Y-111366367D01*
X122242157Y-111339618D01*
X122161545Y-111285755D01*
X122058945Y-111183155D01*
X121978334Y-111062511D01*
X121978333Y-111062510D01*
X121922807Y-110928457D01*
X121894500Y-110786150D01*
X121894500Y-110641050D01*
X121922807Y-110498743D01*
X121978333Y-110364690D01*
X122016747Y-110307200D01*
X122058945Y-110244045D01*
X122161545Y-110141445D01*
X122282189Y-110060834D01*
X122282190Y-110060833D01*
X122360716Y-110028307D01*
X122416242Y-110005307D01*
X122487397Y-109991153D01*
X122558550Y-109977000D01*
X122703650Y-109977000D01*
X122774803Y-109991153D01*
G37*
G36*
X127854803Y-109991153D02*
G01*
X127925958Y-110005307D01*
X127981484Y-110028307D01*
X128060010Y-110060833D01*
X128060011Y-110060834D01*
X128180655Y-110141445D01*
X128283255Y-110244045D01*
X128325453Y-110307200D01*
X128363867Y-110364690D01*
X128419393Y-110498743D01*
X128447700Y-110641050D01*
X128447700Y-110786150D01*
X128419393Y-110928457D01*
X128363867Y-111062510D01*
X128363866Y-111062511D01*
X128283255Y-111183155D01*
X128180655Y-111285755D01*
X128100043Y-111339618D01*
X128060010Y-111366367D01*
X127998811Y-111391716D01*
X127925958Y-111421893D01*
X127869682Y-111433087D01*
X127783650Y-111450200D01*
X127638550Y-111450200D01*
X127552518Y-111433087D01*
X127496242Y-111421893D01*
X127423389Y-111391716D01*
X127362190Y-111366367D01*
X127322157Y-111339618D01*
X127241545Y-111285755D01*
X127138945Y-111183155D01*
X127058334Y-111062511D01*
X127058333Y-111062510D01*
X127002807Y-110928457D01*
X126974500Y-110786150D01*
X126974500Y-110641050D01*
X127002807Y-110498743D01*
X127058333Y-110364690D01*
X127096747Y-110307200D01*
X127138945Y-110244045D01*
X127241545Y-110141445D01*
X127362189Y-110060834D01*
X127362190Y-110060833D01*
X127440716Y-110028307D01*
X127496242Y-110005307D01*
X127567397Y-109991153D01*
X127638550Y-109977000D01*
X127783650Y-109977000D01*
X127854803Y-109991153D01*
G37*
G36*
X185113003Y-108613187D02*
G01*
X185270168Y-108678287D01*
X185411613Y-108772798D01*
X185531902Y-108893087D01*
X185626413Y-109034532D01*
X185691513Y-109191697D01*
X185724700Y-109358543D01*
X185724700Y-109528657D01*
X185691513Y-109695503D01*
X185626413Y-109852668D01*
X185531902Y-109994113D01*
X185411613Y-110114402D01*
X185270168Y-110208913D01*
X185113003Y-110274013D01*
X184946157Y-110307200D01*
X184776043Y-110307200D01*
X184609197Y-110274013D01*
X184452032Y-110208913D01*
X184310587Y-110114402D01*
X184190298Y-109994113D01*
X184095787Y-109852668D01*
X184030687Y-109695503D01*
X183997500Y-109528657D01*
X183997500Y-109358543D01*
X184030687Y-109191697D01*
X184095787Y-109034532D01*
X184190298Y-108893087D01*
X184310587Y-108772798D01*
X184452032Y-108678287D01*
X184609197Y-108613187D01*
X184776043Y-108580000D01*
X184946157Y-108580000D01*
X185113003Y-108613187D01*
G37*
G36*
X197813003Y-108613187D02*
G01*
X197970168Y-108678287D01*
X198111613Y-108772798D01*
X198231902Y-108893087D01*
X198326413Y-109034532D01*
X198391513Y-109191697D01*
X198424700Y-109358543D01*
X198424700Y-109528657D01*
X198391513Y-109695503D01*
X198326413Y-109852668D01*
X198231902Y-109994113D01*
X198111613Y-110114402D01*
X197970168Y-110208913D01*
X197813003Y-110274013D01*
X197646157Y-110307200D01*
X197476043Y-110307200D01*
X197309197Y-110274013D01*
X197152032Y-110208913D01*
X197010587Y-110114402D01*
X196890298Y-109994113D01*
X196795787Y-109852668D01*
X196730687Y-109695503D01*
X196697500Y-109528657D01*
X196697500Y-109358543D01*
X196730687Y-109191697D01*
X196795787Y-109034532D01*
X196890298Y-108893087D01*
X197010587Y-108772798D01*
X197152032Y-108678287D01*
X197309197Y-108613187D01*
X197476043Y-108580000D01*
X197646157Y-108580000D01*
X197813003Y-108613187D01*
G37*
G36*
X187653003Y-108613187D02*
G01*
X187810168Y-108678287D01*
X187951613Y-108772798D01*
X188071902Y-108893087D01*
X188166413Y-109034532D01*
X188231513Y-109191697D01*
X188264700Y-109358543D01*
X188264700Y-109528657D01*
X188231513Y-109695503D01*
X188166413Y-109852668D01*
X188071902Y-109994113D01*
X187951613Y-110114402D01*
X187810168Y-110208913D01*
X187653003Y-110274013D01*
X187486157Y-110307200D01*
X187316043Y-110307200D01*
X187149197Y-110274013D01*
X186992032Y-110208913D01*
X186850587Y-110114402D01*
X186730298Y-109994113D01*
X186635787Y-109852668D01*
X186570687Y-109695503D01*
X186537500Y-109528657D01*
X186537500Y-109358543D01*
X186570687Y-109191697D01*
X186635787Y-109034532D01*
X186730298Y-108893087D01*
X186850587Y-108772798D01*
X186992032Y-108678287D01*
X187149197Y-108613187D01*
X187316043Y-108580000D01*
X187486157Y-108580000D01*
X187653003Y-108613187D01*
G37*
G36*
X190193003Y-108613187D02*
G01*
X190350168Y-108678287D01*
X190491613Y-108772798D01*
X190611902Y-108893087D01*
X190706413Y-109034532D01*
X190771513Y-109191697D01*
X190804700Y-109358543D01*
X190804700Y-109528657D01*
X190771513Y-109695503D01*
X190706413Y-109852668D01*
X190611902Y-109994113D01*
X190491613Y-110114402D01*
X190350168Y-110208913D01*
X190193003Y-110274013D01*
X190026157Y-110307200D01*
X189856043Y-110307200D01*
X189689197Y-110274013D01*
X189532032Y-110208913D01*
X189390587Y-110114402D01*
X189270298Y-109994113D01*
X189175787Y-109852668D01*
X189110687Y-109695503D01*
X189077500Y-109528657D01*
X189077500Y-109358543D01*
X189110687Y-109191697D01*
X189175787Y-109034532D01*
X189270298Y-108893087D01*
X189390587Y-108772798D01*
X189532032Y-108678287D01*
X189689197Y-108613187D01*
X189856043Y-108580000D01*
X190026157Y-108580000D01*
X190193003Y-108613187D01*
G37*
G36*
X192733003Y-108613187D02*
G01*
X192890168Y-108678287D01*
X193031613Y-108772798D01*
X193151902Y-108893087D01*
X193246413Y-109034532D01*
X193311513Y-109191697D01*
X193344700Y-109358543D01*
X193344700Y-109528657D01*
X193311513Y-109695503D01*
X193246413Y-109852668D01*
X193151902Y-109994113D01*
X193031613Y-110114402D01*
X192890168Y-110208913D01*
X192733003Y-110274013D01*
X192566157Y-110307200D01*
X192396043Y-110307200D01*
X192229197Y-110274013D01*
X192072032Y-110208913D01*
X191930587Y-110114402D01*
X191810298Y-109994113D01*
X191715787Y-109852668D01*
X191650687Y-109695503D01*
X191617500Y-109528657D01*
X191617500Y-109358543D01*
X191650687Y-109191697D01*
X191715787Y-109034532D01*
X191810298Y-108893087D01*
X191930587Y-108772798D01*
X192072032Y-108678287D01*
X192229197Y-108613187D01*
X192396043Y-108580000D01*
X192566157Y-108580000D01*
X192733003Y-108613187D01*
G37*
G36*
X195273003Y-108613187D02*
G01*
X195430168Y-108678287D01*
X195571613Y-108772798D01*
X195691902Y-108893087D01*
X195786413Y-109034532D01*
X195851513Y-109191697D01*
X195884700Y-109358543D01*
X195884700Y-109528657D01*
X195851513Y-109695503D01*
X195786413Y-109852668D01*
X195691902Y-109994113D01*
X195571613Y-110114402D01*
X195430168Y-110208913D01*
X195273003Y-110274013D01*
X195106157Y-110307200D01*
X194936043Y-110307200D01*
X194769197Y-110274013D01*
X194612032Y-110208913D01*
X194470587Y-110114402D01*
X194350298Y-109994113D01*
X194255787Y-109852668D01*
X194190687Y-109695503D01*
X194157500Y-109528657D01*
X194157500Y-109358543D01*
X194190687Y-109191697D01*
X194255787Y-109034532D01*
X194350298Y-108893087D01*
X194470587Y-108772798D01*
X194612032Y-108678287D01*
X194769197Y-108613187D01*
X194936043Y-108580000D01*
X195106157Y-108580000D01*
X195273003Y-108613187D01*
G37*
G36*
X120264295Y-108701122D02*
G01*
X120313367Y-108710883D01*
X120452042Y-108768324D01*
X120576847Y-108851716D01*
X120682984Y-108957853D01*
X120766376Y-109082658D01*
X120823817Y-109221333D01*
X120823817Y-109221334D01*
X120848575Y-109345798D01*
X120853100Y-109368550D01*
X120853100Y-109518650D01*
X120823817Y-109665867D01*
X120766376Y-109804542D01*
X120682984Y-109929347D01*
X120576847Y-110035484D01*
X120452042Y-110118876D01*
X120313367Y-110176317D01*
X120264295Y-110186078D01*
X120166152Y-110205600D01*
X120016048Y-110205600D01*
X119917905Y-110186078D01*
X119868833Y-110176317D01*
X119730158Y-110118876D01*
X119605353Y-110035484D01*
X119499216Y-109929347D01*
X119415824Y-109804542D01*
X119358383Y-109665867D01*
X119329100Y-109518650D01*
X119329100Y-109368550D01*
X119333626Y-109345798D01*
X119358383Y-109221334D01*
X119358383Y-109221333D01*
X119415824Y-109082658D01*
X119499216Y-108957853D01*
X119605353Y-108851716D01*
X119730158Y-108768324D01*
X119868833Y-108710883D01*
X119917905Y-108701122D01*
X120016048Y-108681600D01*
X120166152Y-108681600D01*
X120264295Y-108701122D01*
G37*
G36*
X138044295Y-107431122D02*
G01*
X138093367Y-107440883D01*
X138232042Y-107498324D01*
X138356847Y-107581716D01*
X138462984Y-107687853D01*
X138546376Y-107812658D01*
X138603817Y-107951333D01*
X138633100Y-108098550D01*
X138633100Y-108248650D01*
X138603817Y-108395867D01*
X138546376Y-108534542D01*
X138462984Y-108659347D01*
X138356847Y-108765484D01*
X138232042Y-108848876D01*
X138093367Y-108906317D01*
X138044295Y-108916078D01*
X137946152Y-108935600D01*
X137796048Y-108935600D01*
X137697905Y-108916078D01*
X137648833Y-108906317D01*
X137510158Y-108848876D01*
X137385353Y-108765484D01*
X137279216Y-108659347D01*
X137195824Y-108534542D01*
X137138383Y-108395867D01*
X137109100Y-108248650D01*
X137109100Y-108098550D01*
X137138383Y-107951333D01*
X137195824Y-107812658D01*
X137279216Y-107687853D01*
X137385353Y-107581716D01*
X137510158Y-107498324D01*
X137648833Y-107440883D01*
X137697905Y-107431122D01*
X137796048Y-107411600D01*
X137946152Y-107411600D01*
X138044295Y-107431122D01*
G37*
G36*
X134234295Y-107431122D02*
G01*
X134283367Y-107440883D01*
X134422042Y-107498324D01*
X134546847Y-107581716D01*
X134652984Y-107687853D01*
X134736376Y-107812658D01*
X134793817Y-107951333D01*
X134823100Y-108098550D01*
X134823100Y-108248650D01*
X134793817Y-108395867D01*
X134736376Y-108534542D01*
X134652984Y-108659347D01*
X134546847Y-108765484D01*
X134422042Y-108848876D01*
X134283367Y-108906317D01*
X134234295Y-108916078D01*
X134136152Y-108935600D01*
X133986048Y-108935600D01*
X133887905Y-108916078D01*
X133838833Y-108906317D01*
X133700158Y-108848876D01*
X133575353Y-108765484D01*
X133469216Y-108659347D01*
X133385824Y-108534542D01*
X133328383Y-108395867D01*
X133299100Y-108248650D01*
X133299100Y-108098550D01*
X133328383Y-107951333D01*
X133385824Y-107812658D01*
X133469216Y-107687853D01*
X133575353Y-107581716D01*
X133700158Y-107498324D01*
X133838833Y-107440883D01*
X133887905Y-107431122D01*
X133986048Y-107411600D01*
X134136152Y-107411600D01*
X134234295Y-107431122D01*
G37*
G36*
X116454295Y-106161122D02*
G01*
X116503367Y-106170883D01*
X116642042Y-106228324D01*
X116766847Y-106311716D01*
X116872984Y-106417853D01*
X116956376Y-106542658D01*
X117013817Y-106681333D01*
X117043100Y-106828550D01*
X117043100Y-106978650D01*
X117013817Y-107125867D01*
X116956376Y-107264542D01*
X116872984Y-107389347D01*
X116766847Y-107495484D01*
X116642042Y-107578876D01*
X116503367Y-107636317D01*
X116454295Y-107646078D01*
X116356152Y-107665600D01*
X116206048Y-107665600D01*
X116107905Y-107646078D01*
X116058833Y-107636317D01*
X115920158Y-107578876D01*
X115795353Y-107495484D01*
X115689216Y-107389347D01*
X115605824Y-107264542D01*
X115548383Y-107125867D01*
X115519100Y-106978650D01*
X115519100Y-106828550D01*
X115548383Y-106681333D01*
X115605824Y-106542658D01*
X115689216Y-106417853D01*
X115795353Y-106311716D01*
X115920158Y-106228324D01*
X116058833Y-106170883D01*
X116107905Y-106161122D01*
X116206048Y-106141600D01*
X116356152Y-106141600D01*
X116454295Y-106161122D01*
G37*
G36*
X120264295Y-106161122D02*
G01*
X120313367Y-106170883D01*
X120452042Y-106228324D01*
X120576847Y-106311716D01*
X120682984Y-106417853D01*
X120766376Y-106542658D01*
X120823817Y-106681333D01*
X120853100Y-106828550D01*
X120853100Y-106978650D01*
X120823817Y-107125867D01*
X120766376Y-107264542D01*
X120682984Y-107389347D01*
X120576847Y-107495484D01*
X120452042Y-107578876D01*
X120313367Y-107636317D01*
X120264295Y-107646078D01*
X120166152Y-107665600D01*
X120016048Y-107665600D01*
X119917905Y-107646078D01*
X119868833Y-107636317D01*
X119730158Y-107578876D01*
X119605353Y-107495484D01*
X119499216Y-107389347D01*
X119415824Y-107264542D01*
X119358383Y-107125867D01*
X119329100Y-106978650D01*
X119329100Y-106828550D01*
X119358383Y-106681333D01*
X119415824Y-106542658D01*
X119499216Y-106417853D01*
X119605353Y-106311716D01*
X119730158Y-106228324D01*
X119868833Y-106170883D01*
X119917905Y-106161122D01*
X120016048Y-106141600D01*
X120166152Y-106141600D01*
X120264295Y-106161122D01*
G37*
G36*
X113914295Y-106161122D02*
G01*
X113963367Y-106170883D01*
X114102042Y-106228324D01*
X114226847Y-106311716D01*
X114332984Y-106417853D01*
X114416376Y-106542658D01*
X114473817Y-106681333D01*
X114503100Y-106828550D01*
X114503100Y-106978650D01*
X114473817Y-107125867D01*
X114416376Y-107264542D01*
X114332984Y-107389347D01*
X114226847Y-107495484D01*
X114102042Y-107578876D01*
X113963367Y-107636317D01*
X113914295Y-107646078D01*
X113816152Y-107665600D01*
X113666048Y-107665600D01*
X113567905Y-107646078D01*
X113518833Y-107636317D01*
X113380158Y-107578876D01*
X113255353Y-107495484D01*
X113149216Y-107389347D01*
X113065824Y-107264542D01*
X113008383Y-107125867D01*
X112979100Y-106978650D01*
X112979100Y-106828550D01*
X113008383Y-106681333D01*
X113065824Y-106542658D01*
X113149216Y-106417853D01*
X113255353Y-106311716D01*
X113380158Y-106228324D01*
X113518833Y-106170883D01*
X113567905Y-106161122D01*
X113666048Y-106141600D01*
X113816152Y-106141600D01*
X113914295Y-106161122D01*
G37*
G36*
X138044295Y-104891122D02*
G01*
X138093367Y-104900883D01*
X138232042Y-104958324D01*
X138356847Y-105041716D01*
X138462984Y-105147853D01*
X138546376Y-105272658D01*
X138603817Y-105411333D01*
X138633100Y-105558550D01*
X138633100Y-105708650D01*
X138603817Y-105855867D01*
X138546376Y-105994542D01*
X138462984Y-106119347D01*
X138356847Y-106225484D01*
X138232042Y-106308876D01*
X138093367Y-106366317D01*
X138044295Y-106376078D01*
X137946152Y-106395600D01*
X137796048Y-106395600D01*
X137697905Y-106376078D01*
X137648833Y-106366317D01*
X137510158Y-106308876D01*
X137385353Y-106225484D01*
X137279216Y-106119347D01*
X137195824Y-105994542D01*
X137138383Y-105855867D01*
X137109100Y-105708650D01*
X137109100Y-105558550D01*
X137138383Y-105411333D01*
X137195824Y-105272658D01*
X137279216Y-105147853D01*
X137385353Y-105041716D01*
X137510158Y-104958324D01*
X137648833Y-104900883D01*
X137697905Y-104891122D01*
X137796048Y-104871600D01*
X137946152Y-104871600D01*
X138044295Y-104891122D01*
G37*
G36*
X134234295Y-104891122D02*
G01*
X134283367Y-104900883D01*
X134422042Y-104958324D01*
X134546847Y-105041716D01*
X134652984Y-105147853D01*
X134736376Y-105272658D01*
X134793817Y-105411333D01*
X134823100Y-105558550D01*
X134823100Y-105708650D01*
X134793817Y-105855867D01*
X134736376Y-105994542D01*
X134652984Y-106119347D01*
X134546847Y-106225484D01*
X134422042Y-106308876D01*
X134283367Y-106366317D01*
X134234295Y-106376078D01*
X134136152Y-106395600D01*
X133986048Y-106395600D01*
X133887905Y-106376078D01*
X133838833Y-106366317D01*
X133700158Y-106308876D01*
X133575353Y-106225484D01*
X133469216Y-106119347D01*
X133385824Y-105994542D01*
X133328383Y-105855867D01*
X133299100Y-105708650D01*
X133299100Y-105558550D01*
X133328383Y-105411333D01*
X133385824Y-105272658D01*
X133469216Y-105147853D01*
X133575353Y-105041716D01*
X133700158Y-104958324D01*
X133838833Y-104900883D01*
X133887905Y-104891122D01*
X133986048Y-104871600D01*
X134136152Y-104871600D01*
X134234295Y-104891122D01*
G37*
G36*
X182494295Y-103621122D02*
G01*
X182543367Y-103630883D01*
X182682042Y-103688324D01*
X182806847Y-103771716D01*
X182912984Y-103877853D01*
X182996376Y-104002658D01*
X183053817Y-104141333D01*
X183053817Y-104141334D01*
X183083100Y-104288548D01*
X183083100Y-104438652D01*
X183066981Y-104519686D01*
X183053817Y-104585867D01*
X182996376Y-104724542D01*
X182912984Y-104849347D01*
X182806847Y-104955484D01*
X182682042Y-105038876D01*
X182543367Y-105096317D01*
X182494295Y-105106078D01*
X182396152Y-105125600D01*
X182246048Y-105125600D01*
X182147905Y-105106078D01*
X182098833Y-105096317D01*
X181960158Y-105038876D01*
X181835353Y-104955484D01*
X181729216Y-104849347D01*
X181645824Y-104724542D01*
X181588383Y-104585867D01*
X181575219Y-104519686D01*
X181559100Y-104438652D01*
X181559100Y-104288548D01*
X181588383Y-104141334D01*
X181588383Y-104141333D01*
X181645824Y-104002658D01*
X181729216Y-103877853D01*
X181835353Y-103771716D01*
X181960158Y-103688324D01*
X182098833Y-103630883D01*
X182147905Y-103621122D01*
X182246048Y-103601600D01*
X182396152Y-103601600D01*
X182494295Y-103621122D01*
G37*
G36*
X112644295Y-103621122D02*
G01*
X112693367Y-103630883D01*
X112832042Y-103688324D01*
X112956847Y-103771716D01*
X113062984Y-103877853D01*
X113146376Y-104002658D01*
X113203817Y-104141333D01*
X113203817Y-104141334D01*
X113233100Y-104288548D01*
X113233100Y-104438652D01*
X113216981Y-104519686D01*
X113203817Y-104585867D01*
X113146376Y-104724542D01*
X113062984Y-104849347D01*
X112956847Y-104955484D01*
X112832042Y-105038876D01*
X112693367Y-105096317D01*
X112644295Y-105106078D01*
X112546152Y-105125600D01*
X112396048Y-105125600D01*
X112297905Y-105106078D01*
X112248833Y-105096317D01*
X112110158Y-105038876D01*
X111985353Y-104955484D01*
X111879216Y-104849347D01*
X111795824Y-104724542D01*
X111738383Y-104585867D01*
X111725219Y-104519686D01*
X111709100Y-104438652D01*
X111709100Y-104288548D01*
X111738383Y-104141334D01*
X111738383Y-104141333D01*
X111795824Y-104002658D01*
X111879216Y-103877853D01*
X111985353Y-103771716D01*
X112110158Y-103688324D01*
X112248833Y-103630883D01*
X112297905Y-103621122D01*
X112396048Y-103601600D01*
X112546152Y-103601600D01*
X112644295Y-103621122D01*
G37*
G36*
X179954295Y-103621122D02*
G01*
X180003367Y-103630883D01*
X180142042Y-103688324D01*
X180266847Y-103771716D01*
X180372984Y-103877853D01*
X180456376Y-104002658D01*
X180513817Y-104141333D01*
X180513817Y-104141334D01*
X180543100Y-104288548D01*
X180543100Y-104438652D01*
X180526981Y-104519686D01*
X180513817Y-104585867D01*
X180456376Y-104724542D01*
X180372984Y-104849347D01*
X180266847Y-104955484D01*
X180142042Y-105038876D01*
X180003367Y-105096317D01*
X179954295Y-105106078D01*
X179856152Y-105125600D01*
X179706048Y-105125600D01*
X179607905Y-105106078D01*
X179558833Y-105096317D01*
X179420158Y-105038876D01*
X179295353Y-104955484D01*
X179189216Y-104849347D01*
X179105824Y-104724542D01*
X179048383Y-104585867D01*
X179035219Y-104519686D01*
X179019100Y-104438652D01*
X179019100Y-104288548D01*
X179048383Y-104141334D01*
X179048383Y-104141333D01*
X179105824Y-104002658D01*
X179189216Y-103877853D01*
X179295353Y-103771716D01*
X179420158Y-103688324D01*
X179558833Y-103630883D01*
X179607905Y-103621122D01*
X179706048Y-103601600D01*
X179856152Y-103601600D01*
X179954295Y-103621122D01*
G37*
G36*
X120264295Y-103621122D02*
G01*
X120313367Y-103630883D01*
X120452042Y-103688324D01*
X120576847Y-103771716D01*
X120682984Y-103877853D01*
X120766376Y-104002658D01*
X120823817Y-104141333D01*
X120823817Y-104141334D01*
X120853100Y-104288548D01*
X120853100Y-104438652D01*
X120836981Y-104519686D01*
X120823817Y-104585867D01*
X120766376Y-104724542D01*
X120682984Y-104849347D01*
X120576847Y-104955484D01*
X120452042Y-105038876D01*
X120313367Y-105096317D01*
X120264295Y-105106078D01*
X120166152Y-105125600D01*
X120016048Y-105125600D01*
X119917905Y-105106078D01*
X119868833Y-105096317D01*
X119730158Y-105038876D01*
X119605353Y-104955484D01*
X119499216Y-104849347D01*
X119415824Y-104724542D01*
X119358383Y-104585867D01*
X119345219Y-104519686D01*
X119329100Y-104438652D01*
X119329100Y-104288548D01*
X119358383Y-104141334D01*
X119358383Y-104141333D01*
X119415824Y-104002658D01*
X119499216Y-103877853D01*
X119605353Y-103771716D01*
X119730158Y-103688324D01*
X119868833Y-103630883D01*
X119917905Y-103621122D01*
X120016048Y-103601600D01*
X120166152Y-103601600D01*
X120264295Y-103621122D01*
G37*
G36*
X164690477Y-101682226D02*
G01*
X164796741Y-101714461D01*
X164834118Y-101725799D01*
X164966490Y-101796554D01*
X164966492Y-101796555D01*
X164966491Y-101796555D01*
X165082522Y-101891778D01*
X165088163Y-101898652D01*
X165177746Y-102007809D01*
X165248501Y-102140181D01*
X165259839Y-102177558D01*
X165292074Y-102283822D01*
X165303100Y-102395774D01*
X165303100Y-103791426D01*
X165292074Y-103903378D01*
X165261958Y-104002658D01*
X165248501Y-104047019D01*
X165177746Y-104179391D01*
X165082522Y-104295422D01*
X164966491Y-104390646D01*
X164834119Y-104461401D01*
X164796742Y-104472739D01*
X164690478Y-104504974D01*
X164541100Y-104519686D01*
X164391723Y-104504974D01*
X164285459Y-104472739D01*
X164248082Y-104461401D01*
X164115710Y-104390646D01*
X163999679Y-104295422D01*
X163904455Y-104179391D01*
X163833700Y-104047019D01*
X163820243Y-104002658D01*
X163790127Y-103903378D01*
X163779101Y-103791426D01*
X163779100Y-102395775D01*
X163790126Y-102283823D01*
X163833698Y-102140186D01*
X163833699Y-102140182D01*
X163904454Y-102007810D01*
X163918934Y-101990166D01*
X163999678Y-101891778D01*
X164115708Y-101796555D01*
X164115707Y-101796555D01*
X164115709Y-101796554D01*
X164248081Y-101725799D01*
X164285458Y-101714461D01*
X164391722Y-101682226D01*
X164541100Y-101667514D01*
X164690477Y-101682226D01*
G37*
G36*
X177390477Y-101682226D02*
G01*
X177496741Y-101714461D01*
X177534118Y-101725799D01*
X177666490Y-101796554D01*
X177666492Y-101796555D01*
X177666491Y-101796555D01*
X177782522Y-101891778D01*
X177788163Y-101898652D01*
X177877746Y-102007809D01*
X177948501Y-102140181D01*
X177959839Y-102177558D01*
X177992074Y-102283822D01*
X178003100Y-102395774D01*
X178003100Y-103791426D01*
X177992074Y-103903378D01*
X177961958Y-104002658D01*
X177948501Y-104047019D01*
X177877746Y-104179391D01*
X177782522Y-104295422D01*
X177666491Y-104390646D01*
X177534119Y-104461401D01*
X177496742Y-104472739D01*
X177390478Y-104504974D01*
X177241100Y-104519686D01*
X177091723Y-104504974D01*
X176985459Y-104472739D01*
X176948082Y-104461401D01*
X176815710Y-104390646D01*
X176699679Y-104295422D01*
X176604455Y-104179391D01*
X176533700Y-104047019D01*
X176520243Y-104002658D01*
X176490127Y-103903378D01*
X176479101Y-103791426D01*
X176479100Y-102395775D01*
X176490126Y-102283823D01*
X176533698Y-102140186D01*
X176533699Y-102140182D01*
X176604454Y-102007810D01*
X176618934Y-101990166D01*
X176699678Y-101891778D01*
X176815708Y-101796555D01*
X176815707Y-101796555D01*
X176815709Y-101796554D01*
X176948081Y-101725799D01*
X176985458Y-101714461D01*
X177091722Y-101682226D01*
X177241100Y-101667514D01*
X177390477Y-101682226D01*
G37*
G36*
X172310477Y-101682226D02*
G01*
X172416741Y-101714461D01*
X172454118Y-101725799D01*
X172586490Y-101796554D01*
X172586492Y-101796555D01*
X172586491Y-101796555D01*
X172702522Y-101891778D01*
X172708163Y-101898652D01*
X172797746Y-102007809D01*
X172868501Y-102140181D01*
X172879839Y-102177558D01*
X172912074Y-102283822D01*
X172923100Y-102395774D01*
X172923100Y-103791426D01*
X172912074Y-103903378D01*
X172881958Y-104002658D01*
X172868501Y-104047019D01*
X172797746Y-104179391D01*
X172702522Y-104295422D01*
X172586491Y-104390646D01*
X172454119Y-104461401D01*
X172416742Y-104472739D01*
X172310478Y-104504974D01*
X172161100Y-104519686D01*
X172011723Y-104504974D01*
X171905459Y-104472739D01*
X171868082Y-104461401D01*
X171735710Y-104390646D01*
X171619679Y-104295422D01*
X171524455Y-104179391D01*
X171453700Y-104047019D01*
X171440243Y-104002658D01*
X171410127Y-103903378D01*
X171399101Y-103791426D01*
X171399100Y-102395775D01*
X171410126Y-102283823D01*
X171453698Y-102140186D01*
X171453699Y-102140182D01*
X171524454Y-102007810D01*
X171538934Y-101990166D01*
X171619678Y-101891778D01*
X171735708Y-101796555D01*
X171735707Y-101796555D01*
X171735709Y-101796554D01*
X171868081Y-101725799D01*
X171905458Y-101714461D01*
X172011722Y-101682226D01*
X172161100Y-101667514D01*
X172310477Y-101682226D01*
G37*
G36*
X169770477Y-101682226D02*
G01*
X169876741Y-101714461D01*
X169914118Y-101725799D01*
X170046490Y-101796554D01*
X170046492Y-101796555D01*
X170046491Y-101796555D01*
X170162522Y-101891778D01*
X170168163Y-101898652D01*
X170257746Y-102007809D01*
X170328501Y-102140181D01*
X170339839Y-102177558D01*
X170372074Y-102283822D01*
X170383100Y-102395774D01*
X170383100Y-103791426D01*
X170372074Y-103903378D01*
X170341958Y-104002658D01*
X170328501Y-104047019D01*
X170257746Y-104179391D01*
X170162522Y-104295422D01*
X170046491Y-104390646D01*
X169914119Y-104461401D01*
X169876742Y-104472739D01*
X169770478Y-104504974D01*
X169621100Y-104519686D01*
X169471723Y-104504974D01*
X169365459Y-104472739D01*
X169328082Y-104461401D01*
X169195710Y-104390646D01*
X169079679Y-104295422D01*
X168984455Y-104179391D01*
X168913700Y-104047019D01*
X168900243Y-104002658D01*
X168870127Y-103903378D01*
X168859101Y-103791426D01*
X168859100Y-102395775D01*
X168870126Y-102283823D01*
X168913698Y-102140186D01*
X168913699Y-102140182D01*
X168984454Y-102007810D01*
X168998934Y-101990166D01*
X169079678Y-101891778D01*
X169195708Y-101796555D01*
X169195707Y-101796555D01*
X169195709Y-101796554D01*
X169328081Y-101725799D01*
X169365458Y-101714461D01*
X169471722Y-101682226D01*
X169621100Y-101667514D01*
X169770477Y-101682226D01*
G37*
G36*
X167230477Y-101682226D02*
G01*
X167336741Y-101714461D01*
X167374118Y-101725799D01*
X167506490Y-101796554D01*
X167506492Y-101796555D01*
X167506491Y-101796555D01*
X167622522Y-101891778D01*
X167628163Y-101898652D01*
X167717746Y-102007809D01*
X167788501Y-102140181D01*
X167799839Y-102177558D01*
X167832074Y-102283822D01*
X167843100Y-102395774D01*
X167843100Y-103791426D01*
X167832074Y-103903378D01*
X167801958Y-104002658D01*
X167788501Y-104047019D01*
X167717746Y-104179391D01*
X167622522Y-104295422D01*
X167506491Y-104390646D01*
X167374119Y-104461401D01*
X167336742Y-104472739D01*
X167230478Y-104504974D01*
X167081100Y-104519686D01*
X166931723Y-104504974D01*
X166825459Y-104472739D01*
X166788082Y-104461401D01*
X166655710Y-104390646D01*
X166539679Y-104295422D01*
X166444455Y-104179391D01*
X166373700Y-104047019D01*
X166360243Y-104002658D01*
X166330127Y-103903378D01*
X166319101Y-103791426D01*
X166319100Y-102395775D01*
X166330126Y-102283823D01*
X166373698Y-102140186D01*
X166373699Y-102140182D01*
X166444454Y-102007810D01*
X166458934Y-101990166D01*
X166539678Y-101891778D01*
X166655708Y-101796555D01*
X166655707Y-101796555D01*
X166655709Y-101796554D01*
X166788081Y-101725799D01*
X166825458Y-101714461D01*
X166931722Y-101682226D01*
X167081100Y-101667514D01*
X167230477Y-101682226D01*
G37*
G36*
X162150477Y-101682226D02*
G01*
X162256741Y-101714461D01*
X162294118Y-101725799D01*
X162426490Y-101796554D01*
X162426492Y-101796555D01*
X162426491Y-101796555D01*
X162542522Y-101891778D01*
X162548163Y-101898652D01*
X162637746Y-102007809D01*
X162708501Y-102140181D01*
X162719839Y-102177558D01*
X162752074Y-102283822D01*
X162763100Y-102395774D01*
X162763100Y-103791426D01*
X162752074Y-103903378D01*
X162721958Y-104002658D01*
X162708501Y-104047019D01*
X162637746Y-104179391D01*
X162542522Y-104295422D01*
X162426491Y-104390646D01*
X162294119Y-104461401D01*
X162256742Y-104472739D01*
X162150478Y-104504974D01*
X162001100Y-104519686D01*
X161851723Y-104504974D01*
X161745459Y-104472739D01*
X161708082Y-104461401D01*
X161575710Y-104390646D01*
X161459679Y-104295422D01*
X161364455Y-104179391D01*
X161293700Y-104047019D01*
X161280243Y-104002658D01*
X161250127Y-103903378D01*
X161239101Y-103791426D01*
X161239100Y-102395775D01*
X161250126Y-102283823D01*
X161293698Y-102140186D01*
X161293699Y-102140182D01*
X161364454Y-102007810D01*
X161378934Y-101990166D01*
X161459678Y-101891778D01*
X161575708Y-101796555D01*
X161575707Y-101796555D01*
X161575709Y-101796554D01*
X161708081Y-101725799D01*
X161745458Y-101714461D01*
X161851722Y-101682226D01*
X162001100Y-101667514D01*
X162150477Y-101682226D01*
G37*
G36*
X150720477Y-101682226D02*
G01*
X150826741Y-101714461D01*
X150864118Y-101725799D01*
X150996490Y-101796554D01*
X150996492Y-101796555D01*
X150996491Y-101796555D01*
X151112522Y-101891778D01*
X151118163Y-101898652D01*
X151207746Y-102007809D01*
X151278501Y-102140181D01*
X151289839Y-102177558D01*
X151322074Y-102283822D01*
X151333100Y-102395774D01*
X151333100Y-103791426D01*
X151322074Y-103903378D01*
X151291958Y-104002658D01*
X151278501Y-104047019D01*
X151207746Y-104179391D01*
X151112522Y-104295422D01*
X150996491Y-104390646D01*
X150864119Y-104461401D01*
X150826742Y-104472739D01*
X150720478Y-104504974D01*
X150571100Y-104519686D01*
X150421723Y-104504974D01*
X150315459Y-104472739D01*
X150278082Y-104461401D01*
X150145710Y-104390646D01*
X150029679Y-104295422D01*
X149934455Y-104179391D01*
X149863700Y-104047019D01*
X149850243Y-104002658D01*
X149820127Y-103903378D01*
X149809101Y-103791426D01*
X149809100Y-102395775D01*
X149820126Y-102283823D01*
X149863698Y-102140186D01*
X149863699Y-102140182D01*
X149934454Y-102007810D01*
X149948934Y-101990166D01*
X150029678Y-101891778D01*
X150145708Y-101796555D01*
X150145707Y-101796555D01*
X150145709Y-101796554D01*
X150278081Y-101725799D01*
X150315458Y-101714461D01*
X150421722Y-101682226D01*
X150571100Y-101667514D01*
X150720477Y-101682226D01*
G37*
G36*
X145640477Y-101682226D02*
G01*
X145746741Y-101714461D01*
X145784118Y-101725799D01*
X145916490Y-101796554D01*
X145916492Y-101796555D01*
X145916491Y-101796555D01*
X146032522Y-101891778D01*
X146038163Y-101898652D01*
X146127746Y-102007809D01*
X146198501Y-102140181D01*
X146209839Y-102177558D01*
X146242074Y-102283822D01*
X146253100Y-102395774D01*
X146253100Y-103791426D01*
X146242074Y-103903378D01*
X146211958Y-104002658D01*
X146198501Y-104047019D01*
X146127746Y-104179391D01*
X146032522Y-104295422D01*
X145916491Y-104390646D01*
X145784119Y-104461401D01*
X145746742Y-104472739D01*
X145640478Y-104504974D01*
X145491100Y-104519686D01*
X145341723Y-104504974D01*
X145235459Y-104472739D01*
X145198082Y-104461401D01*
X145065710Y-104390646D01*
X144949679Y-104295422D01*
X144854455Y-104179391D01*
X144783700Y-104047019D01*
X144770243Y-104002658D01*
X144740127Y-103903378D01*
X144729101Y-103791426D01*
X144729100Y-102395775D01*
X144740126Y-102283823D01*
X144783698Y-102140186D01*
X144783699Y-102140182D01*
X144854454Y-102007810D01*
X144868934Y-101990166D01*
X144949678Y-101891778D01*
X145065708Y-101796555D01*
X145065707Y-101796555D01*
X145065709Y-101796554D01*
X145198081Y-101725799D01*
X145235458Y-101714461D01*
X145341722Y-101682226D01*
X145491100Y-101667514D01*
X145640477Y-101682226D01*
G37*
G36*
X143100477Y-101682226D02*
G01*
X143206741Y-101714461D01*
X143244118Y-101725799D01*
X143376490Y-101796554D01*
X143376492Y-101796555D01*
X143376491Y-101796555D01*
X143492522Y-101891778D01*
X143498163Y-101898652D01*
X143587746Y-102007809D01*
X143658501Y-102140181D01*
X143669839Y-102177558D01*
X143702074Y-102283822D01*
X143713100Y-102395774D01*
X143713100Y-103791426D01*
X143702074Y-103903378D01*
X143671958Y-104002658D01*
X143658501Y-104047019D01*
X143587746Y-104179391D01*
X143492522Y-104295422D01*
X143376491Y-104390646D01*
X143244119Y-104461401D01*
X143206742Y-104472739D01*
X143100478Y-104504974D01*
X142951100Y-104519686D01*
X142801723Y-104504974D01*
X142695459Y-104472739D01*
X142658082Y-104461401D01*
X142525710Y-104390646D01*
X142409679Y-104295422D01*
X142314455Y-104179391D01*
X142243700Y-104047019D01*
X142230243Y-104002658D01*
X142200127Y-103903378D01*
X142189101Y-103791426D01*
X142189100Y-102395775D01*
X142200126Y-102283823D01*
X142243698Y-102140186D01*
X142243699Y-102140182D01*
X142314454Y-102007810D01*
X142328934Y-101990166D01*
X142409678Y-101891778D01*
X142525708Y-101796555D01*
X142525707Y-101796555D01*
X142525709Y-101796554D01*
X142658081Y-101725799D01*
X142695458Y-101714461D01*
X142801722Y-101682226D01*
X142951100Y-101667514D01*
X143100477Y-101682226D01*
G37*
G36*
X174850477Y-101682226D02*
G01*
X174956741Y-101714461D01*
X174994118Y-101725799D01*
X175126490Y-101796554D01*
X175126492Y-101796555D01*
X175126491Y-101796555D01*
X175242522Y-101891778D01*
X175248163Y-101898652D01*
X175337746Y-102007809D01*
X175408501Y-102140181D01*
X175419839Y-102177558D01*
X175452074Y-102283822D01*
X175463100Y-102395774D01*
X175463100Y-103791426D01*
X175452074Y-103903378D01*
X175421958Y-104002658D01*
X175408501Y-104047019D01*
X175337746Y-104179391D01*
X175242522Y-104295422D01*
X175126491Y-104390646D01*
X174994119Y-104461401D01*
X174956742Y-104472739D01*
X174850478Y-104504974D01*
X174701100Y-104519686D01*
X174551723Y-104504974D01*
X174445459Y-104472739D01*
X174408082Y-104461401D01*
X174275710Y-104390646D01*
X174159679Y-104295422D01*
X174064455Y-104179391D01*
X173993700Y-104047019D01*
X173980243Y-104002658D01*
X173950127Y-103903378D01*
X173939101Y-103791426D01*
X173939100Y-102395775D01*
X173950126Y-102283823D01*
X173993698Y-102140186D01*
X173993699Y-102140182D01*
X174064454Y-102007810D01*
X174078934Y-101990166D01*
X174159678Y-101891778D01*
X174275708Y-101796555D01*
X174275707Y-101796555D01*
X174275709Y-101796554D01*
X174408081Y-101725799D01*
X174445458Y-101714461D01*
X174551722Y-101682226D01*
X174701100Y-101667514D01*
X174850477Y-101682226D01*
G37*
G36*
X155800477Y-101682226D02*
G01*
X155906741Y-101714461D01*
X155944118Y-101725799D01*
X156076490Y-101796554D01*
X156076492Y-101796555D01*
X156076491Y-101796555D01*
X156192522Y-101891778D01*
X156198163Y-101898652D01*
X156287746Y-102007809D01*
X156358501Y-102140181D01*
X156369839Y-102177558D01*
X156402074Y-102283822D01*
X156413100Y-102395774D01*
X156413100Y-103791426D01*
X156402074Y-103903378D01*
X156371958Y-104002658D01*
X156358501Y-104047019D01*
X156287746Y-104179391D01*
X156192522Y-104295422D01*
X156076491Y-104390646D01*
X155944119Y-104461401D01*
X155906742Y-104472739D01*
X155800478Y-104504974D01*
X155651100Y-104519686D01*
X155501723Y-104504974D01*
X155395459Y-104472739D01*
X155358082Y-104461401D01*
X155225710Y-104390646D01*
X155109679Y-104295422D01*
X155014455Y-104179391D01*
X154943700Y-104047019D01*
X154930243Y-104002658D01*
X154900127Y-103903378D01*
X154889101Y-103791426D01*
X154889100Y-102395775D01*
X154900126Y-102283823D01*
X154943698Y-102140186D01*
X154943699Y-102140182D01*
X155014454Y-102007810D01*
X155028934Y-101990166D01*
X155109678Y-101891778D01*
X155225708Y-101796555D01*
X155225707Y-101796555D01*
X155225709Y-101796554D01*
X155358081Y-101725799D01*
X155395458Y-101714461D01*
X155501722Y-101682226D01*
X155651100Y-101667514D01*
X155800477Y-101682226D01*
G37*
G36*
X153260477Y-101682226D02*
G01*
X153366741Y-101714461D01*
X153404118Y-101725799D01*
X153536490Y-101796554D01*
X153536492Y-101796555D01*
X153536491Y-101796555D01*
X153652522Y-101891778D01*
X153658163Y-101898652D01*
X153747746Y-102007809D01*
X153818501Y-102140181D01*
X153829839Y-102177558D01*
X153862074Y-102283822D01*
X153873100Y-102395774D01*
X153873100Y-103791426D01*
X153862074Y-103903378D01*
X153831958Y-104002658D01*
X153818501Y-104047019D01*
X153747746Y-104179391D01*
X153652522Y-104295422D01*
X153536491Y-104390646D01*
X153404119Y-104461401D01*
X153366742Y-104472739D01*
X153260478Y-104504974D01*
X153111100Y-104519686D01*
X152961723Y-104504974D01*
X152855459Y-104472739D01*
X152818082Y-104461401D01*
X152685710Y-104390646D01*
X152569679Y-104295422D01*
X152474455Y-104179391D01*
X152403700Y-104047019D01*
X152390243Y-104002658D01*
X152360127Y-103903378D01*
X152349101Y-103791426D01*
X152349100Y-102395775D01*
X152360126Y-102283823D01*
X152403698Y-102140186D01*
X152403699Y-102140182D01*
X152474454Y-102007810D01*
X152488934Y-101990166D01*
X152569678Y-101891778D01*
X152685708Y-101796555D01*
X152685707Y-101796555D01*
X152685709Y-101796554D01*
X152818081Y-101725799D01*
X152855458Y-101714461D01*
X152961722Y-101682226D01*
X153111100Y-101667514D01*
X153260477Y-101682226D01*
G37*
G36*
X158340477Y-101682226D02*
G01*
X158446741Y-101714461D01*
X158484118Y-101725799D01*
X158616490Y-101796554D01*
X158616492Y-101796555D01*
X158616491Y-101796555D01*
X158732522Y-101891778D01*
X158738163Y-101898652D01*
X158827746Y-102007809D01*
X158898501Y-102140181D01*
X158909839Y-102177558D01*
X158942074Y-102283822D01*
X158953100Y-102395774D01*
X158953100Y-103791426D01*
X158942074Y-103903378D01*
X158911958Y-104002658D01*
X158898501Y-104047019D01*
X158827746Y-104179391D01*
X158732522Y-104295422D01*
X158616491Y-104390646D01*
X158484119Y-104461401D01*
X158446742Y-104472739D01*
X158340478Y-104504974D01*
X158191100Y-104519686D01*
X158041723Y-104504974D01*
X157935459Y-104472739D01*
X157898082Y-104461401D01*
X157765710Y-104390646D01*
X157649679Y-104295422D01*
X157554455Y-104179391D01*
X157483700Y-104047019D01*
X157470243Y-104002658D01*
X157440127Y-103903378D01*
X157429101Y-103791426D01*
X157429100Y-102395775D01*
X157440126Y-102283823D01*
X157483698Y-102140186D01*
X157483699Y-102140182D01*
X157554454Y-102007810D01*
X157568934Y-101990166D01*
X157649678Y-101891778D01*
X157765708Y-101796555D01*
X157765707Y-101796555D01*
X157765709Y-101796554D01*
X157898081Y-101725799D01*
X157935458Y-101714461D01*
X158041722Y-101682226D01*
X158191100Y-101667514D01*
X158340477Y-101682226D01*
G37*
G36*
X148180477Y-101682226D02*
G01*
X148286741Y-101714461D01*
X148324118Y-101725799D01*
X148456490Y-101796554D01*
X148456492Y-101796555D01*
X148456491Y-101796555D01*
X148572522Y-101891778D01*
X148578163Y-101898652D01*
X148667746Y-102007809D01*
X148738501Y-102140181D01*
X148749839Y-102177558D01*
X148782074Y-102283822D01*
X148793100Y-102395774D01*
X148793100Y-103791426D01*
X148782074Y-103903378D01*
X148751958Y-104002658D01*
X148738501Y-104047019D01*
X148667746Y-104179391D01*
X148572522Y-104295422D01*
X148456491Y-104390646D01*
X148324119Y-104461401D01*
X148286742Y-104472739D01*
X148180478Y-104504974D01*
X148031100Y-104519686D01*
X147881723Y-104504974D01*
X147775459Y-104472739D01*
X147738082Y-104461401D01*
X147605710Y-104390646D01*
X147489679Y-104295422D01*
X147394455Y-104179391D01*
X147323700Y-104047019D01*
X147310243Y-104002658D01*
X147280127Y-103903378D01*
X147269101Y-103791426D01*
X147269100Y-102395775D01*
X147280126Y-102283823D01*
X147323698Y-102140186D01*
X147323699Y-102140182D01*
X147394454Y-102007810D01*
X147408934Y-101990166D01*
X147489678Y-101891778D01*
X147605708Y-101796555D01*
X147605707Y-101796555D01*
X147605709Y-101796554D01*
X147738081Y-101725799D01*
X147775458Y-101714461D01*
X147881722Y-101682226D01*
X148031100Y-101667514D01*
X148180477Y-101682226D01*
G37*
G36*
X101261500Y-102367037D02*
G01*
X101378462Y-102415484D01*
X101399011Y-102423996D01*
X101522767Y-102506687D01*
X101628013Y-102611933D01*
X101710704Y-102735689D01*
X101710705Y-102735691D01*
X101767663Y-102873200D01*
X101796700Y-103019179D01*
X101796700Y-103168021D01*
X101767663Y-103314000D01*
X101714433Y-103442510D01*
X101710704Y-103451511D01*
X101628013Y-103575267D01*
X101522767Y-103680513D01*
X101399011Y-103763204D01*
X101399010Y-103763205D01*
X101399009Y-103763205D01*
X101261500Y-103820163D01*
X101115521Y-103849200D01*
X100966679Y-103849200D01*
X100820700Y-103820163D01*
X100683191Y-103763205D01*
X100683190Y-103763205D01*
X100683189Y-103763204D01*
X100559433Y-103680513D01*
X100454187Y-103575267D01*
X100371496Y-103451511D01*
X100367768Y-103442510D01*
X100314537Y-103314000D01*
X100285500Y-103168021D01*
X100285500Y-103019179D01*
X100314537Y-102873200D01*
X100371495Y-102735691D01*
X100371496Y-102735689D01*
X100454187Y-102611933D01*
X100559433Y-102506687D01*
X100683189Y-102423996D01*
X100703739Y-102415484D01*
X100820700Y-102367037D01*
X100966679Y-102338000D01*
X101115521Y-102338000D01*
X101261500Y-102367037D01*
G37*
G36*
X127854803Y-102371153D02*
G01*
X127925958Y-102385307D01*
X127981484Y-102408307D01*
X128060010Y-102440833D01*
X128060011Y-102440834D01*
X128180655Y-102521445D01*
X128283255Y-102624045D01*
X128337118Y-102704657D01*
X128363867Y-102744690D01*
X128377256Y-102777015D01*
X128419393Y-102878742D01*
X128447700Y-103021051D01*
X128447700Y-103166149D01*
X128419393Y-103308458D01*
X128415710Y-103317349D01*
X128363867Y-103442510D01*
X128337118Y-103482543D01*
X128283255Y-103563155D01*
X128180655Y-103665755D01*
X128100043Y-103719618D01*
X128060010Y-103746367D01*
X127998811Y-103771716D01*
X127925958Y-103801893D01*
X127854803Y-103816047D01*
X127783650Y-103830200D01*
X127638550Y-103830200D01*
X127567397Y-103816047D01*
X127496242Y-103801893D01*
X127423389Y-103771716D01*
X127362190Y-103746367D01*
X127322157Y-103719618D01*
X127241545Y-103665755D01*
X127138945Y-103563155D01*
X127085082Y-103482543D01*
X127058333Y-103442510D01*
X127006490Y-103317349D01*
X127002807Y-103308458D01*
X126974500Y-103166149D01*
X126974500Y-103021051D01*
X127002807Y-102878742D01*
X127044944Y-102777015D01*
X127058333Y-102744690D01*
X127085082Y-102704657D01*
X127138945Y-102624045D01*
X127241545Y-102521445D01*
X127362189Y-102440834D01*
X127362190Y-102440833D01*
X127440716Y-102408307D01*
X127496242Y-102385307D01*
X127567397Y-102371153D01*
X127638550Y-102357000D01*
X127783650Y-102357000D01*
X127854803Y-102371153D01*
G37*
G36*
X130394803Y-102371153D02*
G01*
X130465958Y-102385307D01*
X130521484Y-102408307D01*
X130600010Y-102440833D01*
X130600011Y-102440834D01*
X130720655Y-102521445D01*
X130823255Y-102624045D01*
X130877118Y-102704657D01*
X130903867Y-102744690D01*
X130917256Y-102777015D01*
X130959393Y-102878742D01*
X130987700Y-103021051D01*
X130987700Y-103166149D01*
X130959393Y-103308458D01*
X130955710Y-103317349D01*
X130903867Y-103442510D01*
X130877118Y-103482543D01*
X130823255Y-103563155D01*
X130720655Y-103665755D01*
X130640043Y-103719618D01*
X130600010Y-103746367D01*
X130538811Y-103771716D01*
X130465958Y-103801893D01*
X130394803Y-103816047D01*
X130323650Y-103830200D01*
X130178550Y-103830200D01*
X130107397Y-103816047D01*
X130036242Y-103801893D01*
X129963389Y-103771716D01*
X129902190Y-103746367D01*
X129862157Y-103719618D01*
X129781545Y-103665755D01*
X129678945Y-103563155D01*
X129625082Y-103482543D01*
X129598333Y-103442510D01*
X129546490Y-103317349D01*
X129542807Y-103308458D01*
X129514500Y-103166149D01*
X129514500Y-103021051D01*
X129542807Y-102878742D01*
X129584944Y-102777015D01*
X129598333Y-102744690D01*
X129625082Y-102704657D01*
X129678945Y-102624045D01*
X129781545Y-102521445D01*
X129902189Y-102440834D01*
X129902190Y-102440833D01*
X129980716Y-102408307D01*
X130036242Y-102385307D01*
X130107397Y-102371153D01*
X130178550Y-102357000D01*
X130323650Y-102357000D01*
X130394803Y-102371153D01*
G37*
G36*
X125314803Y-102371153D02*
G01*
X125385958Y-102385307D01*
X125441484Y-102408307D01*
X125520010Y-102440833D01*
X125520011Y-102440834D01*
X125640655Y-102521445D01*
X125743255Y-102624045D01*
X125797118Y-102704657D01*
X125823867Y-102744690D01*
X125837256Y-102777015D01*
X125879393Y-102878742D01*
X125907700Y-103021051D01*
X125907700Y-103166149D01*
X125879393Y-103308458D01*
X125875710Y-103317349D01*
X125823867Y-103442510D01*
X125797118Y-103482543D01*
X125743255Y-103563155D01*
X125640655Y-103665755D01*
X125560043Y-103719618D01*
X125520010Y-103746367D01*
X125458811Y-103771716D01*
X125385958Y-103801893D01*
X125314803Y-103816047D01*
X125243650Y-103830200D01*
X125098550Y-103830200D01*
X125027397Y-103816047D01*
X124956242Y-103801893D01*
X124883389Y-103771716D01*
X124822190Y-103746367D01*
X124782157Y-103719618D01*
X124701545Y-103665755D01*
X124598945Y-103563155D01*
X124545082Y-103482543D01*
X124518333Y-103442510D01*
X124466490Y-103317349D01*
X124462807Y-103308458D01*
X124434500Y-103166149D01*
X124434500Y-103021051D01*
X124462807Y-102878742D01*
X124504944Y-102777015D01*
X124518333Y-102744690D01*
X124545082Y-102704657D01*
X124598945Y-102624045D01*
X124701545Y-102521445D01*
X124822189Y-102440834D01*
X124822190Y-102440833D01*
X124900716Y-102408307D01*
X124956242Y-102385307D01*
X125027397Y-102371153D01*
X125098550Y-102357000D01*
X125243650Y-102357000D01*
X125314803Y-102371153D01*
G37*
G36*
X122774803Y-102371153D02*
G01*
X122845958Y-102385307D01*
X122901484Y-102408307D01*
X122980010Y-102440833D01*
X122980011Y-102440834D01*
X123100655Y-102521445D01*
X123203255Y-102624045D01*
X123257118Y-102704657D01*
X123283867Y-102744690D01*
X123297256Y-102777015D01*
X123339393Y-102878742D01*
X123367700Y-103021051D01*
X123367700Y-103166149D01*
X123339393Y-103308458D01*
X123335710Y-103317349D01*
X123283867Y-103442510D01*
X123257118Y-103482543D01*
X123203255Y-103563155D01*
X123100655Y-103665755D01*
X123020043Y-103719618D01*
X122980010Y-103746367D01*
X122918811Y-103771716D01*
X122845958Y-103801893D01*
X122774803Y-103816047D01*
X122703650Y-103830200D01*
X122558550Y-103830200D01*
X122487397Y-103816047D01*
X122416242Y-103801893D01*
X122343389Y-103771716D01*
X122282190Y-103746367D01*
X122242157Y-103719618D01*
X122161545Y-103665755D01*
X122058945Y-103563155D01*
X122005082Y-103482543D01*
X121978333Y-103442510D01*
X121926490Y-103317349D01*
X121922807Y-103308458D01*
X121894500Y-103166149D01*
X121894500Y-103021051D01*
X121922807Y-102878742D01*
X121964944Y-102777015D01*
X121978333Y-102744690D01*
X122005082Y-102704657D01*
X122058945Y-102624045D01*
X122161545Y-102521445D01*
X122282189Y-102440834D01*
X122282190Y-102440833D01*
X122360716Y-102408307D01*
X122416242Y-102385307D01*
X122487397Y-102371153D01*
X122558550Y-102357000D01*
X122703650Y-102357000D01*
X122774803Y-102371153D01*
G37*
G36*
X108763483Y-102756089D02*
G01*
X108763486Y-102756090D01*
X108763485Y-102756090D01*
X108827358Y-102782546D01*
X108884848Y-102820960D01*
X108933740Y-102869852D01*
X108972154Y-102927342D01*
X108993724Y-102979418D01*
X108998611Y-102991217D01*
X109012100Y-103059030D01*
X109012100Y-103128170D01*
X108998611Y-103195983D01*
X108998610Y-103195985D01*
X108972154Y-103259858D01*
X108933740Y-103317348D01*
X108884848Y-103366240D01*
X108827358Y-103404654D01*
X108775282Y-103426224D01*
X108763483Y-103431111D01*
X108695670Y-103444600D01*
X108626530Y-103444600D01*
X108558717Y-103431111D01*
X108546918Y-103426224D01*
X108494842Y-103404654D01*
X108437352Y-103366240D01*
X108388460Y-103317348D01*
X108350046Y-103259858D01*
X108323590Y-103195985D01*
X108323589Y-103195983D01*
X108310100Y-103128170D01*
X108310100Y-103059030D01*
X108323589Y-102991217D01*
X108328476Y-102979418D01*
X108350046Y-102927342D01*
X108388460Y-102869852D01*
X108437352Y-102820960D01*
X108494842Y-102782546D01*
X108558715Y-102756090D01*
X108558714Y-102756090D01*
X108558717Y-102756089D01*
X108626530Y-102742600D01*
X108695670Y-102742600D01*
X108763483Y-102756089D01*
G37*
G36*
X179930477Y-100412226D02*
G01*
X180036741Y-100444461D01*
X180074118Y-100455799D01*
X180206490Y-100526554D01*
X180206492Y-100526555D01*
X180206491Y-100526555D01*
X180322522Y-100621778D01*
X180328163Y-100628652D01*
X180417746Y-100737809D01*
X180488501Y-100870181D01*
X180498308Y-100902510D01*
X180532074Y-101013822D01*
X180543100Y-101125774D01*
X180543100Y-102521426D01*
X180532074Y-102633378D01*
X180501038Y-102735689D01*
X180488501Y-102777019D01*
X180417746Y-102909391D01*
X180322522Y-103025422D01*
X180206491Y-103120646D01*
X180074119Y-103191401D01*
X180059014Y-103195983D01*
X179930478Y-103234974D01*
X179781100Y-103249686D01*
X179631723Y-103234974D01*
X179503187Y-103195983D01*
X179488082Y-103191401D01*
X179355710Y-103120646D01*
X179239679Y-103025422D01*
X179144455Y-102909391D01*
X179073700Y-102777019D01*
X179061163Y-102735689D01*
X179030127Y-102633378D01*
X179019101Y-102521426D01*
X179019100Y-101125775D01*
X179030126Y-101013823D01*
X179073698Y-100870186D01*
X179073699Y-100870182D01*
X179144454Y-100737810D01*
X179158934Y-100720166D01*
X179239678Y-100621778D01*
X179355708Y-100526555D01*
X179355707Y-100526555D01*
X179355709Y-100526554D01*
X179488081Y-100455799D01*
X179525458Y-100444461D01*
X179631722Y-100412226D01*
X179781100Y-100397514D01*
X179930477Y-100412226D01*
G37*
G36*
X182470477Y-100412226D02*
G01*
X182576741Y-100444461D01*
X182614118Y-100455799D01*
X182746490Y-100526554D01*
X182746492Y-100526555D01*
X182746491Y-100526555D01*
X182862522Y-100621778D01*
X182868163Y-100628652D01*
X182957746Y-100737809D01*
X183028501Y-100870181D01*
X183038308Y-100902510D01*
X183072074Y-101013822D01*
X183083100Y-101125774D01*
X183083100Y-102521426D01*
X183072074Y-102633378D01*
X183041038Y-102735689D01*
X183028501Y-102777019D01*
X182957746Y-102909391D01*
X182862522Y-103025422D01*
X182746491Y-103120646D01*
X182614119Y-103191401D01*
X182599014Y-103195983D01*
X182470478Y-103234974D01*
X182321100Y-103249686D01*
X182171723Y-103234974D01*
X182043187Y-103195983D01*
X182028082Y-103191401D01*
X181895710Y-103120646D01*
X181779679Y-103025422D01*
X181684455Y-102909391D01*
X181613700Y-102777019D01*
X181601163Y-102735689D01*
X181570127Y-102633378D01*
X181559101Y-102521426D01*
X181559100Y-101125775D01*
X181570126Y-101013823D01*
X181613698Y-100870186D01*
X181613699Y-100870182D01*
X181684454Y-100737810D01*
X181698934Y-100720166D01*
X181779678Y-100621778D01*
X181895708Y-100526555D01*
X181895707Y-100526555D01*
X181895709Y-100526554D01*
X182028081Y-100455799D01*
X182065458Y-100444461D01*
X182171722Y-100412226D01*
X182321100Y-100397514D01*
X182470477Y-100412226D01*
G37*
G36*
X185010477Y-100412226D02*
G01*
X185116741Y-100444461D01*
X185154118Y-100455799D01*
X185286490Y-100526554D01*
X185286492Y-100526555D01*
X185286491Y-100526555D01*
X185402522Y-100621778D01*
X185408163Y-100628652D01*
X185497746Y-100737809D01*
X185568501Y-100870181D01*
X185578308Y-100902510D01*
X185612074Y-101013822D01*
X185623100Y-101125774D01*
X185623100Y-102521426D01*
X185612074Y-102633378D01*
X185581038Y-102735689D01*
X185568501Y-102777019D01*
X185497746Y-102909391D01*
X185402522Y-103025422D01*
X185286491Y-103120646D01*
X185154119Y-103191401D01*
X185139014Y-103195983D01*
X185010478Y-103234974D01*
X184861100Y-103249686D01*
X184711723Y-103234974D01*
X184583187Y-103195983D01*
X184568082Y-103191401D01*
X184435710Y-103120646D01*
X184319679Y-103025422D01*
X184224455Y-102909391D01*
X184153700Y-102777019D01*
X184141163Y-102735689D01*
X184110127Y-102633378D01*
X184099101Y-102521426D01*
X184099100Y-101125775D01*
X184110126Y-101013823D01*
X184153698Y-100870186D01*
X184153699Y-100870182D01*
X184224454Y-100737810D01*
X184238934Y-100720166D01*
X184319678Y-100621778D01*
X184435708Y-100526555D01*
X184435707Y-100526555D01*
X184435709Y-100526554D01*
X184568081Y-100455799D01*
X184605458Y-100444461D01*
X184711722Y-100412226D01*
X184861100Y-100397514D01*
X185010477Y-100412226D01*
G37*
G36*
X112644295Y-101081122D02*
G01*
X112693367Y-101090883D01*
X112832042Y-101148324D01*
X112956847Y-101231716D01*
X113062984Y-101337853D01*
X113146376Y-101462658D01*
X113146376Y-101462659D01*
X113203817Y-101601334D01*
X113228575Y-101725798D01*
X113233100Y-101748550D01*
X113233100Y-101898650D01*
X113203817Y-102045867D01*
X113146376Y-102184542D01*
X113062984Y-102309347D01*
X112956847Y-102415484D01*
X112832042Y-102498876D01*
X112693367Y-102556317D01*
X112644295Y-102566078D01*
X112546152Y-102585600D01*
X112396048Y-102585600D01*
X112297905Y-102566078D01*
X112248833Y-102556317D01*
X112110158Y-102498876D01*
X111985353Y-102415484D01*
X111879216Y-102309347D01*
X111795824Y-102184542D01*
X111738383Y-102045867D01*
X111709100Y-101898650D01*
X111709100Y-101748550D01*
X111713626Y-101725798D01*
X111738383Y-101601334D01*
X111795824Y-101462659D01*
X111795824Y-101462658D01*
X111879216Y-101337853D01*
X111985353Y-101231716D01*
X112110158Y-101148324D01*
X112248833Y-101090883D01*
X112297905Y-101081122D01*
X112396048Y-101061600D01*
X112546152Y-101061600D01*
X112644295Y-101081122D01*
G37*
G36*
X120264295Y-101081122D02*
G01*
X120313367Y-101090883D01*
X120452042Y-101148324D01*
X120576847Y-101231716D01*
X120682984Y-101337853D01*
X120766376Y-101462658D01*
X120766376Y-101462659D01*
X120823817Y-101601334D01*
X120848575Y-101725798D01*
X120853100Y-101748550D01*
X120853100Y-101898650D01*
X120823817Y-102045867D01*
X120766376Y-102184542D01*
X120682984Y-102309347D01*
X120576847Y-102415484D01*
X120452042Y-102498876D01*
X120313367Y-102556317D01*
X120264295Y-102566078D01*
X120166152Y-102585600D01*
X120016048Y-102585600D01*
X119917905Y-102566078D01*
X119868833Y-102556317D01*
X119730158Y-102498876D01*
X119605353Y-102415484D01*
X119499216Y-102309347D01*
X119415824Y-102184542D01*
X119358383Y-102045867D01*
X119329100Y-101898650D01*
X119329100Y-101748550D01*
X119333626Y-101725798D01*
X119358383Y-101601334D01*
X119415824Y-101462659D01*
X119415824Y-101462658D01*
X119499216Y-101337853D01*
X119605353Y-101231716D01*
X119730158Y-101148324D01*
X119868833Y-101090883D01*
X119917905Y-101081122D01*
X120016048Y-101061600D01*
X120166152Y-101061600D01*
X120264295Y-101081122D01*
G37*
G36*
X164714295Y-99811122D02*
G01*
X164763367Y-99820883D01*
X164902042Y-99878324D01*
X165026847Y-99961716D01*
X165132984Y-100067853D01*
X165216376Y-100192658D01*
X165273817Y-100331333D01*
X165273817Y-100331334D01*
X165298575Y-100455798D01*
X165303100Y-100478550D01*
X165303100Y-100628650D01*
X165273817Y-100775867D01*
X165216376Y-100914542D01*
X165132984Y-101039347D01*
X165026847Y-101145484D01*
X164902042Y-101228876D01*
X164763367Y-101286317D01*
X164714295Y-101296078D01*
X164616152Y-101315600D01*
X164466048Y-101315600D01*
X164367905Y-101296078D01*
X164318833Y-101286317D01*
X164180158Y-101228876D01*
X164055353Y-101145484D01*
X163949216Y-101039347D01*
X163865824Y-100914542D01*
X163808383Y-100775867D01*
X163779100Y-100628650D01*
X163779100Y-100478550D01*
X163783626Y-100455798D01*
X163808383Y-100331334D01*
X163808383Y-100331333D01*
X163865824Y-100192658D01*
X163949216Y-100067853D01*
X164055353Y-99961716D01*
X164180158Y-99878324D01*
X164318833Y-99820883D01*
X164367905Y-99811122D01*
X164466048Y-99791600D01*
X164616152Y-99791600D01*
X164714295Y-99811122D01*
G37*
G36*
X162174295Y-99811122D02*
G01*
X162223367Y-99820883D01*
X162362042Y-99878324D01*
X162486847Y-99961716D01*
X162592984Y-100067853D01*
X162676376Y-100192658D01*
X162733817Y-100331333D01*
X162733817Y-100331334D01*
X162758575Y-100455798D01*
X162763100Y-100478550D01*
X162763100Y-100628650D01*
X162733817Y-100775867D01*
X162676376Y-100914542D01*
X162592984Y-101039347D01*
X162486847Y-101145484D01*
X162362042Y-101228876D01*
X162223367Y-101286317D01*
X162174295Y-101296078D01*
X162076152Y-101315600D01*
X161926048Y-101315600D01*
X161827905Y-101296078D01*
X161778833Y-101286317D01*
X161640158Y-101228876D01*
X161515353Y-101145484D01*
X161409216Y-101039347D01*
X161325824Y-100914542D01*
X161268383Y-100775867D01*
X161239100Y-100628650D01*
X161239100Y-100478550D01*
X161243626Y-100455798D01*
X161268383Y-100331334D01*
X161268383Y-100331333D01*
X161325824Y-100192658D01*
X161409216Y-100067853D01*
X161515353Y-99961716D01*
X161640158Y-99878324D01*
X161778833Y-99820883D01*
X161827905Y-99811122D01*
X161926048Y-99791600D01*
X162076152Y-99791600D01*
X162174295Y-99811122D01*
G37*
G36*
X140584295Y-99811122D02*
G01*
X140633367Y-99820883D01*
X140772042Y-99878324D01*
X140896847Y-99961716D01*
X141002984Y-100067853D01*
X141086376Y-100192658D01*
X141143817Y-100331333D01*
X141143817Y-100331334D01*
X141168575Y-100455798D01*
X141173100Y-100478550D01*
X141173100Y-100628650D01*
X141143817Y-100775867D01*
X141086376Y-100914542D01*
X141002984Y-101039347D01*
X140896847Y-101145484D01*
X140772042Y-101228876D01*
X140633367Y-101286317D01*
X140584295Y-101296078D01*
X140486152Y-101315600D01*
X140336048Y-101315600D01*
X140237905Y-101296078D01*
X140188833Y-101286317D01*
X140050158Y-101228876D01*
X139925353Y-101145484D01*
X139819216Y-101039347D01*
X139735824Y-100914542D01*
X139678383Y-100775867D01*
X139649100Y-100628650D01*
X139649100Y-100478550D01*
X139653626Y-100455798D01*
X139678383Y-100331334D01*
X139678383Y-100331333D01*
X139735824Y-100192658D01*
X139819216Y-100067853D01*
X139925353Y-99961716D01*
X140050158Y-99878324D01*
X140188833Y-99820883D01*
X140237905Y-99811122D01*
X140336048Y-99791600D01*
X140486152Y-99791600D01*
X140584295Y-99811122D01*
G37*
G36*
X132964295Y-99811122D02*
G01*
X133013367Y-99820883D01*
X133152042Y-99878324D01*
X133276847Y-99961716D01*
X133382984Y-100067853D01*
X133466376Y-100192658D01*
X133523817Y-100331333D01*
X133523817Y-100331334D01*
X133548575Y-100455798D01*
X133553100Y-100478550D01*
X133553100Y-100628650D01*
X133523817Y-100775867D01*
X133466376Y-100914542D01*
X133382984Y-101039347D01*
X133276847Y-101145484D01*
X133152042Y-101228876D01*
X133013367Y-101286317D01*
X132964295Y-101296078D01*
X132866152Y-101315600D01*
X132716048Y-101315600D01*
X132617905Y-101296078D01*
X132568833Y-101286317D01*
X132430158Y-101228876D01*
X132305353Y-101145484D01*
X132199216Y-101039347D01*
X132115824Y-100914542D01*
X132058383Y-100775867D01*
X132029100Y-100628650D01*
X132029100Y-100478550D01*
X132033626Y-100455798D01*
X132058383Y-100331334D01*
X132058383Y-100331333D01*
X132115824Y-100192658D01*
X132199216Y-100067853D01*
X132305353Y-99961716D01*
X132430158Y-99878324D01*
X132568833Y-99820883D01*
X132617905Y-99811122D01*
X132716048Y-99791600D01*
X132866152Y-99791600D01*
X132964295Y-99811122D01*
G37*
G36*
X146934295Y-99811122D02*
G01*
X146983367Y-99820883D01*
X147122042Y-99878324D01*
X147246847Y-99961716D01*
X147352984Y-100067853D01*
X147436376Y-100192658D01*
X147493817Y-100331333D01*
X147493817Y-100331334D01*
X147518575Y-100455798D01*
X147523100Y-100478550D01*
X147523100Y-100628650D01*
X147493817Y-100775867D01*
X147436376Y-100914542D01*
X147352984Y-101039347D01*
X147246847Y-101145484D01*
X147122042Y-101228876D01*
X146983367Y-101286317D01*
X146934295Y-101296078D01*
X146836152Y-101315600D01*
X146686048Y-101315600D01*
X146587905Y-101296078D01*
X146538833Y-101286317D01*
X146400158Y-101228876D01*
X146275353Y-101145484D01*
X146169216Y-101039347D01*
X146085824Y-100914542D01*
X146028383Y-100775867D01*
X145999100Y-100628650D01*
X145999100Y-100478550D01*
X146003626Y-100455798D01*
X146028383Y-100331334D01*
X146028383Y-100331333D01*
X146085824Y-100192658D01*
X146169216Y-100067853D01*
X146275353Y-99961716D01*
X146400158Y-99878324D01*
X146538833Y-99820883D01*
X146587905Y-99811122D01*
X146686048Y-99791600D01*
X146836152Y-99791600D01*
X146934295Y-99811122D01*
G37*
G36*
X149474295Y-99811122D02*
G01*
X149523367Y-99820883D01*
X149662042Y-99878324D01*
X149786847Y-99961716D01*
X149892984Y-100067853D01*
X149976376Y-100192658D01*
X150033817Y-100331333D01*
X150033817Y-100331334D01*
X150058575Y-100455798D01*
X150063100Y-100478550D01*
X150063100Y-100628650D01*
X150033817Y-100775867D01*
X149976376Y-100914542D01*
X149892984Y-101039347D01*
X149786847Y-101145484D01*
X149662042Y-101228876D01*
X149523367Y-101286317D01*
X149474295Y-101296078D01*
X149376152Y-101315600D01*
X149226048Y-101315600D01*
X149127905Y-101296078D01*
X149078833Y-101286317D01*
X148940158Y-101228876D01*
X148815353Y-101145484D01*
X148709216Y-101039347D01*
X148625824Y-100914542D01*
X148568383Y-100775867D01*
X148539100Y-100628650D01*
X148539100Y-100478550D01*
X148543626Y-100455798D01*
X148568383Y-100331334D01*
X148568383Y-100331333D01*
X148625824Y-100192658D01*
X148709216Y-100067853D01*
X148815353Y-99961716D01*
X148940158Y-99878324D01*
X149078833Y-99820883D01*
X149127905Y-99811122D01*
X149226048Y-99791600D01*
X149376152Y-99791600D01*
X149474295Y-99811122D01*
G37*
G36*
X125314804Y-99831154D02*
G01*
X125385958Y-99845307D01*
X125441484Y-99868307D01*
X125520010Y-99900833D01*
X125520011Y-99900834D01*
X125640655Y-99981445D01*
X125743255Y-100084045D01*
X125797118Y-100164657D01*
X125823867Y-100204690D01*
X125879393Y-100338743D01*
X125907700Y-100481050D01*
X125907700Y-100626150D01*
X125879393Y-100768457D01*
X125823867Y-100902510D01*
X125823866Y-100902511D01*
X125743255Y-101023155D01*
X125640655Y-101125755D01*
X125560043Y-101179618D01*
X125520010Y-101206367D01*
X125458811Y-101231716D01*
X125385958Y-101261893D01*
X125314804Y-101276046D01*
X125243650Y-101290200D01*
X125098550Y-101290200D01*
X125027397Y-101276047D01*
X124956242Y-101261893D01*
X124883389Y-101231716D01*
X124822190Y-101206367D01*
X124782157Y-101179618D01*
X124701545Y-101125755D01*
X124598945Y-101023155D01*
X124518334Y-100902511D01*
X124518333Y-100902510D01*
X124462807Y-100768457D01*
X124434500Y-100626150D01*
X124434500Y-100481050D01*
X124462807Y-100338743D01*
X124518333Y-100204690D01*
X124545082Y-100164657D01*
X124598945Y-100084045D01*
X124701545Y-99981445D01*
X124822189Y-99900834D01*
X124822190Y-99900833D01*
X124900716Y-99868307D01*
X124956242Y-99845307D01*
X125027397Y-99831153D01*
X125098550Y-99817000D01*
X125243650Y-99817000D01*
X125314804Y-99831154D01*
G37*
G36*
X127854804Y-99831154D02*
G01*
X127925958Y-99845307D01*
X127981484Y-99868307D01*
X128060010Y-99900833D01*
X128060011Y-99900834D01*
X128180655Y-99981445D01*
X128283255Y-100084045D01*
X128337118Y-100164657D01*
X128363867Y-100204690D01*
X128419393Y-100338743D01*
X128447700Y-100481050D01*
X128447700Y-100626150D01*
X128419393Y-100768457D01*
X128363867Y-100902510D01*
X128363866Y-100902511D01*
X128283255Y-101023155D01*
X128180655Y-101125755D01*
X128100043Y-101179618D01*
X128060010Y-101206367D01*
X127998811Y-101231716D01*
X127925958Y-101261893D01*
X127854804Y-101276046D01*
X127783650Y-101290200D01*
X127638550Y-101290200D01*
X127567397Y-101276047D01*
X127496242Y-101261893D01*
X127423389Y-101231716D01*
X127362190Y-101206367D01*
X127322157Y-101179618D01*
X127241545Y-101125755D01*
X127138945Y-101023155D01*
X127058334Y-100902511D01*
X127058333Y-100902510D01*
X127002807Y-100768457D01*
X126974500Y-100626150D01*
X126974500Y-100481050D01*
X127002807Y-100338743D01*
X127058333Y-100204690D01*
X127085082Y-100164657D01*
X127138945Y-100084045D01*
X127241545Y-99981445D01*
X127362189Y-99900834D01*
X127362190Y-99900833D01*
X127440716Y-99868307D01*
X127496242Y-99845307D01*
X127567397Y-99831153D01*
X127638550Y-99817000D01*
X127783650Y-99817000D01*
X127854804Y-99831154D01*
G37*
G36*
X122774804Y-99831154D02*
G01*
X122845958Y-99845307D01*
X122901484Y-99868307D01*
X122980010Y-99900833D01*
X122980011Y-99900834D01*
X123100655Y-99981445D01*
X123203255Y-100084045D01*
X123257118Y-100164657D01*
X123283867Y-100204690D01*
X123339393Y-100338743D01*
X123367700Y-100481050D01*
X123367700Y-100626150D01*
X123339393Y-100768457D01*
X123283867Y-100902510D01*
X123283866Y-100902511D01*
X123203255Y-101023155D01*
X123100655Y-101125755D01*
X123020043Y-101179618D01*
X122980010Y-101206367D01*
X122918811Y-101231716D01*
X122845958Y-101261893D01*
X122774804Y-101276046D01*
X122703650Y-101290200D01*
X122558550Y-101290200D01*
X122487397Y-101276047D01*
X122416242Y-101261893D01*
X122343389Y-101231716D01*
X122282190Y-101206367D01*
X122242157Y-101179618D01*
X122161545Y-101125755D01*
X122058945Y-101023155D01*
X121978334Y-100902511D01*
X121978333Y-100902510D01*
X121922807Y-100768457D01*
X121894500Y-100626150D01*
X121894500Y-100481050D01*
X121922807Y-100338743D01*
X121978333Y-100204690D01*
X122005082Y-100164657D01*
X122058945Y-100084045D01*
X122161545Y-99981445D01*
X122282189Y-99900834D01*
X122282190Y-99900833D01*
X122360716Y-99868307D01*
X122416242Y-99845307D01*
X122487397Y-99831153D01*
X122558550Y-99817000D01*
X122703650Y-99817000D01*
X122774804Y-99831154D01*
G37*
G36*
X130394804Y-99831154D02*
G01*
X130465958Y-99845307D01*
X130521484Y-99868307D01*
X130600010Y-99900833D01*
X130600011Y-99900834D01*
X130720655Y-99981445D01*
X130823255Y-100084045D01*
X130877118Y-100164657D01*
X130903867Y-100204690D01*
X130959393Y-100338743D01*
X130987700Y-100481050D01*
X130987700Y-100626150D01*
X130959393Y-100768457D01*
X130903867Y-100902510D01*
X130903866Y-100902511D01*
X130823255Y-101023155D01*
X130720655Y-101125755D01*
X130640043Y-101179618D01*
X130600010Y-101206367D01*
X130538811Y-101231716D01*
X130465958Y-101261893D01*
X130394804Y-101276046D01*
X130323650Y-101290200D01*
X130178550Y-101290200D01*
X130107397Y-101276047D01*
X130036242Y-101261893D01*
X129963389Y-101231716D01*
X129902190Y-101206367D01*
X129862157Y-101179618D01*
X129781545Y-101125755D01*
X129678945Y-101023155D01*
X129598334Y-100902511D01*
X129598333Y-100902510D01*
X129542807Y-100768457D01*
X129514500Y-100626150D01*
X129514500Y-100481050D01*
X129542807Y-100338743D01*
X129598333Y-100204690D01*
X129625082Y-100164657D01*
X129678945Y-100084045D01*
X129781545Y-99981445D01*
X129902189Y-99900834D01*
X129902190Y-99900833D01*
X129980716Y-99868307D01*
X130036242Y-99845307D01*
X130107397Y-99831153D01*
X130178550Y-99817000D01*
X130323650Y-99817000D01*
X130394804Y-99831154D01*
G37*
G36*
X143124295Y-98541122D02*
G01*
X143173367Y-98550883D01*
X143312042Y-98608324D01*
X143436847Y-98691716D01*
X143542984Y-98797853D01*
X143626376Y-98922658D01*
X143683817Y-99061333D01*
X143713100Y-99208550D01*
X143713100Y-99358650D01*
X143683817Y-99505867D01*
X143626376Y-99644542D01*
X143542984Y-99769347D01*
X143436847Y-99875484D01*
X143312042Y-99958876D01*
X143173367Y-100016317D01*
X143124295Y-100026078D01*
X143026152Y-100045600D01*
X142876048Y-100045600D01*
X142777905Y-100026078D01*
X142728833Y-100016317D01*
X142590158Y-99958876D01*
X142465353Y-99875484D01*
X142359216Y-99769347D01*
X142275824Y-99644542D01*
X142218383Y-99505867D01*
X142189100Y-99358650D01*
X142189100Y-99208550D01*
X142218383Y-99061333D01*
X142275824Y-98922658D01*
X142359216Y-98797853D01*
X142465353Y-98691716D01*
X142590158Y-98608324D01*
X142728833Y-98550883D01*
X142777905Y-98541122D01*
X142876048Y-98521600D01*
X143026152Y-98521600D01*
X143124295Y-98541122D01*
G37*
G36*
X140584295Y-97271122D02*
G01*
X140633367Y-97280883D01*
X140772042Y-97338324D01*
X140896847Y-97421716D01*
X141002984Y-97527853D01*
X141086376Y-97652658D01*
X141143817Y-97791333D01*
X141173100Y-97938550D01*
X141173100Y-98088650D01*
X141143817Y-98235867D01*
X141086376Y-98374542D01*
X141002984Y-98499347D01*
X140896847Y-98605484D01*
X140772042Y-98688876D01*
X140633367Y-98746317D01*
X140584295Y-98756078D01*
X140486152Y-98775600D01*
X140336048Y-98775600D01*
X140237905Y-98756078D01*
X140188833Y-98746317D01*
X140050158Y-98688876D01*
X139925353Y-98605484D01*
X139819216Y-98499347D01*
X139735824Y-98374542D01*
X139678383Y-98235867D01*
X139649100Y-98088650D01*
X139649100Y-97938550D01*
X139678383Y-97791333D01*
X139735824Y-97652658D01*
X139819216Y-97527853D01*
X139925353Y-97421716D01*
X140050158Y-97338324D01*
X140188833Y-97280883D01*
X140237905Y-97271122D01*
X140336048Y-97251600D01*
X140486152Y-97251600D01*
X140584295Y-97271122D01*
G37*
G36*
X132964295Y-97271122D02*
G01*
X133013367Y-97280883D01*
X133152042Y-97338324D01*
X133276847Y-97421716D01*
X133382984Y-97527853D01*
X133466376Y-97652658D01*
X133523817Y-97791333D01*
X133553100Y-97938550D01*
X133553100Y-98088650D01*
X133523817Y-98235867D01*
X133466376Y-98374542D01*
X133382984Y-98499347D01*
X133276847Y-98605484D01*
X133152042Y-98688876D01*
X133013367Y-98746317D01*
X132964295Y-98756078D01*
X132866152Y-98775600D01*
X132716048Y-98775600D01*
X132617905Y-98756078D01*
X132568833Y-98746317D01*
X132430158Y-98688876D01*
X132305353Y-98605484D01*
X132199216Y-98499347D01*
X132115824Y-98374542D01*
X132058383Y-98235867D01*
X132029100Y-98088650D01*
X132029100Y-97938550D01*
X132058383Y-97791333D01*
X132115824Y-97652658D01*
X132199216Y-97527853D01*
X132305353Y-97421716D01*
X132430158Y-97338324D01*
X132568833Y-97280883D01*
X132617905Y-97271122D01*
X132716048Y-97251600D01*
X132866152Y-97251600D01*
X132964295Y-97271122D01*
G37*
G36*
X190125250Y-97867550D02*
G01*
X187826550Y-97867550D01*
X187826550Y-95568850D01*
X190125250Y-95568850D01*
X190125250Y-97867550D01*
G37*
G36*
X197135650Y-97867550D02*
G01*
X194836950Y-97867550D01*
X194836950Y-95568850D01*
X197135650Y-95568850D01*
X197135650Y-97867550D01*
G37*
G36*
X143124295Y-96001122D02*
G01*
X143173367Y-96010883D01*
X143312042Y-96068324D01*
X143436847Y-96151716D01*
X143542984Y-96257853D01*
X143626376Y-96382658D01*
X143683817Y-96521333D01*
X143713100Y-96668550D01*
X143713100Y-96818650D01*
X143683817Y-96965867D01*
X143626376Y-97104542D01*
X143542984Y-97229347D01*
X143436847Y-97335484D01*
X143312042Y-97418876D01*
X143173367Y-97476317D01*
X143124295Y-97486078D01*
X143026152Y-97505600D01*
X142876048Y-97505600D01*
X142777905Y-97486078D01*
X142728833Y-97476317D01*
X142590158Y-97418876D01*
X142465353Y-97335484D01*
X142359216Y-97229347D01*
X142275824Y-97104542D01*
X142218383Y-96965867D01*
X142189100Y-96818650D01*
X142189100Y-96668550D01*
X142218383Y-96521333D01*
X142275824Y-96382658D01*
X142359216Y-96257853D01*
X142465353Y-96151716D01*
X142590158Y-96068324D01*
X142728833Y-96010883D01*
X142777905Y-96001122D01*
X142876048Y-95981600D01*
X143026152Y-95981600D01*
X143124295Y-96001122D01*
G37*
G36*
X132964295Y-94731122D02*
G01*
X133013367Y-94740883D01*
X133152042Y-94798324D01*
X133276847Y-94881716D01*
X133382984Y-94987853D01*
X133466376Y-95112658D01*
X133494512Y-95180585D01*
X133523817Y-95251334D01*
X133553100Y-95398548D01*
X133553100Y-95548652D01*
X133538316Y-95622976D01*
X133523817Y-95695867D01*
X133466376Y-95834542D01*
X133382984Y-95959347D01*
X133276847Y-96065484D01*
X133152042Y-96148876D01*
X133013367Y-96206317D01*
X132964295Y-96216078D01*
X132866152Y-96235600D01*
X132716048Y-96235600D01*
X132617905Y-96216078D01*
X132568833Y-96206317D01*
X132430158Y-96148876D01*
X132305353Y-96065484D01*
X132199216Y-95959347D01*
X132115824Y-95834542D01*
X132058383Y-95695867D01*
X132043884Y-95622976D01*
X132029100Y-95548652D01*
X132029100Y-95398548D01*
X132058383Y-95251334D01*
X132087688Y-95180585D01*
X132115824Y-95112658D01*
X132199216Y-94987853D01*
X132305353Y-94881716D01*
X132430158Y-94798324D01*
X132568833Y-94740883D01*
X132617905Y-94731122D01*
X132716048Y-94711600D01*
X132866152Y-94711600D01*
X132964295Y-94731122D01*
G37*
G36*
X140584295Y-94731122D02*
G01*
X140633367Y-94740883D01*
X140772042Y-94798324D01*
X140896847Y-94881716D01*
X141002984Y-94987853D01*
X141086376Y-95112658D01*
X141114512Y-95180585D01*
X141143817Y-95251334D01*
X141173100Y-95398548D01*
X141173100Y-95548652D01*
X141158316Y-95622976D01*
X141143817Y-95695867D01*
X141086376Y-95834542D01*
X141002984Y-95959347D01*
X140896847Y-96065484D01*
X140772042Y-96148876D01*
X140633367Y-96206317D01*
X140584295Y-96216078D01*
X140486152Y-96235600D01*
X140336048Y-96235600D01*
X140237905Y-96216078D01*
X140188833Y-96206317D01*
X140050158Y-96148876D01*
X139925353Y-96065484D01*
X139819216Y-95959347D01*
X139735824Y-95834542D01*
X139678383Y-95695867D01*
X139663884Y-95622976D01*
X139649100Y-95548652D01*
X139649100Y-95398548D01*
X139678383Y-95251334D01*
X139707688Y-95180585D01*
X139735824Y-95112658D01*
X139819216Y-94987853D01*
X139925353Y-94881716D01*
X140050158Y-94798324D01*
X140188833Y-94740883D01*
X140237905Y-94731122D01*
X140336048Y-94711600D01*
X140486152Y-94711600D01*
X140584295Y-94731122D01*
G37*
G36*
X147496243Y-94715275D02*
G01*
X147570878Y-94722626D01*
X147677142Y-94754861D01*
X147714519Y-94766199D01*
X147846891Y-94836954D01*
X147962922Y-94932178D01*
X148058146Y-95048209D01*
X148128901Y-95180581D01*
X148128902Y-95180585D01*
X148172474Y-95324222D01*
X148187186Y-95473600D01*
X148172474Y-95622978D01*
X148150363Y-95695867D01*
X148128901Y-95766619D01*
X148058146Y-95898991D01*
X147962922Y-96015022D01*
X147846891Y-96110246D01*
X147714519Y-96181001D01*
X147677142Y-96192339D01*
X147570878Y-96224574D01*
X147496243Y-96231925D01*
X147458927Y-96235600D01*
X146063273Y-96235600D01*
X146025957Y-96231925D01*
X145951322Y-96224574D01*
X145845058Y-96192339D01*
X145807681Y-96181001D01*
X145675309Y-96110246D01*
X145559278Y-96015022D01*
X145464054Y-95898991D01*
X145393299Y-95766619D01*
X145371837Y-95695867D01*
X145349726Y-95622978D01*
X145335014Y-95473600D01*
X145349726Y-95324222D01*
X145393298Y-95180585D01*
X145393299Y-95180581D01*
X145464054Y-95048209D01*
X145559278Y-94932178D01*
X145675309Y-94836954D01*
X145807681Y-94766199D01*
X145845058Y-94754861D01*
X145951322Y-94722626D01*
X146025957Y-94715275D01*
X146063273Y-94711600D01*
X147458927Y-94711600D01*
X147496243Y-94715275D01*
G37*
G36*
X113939695Y-94731122D02*
G01*
X113988767Y-94740883D01*
X114127442Y-94798324D01*
X114252247Y-94881716D01*
X114358384Y-94987853D01*
X114441776Y-95112658D01*
X114469912Y-95180585D01*
X114499217Y-95251334D01*
X114528500Y-95398548D01*
X114528500Y-95548652D01*
X114513716Y-95622976D01*
X114499217Y-95695867D01*
X114441776Y-95834542D01*
X114358384Y-95959347D01*
X114252247Y-96065484D01*
X114127442Y-96148876D01*
X113988767Y-96206317D01*
X113939695Y-96216078D01*
X113841552Y-96235600D01*
X113691448Y-96235600D01*
X113593305Y-96216078D01*
X113544233Y-96206317D01*
X113405558Y-96148876D01*
X113280753Y-96065484D01*
X113174616Y-95959347D01*
X113091224Y-95834542D01*
X113033783Y-95695867D01*
X113019284Y-95622976D01*
X113004500Y-95548652D01*
X113004500Y-95398548D01*
X113033783Y-95251334D01*
X113063088Y-95180585D01*
X113091224Y-95112658D01*
X113174616Y-94987853D01*
X113280753Y-94881716D01*
X113405558Y-94798324D01*
X113544233Y-94740883D01*
X113593305Y-94731122D01*
X113691448Y-94711600D01*
X113841552Y-94711600D01*
X113939695Y-94731122D01*
G37*
G36*
X108834295Y-94731122D02*
G01*
X108883367Y-94740883D01*
X109022042Y-94798324D01*
X109146847Y-94881716D01*
X109252984Y-94987853D01*
X109336376Y-95112658D01*
X109364512Y-95180585D01*
X109393817Y-95251334D01*
X109423100Y-95398548D01*
X109423100Y-95548652D01*
X109408316Y-95622976D01*
X109393817Y-95695867D01*
X109336376Y-95834542D01*
X109252984Y-95959347D01*
X109146847Y-96065484D01*
X109022042Y-96148876D01*
X108883367Y-96206317D01*
X108834295Y-96216078D01*
X108736152Y-96235600D01*
X108586048Y-96235600D01*
X108487905Y-96216078D01*
X108438833Y-96206317D01*
X108300158Y-96148876D01*
X108175353Y-96065484D01*
X108069216Y-95959347D01*
X107985824Y-95834542D01*
X107928383Y-95695867D01*
X107913884Y-95622976D01*
X107899100Y-95548652D01*
X107899100Y-95398548D01*
X107928383Y-95251334D01*
X107957688Y-95180585D01*
X107985824Y-95112658D01*
X108069216Y-94987853D01*
X108175353Y-94881716D01*
X108300158Y-94798324D01*
X108438833Y-94740883D01*
X108487905Y-94731122D01*
X108586048Y-94711600D01*
X108736152Y-94711600D01*
X108834295Y-94731122D01*
G37*
G36*
X155116243Y-94715275D02*
G01*
X155190878Y-94722626D01*
X155297142Y-94754861D01*
X155334519Y-94766199D01*
X155466891Y-94836954D01*
X155582922Y-94932178D01*
X155678146Y-95048209D01*
X155748901Y-95180581D01*
X155748902Y-95180585D01*
X155792474Y-95324222D01*
X155807186Y-95473600D01*
X155792474Y-95622978D01*
X155770363Y-95695867D01*
X155748901Y-95766619D01*
X155678146Y-95898991D01*
X155582922Y-96015022D01*
X155466891Y-96110246D01*
X155334519Y-96181001D01*
X155297142Y-96192339D01*
X155190878Y-96224574D01*
X155116243Y-96231925D01*
X155078927Y-96235600D01*
X153683273Y-96235600D01*
X153645957Y-96231925D01*
X153571322Y-96224574D01*
X153465058Y-96192339D01*
X153427681Y-96181001D01*
X153295309Y-96110246D01*
X153179278Y-96015022D01*
X153084054Y-95898991D01*
X153013299Y-95766619D01*
X152991837Y-95695867D01*
X152969726Y-95622978D01*
X152955014Y-95473600D01*
X152969726Y-95324222D01*
X153013298Y-95180585D01*
X153013299Y-95180581D01*
X153084054Y-95048209D01*
X153179278Y-94932178D01*
X153295309Y-94836954D01*
X153427681Y-94766199D01*
X153465058Y-94754861D01*
X153571322Y-94722626D01*
X153645957Y-94715275D01*
X153683273Y-94711600D01*
X155078927Y-94711600D01*
X155116243Y-94715275D01*
G37*
G36*
X101214295Y-94731122D02*
G01*
X101263367Y-94740883D01*
X101402042Y-94798324D01*
X101526847Y-94881716D01*
X101632984Y-94987853D01*
X101716376Y-95112658D01*
X101744512Y-95180585D01*
X101773817Y-95251334D01*
X101803100Y-95398548D01*
X101803100Y-95548652D01*
X101788316Y-95622976D01*
X101773817Y-95695867D01*
X101716376Y-95834542D01*
X101632984Y-95959347D01*
X101526847Y-96065484D01*
X101402042Y-96148876D01*
X101263367Y-96206317D01*
X101214295Y-96216078D01*
X101116152Y-96235600D01*
X100966048Y-96235600D01*
X100867905Y-96216078D01*
X100818833Y-96206317D01*
X100680158Y-96148876D01*
X100555353Y-96065484D01*
X100449216Y-95959347D01*
X100365824Y-95834542D01*
X100308383Y-95695867D01*
X100293884Y-95622976D01*
X100279100Y-95548652D01*
X100279100Y-95398548D01*
X100308383Y-95251334D01*
X100337688Y-95180585D01*
X100365824Y-95112658D01*
X100449216Y-94987853D01*
X100555353Y-94881716D01*
X100680158Y-94798324D01*
X100818833Y-94740883D01*
X100867905Y-94731122D01*
X100966048Y-94711600D01*
X101116152Y-94711600D01*
X101214295Y-94731122D01*
G37*
G36*
X118968895Y-94731122D02*
G01*
X119017967Y-94740883D01*
X119156642Y-94798324D01*
X119281447Y-94881716D01*
X119387584Y-94987853D01*
X119470976Y-95112658D01*
X119499112Y-95180585D01*
X119528417Y-95251334D01*
X119557700Y-95398548D01*
X119557700Y-95548652D01*
X119542916Y-95622976D01*
X119528417Y-95695867D01*
X119470976Y-95834542D01*
X119387584Y-95959347D01*
X119281447Y-96065484D01*
X119156642Y-96148876D01*
X119017967Y-96206317D01*
X118968895Y-96216078D01*
X118870752Y-96235600D01*
X118720648Y-96235600D01*
X118622505Y-96216078D01*
X118573433Y-96206317D01*
X118434758Y-96148876D01*
X118309953Y-96065484D01*
X118203816Y-95959347D01*
X118120424Y-95834542D01*
X118062983Y-95695867D01*
X118048484Y-95622976D01*
X118033700Y-95548652D01*
X118033700Y-95398548D01*
X118062983Y-95251334D01*
X118092288Y-95180585D01*
X118120424Y-95112658D01*
X118203816Y-94987853D01*
X118309953Y-94881716D01*
X118434758Y-94798324D01*
X118573433Y-94740883D01*
X118622505Y-94731122D01*
X118720648Y-94711600D01*
X118870752Y-94711600D01*
X118968895Y-94731122D01*
G37*
G36*
X182470477Y-92792226D02*
G01*
X182576741Y-92824461D01*
X182614118Y-92835799D01*
X182746490Y-92906554D01*
X182746492Y-92906555D01*
X182746491Y-92906555D01*
X182862522Y-93001778D01*
X182903613Y-93051848D01*
X182957746Y-93117809D01*
X183028501Y-93250181D01*
X183038308Y-93282510D01*
X183072074Y-93393822D01*
X183083100Y-93505774D01*
X183083100Y-94901426D01*
X183072074Y-95013378D01*
X183048042Y-95092600D01*
X183028501Y-95157019D01*
X182957746Y-95289391D01*
X182862522Y-95405422D01*
X182746491Y-95500646D01*
X182614119Y-95571401D01*
X182576742Y-95582739D01*
X182470478Y-95614974D01*
X182321100Y-95629686D01*
X182171723Y-95614974D01*
X182065459Y-95582739D01*
X182028082Y-95571401D01*
X181895710Y-95500646D01*
X181779679Y-95405422D01*
X181684455Y-95289391D01*
X181613700Y-95157019D01*
X181594159Y-95092600D01*
X181570127Y-95013378D01*
X181559101Y-94901426D01*
X181559100Y-93505775D01*
X181570126Y-93393823D01*
X181613698Y-93250186D01*
X181613699Y-93250182D01*
X181684454Y-93117810D01*
X181736616Y-93054250D01*
X181779678Y-93001778D01*
X181895708Y-92906555D01*
X181895707Y-92906555D01*
X181895709Y-92906554D01*
X182028081Y-92835799D01*
X182065458Y-92824461D01*
X182171722Y-92792226D01*
X182321100Y-92777514D01*
X182470477Y-92792226D01*
G37*
G36*
X185010477Y-92792226D02*
G01*
X185116741Y-92824461D01*
X185154118Y-92835799D01*
X185286490Y-92906554D01*
X185286492Y-92906555D01*
X185286491Y-92906555D01*
X185402522Y-93001778D01*
X185443613Y-93051848D01*
X185497746Y-93117809D01*
X185568501Y-93250181D01*
X185578308Y-93282510D01*
X185612074Y-93393822D01*
X185623100Y-93505774D01*
X185623100Y-94901426D01*
X185612074Y-95013378D01*
X185588042Y-95092600D01*
X185568501Y-95157019D01*
X185497746Y-95289391D01*
X185402522Y-95405422D01*
X185286491Y-95500646D01*
X185154119Y-95571401D01*
X185116742Y-95582739D01*
X185010478Y-95614974D01*
X184861100Y-95629686D01*
X184711723Y-95614974D01*
X184605459Y-95582739D01*
X184568082Y-95571401D01*
X184435710Y-95500646D01*
X184319679Y-95405422D01*
X184224455Y-95289391D01*
X184153700Y-95157019D01*
X184134159Y-95092600D01*
X184110127Y-95013378D01*
X184099101Y-94901426D01*
X184099100Y-93505775D01*
X184110126Y-93393823D01*
X184153698Y-93250186D01*
X184153699Y-93250182D01*
X184224454Y-93117810D01*
X184276616Y-93054250D01*
X184319678Y-93001778D01*
X184435708Y-92906555D01*
X184435707Y-92906555D01*
X184435709Y-92906554D01*
X184568081Y-92835799D01*
X184605458Y-92824461D01*
X184711722Y-92792226D01*
X184861100Y-92777514D01*
X185010477Y-92792226D01*
G37*
G36*
X179930477Y-92792226D02*
G01*
X180036741Y-92824461D01*
X180074118Y-92835799D01*
X180206490Y-92906554D01*
X180206492Y-92906555D01*
X180206491Y-92906555D01*
X180322522Y-93001778D01*
X180363613Y-93051848D01*
X180417746Y-93117809D01*
X180488501Y-93250181D01*
X180498308Y-93282510D01*
X180532074Y-93393822D01*
X180543100Y-93505774D01*
X180543100Y-94901426D01*
X180532074Y-95013378D01*
X180508042Y-95092600D01*
X180488501Y-95157019D01*
X180417746Y-95289391D01*
X180322522Y-95405422D01*
X180206491Y-95500646D01*
X180074119Y-95571401D01*
X180036742Y-95582739D01*
X179930478Y-95614974D01*
X179781100Y-95629686D01*
X179631723Y-95614974D01*
X179525459Y-95582739D01*
X179488082Y-95571401D01*
X179355710Y-95500646D01*
X179239679Y-95405422D01*
X179144455Y-95289391D01*
X179073700Y-95157019D01*
X179054159Y-95092600D01*
X179030127Y-95013378D01*
X179019101Y-94901426D01*
X179019100Y-93505775D01*
X179030126Y-93393823D01*
X179073698Y-93250186D01*
X179073699Y-93250182D01*
X179144454Y-93117810D01*
X179196616Y-93054250D01*
X179239678Y-93001778D01*
X179355708Y-92906555D01*
X179355707Y-92906555D01*
X179355709Y-92906554D01*
X179488081Y-92835799D01*
X179525458Y-92824461D01*
X179631722Y-92792226D01*
X179781100Y-92777514D01*
X179930477Y-92792226D01*
G37*
G36*
X162229700Y-93323001D02*
G01*
X162232102Y-93347387D01*
X162239215Y-93370836D01*
X162250766Y-93392447D01*
X162266311Y-93411389D01*
X162285253Y-93426934D01*
X162306864Y-93438485D01*
X162330313Y-93445598D01*
X162354699Y-93448000D01*
X163823500Y-93448000D01*
X163823500Y-94959200D01*
X162354699Y-94959200D01*
X162330313Y-94961602D01*
X162306864Y-94968715D01*
X162285253Y-94980266D01*
X162266311Y-94995811D01*
X162250766Y-95014753D01*
X162239215Y-95036364D01*
X162232102Y-95059813D01*
X162229700Y-95084199D01*
X162229700Y-95448200D01*
X159736471Y-95448200D01*
X159730985Y-95430114D01*
X159719434Y-95408503D01*
X159703889Y-95389561D01*
X159684947Y-95374016D01*
X159663336Y-95362465D01*
X159639887Y-95355352D01*
X159615501Y-95352950D01*
X158133950Y-95352950D01*
X158133950Y-93054250D01*
X159615501Y-93054250D01*
X159639887Y-93051848D01*
X159663336Y-93044735D01*
X159684947Y-93033184D01*
X159703889Y-93017639D01*
X159719434Y-92998697D01*
X159730985Y-92977086D01*
X159736471Y-92959000D01*
X162229700Y-92959000D01*
X162229700Y-93323001D01*
G37*
G36*
X174431215Y-92977086D02*
G01*
X174442766Y-92998697D01*
X174458311Y-93017639D01*
X174477253Y-93033184D01*
X174498864Y-93044735D01*
X174522313Y-93051848D01*
X174546699Y-93054250D01*
X176028250Y-93054250D01*
X176028250Y-95352950D01*
X174546699Y-95352950D01*
X174522313Y-95355352D01*
X174498864Y-95362465D01*
X174477253Y-95374016D01*
X174458311Y-95389561D01*
X174442766Y-95408503D01*
X174431215Y-95430114D01*
X174425729Y-95448200D01*
X171932500Y-95448200D01*
X171932500Y-95084199D01*
X171930098Y-95059813D01*
X171922985Y-95036364D01*
X171911434Y-95014753D01*
X171895889Y-94995811D01*
X171876947Y-94980266D01*
X171855336Y-94968715D01*
X171831887Y-94961602D01*
X171807501Y-94959200D01*
X170313300Y-94959200D01*
X170313300Y-93448000D01*
X171807501Y-93448000D01*
X171831887Y-93445598D01*
X171855336Y-93438485D01*
X171876947Y-93426934D01*
X171895889Y-93411389D01*
X171911434Y-93392447D01*
X171922985Y-93370836D01*
X171930098Y-93347387D01*
X171932500Y-93323001D01*
X171932500Y-92959000D01*
X174425729Y-92959000D01*
X174431215Y-92977086D01*
G37*
G36*
X191096800Y-95092600D02*
G01*
X189369600Y-95092600D01*
X189369600Y-93365400D01*
X191096800Y-93365400D01*
X191096800Y-95092600D01*
G37*
G36*
X195592600Y-95092600D02*
G01*
X193865400Y-95092600D01*
X193865400Y-93365400D01*
X195592600Y-93365400D01*
X195592600Y-95092600D01*
G37*
G36*
X165830100Y-94959200D02*
G01*
X164318900Y-94959200D01*
X164318900Y-93448000D01*
X165830100Y-93448000D01*
X165830100Y-94959200D01*
G37*
G36*
X167836700Y-94959200D02*
G01*
X166325500Y-94959200D01*
X166325500Y-93448000D01*
X167836700Y-93448000D01*
X167836700Y-94959200D01*
G37*
G36*
X132964295Y-92191122D02*
G01*
X133013367Y-92200883D01*
X133152042Y-92258324D01*
X133276847Y-92341716D01*
X133382984Y-92447853D01*
X133466376Y-92572658D01*
X133523817Y-92711333D01*
X133523817Y-92711334D01*
X133553100Y-92858548D01*
X133553100Y-93008652D01*
X133544030Y-93054250D01*
X133523817Y-93155867D01*
X133466376Y-93294542D01*
X133382984Y-93419347D01*
X133276847Y-93525484D01*
X133152042Y-93608876D01*
X133013367Y-93666317D01*
X132964295Y-93676078D01*
X132866152Y-93695600D01*
X132716048Y-93695600D01*
X132617905Y-93676078D01*
X132568833Y-93666317D01*
X132430158Y-93608876D01*
X132305353Y-93525484D01*
X132199216Y-93419347D01*
X132115824Y-93294542D01*
X132058383Y-93155867D01*
X132038170Y-93054250D01*
X132029100Y-93008652D01*
X132029100Y-92858548D01*
X132058383Y-92711334D01*
X132058383Y-92711333D01*
X132115824Y-92572658D01*
X132199216Y-92447853D01*
X132305353Y-92341716D01*
X132430158Y-92258324D01*
X132568833Y-92200883D01*
X132617905Y-92191122D01*
X132716048Y-92171600D01*
X132866152Y-92171600D01*
X132964295Y-92191122D01*
G37*
G36*
X135504295Y-92191122D02*
G01*
X135553367Y-92200883D01*
X135692042Y-92258324D01*
X135816847Y-92341716D01*
X135922984Y-92447853D01*
X136006376Y-92572658D01*
X136063817Y-92711333D01*
X136063817Y-92711334D01*
X136093100Y-92858548D01*
X136093100Y-93008652D01*
X136084030Y-93054250D01*
X136063817Y-93155867D01*
X136006376Y-93294542D01*
X135922984Y-93419347D01*
X135816847Y-93525484D01*
X135692042Y-93608876D01*
X135553367Y-93666317D01*
X135504295Y-93676078D01*
X135406152Y-93695600D01*
X135256048Y-93695600D01*
X135157905Y-93676078D01*
X135108833Y-93666317D01*
X134970158Y-93608876D01*
X134845353Y-93525484D01*
X134739216Y-93419347D01*
X134655824Y-93294542D01*
X134598383Y-93155867D01*
X134578170Y-93054250D01*
X134569100Y-93008652D01*
X134569100Y-92858548D01*
X134598383Y-92711334D01*
X134598383Y-92711333D01*
X134655824Y-92572658D01*
X134739216Y-92447853D01*
X134845353Y-92341716D01*
X134970158Y-92258324D01*
X135108833Y-92200883D01*
X135157905Y-92191122D01*
X135256048Y-92171600D01*
X135406152Y-92171600D01*
X135504295Y-92191122D01*
G37*
G36*
X116454295Y-92191122D02*
G01*
X116503367Y-92200883D01*
X116642042Y-92258324D01*
X116766847Y-92341716D01*
X116872984Y-92447853D01*
X116956376Y-92572658D01*
X117013817Y-92711333D01*
X117013817Y-92711334D01*
X117043100Y-92858548D01*
X117043100Y-93008652D01*
X117034030Y-93054250D01*
X117013817Y-93155867D01*
X116956376Y-93294542D01*
X116872984Y-93419347D01*
X116766847Y-93525484D01*
X116642042Y-93608876D01*
X116503367Y-93666317D01*
X116454295Y-93676078D01*
X116356152Y-93695600D01*
X116206048Y-93695600D01*
X116107905Y-93676078D01*
X116058833Y-93666317D01*
X115920158Y-93608876D01*
X115795353Y-93525484D01*
X115689216Y-93419347D01*
X115605824Y-93294542D01*
X115548383Y-93155867D01*
X115528170Y-93054250D01*
X115519100Y-93008652D01*
X115519100Y-92858548D01*
X115548383Y-92711334D01*
X115548383Y-92711333D01*
X115605824Y-92572658D01*
X115689216Y-92447853D01*
X115795353Y-92341716D01*
X115920158Y-92258324D01*
X116058833Y-92200883D01*
X116107905Y-92191122D01*
X116206048Y-92171600D01*
X116356152Y-92171600D01*
X116454295Y-92191122D01*
G37*
G36*
X122774804Y-92211154D02*
G01*
X122845958Y-92225307D01*
X122901484Y-92248307D01*
X122980010Y-92280833D01*
X122980011Y-92280834D01*
X123100655Y-92361445D01*
X123203255Y-92464045D01*
X123257118Y-92544657D01*
X123283867Y-92584690D01*
X123339393Y-92718743D01*
X123367700Y-92861050D01*
X123367700Y-93006150D01*
X123339393Y-93148457D01*
X123283867Y-93282510D01*
X123283866Y-93282511D01*
X123203255Y-93403155D01*
X123100655Y-93505755D01*
X123071128Y-93525484D01*
X122980010Y-93586367D01*
X122901484Y-93618893D01*
X122845958Y-93641893D01*
X122774804Y-93656046D01*
X122703650Y-93670200D01*
X122558550Y-93670200D01*
X122487397Y-93656047D01*
X122416242Y-93641893D01*
X122360716Y-93618893D01*
X122282190Y-93586367D01*
X122191072Y-93525484D01*
X122161545Y-93505755D01*
X122058945Y-93403155D01*
X121978334Y-93282511D01*
X121978333Y-93282510D01*
X121922807Y-93148457D01*
X121894500Y-93006150D01*
X121894500Y-92861050D01*
X121922807Y-92718743D01*
X121978333Y-92584690D01*
X122005082Y-92544657D01*
X122058945Y-92464045D01*
X122161545Y-92361445D01*
X122282189Y-92280834D01*
X122282190Y-92280833D01*
X122360716Y-92248307D01*
X122416242Y-92225307D01*
X122487396Y-92211154D01*
X122558550Y-92197000D01*
X122703650Y-92197000D01*
X122774804Y-92211154D01*
G37*
G36*
X125314804Y-92211154D02*
G01*
X125385958Y-92225307D01*
X125441484Y-92248307D01*
X125520010Y-92280833D01*
X125520011Y-92280834D01*
X125640655Y-92361445D01*
X125743255Y-92464045D01*
X125797118Y-92544657D01*
X125823867Y-92584690D01*
X125879393Y-92718743D01*
X125907700Y-92861050D01*
X125907700Y-93006150D01*
X125879393Y-93148457D01*
X125823867Y-93282510D01*
X125823866Y-93282511D01*
X125743255Y-93403155D01*
X125640655Y-93505755D01*
X125611128Y-93525484D01*
X125520010Y-93586367D01*
X125441484Y-93618893D01*
X125385958Y-93641893D01*
X125314804Y-93656046D01*
X125243650Y-93670200D01*
X125098550Y-93670200D01*
X125027397Y-93656047D01*
X124956242Y-93641893D01*
X124900716Y-93618893D01*
X124822190Y-93586367D01*
X124731072Y-93525484D01*
X124701545Y-93505755D01*
X124598945Y-93403155D01*
X124518334Y-93282511D01*
X124518333Y-93282510D01*
X124462807Y-93148457D01*
X124434500Y-93006150D01*
X124434500Y-92861050D01*
X124462807Y-92718743D01*
X124518333Y-92584690D01*
X124545082Y-92544657D01*
X124598945Y-92464045D01*
X124701545Y-92361445D01*
X124822189Y-92280834D01*
X124822190Y-92280833D01*
X124900716Y-92248307D01*
X124956242Y-92225307D01*
X125027396Y-92211154D01*
X125098550Y-92197000D01*
X125243650Y-92197000D01*
X125314804Y-92211154D01*
G37*
G36*
X127854804Y-92211154D02*
G01*
X127925958Y-92225307D01*
X127981484Y-92248307D01*
X128060010Y-92280833D01*
X128060011Y-92280834D01*
X128180655Y-92361445D01*
X128283255Y-92464045D01*
X128337118Y-92544657D01*
X128363867Y-92584690D01*
X128419393Y-92718743D01*
X128447700Y-92861050D01*
X128447700Y-93006150D01*
X128419393Y-93148457D01*
X128363867Y-93282510D01*
X128363866Y-93282511D01*
X128283255Y-93403155D01*
X128180655Y-93505755D01*
X128151128Y-93525484D01*
X128060010Y-93586367D01*
X127981484Y-93618893D01*
X127925958Y-93641893D01*
X127854804Y-93656046D01*
X127783650Y-93670200D01*
X127638550Y-93670200D01*
X127567397Y-93656047D01*
X127496242Y-93641893D01*
X127440716Y-93618893D01*
X127362190Y-93586367D01*
X127271072Y-93525484D01*
X127241545Y-93505755D01*
X127138945Y-93403155D01*
X127058334Y-93282511D01*
X127058333Y-93282510D01*
X127002807Y-93148457D01*
X126974500Y-93006150D01*
X126974500Y-92861050D01*
X127002807Y-92718743D01*
X127058333Y-92584690D01*
X127085082Y-92544657D01*
X127138945Y-92464045D01*
X127241545Y-92361445D01*
X127362189Y-92280834D01*
X127362190Y-92280833D01*
X127440716Y-92248307D01*
X127496242Y-92225307D01*
X127567396Y-92211154D01*
X127638550Y-92197000D01*
X127783650Y-92197000D01*
X127854804Y-92211154D01*
G37*
G36*
X130394804Y-92211154D02*
G01*
X130465958Y-92225307D01*
X130521484Y-92248307D01*
X130600010Y-92280833D01*
X130600011Y-92280834D01*
X130720655Y-92361445D01*
X130823255Y-92464045D01*
X130877118Y-92544657D01*
X130903867Y-92584690D01*
X130959393Y-92718743D01*
X130987700Y-92861050D01*
X130987700Y-93006150D01*
X130959393Y-93148457D01*
X130903867Y-93282510D01*
X130903866Y-93282511D01*
X130823255Y-93403155D01*
X130720655Y-93505755D01*
X130691128Y-93525484D01*
X130600010Y-93586367D01*
X130521484Y-93618893D01*
X130465958Y-93641893D01*
X130394804Y-93656046D01*
X130323650Y-93670200D01*
X130178550Y-93670200D01*
X130107397Y-93656047D01*
X130036242Y-93641893D01*
X129980716Y-93618893D01*
X129902190Y-93586367D01*
X129811072Y-93525484D01*
X129781545Y-93505755D01*
X129678945Y-93403155D01*
X129598334Y-93282511D01*
X129598333Y-93282510D01*
X129542807Y-93148457D01*
X129514500Y-93006150D01*
X129514500Y-92861050D01*
X129542807Y-92718743D01*
X129598333Y-92584690D01*
X129625082Y-92544657D01*
X129678945Y-92464045D01*
X129781545Y-92361445D01*
X129902189Y-92280834D01*
X129902190Y-92280833D01*
X129980716Y-92248307D01*
X130036242Y-92225307D01*
X130107396Y-92211154D01*
X130178550Y-92197000D01*
X130323650Y-92197000D01*
X130394804Y-92211154D01*
G37*
M02*
