G04 #@! TF.GenerationSoftware,KiCad,Pcbnew,5.1.2*
G04 #@! TF.CreationDate,2020-10-20T13:32:52+02:00*
G04 #@! TF.ProjectId,eaa651fdd346d6544176813de3c28a36,65616136-3531-4666-9464-333436643635,rev?*
G04 #@! TF.SameCoordinates,Original*
G04 #@! TF.FileFunction,Copper,L2,Bot*
G04 #@! TF.FilePolarity,Positive*
%FSLAX46Y46*%
G04 Gerber Fmt 4.6, Leading zero omitted, Abs format (unit mm)*
G04 Created by KiCad (PCBNEW 5.1.2) date 2020-10-20 13:32:52*
%MOMM*%
%LPD*%
G04 APERTURE LIST*
%ADD10O,1.320800X2.641600*%
%ADD11C,1.524000*%
%ADD12O,1.524000X3.048000*%
%ADD13C,1.320800*%
%ADD14R,2.095500X2.095500*%
%ADD15R,1.524000X1.524000*%
%ADD16O,2.641600X1.320800*%
%ADD17O,1.422400X2.844800*%
%ADD18C,1.016000*%
%ADD19C,0.254000*%
%ADD20C,0.508000*%
%ADD21C,0.406400*%
G04 APERTURE END LIST*
D10*
X120091100Y-97378600D03*
X122631100Y-97378600D03*
X125171100Y-97378600D03*
X127711100Y-97378600D03*
X130251100Y-97378600D03*
X132791100Y-97378600D03*
X135331100Y-97378600D03*
X137871100Y-97378600D03*
X140411100Y-97378600D03*
X142951100Y-97378600D03*
X145491100Y-97378600D03*
X148031100Y-97378600D03*
X150571100Y-97378600D03*
X153111100Y-97378600D03*
X155651100Y-97378600D03*
X158191100Y-97378600D03*
X160731100Y-97378600D03*
X163271100Y-97378600D03*
X165811100Y-97378600D03*
X168351100Y-97378600D03*
X168351100Y-112618600D03*
X165811100Y-112618600D03*
X163271100Y-112618600D03*
X160731100Y-112618600D03*
X158191100Y-112618600D03*
X155651100Y-112618600D03*
X153111100Y-112618600D03*
X150571100Y-112618600D03*
X148031100Y-112618600D03*
X145491100Y-112618600D03*
X142951100Y-112618600D03*
X140411100Y-112618600D03*
X130251100Y-112618600D03*
X132791100Y-112618600D03*
X127711100Y-112618600D03*
X125171100Y-112618600D03*
X137871100Y-112618600D03*
X135331100Y-112618600D03*
X122631100Y-112618600D03*
X120091100Y-112618600D03*
D11*
X197561100Y-112618600D03*
X195021100Y-112618600D03*
X192481100Y-112618600D03*
X189941100Y-112618600D03*
X187401100Y-112618600D03*
X184861100Y-112618600D03*
X197561100Y-115158600D03*
X195021100Y-115158600D03*
X192481100Y-115158600D03*
X189941100Y-115158600D03*
X187401100Y-115158600D03*
X184861100Y-115158600D03*
D12*
X149301100Y-118968600D03*
X151841100Y-118968600D03*
X154381100Y-118968600D03*
X156921100Y-118968600D03*
X159461100Y-118968600D03*
X162001100Y-118968600D03*
X164541100Y-118968600D03*
X167081100Y-118968600D03*
X169621100Y-118968600D03*
X172161100Y-118968600D03*
X174701100Y-118968600D03*
X177241100Y-118968600D03*
X179781100Y-118968600D03*
X182321100Y-118968600D03*
X184861100Y-118968600D03*
X187401100Y-118968600D03*
X189941100Y-118968600D03*
X192481100Y-118968600D03*
X195021100Y-118968600D03*
X197561100Y-118968600D03*
X103581100Y-118968600D03*
X98501100Y-118968600D03*
X101041100Y-118968600D03*
X106121100Y-118968600D03*
X108661100Y-118968600D03*
X111201100Y-118968600D03*
X113741100Y-118968600D03*
X116281100Y-118968600D03*
X118821100Y-118968600D03*
X121361100Y-118968600D03*
X123901100Y-118968600D03*
X126441100Y-118968600D03*
X128981100Y-118968600D03*
X131521100Y-118968600D03*
X134061100Y-118968600D03*
X136601100Y-118968600D03*
X139141100Y-118968600D03*
X141681100Y-118968600D03*
X144221100Y-118968600D03*
X146761100Y-118968600D03*
D13*
X175971100Y-107538600D03*
X175971100Y-115158600D03*
X101041100Y-99918600D03*
X101041100Y-92298600D03*
X108661100Y-92298600D03*
X108661100Y-99918600D03*
X141681100Y-115158600D03*
X144221100Y-115158600D03*
D14*
X188975900Y-93543200D03*
X195986300Y-93543200D03*
D15*
X190233200Y-91054000D03*
X194729000Y-91054000D03*
D12*
X183591100Y-92298600D03*
X181051100Y-92298600D03*
X178511100Y-92298600D03*
D16*
X172161100Y-99918600D03*
X172161100Y-102458600D03*
X172161100Y-104998600D03*
X172161100Y-107538600D03*
X172161100Y-110078600D03*
X172161100Y-112618600D03*
D17*
X116281100Y-92298600D03*
X113741100Y-92298600D03*
D13*
X113741100Y-96108600D03*
X113741100Y-98648600D03*
D10*
X99771100Y-104998600D03*
X102311100Y-104998600D03*
X104851100Y-104998600D03*
X107391100Y-104998600D03*
X109931100Y-104998600D03*
X112471100Y-104998600D03*
X109931100Y-112618600D03*
X112471100Y-112618600D03*
X107391100Y-112618600D03*
X104851100Y-112618600D03*
X115011100Y-104998600D03*
X115011100Y-112618600D03*
X102311100Y-112618600D03*
X99771100Y-112618600D03*
D13*
X122631100Y-92298600D03*
X120091100Y-92298600D03*
X128981100Y-92298600D03*
X126441100Y-92298600D03*
X135331100Y-92298600D03*
X132791100Y-92298600D03*
X141681100Y-92298600D03*
X139141100Y-92298600D03*
X148031100Y-92298600D03*
X145491100Y-92298600D03*
X154381100Y-92298600D03*
X151841100Y-92298600D03*
D10*
X158191100Y-92298600D03*
X160731100Y-92298600D03*
X163271100Y-92298600D03*
X165811100Y-92298600D03*
X168351100Y-92298600D03*
X170891100Y-92298600D03*
X173431100Y-92298600D03*
D18*
X107708600Y-102141100D03*
X175336100Y-95791100D03*
X118186100Y-97696100D03*
X132473600Y-102776100D03*
X159778600Y-100236100D03*
X112471100Y-108808600D03*
X150253600Y-108808600D03*
X165176100Y-109761100D03*
X168351100Y-117063600D03*
X168033600Y-103411100D03*
X162001100Y-103093600D03*
X154698600Y-107856100D03*
X165811100Y-104046100D03*
X158191100Y-104046100D03*
X167081100Y-98966100D03*
X169938600Y-97378600D03*
X180733600Y-97696100D03*
X174701100Y-112301100D03*
X162953600Y-102141100D03*
X170891100Y-96426100D03*
X181686100Y-96743600D03*
X155016100Y-109761100D03*
X162953600Y-109761100D03*
X155968600Y-107856100D03*
X165176100Y-108173600D03*
X148666100Y-105951100D03*
X169303600Y-109443600D03*
X138506100Y-107856100D03*
X160731100Y-106586100D03*
X135966100Y-107856100D03*
X145173600Y-105951100D03*
X140728600Y-103093600D03*
X179781100Y-106586100D03*
X143268600Y-104046100D03*
X152158600Y-103093600D03*
X169621100Y-98966100D03*
X179781100Y-98648600D03*
X127711100Y-107856100D03*
X108978600Y-116111100D03*
X111518600Y-114523600D03*
X128981100Y-114206100D03*
X131521100Y-114206100D03*
X129298600Y-102141100D03*
X174383600Y-100236100D03*
X141681100Y-104046100D03*
X145173600Y-102141100D03*
X118186100Y-104046100D03*
X113741100Y-109761100D03*
X145491100Y-109761100D03*
X112153600Y-91346100D03*
X112788600Y-94203600D03*
X112471100Y-101506100D03*
X124853600Y-105951100D03*
X155651100Y-93251100D03*
X156603600Y-91028600D03*
D19*
X107708600Y-104681100D02*
X107391100Y-104998600D01*
X107708600Y-102141100D02*
X107708600Y-104681100D01*
X146761100Y-116428600D02*
X144221100Y-118968600D01*
X146761100Y-105316100D02*
X146761100Y-116428600D01*
X153111100Y-98966100D02*
X146761100Y-105316100D01*
X153111100Y-97378600D02*
X153111100Y-98966100D01*
X150888600Y-102141100D02*
X155651100Y-97378600D01*
X150888600Y-106903600D02*
X150888600Y-102141100D01*
X149301100Y-108491100D02*
X150888600Y-106903600D01*
X149301100Y-116428600D02*
X149301100Y-108491100D01*
X146761100Y-118968600D02*
X149301100Y-116428600D01*
X175336100Y-106903600D02*
X175971100Y-107538600D01*
X175336100Y-95791100D02*
X175336100Y-106903600D01*
X118186100Y-94203600D02*
X116281100Y-92298600D01*
X118186100Y-97696100D02*
X118186100Y-94203600D01*
X132791100Y-103093600D02*
X132473600Y-102776100D01*
X132791100Y-112618600D02*
X132791100Y-103093600D01*
X158191100Y-120238600D02*
X158191100Y-112618600D01*
X157556100Y-120873600D02*
X158191100Y-120238600D01*
X151841100Y-120873600D02*
X157556100Y-120873600D01*
X151841100Y-118968600D02*
X151841100Y-120873600D01*
X159143600Y-100871100D02*
X159778600Y-100236100D01*
X159143600Y-111031100D02*
X159143600Y-100871100D01*
X158191100Y-111983600D02*
X159143600Y-111031100D01*
X158191100Y-112618600D02*
X158191100Y-111983600D01*
X112471100Y-108808600D02*
X112471100Y-104998600D01*
X151841100Y-110396100D02*
X150253600Y-108808600D01*
X151841100Y-116428600D02*
X151841100Y-110396100D01*
X154381100Y-118968600D02*
X151841100Y-116428600D01*
X165176100Y-111983600D02*
X165811100Y-112618600D01*
X165176100Y-109761100D02*
X165176100Y-111983600D01*
X168351100Y-112618600D02*
X168351100Y-117063600D01*
X168033600Y-97696100D02*
X168351100Y-97378600D01*
X168033600Y-103411100D02*
X168033600Y-97696100D01*
X159778600Y-105316100D02*
X162001100Y-103093600D01*
X159778600Y-111348600D02*
X159778600Y-105316100D01*
X159461100Y-111666100D02*
X159778600Y-111348600D01*
X159461100Y-118968600D02*
X159461100Y-111666100D01*
X155651100Y-106903600D02*
X154698600Y-107856100D01*
X156921100Y-106903600D02*
X155651100Y-106903600D01*
X156921100Y-118968600D02*
X156921100Y-106903600D01*
X165811100Y-104046100D02*
X165811100Y-97378600D01*
X156921100Y-105316100D02*
X158191100Y-104046100D01*
X156921100Y-106903600D02*
X156921100Y-105316100D01*
X167081100Y-96426100D02*
X167081100Y-98966100D01*
X168033600Y-95473600D02*
X167081100Y-96426100D01*
X169938600Y-95473600D02*
X168033600Y-95473600D01*
X169938600Y-97378600D02*
X169938600Y-95473600D01*
X184861100Y-101823600D02*
X180733600Y-97696100D01*
X184861100Y-112618600D02*
X184861100Y-101823600D01*
X165811100Y-107538600D02*
X172161100Y-107538600D01*
X165811100Y-106268600D02*
X165811100Y-107538600D01*
X163906100Y-104363600D02*
X165811100Y-106268600D01*
X163906100Y-101506100D02*
X163906100Y-104363600D01*
X160731100Y-98331100D02*
X163906100Y-101506100D01*
X160731100Y-97378600D02*
X160731100Y-98331100D01*
X174701100Y-110078600D02*
X172161100Y-110078600D01*
X174701100Y-112301100D02*
X174701100Y-110078600D01*
X162953600Y-102141100D02*
X158191100Y-97378600D01*
X163906100Y-96743600D02*
X163271100Y-97378600D01*
X163906100Y-96108600D02*
X163906100Y-96743600D01*
X165176100Y-94838600D02*
X163906100Y-96108600D01*
X170891100Y-94838600D02*
X165176100Y-94838600D01*
X170891100Y-96426100D02*
X170891100Y-94838600D01*
X197561100Y-112618600D02*
X181686100Y-96743600D01*
X155016100Y-110713600D02*
X153111100Y-112618600D01*
X155016100Y-109761100D02*
X155016100Y-110713600D01*
X164541100Y-111348600D02*
X162953600Y-109761100D01*
X164541100Y-118968600D02*
X164541100Y-111348600D01*
X155968600Y-112301100D02*
X155651100Y-112618600D01*
X155968600Y-107856100D02*
X155968600Y-112301100D01*
X167081100Y-110078600D02*
X165176100Y-108173600D01*
X167081100Y-118968600D02*
X167081100Y-110078600D01*
X148666100Y-111983600D02*
X148031100Y-112618600D01*
X148666100Y-105951100D02*
X148666100Y-111983600D01*
X169621100Y-109761100D02*
X169303600Y-109443600D01*
X169621100Y-118968600D02*
X169621100Y-109761100D01*
X138506100Y-111983600D02*
X137871100Y-112618600D01*
X138506100Y-107856100D02*
X138506100Y-111983600D01*
X162001100Y-107856100D02*
X160731100Y-106586100D01*
X162001100Y-116428600D02*
X162001100Y-107856100D01*
X163271100Y-117698600D02*
X162001100Y-116428600D01*
X163271100Y-120238600D02*
X163271100Y-117698600D01*
X163906100Y-120873600D02*
X163271100Y-120238600D01*
X172161100Y-120873600D02*
X163906100Y-120873600D01*
X172161100Y-118968600D02*
X172161100Y-120873600D01*
X135966100Y-111983600D02*
X135331100Y-112618600D01*
X135966100Y-107856100D02*
X135966100Y-111983600D01*
X149618600Y-101506100D02*
X145173600Y-105951100D01*
X149618600Y-100553600D02*
X149618600Y-101506100D01*
X151841100Y-98331100D02*
X149618600Y-100553600D01*
X151841100Y-96426100D02*
X151841100Y-98331100D01*
X153428600Y-94838600D02*
X151841100Y-96426100D01*
X164223600Y-94838600D02*
X153428600Y-94838600D01*
X164858600Y-94203600D02*
X164223600Y-94838600D01*
X171843600Y-94203600D02*
X164858600Y-94203600D01*
X171843600Y-98013600D02*
X171843600Y-94203600D01*
X170256100Y-99601100D02*
X171843600Y-98013600D01*
X170256100Y-105316100D02*
X170256100Y-99601100D01*
X171208600Y-106268600D02*
X170256100Y-105316100D01*
X174066100Y-106268600D02*
X171208600Y-106268600D01*
X174066100Y-107856100D02*
X174066100Y-106268600D01*
X173113600Y-108808600D02*
X174066100Y-107856100D01*
X170256100Y-108808600D02*
X173113600Y-108808600D01*
X170256100Y-114523600D02*
X170256100Y-108808600D01*
X174701100Y-118968600D02*
X170256100Y-114523600D01*
X140728600Y-112301100D02*
X140411100Y-112618600D01*
X140728600Y-103093600D02*
X140728600Y-112301100D01*
X179146100Y-107221100D02*
X179781100Y-106586100D01*
X179146100Y-117063600D02*
X179146100Y-107221100D01*
X177241100Y-118968600D02*
X179146100Y-117063600D01*
X143268600Y-112301100D02*
X142951100Y-112618600D01*
X143268600Y-104046100D02*
X143268600Y-112301100D01*
X156921100Y-98331100D02*
X152158600Y-103093600D01*
X156921100Y-96426100D02*
X156921100Y-98331100D01*
X157873600Y-95473600D02*
X156921100Y-96426100D01*
X162001100Y-95473600D02*
X157873600Y-95473600D01*
X162001100Y-98648600D02*
X162001100Y-95473600D01*
X164858600Y-101506100D02*
X162001100Y-98648600D01*
X164858600Y-104363600D02*
X164858600Y-101506100D01*
X165493600Y-104998600D02*
X164858600Y-104363600D01*
X169621100Y-104998600D02*
X165493600Y-104998600D01*
X169621100Y-98966100D02*
X169621100Y-104998600D01*
X180733600Y-99601100D02*
X179781100Y-98648600D01*
X180733600Y-118016100D02*
X180733600Y-99601100D01*
X179781100Y-118968600D02*
X180733600Y-118016100D01*
X129933600Y-112936100D02*
X130251100Y-112618600D01*
X129933600Y-115476100D02*
X129933600Y-112936100D01*
X127711100Y-117698600D02*
X129933600Y-115476100D01*
X127711100Y-120238600D02*
X127711100Y-117698600D01*
X127076100Y-120873600D02*
X127711100Y-120238600D01*
X98501100Y-120873600D02*
X127076100Y-120873600D01*
X98501100Y-118968600D02*
X98501100Y-120873600D01*
X127711100Y-107856100D02*
X127711100Y-112618600D01*
X106121100Y-118968600D02*
X108978600Y-116111100D01*
X109931100Y-116111100D02*
X111518600Y-114523600D01*
X109931100Y-117698600D02*
X109931100Y-116111100D01*
X108661100Y-118968600D02*
X109931100Y-117698600D01*
X119138600Y-98331100D02*
X120091100Y-97378600D01*
X119138600Y-109443600D02*
X119138600Y-98331100D01*
X116281100Y-112301100D02*
X119138600Y-109443600D01*
X116281100Y-113888600D02*
X116281100Y-112301100D01*
X111201100Y-118968600D02*
X116281100Y-113888600D01*
X119773600Y-100236100D02*
X122631100Y-97378600D01*
X119773600Y-109761100D02*
X119773600Y-100236100D01*
X116916100Y-112618600D02*
X119773600Y-109761100D01*
X116916100Y-115793600D02*
X116916100Y-112618600D01*
X113741100Y-118968600D02*
X116916100Y-115793600D01*
X122631100Y-99918600D02*
X125171100Y-97378600D01*
X122631100Y-107856100D02*
X122631100Y-99918600D01*
X117551100Y-112936100D02*
X122631100Y-107856100D01*
X117551100Y-117698600D02*
X117551100Y-112936100D01*
X116281100Y-118968600D02*
X117551100Y-117698600D01*
X123901100Y-101188600D02*
X127711100Y-97378600D01*
X123901100Y-113888600D02*
X123901100Y-101188600D01*
X118821100Y-118968600D02*
X123901100Y-113888600D01*
X130251100Y-110396100D02*
X130251100Y-97378600D01*
X128981100Y-111666100D02*
X130251100Y-110396100D01*
X128981100Y-114206100D02*
X128981100Y-111666100D01*
X131521100Y-98648600D02*
X132791100Y-97378600D01*
X131521100Y-114206100D02*
X131521100Y-98648600D01*
X128346100Y-103093600D02*
X129298600Y-102141100D01*
X128346100Y-105951100D02*
X128346100Y-103093600D01*
X126441100Y-107856100D02*
X128346100Y-105951100D01*
X126441100Y-118968600D02*
X126441100Y-107856100D01*
X136918600Y-98331100D02*
X137871100Y-97378600D01*
X136918600Y-111348600D02*
X136918600Y-98331100D01*
X136601100Y-111666100D02*
X136918600Y-111348600D01*
X136601100Y-113888600D02*
X136601100Y-111666100D01*
X132791100Y-117698600D02*
X136601100Y-113888600D01*
X132791100Y-120238600D02*
X132791100Y-117698600D01*
X132156100Y-120873600D02*
X132791100Y-120238600D01*
X128981100Y-120873600D02*
X132156100Y-120873600D01*
X128981100Y-118968600D02*
X128981100Y-120873600D01*
X138506100Y-95473600D02*
X140411100Y-97378600D01*
X134061100Y-95473600D02*
X138506100Y-95473600D01*
X134061100Y-115476100D02*
X134061100Y-95473600D01*
X131521100Y-118016100D02*
X134061100Y-115476100D01*
X131521100Y-118968600D02*
X131521100Y-118016100D01*
X139458600Y-100871100D02*
X142951100Y-97378600D01*
X139458600Y-111348600D02*
X139458600Y-100871100D01*
X139141100Y-111666100D02*
X139458600Y-111348600D01*
X139141100Y-113888600D02*
X139141100Y-111666100D01*
X134061100Y-118968600D02*
X139141100Y-113888600D01*
X144221100Y-98648600D02*
X145491100Y-97378600D01*
X144221100Y-113571100D02*
X144221100Y-98648600D01*
X142951100Y-114841100D02*
X144221100Y-113571100D01*
X142951100Y-115476100D02*
X142951100Y-114841100D01*
X141363600Y-117063600D02*
X142951100Y-115476100D01*
X140411100Y-117063600D02*
X141363600Y-117063600D01*
X140411100Y-120238600D02*
X140411100Y-117063600D01*
X139776100Y-120873600D02*
X140411100Y-120238600D01*
X136601100Y-120873600D02*
X139776100Y-120873600D01*
X136601100Y-118968600D02*
X136601100Y-120873600D01*
D20*
X116281100Y-111348600D02*
X115011100Y-112618600D01*
X116281100Y-98648600D02*
X116281100Y-104046100D01*
X116281100Y-104046100D02*
X116281100Y-111348600D01*
X113741100Y-96108600D02*
X116281100Y-98648600D01*
X139141100Y-115158600D02*
X141681100Y-115158600D01*
X139141100Y-118968600D02*
X139141100Y-115158600D01*
X174066100Y-99918600D02*
X174383600Y-100236100D01*
X174066100Y-92933600D02*
X174066100Y-99918600D01*
X173431100Y-92298600D02*
X174066100Y-92933600D01*
X141681100Y-104046100D02*
X141681100Y-115158600D01*
X148031100Y-99283600D02*
X145173600Y-102141100D01*
X148031100Y-97378600D02*
X148031100Y-99283600D01*
X118186100Y-104046100D02*
X116281100Y-104046100D01*
X101041100Y-103728600D02*
X99771100Y-104998600D01*
X101041100Y-99918600D02*
X101041100Y-103728600D01*
X145491100Y-113888600D02*
X144221100Y-115158600D01*
X145491100Y-112618600D02*
X145491100Y-113888600D01*
X142951100Y-117698600D02*
X141681100Y-118968600D01*
X142951100Y-116428600D02*
X142951100Y-117698600D01*
X144221100Y-115158600D02*
X142951100Y-116428600D01*
X173431100Y-112618600D02*
X172161100Y-112618600D01*
X175971100Y-115158600D02*
X174859850Y-114047350D01*
X174859850Y-114047350D02*
X173431100Y-112618600D01*
X178511100Y-110396100D02*
X174859850Y-114047350D01*
X178511100Y-92298600D02*
X178511100Y-110396100D01*
X113741100Y-109761100D02*
X113741100Y-98648600D01*
X145491100Y-112618600D02*
X145491100Y-109761100D01*
D19*
X106121100Y-108808600D02*
X102311100Y-112618600D01*
X106121100Y-97378600D02*
X106121100Y-108808600D01*
X112153600Y-91346100D02*
X106121100Y-97378600D01*
X108661100Y-111348600D02*
X107391100Y-112618600D01*
X108661100Y-101506100D02*
X108661100Y-111348600D01*
X109931100Y-100236100D02*
X108661100Y-101506100D01*
X109931100Y-97061100D02*
X109931100Y-100236100D01*
X112788600Y-94203600D02*
X109931100Y-97061100D01*
X111201100Y-111348600D02*
X112471100Y-112618600D01*
X111201100Y-102776100D02*
X111201100Y-111348600D01*
X112471100Y-101506100D02*
X111201100Y-102776100D01*
X127711100Y-103093600D02*
X124853600Y-105951100D01*
X127711100Y-99601100D02*
X127711100Y-103093600D01*
X128981100Y-98331100D02*
X127711100Y-99601100D01*
X128981100Y-94521100D02*
X128981100Y-98331100D01*
X132473600Y-91028600D02*
X128981100Y-94521100D01*
X139141100Y-91028600D02*
X132473600Y-91028600D01*
X139141100Y-92298600D02*
X139141100Y-91028600D01*
X110566100Y-104363600D02*
X109931100Y-104998600D01*
X110566100Y-97696100D02*
X110566100Y-104363600D01*
X114058600Y-94203600D02*
X110566100Y-97696100D01*
X115011100Y-94203600D02*
X114058600Y-94203600D01*
X115011100Y-91028600D02*
X115011100Y-94203600D01*
X115646100Y-90393600D02*
X115011100Y-91028600D01*
X145491100Y-90393600D02*
X115646100Y-90393600D01*
X145491100Y-92298600D02*
X145491100Y-90393600D01*
X105486100Y-104363600D02*
X104851100Y-104998600D01*
X105486100Y-97061100D02*
X105486100Y-104363600D01*
X111201100Y-91346100D02*
X105486100Y-97061100D01*
X111201100Y-91028600D02*
X111201100Y-91346100D01*
X112471100Y-89758600D02*
X111201100Y-91028600D01*
X151841100Y-89758600D02*
X112471100Y-89758600D01*
X151841100Y-92298600D02*
X151841100Y-89758600D01*
X155651100Y-90711100D02*
X155651100Y-93251100D01*
X156603600Y-89758600D02*
X155651100Y-90711100D01*
X165811100Y-89758600D02*
X156603600Y-89758600D01*
X165811100Y-92298600D02*
X165811100Y-89758600D01*
X157238600Y-91028600D02*
X156603600Y-91028600D01*
X157873600Y-90393600D02*
X157238600Y-91028600D01*
X163271100Y-90393600D02*
X157873600Y-90393600D01*
X163271100Y-92298600D02*
X163271100Y-90393600D01*
X150571100Y-92298600D02*
X148031100Y-92298600D01*
X150571100Y-92616100D02*
X150571100Y-92298600D01*
X152158600Y-94203600D02*
X150571100Y-92616100D01*
X160731100Y-94203600D02*
X152158600Y-94203600D01*
X160731100Y-92298600D02*
X160731100Y-94203600D01*
D21*
G36*
X199492899Y-121230399D02*
G01*
X172554172Y-121230399D01*
X172604078Y-121169588D01*
X172653311Y-121077480D01*
X172683628Y-120977537D01*
X172691300Y-120899643D01*
X172693865Y-120873600D01*
X172691300Y-120847557D01*
X172691300Y-120768407D01*
X172811582Y-120704115D01*
X172989007Y-120558507D01*
X173134615Y-120381082D01*
X173242812Y-120178660D01*
X173309440Y-119959019D01*
X173326300Y-119787834D01*
X173326300Y-118343616D01*
X173535900Y-118553216D01*
X173535900Y-119787834D01*
X173552760Y-119959019D01*
X173619389Y-120178660D01*
X173727586Y-120381082D01*
X173873194Y-120558507D01*
X174050619Y-120704115D01*
X174253041Y-120812312D01*
X174472682Y-120878940D01*
X174701100Y-120901437D01*
X174929519Y-120878940D01*
X175149160Y-120812312D01*
X175351582Y-120704115D01*
X175529007Y-120558507D01*
X175674615Y-120381082D01*
X175782812Y-120178660D01*
X175849440Y-119959019D01*
X175866300Y-119787834D01*
X175866300Y-118149366D01*
X175849440Y-117978181D01*
X175782812Y-117758540D01*
X175674615Y-117556118D01*
X175529007Y-117378693D01*
X175351581Y-117233085D01*
X175149159Y-117124888D01*
X174929518Y-117058260D01*
X174701100Y-117035763D01*
X174472681Y-117058260D01*
X174253040Y-117124888D01*
X174050618Y-117233085D01*
X173873193Y-117378693D01*
X173867701Y-117385385D01*
X170786300Y-114303985D01*
X170786300Y-113408227D01*
X170906937Y-113507230D01*
X171091709Y-113605993D01*
X171292198Y-113666810D01*
X171448453Y-113682200D01*
X172873747Y-113682200D01*
X173030002Y-113666810D01*
X173230491Y-113605993D01*
X173399001Y-113515922D01*
X174372324Y-114489246D01*
X174392892Y-114514308D01*
X174417953Y-114534875D01*
X174417962Y-114534884D01*
X174417973Y-114534893D01*
X174912382Y-115029302D01*
X174907500Y-115053845D01*
X174907500Y-115263355D01*
X174948374Y-115468841D01*
X175028550Y-115662403D01*
X175144948Y-115836605D01*
X175293095Y-115984752D01*
X175467297Y-116101150D01*
X175660859Y-116181326D01*
X175866345Y-116222200D01*
X176075855Y-116222200D01*
X176281341Y-116181326D01*
X176474903Y-116101150D01*
X176649105Y-115984752D01*
X176797252Y-115836605D01*
X176913650Y-115662403D01*
X176993826Y-115468841D01*
X177034700Y-115263355D01*
X177034700Y-115053845D01*
X176993826Y-114848359D01*
X176913650Y-114654797D01*
X176797252Y-114480595D01*
X176649105Y-114332448D01*
X176474903Y-114216050D01*
X176281341Y-114135874D01*
X176075855Y-114095000D01*
X175866345Y-114095000D01*
X175841802Y-114099882D01*
X175789270Y-114047350D01*
X178615901Y-111220720D01*
X178615900Y-116843984D01*
X178074499Y-117385385D01*
X178069007Y-117378693D01*
X177891581Y-117233085D01*
X177689159Y-117124888D01*
X177469518Y-117058260D01*
X177241100Y-117035763D01*
X177012681Y-117058260D01*
X176793040Y-117124888D01*
X176590618Y-117233085D01*
X176413193Y-117378693D01*
X176267585Y-117556119D01*
X176159388Y-117758541D01*
X176092760Y-117978182D01*
X176075900Y-118149367D01*
X176075900Y-119787834D01*
X176092760Y-119959019D01*
X176159389Y-120178660D01*
X176267586Y-120381082D01*
X176413194Y-120558507D01*
X176590619Y-120704115D01*
X176793041Y-120812312D01*
X177012682Y-120878940D01*
X177241100Y-120901437D01*
X177469519Y-120878940D01*
X177689160Y-120812312D01*
X177891582Y-120704115D01*
X178069007Y-120558507D01*
X178214615Y-120381082D01*
X178322812Y-120178660D01*
X178389440Y-119959019D01*
X178406300Y-119787834D01*
X178406300Y-118553215D01*
X178615900Y-118343616D01*
X178615900Y-119787834D01*
X178632760Y-119959019D01*
X178699389Y-120178660D01*
X178807586Y-120381082D01*
X178953194Y-120558507D01*
X179130619Y-120704115D01*
X179333041Y-120812312D01*
X179552682Y-120878940D01*
X179781100Y-120901437D01*
X180009519Y-120878940D01*
X180229160Y-120812312D01*
X180431582Y-120704115D01*
X180609007Y-120558507D01*
X180754615Y-120381082D01*
X180862812Y-120178660D01*
X180929440Y-119959019D01*
X180946300Y-119787834D01*
X180946300Y-118553216D01*
X181090093Y-118409423D01*
X181110322Y-118392822D01*
X181155900Y-118337284D01*
X181155900Y-119787834D01*
X181172760Y-119959019D01*
X181239389Y-120178660D01*
X181347586Y-120381082D01*
X181493194Y-120558507D01*
X181670619Y-120704115D01*
X181873041Y-120812312D01*
X182092682Y-120878940D01*
X182321100Y-120901437D01*
X182549519Y-120878940D01*
X182769160Y-120812312D01*
X182971582Y-120704115D01*
X183149007Y-120558507D01*
X183294615Y-120381082D01*
X183402812Y-120178660D01*
X183469440Y-119959019D01*
X183486300Y-119787834D01*
X183486300Y-118149367D01*
X183695900Y-118149367D01*
X183695900Y-119787834D01*
X183712760Y-119959019D01*
X183779389Y-120178660D01*
X183887586Y-120381082D01*
X184033194Y-120558507D01*
X184210619Y-120704115D01*
X184413041Y-120812312D01*
X184632682Y-120878940D01*
X184861100Y-120901437D01*
X185089519Y-120878940D01*
X185309160Y-120812312D01*
X185511582Y-120704115D01*
X185689007Y-120558507D01*
X185834615Y-120381082D01*
X185942812Y-120178660D01*
X186009440Y-119959019D01*
X186026300Y-119787834D01*
X186026300Y-118149367D01*
X186235900Y-118149367D01*
X186235900Y-119787834D01*
X186252760Y-119959019D01*
X186319389Y-120178660D01*
X186427586Y-120381082D01*
X186573194Y-120558507D01*
X186750619Y-120704115D01*
X186953041Y-120812312D01*
X187172682Y-120878940D01*
X187401100Y-120901437D01*
X187629519Y-120878940D01*
X187849160Y-120812312D01*
X188051582Y-120704115D01*
X188229007Y-120558507D01*
X188374615Y-120381082D01*
X188482812Y-120178660D01*
X188549440Y-119959019D01*
X188566300Y-119787834D01*
X188566300Y-118149367D01*
X188775900Y-118149367D01*
X188775900Y-119787834D01*
X188792760Y-119959019D01*
X188859389Y-120178660D01*
X188967586Y-120381082D01*
X189113194Y-120558507D01*
X189290619Y-120704115D01*
X189493041Y-120812312D01*
X189712682Y-120878940D01*
X189941100Y-120901437D01*
X190169519Y-120878940D01*
X190389160Y-120812312D01*
X190591582Y-120704115D01*
X190769007Y-120558507D01*
X190914615Y-120381082D01*
X191022812Y-120178660D01*
X191089440Y-119959019D01*
X191106300Y-119787834D01*
X191106300Y-118149367D01*
X191315900Y-118149367D01*
X191315900Y-119787834D01*
X191332760Y-119959019D01*
X191399389Y-120178660D01*
X191507586Y-120381082D01*
X191653194Y-120558507D01*
X191830619Y-120704115D01*
X192033041Y-120812312D01*
X192252682Y-120878940D01*
X192481100Y-120901437D01*
X192709519Y-120878940D01*
X192929160Y-120812312D01*
X193131582Y-120704115D01*
X193309007Y-120558507D01*
X193454615Y-120381082D01*
X193562812Y-120178660D01*
X193629440Y-119959019D01*
X193646300Y-119787834D01*
X193646300Y-118149367D01*
X193855900Y-118149367D01*
X193855900Y-119787834D01*
X193872760Y-119959019D01*
X193939389Y-120178660D01*
X194047586Y-120381082D01*
X194193194Y-120558507D01*
X194370619Y-120704115D01*
X194573041Y-120812312D01*
X194792682Y-120878940D01*
X195021100Y-120901437D01*
X195249519Y-120878940D01*
X195469160Y-120812312D01*
X195671582Y-120704115D01*
X195849007Y-120558507D01*
X195994615Y-120381082D01*
X196102812Y-120178660D01*
X196169440Y-119959019D01*
X196186300Y-119787834D01*
X196186300Y-118149367D01*
X196395900Y-118149367D01*
X196395900Y-119787834D01*
X196412760Y-119959019D01*
X196479389Y-120178660D01*
X196587586Y-120381082D01*
X196733194Y-120558507D01*
X196910619Y-120704115D01*
X197113041Y-120812312D01*
X197332682Y-120878940D01*
X197561100Y-120901437D01*
X197789519Y-120878940D01*
X198009160Y-120812312D01*
X198211582Y-120704115D01*
X198389007Y-120558507D01*
X198534615Y-120381082D01*
X198642812Y-120178660D01*
X198709440Y-119959019D01*
X198726300Y-119787834D01*
X198726300Y-118149366D01*
X198709440Y-117978181D01*
X198642812Y-117758540D01*
X198534615Y-117556118D01*
X198389007Y-117378693D01*
X198211581Y-117233085D01*
X198009159Y-117124888D01*
X197789518Y-117058260D01*
X197561100Y-117035763D01*
X197332681Y-117058260D01*
X197113040Y-117124888D01*
X196910618Y-117233085D01*
X196733193Y-117378693D01*
X196587585Y-117556119D01*
X196479388Y-117758541D01*
X196412760Y-117978182D01*
X196395900Y-118149367D01*
X196186300Y-118149367D01*
X196186300Y-118149366D01*
X196169440Y-117978181D01*
X196102812Y-117758540D01*
X195994615Y-117556118D01*
X195849007Y-117378693D01*
X195671581Y-117233085D01*
X195469159Y-117124888D01*
X195249518Y-117058260D01*
X195021100Y-117035763D01*
X194792681Y-117058260D01*
X194573040Y-117124888D01*
X194370618Y-117233085D01*
X194193193Y-117378693D01*
X194047585Y-117556119D01*
X193939388Y-117758541D01*
X193872760Y-117978182D01*
X193855900Y-118149367D01*
X193646300Y-118149367D01*
X193646300Y-118149366D01*
X193629440Y-117978181D01*
X193562812Y-117758540D01*
X193454615Y-117556118D01*
X193309007Y-117378693D01*
X193131581Y-117233085D01*
X192929159Y-117124888D01*
X192709518Y-117058260D01*
X192481100Y-117035763D01*
X192252681Y-117058260D01*
X192033040Y-117124888D01*
X191830618Y-117233085D01*
X191653193Y-117378693D01*
X191507585Y-117556119D01*
X191399388Y-117758541D01*
X191332760Y-117978182D01*
X191315900Y-118149367D01*
X191106300Y-118149367D01*
X191106300Y-118149366D01*
X191089440Y-117978181D01*
X191022812Y-117758540D01*
X190914615Y-117556118D01*
X190769007Y-117378693D01*
X190591581Y-117233085D01*
X190389159Y-117124888D01*
X190169518Y-117058260D01*
X189941100Y-117035763D01*
X189712681Y-117058260D01*
X189493040Y-117124888D01*
X189290618Y-117233085D01*
X189113193Y-117378693D01*
X188967585Y-117556119D01*
X188859388Y-117758541D01*
X188792760Y-117978182D01*
X188775900Y-118149367D01*
X188566300Y-118149367D01*
X188566300Y-118149366D01*
X188549440Y-117978181D01*
X188482812Y-117758540D01*
X188374615Y-117556118D01*
X188229007Y-117378693D01*
X188051581Y-117233085D01*
X187849159Y-117124888D01*
X187629518Y-117058260D01*
X187401100Y-117035763D01*
X187172681Y-117058260D01*
X186953040Y-117124888D01*
X186750618Y-117233085D01*
X186573193Y-117378693D01*
X186427585Y-117556119D01*
X186319388Y-117758541D01*
X186252760Y-117978182D01*
X186235900Y-118149367D01*
X186026300Y-118149367D01*
X186026300Y-118149366D01*
X186009440Y-117978181D01*
X185942812Y-117758540D01*
X185834615Y-117556118D01*
X185689007Y-117378693D01*
X185511581Y-117233085D01*
X185309159Y-117124888D01*
X185089518Y-117058260D01*
X184861100Y-117035763D01*
X184632681Y-117058260D01*
X184413040Y-117124888D01*
X184210618Y-117233085D01*
X184033193Y-117378693D01*
X183887585Y-117556119D01*
X183779388Y-117758541D01*
X183712760Y-117978182D01*
X183695900Y-118149367D01*
X183486300Y-118149367D01*
X183486300Y-118149366D01*
X183469440Y-117978181D01*
X183402812Y-117758540D01*
X183294615Y-117556118D01*
X183149007Y-117378693D01*
X182971581Y-117233085D01*
X182769159Y-117124888D01*
X182549518Y-117058260D01*
X182321100Y-117035763D01*
X182092681Y-117058260D01*
X181873040Y-117124888D01*
X181670618Y-117233085D01*
X181493193Y-117378693D01*
X181347585Y-117556119D01*
X181263800Y-117712869D01*
X181263800Y-115043838D01*
X183695900Y-115043838D01*
X183695900Y-115273362D01*
X183740678Y-115498476D01*
X183828513Y-115710529D01*
X183956030Y-115901372D01*
X184118328Y-116063670D01*
X184309171Y-116191187D01*
X184521224Y-116279022D01*
X184746338Y-116323800D01*
X184975862Y-116323800D01*
X185200976Y-116279022D01*
X185413029Y-116191187D01*
X185603872Y-116063670D01*
X185766170Y-115901372D01*
X185893687Y-115710529D01*
X185981522Y-115498476D01*
X186026300Y-115273362D01*
X186026300Y-115043838D01*
X186235900Y-115043838D01*
X186235900Y-115273362D01*
X186280678Y-115498476D01*
X186368513Y-115710529D01*
X186496030Y-115901372D01*
X186658328Y-116063670D01*
X186849171Y-116191187D01*
X187061224Y-116279022D01*
X187286338Y-116323800D01*
X187515862Y-116323800D01*
X187740976Y-116279022D01*
X187953029Y-116191187D01*
X188143872Y-116063670D01*
X188306170Y-115901372D01*
X188433687Y-115710529D01*
X188521522Y-115498476D01*
X188566300Y-115273362D01*
X188566300Y-115043838D01*
X188775900Y-115043838D01*
X188775900Y-115273362D01*
X188820678Y-115498476D01*
X188908513Y-115710529D01*
X189036030Y-115901372D01*
X189198328Y-116063670D01*
X189389171Y-116191187D01*
X189601224Y-116279022D01*
X189826338Y-116323800D01*
X190055862Y-116323800D01*
X190280976Y-116279022D01*
X190493029Y-116191187D01*
X190683872Y-116063670D01*
X190846170Y-115901372D01*
X190973687Y-115710529D01*
X191061522Y-115498476D01*
X191106300Y-115273362D01*
X191106300Y-115043838D01*
X191315900Y-115043838D01*
X191315900Y-115273362D01*
X191360678Y-115498476D01*
X191448513Y-115710529D01*
X191576030Y-115901372D01*
X191738328Y-116063670D01*
X191929171Y-116191187D01*
X192141224Y-116279022D01*
X192366338Y-116323800D01*
X192595862Y-116323800D01*
X192820976Y-116279022D01*
X193033029Y-116191187D01*
X193223872Y-116063670D01*
X193386170Y-115901372D01*
X193513687Y-115710529D01*
X193601522Y-115498476D01*
X193646300Y-115273362D01*
X193646300Y-115043838D01*
X193855900Y-115043838D01*
X193855900Y-115273362D01*
X193900678Y-115498476D01*
X193988513Y-115710529D01*
X194116030Y-115901372D01*
X194278328Y-116063670D01*
X194469171Y-116191187D01*
X194681224Y-116279022D01*
X194906338Y-116323800D01*
X195135862Y-116323800D01*
X195360976Y-116279022D01*
X195573029Y-116191187D01*
X195763872Y-116063670D01*
X195926170Y-115901372D01*
X196053687Y-115710529D01*
X196141522Y-115498476D01*
X196186300Y-115273362D01*
X196186300Y-115043838D01*
X196395900Y-115043838D01*
X196395900Y-115273362D01*
X196440678Y-115498476D01*
X196528513Y-115710529D01*
X196656030Y-115901372D01*
X196818328Y-116063670D01*
X197009171Y-116191187D01*
X197221224Y-116279022D01*
X197446338Y-116323800D01*
X197675862Y-116323800D01*
X197900976Y-116279022D01*
X198113029Y-116191187D01*
X198303872Y-116063670D01*
X198466170Y-115901372D01*
X198593687Y-115710529D01*
X198681522Y-115498476D01*
X198726300Y-115273362D01*
X198726300Y-115043838D01*
X198681522Y-114818724D01*
X198593687Y-114606671D01*
X198466170Y-114415828D01*
X198303872Y-114253530D01*
X198113029Y-114126013D01*
X197900976Y-114038178D01*
X197675862Y-113993400D01*
X197446338Y-113993400D01*
X197221224Y-114038178D01*
X197009171Y-114126013D01*
X196818328Y-114253530D01*
X196656030Y-114415828D01*
X196528513Y-114606671D01*
X196440678Y-114818724D01*
X196395900Y-115043838D01*
X196186300Y-115043838D01*
X196141522Y-114818724D01*
X196053687Y-114606671D01*
X195926170Y-114415828D01*
X195763872Y-114253530D01*
X195573029Y-114126013D01*
X195360976Y-114038178D01*
X195135862Y-113993400D01*
X194906338Y-113993400D01*
X194681224Y-114038178D01*
X194469171Y-114126013D01*
X194278328Y-114253530D01*
X194116030Y-114415828D01*
X193988513Y-114606671D01*
X193900678Y-114818724D01*
X193855900Y-115043838D01*
X193646300Y-115043838D01*
X193601522Y-114818724D01*
X193513687Y-114606671D01*
X193386170Y-114415828D01*
X193223872Y-114253530D01*
X193033029Y-114126013D01*
X192820976Y-114038178D01*
X192595862Y-113993400D01*
X192366338Y-113993400D01*
X192141224Y-114038178D01*
X191929171Y-114126013D01*
X191738328Y-114253530D01*
X191576030Y-114415828D01*
X191448513Y-114606671D01*
X191360678Y-114818724D01*
X191315900Y-115043838D01*
X191106300Y-115043838D01*
X191061522Y-114818724D01*
X190973687Y-114606671D01*
X190846170Y-114415828D01*
X190683872Y-114253530D01*
X190493029Y-114126013D01*
X190280976Y-114038178D01*
X190055862Y-113993400D01*
X189826338Y-113993400D01*
X189601224Y-114038178D01*
X189389171Y-114126013D01*
X189198328Y-114253530D01*
X189036030Y-114415828D01*
X188908513Y-114606671D01*
X188820678Y-114818724D01*
X188775900Y-115043838D01*
X188566300Y-115043838D01*
X188521522Y-114818724D01*
X188433687Y-114606671D01*
X188306170Y-114415828D01*
X188143872Y-114253530D01*
X187953029Y-114126013D01*
X187740976Y-114038178D01*
X187515862Y-113993400D01*
X187286338Y-113993400D01*
X187061224Y-114038178D01*
X186849171Y-114126013D01*
X186658328Y-114253530D01*
X186496030Y-114415828D01*
X186368513Y-114606671D01*
X186280678Y-114818724D01*
X186235900Y-115043838D01*
X186026300Y-115043838D01*
X185981522Y-114818724D01*
X185893687Y-114606671D01*
X185766170Y-114415828D01*
X185603872Y-114253530D01*
X185413029Y-114126013D01*
X185200976Y-114038178D01*
X184975862Y-113993400D01*
X184746338Y-113993400D01*
X184521224Y-114038178D01*
X184309171Y-114126013D01*
X184118328Y-114253530D01*
X183956030Y-114415828D01*
X183828513Y-114606671D01*
X183740678Y-114818724D01*
X183695900Y-115043838D01*
X181263800Y-115043838D01*
X181263800Y-99627139D01*
X181266365Y-99601099D01*
X181263800Y-99575057D01*
X181256128Y-99497163D01*
X181225811Y-99397220D01*
X181176578Y-99305112D01*
X181110322Y-99224378D01*
X181090091Y-99207775D01*
X180680414Y-98798099D01*
X180692300Y-98738345D01*
X180692300Y-98607300D01*
X180823345Y-98607300D01*
X180883099Y-98595414D01*
X184330901Y-102043217D01*
X184330900Y-111577013D01*
X184309171Y-111586013D01*
X184118328Y-111713530D01*
X183956030Y-111875828D01*
X183828513Y-112066671D01*
X183740678Y-112278724D01*
X183695900Y-112503838D01*
X183695900Y-112733362D01*
X183740678Y-112958476D01*
X183828513Y-113170529D01*
X183956030Y-113361372D01*
X184118328Y-113523670D01*
X184309171Y-113651187D01*
X184521224Y-113739022D01*
X184746338Y-113783800D01*
X184975862Y-113783800D01*
X185200976Y-113739022D01*
X185413029Y-113651187D01*
X185603872Y-113523670D01*
X185766170Y-113361372D01*
X185893687Y-113170529D01*
X185981522Y-112958476D01*
X186026300Y-112733362D01*
X186026300Y-112503838D01*
X186235900Y-112503838D01*
X186235900Y-112733362D01*
X186280678Y-112958476D01*
X186368513Y-113170529D01*
X186496030Y-113361372D01*
X186658328Y-113523670D01*
X186849171Y-113651187D01*
X187061224Y-113739022D01*
X187286338Y-113783800D01*
X187515862Y-113783800D01*
X187740976Y-113739022D01*
X187953029Y-113651187D01*
X188143872Y-113523670D01*
X188306170Y-113361372D01*
X188433687Y-113170529D01*
X188521522Y-112958476D01*
X188566300Y-112733362D01*
X188566300Y-112503838D01*
X188775900Y-112503838D01*
X188775900Y-112733362D01*
X188820678Y-112958476D01*
X188908513Y-113170529D01*
X189036030Y-113361372D01*
X189198328Y-113523670D01*
X189389171Y-113651187D01*
X189601224Y-113739022D01*
X189826338Y-113783800D01*
X190055862Y-113783800D01*
X190280976Y-113739022D01*
X190493029Y-113651187D01*
X190683872Y-113523670D01*
X190846170Y-113361372D01*
X190973687Y-113170529D01*
X191061522Y-112958476D01*
X191106300Y-112733362D01*
X191106300Y-112503838D01*
X191315900Y-112503838D01*
X191315900Y-112733362D01*
X191360678Y-112958476D01*
X191448513Y-113170529D01*
X191576030Y-113361372D01*
X191738328Y-113523670D01*
X191929171Y-113651187D01*
X192141224Y-113739022D01*
X192366338Y-113783800D01*
X192595862Y-113783800D01*
X192820976Y-113739022D01*
X193033029Y-113651187D01*
X193223872Y-113523670D01*
X193386170Y-113361372D01*
X193513687Y-113170529D01*
X193601522Y-112958476D01*
X193646300Y-112733362D01*
X193646300Y-112503838D01*
X193855900Y-112503838D01*
X193855900Y-112733362D01*
X193900678Y-112958476D01*
X193988513Y-113170529D01*
X194116030Y-113361372D01*
X194278328Y-113523670D01*
X194469171Y-113651187D01*
X194681224Y-113739022D01*
X194906338Y-113783800D01*
X195135862Y-113783800D01*
X195360976Y-113739022D01*
X195573029Y-113651187D01*
X195763872Y-113523670D01*
X195926170Y-113361372D01*
X196053687Y-113170529D01*
X196141522Y-112958476D01*
X196186300Y-112733362D01*
X196186300Y-112503838D01*
X196141522Y-112278724D01*
X196053687Y-112066671D01*
X195926170Y-111875828D01*
X195763872Y-111713530D01*
X195573029Y-111586013D01*
X195360976Y-111498178D01*
X195135862Y-111453400D01*
X194906338Y-111453400D01*
X194681224Y-111498178D01*
X194469171Y-111586013D01*
X194278328Y-111713530D01*
X194116030Y-111875828D01*
X193988513Y-112066671D01*
X193900678Y-112278724D01*
X193855900Y-112503838D01*
X193646300Y-112503838D01*
X193601522Y-112278724D01*
X193513687Y-112066671D01*
X193386170Y-111875828D01*
X193223872Y-111713530D01*
X193033029Y-111586013D01*
X192820976Y-111498178D01*
X192595862Y-111453400D01*
X192366338Y-111453400D01*
X192141224Y-111498178D01*
X191929171Y-111586013D01*
X191738328Y-111713530D01*
X191576030Y-111875828D01*
X191448513Y-112066671D01*
X191360678Y-112278724D01*
X191315900Y-112503838D01*
X191106300Y-112503838D01*
X191061522Y-112278724D01*
X190973687Y-112066671D01*
X190846170Y-111875828D01*
X190683872Y-111713530D01*
X190493029Y-111586013D01*
X190280976Y-111498178D01*
X190055862Y-111453400D01*
X189826338Y-111453400D01*
X189601224Y-111498178D01*
X189389171Y-111586013D01*
X189198328Y-111713530D01*
X189036030Y-111875828D01*
X188908513Y-112066671D01*
X188820678Y-112278724D01*
X188775900Y-112503838D01*
X188566300Y-112503838D01*
X188521522Y-112278724D01*
X188433687Y-112066671D01*
X188306170Y-111875828D01*
X188143872Y-111713530D01*
X187953029Y-111586013D01*
X187740976Y-111498178D01*
X187515862Y-111453400D01*
X187286338Y-111453400D01*
X187061224Y-111498178D01*
X186849171Y-111586013D01*
X186658328Y-111713530D01*
X186496030Y-111875828D01*
X186368513Y-112066671D01*
X186280678Y-112278724D01*
X186235900Y-112503838D01*
X186026300Y-112503838D01*
X185981522Y-112278724D01*
X185893687Y-112066671D01*
X185766170Y-111875828D01*
X185603872Y-111713530D01*
X185413029Y-111586013D01*
X185391300Y-111577013D01*
X185391300Y-101849639D01*
X185393865Y-101823599D01*
X185391300Y-101797557D01*
X185383628Y-101719663D01*
X185353311Y-101619720D01*
X185304078Y-101527612D01*
X185237822Y-101446878D01*
X185217591Y-101430275D01*
X181632914Y-97845599D01*
X181644800Y-97785845D01*
X181644800Y-97654800D01*
X181775845Y-97654800D01*
X181835599Y-97642914D01*
X196449679Y-112256995D01*
X196440678Y-112278724D01*
X196395900Y-112503838D01*
X196395900Y-112733362D01*
X196440678Y-112958476D01*
X196528513Y-113170529D01*
X196656030Y-113361372D01*
X196818328Y-113523670D01*
X197009171Y-113651187D01*
X197221224Y-113739022D01*
X197446338Y-113783800D01*
X197675862Y-113783800D01*
X197900976Y-113739022D01*
X198113029Y-113651187D01*
X198303872Y-113523670D01*
X198466170Y-113361372D01*
X198593687Y-113170529D01*
X198681522Y-112958476D01*
X198726300Y-112733362D01*
X198726300Y-112503838D01*
X198681522Y-112278724D01*
X198593687Y-112066671D01*
X198466170Y-111875828D01*
X198303872Y-111713530D01*
X198113029Y-111586013D01*
X197900976Y-111498178D01*
X197675862Y-111453400D01*
X197446338Y-111453400D01*
X197221224Y-111498178D01*
X197199495Y-111507179D01*
X182585414Y-96893099D01*
X182597300Y-96833345D01*
X182597300Y-96653855D01*
X182562283Y-96477813D01*
X182493595Y-96311985D01*
X182393875Y-96162744D01*
X182266956Y-96035825D01*
X182117715Y-95936105D01*
X181951887Y-95867417D01*
X181775845Y-95832400D01*
X181596355Y-95832400D01*
X181420313Y-95867417D01*
X181254485Y-95936105D01*
X181105244Y-96035825D01*
X180978325Y-96162744D01*
X180878605Y-96311985D01*
X180809917Y-96477813D01*
X180774900Y-96653855D01*
X180774900Y-96784900D01*
X180643855Y-96784900D01*
X180467813Y-96819917D01*
X180301985Y-96888605D01*
X180152744Y-96988325D01*
X180025825Y-97115244D01*
X179926105Y-97264485D01*
X179857417Y-97430313D01*
X179822400Y-97606355D01*
X179822400Y-97737400D01*
X179691355Y-97737400D01*
X179515313Y-97772417D01*
X179349485Y-97841105D01*
X179200244Y-97940825D01*
X179168300Y-97972769D01*
X179168300Y-94028602D01*
X179339007Y-93888507D01*
X179484615Y-93711082D01*
X179592812Y-93508660D01*
X179659440Y-93289019D01*
X179676300Y-93117834D01*
X179676300Y-91479367D01*
X179885900Y-91479367D01*
X179885900Y-93117834D01*
X179902760Y-93289019D01*
X179969389Y-93508660D01*
X180077586Y-93711082D01*
X180223194Y-93888507D01*
X180400619Y-94034115D01*
X180603041Y-94142312D01*
X180822682Y-94208940D01*
X181051100Y-94231437D01*
X181279519Y-94208940D01*
X181499160Y-94142312D01*
X181701582Y-94034115D01*
X181879007Y-93888507D01*
X182024615Y-93711082D01*
X182132812Y-93508660D01*
X182194895Y-93304000D01*
X182201693Y-93362460D01*
X182287280Y-93627720D01*
X182422972Y-93871186D01*
X182603555Y-94083501D01*
X182822088Y-94256507D01*
X183070174Y-94383555D01*
X183338279Y-94459762D01*
X183344055Y-94460570D01*
X183566100Y-94317051D01*
X183566100Y-92323600D01*
X183616100Y-92323600D01*
X183616100Y-94317051D01*
X183838145Y-94460570D01*
X183843921Y-94459762D01*
X184112026Y-94383555D01*
X184360112Y-94256507D01*
X184578645Y-94083501D01*
X184759228Y-93871186D01*
X184894920Y-93627720D01*
X184980507Y-93362460D01*
X185012700Y-93085600D01*
X185012700Y-92495450D01*
X187523000Y-92495450D01*
X187523000Y-94590950D01*
X187530785Y-94669991D01*
X187553840Y-94745994D01*
X187591280Y-94816039D01*
X187641666Y-94877434D01*
X187703061Y-94927820D01*
X187773106Y-94965260D01*
X187849109Y-94988315D01*
X187928150Y-94996100D01*
X190023650Y-94996100D01*
X190102691Y-94988315D01*
X190178694Y-94965260D01*
X190248739Y-94927820D01*
X190310134Y-94877434D01*
X190360520Y-94816039D01*
X190397960Y-94745994D01*
X190421015Y-94669991D01*
X190428800Y-94590950D01*
X190428800Y-92495450D01*
X190421015Y-92416409D01*
X190397960Y-92340406D01*
X190360520Y-92270361D01*
X190320133Y-92221150D01*
X190995200Y-92221150D01*
X191074241Y-92213365D01*
X191150244Y-92190310D01*
X191220289Y-92152870D01*
X191281684Y-92102484D01*
X191332070Y-92041089D01*
X191369510Y-91971044D01*
X191392565Y-91895041D01*
X191400350Y-91816000D01*
X193304208Y-91816000D01*
X193316943Y-91945304D01*
X193354660Y-92069640D01*
X193415909Y-92184228D01*
X193498335Y-92284665D01*
X193598772Y-92367091D01*
X193713360Y-92428340D01*
X193837696Y-92466057D01*
X193967000Y-92478792D01*
X194535353Y-92475621D01*
X194533400Y-92495450D01*
X194533400Y-94590950D01*
X194541185Y-94669991D01*
X194564240Y-94745994D01*
X194601680Y-94816039D01*
X194652066Y-94877434D01*
X194713461Y-94927820D01*
X194783506Y-94965260D01*
X194859509Y-94988315D01*
X194938550Y-94996100D01*
X197034050Y-94996100D01*
X197113091Y-94988315D01*
X197189094Y-94965260D01*
X197259139Y-94927820D01*
X197320534Y-94877434D01*
X197370920Y-94816039D01*
X197408360Y-94745994D01*
X197431415Y-94669991D01*
X197439200Y-94590950D01*
X197439200Y-92495450D01*
X197431415Y-92416409D01*
X197408360Y-92340406D01*
X197370920Y-92270361D01*
X197320534Y-92208966D01*
X197259139Y-92158580D01*
X197189094Y-92121140D01*
X197113091Y-92098085D01*
X197034050Y-92090300D01*
X196092297Y-92090300D01*
X196103340Y-92069640D01*
X196141057Y-91945304D01*
X196153792Y-91816000D01*
X196150600Y-91243900D01*
X195985700Y-91079000D01*
X194754000Y-91079000D01*
X194754000Y-91099000D01*
X194704000Y-91099000D01*
X194704000Y-91079000D01*
X193472300Y-91079000D01*
X193307400Y-91243900D01*
X193304208Y-91816000D01*
X191400350Y-91816000D01*
X191400350Y-90292000D01*
X193304208Y-90292000D01*
X193307400Y-90864100D01*
X193472300Y-91029000D01*
X194704000Y-91029000D01*
X194704000Y-89797300D01*
X194754000Y-89797300D01*
X194754000Y-91029000D01*
X195985700Y-91029000D01*
X196150600Y-90864100D01*
X196153792Y-90292000D01*
X196141057Y-90162696D01*
X196103340Y-90038360D01*
X196042091Y-89923772D01*
X195959665Y-89823335D01*
X195859228Y-89740909D01*
X195744640Y-89679660D01*
X195620304Y-89641943D01*
X195491000Y-89629208D01*
X194918900Y-89632400D01*
X194754000Y-89797300D01*
X194704000Y-89797300D01*
X194539100Y-89632400D01*
X193967000Y-89629208D01*
X193837696Y-89641943D01*
X193713360Y-89679660D01*
X193598772Y-89740909D01*
X193498335Y-89823335D01*
X193415909Y-89923772D01*
X193354660Y-90038360D01*
X193316943Y-90162696D01*
X193304208Y-90292000D01*
X191400350Y-90292000D01*
X191392565Y-90212959D01*
X191369510Y-90136956D01*
X191332070Y-90066911D01*
X191281684Y-90005516D01*
X191220289Y-89955130D01*
X191150244Y-89917690D01*
X191074241Y-89894635D01*
X190995200Y-89886850D01*
X189471200Y-89886850D01*
X189392159Y-89894635D01*
X189316156Y-89917690D01*
X189246111Y-89955130D01*
X189184716Y-90005516D01*
X189134330Y-90066911D01*
X189096890Y-90136956D01*
X189073835Y-90212959D01*
X189066050Y-90292000D01*
X189066050Y-91816000D01*
X189073835Y-91895041D01*
X189096890Y-91971044D01*
X189134330Y-92041089D01*
X189174717Y-92090300D01*
X187928150Y-92090300D01*
X187849109Y-92098085D01*
X187773106Y-92121140D01*
X187703061Y-92158580D01*
X187641666Y-92208966D01*
X187591280Y-92270361D01*
X187553840Y-92340406D01*
X187530785Y-92416409D01*
X187523000Y-92495450D01*
X185012700Y-92495450D01*
X185012700Y-92323600D01*
X183616100Y-92323600D01*
X183566100Y-92323600D01*
X183546100Y-92323600D01*
X183546100Y-92273600D01*
X183566100Y-92273600D01*
X183566100Y-90280149D01*
X183616100Y-90280149D01*
X183616100Y-92273600D01*
X185012700Y-92273600D01*
X185012700Y-91511600D01*
X184980507Y-91234740D01*
X184894920Y-90969480D01*
X184759228Y-90726014D01*
X184578645Y-90513699D01*
X184360112Y-90340693D01*
X184112026Y-90213645D01*
X183843921Y-90137438D01*
X183838145Y-90136630D01*
X183616100Y-90280149D01*
X183566100Y-90280149D01*
X183344055Y-90136630D01*
X183338279Y-90137438D01*
X183070174Y-90213645D01*
X182822088Y-90340693D01*
X182603555Y-90513699D01*
X182422972Y-90726014D01*
X182287280Y-90969480D01*
X182201693Y-91234740D01*
X182194895Y-91293200D01*
X182132812Y-91088540D01*
X182024615Y-90886118D01*
X181879007Y-90708693D01*
X181701581Y-90563085D01*
X181499159Y-90454888D01*
X181279518Y-90388260D01*
X181051100Y-90365763D01*
X180822681Y-90388260D01*
X180603040Y-90454888D01*
X180400618Y-90563085D01*
X180223193Y-90708693D01*
X180077585Y-90886119D01*
X179969388Y-91088541D01*
X179902760Y-91308182D01*
X179885900Y-91479367D01*
X179676300Y-91479367D01*
X179676300Y-91479366D01*
X179659440Y-91308181D01*
X179592812Y-91088540D01*
X179484615Y-90886118D01*
X179339007Y-90708693D01*
X179161581Y-90563085D01*
X178959159Y-90454888D01*
X178739518Y-90388260D01*
X178511100Y-90365763D01*
X178282681Y-90388260D01*
X178063040Y-90454888D01*
X177860618Y-90563085D01*
X177683193Y-90708693D01*
X177537585Y-90886119D01*
X177429388Y-91088541D01*
X177362760Y-91308182D01*
X177345900Y-91479367D01*
X177345900Y-93117834D01*
X177362760Y-93289019D01*
X177429389Y-93508660D01*
X177537586Y-93711082D01*
X177683194Y-93888507D01*
X177853900Y-94028601D01*
X177853901Y-110123878D01*
X175612300Y-112365480D01*
X175612300Y-112211355D01*
X175577283Y-112035313D01*
X175508595Y-111869485D01*
X175408875Y-111720244D01*
X175281956Y-111593325D01*
X175231300Y-111559478D01*
X175231300Y-110104643D01*
X175233865Y-110078600D01*
X175230025Y-110039607D01*
X175223628Y-109974663D01*
X175193311Y-109874720D01*
X175144078Y-109782612D01*
X175077822Y-109701878D01*
X174997088Y-109635622D01*
X174904980Y-109586389D01*
X174805037Y-109556072D01*
X174701100Y-109545835D01*
X174675058Y-109548400D01*
X173744105Y-109548400D01*
X173710130Y-109484837D01*
X173577218Y-109322882D01*
X173449961Y-109218445D01*
X173490322Y-109185322D01*
X173506929Y-109165086D01*
X174422593Y-108249423D01*
X174442822Y-108232822D01*
X174509078Y-108152088D01*
X174558311Y-108059980D01*
X174588628Y-107960037D01*
X174596300Y-107882143D01*
X174596300Y-107882141D01*
X174598865Y-107856101D01*
X174596300Y-107830057D01*
X174596300Y-106294643D01*
X174598865Y-106268600D01*
X174588628Y-106164663D01*
X174558311Y-106064720D01*
X174509078Y-105972612D01*
X174442822Y-105891878D01*
X174362088Y-105825622D01*
X174269980Y-105776389D01*
X174170037Y-105746072D01*
X174092143Y-105738400D01*
X174066100Y-105735835D01*
X174040058Y-105738400D01*
X173590281Y-105738400D01*
X173710130Y-105592363D01*
X173808893Y-105407591D01*
X173869710Y-105207102D01*
X173890246Y-104998600D01*
X173869710Y-104790098D01*
X173808893Y-104589609D01*
X173710130Y-104404837D01*
X173577218Y-104242882D01*
X173415263Y-104109970D01*
X173230491Y-104011207D01*
X173030002Y-103950390D01*
X172873747Y-103935000D01*
X171448453Y-103935000D01*
X171292198Y-103950390D01*
X171091709Y-104011207D01*
X170906937Y-104109970D01*
X170786300Y-104208973D01*
X170786300Y-103248227D01*
X170906937Y-103347230D01*
X171091709Y-103445993D01*
X171292198Y-103506810D01*
X171448453Y-103522200D01*
X172873747Y-103522200D01*
X173030002Y-103506810D01*
X173230491Y-103445993D01*
X173415263Y-103347230D01*
X173577218Y-103214318D01*
X173710130Y-103052363D01*
X173808893Y-102867591D01*
X173869710Y-102667102D01*
X173890246Y-102458600D01*
X173869710Y-102250098D01*
X173808893Y-102049609D01*
X173710130Y-101864837D01*
X173577218Y-101702882D01*
X173415263Y-101569970D01*
X173230491Y-101471207D01*
X173030002Y-101410390D01*
X172873747Y-101395000D01*
X171448453Y-101395000D01*
X171292198Y-101410390D01*
X171091709Y-101471207D01*
X170906937Y-101569970D01*
X170786300Y-101668973D01*
X170786300Y-100708227D01*
X170906937Y-100807230D01*
X171091709Y-100905993D01*
X171292198Y-100966810D01*
X171448453Y-100982200D01*
X172873747Y-100982200D01*
X173030002Y-100966810D01*
X173230491Y-100905993D01*
X173415263Y-100807230D01*
X173577218Y-100674318D01*
X173710130Y-100512363D01*
X173808893Y-100327591D01*
X173869710Y-100127102D01*
X173890246Y-99918600D01*
X173869710Y-99710098D01*
X173808893Y-99509609D01*
X173710130Y-99324837D01*
X173577218Y-99162882D01*
X173415263Y-99029970D01*
X173230491Y-98931207D01*
X173030002Y-98870390D01*
X172873747Y-98855000D01*
X171752016Y-98855000D01*
X172200091Y-98406925D01*
X172220322Y-98390322D01*
X172286578Y-98309588D01*
X172335811Y-98217480D01*
X172366128Y-98117537D01*
X172373800Y-98039643D01*
X172373800Y-98039641D01*
X172376365Y-98013601D01*
X172373800Y-97987561D01*
X172373800Y-95701355D01*
X174424900Y-95701355D01*
X174424900Y-95880845D01*
X174459917Y-96056887D01*
X174528605Y-96222715D01*
X174628325Y-96371956D01*
X174755244Y-96498875D01*
X174805900Y-96532722D01*
X174805901Y-106877550D01*
X174803335Y-106903600D01*
X174813573Y-107007536D01*
X174813573Y-107007537D01*
X174843890Y-107107480D01*
X174893123Y-107199588D01*
X174942201Y-107259391D01*
X174907500Y-107433845D01*
X174907500Y-107643355D01*
X174948374Y-107848841D01*
X175028550Y-108042403D01*
X175144948Y-108216605D01*
X175293095Y-108364752D01*
X175467297Y-108481150D01*
X175660859Y-108561326D01*
X175866345Y-108602200D01*
X176075855Y-108602200D01*
X176281341Y-108561326D01*
X176474903Y-108481150D01*
X176649105Y-108364752D01*
X176797252Y-108216605D01*
X176913650Y-108042403D01*
X176993826Y-107848841D01*
X177034700Y-107643355D01*
X177034700Y-107433845D01*
X176993826Y-107228359D01*
X176913650Y-107034797D01*
X176797252Y-106860595D01*
X176649105Y-106712448D01*
X176474903Y-106596050D01*
X176281341Y-106515874D01*
X176075855Y-106475000D01*
X175866345Y-106475000D01*
X175866300Y-106475009D01*
X175866300Y-96532722D01*
X175916956Y-96498875D01*
X176043875Y-96371956D01*
X176143595Y-96222715D01*
X176212283Y-96056887D01*
X176247300Y-95880845D01*
X176247300Y-95701355D01*
X176212283Y-95525313D01*
X176143595Y-95359485D01*
X176043875Y-95210244D01*
X175916956Y-95083325D01*
X175767715Y-94983605D01*
X175601887Y-94914917D01*
X175425845Y-94879900D01*
X175246355Y-94879900D01*
X175070313Y-94914917D01*
X174904485Y-94983605D01*
X174755244Y-95083325D01*
X174628325Y-95210244D01*
X174528605Y-95359485D01*
X174459917Y-95525313D01*
X174424900Y-95701355D01*
X172373800Y-95701355D01*
X172373800Y-94229643D01*
X172376365Y-94203600D01*
X172366128Y-94099663D01*
X172335811Y-93999720D01*
X172286578Y-93907612D01*
X172220322Y-93826878D01*
X172139588Y-93760622D01*
X172047480Y-93711389D01*
X171947537Y-93681072D01*
X171869643Y-93673400D01*
X171843600Y-93670835D01*
X171817558Y-93673400D01*
X171680727Y-93673400D01*
X171779730Y-93552763D01*
X171878493Y-93367991D01*
X171939310Y-93167502D01*
X171954700Y-93011247D01*
X171954700Y-92323600D01*
X172111100Y-92323600D01*
X172111100Y-92984000D01*
X172141341Y-93241039D01*
X172221146Y-93487239D01*
X172347449Y-93713139D01*
X172515396Y-93910058D01*
X172718533Y-94070429D01*
X172949054Y-94188088D01*
X173198100Y-94258514D01*
X173199951Y-94258604D01*
X173406100Y-94113829D01*
X173406100Y-92323600D01*
X173456100Y-92323600D01*
X173456100Y-94113829D01*
X173662249Y-94258604D01*
X173664100Y-94258514D01*
X173913146Y-94188088D01*
X174143667Y-94070429D01*
X174346804Y-93910058D01*
X174514751Y-93713139D01*
X174641054Y-93487239D01*
X174720859Y-93241039D01*
X174751100Y-92984000D01*
X174751100Y-92323600D01*
X173456100Y-92323600D01*
X173406100Y-92323600D01*
X172111100Y-92323600D01*
X171954700Y-92323600D01*
X171954700Y-91613200D01*
X172111100Y-91613200D01*
X172111100Y-92273600D01*
X173406100Y-92273600D01*
X173406100Y-90483371D01*
X173456100Y-90483371D01*
X173456100Y-92273600D01*
X174751100Y-92273600D01*
X174751100Y-91613200D01*
X174720859Y-91356161D01*
X174641054Y-91109961D01*
X174514751Y-90884061D01*
X174346804Y-90687142D01*
X174143667Y-90526771D01*
X173913146Y-90409112D01*
X173664100Y-90338686D01*
X173662249Y-90338596D01*
X173456100Y-90483371D01*
X173406100Y-90483371D01*
X173199951Y-90338596D01*
X173198100Y-90338686D01*
X172949054Y-90409112D01*
X172718533Y-90526771D01*
X172515396Y-90687142D01*
X172347449Y-90884061D01*
X172221146Y-91109961D01*
X172141341Y-91356161D01*
X172111100Y-91613200D01*
X171954700Y-91613200D01*
X171954700Y-91585953D01*
X171939310Y-91429698D01*
X171878493Y-91229209D01*
X171779730Y-91044437D01*
X171646818Y-90882482D01*
X171484863Y-90749570D01*
X171300091Y-90650807D01*
X171099602Y-90589990D01*
X170891100Y-90569454D01*
X170682599Y-90589990D01*
X170482110Y-90650807D01*
X170297338Y-90749570D01*
X170135383Y-90882482D01*
X170002471Y-91044437D01*
X169903708Y-91229209D01*
X169842891Y-91429698D01*
X169827500Y-91585953D01*
X169827500Y-93011246D01*
X169842890Y-93167501D01*
X169903707Y-93367990D01*
X170002470Y-93552763D01*
X170101473Y-93673400D01*
X169140727Y-93673400D01*
X169239730Y-93552763D01*
X169338493Y-93367991D01*
X169399310Y-93167502D01*
X169414700Y-93011247D01*
X169414700Y-91585953D01*
X169399310Y-91429698D01*
X169338493Y-91229209D01*
X169239730Y-91044437D01*
X169106818Y-90882482D01*
X168944863Y-90749570D01*
X168760091Y-90650807D01*
X168559602Y-90589990D01*
X168351100Y-90569454D01*
X168142599Y-90589990D01*
X167942110Y-90650807D01*
X167757338Y-90749570D01*
X167595383Y-90882482D01*
X167462471Y-91044437D01*
X167363708Y-91229209D01*
X167302891Y-91429698D01*
X167287500Y-91585953D01*
X167287500Y-93011246D01*
X167302890Y-93167501D01*
X167363707Y-93367990D01*
X167462470Y-93552763D01*
X167561473Y-93673400D01*
X166600727Y-93673400D01*
X166699730Y-93552763D01*
X166798493Y-93367991D01*
X166859310Y-93167502D01*
X166874700Y-93011247D01*
X166874700Y-91585953D01*
X166859310Y-91429698D01*
X166798493Y-91229209D01*
X166699730Y-91044437D01*
X166566818Y-90882482D01*
X166404863Y-90749570D01*
X166341300Y-90715595D01*
X166341300Y-89784643D01*
X166343865Y-89758600D01*
X166333628Y-89654663D01*
X166303311Y-89554720D01*
X166254078Y-89462612D01*
X166187822Y-89381878D01*
X166107088Y-89315622D01*
X166014980Y-89266389D01*
X165915037Y-89236072D01*
X165837143Y-89228400D01*
X165811100Y-89225835D01*
X165785058Y-89228400D01*
X156629639Y-89228400D01*
X156603599Y-89225835D01*
X156577559Y-89228400D01*
X156577557Y-89228400D01*
X156499663Y-89236072D01*
X156399720Y-89266389D01*
X156307612Y-89315622D01*
X156226878Y-89381878D01*
X156210275Y-89402109D01*
X155294614Y-90317771D01*
X155274378Y-90334378D01*
X155208122Y-90415112D01*
X155158889Y-90507221D01*
X155128572Y-90607164D01*
X155120900Y-90685057D01*
X155118335Y-90711100D01*
X155120900Y-90737140D01*
X155120900Y-91534243D01*
X155059105Y-91472448D01*
X154884903Y-91356050D01*
X154691341Y-91275874D01*
X154485855Y-91235000D01*
X154276345Y-91235000D01*
X154070859Y-91275874D01*
X153877297Y-91356050D01*
X153703095Y-91472448D01*
X153554948Y-91620595D01*
X153438550Y-91794797D01*
X153358374Y-91988359D01*
X153317500Y-92193845D01*
X153317500Y-92403355D01*
X153358374Y-92608841D01*
X153438550Y-92802403D01*
X153554948Y-92976605D01*
X153703095Y-93124752D01*
X153877297Y-93241150D01*
X154070859Y-93321326D01*
X154276345Y-93362200D01*
X154485855Y-93362200D01*
X154691341Y-93321326D01*
X154739900Y-93301212D01*
X154739900Y-93340845D01*
X154774917Y-93516887D01*
X154839747Y-93673400D01*
X152378216Y-93673400D01*
X152046914Y-93342098D01*
X152151341Y-93321326D01*
X152344903Y-93241150D01*
X152519105Y-93124752D01*
X152667252Y-92976605D01*
X152783650Y-92802403D01*
X152863826Y-92608841D01*
X152904700Y-92403355D01*
X152904700Y-92193845D01*
X152863826Y-91988359D01*
X152783650Y-91794797D01*
X152667252Y-91620595D01*
X152519105Y-91472448D01*
X152371300Y-91373688D01*
X152371300Y-89784643D01*
X152373865Y-89758600D01*
X152363628Y-89654663D01*
X152333311Y-89554720D01*
X152284078Y-89462612D01*
X152217822Y-89381878D01*
X152137088Y-89315622D01*
X152044980Y-89266389D01*
X151945037Y-89236072D01*
X151867143Y-89228400D01*
X151841100Y-89225835D01*
X151815058Y-89228400D01*
X112497139Y-89228400D01*
X112471099Y-89225835D01*
X112445059Y-89228400D01*
X112445057Y-89228400D01*
X112367163Y-89236072D01*
X112267220Y-89266389D01*
X112175112Y-89315622D01*
X112094378Y-89381878D01*
X112077775Y-89402109D01*
X110844614Y-90635271D01*
X110824378Y-90651878D01*
X110758122Y-90732612D01*
X110708889Y-90824721D01*
X110678572Y-90924664D01*
X110671872Y-90992688D01*
X110668335Y-91028600D01*
X110670900Y-91054640D01*
X110670900Y-91126484D01*
X109915200Y-91882184D01*
X109896630Y-91816142D01*
X109778766Y-91584372D01*
X109748673Y-91539333D01*
X109499883Y-91495173D01*
X108696455Y-92298600D01*
X108710598Y-92312742D01*
X108675242Y-92348098D01*
X108661100Y-92333955D01*
X107857673Y-93137383D01*
X107901833Y-93386173D01*
X108128598Y-93513401D01*
X108245800Y-93551584D01*
X105129614Y-96667771D01*
X105109378Y-96684378D01*
X105043122Y-96765112D01*
X104993889Y-96857221D01*
X104963572Y-96957164D01*
X104955900Y-97035057D01*
X104953335Y-97061100D01*
X104955900Y-97087140D01*
X104955901Y-103279776D01*
X104851100Y-103269454D01*
X104642598Y-103289990D01*
X104442109Y-103350807D01*
X104257337Y-103449570D01*
X104095382Y-103582482D01*
X103962470Y-103744437D01*
X103863707Y-103929210D01*
X103802890Y-104129699D01*
X103787500Y-104285954D01*
X103787500Y-105711247D01*
X103802891Y-105867502D01*
X103863708Y-106067991D01*
X103962471Y-106252763D01*
X104095383Y-106414718D01*
X104257338Y-106547630D01*
X104442110Y-106646393D01*
X104642599Y-106707210D01*
X104851100Y-106727746D01*
X105059602Y-106707210D01*
X105260091Y-106646393D01*
X105444863Y-106547630D01*
X105590901Y-106427781D01*
X105590901Y-108588983D01*
X103017707Y-111162178D01*
X102904863Y-111069570D01*
X102720090Y-110970807D01*
X102519601Y-110909990D01*
X102311100Y-110889454D01*
X102102598Y-110909990D01*
X101902109Y-110970807D01*
X101717337Y-111069570D01*
X101555382Y-111202482D01*
X101422470Y-111364437D01*
X101323707Y-111549210D01*
X101262890Y-111749699D01*
X101247500Y-111905954D01*
X101247500Y-113331247D01*
X101262891Y-113487502D01*
X101323708Y-113687991D01*
X101422471Y-113872763D01*
X101555383Y-114034718D01*
X101717338Y-114167630D01*
X101902110Y-114266393D01*
X102102599Y-114327210D01*
X102311100Y-114347746D01*
X102519602Y-114327210D01*
X102720091Y-114266393D01*
X102904863Y-114167630D01*
X103066818Y-114034718D01*
X103199730Y-113872763D01*
X103298493Y-113687991D01*
X103359310Y-113487502D01*
X103374700Y-113331247D01*
X103374700Y-112304815D01*
X103789023Y-111890492D01*
X103787500Y-111905954D01*
X103787500Y-113331247D01*
X103802891Y-113487502D01*
X103863708Y-113687991D01*
X103962471Y-113872763D01*
X104095383Y-114034718D01*
X104257338Y-114167630D01*
X104442110Y-114266393D01*
X104642599Y-114327210D01*
X104851100Y-114347746D01*
X105059602Y-114327210D01*
X105260091Y-114266393D01*
X105444863Y-114167630D01*
X105606818Y-114034718D01*
X105739730Y-113872763D01*
X105838493Y-113687991D01*
X105899310Y-113487502D01*
X105914700Y-113331247D01*
X105914700Y-111905953D01*
X105899310Y-111749698D01*
X105838493Y-111549209D01*
X105739730Y-111364437D01*
X105606818Y-111202482D01*
X105444863Y-111069570D01*
X105260090Y-110970807D01*
X105059601Y-110909990D01*
X104851100Y-110889454D01*
X104783393Y-110896123D01*
X106477593Y-109201923D01*
X106497822Y-109185322D01*
X106564078Y-109104588D01*
X106613311Y-109012480D01*
X106643628Y-108912537D01*
X106651300Y-108834643D01*
X106651300Y-108834642D01*
X106653865Y-108808600D01*
X106651300Y-108782557D01*
X106651300Y-106427781D01*
X106797338Y-106547630D01*
X106982110Y-106646393D01*
X107182599Y-106707210D01*
X107391100Y-106727746D01*
X107599602Y-106707210D01*
X107800091Y-106646393D01*
X107984863Y-106547630D01*
X108130901Y-106427781D01*
X108130901Y-111128983D01*
X108097707Y-111162178D01*
X107984863Y-111069570D01*
X107800090Y-110970807D01*
X107599601Y-110909990D01*
X107391100Y-110889454D01*
X107182598Y-110909990D01*
X106982109Y-110970807D01*
X106797337Y-111069570D01*
X106635382Y-111202482D01*
X106502470Y-111364437D01*
X106403707Y-111549210D01*
X106342890Y-111749699D01*
X106327500Y-111905954D01*
X106327500Y-113331247D01*
X106342891Y-113487502D01*
X106403708Y-113687991D01*
X106502471Y-113872763D01*
X106635383Y-114034718D01*
X106797338Y-114167630D01*
X106982110Y-114266393D01*
X107182599Y-114327210D01*
X107391100Y-114347746D01*
X107599602Y-114327210D01*
X107800091Y-114266393D01*
X107984863Y-114167630D01*
X108146818Y-114034718D01*
X108279730Y-113872763D01*
X108378493Y-113687991D01*
X108439310Y-113487502D01*
X108454700Y-113331247D01*
X108454700Y-112304816D01*
X108869023Y-111890493D01*
X108867500Y-111905954D01*
X108867500Y-113331247D01*
X108882891Y-113487502D01*
X108943708Y-113687991D01*
X109042471Y-113872763D01*
X109175383Y-114034718D01*
X109337338Y-114167630D01*
X109522110Y-114266393D01*
X109722599Y-114327210D01*
X109931100Y-114347746D01*
X110139602Y-114327210D01*
X110340091Y-114266393D01*
X110524863Y-114167630D01*
X110686818Y-114034718D01*
X110819730Y-113872763D01*
X110918493Y-113687991D01*
X110979310Y-113487502D01*
X110994700Y-113331247D01*
X110994700Y-111905953D01*
X110993177Y-111890492D01*
X111407500Y-112304815D01*
X111407500Y-113331247D01*
X111422891Y-113487502D01*
X111460778Y-113612400D01*
X111428855Y-113612400D01*
X111252813Y-113647417D01*
X111086985Y-113716105D01*
X110937744Y-113815825D01*
X110810825Y-113942744D01*
X110711105Y-114091985D01*
X110642417Y-114257813D01*
X110607400Y-114433855D01*
X110607400Y-114613345D01*
X110619286Y-114673099D01*
X109716723Y-115575662D01*
X109686375Y-115530244D01*
X109559456Y-115403325D01*
X109410215Y-115303605D01*
X109244387Y-115234917D01*
X109068345Y-115199900D01*
X108888855Y-115199900D01*
X108712813Y-115234917D01*
X108546985Y-115303605D01*
X108397744Y-115403325D01*
X108270825Y-115530244D01*
X108171105Y-115679485D01*
X108102417Y-115845313D01*
X108067400Y-116021355D01*
X108067400Y-116200845D01*
X108079286Y-116260598D01*
X106954499Y-117385385D01*
X106949007Y-117378693D01*
X106771581Y-117233085D01*
X106569159Y-117124888D01*
X106349518Y-117058260D01*
X106121100Y-117035763D01*
X105892681Y-117058260D01*
X105673040Y-117124888D01*
X105470618Y-117233085D01*
X105293193Y-117378693D01*
X105147585Y-117556119D01*
X105039388Y-117758541D01*
X104972760Y-117978182D01*
X104955900Y-118149367D01*
X104955900Y-119787834D01*
X104972760Y-119959019D01*
X105039389Y-120178660D01*
X105127445Y-120343400D01*
X104574756Y-120343400D01*
X104662812Y-120178660D01*
X104729440Y-119959019D01*
X104746300Y-119787834D01*
X104746300Y-118149366D01*
X104729440Y-117978181D01*
X104662812Y-117758540D01*
X104554615Y-117556118D01*
X104409007Y-117378693D01*
X104231581Y-117233085D01*
X104029159Y-117124888D01*
X103809518Y-117058260D01*
X103581100Y-117035763D01*
X103352681Y-117058260D01*
X103133040Y-117124888D01*
X102930618Y-117233085D01*
X102753193Y-117378693D01*
X102607585Y-117556119D01*
X102499388Y-117758541D01*
X102432760Y-117978182D01*
X102415900Y-118149367D01*
X102415900Y-119787834D01*
X102432760Y-119959019D01*
X102499389Y-120178660D01*
X102587445Y-120343400D01*
X102034756Y-120343400D01*
X102122812Y-120178660D01*
X102189440Y-119959019D01*
X102206300Y-119787834D01*
X102206300Y-118149366D01*
X102189440Y-117978181D01*
X102122812Y-117758540D01*
X102014615Y-117556118D01*
X101869007Y-117378693D01*
X101691581Y-117233085D01*
X101489159Y-117124888D01*
X101269518Y-117058260D01*
X101041100Y-117035763D01*
X100812681Y-117058260D01*
X100593040Y-117124888D01*
X100390618Y-117233085D01*
X100213193Y-117378693D01*
X100067585Y-117556119D01*
X99959388Y-117758541D01*
X99892760Y-117978182D01*
X99875900Y-118149367D01*
X99875900Y-119787834D01*
X99892760Y-119959019D01*
X99959389Y-120178660D01*
X100047445Y-120343400D01*
X99494756Y-120343400D01*
X99582812Y-120178660D01*
X99649440Y-119959019D01*
X99666300Y-119787834D01*
X99666300Y-118149366D01*
X99649440Y-117978181D01*
X99582812Y-117758540D01*
X99474615Y-117556118D01*
X99329007Y-117378693D01*
X99151581Y-117233085D01*
X98949159Y-117124888D01*
X98729518Y-117058260D01*
X98501100Y-117035763D01*
X98272681Y-117058260D01*
X98053040Y-117124888D01*
X97850618Y-117233085D01*
X97673193Y-117378693D01*
X97527585Y-117556119D01*
X97509301Y-117590326D01*
X97509301Y-111905954D01*
X98707500Y-111905954D01*
X98707500Y-113331247D01*
X98722891Y-113487502D01*
X98783708Y-113687991D01*
X98882471Y-113872763D01*
X99015383Y-114034718D01*
X99177338Y-114167630D01*
X99362110Y-114266393D01*
X99562599Y-114327210D01*
X99771100Y-114347746D01*
X99979602Y-114327210D01*
X100180091Y-114266393D01*
X100364863Y-114167630D01*
X100526818Y-114034718D01*
X100659730Y-113872763D01*
X100758493Y-113687991D01*
X100819310Y-113487502D01*
X100834700Y-113331247D01*
X100834700Y-111905953D01*
X100819310Y-111749698D01*
X100758493Y-111549209D01*
X100659730Y-111364437D01*
X100526818Y-111202482D01*
X100364863Y-111069570D01*
X100180090Y-110970807D01*
X99979601Y-110909990D01*
X99771100Y-110889454D01*
X99562598Y-110909990D01*
X99362109Y-110970807D01*
X99177337Y-111069570D01*
X99015382Y-111202482D01*
X98882470Y-111364437D01*
X98783707Y-111549210D01*
X98722890Y-111749699D01*
X98707500Y-111905954D01*
X97509301Y-111905954D01*
X97509301Y-104285954D01*
X98707500Y-104285954D01*
X98707500Y-105711247D01*
X98722891Y-105867502D01*
X98783708Y-106067991D01*
X98882471Y-106252763D01*
X99015383Y-106414718D01*
X99177338Y-106547630D01*
X99362110Y-106646393D01*
X99562599Y-106707210D01*
X99771100Y-106727746D01*
X99979602Y-106707210D01*
X100180091Y-106646393D01*
X100364863Y-106547630D01*
X100526818Y-106414718D01*
X100659730Y-106252763D01*
X100758493Y-106067991D01*
X100819310Y-105867502D01*
X100834700Y-105711247D01*
X100834700Y-104864420D01*
X101247500Y-104451621D01*
X101247500Y-105711247D01*
X101262891Y-105867502D01*
X101323708Y-106067991D01*
X101422471Y-106252763D01*
X101555383Y-106414718D01*
X101717338Y-106547630D01*
X101902110Y-106646393D01*
X102102599Y-106707210D01*
X102311100Y-106727746D01*
X102519602Y-106707210D01*
X102720091Y-106646393D01*
X102904863Y-106547630D01*
X103066818Y-106414718D01*
X103199730Y-106252763D01*
X103298493Y-106067991D01*
X103359310Y-105867502D01*
X103374700Y-105711247D01*
X103374700Y-104285953D01*
X103359310Y-104129698D01*
X103298493Y-103929209D01*
X103199730Y-103744437D01*
X103066818Y-103582482D01*
X102904863Y-103449570D01*
X102720090Y-103350807D01*
X102519601Y-103289990D01*
X102311100Y-103269454D01*
X102102598Y-103289990D01*
X101902109Y-103350807D01*
X101717337Y-103449570D01*
X101698300Y-103465193D01*
X101698300Y-100758653D01*
X101719105Y-100744752D01*
X101867252Y-100596605D01*
X101983650Y-100422403D01*
X102063826Y-100228841D01*
X102104700Y-100023355D01*
X102104700Y-99813845D01*
X102063826Y-99608359D01*
X101983650Y-99414797D01*
X101867252Y-99240595D01*
X101719105Y-99092448D01*
X101544903Y-98976050D01*
X101351341Y-98895874D01*
X101145855Y-98855000D01*
X100936345Y-98855000D01*
X100730859Y-98895874D01*
X100537297Y-98976050D01*
X100363095Y-99092448D01*
X100214948Y-99240595D01*
X100098550Y-99414797D01*
X100018374Y-99608359D01*
X99977500Y-99813845D01*
X99977500Y-100023355D01*
X100018374Y-100228841D01*
X100098550Y-100422403D01*
X100214948Y-100596605D01*
X100363095Y-100744752D01*
X100383900Y-100758654D01*
X100383901Y-103456378D01*
X100379059Y-103461220D01*
X100364863Y-103449570D01*
X100180090Y-103350807D01*
X99979601Y-103289990D01*
X99771100Y-103269454D01*
X99562598Y-103289990D01*
X99362109Y-103350807D01*
X99177337Y-103449570D01*
X99015382Y-103582482D01*
X98882470Y-103744437D01*
X98783707Y-103929210D01*
X98722890Y-104129699D01*
X98707500Y-104285954D01*
X97509301Y-104285954D01*
X97509301Y-92193845D01*
X99977500Y-92193845D01*
X99977500Y-92403355D01*
X100018374Y-92608841D01*
X100098550Y-92802403D01*
X100214948Y-92976605D01*
X100363095Y-93124752D01*
X100537297Y-93241150D01*
X100730859Y-93321326D01*
X100936345Y-93362200D01*
X101145855Y-93362200D01*
X101351341Y-93321326D01*
X101544903Y-93241150D01*
X101719105Y-93124752D01*
X101867252Y-92976605D01*
X101983650Y-92802403D01*
X102063826Y-92608841D01*
X102104700Y-92403355D01*
X102104700Y-92271516D01*
X107334991Y-92271516D01*
X107355188Y-92530748D01*
X107425570Y-92781058D01*
X107543434Y-93012828D01*
X107573527Y-93057867D01*
X107822317Y-93102027D01*
X108625745Y-92298600D01*
X107822317Y-91495173D01*
X107573527Y-91539333D01*
X107446299Y-91766098D01*
X107365755Y-92013326D01*
X107334991Y-92271516D01*
X102104700Y-92271516D01*
X102104700Y-92193845D01*
X102063826Y-91988359D01*
X101983650Y-91794797D01*
X101867252Y-91620595D01*
X101719105Y-91472448D01*
X101700202Y-91459817D01*
X107857673Y-91459817D01*
X108661100Y-92263245D01*
X109464527Y-91459817D01*
X109420367Y-91211027D01*
X109193602Y-91083799D01*
X108946374Y-91003255D01*
X108688184Y-90972491D01*
X108428952Y-90992688D01*
X108178642Y-91063070D01*
X107946872Y-91180934D01*
X107901833Y-91211027D01*
X107857673Y-91459817D01*
X101700202Y-91459817D01*
X101544903Y-91356050D01*
X101351341Y-91275874D01*
X101145855Y-91235000D01*
X100936345Y-91235000D01*
X100730859Y-91275874D01*
X100537297Y-91356050D01*
X100363095Y-91472448D01*
X100214948Y-91620595D01*
X100098550Y-91794797D01*
X100018374Y-91988359D01*
X99977500Y-92193845D01*
X97509301Y-92193845D01*
X97509301Y-88776801D01*
X199492900Y-88776801D01*
X199492899Y-121230399D01*
X199492899Y-121230399D01*
G37*
X199492899Y-121230399D02*
X172554172Y-121230399D01*
X172604078Y-121169588D01*
X172653311Y-121077480D01*
X172683628Y-120977537D01*
X172691300Y-120899643D01*
X172693865Y-120873600D01*
X172691300Y-120847557D01*
X172691300Y-120768407D01*
X172811582Y-120704115D01*
X172989007Y-120558507D01*
X173134615Y-120381082D01*
X173242812Y-120178660D01*
X173309440Y-119959019D01*
X173326300Y-119787834D01*
X173326300Y-118343616D01*
X173535900Y-118553216D01*
X173535900Y-119787834D01*
X173552760Y-119959019D01*
X173619389Y-120178660D01*
X173727586Y-120381082D01*
X173873194Y-120558507D01*
X174050619Y-120704115D01*
X174253041Y-120812312D01*
X174472682Y-120878940D01*
X174701100Y-120901437D01*
X174929519Y-120878940D01*
X175149160Y-120812312D01*
X175351582Y-120704115D01*
X175529007Y-120558507D01*
X175674615Y-120381082D01*
X175782812Y-120178660D01*
X175849440Y-119959019D01*
X175866300Y-119787834D01*
X175866300Y-118149366D01*
X175849440Y-117978181D01*
X175782812Y-117758540D01*
X175674615Y-117556118D01*
X175529007Y-117378693D01*
X175351581Y-117233085D01*
X175149159Y-117124888D01*
X174929518Y-117058260D01*
X174701100Y-117035763D01*
X174472681Y-117058260D01*
X174253040Y-117124888D01*
X174050618Y-117233085D01*
X173873193Y-117378693D01*
X173867701Y-117385385D01*
X170786300Y-114303985D01*
X170786300Y-113408227D01*
X170906937Y-113507230D01*
X171091709Y-113605993D01*
X171292198Y-113666810D01*
X171448453Y-113682200D01*
X172873747Y-113682200D01*
X173030002Y-113666810D01*
X173230491Y-113605993D01*
X173399001Y-113515922D01*
X174372324Y-114489246D01*
X174392892Y-114514308D01*
X174417953Y-114534875D01*
X174417962Y-114534884D01*
X174417973Y-114534893D01*
X174912382Y-115029302D01*
X174907500Y-115053845D01*
X174907500Y-115263355D01*
X174948374Y-115468841D01*
X175028550Y-115662403D01*
X175144948Y-115836605D01*
X175293095Y-115984752D01*
X175467297Y-116101150D01*
X175660859Y-116181326D01*
X175866345Y-116222200D01*
X176075855Y-116222200D01*
X176281341Y-116181326D01*
X176474903Y-116101150D01*
X176649105Y-115984752D01*
X176797252Y-115836605D01*
X176913650Y-115662403D01*
X176993826Y-115468841D01*
X177034700Y-115263355D01*
X177034700Y-115053845D01*
X176993826Y-114848359D01*
X176913650Y-114654797D01*
X176797252Y-114480595D01*
X176649105Y-114332448D01*
X176474903Y-114216050D01*
X176281341Y-114135874D01*
X176075855Y-114095000D01*
X175866345Y-114095000D01*
X175841802Y-114099882D01*
X175789270Y-114047350D01*
X178615901Y-111220720D01*
X178615900Y-116843984D01*
X178074499Y-117385385D01*
X178069007Y-117378693D01*
X177891581Y-117233085D01*
X177689159Y-117124888D01*
X177469518Y-117058260D01*
X177241100Y-117035763D01*
X177012681Y-117058260D01*
X176793040Y-117124888D01*
X176590618Y-117233085D01*
X176413193Y-117378693D01*
X176267585Y-117556119D01*
X176159388Y-117758541D01*
X176092760Y-117978182D01*
X176075900Y-118149367D01*
X176075900Y-119787834D01*
X176092760Y-119959019D01*
X176159389Y-120178660D01*
X176267586Y-120381082D01*
X176413194Y-120558507D01*
X176590619Y-120704115D01*
X176793041Y-120812312D01*
X177012682Y-120878940D01*
X177241100Y-120901437D01*
X177469519Y-120878940D01*
X177689160Y-120812312D01*
X177891582Y-120704115D01*
X178069007Y-120558507D01*
X178214615Y-120381082D01*
X178322812Y-120178660D01*
X178389440Y-119959019D01*
X178406300Y-119787834D01*
X178406300Y-118553215D01*
X178615900Y-118343616D01*
X178615900Y-119787834D01*
X178632760Y-119959019D01*
X178699389Y-120178660D01*
X178807586Y-120381082D01*
X178953194Y-120558507D01*
X179130619Y-120704115D01*
X179333041Y-120812312D01*
X179552682Y-120878940D01*
X179781100Y-120901437D01*
X180009519Y-120878940D01*
X180229160Y-120812312D01*
X180431582Y-120704115D01*
X180609007Y-120558507D01*
X180754615Y-120381082D01*
X180862812Y-120178660D01*
X180929440Y-119959019D01*
X180946300Y-119787834D01*
X180946300Y-118553216D01*
X181090093Y-118409423D01*
X181110322Y-118392822D01*
X181155900Y-118337284D01*
X181155900Y-119787834D01*
X181172760Y-119959019D01*
X181239389Y-120178660D01*
X181347586Y-120381082D01*
X181493194Y-120558507D01*
X181670619Y-120704115D01*
X181873041Y-120812312D01*
X182092682Y-120878940D01*
X182321100Y-120901437D01*
X182549519Y-120878940D01*
X182769160Y-120812312D01*
X182971582Y-120704115D01*
X183149007Y-120558507D01*
X183294615Y-120381082D01*
X183402812Y-120178660D01*
X183469440Y-119959019D01*
X183486300Y-119787834D01*
X183486300Y-118149367D01*
X183695900Y-118149367D01*
X183695900Y-119787834D01*
X183712760Y-119959019D01*
X183779389Y-120178660D01*
X183887586Y-120381082D01*
X184033194Y-120558507D01*
X184210619Y-120704115D01*
X184413041Y-120812312D01*
X184632682Y-120878940D01*
X184861100Y-120901437D01*
X185089519Y-120878940D01*
X185309160Y-120812312D01*
X185511582Y-120704115D01*
X185689007Y-120558507D01*
X185834615Y-120381082D01*
X185942812Y-120178660D01*
X186009440Y-119959019D01*
X186026300Y-119787834D01*
X186026300Y-118149367D01*
X186235900Y-118149367D01*
X186235900Y-119787834D01*
X186252760Y-119959019D01*
X186319389Y-120178660D01*
X186427586Y-120381082D01*
X186573194Y-120558507D01*
X186750619Y-120704115D01*
X186953041Y-120812312D01*
X187172682Y-120878940D01*
X187401100Y-120901437D01*
X187629519Y-120878940D01*
X187849160Y-120812312D01*
X188051582Y-120704115D01*
X188229007Y-120558507D01*
X188374615Y-120381082D01*
X188482812Y-120178660D01*
X188549440Y-119959019D01*
X188566300Y-119787834D01*
X188566300Y-118149367D01*
X188775900Y-118149367D01*
X188775900Y-119787834D01*
X188792760Y-119959019D01*
X188859389Y-120178660D01*
X188967586Y-120381082D01*
X189113194Y-120558507D01*
X189290619Y-120704115D01*
X189493041Y-120812312D01*
X189712682Y-120878940D01*
X189941100Y-120901437D01*
X190169519Y-120878940D01*
X190389160Y-120812312D01*
X190591582Y-120704115D01*
X190769007Y-120558507D01*
X190914615Y-120381082D01*
X191022812Y-120178660D01*
X191089440Y-119959019D01*
X191106300Y-119787834D01*
X191106300Y-118149367D01*
X191315900Y-118149367D01*
X191315900Y-119787834D01*
X191332760Y-119959019D01*
X191399389Y-120178660D01*
X191507586Y-120381082D01*
X191653194Y-120558507D01*
X191830619Y-120704115D01*
X192033041Y-120812312D01*
X192252682Y-120878940D01*
X192481100Y-120901437D01*
X192709519Y-120878940D01*
X192929160Y-120812312D01*
X193131582Y-120704115D01*
X193309007Y-120558507D01*
X193454615Y-120381082D01*
X193562812Y-120178660D01*
X193629440Y-119959019D01*
X193646300Y-119787834D01*
X193646300Y-118149367D01*
X193855900Y-118149367D01*
X193855900Y-119787834D01*
X193872760Y-119959019D01*
X193939389Y-120178660D01*
X194047586Y-120381082D01*
X194193194Y-120558507D01*
X194370619Y-120704115D01*
X194573041Y-120812312D01*
X194792682Y-120878940D01*
X195021100Y-120901437D01*
X195249519Y-120878940D01*
X195469160Y-120812312D01*
X195671582Y-120704115D01*
X195849007Y-120558507D01*
X195994615Y-120381082D01*
X196102812Y-120178660D01*
X196169440Y-119959019D01*
X196186300Y-119787834D01*
X196186300Y-118149367D01*
X196395900Y-118149367D01*
X196395900Y-119787834D01*
X196412760Y-119959019D01*
X196479389Y-120178660D01*
X196587586Y-120381082D01*
X196733194Y-120558507D01*
X196910619Y-120704115D01*
X197113041Y-120812312D01*
X197332682Y-120878940D01*
X197561100Y-120901437D01*
X197789519Y-120878940D01*
X198009160Y-120812312D01*
X198211582Y-120704115D01*
X198389007Y-120558507D01*
X198534615Y-120381082D01*
X198642812Y-120178660D01*
X198709440Y-119959019D01*
X198726300Y-119787834D01*
X198726300Y-118149366D01*
X198709440Y-117978181D01*
X198642812Y-117758540D01*
X198534615Y-117556118D01*
X198389007Y-117378693D01*
X198211581Y-117233085D01*
X198009159Y-117124888D01*
X197789518Y-117058260D01*
X197561100Y-117035763D01*
X197332681Y-117058260D01*
X197113040Y-117124888D01*
X196910618Y-117233085D01*
X196733193Y-117378693D01*
X196587585Y-117556119D01*
X196479388Y-117758541D01*
X196412760Y-117978182D01*
X196395900Y-118149367D01*
X196186300Y-118149367D01*
X196186300Y-118149366D01*
X196169440Y-117978181D01*
X196102812Y-117758540D01*
X195994615Y-117556118D01*
X195849007Y-117378693D01*
X195671581Y-117233085D01*
X195469159Y-117124888D01*
X195249518Y-117058260D01*
X195021100Y-117035763D01*
X194792681Y-117058260D01*
X194573040Y-117124888D01*
X194370618Y-117233085D01*
X194193193Y-117378693D01*
X194047585Y-117556119D01*
X193939388Y-117758541D01*
X193872760Y-117978182D01*
X193855900Y-118149367D01*
X193646300Y-118149367D01*
X193646300Y-118149366D01*
X193629440Y-117978181D01*
X193562812Y-117758540D01*
X193454615Y-117556118D01*
X193309007Y-117378693D01*
X193131581Y-117233085D01*
X192929159Y-117124888D01*
X192709518Y-117058260D01*
X192481100Y-117035763D01*
X192252681Y-117058260D01*
X192033040Y-117124888D01*
X191830618Y-117233085D01*
X191653193Y-117378693D01*
X191507585Y-117556119D01*
X191399388Y-117758541D01*
X191332760Y-117978182D01*
X191315900Y-118149367D01*
X191106300Y-118149367D01*
X191106300Y-118149366D01*
X191089440Y-117978181D01*
X191022812Y-117758540D01*
X190914615Y-117556118D01*
X190769007Y-117378693D01*
X190591581Y-117233085D01*
X190389159Y-117124888D01*
X190169518Y-117058260D01*
X189941100Y-117035763D01*
X189712681Y-117058260D01*
X189493040Y-117124888D01*
X189290618Y-117233085D01*
X189113193Y-117378693D01*
X188967585Y-117556119D01*
X188859388Y-117758541D01*
X188792760Y-117978182D01*
X188775900Y-118149367D01*
X188566300Y-118149367D01*
X188566300Y-118149366D01*
X188549440Y-117978181D01*
X188482812Y-117758540D01*
X188374615Y-117556118D01*
X188229007Y-117378693D01*
X188051581Y-117233085D01*
X187849159Y-117124888D01*
X187629518Y-117058260D01*
X187401100Y-117035763D01*
X187172681Y-117058260D01*
X186953040Y-117124888D01*
X186750618Y-117233085D01*
X186573193Y-117378693D01*
X186427585Y-117556119D01*
X186319388Y-117758541D01*
X186252760Y-117978182D01*
X186235900Y-118149367D01*
X186026300Y-118149367D01*
X186026300Y-118149366D01*
X186009440Y-117978181D01*
X185942812Y-117758540D01*
X185834615Y-117556118D01*
X185689007Y-117378693D01*
X185511581Y-117233085D01*
X185309159Y-117124888D01*
X185089518Y-117058260D01*
X184861100Y-117035763D01*
X184632681Y-117058260D01*
X184413040Y-117124888D01*
X184210618Y-117233085D01*
X184033193Y-117378693D01*
X183887585Y-117556119D01*
X183779388Y-117758541D01*
X183712760Y-117978182D01*
X183695900Y-118149367D01*
X183486300Y-118149367D01*
X183486300Y-118149366D01*
X183469440Y-117978181D01*
X183402812Y-117758540D01*
X183294615Y-117556118D01*
X183149007Y-117378693D01*
X182971581Y-117233085D01*
X182769159Y-117124888D01*
X182549518Y-117058260D01*
X182321100Y-117035763D01*
X182092681Y-117058260D01*
X181873040Y-117124888D01*
X181670618Y-117233085D01*
X181493193Y-117378693D01*
X181347585Y-117556119D01*
X181263800Y-117712869D01*
X181263800Y-115043838D01*
X183695900Y-115043838D01*
X183695900Y-115273362D01*
X183740678Y-115498476D01*
X183828513Y-115710529D01*
X183956030Y-115901372D01*
X184118328Y-116063670D01*
X184309171Y-116191187D01*
X184521224Y-116279022D01*
X184746338Y-116323800D01*
X184975862Y-116323800D01*
X185200976Y-116279022D01*
X185413029Y-116191187D01*
X185603872Y-116063670D01*
X185766170Y-115901372D01*
X185893687Y-115710529D01*
X185981522Y-115498476D01*
X186026300Y-115273362D01*
X186026300Y-115043838D01*
X186235900Y-115043838D01*
X186235900Y-115273362D01*
X186280678Y-115498476D01*
X186368513Y-115710529D01*
X186496030Y-115901372D01*
X186658328Y-116063670D01*
X186849171Y-116191187D01*
X187061224Y-116279022D01*
X187286338Y-116323800D01*
X187515862Y-116323800D01*
X187740976Y-116279022D01*
X187953029Y-116191187D01*
X188143872Y-116063670D01*
X188306170Y-115901372D01*
X188433687Y-115710529D01*
X188521522Y-115498476D01*
X188566300Y-115273362D01*
X188566300Y-115043838D01*
X188775900Y-115043838D01*
X188775900Y-115273362D01*
X188820678Y-115498476D01*
X188908513Y-115710529D01*
X189036030Y-115901372D01*
X189198328Y-116063670D01*
X189389171Y-116191187D01*
X189601224Y-116279022D01*
X189826338Y-116323800D01*
X190055862Y-116323800D01*
X190280976Y-116279022D01*
X190493029Y-116191187D01*
X190683872Y-116063670D01*
X190846170Y-115901372D01*
X190973687Y-115710529D01*
X191061522Y-115498476D01*
X191106300Y-115273362D01*
X191106300Y-115043838D01*
X191315900Y-115043838D01*
X191315900Y-115273362D01*
X191360678Y-115498476D01*
X191448513Y-115710529D01*
X191576030Y-115901372D01*
X191738328Y-116063670D01*
X191929171Y-116191187D01*
X192141224Y-116279022D01*
X192366338Y-116323800D01*
X192595862Y-116323800D01*
X192820976Y-116279022D01*
X193033029Y-116191187D01*
X193223872Y-116063670D01*
X193386170Y-115901372D01*
X193513687Y-115710529D01*
X193601522Y-115498476D01*
X193646300Y-115273362D01*
X193646300Y-115043838D01*
X193855900Y-115043838D01*
X193855900Y-115273362D01*
X193900678Y-115498476D01*
X193988513Y-115710529D01*
X194116030Y-115901372D01*
X194278328Y-116063670D01*
X194469171Y-116191187D01*
X194681224Y-116279022D01*
X194906338Y-116323800D01*
X195135862Y-116323800D01*
X195360976Y-116279022D01*
X195573029Y-116191187D01*
X195763872Y-116063670D01*
X195926170Y-115901372D01*
X196053687Y-115710529D01*
X196141522Y-115498476D01*
X196186300Y-115273362D01*
X196186300Y-115043838D01*
X196395900Y-115043838D01*
X196395900Y-115273362D01*
X196440678Y-115498476D01*
X196528513Y-115710529D01*
X196656030Y-115901372D01*
X196818328Y-116063670D01*
X197009171Y-116191187D01*
X197221224Y-116279022D01*
X197446338Y-116323800D01*
X197675862Y-116323800D01*
X197900976Y-116279022D01*
X198113029Y-116191187D01*
X198303872Y-116063670D01*
X198466170Y-115901372D01*
X198593687Y-115710529D01*
X198681522Y-115498476D01*
X198726300Y-115273362D01*
X198726300Y-115043838D01*
X198681522Y-114818724D01*
X198593687Y-114606671D01*
X198466170Y-114415828D01*
X198303872Y-114253530D01*
X198113029Y-114126013D01*
X197900976Y-114038178D01*
X197675862Y-113993400D01*
X197446338Y-113993400D01*
X197221224Y-114038178D01*
X197009171Y-114126013D01*
X196818328Y-114253530D01*
X196656030Y-114415828D01*
X196528513Y-114606671D01*
X196440678Y-114818724D01*
X196395900Y-115043838D01*
X196186300Y-115043838D01*
X196141522Y-114818724D01*
X196053687Y-114606671D01*
X195926170Y-114415828D01*
X195763872Y-114253530D01*
X195573029Y-114126013D01*
X195360976Y-114038178D01*
X195135862Y-113993400D01*
X194906338Y-113993400D01*
X194681224Y-114038178D01*
X194469171Y-114126013D01*
X194278328Y-114253530D01*
X194116030Y-114415828D01*
X193988513Y-114606671D01*
X193900678Y-114818724D01*
X193855900Y-115043838D01*
X193646300Y-115043838D01*
X193601522Y-114818724D01*
X193513687Y-114606671D01*
X193386170Y-114415828D01*
X193223872Y-114253530D01*
X193033029Y-114126013D01*
X192820976Y-114038178D01*
X192595862Y-113993400D01*
X192366338Y-113993400D01*
X192141224Y-114038178D01*
X191929171Y-114126013D01*
X191738328Y-114253530D01*
X191576030Y-114415828D01*
X191448513Y-114606671D01*
X191360678Y-114818724D01*
X191315900Y-115043838D01*
X191106300Y-115043838D01*
X191061522Y-114818724D01*
X190973687Y-114606671D01*
X190846170Y-114415828D01*
X190683872Y-114253530D01*
X190493029Y-114126013D01*
X190280976Y-114038178D01*
X190055862Y-113993400D01*
X189826338Y-113993400D01*
X189601224Y-114038178D01*
X189389171Y-114126013D01*
X189198328Y-114253530D01*
X189036030Y-114415828D01*
X188908513Y-114606671D01*
X188820678Y-114818724D01*
X188775900Y-115043838D01*
X188566300Y-115043838D01*
X188521522Y-114818724D01*
X188433687Y-114606671D01*
X188306170Y-114415828D01*
X188143872Y-114253530D01*
X187953029Y-114126013D01*
X187740976Y-114038178D01*
X187515862Y-113993400D01*
X187286338Y-113993400D01*
X187061224Y-114038178D01*
X186849171Y-114126013D01*
X186658328Y-114253530D01*
X186496030Y-114415828D01*
X186368513Y-114606671D01*
X186280678Y-114818724D01*
X186235900Y-115043838D01*
X186026300Y-115043838D01*
X185981522Y-114818724D01*
X185893687Y-114606671D01*
X185766170Y-114415828D01*
X185603872Y-114253530D01*
X185413029Y-114126013D01*
X185200976Y-114038178D01*
X184975862Y-113993400D01*
X184746338Y-113993400D01*
X184521224Y-114038178D01*
X184309171Y-114126013D01*
X184118328Y-114253530D01*
X183956030Y-114415828D01*
X183828513Y-114606671D01*
X183740678Y-114818724D01*
X183695900Y-115043838D01*
X181263800Y-115043838D01*
X181263800Y-99627139D01*
X181266365Y-99601099D01*
X181263800Y-99575057D01*
X181256128Y-99497163D01*
X181225811Y-99397220D01*
X181176578Y-99305112D01*
X181110322Y-99224378D01*
X181090091Y-99207775D01*
X180680414Y-98798099D01*
X180692300Y-98738345D01*
X180692300Y-98607300D01*
X180823345Y-98607300D01*
X180883099Y-98595414D01*
X184330901Y-102043217D01*
X184330900Y-111577013D01*
X184309171Y-111586013D01*
X184118328Y-111713530D01*
X183956030Y-111875828D01*
X183828513Y-112066671D01*
X183740678Y-112278724D01*
X183695900Y-112503838D01*
X183695900Y-112733362D01*
X183740678Y-112958476D01*
X183828513Y-113170529D01*
X183956030Y-113361372D01*
X184118328Y-113523670D01*
X184309171Y-113651187D01*
X184521224Y-113739022D01*
X184746338Y-113783800D01*
X184975862Y-113783800D01*
X185200976Y-113739022D01*
X185413029Y-113651187D01*
X185603872Y-113523670D01*
X185766170Y-113361372D01*
X185893687Y-113170529D01*
X185981522Y-112958476D01*
X186026300Y-112733362D01*
X186026300Y-112503838D01*
X186235900Y-112503838D01*
X186235900Y-112733362D01*
X186280678Y-112958476D01*
X186368513Y-113170529D01*
X186496030Y-113361372D01*
X186658328Y-113523670D01*
X186849171Y-113651187D01*
X187061224Y-113739022D01*
X187286338Y-113783800D01*
X187515862Y-113783800D01*
X187740976Y-113739022D01*
X187953029Y-113651187D01*
X188143872Y-113523670D01*
X188306170Y-113361372D01*
X188433687Y-113170529D01*
X188521522Y-112958476D01*
X188566300Y-112733362D01*
X188566300Y-112503838D01*
X188775900Y-112503838D01*
X188775900Y-112733362D01*
X188820678Y-112958476D01*
X188908513Y-113170529D01*
X189036030Y-113361372D01*
X189198328Y-113523670D01*
X189389171Y-113651187D01*
X189601224Y-113739022D01*
X189826338Y-113783800D01*
X190055862Y-113783800D01*
X190280976Y-113739022D01*
X190493029Y-113651187D01*
X190683872Y-113523670D01*
X190846170Y-113361372D01*
X190973687Y-113170529D01*
X191061522Y-112958476D01*
X191106300Y-112733362D01*
X191106300Y-112503838D01*
X191315900Y-112503838D01*
X191315900Y-112733362D01*
X191360678Y-112958476D01*
X191448513Y-113170529D01*
X191576030Y-113361372D01*
X191738328Y-113523670D01*
X191929171Y-113651187D01*
X192141224Y-113739022D01*
X192366338Y-113783800D01*
X192595862Y-113783800D01*
X192820976Y-113739022D01*
X193033029Y-113651187D01*
X193223872Y-113523670D01*
X193386170Y-113361372D01*
X193513687Y-113170529D01*
X193601522Y-112958476D01*
X193646300Y-112733362D01*
X193646300Y-112503838D01*
X193855900Y-112503838D01*
X193855900Y-112733362D01*
X193900678Y-112958476D01*
X193988513Y-113170529D01*
X194116030Y-113361372D01*
X194278328Y-113523670D01*
X194469171Y-113651187D01*
X194681224Y-113739022D01*
X194906338Y-113783800D01*
X195135862Y-113783800D01*
X195360976Y-113739022D01*
X195573029Y-113651187D01*
X195763872Y-113523670D01*
X195926170Y-113361372D01*
X196053687Y-113170529D01*
X196141522Y-112958476D01*
X196186300Y-112733362D01*
X196186300Y-112503838D01*
X196141522Y-112278724D01*
X196053687Y-112066671D01*
X195926170Y-111875828D01*
X195763872Y-111713530D01*
X195573029Y-111586013D01*
X195360976Y-111498178D01*
X195135862Y-111453400D01*
X194906338Y-111453400D01*
X194681224Y-111498178D01*
X194469171Y-111586013D01*
X194278328Y-111713530D01*
X194116030Y-111875828D01*
X193988513Y-112066671D01*
X193900678Y-112278724D01*
X193855900Y-112503838D01*
X193646300Y-112503838D01*
X193601522Y-112278724D01*
X193513687Y-112066671D01*
X193386170Y-111875828D01*
X193223872Y-111713530D01*
X193033029Y-111586013D01*
X192820976Y-111498178D01*
X192595862Y-111453400D01*
X192366338Y-111453400D01*
X192141224Y-111498178D01*
X191929171Y-111586013D01*
X191738328Y-111713530D01*
X191576030Y-111875828D01*
X191448513Y-112066671D01*
X191360678Y-112278724D01*
X191315900Y-112503838D01*
X191106300Y-112503838D01*
X191061522Y-112278724D01*
X190973687Y-112066671D01*
X190846170Y-111875828D01*
X190683872Y-111713530D01*
X190493029Y-111586013D01*
X190280976Y-111498178D01*
X190055862Y-111453400D01*
X189826338Y-111453400D01*
X189601224Y-111498178D01*
X189389171Y-111586013D01*
X189198328Y-111713530D01*
X189036030Y-111875828D01*
X188908513Y-112066671D01*
X188820678Y-112278724D01*
X188775900Y-112503838D01*
X188566300Y-112503838D01*
X188521522Y-112278724D01*
X188433687Y-112066671D01*
X188306170Y-111875828D01*
X188143872Y-111713530D01*
X187953029Y-111586013D01*
X187740976Y-111498178D01*
X187515862Y-111453400D01*
X187286338Y-111453400D01*
X187061224Y-111498178D01*
X186849171Y-111586013D01*
X186658328Y-111713530D01*
X186496030Y-111875828D01*
X186368513Y-112066671D01*
X186280678Y-112278724D01*
X186235900Y-112503838D01*
X186026300Y-112503838D01*
X185981522Y-112278724D01*
X185893687Y-112066671D01*
X185766170Y-111875828D01*
X185603872Y-111713530D01*
X185413029Y-111586013D01*
X185391300Y-111577013D01*
X185391300Y-101849639D01*
X185393865Y-101823599D01*
X185391300Y-101797557D01*
X185383628Y-101719663D01*
X185353311Y-101619720D01*
X185304078Y-101527612D01*
X185237822Y-101446878D01*
X185217591Y-101430275D01*
X181632914Y-97845599D01*
X181644800Y-97785845D01*
X181644800Y-97654800D01*
X181775845Y-97654800D01*
X181835599Y-97642914D01*
X196449679Y-112256995D01*
X196440678Y-112278724D01*
X196395900Y-112503838D01*
X196395900Y-112733362D01*
X196440678Y-112958476D01*
X196528513Y-113170529D01*
X196656030Y-113361372D01*
X196818328Y-113523670D01*
X197009171Y-113651187D01*
X197221224Y-113739022D01*
X197446338Y-113783800D01*
X197675862Y-113783800D01*
X197900976Y-113739022D01*
X198113029Y-113651187D01*
X198303872Y-113523670D01*
X198466170Y-113361372D01*
X198593687Y-113170529D01*
X198681522Y-112958476D01*
X198726300Y-112733362D01*
X198726300Y-112503838D01*
X198681522Y-112278724D01*
X198593687Y-112066671D01*
X198466170Y-111875828D01*
X198303872Y-111713530D01*
X198113029Y-111586013D01*
X197900976Y-111498178D01*
X197675862Y-111453400D01*
X197446338Y-111453400D01*
X197221224Y-111498178D01*
X197199495Y-111507179D01*
X182585414Y-96893099D01*
X182597300Y-96833345D01*
X182597300Y-96653855D01*
X182562283Y-96477813D01*
X182493595Y-96311985D01*
X182393875Y-96162744D01*
X182266956Y-96035825D01*
X182117715Y-95936105D01*
X181951887Y-95867417D01*
X181775845Y-95832400D01*
X181596355Y-95832400D01*
X181420313Y-95867417D01*
X181254485Y-95936105D01*
X181105244Y-96035825D01*
X180978325Y-96162744D01*
X180878605Y-96311985D01*
X180809917Y-96477813D01*
X180774900Y-96653855D01*
X180774900Y-96784900D01*
X180643855Y-96784900D01*
X180467813Y-96819917D01*
X180301985Y-96888605D01*
X180152744Y-96988325D01*
X180025825Y-97115244D01*
X179926105Y-97264485D01*
X179857417Y-97430313D01*
X179822400Y-97606355D01*
X179822400Y-97737400D01*
X179691355Y-97737400D01*
X179515313Y-97772417D01*
X179349485Y-97841105D01*
X179200244Y-97940825D01*
X179168300Y-97972769D01*
X179168300Y-94028602D01*
X179339007Y-93888507D01*
X179484615Y-93711082D01*
X179592812Y-93508660D01*
X179659440Y-93289019D01*
X179676300Y-93117834D01*
X179676300Y-91479367D01*
X179885900Y-91479367D01*
X179885900Y-93117834D01*
X179902760Y-93289019D01*
X179969389Y-93508660D01*
X180077586Y-93711082D01*
X180223194Y-93888507D01*
X180400619Y-94034115D01*
X180603041Y-94142312D01*
X180822682Y-94208940D01*
X181051100Y-94231437D01*
X181279519Y-94208940D01*
X181499160Y-94142312D01*
X181701582Y-94034115D01*
X181879007Y-93888507D01*
X182024615Y-93711082D01*
X182132812Y-93508660D01*
X182194895Y-93304000D01*
X182201693Y-93362460D01*
X182287280Y-93627720D01*
X182422972Y-93871186D01*
X182603555Y-94083501D01*
X182822088Y-94256507D01*
X183070174Y-94383555D01*
X183338279Y-94459762D01*
X183344055Y-94460570D01*
X183566100Y-94317051D01*
X183566100Y-92323600D01*
X183616100Y-92323600D01*
X183616100Y-94317051D01*
X183838145Y-94460570D01*
X183843921Y-94459762D01*
X184112026Y-94383555D01*
X184360112Y-94256507D01*
X184578645Y-94083501D01*
X184759228Y-93871186D01*
X184894920Y-93627720D01*
X184980507Y-93362460D01*
X185012700Y-93085600D01*
X185012700Y-92495450D01*
X187523000Y-92495450D01*
X187523000Y-94590950D01*
X187530785Y-94669991D01*
X187553840Y-94745994D01*
X187591280Y-94816039D01*
X187641666Y-94877434D01*
X187703061Y-94927820D01*
X187773106Y-94965260D01*
X187849109Y-94988315D01*
X187928150Y-94996100D01*
X190023650Y-94996100D01*
X190102691Y-94988315D01*
X190178694Y-94965260D01*
X190248739Y-94927820D01*
X190310134Y-94877434D01*
X190360520Y-94816039D01*
X190397960Y-94745994D01*
X190421015Y-94669991D01*
X190428800Y-94590950D01*
X190428800Y-92495450D01*
X190421015Y-92416409D01*
X190397960Y-92340406D01*
X190360520Y-92270361D01*
X190320133Y-92221150D01*
X190995200Y-92221150D01*
X191074241Y-92213365D01*
X191150244Y-92190310D01*
X191220289Y-92152870D01*
X191281684Y-92102484D01*
X191332070Y-92041089D01*
X191369510Y-91971044D01*
X191392565Y-91895041D01*
X191400350Y-91816000D01*
X193304208Y-91816000D01*
X193316943Y-91945304D01*
X193354660Y-92069640D01*
X193415909Y-92184228D01*
X193498335Y-92284665D01*
X193598772Y-92367091D01*
X193713360Y-92428340D01*
X193837696Y-92466057D01*
X193967000Y-92478792D01*
X194535353Y-92475621D01*
X194533400Y-92495450D01*
X194533400Y-94590950D01*
X194541185Y-94669991D01*
X194564240Y-94745994D01*
X194601680Y-94816039D01*
X194652066Y-94877434D01*
X194713461Y-94927820D01*
X194783506Y-94965260D01*
X194859509Y-94988315D01*
X194938550Y-94996100D01*
X197034050Y-94996100D01*
X197113091Y-94988315D01*
X197189094Y-94965260D01*
X197259139Y-94927820D01*
X197320534Y-94877434D01*
X197370920Y-94816039D01*
X197408360Y-94745994D01*
X197431415Y-94669991D01*
X197439200Y-94590950D01*
X197439200Y-92495450D01*
X197431415Y-92416409D01*
X197408360Y-92340406D01*
X197370920Y-92270361D01*
X197320534Y-92208966D01*
X197259139Y-92158580D01*
X197189094Y-92121140D01*
X197113091Y-92098085D01*
X197034050Y-92090300D01*
X196092297Y-92090300D01*
X196103340Y-92069640D01*
X196141057Y-91945304D01*
X196153792Y-91816000D01*
X196150600Y-91243900D01*
X195985700Y-91079000D01*
X194754000Y-91079000D01*
X194754000Y-91099000D01*
X194704000Y-91099000D01*
X194704000Y-91079000D01*
X193472300Y-91079000D01*
X193307400Y-91243900D01*
X193304208Y-91816000D01*
X191400350Y-91816000D01*
X191400350Y-90292000D01*
X193304208Y-90292000D01*
X193307400Y-90864100D01*
X193472300Y-91029000D01*
X194704000Y-91029000D01*
X194704000Y-89797300D01*
X194754000Y-89797300D01*
X194754000Y-91029000D01*
X195985700Y-91029000D01*
X196150600Y-90864100D01*
X196153792Y-90292000D01*
X196141057Y-90162696D01*
X196103340Y-90038360D01*
X196042091Y-89923772D01*
X195959665Y-89823335D01*
X195859228Y-89740909D01*
X195744640Y-89679660D01*
X195620304Y-89641943D01*
X195491000Y-89629208D01*
X194918900Y-89632400D01*
X194754000Y-89797300D01*
X194704000Y-89797300D01*
X194539100Y-89632400D01*
X193967000Y-89629208D01*
X193837696Y-89641943D01*
X193713360Y-89679660D01*
X193598772Y-89740909D01*
X193498335Y-89823335D01*
X193415909Y-89923772D01*
X193354660Y-90038360D01*
X193316943Y-90162696D01*
X193304208Y-90292000D01*
X191400350Y-90292000D01*
X191392565Y-90212959D01*
X191369510Y-90136956D01*
X191332070Y-90066911D01*
X191281684Y-90005516D01*
X191220289Y-89955130D01*
X191150244Y-89917690D01*
X191074241Y-89894635D01*
X190995200Y-89886850D01*
X189471200Y-89886850D01*
X189392159Y-89894635D01*
X189316156Y-89917690D01*
X189246111Y-89955130D01*
X189184716Y-90005516D01*
X189134330Y-90066911D01*
X189096890Y-90136956D01*
X189073835Y-90212959D01*
X189066050Y-90292000D01*
X189066050Y-91816000D01*
X189073835Y-91895041D01*
X189096890Y-91971044D01*
X189134330Y-92041089D01*
X189174717Y-92090300D01*
X187928150Y-92090300D01*
X187849109Y-92098085D01*
X187773106Y-92121140D01*
X187703061Y-92158580D01*
X187641666Y-92208966D01*
X187591280Y-92270361D01*
X187553840Y-92340406D01*
X187530785Y-92416409D01*
X187523000Y-92495450D01*
X185012700Y-92495450D01*
X185012700Y-92323600D01*
X183616100Y-92323600D01*
X183566100Y-92323600D01*
X183546100Y-92323600D01*
X183546100Y-92273600D01*
X183566100Y-92273600D01*
X183566100Y-90280149D01*
X183616100Y-90280149D01*
X183616100Y-92273600D01*
X185012700Y-92273600D01*
X185012700Y-91511600D01*
X184980507Y-91234740D01*
X184894920Y-90969480D01*
X184759228Y-90726014D01*
X184578645Y-90513699D01*
X184360112Y-90340693D01*
X184112026Y-90213645D01*
X183843921Y-90137438D01*
X183838145Y-90136630D01*
X183616100Y-90280149D01*
X183566100Y-90280149D01*
X183344055Y-90136630D01*
X183338279Y-90137438D01*
X183070174Y-90213645D01*
X182822088Y-90340693D01*
X182603555Y-90513699D01*
X182422972Y-90726014D01*
X182287280Y-90969480D01*
X182201693Y-91234740D01*
X182194895Y-91293200D01*
X182132812Y-91088540D01*
X182024615Y-90886118D01*
X181879007Y-90708693D01*
X181701581Y-90563085D01*
X181499159Y-90454888D01*
X181279518Y-90388260D01*
X181051100Y-90365763D01*
X180822681Y-90388260D01*
X180603040Y-90454888D01*
X180400618Y-90563085D01*
X180223193Y-90708693D01*
X180077585Y-90886119D01*
X179969388Y-91088541D01*
X179902760Y-91308182D01*
X179885900Y-91479367D01*
X179676300Y-91479367D01*
X179676300Y-91479366D01*
X179659440Y-91308181D01*
X179592812Y-91088540D01*
X179484615Y-90886118D01*
X179339007Y-90708693D01*
X179161581Y-90563085D01*
X178959159Y-90454888D01*
X178739518Y-90388260D01*
X178511100Y-90365763D01*
X178282681Y-90388260D01*
X178063040Y-90454888D01*
X177860618Y-90563085D01*
X177683193Y-90708693D01*
X177537585Y-90886119D01*
X177429388Y-91088541D01*
X177362760Y-91308182D01*
X177345900Y-91479367D01*
X177345900Y-93117834D01*
X177362760Y-93289019D01*
X177429389Y-93508660D01*
X177537586Y-93711082D01*
X177683194Y-93888507D01*
X177853900Y-94028601D01*
X177853901Y-110123878D01*
X175612300Y-112365480D01*
X175612300Y-112211355D01*
X175577283Y-112035313D01*
X175508595Y-111869485D01*
X175408875Y-111720244D01*
X175281956Y-111593325D01*
X175231300Y-111559478D01*
X175231300Y-110104643D01*
X175233865Y-110078600D01*
X175230025Y-110039607D01*
X175223628Y-109974663D01*
X175193311Y-109874720D01*
X175144078Y-109782612D01*
X175077822Y-109701878D01*
X174997088Y-109635622D01*
X174904980Y-109586389D01*
X174805037Y-109556072D01*
X174701100Y-109545835D01*
X174675058Y-109548400D01*
X173744105Y-109548400D01*
X173710130Y-109484837D01*
X173577218Y-109322882D01*
X173449961Y-109218445D01*
X173490322Y-109185322D01*
X173506929Y-109165086D01*
X174422593Y-108249423D01*
X174442822Y-108232822D01*
X174509078Y-108152088D01*
X174558311Y-108059980D01*
X174588628Y-107960037D01*
X174596300Y-107882143D01*
X174596300Y-107882141D01*
X174598865Y-107856101D01*
X174596300Y-107830057D01*
X174596300Y-106294643D01*
X174598865Y-106268600D01*
X174588628Y-106164663D01*
X174558311Y-106064720D01*
X174509078Y-105972612D01*
X174442822Y-105891878D01*
X174362088Y-105825622D01*
X174269980Y-105776389D01*
X174170037Y-105746072D01*
X174092143Y-105738400D01*
X174066100Y-105735835D01*
X174040058Y-105738400D01*
X173590281Y-105738400D01*
X173710130Y-105592363D01*
X173808893Y-105407591D01*
X173869710Y-105207102D01*
X173890246Y-104998600D01*
X173869710Y-104790098D01*
X173808893Y-104589609D01*
X173710130Y-104404837D01*
X173577218Y-104242882D01*
X173415263Y-104109970D01*
X173230491Y-104011207D01*
X173030002Y-103950390D01*
X172873747Y-103935000D01*
X171448453Y-103935000D01*
X171292198Y-103950390D01*
X171091709Y-104011207D01*
X170906937Y-104109970D01*
X170786300Y-104208973D01*
X170786300Y-103248227D01*
X170906937Y-103347230D01*
X171091709Y-103445993D01*
X171292198Y-103506810D01*
X171448453Y-103522200D01*
X172873747Y-103522200D01*
X173030002Y-103506810D01*
X173230491Y-103445993D01*
X173415263Y-103347230D01*
X173577218Y-103214318D01*
X173710130Y-103052363D01*
X173808893Y-102867591D01*
X173869710Y-102667102D01*
X173890246Y-102458600D01*
X173869710Y-102250098D01*
X173808893Y-102049609D01*
X173710130Y-101864837D01*
X173577218Y-101702882D01*
X173415263Y-101569970D01*
X173230491Y-101471207D01*
X173030002Y-101410390D01*
X172873747Y-101395000D01*
X171448453Y-101395000D01*
X171292198Y-101410390D01*
X171091709Y-101471207D01*
X170906937Y-101569970D01*
X170786300Y-101668973D01*
X170786300Y-100708227D01*
X170906937Y-100807230D01*
X171091709Y-100905993D01*
X171292198Y-100966810D01*
X171448453Y-100982200D01*
X172873747Y-100982200D01*
X173030002Y-100966810D01*
X173230491Y-100905993D01*
X173415263Y-100807230D01*
X173577218Y-100674318D01*
X173710130Y-100512363D01*
X173808893Y-100327591D01*
X173869710Y-100127102D01*
X173890246Y-99918600D01*
X173869710Y-99710098D01*
X173808893Y-99509609D01*
X173710130Y-99324837D01*
X173577218Y-99162882D01*
X173415263Y-99029970D01*
X173230491Y-98931207D01*
X173030002Y-98870390D01*
X172873747Y-98855000D01*
X171752016Y-98855000D01*
X172200091Y-98406925D01*
X172220322Y-98390322D01*
X172286578Y-98309588D01*
X172335811Y-98217480D01*
X172366128Y-98117537D01*
X172373800Y-98039643D01*
X172373800Y-98039641D01*
X172376365Y-98013601D01*
X172373800Y-97987561D01*
X172373800Y-95701355D01*
X174424900Y-95701355D01*
X174424900Y-95880845D01*
X174459917Y-96056887D01*
X174528605Y-96222715D01*
X174628325Y-96371956D01*
X174755244Y-96498875D01*
X174805900Y-96532722D01*
X174805901Y-106877550D01*
X174803335Y-106903600D01*
X174813573Y-107007536D01*
X174813573Y-107007537D01*
X174843890Y-107107480D01*
X174893123Y-107199588D01*
X174942201Y-107259391D01*
X174907500Y-107433845D01*
X174907500Y-107643355D01*
X174948374Y-107848841D01*
X175028550Y-108042403D01*
X175144948Y-108216605D01*
X175293095Y-108364752D01*
X175467297Y-108481150D01*
X175660859Y-108561326D01*
X175866345Y-108602200D01*
X176075855Y-108602200D01*
X176281341Y-108561326D01*
X176474903Y-108481150D01*
X176649105Y-108364752D01*
X176797252Y-108216605D01*
X176913650Y-108042403D01*
X176993826Y-107848841D01*
X177034700Y-107643355D01*
X177034700Y-107433845D01*
X176993826Y-107228359D01*
X176913650Y-107034797D01*
X176797252Y-106860595D01*
X176649105Y-106712448D01*
X176474903Y-106596050D01*
X176281341Y-106515874D01*
X176075855Y-106475000D01*
X175866345Y-106475000D01*
X175866300Y-106475009D01*
X175866300Y-96532722D01*
X175916956Y-96498875D01*
X176043875Y-96371956D01*
X176143595Y-96222715D01*
X176212283Y-96056887D01*
X176247300Y-95880845D01*
X176247300Y-95701355D01*
X176212283Y-95525313D01*
X176143595Y-95359485D01*
X176043875Y-95210244D01*
X175916956Y-95083325D01*
X175767715Y-94983605D01*
X175601887Y-94914917D01*
X175425845Y-94879900D01*
X175246355Y-94879900D01*
X175070313Y-94914917D01*
X174904485Y-94983605D01*
X174755244Y-95083325D01*
X174628325Y-95210244D01*
X174528605Y-95359485D01*
X174459917Y-95525313D01*
X174424900Y-95701355D01*
X172373800Y-95701355D01*
X172373800Y-94229643D01*
X172376365Y-94203600D01*
X172366128Y-94099663D01*
X172335811Y-93999720D01*
X172286578Y-93907612D01*
X172220322Y-93826878D01*
X172139588Y-93760622D01*
X172047480Y-93711389D01*
X171947537Y-93681072D01*
X171869643Y-93673400D01*
X171843600Y-93670835D01*
X171817558Y-93673400D01*
X171680727Y-93673400D01*
X171779730Y-93552763D01*
X171878493Y-93367991D01*
X171939310Y-93167502D01*
X171954700Y-93011247D01*
X171954700Y-92323600D01*
X172111100Y-92323600D01*
X172111100Y-92984000D01*
X172141341Y-93241039D01*
X172221146Y-93487239D01*
X172347449Y-93713139D01*
X172515396Y-93910058D01*
X172718533Y-94070429D01*
X172949054Y-94188088D01*
X173198100Y-94258514D01*
X173199951Y-94258604D01*
X173406100Y-94113829D01*
X173406100Y-92323600D01*
X173456100Y-92323600D01*
X173456100Y-94113829D01*
X173662249Y-94258604D01*
X173664100Y-94258514D01*
X173913146Y-94188088D01*
X174143667Y-94070429D01*
X174346804Y-93910058D01*
X174514751Y-93713139D01*
X174641054Y-93487239D01*
X174720859Y-93241039D01*
X174751100Y-92984000D01*
X174751100Y-92323600D01*
X173456100Y-92323600D01*
X173406100Y-92323600D01*
X172111100Y-92323600D01*
X171954700Y-92323600D01*
X171954700Y-91613200D01*
X172111100Y-91613200D01*
X172111100Y-92273600D01*
X173406100Y-92273600D01*
X173406100Y-90483371D01*
X173456100Y-90483371D01*
X173456100Y-92273600D01*
X174751100Y-92273600D01*
X174751100Y-91613200D01*
X174720859Y-91356161D01*
X174641054Y-91109961D01*
X174514751Y-90884061D01*
X174346804Y-90687142D01*
X174143667Y-90526771D01*
X173913146Y-90409112D01*
X173664100Y-90338686D01*
X173662249Y-90338596D01*
X173456100Y-90483371D01*
X173406100Y-90483371D01*
X173199951Y-90338596D01*
X173198100Y-90338686D01*
X172949054Y-90409112D01*
X172718533Y-90526771D01*
X172515396Y-90687142D01*
X172347449Y-90884061D01*
X172221146Y-91109961D01*
X172141341Y-91356161D01*
X172111100Y-91613200D01*
X171954700Y-91613200D01*
X171954700Y-91585953D01*
X171939310Y-91429698D01*
X171878493Y-91229209D01*
X171779730Y-91044437D01*
X171646818Y-90882482D01*
X171484863Y-90749570D01*
X171300091Y-90650807D01*
X171099602Y-90589990D01*
X170891100Y-90569454D01*
X170682599Y-90589990D01*
X170482110Y-90650807D01*
X170297338Y-90749570D01*
X170135383Y-90882482D01*
X170002471Y-91044437D01*
X169903708Y-91229209D01*
X169842891Y-91429698D01*
X169827500Y-91585953D01*
X169827500Y-93011246D01*
X169842890Y-93167501D01*
X169903707Y-93367990D01*
X170002470Y-93552763D01*
X170101473Y-93673400D01*
X169140727Y-93673400D01*
X169239730Y-93552763D01*
X169338493Y-93367991D01*
X169399310Y-93167502D01*
X169414700Y-93011247D01*
X169414700Y-91585953D01*
X169399310Y-91429698D01*
X169338493Y-91229209D01*
X169239730Y-91044437D01*
X169106818Y-90882482D01*
X168944863Y-90749570D01*
X168760091Y-90650807D01*
X168559602Y-90589990D01*
X168351100Y-90569454D01*
X168142599Y-90589990D01*
X167942110Y-90650807D01*
X167757338Y-90749570D01*
X167595383Y-90882482D01*
X167462471Y-91044437D01*
X167363708Y-91229209D01*
X167302891Y-91429698D01*
X167287500Y-91585953D01*
X167287500Y-93011246D01*
X167302890Y-93167501D01*
X167363707Y-93367990D01*
X167462470Y-93552763D01*
X167561473Y-93673400D01*
X166600727Y-93673400D01*
X166699730Y-93552763D01*
X166798493Y-93367991D01*
X166859310Y-93167502D01*
X166874700Y-93011247D01*
X166874700Y-91585953D01*
X166859310Y-91429698D01*
X166798493Y-91229209D01*
X166699730Y-91044437D01*
X166566818Y-90882482D01*
X166404863Y-90749570D01*
X166341300Y-90715595D01*
X166341300Y-89784643D01*
X166343865Y-89758600D01*
X166333628Y-89654663D01*
X166303311Y-89554720D01*
X166254078Y-89462612D01*
X166187822Y-89381878D01*
X166107088Y-89315622D01*
X166014980Y-89266389D01*
X165915037Y-89236072D01*
X165837143Y-89228400D01*
X165811100Y-89225835D01*
X165785058Y-89228400D01*
X156629639Y-89228400D01*
X156603599Y-89225835D01*
X156577559Y-89228400D01*
X156577557Y-89228400D01*
X156499663Y-89236072D01*
X156399720Y-89266389D01*
X156307612Y-89315622D01*
X156226878Y-89381878D01*
X156210275Y-89402109D01*
X155294614Y-90317771D01*
X155274378Y-90334378D01*
X155208122Y-90415112D01*
X155158889Y-90507221D01*
X155128572Y-90607164D01*
X155120900Y-90685057D01*
X155118335Y-90711100D01*
X155120900Y-90737140D01*
X155120900Y-91534243D01*
X155059105Y-91472448D01*
X154884903Y-91356050D01*
X154691341Y-91275874D01*
X154485855Y-91235000D01*
X154276345Y-91235000D01*
X154070859Y-91275874D01*
X153877297Y-91356050D01*
X153703095Y-91472448D01*
X153554948Y-91620595D01*
X153438550Y-91794797D01*
X153358374Y-91988359D01*
X153317500Y-92193845D01*
X153317500Y-92403355D01*
X153358374Y-92608841D01*
X153438550Y-92802403D01*
X153554948Y-92976605D01*
X153703095Y-93124752D01*
X153877297Y-93241150D01*
X154070859Y-93321326D01*
X154276345Y-93362200D01*
X154485855Y-93362200D01*
X154691341Y-93321326D01*
X154739900Y-93301212D01*
X154739900Y-93340845D01*
X154774917Y-93516887D01*
X154839747Y-93673400D01*
X152378216Y-93673400D01*
X152046914Y-93342098D01*
X152151341Y-93321326D01*
X152344903Y-93241150D01*
X152519105Y-93124752D01*
X152667252Y-92976605D01*
X152783650Y-92802403D01*
X152863826Y-92608841D01*
X152904700Y-92403355D01*
X152904700Y-92193845D01*
X152863826Y-91988359D01*
X152783650Y-91794797D01*
X152667252Y-91620595D01*
X152519105Y-91472448D01*
X152371300Y-91373688D01*
X152371300Y-89784643D01*
X152373865Y-89758600D01*
X152363628Y-89654663D01*
X152333311Y-89554720D01*
X152284078Y-89462612D01*
X152217822Y-89381878D01*
X152137088Y-89315622D01*
X152044980Y-89266389D01*
X151945037Y-89236072D01*
X151867143Y-89228400D01*
X151841100Y-89225835D01*
X151815058Y-89228400D01*
X112497139Y-89228400D01*
X112471099Y-89225835D01*
X112445059Y-89228400D01*
X112445057Y-89228400D01*
X112367163Y-89236072D01*
X112267220Y-89266389D01*
X112175112Y-89315622D01*
X112094378Y-89381878D01*
X112077775Y-89402109D01*
X110844614Y-90635271D01*
X110824378Y-90651878D01*
X110758122Y-90732612D01*
X110708889Y-90824721D01*
X110678572Y-90924664D01*
X110671872Y-90992688D01*
X110668335Y-91028600D01*
X110670900Y-91054640D01*
X110670900Y-91126484D01*
X109915200Y-91882184D01*
X109896630Y-91816142D01*
X109778766Y-91584372D01*
X109748673Y-91539333D01*
X109499883Y-91495173D01*
X108696455Y-92298600D01*
X108710598Y-92312742D01*
X108675242Y-92348098D01*
X108661100Y-92333955D01*
X107857673Y-93137383D01*
X107901833Y-93386173D01*
X108128598Y-93513401D01*
X108245800Y-93551584D01*
X105129614Y-96667771D01*
X105109378Y-96684378D01*
X105043122Y-96765112D01*
X104993889Y-96857221D01*
X104963572Y-96957164D01*
X104955900Y-97035057D01*
X104953335Y-97061100D01*
X104955900Y-97087140D01*
X104955901Y-103279776D01*
X104851100Y-103269454D01*
X104642598Y-103289990D01*
X104442109Y-103350807D01*
X104257337Y-103449570D01*
X104095382Y-103582482D01*
X103962470Y-103744437D01*
X103863707Y-103929210D01*
X103802890Y-104129699D01*
X103787500Y-104285954D01*
X103787500Y-105711247D01*
X103802891Y-105867502D01*
X103863708Y-106067991D01*
X103962471Y-106252763D01*
X104095383Y-106414718D01*
X104257338Y-106547630D01*
X104442110Y-106646393D01*
X104642599Y-106707210D01*
X104851100Y-106727746D01*
X105059602Y-106707210D01*
X105260091Y-106646393D01*
X105444863Y-106547630D01*
X105590901Y-106427781D01*
X105590901Y-108588983D01*
X103017707Y-111162178D01*
X102904863Y-111069570D01*
X102720090Y-110970807D01*
X102519601Y-110909990D01*
X102311100Y-110889454D01*
X102102598Y-110909990D01*
X101902109Y-110970807D01*
X101717337Y-111069570D01*
X101555382Y-111202482D01*
X101422470Y-111364437D01*
X101323707Y-111549210D01*
X101262890Y-111749699D01*
X101247500Y-111905954D01*
X101247500Y-113331247D01*
X101262891Y-113487502D01*
X101323708Y-113687991D01*
X101422471Y-113872763D01*
X101555383Y-114034718D01*
X101717338Y-114167630D01*
X101902110Y-114266393D01*
X102102599Y-114327210D01*
X102311100Y-114347746D01*
X102519602Y-114327210D01*
X102720091Y-114266393D01*
X102904863Y-114167630D01*
X103066818Y-114034718D01*
X103199730Y-113872763D01*
X103298493Y-113687991D01*
X103359310Y-113487502D01*
X103374700Y-113331247D01*
X103374700Y-112304815D01*
X103789023Y-111890492D01*
X103787500Y-111905954D01*
X103787500Y-113331247D01*
X103802891Y-113487502D01*
X103863708Y-113687991D01*
X103962471Y-113872763D01*
X104095383Y-114034718D01*
X104257338Y-114167630D01*
X104442110Y-114266393D01*
X104642599Y-114327210D01*
X104851100Y-114347746D01*
X105059602Y-114327210D01*
X105260091Y-114266393D01*
X105444863Y-114167630D01*
X105606818Y-114034718D01*
X105739730Y-113872763D01*
X105838493Y-113687991D01*
X105899310Y-113487502D01*
X105914700Y-113331247D01*
X105914700Y-111905953D01*
X105899310Y-111749698D01*
X105838493Y-111549209D01*
X105739730Y-111364437D01*
X105606818Y-111202482D01*
X105444863Y-111069570D01*
X105260090Y-110970807D01*
X105059601Y-110909990D01*
X104851100Y-110889454D01*
X104783393Y-110896123D01*
X106477593Y-109201923D01*
X106497822Y-109185322D01*
X106564078Y-109104588D01*
X106613311Y-109012480D01*
X106643628Y-108912537D01*
X106651300Y-108834643D01*
X106651300Y-108834642D01*
X106653865Y-108808600D01*
X106651300Y-108782557D01*
X106651300Y-106427781D01*
X106797338Y-106547630D01*
X106982110Y-106646393D01*
X107182599Y-106707210D01*
X107391100Y-106727746D01*
X107599602Y-106707210D01*
X107800091Y-106646393D01*
X107984863Y-106547630D01*
X108130901Y-106427781D01*
X108130901Y-111128983D01*
X108097707Y-111162178D01*
X107984863Y-111069570D01*
X107800090Y-110970807D01*
X107599601Y-110909990D01*
X107391100Y-110889454D01*
X107182598Y-110909990D01*
X106982109Y-110970807D01*
X106797337Y-111069570D01*
X106635382Y-111202482D01*
X106502470Y-111364437D01*
X106403707Y-111549210D01*
X106342890Y-111749699D01*
X106327500Y-111905954D01*
X106327500Y-113331247D01*
X106342891Y-113487502D01*
X106403708Y-113687991D01*
X106502471Y-113872763D01*
X106635383Y-114034718D01*
X106797338Y-114167630D01*
X106982110Y-114266393D01*
X107182599Y-114327210D01*
X107391100Y-114347746D01*
X107599602Y-114327210D01*
X107800091Y-114266393D01*
X107984863Y-114167630D01*
X108146818Y-114034718D01*
X108279730Y-113872763D01*
X108378493Y-113687991D01*
X108439310Y-113487502D01*
X108454700Y-113331247D01*
X108454700Y-112304816D01*
X108869023Y-111890493D01*
X108867500Y-111905954D01*
X108867500Y-113331247D01*
X108882891Y-113487502D01*
X108943708Y-113687991D01*
X109042471Y-113872763D01*
X109175383Y-114034718D01*
X109337338Y-114167630D01*
X109522110Y-114266393D01*
X109722599Y-114327210D01*
X109931100Y-114347746D01*
X110139602Y-114327210D01*
X110340091Y-114266393D01*
X110524863Y-114167630D01*
X110686818Y-114034718D01*
X110819730Y-113872763D01*
X110918493Y-113687991D01*
X110979310Y-113487502D01*
X110994700Y-113331247D01*
X110994700Y-111905953D01*
X110993177Y-111890492D01*
X111407500Y-112304815D01*
X111407500Y-113331247D01*
X111422891Y-113487502D01*
X111460778Y-113612400D01*
X111428855Y-113612400D01*
X111252813Y-113647417D01*
X111086985Y-113716105D01*
X110937744Y-113815825D01*
X110810825Y-113942744D01*
X110711105Y-114091985D01*
X110642417Y-114257813D01*
X110607400Y-114433855D01*
X110607400Y-114613345D01*
X110619286Y-114673099D01*
X109716723Y-115575662D01*
X109686375Y-115530244D01*
X109559456Y-115403325D01*
X109410215Y-115303605D01*
X109244387Y-115234917D01*
X109068345Y-115199900D01*
X108888855Y-115199900D01*
X108712813Y-115234917D01*
X108546985Y-115303605D01*
X108397744Y-115403325D01*
X108270825Y-115530244D01*
X108171105Y-115679485D01*
X108102417Y-115845313D01*
X108067400Y-116021355D01*
X108067400Y-116200845D01*
X108079286Y-116260598D01*
X106954499Y-117385385D01*
X106949007Y-117378693D01*
X106771581Y-117233085D01*
X106569159Y-117124888D01*
X106349518Y-117058260D01*
X106121100Y-117035763D01*
X105892681Y-117058260D01*
X105673040Y-117124888D01*
X105470618Y-117233085D01*
X105293193Y-117378693D01*
X105147585Y-117556119D01*
X105039388Y-117758541D01*
X104972760Y-117978182D01*
X104955900Y-118149367D01*
X104955900Y-119787834D01*
X104972760Y-119959019D01*
X105039389Y-120178660D01*
X105127445Y-120343400D01*
X104574756Y-120343400D01*
X104662812Y-120178660D01*
X104729440Y-119959019D01*
X104746300Y-119787834D01*
X104746300Y-118149366D01*
X104729440Y-117978181D01*
X104662812Y-117758540D01*
X104554615Y-117556118D01*
X104409007Y-117378693D01*
X104231581Y-117233085D01*
X104029159Y-117124888D01*
X103809518Y-117058260D01*
X103581100Y-117035763D01*
X103352681Y-117058260D01*
X103133040Y-117124888D01*
X102930618Y-117233085D01*
X102753193Y-117378693D01*
X102607585Y-117556119D01*
X102499388Y-117758541D01*
X102432760Y-117978182D01*
X102415900Y-118149367D01*
X102415900Y-119787834D01*
X102432760Y-119959019D01*
X102499389Y-120178660D01*
X102587445Y-120343400D01*
X102034756Y-120343400D01*
X102122812Y-120178660D01*
X102189440Y-119959019D01*
X102206300Y-119787834D01*
X102206300Y-118149366D01*
X102189440Y-117978181D01*
X102122812Y-117758540D01*
X102014615Y-117556118D01*
X101869007Y-117378693D01*
X101691581Y-117233085D01*
X101489159Y-117124888D01*
X101269518Y-117058260D01*
X101041100Y-117035763D01*
X100812681Y-117058260D01*
X100593040Y-117124888D01*
X100390618Y-117233085D01*
X100213193Y-117378693D01*
X100067585Y-117556119D01*
X99959388Y-117758541D01*
X99892760Y-117978182D01*
X99875900Y-118149367D01*
X99875900Y-119787834D01*
X99892760Y-119959019D01*
X99959389Y-120178660D01*
X100047445Y-120343400D01*
X99494756Y-120343400D01*
X99582812Y-120178660D01*
X99649440Y-119959019D01*
X99666300Y-119787834D01*
X99666300Y-118149366D01*
X99649440Y-117978181D01*
X99582812Y-117758540D01*
X99474615Y-117556118D01*
X99329007Y-117378693D01*
X99151581Y-117233085D01*
X98949159Y-117124888D01*
X98729518Y-117058260D01*
X98501100Y-117035763D01*
X98272681Y-117058260D01*
X98053040Y-117124888D01*
X97850618Y-117233085D01*
X97673193Y-117378693D01*
X97527585Y-117556119D01*
X97509301Y-117590326D01*
X97509301Y-111905954D01*
X98707500Y-111905954D01*
X98707500Y-113331247D01*
X98722891Y-113487502D01*
X98783708Y-113687991D01*
X98882471Y-113872763D01*
X99015383Y-114034718D01*
X99177338Y-114167630D01*
X99362110Y-114266393D01*
X99562599Y-114327210D01*
X99771100Y-114347746D01*
X99979602Y-114327210D01*
X100180091Y-114266393D01*
X100364863Y-114167630D01*
X100526818Y-114034718D01*
X100659730Y-113872763D01*
X100758493Y-113687991D01*
X100819310Y-113487502D01*
X100834700Y-113331247D01*
X100834700Y-111905953D01*
X100819310Y-111749698D01*
X100758493Y-111549209D01*
X100659730Y-111364437D01*
X100526818Y-111202482D01*
X100364863Y-111069570D01*
X100180090Y-110970807D01*
X99979601Y-110909990D01*
X99771100Y-110889454D01*
X99562598Y-110909990D01*
X99362109Y-110970807D01*
X99177337Y-111069570D01*
X99015382Y-111202482D01*
X98882470Y-111364437D01*
X98783707Y-111549210D01*
X98722890Y-111749699D01*
X98707500Y-111905954D01*
X97509301Y-111905954D01*
X97509301Y-104285954D01*
X98707500Y-104285954D01*
X98707500Y-105711247D01*
X98722891Y-105867502D01*
X98783708Y-106067991D01*
X98882471Y-106252763D01*
X99015383Y-106414718D01*
X99177338Y-106547630D01*
X99362110Y-106646393D01*
X99562599Y-106707210D01*
X99771100Y-106727746D01*
X99979602Y-106707210D01*
X100180091Y-106646393D01*
X100364863Y-106547630D01*
X100526818Y-106414718D01*
X100659730Y-106252763D01*
X100758493Y-106067991D01*
X100819310Y-105867502D01*
X100834700Y-105711247D01*
X100834700Y-104864420D01*
X101247500Y-104451621D01*
X101247500Y-105711247D01*
X101262891Y-105867502D01*
X101323708Y-106067991D01*
X101422471Y-106252763D01*
X101555383Y-106414718D01*
X101717338Y-106547630D01*
X101902110Y-106646393D01*
X102102599Y-106707210D01*
X102311100Y-106727746D01*
X102519602Y-106707210D01*
X102720091Y-106646393D01*
X102904863Y-106547630D01*
X103066818Y-106414718D01*
X103199730Y-106252763D01*
X103298493Y-106067991D01*
X103359310Y-105867502D01*
X103374700Y-105711247D01*
X103374700Y-104285953D01*
X103359310Y-104129698D01*
X103298493Y-103929209D01*
X103199730Y-103744437D01*
X103066818Y-103582482D01*
X102904863Y-103449570D01*
X102720090Y-103350807D01*
X102519601Y-103289990D01*
X102311100Y-103269454D01*
X102102598Y-103289990D01*
X101902109Y-103350807D01*
X101717337Y-103449570D01*
X101698300Y-103465193D01*
X101698300Y-100758653D01*
X101719105Y-100744752D01*
X101867252Y-100596605D01*
X101983650Y-100422403D01*
X102063826Y-100228841D01*
X102104700Y-100023355D01*
X102104700Y-99813845D01*
X102063826Y-99608359D01*
X101983650Y-99414797D01*
X101867252Y-99240595D01*
X101719105Y-99092448D01*
X101544903Y-98976050D01*
X101351341Y-98895874D01*
X101145855Y-98855000D01*
X100936345Y-98855000D01*
X100730859Y-98895874D01*
X100537297Y-98976050D01*
X100363095Y-99092448D01*
X100214948Y-99240595D01*
X100098550Y-99414797D01*
X100018374Y-99608359D01*
X99977500Y-99813845D01*
X99977500Y-100023355D01*
X100018374Y-100228841D01*
X100098550Y-100422403D01*
X100214948Y-100596605D01*
X100363095Y-100744752D01*
X100383900Y-100758654D01*
X100383901Y-103456378D01*
X100379059Y-103461220D01*
X100364863Y-103449570D01*
X100180090Y-103350807D01*
X99979601Y-103289990D01*
X99771100Y-103269454D01*
X99562598Y-103289990D01*
X99362109Y-103350807D01*
X99177337Y-103449570D01*
X99015382Y-103582482D01*
X98882470Y-103744437D01*
X98783707Y-103929210D01*
X98722890Y-104129699D01*
X98707500Y-104285954D01*
X97509301Y-104285954D01*
X97509301Y-92193845D01*
X99977500Y-92193845D01*
X99977500Y-92403355D01*
X100018374Y-92608841D01*
X100098550Y-92802403D01*
X100214948Y-92976605D01*
X100363095Y-93124752D01*
X100537297Y-93241150D01*
X100730859Y-93321326D01*
X100936345Y-93362200D01*
X101145855Y-93362200D01*
X101351341Y-93321326D01*
X101544903Y-93241150D01*
X101719105Y-93124752D01*
X101867252Y-92976605D01*
X101983650Y-92802403D01*
X102063826Y-92608841D01*
X102104700Y-92403355D01*
X102104700Y-92271516D01*
X107334991Y-92271516D01*
X107355188Y-92530748D01*
X107425570Y-92781058D01*
X107543434Y-93012828D01*
X107573527Y-93057867D01*
X107822317Y-93102027D01*
X108625745Y-92298600D01*
X107822317Y-91495173D01*
X107573527Y-91539333D01*
X107446299Y-91766098D01*
X107365755Y-92013326D01*
X107334991Y-92271516D01*
X102104700Y-92271516D01*
X102104700Y-92193845D01*
X102063826Y-91988359D01*
X101983650Y-91794797D01*
X101867252Y-91620595D01*
X101719105Y-91472448D01*
X101700202Y-91459817D01*
X107857673Y-91459817D01*
X108661100Y-92263245D01*
X109464527Y-91459817D01*
X109420367Y-91211027D01*
X109193602Y-91083799D01*
X108946374Y-91003255D01*
X108688184Y-90972491D01*
X108428952Y-90992688D01*
X108178642Y-91063070D01*
X107946872Y-91180934D01*
X107901833Y-91211027D01*
X107857673Y-91459817D01*
X101700202Y-91459817D01*
X101544903Y-91356050D01*
X101351341Y-91275874D01*
X101145855Y-91235000D01*
X100936345Y-91235000D01*
X100730859Y-91275874D01*
X100537297Y-91356050D01*
X100363095Y-91472448D01*
X100214948Y-91620595D01*
X100098550Y-91794797D01*
X100018374Y-91988359D01*
X99977500Y-92193845D01*
X97509301Y-92193845D01*
X97509301Y-88776801D01*
X199492900Y-88776801D01*
X199492899Y-121230399D01*
G36*
X139655383Y-114034718D02*
G01*
X139817338Y-114167630D01*
X140002110Y-114266393D01*
X140202599Y-114327210D01*
X140411100Y-114347746D01*
X140619602Y-114327210D01*
X140769025Y-114281883D01*
X140842315Y-114355173D01*
X140593527Y-114399333D01*
X140466299Y-114626098D01*
X140385755Y-114873326D01*
X140354991Y-115131516D01*
X140375188Y-115390748D01*
X140445570Y-115641058D01*
X140563434Y-115872828D01*
X140593527Y-115917867D01*
X140842317Y-115962027D01*
X141645745Y-115158600D01*
X141631602Y-115144458D01*
X141666958Y-115109102D01*
X141681100Y-115123245D01*
X141695242Y-115109102D01*
X141730598Y-115144458D01*
X141716455Y-115158600D01*
X141730598Y-115172742D01*
X141695242Y-115208098D01*
X141681100Y-115193955D01*
X140877673Y-115997383D01*
X140921833Y-116246173D01*
X141148598Y-116373401D01*
X141265801Y-116411584D01*
X141143985Y-116533400D01*
X140437143Y-116533400D01*
X140411100Y-116530835D01*
X140385058Y-116533400D01*
X140385057Y-116533400D01*
X140307163Y-116541072D01*
X140207220Y-116571389D01*
X140115112Y-116620622D01*
X140034378Y-116686878D01*
X139968122Y-116767612D01*
X139918889Y-116859720D01*
X139888572Y-116959663D01*
X139884822Y-116997741D01*
X139662026Y-116883645D01*
X139393921Y-116807438D01*
X139388145Y-116806630D01*
X139166100Y-116950149D01*
X139166100Y-118943600D01*
X139186100Y-118943600D01*
X139186100Y-118993600D01*
X139166100Y-118993600D01*
X139166100Y-119013600D01*
X139116100Y-119013600D01*
X139116100Y-118993600D01*
X139096100Y-118993600D01*
X139096100Y-118943600D01*
X139116100Y-118943600D01*
X139116100Y-116950149D01*
X138894055Y-116806630D01*
X138888279Y-116807438D01*
X138620174Y-116883645D01*
X138372088Y-117010693D01*
X138153555Y-117183699D01*
X137972972Y-117396014D01*
X137837280Y-117639480D01*
X137751693Y-117904740D01*
X137744895Y-117963200D01*
X137682812Y-117758540D01*
X137574615Y-117556118D01*
X137429007Y-117378693D01*
X137251581Y-117233085D01*
X137049159Y-117124888D01*
X136829518Y-117058260D01*
X136730962Y-117048553D01*
X139497591Y-114281925D01*
X139517822Y-114265322D01*
X139584078Y-114184588D01*
X139633311Y-114092480D01*
X139652061Y-114030670D01*
X139655383Y-114034718D01*
X139655383Y-114034718D01*
G37*
X139655383Y-114034718D02*
X139817338Y-114167630D01*
X140002110Y-114266393D01*
X140202599Y-114327210D01*
X140411100Y-114347746D01*
X140619602Y-114327210D01*
X140769025Y-114281883D01*
X140842315Y-114355173D01*
X140593527Y-114399333D01*
X140466299Y-114626098D01*
X140385755Y-114873326D01*
X140354991Y-115131516D01*
X140375188Y-115390748D01*
X140445570Y-115641058D01*
X140563434Y-115872828D01*
X140593527Y-115917867D01*
X140842317Y-115962027D01*
X141645745Y-115158600D01*
X141631602Y-115144458D01*
X141666958Y-115109102D01*
X141681100Y-115123245D01*
X141695242Y-115109102D01*
X141730598Y-115144458D01*
X141716455Y-115158600D01*
X141730598Y-115172742D01*
X141695242Y-115208098D01*
X141681100Y-115193955D01*
X140877673Y-115997383D01*
X140921833Y-116246173D01*
X141148598Y-116373401D01*
X141265801Y-116411584D01*
X141143985Y-116533400D01*
X140437143Y-116533400D01*
X140411100Y-116530835D01*
X140385058Y-116533400D01*
X140385057Y-116533400D01*
X140307163Y-116541072D01*
X140207220Y-116571389D01*
X140115112Y-116620622D01*
X140034378Y-116686878D01*
X139968122Y-116767612D01*
X139918889Y-116859720D01*
X139888572Y-116959663D01*
X139884822Y-116997741D01*
X139662026Y-116883645D01*
X139393921Y-116807438D01*
X139388145Y-116806630D01*
X139166100Y-116950149D01*
X139166100Y-118943600D01*
X139186100Y-118943600D01*
X139186100Y-118993600D01*
X139166100Y-118993600D01*
X139166100Y-119013600D01*
X139116100Y-119013600D01*
X139116100Y-118993600D01*
X139096100Y-118993600D01*
X139096100Y-118943600D01*
X139116100Y-118943600D01*
X139116100Y-116950149D01*
X138894055Y-116806630D01*
X138888279Y-116807438D01*
X138620174Y-116883645D01*
X138372088Y-117010693D01*
X138153555Y-117183699D01*
X137972972Y-117396014D01*
X137837280Y-117639480D01*
X137751693Y-117904740D01*
X137744895Y-117963200D01*
X137682812Y-117758540D01*
X137574615Y-117556118D01*
X137429007Y-117378693D01*
X137251581Y-117233085D01*
X137049159Y-117124888D01*
X136829518Y-117058260D01*
X136730962Y-117048553D01*
X139497591Y-114281925D01*
X139517822Y-114265322D01*
X139584078Y-114184588D01*
X139633311Y-114092480D01*
X139652061Y-114030670D01*
X139655383Y-114034718D01*
G36*
X117655901Y-94423217D02*
G01*
X117655900Y-96954477D01*
X117605244Y-96988325D01*
X117478325Y-97115244D01*
X117378605Y-97264485D01*
X117309917Y-97430313D01*
X117274900Y-97606355D01*
X117274900Y-97785845D01*
X117309917Y-97961887D01*
X117378605Y-98127715D01*
X117478325Y-98276956D01*
X117605244Y-98403875D01*
X117754485Y-98503595D01*
X117920313Y-98572283D01*
X118096355Y-98607300D01*
X118275845Y-98607300D01*
X118451887Y-98572283D01*
X118608401Y-98507453D01*
X118608400Y-109223983D01*
X116265453Y-111566932D01*
X116221054Y-111429961D01*
X116094751Y-111204061D01*
X115926804Y-111007142D01*
X115723667Y-110846771D01*
X115493146Y-110729112D01*
X115244100Y-110658686D01*
X115242249Y-110658596D01*
X115036100Y-110803371D01*
X115036100Y-112593600D01*
X115056100Y-112593600D01*
X115056100Y-112643600D01*
X115036100Y-112643600D01*
X115036100Y-112663600D01*
X114986100Y-112663600D01*
X114986100Y-112643600D01*
X113691100Y-112643600D01*
X113691100Y-113304000D01*
X113721341Y-113561039D01*
X113801146Y-113807239D01*
X113927449Y-114033139D01*
X114095396Y-114230058D01*
X114298533Y-114390429D01*
X114529054Y-114508088D01*
X114778100Y-114578514D01*
X114779951Y-114578604D01*
X114985949Y-114433935D01*
X112034499Y-117385385D01*
X112029007Y-117378693D01*
X111851581Y-117233085D01*
X111649159Y-117124888D01*
X111429518Y-117058260D01*
X111201100Y-117035763D01*
X110972681Y-117058260D01*
X110753040Y-117124888D01*
X110550618Y-117233085D01*
X110461300Y-117306386D01*
X110461300Y-116330715D01*
X111369101Y-115422914D01*
X111428855Y-115434800D01*
X111608345Y-115434800D01*
X111784387Y-115399783D01*
X111950215Y-115331095D01*
X112099456Y-115231375D01*
X112226375Y-115104456D01*
X112326095Y-114955215D01*
X112394783Y-114789387D01*
X112429800Y-114613345D01*
X112429800Y-114433855D01*
X112411504Y-114341876D01*
X112471100Y-114347746D01*
X112679602Y-114327210D01*
X112880091Y-114266393D01*
X113064863Y-114167630D01*
X113226818Y-114034718D01*
X113359730Y-113872763D01*
X113458493Y-113687991D01*
X113519310Y-113487502D01*
X113534700Y-113331247D01*
X113534700Y-111933200D01*
X113691100Y-111933200D01*
X113691100Y-112593600D01*
X114986100Y-112593600D01*
X114986100Y-110803371D01*
X114779951Y-110658596D01*
X114778100Y-110658686D01*
X114529054Y-110729112D01*
X114298533Y-110846771D01*
X114095396Y-111007142D01*
X113927449Y-111204061D01*
X113801146Y-111429961D01*
X113721341Y-111676161D01*
X113691100Y-111933200D01*
X113534700Y-111933200D01*
X113534700Y-111905953D01*
X113519310Y-111749698D01*
X113458493Y-111549209D01*
X113359730Y-111364437D01*
X113226818Y-111202482D01*
X113064863Y-111069570D01*
X112880090Y-110970807D01*
X112679601Y-110909990D01*
X112471100Y-110889454D01*
X112262598Y-110909990D01*
X112062109Y-110970807D01*
X111877337Y-111069570D01*
X111764493Y-111162178D01*
X111731300Y-111128985D01*
X111731300Y-109341527D01*
X111763325Y-109389456D01*
X111890244Y-109516375D01*
X112039485Y-109616095D01*
X112205313Y-109684783D01*
X112381355Y-109719800D01*
X112560845Y-109719800D01*
X112736887Y-109684783D01*
X112835341Y-109644002D01*
X112829900Y-109671355D01*
X112829900Y-109850845D01*
X112864917Y-110026887D01*
X112933605Y-110192715D01*
X113033325Y-110341956D01*
X113160244Y-110468875D01*
X113309485Y-110568595D01*
X113475313Y-110637283D01*
X113651355Y-110672300D01*
X113830845Y-110672300D01*
X114006887Y-110637283D01*
X114172715Y-110568595D01*
X114321956Y-110468875D01*
X114448875Y-110341956D01*
X114548595Y-110192715D01*
X114617283Y-110026887D01*
X114652300Y-109850845D01*
X114652300Y-109671355D01*
X114617283Y-109495313D01*
X114548595Y-109329485D01*
X114448875Y-109180244D01*
X114398300Y-109129669D01*
X114398300Y-106532006D01*
X114417338Y-106547630D01*
X114602110Y-106646393D01*
X114802599Y-106707210D01*
X115011100Y-106727746D01*
X115219602Y-106707210D01*
X115420091Y-106646393D01*
X115604863Y-106547630D01*
X115766818Y-106414718D01*
X115899730Y-106252763D01*
X115998493Y-106067991D01*
X116059310Y-105867502D01*
X116074700Y-105711247D01*
X116074700Y-104285953D01*
X116059310Y-104129698D01*
X115998493Y-103929209D01*
X115899730Y-103744437D01*
X115766818Y-103582482D01*
X115604863Y-103449570D01*
X115420090Y-103350807D01*
X115219601Y-103289990D01*
X115011100Y-103269454D01*
X114802598Y-103289990D01*
X114602109Y-103350807D01*
X114417337Y-103449570D01*
X114398300Y-103465193D01*
X114398300Y-99488653D01*
X114419105Y-99474752D01*
X114567252Y-99326605D01*
X114683650Y-99152403D01*
X114763826Y-98958841D01*
X114804700Y-98753355D01*
X114804700Y-98543845D01*
X114763826Y-98338359D01*
X114683650Y-98144797D01*
X114567252Y-97970595D01*
X114419105Y-97822448D01*
X114244903Y-97706050D01*
X114051341Y-97625874D01*
X113845855Y-97585000D01*
X113636345Y-97585000D01*
X113430859Y-97625874D01*
X113237297Y-97706050D01*
X113063095Y-97822448D01*
X112914948Y-97970595D01*
X112798550Y-98144797D01*
X112718374Y-98338359D01*
X112677500Y-98543845D01*
X112677500Y-98753355D01*
X112718374Y-98958841D01*
X112798550Y-99152403D01*
X112914948Y-99326605D01*
X113063095Y-99474752D01*
X113083901Y-99488654D01*
X113083901Y-100830270D01*
X113051956Y-100798325D01*
X112902715Y-100698605D01*
X112736887Y-100629917D01*
X112560845Y-100594900D01*
X112381355Y-100594900D01*
X112205313Y-100629917D01*
X112039485Y-100698605D01*
X111890244Y-100798325D01*
X111763325Y-100925244D01*
X111663605Y-101074485D01*
X111594917Y-101240313D01*
X111559900Y-101416355D01*
X111559900Y-101595845D01*
X111571786Y-101655599D01*
X111096300Y-102131085D01*
X111096300Y-97915715D01*
X112064632Y-96947383D01*
X112937673Y-96947383D01*
X112981833Y-97196173D01*
X113208598Y-97323401D01*
X113455826Y-97403945D01*
X113714016Y-97434709D01*
X113973248Y-97414512D01*
X114223558Y-97344130D01*
X114455328Y-97226266D01*
X114500367Y-97196173D01*
X114544527Y-96947383D01*
X113741100Y-96143955D01*
X112937673Y-96947383D01*
X112064632Y-96947383D01*
X112487000Y-96525015D01*
X112505570Y-96591058D01*
X112623434Y-96822828D01*
X112653527Y-96867867D01*
X112902317Y-96912027D01*
X113705745Y-96108600D01*
X113776455Y-96108600D01*
X114579883Y-96912027D01*
X114828673Y-96867867D01*
X114955901Y-96641102D01*
X115036445Y-96393874D01*
X115067209Y-96135684D01*
X115047012Y-95876452D01*
X114976630Y-95626142D01*
X114858766Y-95394372D01*
X114828673Y-95349333D01*
X114579883Y-95305173D01*
X113776455Y-96108600D01*
X113705745Y-96108600D01*
X113691602Y-96094458D01*
X113726958Y-96059102D01*
X113741100Y-96073245D01*
X114544527Y-95269817D01*
X114500367Y-95021027D01*
X114273602Y-94893799D01*
X114156400Y-94855616D01*
X114278216Y-94733800D01*
X114985058Y-94733800D01*
X115011100Y-94736365D01*
X115115037Y-94726128D01*
X115214980Y-94695811D01*
X115307088Y-94646578D01*
X115387822Y-94580322D01*
X115454078Y-94499588D01*
X115503311Y-94407480D01*
X115533628Y-94307537D01*
X115541300Y-94229643D01*
X115543865Y-94203600D01*
X115541300Y-94177557D01*
X115541300Y-93844299D01*
X115658977Y-93940873D01*
X115852574Y-94044353D01*
X116062639Y-94108076D01*
X116281100Y-94129592D01*
X116499560Y-94108076D01*
X116709625Y-94044353D01*
X116903223Y-93940873D01*
X117051703Y-93819019D01*
X117655901Y-94423217D01*
X117655901Y-94423217D01*
G37*
X117655901Y-94423217D02*
X117655900Y-96954477D01*
X117605244Y-96988325D01*
X117478325Y-97115244D01*
X117378605Y-97264485D01*
X117309917Y-97430313D01*
X117274900Y-97606355D01*
X117274900Y-97785845D01*
X117309917Y-97961887D01*
X117378605Y-98127715D01*
X117478325Y-98276956D01*
X117605244Y-98403875D01*
X117754485Y-98503595D01*
X117920313Y-98572283D01*
X118096355Y-98607300D01*
X118275845Y-98607300D01*
X118451887Y-98572283D01*
X118608401Y-98507453D01*
X118608400Y-109223983D01*
X116265453Y-111566932D01*
X116221054Y-111429961D01*
X116094751Y-111204061D01*
X115926804Y-111007142D01*
X115723667Y-110846771D01*
X115493146Y-110729112D01*
X115244100Y-110658686D01*
X115242249Y-110658596D01*
X115036100Y-110803371D01*
X115036100Y-112593600D01*
X115056100Y-112593600D01*
X115056100Y-112643600D01*
X115036100Y-112643600D01*
X115036100Y-112663600D01*
X114986100Y-112663600D01*
X114986100Y-112643600D01*
X113691100Y-112643600D01*
X113691100Y-113304000D01*
X113721341Y-113561039D01*
X113801146Y-113807239D01*
X113927449Y-114033139D01*
X114095396Y-114230058D01*
X114298533Y-114390429D01*
X114529054Y-114508088D01*
X114778100Y-114578514D01*
X114779951Y-114578604D01*
X114985949Y-114433935D01*
X112034499Y-117385385D01*
X112029007Y-117378693D01*
X111851581Y-117233085D01*
X111649159Y-117124888D01*
X111429518Y-117058260D01*
X111201100Y-117035763D01*
X110972681Y-117058260D01*
X110753040Y-117124888D01*
X110550618Y-117233085D01*
X110461300Y-117306386D01*
X110461300Y-116330715D01*
X111369101Y-115422914D01*
X111428855Y-115434800D01*
X111608345Y-115434800D01*
X111784387Y-115399783D01*
X111950215Y-115331095D01*
X112099456Y-115231375D01*
X112226375Y-115104456D01*
X112326095Y-114955215D01*
X112394783Y-114789387D01*
X112429800Y-114613345D01*
X112429800Y-114433855D01*
X112411504Y-114341876D01*
X112471100Y-114347746D01*
X112679602Y-114327210D01*
X112880091Y-114266393D01*
X113064863Y-114167630D01*
X113226818Y-114034718D01*
X113359730Y-113872763D01*
X113458493Y-113687991D01*
X113519310Y-113487502D01*
X113534700Y-113331247D01*
X113534700Y-111933200D01*
X113691100Y-111933200D01*
X113691100Y-112593600D01*
X114986100Y-112593600D01*
X114986100Y-110803371D01*
X114779951Y-110658596D01*
X114778100Y-110658686D01*
X114529054Y-110729112D01*
X114298533Y-110846771D01*
X114095396Y-111007142D01*
X113927449Y-111204061D01*
X113801146Y-111429961D01*
X113721341Y-111676161D01*
X113691100Y-111933200D01*
X113534700Y-111933200D01*
X113534700Y-111905953D01*
X113519310Y-111749698D01*
X113458493Y-111549209D01*
X113359730Y-111364437D01*
X113226818Y-111202482D01*
X113064863Y-111069570D01*
X112880090Y-110970807D01*
X112679601Y-110909990D01*
X112471100Y-110889454D01*
X112262598Y-110909990D01*
X112062109Y-110970807D01*
X111877337Y-111069570D01*
X111764493Y-111162178D01*
X111731300Y-111128985D01*
X111731300Y-109341527D01*
X111763325Y-109389456D01*
X111890244Y-109516375D01*
X112039485Y-109616095D01*
X112205313Y-109684783D01*
X112381355Y-109719800D01*
X112560845Y-109719800D01*
X112736887Y-109684783D01*
X112835341Y-109644002D01*
X112829900Y-109671355D01*
X112829900Y-109850845D01*
X112864917Y-110026887D01*
X112933605Y-110192715D01*
X113033325Y-110341956D01*
X113160244Y-110468875D01*
X113309485Y-110568595D01*
X113475313Y-110637283D01*
X113651355Y-110672300D01*
X113830845Y-110672300D01*
X114006887Y-110637283D01*
X114172715Y-110568595D01*
X114321956Y-110468875D01*
X114448875Y-110341956D01*
X114548595Y-110192715D01*
X114617283Y-110026887D01*
X114652300Y-109850845D01*
X114652300Y-109671355D01*
X114617283Y-109495313D01*
X114548595Y-109329485D01*
X114448875Y-109180244D01*
X114398300Y-109129669D01*
X114398300Y-106532006D01*
X114417338Y-106547630D01*
X114602110Y-106646393D01*
X114802599Y-106707210D01*
X115011100Y-106727746D01*
X115219602Y-106707210D01*
X115420091Y-106646393D01*
X115604863Y-106547630D01*
X115766818Y-106414718D01*
X115899730Y-106252763D01*
X115998493Y-106067991D01*
X116059310Y-105867502D01*
X116074700Y-105711247D01*
X116074700Y-104285953D01*
X116059310Y-104129698D01*
X115998493Y-103929209D01*
X115899730Y-103744437D01*
X115766818Y-103582482D01*
X115604863Y-103449570D01*
X115420090Y-103350807D01*
X115219601Y-103289990D01*
X115011100Y-103269454D01*
X114802598Y-103289990D01*
X114602109Y-103350807D01*
X114417337Y-103449570D01*
X114398300Y-103465193D01*
X114398300Y-99488653D01*
X114419105Y-99474752D01*
X114567252Y-99326605D01*
X114683650Y-99152403D01*
X114763826Y-98958841D01*
X114804700Y-98753355D01*
X114804700Y-98543845D01*
X114763826Y-98338359D01*
X114683650Y-98144797D01*
X114567252Y-97970595D01*
X114419105Y-97822448D01*
X114244903Y-97706050D01*
X114051341Y-97625874D01*
X113845855Y-97585000D01*
X113636345Y-97585000D01*
X113430859Y-97625874D01*
X113237297Y-97706050D01*
X113063095Y-97822448D01*
X112914948Y-97970595D01*
X112798550Y-98144797D01*
X112718374Y-98338359D01*
X112677500Y-98543845D01*
X112677500Y-98753355D01*
X112718374Y-98958841D01*
X112798550Y-99152403D01*
X112914948Y-99326605D01*
X113063095Y-99474752D01*
X113083901Y-99488654D01*
X113083901Y-100830270D01*
X113051956Y-100798325D01*
X112902715Y-100698605D01*
X112736887Y-100629917D01*
X112560845Y-100594900D01*
X112381355Y-100594900D01*
X112205313Y-100629917D01*
X112039485Y-100698605D01*
X111890244Y-100798325D01*
X111763325Y-100925244D01*
X111663605Y-101074485D01*
X111594917Y-101240313D01*
X111559900Y-101416355D01*
X111559900Y-101595845D01*
X111571786Y-101655599D01*
X111096300Y-102131085D01*
X111096300Y-97915715D01*
X112064632Y-96947383D01*
X112937673Y-96947383D01*
X112981833Y-97196173D01*
X113208598Y-97323401D01*
X113455826Y-97403945D01*
X113714016Y-97434709D01*
X113973248Y-97414512D01*
X114223558Y-97344130D01*
X114455328Y-97226266D01*
X114500367Y-97196173D01*
X114544527Y-96947383D01*
X113741100Y-96143955D01*
X112937673Y-96947383D01*
X112064632Y-96947383D01*
X112487000Y-96525015D01*
X112505570Y-96591058D01*
X112623434Y-96822828D01*
X112653527Y-96867867D01*
X112902317Y-96912027D01*
X113705745Y-96108600D01*
X113776455Y-96108600D01*
X114579883Y-96912027D01*
X114828673Y-96867867D01*
X114955901Y-96641102D01*
X115036445Y-96393874D01*
X115067209Y-96135684D01*
X115047012Y-95876452D01*
X114976630Y-95626142D01*
X114858766Y-95394372D01*
X114828673Y-95349333D01*
X114579883Y-95305173D01*
X113776455Y-96108600D01*
X113705745Y-96108600D01*
X113691602Y-96094458D01*
X113726958Y-96059102D01*
X113741100Y-96073245D01*
X114544527Y-95269817D01*
X114500367Y-95021027D01*
X114273602Y-94893799D01*
X114156400Y-94855616D01*
X114278216Y-94733800D01*
X114985058Y-94733800D01*
X115011100Y-94736365D01*
X115115037Y-94726128D01*
X115214980Y-94695811D01*
X115307088Y-94646578D01*
X115387822Y-94580322D01*
X115454078Y-94499588D01*
X115503311Y-94407480D01*
X115533628Y-94307537D01*
X115541300Y-94229643D01*
X115543865Y-94203600D01*
X115541300Y-94177557D01*
X115541300Y-93844299D01*
X115658977Y-93940873D01*
X115852574Y-94044353D01*
X116062639Y-94108076D01*
X116281100Y-94129592D01*
X116499560Y-94108076D01*
X116709625Y-94044353D01*
X116903223Y-93940873D01*
X117051703Y-93819019D01*
X117655901Y-94423217D01*
G36*
X143690901Y-103234747D02*
G01*
X143534387Y-103169917D01*
X143358345Y-103134900D01*
X143178855Y-103134900D01*
X143002813Y-103169917D01*
X142836985Y-103238605D01*
X142687744Y-103338325D01*
X142560825Y-103465244D01*
X142461105Y-103614485D01*
X142392417Y-103780313D01*
X142357400Y-103956355D01*
X142357400Y-104135845D01*
X142392417Y-104311887D01*
X142461105Y-104477715D01*
X142560825Y-104626956D01*
X142687744Y-104753875D01*
X142738400Y-104787722D01*
X142738401Y-110911263D01*
X142542109Y-110970807D01*
X142357337Y-111069570D01*
X142195382Y-111202482D01*
X142062470Y-111364437D01*
X141963707Y-111549210D01*
X141902890Y-111749699D01*
X141887500Y-111905954D01*
X141887500Y-113331247D01*
X141902891Y-113487502D01*
X141963708Y-113687991D01*
X142062471Y-113872763D01*
X142086890Y-113902518D01*
X141966374Y-113863255D01*
X141708184Y-113832491D01*
X141448952Y-113852688D01*
X141276384Y-113901211D01*
X141299730Y-113872763D01*
X141398493Y-113687991D01*
X141459310Y-113487502D01*
X141474700Y-113331247D01*
X141474700Y-111905953D01*
X141459310Y-111749698D01*
X141398493Y-111549209D01*
X141299730Y-111364437D01*
X141258800Y-111314563D01*
X141258800Y-103835222D01*
X141309456Y-103801375D01*
X141436375Y-103674456D01*
X141536095Y-103525215D01*
X141604783Y-103359387D01*
X141639800Y-103183345D01*
X141639800Y-103003855D01*
X141604783Y-102827813D01*
X141536095Y-102661985D01*
X141436375Y-102512744D01*
X141309456Y-102385825D01*
X141160215Y-102286105D01*
X140994387Y-102217417D01*
X140818345Y-102182400D01*
X140638855Y-102182400D01*
X140462813Y-102217417D01*
X140296985Y-102286105D01*
X140147744Y-102385825D01*
X140020825Y-102512744D01*
X139988800Y-102560673D01*
X139988800Y-101090715D01*
X142244494Y-98835022D01*
X142357338Y-98927630D01*
X142542110Y-99026393D01*
X142742599Y-99087210D01*
X142951100Y-99107746D01*
X143159602Y-99087210D01*
X143360091Y-99026393D01*
X143544863Y-98927630D01*
X143690901Y-98807781D01*
X143690901Y-103234747D01*
X143690901Y-103234747D01*
G37*
X143690901Y-103234747D02*
X143534387Y-103169917D01*
X143358345Y-103134900D01*
X143178855Y-103134900D01*
X143002813Y-103169917D01*
X142836985Y-103238605D01*
X142687744Y-103338325D01*
X142560825Y-103465244D01*
X142461105Y-103614485D01*
X142392417Y-103780313D01*
X142357400Y-103956355D01*
X142357400Y-104135845D01*
X142392417Y-104311887D01*
X142461105Y-104477715D01*
X142560825Y-104626956D01*
X142687744Y-104753875D01*
X142738400Y-104787722D01*
X142738401Y-110911263D01*
X142542109Y-110970807D01*
X142357337Y-111069570D01*
X142195382Y-111202482D01*
X142062470Y-111364437D01*
X141963707Y-111549210D01*
X141902890Y-111749699D01*
X141887500Y-111905954D01*
X141887500Y-113331247D01*
X141902891Y-113487502D01*
X141963708Y-113687991D01*
X142062471Y-113872763D01*
X142086890Y-113902518D01*
X141966374Y-113863255D01*
X141708184Y-113832491D01*
X141448952Y-113852688D01*
X141276384Y-113901211D01*
X141299730Y-113872763D01*
X141398493Y-113687991D01*
X141459310Y-113487502D01*
X141474700Y-113331247D01*
X141474700Y-111905953D01*
X141459310Y-111749698D01*
X141398493Y-111549209D01*
X141299730Y-111364437D01*
X141258800Y-111314563D01*
X141258800Y-103835222D01*
X141309456Y-103801375D01*
X141436375Y-103674456D01*
X141536095Y-103525215D01*
X141604783Y-103359387D01*
X141639800Y-103183345D01*
X141639800Y-103003855D01*
X141604783Y-102827813D01*
X141536095Y-102661985D01*
X141436375Y-102512744D01*
X141309456Y-102385825D01*
X141160215Y-102286105D01*
X140994387Y-102217417D01*
X140818345Y-102182400D01*
X140638855Y-102182400D01*
X140462813Y-102217417D01*
X140296985Y-102286105D01*
X140147744Y-102385825D01*
X140020825Y-102512744D01*
X139988800Y-102560673D01*
X139988800Y-101090715D01*
X142244494Y-98835022D01*
X142357338Y-98927630D01*
X142542110Y-99026393D01*
X142742599Y-99087210D01*
X142951100Y-99107746D01*
X143159602Y-99087210D01*
X143360091Y-99026393D01*
X143544863Y-98927630D01*
X143690901Y-98807781D01*
X143690901Y-103234747D01*
G36*
X151310900Y-91373688D02*
G01*
X151163095Y-91472448D01*
X151014948Y-91620595D01*
X150898550Y-91794797D01*
X150871765Y-91859461D01*
X150867088Y-91855622D01*
X150774980Y-91806389D01*
X150675037Y-91776072D01*
X150597143Y-91768400D01*
X150571100Y-91765835D01*
X150545058Y-91768400D01*
X148956012Y-91768400D01*
X148857252Y-91620595D01*
X148709105Y-91472448D01*
X148534903Y-91356050D01*
X148341341Y-91275874D01*
X148135855Y-91235000D01*
X147926345Y-91235000D01*
X147720859Y-91275874D01*
X147527297Y-91356050D01*
X147353095Y-91472448D01*
X147204948Y-91620595D01*
X147088550Y-91794797D01*
X147008374Y-91988359D01*
X146967500Y-92193845D01*
X146967500Y-92403355D01*
X147008374Y-92608841D01*
X147088550Y-92802403D01*
X147204948Y-92976605D01*
X147353095Y-93124752D01*
X147527297Y-93241150D01*
X147720859Y-93321326D01*
X147926345Y-93362200D01*
X148135855Y-93362200D01*
X148341341Y-93321326D01*
X148534903Y-93241150D01*
X148709105Y-93124752D01*
X148857252Y-92976605D01*
X148956012Y-92828800D01*
X150083604Y-92828800D01*
X150128122Y-92912088D01*
X150194378Y-92992822D01*
X150214614Y-93009429D01*
X151765275Y-94560091D01*
X151781878Y-94580322D01*
X151862612Y-94646578D01*
X151954720Y-94695811D01*
X152054663Y-94726128D01*
X152132557Y-94733800D01*
X152132559Y-94733800D01*
X152158599Y-94736365D01*
X152184639Y-94733800D01*
X152783584Y-94733800D01*
X151484614Y-96032771D01*
X151464378Y-96049378D01*
X151431255Y-96089739D01*
X151326818Y-95962482D01*
X151164863Y-95829570D01*
X150980090Y-95730807D01*
X150779601Y-95669990D01*
X150571100Y-95649454D01*
X150362598Y-95669990D01*
X150162109Y-95730807D01*
X149977337Y-95829570D01*
X149815382Y-95962482D01*
X149682470Y-96124437D01*
X149583707Y-96309210D01*
X149522890Y-96509699D01*
X149507500Y-96665954D01*
X149507500Y-98091247D01*
X149522891Y-98247502D01*
X149583708Y-98447991D01*
X149682471Y-98632763D01*
X149815383Y-98794718D01*
X149977338Y-98927630D01*
X150162110Y-99026393D01*
X150341557Y-99080827D01*
X149262114Y-100160271D01*
X149241878Y-100176878D01*
X149175622Y-100257612D01*
X149126389Y-100349721D01*
X149096072Y-100449664D01*
X149088400Y-100527557D01*
X149085835Y-100553600D01*
X149088400Y-100579641D01*
X149088401Y-101286483D01*
X145323099Y-105051786D01*
X145263345Y-105039900D01*
X145083855Y-105039900D01*
X144907813Y-105074917D01*
X144751300Y-105139747D01*
X144751300Y-98868215D01*
X144784494Y-98835022D01*
X144897338Y-98927630D01*
X145082110Y-99026393D01*
X145282599Y-99087210D01*
X145491100Y-99107746D01*
X145699602Y-99087210D01*
X145900091Y-99026393D01*
X146084863Y-98927630D01*
X146246818Y-98794718D01*
X146379730Y-98632763D01*
X146478493Y-98447991D01*
X146539310Y-98247502D01*
X146554700Y-98091247D01*
X146554700Y-97403600D01*
X146711100Y-97403600D01*
X146711100Y-98064000D01*
X146741341Y-98321039D01*
X146821146Y-98567239D01*
X146947449Y-98793139D01*
X147115396Y-98990058D01*
X147318533Y-99150429D01*
X147549054Y-99268088D01*
X147798100Y-99338514D01*
X147799951Y-99338604D01*
X148006100Y-99193829D01*
X148006100Y-97403600D01*
X148056100Y-97403600D01*
X148056100Y-99193829D01*
X148262249Y-99338604D01*
X148264100Y-99338514D01*
X148513146Y-99268088D01*
X148743667Y-99150429D01*
X148946804Y-98990058D01*
X149114751Y-98793139D01*
X149241054Y-98567239D01*
X149320859Y-98321039D01*
X149351100Y-98064000D01*
X149351100Y-97403600D01*
X148056100Y-97403600D01*
X148006100Y-97403600D01*
X146711100Y-97403600D01*
X146554700Y-97403600D01*
X146554700Y-96693200D01*
X146711100Y-96693200D01*
X146711100Y-97353600D01*
X148006100Y-97353600D01*
X148006100Y-95563371D01*
X148056100Y-95563371D01*
X148056100Y-97353600D01*
X149351100Y-97353600D01*
X149351100Y-96693200D01*
X149320859Y-96436161D01*
X149241054Y-96189961D01*
X149114751Y-95964061D01*
X148946804Y-95767142D01*
X148743667Y-95606771D01*
X148513146Y-95489112D01*
X148264100Y-95418686D01*
X148262249Y-95418596D01*
X148056100Y-95563371D01*
X148006100Y-95563371D01*
X147799951Y-95418596D01*
X147798100Y-95418686D01*
X147549054Y-95489112D01*
X147318533Y-95606771D01*
X147115396Y-95767142D01*
X146947449Y-95964061D01*
X146821146Y-96189961D01*
X146741341Y-96436161D01*
X146711100Y-96693200D01*
X146554700Y-96693200D01*
X146554700Y-96665953D01*
X146539310Y-96509698D01*
X146478493Y-96309209D01*
X146379730Y-96124437D01*
X146246818Y-95962482D01*
X146084863Y-95829570D01*
X145900090Y-95730807D01*
X145699601Y-95669990D01*
X145491100Y-95649454D01*
X145282598Y-95669990D01*
X145082109Y-95730807D01*
X144897337Y-95829570D01*
X144735382Y-95962482D01*
X144602470Y-96124437D01*
X144503707Y-96309210D01*
X144442890Y-96509699D01*
X144427500Y-96665954D01*
X144427500Y-97692385D01*
X144013177Y-98106708D01*
X144014700Y-98091247D01*
X144014700Y-96665953D01*
X143999310Y-96509698D01*
X143938493Y-96309209D01*
X143839730Y-96124437D01*
X143706818Y-95962482D01*
X143544863Y-95829570D01*
X143360090Y-95730807D01*
X143159601Y-95669990D01*
X142951100Y-95649454D01*
X142742598Y-95669990D01*
X142542109Y-95730807D01*
X142357337Y-95829570D01*
X142195382Y-95962482D01*
X142062470Y-96124437D01*
X141963707Y-96309210D01*
X141902890Y-96509699D01*
X141887500Y-96665954D01*
X141887500Y-97692384D01*
X141473177Y-98106707D01*
X141474700Y-98091247D01*
X141474700Y-96665953D01*
X141459310Y-96509698D01*
X141398493Y-96309209D01*
X141299730Y-96124437D01*
X141166818Y-95962482D01*
X141004863Y-95829570D01*
X140820090Y-95730807D01*
X140619601Y-95669990D01*
X140411100Y-95649454D01*
X140202598Y-95669990D01*
X140002109Y-95730807D01*
X139817337Y-95829570D01*
X139704493Y-95922178D01*
X138899429Y-95117114D01*
X138882822Y-95096878D01*
X138802088Y-95030622D01*
X138709980Y-94981389D01*
X138610037Y-94951072D01*
X138532143Y-94943400D01*
X138532140Y-94943400D01*
X138506100Y-94940835D01*
X138480060Y-94943400D01*
X134087143Y-94943400D01*
X134061100Y-94940835D01*
X134035058Y-94943400D01*
X134035057Y-94943400D01*
X133957163Y-94951072D01*
X133857220Y-94981389D01*
X133765112Y-95030622D01*
X133684378Y-95096878D01*
X133618122Y-95177612D01*
X133568889Y-95269720D01*
X133538572Y-95369663D01*
X133528335Y-95473600D01*
X133530901Y-95499653D01*
X133530901Y-95949419D01*
X133384863Y-95829570D01*
X133200090Y-95730807D01*
X132999601Y-95669990D01*
X132791100Y-95649454D01*
X132582598Y-95669990D01*
X132382109Y-95730807D01*
X132197337Y-95829570D01*
X132035382Y-95962482D01*
X131902470Y-96124437D01*
X131803707Y-96309210D01*
X131742890Y-96509699D01*
X131727500Y-96665954D01*
X131727500Y-97692385D01*
X131313177Y-98106708D01*
X131314700Y-98091247D01*
X131314700Y-96665953D01*
X131299310Y-96509698D01*
X131238493Y-96309209D01*
X131139730Y-96124437D01*
X131006818Y-95962482D01*
X130844863Y-95829570D01*
X130660090Y-95730807D01*
X130459601Y-95669990D01*
X130251100Y-95649454D01*
X130042598Y-95669990D01*
X129842109Y-95730807D01*
X129657337Y-95829570D01*
X129511300Y-95949419D01*
X129511300Y-94740715D01*
X131747602Y-92504414D01*
X131768374Y-92608841D01*
X131848550Y-92802403D01*
X131964948Y-92976605D01*
X132113095Y-93124752D01*
X132287297Y-93241150D01*
X132480859Y-93321326D01*
X132686345Y-93362200D01*
X132895855Y-93362200D01*
X133101341Y-93321326D01*
X133294903Y-93241150D01*
X133469105Y-93124752D01*
X133617252Y-92976605D01*
X133733650Y-92802403D01*
X133813826Y-92608841D01*
X133854700Y-92403355D01*
X133854700Y-92193845D01*
X133813826Y-91988359D01*
X133733650Y-91794797D01*
X133617252Y-91620595D01*
X133555457Y-91558800D01*
X134566743Y-91558800D01*
X134504948Y-91620595D01*
X134388550Y-91794797D01*
X134308374Y-91988359D01*
X134267500Y-92193845D01*
X134267500Y-92403355D01*
X134308374Y-92608841D01*
X134388550Y-92802403D01*
X134504948Y-92976605D01*
X134653095Y-93124752D01*
X134827297Y-93241150D01*
X135020859Y-93321326D01*
X135226345Y-93362200D01*
X135435855Y-93362200D01*
X135641341Y-93321326D01*
X135834903Y-93241150D01*
X136009105Y-93124752D01*
X136157252Y-92976605D01*
X136273650Y-92802403D01*
X136353826Y-92608841D01*
X136394700Y-92403355D01*
X136394700Y-92193845D01*
X136353826Y-91988359D01*
X136273650Y-91794797D01*
X136157252Y-91620595D01*
X136095457Y-91558800D01*
X138376743Y-91558800D01*
X138314948Y-91620595D01*
X138198550Y-91794797D01*
X138118374Y-91988359D01*
X138077500Y-92193845D01*
X138077500Y-92403355D01*
X138118374Y-92608841D01*
X138198550Y-92802403D01*
X138314948Y-92976605D01*
X138463095Y-93124752D01*
X138637297Y-93241150D01*
X138830859Y-93321326D01*
X139036345Y-93362200D01*
X139245855Y-93362200D01*
X139451341Y-93321326D01*
X139644903Y-93241150D01*
X139819105Y-93124752D01*
X139967252Y-92976605D01*
X140083650Y-92802403D01*
X140163826Y-92608841D01*
X140204700Y-92403355D01*
X140204700Y-92193845D01*
X140617500Y-92193845D01*
X140617500Y-92403355D01*
X140658374Y-92608841D01*
X140738550Y-92802403D01*
X140854948Y-92976605D01*
X141003095Y-93124752D01*
X141177297Y-93241150D01*
X141370859Y-93321326D01*
X141576345Y-93362200D01*
X141785855Y-93362200D01*
X141991341Y-93321326D01*
X142184903Y-93241150D01*
X142359105Y-93124752D01*
X142507252Y-92976605D01*
X142623650Y-92802403D01*
X142703826Y-92608841D01*
X142744700Y-92403355D01*
X142744700Y-92193845D01*
X142703826Y-91988359D01*
X142623650Y-91794797D01*
X142507252Y-91620595D01*
X142359105Y-91472448D01*
X142184903Y-91356050D01*
X141991341Y-91275874D01*
X141785855Y-91235000D01*
X141576345Y-91235000D01*
X141370859Y-91275874D01*
X141177297Y-91356050D01*
X141003095Y-91472448D01*
X140854948Y-91620595D01*
X140738550Y-91794797D01*
X140658374Y-91988359D01*
X140617500Y-92193845D01*
X140204700Y-92193845D01*
X140163826Y-91988359D01*
X140083650Y-91794797D01*
X139967252Y-91620595D01*
X139819105Y-91472448D01*
X139671300Y-91373688D01*
X139671300Y-91054643D01*
X139673865Y-91028600D01*
X139663628Y-90924663D01*
X139663366Y-90923800D01*
X144960901Y-90923800D01*
X144960900Y-91373688D01*
X144813095Y-91472448D01*
X144664948Y-91620595D01*
X144548550Y-91794797D01*
X144468374Y-91988359D01*
X144427500Y-92193845D01*
X144427500Y-92403355D01*
X144468374Y-92608841D01*
X144548550Y-92802403D01*
X144664948Y-92976605D01*
X144813095Y-93124752D01*
X144987297Y-93241150D01*
X145180859Y-93321326D01*
X145386345Y-93362200D01*
X145595855Y-93362200D01*
X145801341Y-93321326D01*
X145994903Y-93241150D01*
X146169105Y-93124752D01*
X146317252Y-92976605D01*
X146433650Y-92802403D01*
X146513826Y-92608841D01*
X146554700Y-92403355D01*
X146554700Y-92193845D01*
X146513826Y-91988359D01*
X146433650Y-91794797D01*
X146317252Y-91620595D01*
X146169105Y-91472448D01*
X146021300Y-91373688D01*
X146021300Y-90419643D01*
X146023865Y-90393600D01*
X146013628Y-90289663D01*
X146013366Y-90288800D01*
X151310901Y-90288800D01*
X151310900Y-91373688D01*
X151310900Y-91373688D01*
G37*
X151310900Y-91373688D02*
X151163095Y-91472448D01*
X151014948Y-91620595D01*
X150898550Y-91794797D01*
X150871765Y-91859461D01*
X150867088Y-91855622D01*
X150774980Y-91806389D01*
X150675037Y-91776072D01*
X150597143Y-91768400D01*
X150571100Y-91765835D01*
X150545058Y-91768400D01*
X148956012Y-91768400D01*
X148857252Y-91620595D01*
X148709105Y-91472448D01*
X148534903Y-91356050D01*
X148341341Y-91275874D01*
X148135855Y-91235000D01*
X147926345Y-91235000D01*
X147720859Y-91275874D01*
X147527297Y-91356050D01*
X147353095Y-91472448D01*
X147204948Y-91620595D01*
X147088550Y-91794797D01*
X147008374Y-91988359D01*
X146967500Y-92193845D01*
X146967500Y-92403355D01*
X147008374Y-92608841D01*
X147088550Y-92802403D01*
X147204948Y-92976605D01*
X147353095Y-93124752D01*
X147527297Y-93241150D01*
X147720859Y-93321326D01*
X147926345Y-93362200D01*
X148135855Y-93362200D01*
X148341341Y-93321326D01*
X148534903Y-93241150D01*
X148709105Y-93124752D01*
X148857252Y-92976605D01*
X148956012Y-92828800D01*
X150083604Y-92828800D01*
X150128122Y-92912088D01*
X150194378Y-92992822D01*
X150214614Y-93009429D01*
X151765275Y-94560091D01*
X151781878Y-94580322D01*
X151862612Y-94646578D01*
X151954720Y-94695811D01*
X152054663Y-94726128D01*
X152132557Y-94733800D01*
X152132559Y-94733800D01*
X152158599Y-94736365D01*
X152184639Y-94733800D01*
X152783584Y-94733800D01*
X151484614Y-96032771D01*
X151464378Y-96049378D01*
X151431255Y-96089739D01*
X151326818Y-95962482D01*
X151164863Y-95829570D01*
X150980090Y-95730807D01*
X150779601Y-95669990D01*
X150571100Y-95649454D01*
X150362598Y-95669990D01*
X150162109Y-95730807D01*
X149977337Y-95829570D01*
X149815382Y-95962482D01*
X149682470Y-96124437D01*
X149583707Y-96309210D01*
X149522890Y-96509699D01*
X149507500Y-96665954D01*
X149507500Y-98091247D01*
X149522891Y-98247502D01*
X149583708Y-98447991D01*
X149682471Y-98632763D01*
X149815383Y-98794718D01*
X149977338Y-98927630D01*
X150162110Y-99026393D01*
X150341557Y-99080827D01*
X149262114Y-100160271D01*
X149241878Y-100176878D01*
X149175622Y-100257612D01*
X149126389Y-100349721D01*
X149096072Y-100449664D01*
X149088400Y-100527557D01*
X149085835Y-100553600D01*
X149088400Y-100579641D01*
X149088401Y-101286483D01*
X145323099Y-105051786D01*
X145263345Y-105039900D01*
X145083855Y-105039900D01*
X144907813Y-105074917D01*
X144751300Y-105139747D01*
X144751300Y-98868215D01*
X144784494Y-98835022D01*
X144897338Y-98927630D01*
X145082110Y-99026393D01*
X145282599Y-99087210D01*
X145491100Y-99107746D01*
X145699602Y-99087210D01*
X145900091Y-99026393D01*
X146084863Y-98927630D01*
X146246818Y-98794718D01*
X146379730Y-98632763D01*
X146478493Y-98447991D01*
X146539310Y-98247502D01*
X146554700Y-98091247D01*
X146554700Y-97403600D01*
X146711100Y-97403600D01*
X146711100Y-98064000D01*
X146741341Y-98321039D01*
X146821146Y-98567239D01*
X146947449Y-98793139D01*
X147115396Y-98990058D01*
X147318533Y-99150429D01*
X147549054Y-99268088D01*
X147798100Y-99338514D01*
X147799951Y-99338604D01*
X148006100Y-99193829D01*
X148006100Y-97403600D01*
X148056100Y-97403600D01*
X148056100Y-99193829D01*
X148262249Y-99338604D01*
X148264100Y-99338514D01*
X148513146Y-99268088D01*
X148743667Y-99150429D01*
X148946804Y-98990058D01*
X149114751Y-98793139D01*
X149241054Y-98567239D01*
X149320859Y-98321039D01*
X149351100Y-98064000D01*
X149351100Y-97403600D01*
X148056100Y-97403600D01*
X148006100Y-97403600D01*
X146711100Y-97403600D01*
X146554700Y-97403600D01*
X146554700Y-96693200D01*
X146711100Y-96693200D01*
X146711100Y-97353600D01*
X148006100Y-97353600D01*
X148006100Y-95563371D01*
X148056100Y-95563371D01*
X148056100Y-97353600D01*
X149351100Y-97353600D01*
X149351100Y-96693200D01*
X149320859Y-96436161D01*
X149241054Y-96189961D01*
X149114751Y-95964061D01*
X148946804Y-95767142D01*
X148743667Y-95606771D01*
X148513146Y-95489112D01*
X148264100Y-95418686D01*
X148262249Y-95418596D01*
X148056100Y-95563371D01*
X148006100Y-95563371D01*
X147799951Y-95418596D01*
X147798100Y-95418686D01*
X147549054Y-95489112D01*
X147318533Y-95606771D01*
X147115396Y-95767142D01*
X146947449Y-95964061D01*
X146821146Y-96189961D01*
X146741341Y-96436161D01*
X146711100Y-96693200D01*
X146554700Y-96693200D01*
X146554700Y-96665953D01*
X146539310Y-96509698D01*
X146478493Y-96309209D01*
X146379730Y-96124437D01*
X146246818Y-95962482D01*
X146084863Y-95829570D01*
X145900090Y-95730807D01*
X145699601Y-95669990D01*
X145491100Y-95649454D01*
X145282598Y-95669990D01*
X145082109Y-95730807D01*
X144897337Y-95829570D01*
X144735382Y-95962482D01*
X144602470Y-96124437D01*
X144503707Y-96309210D01*
X144442890Y-96509699D01*
X144427500Y-96665954D01*
X144427500Y-97692385D01*
X144013177Y-98106708D01*
X144014700Y-98091247D01*
X144014700Y-96665953D01*
X143999310Y-96509698D01*
X143938493Y-96309209D01*
X143839730Y-96124437D01*
X143706818Y-95962482D01*
X143544863Y-95829570D01*
X143360090Y-95730807D01*
X143159601Y-95669990D01*
X142951100Y-95649454D01*
X142742598Y-95669990D01*
X142542109Y-95730807D01*
X142357337Y-95829570D01*
X142195382Y-95962482D01*
X142062470Y-96124437D01*
X141963707Y-96309210D01*
X141902890Y-96509699D01*
X141887500Y-96665954D01*
X141887500Y-97692384D01*
X141473177Y-98106707D01*
X141474700Y-98091247D01*
X141474700Y-96665953D01*
X141459310Y-96509698D01*
X141398493Y-96309209D01*
X141299730Y-96124437D01*
X141166818Y-95962482D01*
X141004863Y-95829570D01*
X140820090Y-95730807D01*
X140619601Y-95669990D01*
X140411100Y-95649454D01*
X140202598Y-95669990D01*
X140002109Y-95730807D01*
X139817337Y-95829570D01*
X139704493Y-95922178D01*
X138899429Y-95117114D01*
X138882822Y-95096878D01*
X138802088Y-95030622D01*
X138709980Y-94981389D01*
X138610037Y-94951072D01*
X138532143Y-94943400D01*
X138532140Y-94943400D01*
X138506100Y-94940835D01*
X138480060Y-94943400D01*
X134087143Y-94943400D01*
X134061100Y-94940835D01*
X134035058Y-94943400D01*
X134035057Y-94943400D01*
X133957163Y-94951072D01*
X133857220Y-94981389D01*
X133765112Y-95030622D01*
X133684378Y-95096878D01*
X133618122Y-95177612D01*
X133568889Y-95269720D01*
X133538572Y-95369663D01*
X133528335Y-95473600D01*
X133530901Y-95499653D01*
X133530901Y-95949419D01*
X133384863Y-95829570D01*
X133200090Y-95730807D01*
X132999601Y-95669990D01*
X132791100Y-95649454D01*
X132582598Y-95669990D01*
X132382109Y-95730807D01*
X132197337Y-95829570D01*
X132035382Y-95962482D01*
X131902470Y-96124437D01*
X131803707Y-96309210D01*
X131742890Y-96509699D01*
X131727500Y-96665954D01*
X131727500Y-97692385D01*
X131313177Y-98106708D01*
X131314700Y-98091247D01*
X131314700Y-96665953D01*
X131299310Y-96509698D01*
X131238493Y-96309209D01*
X131139730Y-96124437D01*
X131006818Y-95962482D01*
X130844863Y-95829570D01*
X130660090Y-95730807D01*
X130459601Y-95669990D01*
X130251100Y-95649454D01*
X130042598Y-95669990D01*
X129842109Y-95730807D01*
X129657337Y-95829570D01*
X129511300Y-95949419D01*
X129511300Y-94740715D01*
X131747602Y-92504414D01*
X131768374Y-92608841D01*
X131848550Y-92802403D01*
X131964948Y-92976605D01*
X132113095Y-93124752D01*
X132287297Y-93241150D01*
X132480859Y-93321326D01*
X132686345Y-93362200D01*
X132895855Y-93362200D01*
X133101341Y-93321326D01*
X133294903Y-93241150D01*
X133469105Y-93124752D01*
X133617252Y-92976605D01*
X133733650Y-92802403D01*
X133813826Y-92608841D01*
X133854700Y-92403355D01*
X133854700Y-92193845D01*
X133813826Y-91988359D01*
X133733650Y-91794797D01*
X133617252Y-91620595D01*
X133555457Y-91558800D01*
X134566743Y-91558800D01*
X134504948Y-91620595D01*
X134388550Y-91794797D01*
X134308374Y-91988359D01*
X134267500Y-92193845D01*
X134267500Y-92403355D01*
X134308374Y-92608841D01*
X134388550Y-92802403D01*
X134504948Y-92976605D01*
X134653095Y-93124752D01*
X134827297Y-93241150D01*
X135020859Y-93321326D01*
X135226345Y-93362200D01*
X135435855Y-93362200D01*
X135641341Y-93321326D01*
X135834903Y-93241150D01*
X136009105Y-93124752D01*
X136157252Y-92976605D01*
X136273650Y-92802403D01*
X136353826Y-92608841D01*
X136394700Y-92403355D01*
X136394700Y-92193845D01*
X136353826Y-91988359D01*
X136273650Y-91794797D01*
X136157252Y-91620595D01*
X136095457Y-91558800D01*
X138376743Y-91558800D01*
X138314948Y-91620595D01*
X138198550Y-91794797D01*
X138118374Y-91988359D01*
X138077500Y-92193845D01*
X138077500Y-92403355D01*
X138118374Y-92608841D01*
X138198550Y-92802403D01*
X138314948Y-92976605D01*
X138463095Y-93124752D01*
X138637297Y-93241150D01*
X138830859Y-93321326D01*
X139036345Y-93362200D01*
X139245855Y-93362200D01*
X139451341Y-93321326D01*
X139644903Y-93241150D01*
X139819105Y-93124752D01*
X139967252Y-92976605D01*
X140083650Y-92802403D01*
X140163826Y-92608841D01*
X140204700Y-92403355D01*
X140204700Y-92193845D01*
X140617500Y-92193845D01*
X140617500Y-92403355D01*
X140658374Y-92608841D01*
X140738550Y-92802403D01*
X140854948Y-92976605D01*
X141003095Y-93124752D01*
X141177297Y-93241150D01*
X141370859Y-93321326D01*
X141576345Y-93362200D01*
X141785855Y-93362200D01*
X141991341Y-93321326D01*
X142184903Y-93241150D01*
X142359105Y-93124752D01*
X142507252Y-92976605D01*
X142623650Y-92802403D01*
X142703826Y-92608841D01*
X142744700Y-92403355D01*
X142744700Y-92193845D01*
X142703826Y-91988359D01*
X142623650Y-91794797D01*
X142507252Y-91620595D01*
X142359105Y-91472448D01*
X142184903Y-91356050D01*
X141991341Y-91275874D01*
X141785855Y-91235000D01*
X141576345Y-91235000D01*
X141370859Y-91275874D01*
X141177297Y-91356050D01*
X141003095Y-91472448D01*
X140854948Y-91620595D01*
X140738550Y-91794797D01*
X140658374Y-91988359D01*
X140617500Y-92193845D01*
X140204700Y-92193845D01*
X140163826Y-91988359D01*
X140083650Y-91794797D01*
X139967252Y-91620595D01*
X139819105Y-91472448D01*
X139671300Y-91373688D01*
X139671300Y-91054643D01*
X139673865Y-91028600D01*
X139663628Y-90924663D01*
X139663366Y-90923800D01*
X144960901Y-90923800D01*
X144960900Y-91373688D01*
X144813095Y-91472448D01*
X144664948Y-91620595D01*
X144548550Y-91794797D01*
X144468374Y-91988359D01*
X144427500Y-92193845D01*
X144427500Y-92403355D01*
X144468374Y-92608841D01*
X144548550Y-92802403D01*
X144664948Y-92976605D01*
X144813095Y-93124752D01*
X144987297Y-93241150D01*
X145180859Y-93321326D01*
X145386345Y-93362200D01*
X145595855Y-93362200D01*
X145801341Y-93321326D01*
X145994903Y-93241150D01*
X146169105Y-93124752D01*
X146317252Y-92976605D01*
X146433650Y-92802403D01*
X146513826Y-92608841D01*
X146554700Y-92403355D01*
X146554700Y-92193845D01*
X146513826Y-91988359D01*
X146433650Y-91794797D01*
X146317252Y-91620595D01*
X146169105Y-91472448D01*
X146021300Y-91373688D01*
X146021300Y-90419643D01*
X146023865Y-90393600D01*
X146013628Y-90289663D01*
X146013366Y-90288800D01*
X151310901Y-90288800D01*
X151310900Y-91373688D01*
M02*
