G04 #@! TF.GenerationSoftware,KiCad,Pcbnew,5.1.2*
G04 #@! TF.CreationDate,2020-10-23T16:09:19+02:00*
G04 #@! TF.ProjectId,a30eee2cad2c9bf698126cb1c813ad28,61333065-6565-4326-9361-643263396266,rev?*
G04 #@! TF.SameCoordinates,Original*
G04 #@! TF.FileFunction,Paste,Top*
G04 #@! TF.FilePolarity,Positive*
%FSLAX46Y46*%
G04 Gerber Fmt 4.6, Leading zero omitted, Abs format (unit mm)*
G04 Created by KiCad (PCBNEW 5.1.2) date 2020-10-23 16:09:19*
%MOMM*%
%LPD*%
G04 APERTURE LIST*
%ADD10C,0.100000*%
%ADD11R,0.400000X3.500000*%
G04 APERTURE END LIST*
D10*
G36*
X142611100Y-101298600D02*
G01*
X139811100Y-101298600D01*
X139811100Y-106298600D01*
X142611100Y-106298600D01*
X142611100Y-101298600D01*
G37*
G36*
X191811100Y-101323600D02*
G01*
X189011100Y-101323600D01*
X189011100Y-106323600D01*
X191811100Y-106323600D01*
X191811100Y-101323600D01*
G37*
D11*
X150253600Y-114158600D03*
X151523600Y-114158600D03*
X152793600Y-114158600D03*
X154063600Y-114158600D03*
X155333600Y-114158600D03*
X156603600Y-114158600D03*
X157873600Y-114158600D03*
X159143600Y-114158600D03*
X160413600Y-114158600D03*
X161683600Y-114158600D03*
X162953600Y-114158600D03*
X164223600Y-114158600D03*
X165493600Y-114158600D03*
X166763600Y-114158600D03*
X168033600Y-114158600D03*
X169303600Y-114158600D03*
X170573600Y-114158600D03*
X171843600Y-114158600D03*
X173113600Y-114158600D03*
X174383600Y-114158600D03*
X175653600Y-114158600D03*
X176923600Y-114158600D03*
X178193600Y-114158600D03*
X179463600Y-114158600D03*
X180733600Y-114158600D03*
X150888600Y-114158600D03*
X152158600Y-114158600D03*
X153428600Y-114158600D03*
X154698600Y-114158600D03*
X155968600Y-114158600D03*
X157238600Y-114158600D03*
X158508600Y-114158600D03*
X159778600Y-114158600D03*
X161048600Y-114158600D03*
X162318600Y-114158600D03*
X163588600Y-114158600D03*
X164858600Y-114158600D03*
X166128600Y-114158600D03*
X167398600Y-114158600D03*
X168668600Y-114158600D03*
X169938600Y-114158600D03*
X171208600Y-114158600D03*
X172478600Y-114158600D03*
X173748600Y-114158600D03*
X175018600Y-114158600D03*
X176288600Y-114158600D03*
X177558600Y-114158600D03*
X178828600Y-114158600D03*
X180098600Y-114158600D03*
X181368600Y-114158600D03*
M02*
