G04 #@! TF.GenerationSoftware,KiCad,Pcbnew,5.1.2*
G04 #@! TF.CreationDate,2020-10-23T16:09:20+02:00*
G04 #@! TF.ProjectId,a30eee2cad2c9bf698126cb1c813ad28,61333065-6565-4326-9361-643263396266,rev?*
G04 #@! TF.SameCoordinates,Original*
G04 #@! TF.FileFunction,Soldermask,Top*
G04 #@! TF.FilePolarity,Negative*
%FSLAX46Y46*%
G04 Gerber Fmt 4.6, Leading zero omitted, Abs format (unit mm)*
G04 Created by KiCad (PCBNEW 5.1.2) date 2020-10-23 16:09:20*
%MOMM*%
%LPD*%
G04 APERTURE LIST*
%ADD10C,0.100000*%
G04 APERTURE END LIST*
D10*
G36*
X142636100Y-101273600D02*
G01*
X139786100Y-101273600D01*
X139786100Y-106323600D01*
X142636100Y-106323600D01*
X142636100Y-101273600D01*
G37*
G36*
X191836100Y-101298600D02*
G01*
X188986100Y-101298600D01*
X188986100Y-106348600D01*
X191836100Y-106348600D01*
X191836100Y-101298600D01*
G37*
G36*
X121530394Y-118625496D02*
G01*
X121650826Y-118662029D01*
X121693187Y-118674879D01*
X121843207Y-118755066D01*
X121843210Y-118755068D01*
X121843211Y-118755069D01*
X121974712Y-118862988D01*
X122082631Y-118994488D01*
X122082633Y-118994492D01*
X122082634Y-118994493D01*
X122162821Y-119144513D01*
X122162822Y-119144516D01*
X122212204Y-119307305D01*
X122224700Y-119434180D01*
X122224700Y-121043020D01*
X122212204Y-121169895D01*
X122162822Y-121332684D01*
X122162821Y-121332687D01*
X122082634Y-121482707D01*
X122082631Y-121482712D01*
X121974712Y-121614212D01*
X121843212Y-121722131D01*
X121843208Y-121722133D01*
X121843207Y-121722134D01*
X121693187Y-121802321D01*
X121693184Y-121802322D01*
X121530395Y-121851704D01*
X121361100Y-121868378D01*
X121191806Y-121851704D01*
X121029017Y-121802322D01*
X121029014Y-121802321D01*
X120878994Y-121722134D01*
X120878993Y-121722133D01*
X120878989Y-121722131D01*
X120747489Y-121614212D01*
X120639570Y-121482712D01*
X120639567Y-121482707D01*
X120559380Y-121332687D01*
X120559379Y-121332684D01*
X120509997Y-121169895D01*
X120497501Y-121043020D01*
X120497500Y-119434181D01*
X120509996Y-119307306D01*
X120559378Y-119144517D01*
X120559379Y-119144513D01*
X120639566Y-118994493D01*
X120639570Y-118994488D01*
X120747488Y-118862988D01*
X120878988Y-118755069D01*
X120878992Y-118755067D01*
X120878993Y-118755066D01*
X121029013Y-118674879D01*
X121029016Y-118674878D01*
X121191805Y-118625496D01*
X121361100Y-118608822D01*
X121530394Y-118625496D01*
X121530394Y-118625496D01*
G37*
G36*
X124070394Y-118625496D02*
G01*
X124190826Y-118662029D01*
X124233187Y-118674879D01*
X124383207Y-118755066D01*
X124383210Y-118755068D01*
X124383211Y-118755069D01*
X124514712Y-118862988D01*
X124622631Y-118994488D01*
X124622633Y-118994492D01*
X124622634Y-118994493D01*
X124702821Y-119144513D01*
X124702822Y-119144516D01*
X124752204Y-119307305D01*
X124764700Y-119434180D01*
X124764700Y-121043020D01*
X124752204Y-121169895D01*
X124702822Y-121332684D01*
X124702821Y-121332687D01*
X124622634Y-121482707D01*
X124622631Y-121482712D01*
X124514712Y-121614212D01*
X124383212Y-121722131D01*
X124383208Y-121722133D01*
X124383207Y-121722134D01*
X124233187Y-121802321D01*
X124233184Y-121802322D01*
X124070395Y-121851704D01*
X123901100Y-121868378D01*
X123731806Y-121851704D01*
X123569017Y-121802322D01*
X123569014Y-121802321D01*
X123418994Y-121722134D01*
X123418993Y-121722133D01*
X123418989Y-121722131D01*
X123287489Y-121614212D01*
X123179570Y-121482712D01*
X123179567Y-121482707D01*
X123099380Y-121332687D01*
X123099379Y-121332684D01*
X123049997Y-121169895D01*
X123037501Y-121043020D01*
X123037500Y-119434181D01*
X123049996Y-119307306D01*
X123099378Y-119144517D01*
X123099379Y-119144513D01*
X123179566Y-118994493D01*
X123179570Y-118994488D01*
X123287488Y-118862988D01*
X123418988Y-118755069D01*
X123418992Y-118755067D01*
X123418993Y-118755066D01*
X123569013Y-118674879D01*
X123569016Y-118674878D01*
X123731805Y-118625496D01*
X123901100Y-118608822D01*
X124070394Y-118625496D01*
X124070394Y-118625496D01*
G37*
G36*
X146930394Y-118625496D02*
G01*
X147050826Y-118662029D01*
X147093187Y-118674879D01*
X147243207Y-118755066D01*
X147243210Y-118755068D01*
X147243211Y-118755069D01*
X147374712Y-118862988D01*
X147482631Y-118994488D01*
X147482633Y-118994492D01*
X147482634Y-118994493D01*
X147562821Y-119144513D01*
X147562822Y-119144516D01*
X147612204Y-119307305D01*
X147624700Y-119434180D01*
X147624700Y-121043020D01*
X147612204Y-121169895D01*
X147562822Y-121332684D01*
X147562821Y-121332687D01*
X147482634Y-121482707D01*
X147482631Y-121482712D01*
X147374712Y-121614212D01*
X147243212Y-121722131D01*
X147243208Y-121722133D01*
X147243207Y-121722134D01*
X147093187Y-121802321D01*
X147093184Y-121802322D01*
X146930395Y-121851704D01*
X146761100Y-121868378D01*
X146591806Y-121851704D01*
X146429017Y-121802322D01*
X146429014Y-121802321D01*
X146278994Y-121722134D01*
X146278993Y-121722133D01*
X146278989Y-121722131D01*
X146147489Y-121614212D01*
X146039570Y-121482712D01*
X146039567Y-121482707D01*
X145959380Y-121332687D01*
X145959379Y-121332684D01*
X145909997Y-121169895D01*
X145897501Y-121043020D01*
X145897500Y-119434181D01*
X145909996Y-119307306D01*
X145959378Y-119144517D01*
X145959379Y-119144513D01*
X146039566Y-118994493D01*
X146039570Y-118994488D01*
X146147488Y-118862988D01*
X146278988Y-118755069D01*
X146278992Y-118755067D01*
X146278993Y-118755066D01*
X146429013Y-118674879D01*
X146429016Y-118674878D01*
X146591805Y-118625496D01*
X146761100Y-118608822D01*
X146930394Y-118625496D01*
X146930394Y-118625496D01*
G37*
G36*
X144390394Y-118625496D02*
G01*
X144510826Y-118662029D01*
X144553187Y-118674879D01*
X144703207Y-118755066D01*
X144703210Y-118755068D01*
X144703211Y-118755069D01*
X144834712Y-118862988D01*
X144942631Y-118994488D01*
X144942633Y-118994492D01*
X144942634Y-118994493D01*
X145022821Y-119144513D01*
X145022822Y-119144516D01*
X145072204Y-119307305D01*
X145084700Y-119434180D01*
X145084700Y-121043020D01*
X145072204Y-121169895D01*
X145022822Y-121332684D01*
X145022821Y-121332687D01*
X144942634Y-121482707D01*
X144942631Y-121482712D01*
X144834712Y-121614212D01*
X144703212Y-121722131D01*
X144703208Y-121722133D01*
X144703207Y-121722134D01*
X144553187Y-121802321D01*
X144553184Y-121802322D01*
X144390395Y-121851704D01*
X144221100Y-121868378D01*
X144051806Y-121851704D01*
X143889017Y-121802322D01*
X143889014Y-121802321D01*
X143738994Y-121722134D01*
X143738993Y-121722133D01*
X143738989Y-121722131D01*
X143607489Y-121614212D01*
X143499570Y-121482712D01*
X143499567Y-121482707D01*
X143419380Y-121332687D01*
X143419379Y-121332684D01*
X143369997Y-121169895D01*
X143357501Y-121043020D01*
X143357500Y-119434181D01*
X143369996Y-119307306D01*
X143419378Y-119144517D01*
X143419379Y-119144513D01*
X143499566Y-118994493D01*
X143499570Y-118994488D01*
X143607488Y-118862988D01*
X143738988Y-118755069D01*
X143738992Y-118755067D01*
X143738993Y-118755066D01*
X143889013Y-118674879D01*
X143889016Y-118674878D01*
X144051805Y-118625496D01*
X144221100Y-118608822D01*
X144390394Y-118625496D01*
X144390394Y-118625496D01*
G37*
G36*
X141850394Y-118625496D02*
G01*
X141970826Y-118662029D01*
X142013187Y-118674879D01*
X142163207Y-118755066D01*
X142163210Y-118755068D01*
X142163211Y-118755069D01*
X142294712Y-118862988D01*
X142402631Y-118994488D01*
X142402633Y-118994492D01*
X142402634Y-118994493D01*
X142482821Y-119144513D01*
X142482822Y-119144516D01*
X142532204Y-119307305D01*
X142544700Y-119434180D01*
X142544700Y-121043020D01*
X142532204Y-121169895D01*
X142482822Y-121332684D01*
X142482821Y-121332687D01*
X142402634Y-121482707D01*
X142402631Y-121482712D01*
X142294712Y-121614212D01*
X142163212Y-121722131D01*
X142163208Y-121722133D01*
X142163207Y-121722134D01*
X142013187Y-121802321D01*
X142013184Y-121802322D01*
X141850395Y-121851704D01*
X141681100Y-121868378D01*
X141511806Y-121851704D01*
X141349017Y-121802322D01*
X141349014Y-121802321D01*
X141198994Y-121722134D01*
X141198993Y-121722133D01*
X141198989Y-121722131D01*
X141067489Y-121614212D01*
X140959570Y-121482712D01*
X140959567Y-121482707D01*
X140879380Y-121332687D01*
X140879379Y-121332684D01*
X140829997Y-121169895D01*
X140817501Y-121043020D01*
X140817500Y-119434181D01*
X140829996Y-119307306D01*
X140879378Y-119144517D01*
X140879379Y-119144513D01*
X140959566Y-118994493D01*
X140959570Y-118994488D01*
X141067488Y-118862988D01*
X141198988Y-118755069D01*
X141198992Y-118755067D01*
X141198993Y-118755066D01*
X141349013Y-118674879D01*
X141349016Y-118674878D01*
X141511805Y-118625496D01*
X141681100Y-118608822D01*
X141850394Y-118625496D01*
X141850394Y-118625496D01*
G37*
G36*
X139310394Y-118625496D02*
G01*
X139430826Y-118662029D01*
X139473187Y-118674879D01*
X139623207Y-118755066D01*
X139623210Y-118755068D01*
X139623211Y-118755069D01*
X139754712Y-118862988D01*
X139862631Y-118994488D01*
X139862633Y-118994492D01*
X139862634Y-118994493D01*
X139942821Y-119144513D01*
X139942822Y-119144516D01*
X139992204Y-119307305D01*
X140004700Y-119434180D01*
X140004700Y-121043020D01*
X139992204Y-121169895D01*
X139942822Y-121332684D01*
X139942821Y-121332687D01*
X139862634Y-121482707D01*
X139862631Y-121482712D01*
X139754712Y-121614212D01*
X139623212Y-121722131D01*
X139623208Y-121722133D01*
X139623207Y-121722134D01*
X139473187Y-121802321D01*
X139473184Y-121802322D01*
X139310395Y-121851704D01*
X139141100Y-121868378D01*
X138971806Y-121851704D01*
X138809017Y-121802322D01*
X138809014Y-121802321D01*
X138658994Y-121722134D01*
X138658993Y-121722133D01*
X138658989Y-121722131D01*
X138527489Y-121614212D01*
X138419570Y-121482712D01*
X138419567Y-121482707D01*
X138339380Y-121332687D01*
X138339379Y-121332684D01*
X138289997Y-121169895D01*
X138277501Y-121043020D01*
X138277500Y-119434181D01*
X138289996Y-119307306D01*
X138339378Y-119144517D01*
X138339379Y-119144513D01*
X138419566Y-118994493D01*
X138419570Y-118994488D01*
X138527488Y-118862988D01*
X138658988Y-118755069D01*
X138658992Y-118755067D01*
X138658993Y-118755066D01*
X138809013Y-118674879D01*
X138809016Y-118674878D01*
X138971805Y-118625496D01*
X139141100Y-118608822D01*
X139310394Y-118625496D01*
X139310394Y-118625496D01*
G37*
G36*
X136770394Y-118625496D02*
G01*
X136890826Y-118662029D01*
X136933187Y-118674879D01*
X137083207Y-118755066D01*
X137083210Y-118755068D01*
X137083211Y-118755069D01*
X137214712Y-118862988D01*
X137322631Y-118994488D01*
X137322633Y-118994492D01*
X137322634Y-118994493D01*
X137402821Y-119144513D01*
X137402822Y-119144516D01*
X137452204Y-119307305D01*
X137464700Y-119434180D01*
X137464700Y-121043020D01*
X137452204Y-121169895D01*
X137402822Y-121332684D01*
X137402821Y-121332687D01*
X137322634Y-121482707D01*
X137322631Y-121482712D01*
X137214712Y-121614212D01*
X137083212Y-121722131D01*
X137083208Y-121722133D01*
X137083207Y-121722134D01*
X136933187Y-121802321D01*
X136933184Y-121802322D01*
X136770395Y-121851704D01*
X136601100Y-121868378D01*
X136431806Y-121851704D01*
X136269017Y-121802322D01*
X136269014Y-121802321D01*
X136118994Y-121722134D01*
X136118993Y-121722133D01*
X136118989Y-121722131D01*
X135987489Y-121614212D01*
X135879570Y-121482712D01*
X135879567Y-121482707D01*
X135799380Y-121332687D01*
X135799379Y-121332684D01*
X135749997Y-121169895D01*
X135737501Y-121043020D01*
X135737500Y-119434181D01*
X135749996Y-119307306D01*
X135799378Y-119144517D01*
X135799379Y-119144513D01*
X135879566Y-118994493D01*
X135879570Y-118994488D01*
X135987488Y-118862988D01*
X136118988Y-118755069D01*
X136118992Y-118755067D01*
X136118993Y-118755066D01*
X136269013Y-118674879D01*
X136269016Y-118674878D01*
X136431805Y-118625496D01*
X136601100Y-118608822D01*
X136770394Y-118625496D01*
X136770394Y-118625496D01*
G37*
G36*
X134230394Y-118625496D02*
G01*
X134350826Y-118662029D01*
X134393187Y-118674879D01*
X134543207Y-118755066D01*
X134543210Y-118755068D01*
X134543211Y-118755069D01*
X134674712Y-118862988D01*
X134782631Y-118994488D01*
X134782633Y-118994492D01*
X134782634Y-118994493D01*
X134862821Y-119144513D01*
X134862822Y-119144516D01*
X134912204Y-119307305D01*
X134924700Y-119434180D01*
X134924700Y-121043020D01*
X134912204Y-121169895D01*
X134862822Y-121332684D01*
X134862821Y-121332687D01*
X134782634Y-121482707D01*
X134782631Y-121482712D01*
X134674712Y-121614212D01*
X134543212Y-121722131D01*
X134543208Y-121722133D01*
X134543207Y-121722134D01*
X134393187Y-121802321D01*
X134393184Y-121802322D01*
X134230395Y-121851704D01*
X134061100Y-121868378D01*
X133891806Y-121851704D01*
X133729017Y-121802322D01*
X133729014Y-121802321D01*
X133578994Y-121722134D01*
X133578993Y-121722133D01*
X133578989Y-121722131D01*
X133447489Y-121614212D01*
X133339570Y-121482712D01*
X133339567Y-121482707D01*
X133259380Y-121332687D01*
X133259379Y-121332684D01*
X133209997Y-121169895D01*
X133197501Y-121043020D01*
X133197500Y-119434181D01*
X133209996Y-119307306D01*
X133259378Y-119144517D01*
X133259379Y-119144513D01*
X133339566Y-118994493D01*
X133339570Y-118994488D01*
X133447488Y-118862988D01*
X133578988Y-118755069D01*
X133578992Y-118755067D01*
X133578993Y-118755066D01*
X133729013Y-118674879D01*
X133729016Y-118674878D01*
X133891805Y-118625496D01*
X134061100Y-118608822D01*
X134230394Y-118625496D01*
X134230394Y-118625496D01*
G37*
G36*
X131690394Y-118625496D02*
G01*
X131810826Y-118662029D01*
X131853187Y-118674879D01*
X132003207Y-118755066D01*
X132003210Y-118755068D01*
X132003211Y-118755069D01*
X132134712Y-118862988D01*
X132242631Y-118994488D01*
X132242633Y-118994492D01*
X132242634Y-118994493D01*
X132322821Y-119144513D01*
X132322822Y-119144516D01*
X132372204Y-119307305D01*
X132384700Y-119434180D01*
X132384700Y-121043020D01*
X132372204Y-121169895D01*
X132322822Y-121332684D01*
X132322821Y-121332687D01*
X132242634Y-121482707D01*
X132242631Y-121482712D01*
X132134712Y-121614212D01*
X132003212Y-121722131D01*
X132003208Y-121722133D01*
X132003207Y-121722134D01*
X131853187Y-121802321D01*
X131853184Y-121802322D01*
X131690395Y-121851704D01*
X131521100Y-121868378D01*
X131351806Y-121851704D01*
X131189017Y-121802322D01*
X131189014Y-121802321D01*
X131038994Y-121722134D01*
X131038993Y-121722133D01*
X131038989Y-121722131D01*
X130907489Y-121614212D01*
X130799570Y-121482712D01*
X130799567Y-121482707D01*
X130719380Y-121332687D01*
X130719379Y-121332684D01*
X130669997Y-121169895D01*
X130657501Y-121043020D01*
X130657500Y-119434181D01*
X130669996Y-119307306D01*
X130719378Y-119144517D01*
X130719379Y-119144513D01*
X130799566Y-118994493D01*
X130799570Y-118994488D01*
X130907488Y-118862988D01*
X131038988Y-118755069D01*
X131038992Y-118755067D01*
X131038993Y-118755066D01*
X131189013Y-118674879D01*
X131189016Y-118674878D01*
X131351805Y-118625496D01*
X131521100Y-118608822D01*
X131690394Y-118625496D01*
X131690394Y-118625496D01*
G37*
G36*
X129150394Y-118625496D02*
G01*
X129270826Y-118662029D01*
X129313187Y-118674879D01*
X129463207Y-118755066D01*
X129463210Y-118755068D01*
X129463211Y-118755069D01*
X129594712Y-118862988D01*
X129702631Y-118994488D01*
X129702633Y-118994492D01*
X129702634Y-118994493D01*
X129782821Y-119144513D01*
X129782822Y-119144516D01*
X129832204Y-119307305D01*
X129844700Y-119434180D01*
X129844700Y-121043020D01*
X129832204Y-121169895D01*
X129782822Y-121332684D01*
X129782821Y-121332687D01*
X129702634Y-121482707D01*
X129702631Y-121482712D01*
X129594712Y-121614212D01*
X129463212Y-121722131D01*
X129463208Y-121722133D01*
X129463207Y-121722134D01*
X129313187Y-121802321D01*
X129313184Y-121802322D01*
X129150395Y-121851704D01*
X128981100Y-121868378D01*
X128811806Y-121851704D01*
X128649017Y-121802322D01*
X128649014Y-121802321D01*
X128498994Y-121722134D01*
X128498993Y-121722133D01*
X128498989Y-121722131D01*
X128367489Y-121614212D01*
X128259570Y-121482712D01*
X128259567Y-121482707D01*
X128179380Y-121332687D01*
X128179379Y-121332684D01*
X128129997Y-121169895D01*
X128117501Y-121043020D01*
X128117500Y-119434181D01*
X128129996Y-119307306D01*
X128179378Y-119144517D01*
X128179379Y-119144513D01*
X128259566Y-118994493D01*
X128259570Y-118994488D01*
X128367488Y-118862988D01*
X128498988Y-118755069D01*
X128498992Y-118755067D01*
X128498993Y-118755066D01*
X128649013Y-118674879D01*
X128649016Y-118674878D01*
X128811805Y-118625496D01*
X128981100Y-118608822D01*
X129150394Y-118625496D01*
X129150394Y-118625496D01*
G37*
G36*
X126610394Y-118625496D02*
G01*
X126730826Y-118662029D01*
X126773187Y-118674879D01*
X126923207Y-118755066D01*
X126923210Y-118755068D01*
X126923211Y-118755069D01*
X127054712Y-118862988D01*
X127162631Y-118994488D01*
X127162633Y-118994492D01*
X127162634Y-118994493D01*
X127242821Y-119144513D01*
X127242822Y-119144516D01*
X127292204Y-119307305D01*
X127304700Y-119434180D01*
X127304700Y-121043020D01*
X127292204Y-121169895D01*
X127242822Y-121332684D01*
X127242821Y-121332687D01*
X127162634Y-121482707D01*
X127162631Y-121482712D01*
X127054712Y-121614212D01*
X126923212Y-121722131D01*
X126923208Y-121722133D01*
X126923207Y-121722134D01*
X126773187Y-121802321D01*
X126773184Y-121802322D01*
X126610395Y-121851704D01*
X126441100Y-121868378D01*
X126271806Y-121851704D01*
X126109017Y-121802322D01*
X126109014Y-121802321D01*
X125958994Y-121722134D01*
X125958993Y-121722133D01*
X125958989Y-121722131D01*
X125827489Y-121614212D01*
X125719570Y-121482712D01*
X125719567Y-121482707D01*
X125639380Y-121332687D01*
X125639379Y-121332684D01*
X125589997Y-121169895D01*
X125577501Y-121043020D01*
X125577500Y-119434181D01*
X125589996Y-119307306D01*
X125639378Y-119144517D01*
X125639379Y-119144513D01*
X125719566Y-118994493D01*
X125719570Y-118994488D01*
X125827488Y-118862988D01*
X125958988Y-118755069D01*
X125958992Y-118755067D01*
X125958993Y-118755066D01*
X126109013Y-118674879D01*
X126109016Y-118674878D01*
X126271805Y-118625496D01*
X126441100Y-118608822D01*
X126610394Y-118625496D01*
X126610394Y-118625496D01*
G37*
G36*
X197730394Y-118625496D02*
G01*
X197850826Y-118662029D01*
X197893187Y-118674879D01*
X198043207Y-118755066D01*
X198043210Y-118755068D01*
X198043211Y-118755069D01*
X198174712Y-118862988D01*
X198282631Y-118994488D01*
X198282633Y-118994492D01*
X198282634Y-118994493D01*
X198362821Y-119144513D01*
X198362822Y-119144516D01*
X198412204Y-119307305D01*
X198424700Y-119434180D01*
X198424700Y-121043020D01*
X198412204Y-121169895D01*
X198362822Y-121332684D01*
X198362821Y-121332687D01*
X198282634Y-121482707D01*
X198282631Y-121482712D01*
X198174712Y-121614212D01*
X198043212Y-121722131D01*
X198043208Y-121722133D01*
X198043207Y-121722134D01*
X197893187Y-121802321D01*
X197893184Y-121802322D01*
X197730395Y-121851704D01*
X197561100Y-121868378D01*
X197391806Y-121851704D01*
X197229017Y-121802322D01*
X197229014Y-121802321D01*
X197078994Y-121722134D01*
X197078993Y-121722133D01*
X197078989Y-121722131D01*
X196947489Y-121614212D01*
X196839570Y-121482712D01*
X196839567Y-121482707D01*
X196759380Y-121332687D01*
X196759379Y-121332684D01*
X196709997Y-121169895D01*
X196697501Y-121043020D01*
X196697500Y-119434181D01*
X196709996Y-119307306D01*
X196759378Y-119144517D01*
X196759379Y-119144513D01*
X196839566Y-118994493D01*
X196839570Y-118994488D01*
X196947488Y-118862988D01*
X197078988Y-118755069D01*
X197078992Y-118755067D01*
X197078993Y-118755066D01*
X197229013Y-118674879D01*
X197229016Y-118674878D01*
X197391805Y-118625496D01*
X197561100Y-118608822D01*
X197730394Y-118625496D01*
X197730394Y-118625496D01*
G37*
G36*
X118990394Y-118625496D02*
G01*
X119110826Y-118662029D01*
X119153187Y-118674879D01*
X119303207Y-118755066D01*
X119303210Y-118755068D01*
X119303211Y-118755069D01*
X119434712Y-118862988D01*
X119542631Y-118994488D01*
X119542633Y-118994492D01*
X119542634Y-118994493D01*
X119622821Y-119144513D01*
X119622822Y-119144516D01*
X119672204Y-119307305D01*
X119684700Y-119434180D01*
X119684700Y-121043020D01*
X119672204Y-121169895D01*
X119622822Y-121332684D01*
X119622821Y-121332687D01*
X119542634Y-121482707D01*
X119542631Y-121482712D01*
X119434712Y-121614212D01*
X119303212Y-121722131D01*
X119303208Y-121722133D01*
X119303207Y-121722134D01*
X119153187Y-121802321D01*
X119153184Y-121802322D01*
X118990395Y-121851704D01*
X118821100Y-121868378D01*
X118651806Y-121851704D01*
X118489017Y-121802322D01*
X118489014Y-121802321D01*
X118338994Y-121722134D01*
X118338993Y-121722133D01*
X118338989Y-121722131D01*
X118207489Y-121614212D01*
X118099570Y-121482712D01*
X118099567Y-121482707D01*
X118019380Y-121332687D01*
X118019379Y-121332684D01*
X117969997Y-121169895D01*
X117957501Y-121043020D01*
X117957500Y-119434181D01*
X117969996Y-119307306D01*
X118019378Y-119144517D01*
X118019379Y-119144513D01*
X118099566Y-118994493D01*
X118099570Y-118994488D01*
X118207488Y-118862988D01*
X118338988Y-118755069D01*
X118338992Y-118755067D01*
X118338993Y-118755066D01*
X118489013Y-118674879D01*
X118489016Y-118674878D01*
X118651805Y-118625496D01*
X118821100Y-118608822D01*
X118990394Y-118625496D01*
X118990394Y-118625496D01*
G37*
G36*
X116450394Y-118625496D02*
G01*
X116570826Y-118662029D01*
X116613187Y-118674879D01*
X116763207Y-118755066D01*
X116763210Y-118755068D01*
X116763211Y-118755069D01*
X116894712Y-118862988D01*
X117002631Y-118994488D01*
X117002633Y-118994492D01*
X117002634Y-118994493D01*
X117082821Y-119144513D01*
X117082822Y-119144516D01*
X117132204Y-119307305D01*
X117144700Y-119434180D01*
X117144700Y-121043020D01*
X117132204Y-121169895D01*
X117082822Y-121332684D01*
X117082821Y-121332687D01*
X117002634Y-121482707D01*
X117002631Y-121482712D01*
X116894712Y-121614212D01*
X116763212Y-121722131D01*
X116763208Y-121722133D01*
X116763207Y-121722134D01*
X116613187Y-121802321D01*
X116613184Y-121802322D01*
X116450395Y-121851704D01*
X116281100Y-121868378D01*
X116111806Y-121851704D01*
X115949017Y-121802322D01*
X115949014Y-121802321D01*
X115798994Y-121722134D01*
X115798993Y-121722133D01*
X115798989Y-121722131D01*
X115667489Y-121614212D01*
X115559570Y-121482712D01*
X115559567Y-121482707D01*
X115479380Y-121332687D01*
X115479379Y-121332684D01*
X115429997Y-121169895D01*
X115417501Y-121043020D01*
X115417500Y-119434181D01*
X115429996Y-119307306D01*
X115479378Y-119144517D01*
X115479379Y-119144513D01*
X115559566Y-118994493D01*
X115559570Y-118994488D01*
X115667488Y-118862988D01*
X115798988Y-118755069D01*
X115798992Y-118755067D01*
X115798993Y-118755066D01*
X115949013Y-118674879D01*
X115949016Y-118674878D01*
X116111805Y-118625496D01*
X116281100Y-118608822D01*
X116450394Y-118625496D01*
X116450394Y-118625496D01*
G37*
G36*
X113910394Y-118625496D02*
G01*
X114030826Y-118662029D01*
X114073187Y-118674879D01*
X114223207Y-118755066D01*
X114223210Y-118755068D01*
X114223211Y-118755069D01*
X114354712Y-118862988D01*
X114462631Y-118994488D01*
X114462633Y-118994492D01*
X114462634Y-118994493D01*
X114542821Y-119144513D01*
X114542822Y-119144516D01*
X114592204Y-119307305D01*
X114604700Y-119434180D01*
X114604700Y-121043020D01*
X114592204Y-121169895D01*
X114542822Y-121332684D01*
X114542821Y-121332687D01*
X114462634Y-121482707D01*
X114462631Y-121482712D01*
X114354712Y-121614212D01*
X114223212Y-121722131D01*
X114223208Y-121722133D01*
X114223207Y-121722134D01*
X114073187Y-121802321D01*
X114073184Y-121802322D01*
X113910395Y-121851704D01*
X113741100Y-121868378D01*
X113571806Y-121851704D01*
X113409017Y-121802322D01*
X113409014Y-121802321D01*
X113258994Y-121722134D01*
X113258993Y-121722133D01*
X113258989Y-121722131D01*
X113127489Y-121614212D01*
X113019570Y-121482712D01*
X113019567Y-121482707D01*
X112939380Y-121332687D01*
X112939379Y-121332684D01*
X112889997Y-121169895D01*
X112877501Y-121043020D01*
X112877500Y-119434181D01*
X112889996Y-119307306D01*
X112939378Y-119144517D01*
X112939379Y-119144513D01*
X113019566Y-118994493D01*
X113019570Y-118994488D01*
X113127488Y-118862988D01*
X113258988Y-118755069D01*
X113258992Y-118755067D01*
X113258993Y-118755066D01*
X113409013Y-118674879D01*
X113409016Y-118674878D01*
X113571805Y-118625496D01*
X113741100Y-118608822D01*
X113910394Y-118625496D01*
X113910394Y-118625496D01*
G37*
G36*
X111370394Y-118625496D02*
G01*
X111490826Y-118662029D01*
X111533187Y-118674879D01*
X111683207Y-118755066D01*
X111683210Y-118755068D01*
X111683211Y-118755069D01*
X111814712Y-118862988D01*
X111922631Y-118994488D01*
X111922633Y-118994492D01*
X111922634Y-118994493D01*
X112002821Y-119144513D01*
X112002822Y-119144516D01*
X112052204Y-119307305D01*
X112064700Y-119434180D01*
X112064700Y-121043020D01*
X112052204Y-121169895D01*
X112002822Y-121332684D01*
X112002821Y-121332687D01*
X111922634Y-121482707D01*
X111922631Y-121482712D01*
X111814712Y-121614212D01*
X111683212Y-121722131D01*
X111683208Y-121722133D01*
X111683207Y-121722134D01*
X111533187Y-121802321D01*
X111533184Y-121802322D01*
X111370395Y-121851704D01*
X111201100Y-121868378D01*
X111031806Y-121851704D01*
X110869017Y-121802322D01*
X110869014Y-121802321D01*
X110718994Y-121722134D01*
X110718993Y-121722133D01*
X110718989Y-121722131D01*
X110587489Y-121614212D01*
X110479570Y-121482712D01*
X110479567Y-121482707D01*
X110399380Y-121332687D01*
X110399379Y-121332684D01*
X110349997Y-121169895D01*
X110337501Y-121043020D01*
X110337500Y-119434181D01*
X110349996Y-119307306D01*
X110399378Y-119144517D01*
X110399379Y-119144513D01*
X110479566Y-118994493D01*
X110479570Y-118994488D01*
X110587488Y-118862988D01*
X110718988Y-118755069D01*
X110718992Y-118755067D01*
X110718993Y-118755066D01*
X110869013Y-118674879D01*
X110869016Y-118674878D01*
X111031805Y-118625496D01*
X111201100Y-118608822D01*
X111370394Y-118625496D01*
X111370394Y-118625496D01*
G37*
G36*
X108830394Y-118625496D02*
G01*
X108950826Y-118662029D01*
X108993187Y-118674879D01*
X109143207Y-118755066D01*
X109143210Y-118755068D01*
X109143211Y-118755069D01*
X109274712Y-118862988D01*
X109382631Y-118994488D01*
X109382633Y-118994492D01*
X109382634Y-118994493D01*
X109462821Y-119144513D01*
X109462822Y-119144516D01*
X109512204Y-119307305D01*
X109524700Y-119434180D01*
X109524700Y-121043020D01*
X109512204Y-121169895D01*
X109462822Y-121332684D01*
X109462821Y-121332687D01*
X109382634Y-121482707D01*
X109382631Y-121482712D01*
X109274712Y-121614212D01*
X109143212Y-121722131D01*
X109143208Y-121722133D01*
X109143207Y-121722134D01*
X108993187Y-121802321D01*
X108993184Y-121802322D01*
X108830395Y-121851704D01*
X108661100Y-121868378D01*
X108491806Y-121851704D01*
X108329017Y-121802322D01*
X108329014Y-121802321D01*
X108178994Y-121722134D01*
X108178993Y-121722133D01*
X108178989Y-121722131D01*
X108047489Y-121614212D01*
X107939570Y-121482712D01*
X107939567Y-121482707D01*
X107859380Y-121332687D01*
X107859379Y-121332684D01*
X107809997Y-121169895D01*
X107797501Y-121043020D01*
X107797500Y-119434181D01*
X107809996Y-119307306D01*
X107859378Y-119144517D01*
X107859379Y-119144513D01*
X107939566Y-118994493D01*
X107939570Y-118994488D01*
X108047488Y-118862988D01*
X108178988Y-118755069D01*
X108178992Y-118755067D01*
X108178993Y-118755066D01*
X108329013Y-118674879D01*
X108329016Y-118674878D01*
X108491805Y-118625496D01*
X108661100Y-118608822D01*
X108830394Y-118625496D01*
X108830394Y-118625496D01*
G37*
G36*
X106290394Y-118625496D02*
G01*
X106410826Y-118662029D01*
X106453187Y-118674879D01*
X106603207Y-118755066D01*
X106603210Y-118755068D01*
X106603211Y-118755069D01*
X106734712Y-118862988D01*
X106842631Y-118994488D01*
X106842633Y-118994492D01*
X106842634Y-118994493D01*
X106922821Y-119144513D01*
X106922822Y-119144516D01*
X106972204Y-119307305D01*
X106984700Y-119434180D01*
X106984700Y-121043020D01*
X106972204Y-121169895D01*
X106922822Y-121332684D01*
X106922821Y-121332687D01*
X106842634Y-121482707D01*
X106842631Y-121482712D01*
X106734712Y-121614212D01*
X106603212Y-121722131D01*
X106603208Y-121722133D01*
X106603207Y-121722134D01*
X106453187Y-121802321D01*
X106453184Y-121802322D01*
X106290395Y-121851704D01*
X106121100Y-121868378D01*
X105951806Y-121851704D01*
X105789017Y-121802322D01*
X105789014Y-121802321D01*
X105638994Y-121722134D01*
X105638993Y-121722133D01*
X105638989Y-121722131D01*
X105507489Y-121614212D01*
X105399570Y-121482712D01*
X105399567Y-121482707D01*
X105319380Y-121332687D01*
X105319379Y-121332684D01*
X105269997Y-121169895D01*
X105257501Y-121043020D01*
X105257500Y-119434181D01*
X105269996Y-119307306D01*
X105319378Y-119144517D01*
X105319379Y-119144513D01*
X105399566Y-118994493D01*
X105399570Y-118994488D01*
X105507488Y-118862988D01*
X105638988Y-118755069D01*
X105638992Y-118755067D01*
X105638993Y-118755066D01*
X105789013Y-118674879D01*
X105789016Y-118674878D01*
X105951805Y-118625496D01*
X106121100Y-118608822D01*
X106290394Y-118625496D01*
X106290394Y-118625496D01*
G37*
G36*
X101210394Y-118625496D02*
G01*
X101330826Y-118662029D01*
X101373187Y-118674879D01*
X101523207Y-118755066D01*
X101523210Y-118755068D01*
X101523211Y-118755069D01*
X101654712Y-118862988D01*
X101762631Y-118994488D01*
X101762633Y-118994492D01*
X101762634Y-118994493D01*
X101842821Y-119144513D01*
X101842822Y-119144516D01*
X101892204Y-119307305D01*
X101904700Y-119434180D01*
X101904700Y-121043020D01*
X101892204Y-121169895D01*
X101842822Y-121332684D01*
X101842821Y-121332687D01*
X101762634Y-121482707D01*
X101762631Y-121482712D01*
X101654712Y-121614212D01*
X101523212Y-121722131D01*
X101523208Y-121722133D01*
X101523207Y-121722134D01*
X101373187Y-121802321D01*
X101373184Y-121802322D01*
X101210395Y-121851704D01*
X101041100Y-121868378D01*
X100871806Y-121851704D01*
X100709017Y-121802322D01*
X100709014Y-121802321D01*
X100558994Y-121722134D01*
X100558993Y-121722133D01*
X100558989Y-121722131D01*
X100427489Y-121614212D01*
X100319570Y-121482712D01*
X100319567Y-121482707D01*
X100239380Y-121332687D01*
X100239379Y-121332684D01*
X100189997Y-121169895D01*
X100177501Y-121043020D01*
X100177500Y-119434181D01*
X100189996Y-119307306D01*
X100239378Y-119144517D01*
X100239379Y-119144513D01*
X100319566Y-118994493D01*
X100319570Y-118994488D01*
X100427488Y-118862988D01*
X100558988Y-118755069D01*
X100558992Y-118755067D01*
X100558993Y-118755066D01*
X100709013Y-118674879D01*
X100709016Y-118674878D01*
X100871805Y-118625496D01*
X101041100Y-118608822D01*
X101210394Y-118625496D01*
X101210394Y-118625496D01*
G37*
G36*
X98670394Y-118625496D02*
G01*
X98790826Y-118662029D01*
X98833187Y-118674879D01*
X98983207Y-118755066D01*
X98983210Y-118755068D01*
X98983211Y-118755069D01*
X99114712Y-118862988D01*
X99222631Y-118994488D01*
X99222633Y-118994492D01*
X99222634Y-118994493D01*
X99302821Y-119144513D01*
X99302822Y-119144516D01*
X99352204Y-119307305D01*
X99364700Y-119434180D01*
X99364700Y-121043020D01*
X99352204Y-121169895D01*
X99302822Y-121332684D01*
X99302821Y-121332687D01*
X99222634Y-121482707D01*
X99222631Y-121482712D01*
X99114712Y-121614212D01*
X98983212Y-121722131D01*
X98983208Y-121722133D01*
X98983207Y-121722134D01*
X98833187Y-121802321D01*
X98833184Y-121802322D01*
X98670395Y-121851704D01*
X98501100Y-121868378D01*
X98331806Y-121851704D01*
X98169017Y-121802322D01*
X98169014Y-121802321D01*
X98018994Y-121722134D01*
X98018993Y-121722133D01*
X98018989Y-121722131D01*
X97887489Y-121614212D01*
X97779570Y-121482712D01*
X97779567Y-121482707D01*
X97699380Y-121332687D01*
X97699379Y-121332684D01*
X97649997Y-121169895D01*
X97637501Y-121043020D01*
X97637500Y-119434181D01*
X97649996Y-119307306D01*
X97699378Y-119144517D01*
X97699379Y-119144513D01*
X97779566Y-118994493D01*
X97779570Y-118994488D01*
X97887488Y-118862988D01*
X98018988Y-118755069D01*
X98018992Y-118755067D01*
X98018993Y-118755066D01*
X98169013Y-118674879D01*
X98169016Y-118674878D01*
X98331805Y-118625496D01*
X98501100Y-118608822D01*
X98670394Y-118625496D01*
X98670394Y-118625496D01*
G37*
G36*
X172330394Y-118625496D02*
G01*
X172450826Y-118662029D01*
X172493187Y-118674879D01*
X172643207Y-118755066D01*
X172643210Y-118755068D01*
X172643211Y-118755069D01*
X172774712Y-118862988D01*
X172882631Y-118994488D01*
X172882633Y-118994492D01*
X172882634Y-118994493D01*
X172962821Y-119144513D01*
X172962822Y-119144516D01*
X173012204Y-119307305D01*
X173024700Y-119434180D01*
X173024700Y-121043020D01*
X173012204Y-121169895D01*
X172962822Y-121332684D01*
X172962821Y-121332687D01*
X172882634Y-121482707D01*
X172882631Y-121482712D01*
X172774712Y-121614212D01*
X172643212Y-121722131D01*
X172643208Y-121722133D01*
X172643207Y-121722134D01*
X172493187Y-121802321D01*
X172493184Y-121802322D01*
X172330395Y-121851704D01*
X172161100Y-121868378D01*
X171991806Y-121851704D01*
X171829017Y-121802322D01*
X171829014Y-121802321D01*
X171678994Y-121722134D01*
X171678993Y-121722133D01*
X171678989Y-121722131D01*
X171547489Y-121614212D01*
X171439570Y-121482712D01*
X171439567Y-121482707D01*
X171359380Y-121332687D01*
X171359379Y-121332684D01*
X171309997Y-121169895D01*
X171297501Y-121043020D01*
X171297500Y-119434181D01*
X171309996Y-119307306D01*
X171359378Y-119144517D01*
X171359379Y-119144513D01*
X171439566Y-118994493D01*
X171439570Y-118994488D01*
X171547488Y-118862988D01*
X171678988Y-118755069D01*
X171678992Y-118755067D01*
X171678993Y-118755066D01*
X171829013Y-118674879D01*
X171829016Y-118674878D01*
X171991805Y-118625496D01*
X172161100Y-118608822D01*
X172330394Y-118625496D01*
X172330394Y-118625496D01*
G37*
G36*
X152010394Y-118625496D02*
G01*
X152130826Y-118662029D01*
X152173187Y-118674879D01*
X152323207Y-118755066D01*
X152323210Y-118755068D01*
X152323211Y-118755069D01*
X152454712Y-118862988D01*
X152562631Y-118994488D01*
X152562633Y-118994492D01*
X152562634Y-118994493D01*
X152642821Y-119144513D01*
X152642822Y-119144516D01*
X152692204Y-119307305D01*
X152704700Y-119434180D01*
X152704700Y-121043020D01*
X152692204Y-121169895D01*
X152642822Y-121332684D01*
X152642821Y-121332687D01*
X152562634Y-121482707D01*
X152562631Y-121482712D01*
X152454712Y-121614212D01*
X152323212Y-121722131D01*
X152323208Y-121722133D01*
X152323207Y-121722134D01*
X152173187Y-121802321D01*
X152173184Y-121802322D01*
X152010395Y-121851704D01*
X151841100Y-121868378D01*
X151671806Y-121851704D01*
X151509017Y-121802322D01*
X151509014Y-121802321D01*
X151358994Y-121722134D01*
X151358993Y-121722133D01*
X151358989Y-121722131D01*
X151227489Y-121614212D01*
X151119570Y-121482712D01*
X151119567Y-121482707D01*
X151039380Y-121332687D01*
X151039379Y-121332684D01*
X150989997Y-121169895D01*
X150977501Y-121043020D01*
X150977500Y-119434181D01*
X150989996Y-119307306D01*
X151039378Y-119144517D01*
X151039379Y-119144513D01*
X151119566Y-118994493D01*
X151119570Y-118994488D01*
X151227488Y-118862988D01*
X151358988Y-118755069D01*
X151358992Y-118755067D01*
X151358993Y-118755066D01*
X151509013Y-118674879D01*
X151509016Y-118674878D01*
X151671805Y-118625496D01*
X151841100Y-118608822D01*
X152010394Y-118625496D01*
X152010394Y-118625496D01*
G37*
G36*
X149470394Y-118625496D02*
G01*
X149590826Y-118662029D01*
X149633187Y-118674879D01*
X149783207Y-118755066D01*
X149783210Y-118755068D01*
X149783211Y-118755069D01*
X149914712Y-118862988D01*
X150022631Y-118994488D01*
X150022633Y-118994492D01*
X150022634Y-118994493D01*
X150102821Y-119144513D01*
X150102822Y-119144516D01*
X150152204Y-119307305D01*
X150164700Y-119434180D01*
X150164700Y-121043020D01*
X150152204Y-121169895D01*
X150102822Y-121332684D01*
X150102821Y-121332687D01*
X150022634Y-121482707D01*
X150022631Y-121482712D01*
X149914712Y-121614212D01*
X149783212Y-121722131D01*
X149783208Y-121722133D01*
X149783207Y-121722134D01*
X149633187Y-121802321D01*
X149633184Y-121802322D01*
X149470395Y-121851704D01*
X149301100Y-121868378D01*
X149131806Y-121851704D01*
X148969017Y-121802322D01*
X148969014Y-121802321D01*
X148818994Y-121722134D01*
X148818993Y-121722133D01*
X148818989Y-121722131D01*
X148687489Y-121614212D01*
X148579570Y-121482712D01*
X148579567Y-121482707D01*
X148499380Y-121332687D01*
X148499379Y-121332684D01*
X148449997Y-121169895D01*
X148437501Y-121043020D01*
X148437500Y-119434181D01*
X148449996Y-119307306D01*
X148499378Y-119144517D01*
X148499379Y-119144513D01*
X148579566Y-118994493D01*
X148579570Y-118994488D01*
X148687488Y-118862988D01*
X148818988Y-118755069D01*
X148818992Y-118755067D01*
X148818993Y-118755066D01*
X148969013Y-118674879D01*
X148969016Y-118674878D01*
X149131805Y-118625496D01*
X149301100Y-118608822D01*
X149470394Y-118625496D01*
X149470394Y-118625496D01*
G37*
G36*
X195190394Y-118625496D02*
G01*
X195310826Y-118662029D01*
X195353187Y-118674879D01*
X195503207Y-118755066D01*
X195503210Y-118755068D01*
X195503211Y-118755069D01*
X195634712Y-118862988D01*
X195742631Y-118994488D01*
X195742633Y-118994492D01*
X195742634Y-118994493D01*
X195822821Y-119144513D01*
X195822822Y-119144516D01*
X195872204Y-119307305D01*
X195884700Y-119434180D01*
X195884700Y-121043020D01*
X195872204Y-121169895D01*
X195822822Y-121332684D01*
X195822821Y-121332687D01*
X195742634Y-121482707D01*
X195742631Y-121482712D01*
X195634712Y-121614212D01*
X195503212Y-121722131D01*
X195503208Y-121722133D01*
X195503207Y-121722134D01*
X195353187Y-121802321D01*
X195353184Y-121802322D01*
X195190395Y-121851704D01*
X195021100Y-121868378D01*
X194851806Y-121851704D01*
X194689017Y-121802322D01*
X194689014Y-121802321D01*
X194538994Y-121722134D01*
X194538993Y-121722133D01*
X194538989Y-121722131D01*
X194407489Y-121614212D01*
X194299570Y-121482712D01*
X194299567Y-121482707D01*
X194219380Y-121332687D01*
X194219379Y-121332684D01*
X194169997Y-121169895D01*
X194157501Y-121043020D01*
X194157500Y-119434181D01*
X194169996Y-119307306D01*
X194219378Y-119144517D01*
X194219379Y-119144513D01*
X194299566Y-118994493D01*
X194299570Y-118994488D01*
X194407488Y-118862988D01*
X194538988Y-118755069D01*
X194538992Y-118755067D01*
X194538993Y-118755066D01*
X194689013Y-118674879D01*
X194689016Y-118674878D01*
X194851805Y-118625496D01*
X195021100Y-118608822D01*
X195190394Y-118625496D01*
X195190394Y-118625496D01*
G37*
G36*
X192650394Y-118625496D02*
G01*
X192770826Y-118662029D01*
X192813187Y-118674879D01*
X192963207Y-118755066D01*
X192963210Y-118755068D01*
X192963211Y-118755069D01*
X193094712Y-118862988D01*
X193202631Y-118994488D01*
X193202633Y-118994492D01*
X193202634Y-118994493D01*
X193282821Y-119144513D01*
X193282822Y-119144516D01*
X193332204Y-119307305D01*
X193344700Y-119434180D01*
X193344700Y-121043020D01*
X193332204Y-121169895D01*
X193282822Y-121332684D01*
X193282821Y-121332687D01*
X193202634Y-121482707D01*
X193202631Y-121482712D01*
X193094712Y-121614212D01*
X192963212Y-121722131D01*
X192963208Y-121722133D01*
X192963207Y-121722134D01*
X192813187Y-121802321D01*
X192813184Y-121802322D01*
X192650395Y-121851704D01*
X192481100Y-121868378D01*
X192311806Y-121851704D01*
X192149017Y-121802322D01*
X192149014Y-121802321D01*
X191998994Y-121722134D01*
X191998993Y-121722133D01*
X191998989Y-121722131D01*
X191867489Y-121614212D01*
X191759570Y-121482712D01*
X191759567Y-121482707D01*
X191679380Y-121332687D01*
X191679379Y-121332684D01*
X191629997Y-121169895D01*
X191617501Y-121043020D01*
X191617500Y-119434181D01*
X191629996Y-119307306D01*
X191679378Y-119144517D01*
X191679379Y-119144513D01*
X191759566Y-118994493D01*
X191759570Y-118994488D01*
X191867488Y-118862988D01*
X191998988Y-118755069D01*
X191998992Y-118755067D01*
X191998993Y-118755066D01*
X192149013Y-118674879D01*
X192149016Y-118674878D01*
X192311805Y-118625496D01*
X192481100Y-118608822D01*
X192650394Y-118625496D01*
X192650394Y-118625496D01*
G37*
G36*
X190110394Y-118625496D02*
G01*
X190230826Y-118662029D01*
X190273187Y-118674879D01*
X190423207Y-118755066D01*
X190423210Y-118755068D01*
X190423211Y-118755069D01*
X190554712Y-118862988D01*
X190662631Y-118994488D01*
X190662633Y-118994492D01*
X190662634Y-118994493D01*
X190742821Y-119144513D01*
X190742822Y-119144516D01*
X190792204Y-119307305D01*
X190804700Y-119434180D01*
X190804700Y-121043020D01*
X190792204Y-121169895D01*
X190742822Y-121332684D01*
X190742821Y-121332687D01*
X190662634Y-121482707D01*
X190662631Y-121482712D01*
X190554712Y-121614212D01*
X190423212Y-121722131D01*
X190423208Y-121722133D01*
X190423207Y-121722134D01*
X190273187Y-121802321D01*
X190273184Y-121802322D01*
X190110395Y-121851704D01*
X189941100Y-121868378D01*
X189771806Y-121851704D01*
X189609017Y-121802322D01*
X189609014Y-121802321D01*
X189458994Y-121722134D01*
X189458993Y-121722133D01*
X189458989Y-121722131D01*
X189327489Y-121614212D01*
X189219570Y-121482712D01*
X189219567Y-121482707D01*
X189139380Y-121332687D01*
X189139379Y-121332684D01*
X189089997Y-121169895D01*
X189077501Y-121043020D01*
X189077500Y-119434181D01*
X189089996Y-119307306D01*
X189139378Y-119144517D01*
X189139379Y-119144513D01*
X189219566Y-118994493D01*
X189219570Y-118994488D01*
X189327488Y-118862988D01*
X189458988Y-118755069D01*
X189458992Y-118755067D01*
X189458993Y-118755066D01*
X189609013Y-118674879D01*
X189609016Y-118674878D01*
X189771805Y-118625496D01*
X189941100Y-118608822D01*
X190110394Y-118625496D01*
X190110394Y-118625496D01*
G37*
G36*
X187570394Y-118625496D02*
G01*
X187690826Y-118662029D01*
X187733187Y-118674879D01*
X187883207Y-118755066D01*
X187883210Y-118755068D01*
X187883211Y-118755069D01*
X188014712Y-118862988D01*
X188122631Y-118994488D01*
X188122633Y-118994492D01*
X188122634Y-118994493D01*
X188202821Y-119144513D01*
X188202822Y-119144516D01*
X188252204Y-119307305D01*
X188264700Y-119434180D01*
X188264700Y-121043020D01*
X188252204Y-121169895D01*
X188202822Y-121332684D01*
X188202821Y-121332687D01*
X188122634Y-121482707D01*
X188122631Y-121482712D01*
X188014712Y-121614212D01*
X187883212Y-121722131D01*
X187883208Y-121722133D01*
X187883207Y-121722134D01*
X187733187Y-121802321D01*
X187733184Y-121802322D01*
X187570395Y-121851704D01*
X187401100Y-121868378D01*
X187231806Y-121851704D01*
X187069017Y-121802322D01*
X187069014Y-121802321D01*
X186918994Y-121722134D01*
X186918993Y-121722133D01*
X186918989Y-121722131D01*
X186787489Y-121614212D01*
X186679570Y-121482712D01*
X186679567Y-121482707D01*
X186599380Y-121332687D01*
X186599379Y-121332684D01*
X186549997Y-121169895D01*
X186537501Y-121043020D01*
X186537500Y-119434181D01*
X186549996Y-119307306D01*
X186599378Y-119144517D01*
X186599379Y-119144513D01*
X186679566Y-118994493D01*
X186679570Y-118994488D01*
X186787488Y-118862988D01*
X186918988Y-118755069D01*
X186918992Y-118755067D01*
X186918993Y-118755066D01*
X187069013Y-118674879D01*
X187069016Y-118674878D01*
X187231805Y-118625496D01*
X187401100Y-118608822D01*
X187570394Y-118625496D01*
X187570394Y-118625496D01*
G37*
G36*
X185030394Y-118625496D02*
G01*
X185150826Y-118662029D01*
X185193187Y-118674879D01*
X185343207Y-118755066D01*
X185343210Y-118755068D01*
X185343211Y-118755069D01*
X185474712Y-118862988D01*
X185582631Y-118994488D01*
X185582633Y-118994492D01*
X185582634Y-118994493D01*
X185662821Y-119144513D01*
X185662822Y-119144516D01*
X185712204Y-119307305D01*
X185724700Y-119434180D01*
X185724700Y-121043020D01*
X185712204Y-121169895D01*
X185662822Y-121332684D01*
X185662821Y-121332687D01*
X185582634Y-121482707D01*
X185582631Y-121482712D01*
X185474712Y-121614212D01*
X185343212Y-121722131D01*
X185343208Y-121722133D01*
X185343207Y-121722134D01*
X185193187Y-121802321D01*
X185193184Y-121802322D01*
X185030395Y-121851704D01*
X184861100Y-121868378D01*
X184691806Y-121851704D01*
X184529017Y-121802322D01*
X184529014Y-121802321D01*
X184378994Y-121722134D01*
X184378993Y-121722133D01*
X184378989Y-121722131D01*
X184247489Y-121614212D01*
X184139570Y-121482712D01*
X184139567Y-121482707D01*
X184059380Y-121332687D01*
X184059379Y-121332684D01*
X184009997Y-121169895D01*
X183997501Y-121043020D01*
X183997500Y-119434181D01*
X184009996Y-119307306D01*
X184059378Y-119144517D01*
X184059379Y-119144513D01*
X184139566Y-118994493D01*
X184139570Y-118994488D01*
X184247488Y-118862988D01*
X184378988Y-118755069D01*
X184378992Y-118755067D01*
X184378993Y-118755066D01*
X184529013Y-118674879D01*
X184529016Y-118674878D01*
X184691805Y-118625496D01*
X184861100Y-118608822D01*
X185030394Y-118625496D01*
X185030394Y-118625496D01*
G37*
G36*
X182490394Y-118625496D02*
G01*
X182610826Y-118662029D01*
X182653187Y-118674879D01*
X182803207Y-118755066D01*
X182803210Y-118755068D01*
X182803211Y-118755069D01*
X182934712Y-118862988D01*
X183042631Y-118994488D01*
X183042633Y-118994492D01*
X183042634Y-118994493D01*
X183122821Y-119144513D01*
X183122822Y-119144516D01*
X183172204Y-119307305D01*
X183184700Y-119434180D01*
X183184700Y-121043020D01*
X183172204Y-121169895D01*
X183122822Y-121332684D01*
X183122821Y-121332687D01*
X183042634Y-121482707D01*
X183042631Y-121482712D01*
X182934712Y-121614212D01*
X182803212Y-121722131D01*
X182803208Y-121722133D01*
X182803207Y-121722134D01*
X182653187Y-121802321D01*
X182653184Y-121802322D01*
X182490395Y-121851704D01*
X182321100Y-121868378D01*
X182151806Y-121851704D01*
X181989017Y-121802322D01*
X181989014Y-121802321D01*
X181838994Y-121722134D01*
X181838993Y-121722133D01*
X181838989Y-121722131D01*
X181707489Y-121614212D01*
X181599570Y-121482712D01*
X181599567Y-121482707D01*
X181519380Y-121332687D01*
X181519379Y-121332684D01*
X181469997Y-121169895D01*
X181457501Y-121043020D01*
X181457500Y-119434181D01*
X181469996Y-119307306D01*
X181519378Y-119144517D01*
X181519379Y-119144513D01*
X181599566Y-118994493D01*
X181599570Y-118994488D01*
X181707488Y-118862988D01*
X181838988Y-118755069D01*
X181838992Y-118755067D01*
X181838993Y-118755066D01*
X181989013Y-118674879D01*
X181989016Y-118674878D01*
X182151805Y-118625496D01*
X182321100Y-118608822D01*
X182490394Y-118625496D01*
X182490394Y-118625496D01*
G37*
G36*
X179950394Y-118625496D02*
G01*
X180070826Y-118662029D01*
X180113187Y-118674879D01*
X180263207Y-118755066D01*
X180263210Y-118755068D01*
X180263211Y-118755069D01*
X180394712Y-118862988D01*
X180502631Y-118994488D01*
X180502633Y-118994492D01*
X180502634Y-118994493D01*
X180582821Y-119144513D01*
X180582822Y-119144516D01*
X180632204Y-119307305D01*
X180644700Y-119434180D01*
X180644700Y-121043020D01*
X180632204Y-121169895D01*
X180582822Y-121332684D01*
X180582821Y-121332687D01*
X180502634Y-121482707D01*
X180502631Y-121482712D01*
X180394712Y-121614212D01*
X180263212Y-121722131D01*
X180263208Y-121722133D01*
X180263207Y-121722134D01*
X180113187Y-121802321D01*
X180113184Y-121802322D01*
X179950395Y-121851704D01*
X179781100Y-121868378D01*
X179611806Y-121851704D01*
X179449017Y-121802322D01*
X179449014Y-121802321D01*
X179298994Y-121722134D01*
X179298993Y-121722133D01*
X179298989Y-121722131D01*
X179167489Y-121614212D01*
X179059570Y-121482712D01*
X179059567Y-121482707D01*
X178979380Y-121332687D01*
X178979379Y-121332684D01*
X178929997Y-121169895D01*
X178917501Y-121043020D01*
X178917500Y-119434181D01*
X178929996Y-119307306D01*
X178979378Y-119144517D01*
X178979379Y-119144513D01*
X179059566Y-118994493D01*
X179059570Y-118994488D01*
X179167488Y-118862988D01*
X179298988Y-118755069D01*
X179298992Y-118755067D01*
X179298993Y-118755066D01*
X179449013Y-118674879D01*
X179449016Y-118674878D01*
X179611805Y-118625496D01*
X179781100Y-118608822D01*
X179950394Y-118625496D01*
X179950394Y-118625496D01*
G37*
G36*
X177410394Y-118625496D02*
G01*
X177530826Y-118662029D01*
X177573187Y-118674879D01*
X177723207Y-118755066D01*
X177723210Y-118755068D01*
X177723211Y-118755069D01*
X177854712Y-118862988D01*
X177962631Y-118994488D01*
X177962633Y-118994492D01*
X177962634Y-118994493D01*
X178042821Y-119144513D01*
X178042822Y-119144516D01*
X178092204Y-119307305D01*
X178104700Y-119434180D01*
X178104700Y-121043020D01*
X178092204Y-121169895D01*
X178042822Y-121332684D01*
X178042821Y-121332687D01*
X177962634Y-121482707D01*
X177962631Y-121482712D01*
X177854712Y-121614212D01*
X177723212Y-121722131D01*
X177723208Y-121722133D01*
X177723207Y-121722134D01*
X177573187Y-121802321D01*
X177573184Y-121802322D01*
X177410395Y-121851704D01*
X177241100Y-121868378D01*
X177071806Y-121851704D01*
X176909017Y-121802322D01*
X176909014Y-121802321D01*
X176758994Y-121722134D01*
X176758993Y-121722133D01*
X176758989Y-121722131D01*
X176627489Y-121614212D01*
X176519570Y-121482712D01*
X176519567Y-121482707D01*
X176439380Y-121332687D01*
X176439379Y-121332684D01*
X176389997Y-121169895D01*
X176377501Y-121043020D01*
X176377500Y-119434181D01*
X176389996Y-119307306D01*
X176439378Y-119144517D01*
X176439379Y-119144513D01*
X176519566Y-118994493D01*
X176519570Y-118994488D01*
X176627488Y-118862988D01*
X176758988Y-118755069D01*
X176758992Y-118755067D01*
X176758993Y-118755066D01*
X176909013Y-118674879D01*
X176909016Y-118674878D01*
X177071805Y-118625496D01*
X177241100Y-118608822D01*
X177410394Y-118625496D01*
X177410394Y-118625496D01*
G37*
G36*
X174870394Y-118625496D02*
G01*
X174990826Y-118662029D01*
X175033187Y-118674879D01*
X175183207Y-118755066D01*
X175183210Y-118755068D01*
X175183211Y-118755069D01*
X175314712Y-118862988D01*
X175422631Y-118994488D01*
X175422633Y-118994492D01*
X175422634Y-118994493D01*
X175502821Y-119144513D01*
X175502822Y-119144516D01*
X175552204Y-119307305D01*
X175564700Y-119434180D01*
X175564700Y-121043020D01*
X175552204Y-121169895D01*
X175502822Y-121332684D01*
X175502821Y-121332687D01*
X175422634Y-121482707D01*
X175422631Y-121482712D01*
X175314712Y-121614212D01*
X175183212Y-121722131D01*
X175183208Y-121722133D01*
X175183207Y-121722134D01*
X175033187Y-121802321D01*
X175033184Y-121802322D01*
X174870395Y-121851704D01*
X174701100Y-121868378D01*
X174531806Y-121851704D01*
X174369017Y-121802322D01*
X174369014Y-121802321D01*
X174218994Y-121722134D01*
X174218993Y-121722133D01*
X174218989Y-121722131D01*
X174087489Y-121614212D01*
X173979570Y-121482712D01*
X173979567Y-121482707D01*
X173899380Y-121332687D01*
X173899379Y-121332684D01*
X173849997Y-121169895D01*
X173837501Y-121043020D01*
X173837500Y-119434181D01*
X173849996Y-119307306D01*
X173899378Y-119144517D01*
X173899379Y-119144513D01*
X173979566Y-118994493D01*
X173979570Y-118994488D01*
X174087488Y-118862988D01*
X174218988Y-118755069D01*
X174218992Y-118755067D01*
X174218993Y-118755066D01*
X174369013Y-118674879D01*
X174369016Y-118674878D01*
X174531805Y-118625496D01*
X174701100Y-118608822D01*
X174870394Y-118625496D01*
X174870394Y-118625496D01*
G37*
G36*
X103750394Y-118625496D02*
G01*
X103870826Y-118662029D01*
X103913187Y-118674879D01*
X104063207Y-118755066D01*
X104063210Y-118755068D01*
X104063211Y-118755069D01*
X104194712Y-118862988D01*
X104302631Y-118994488D01*
X104302633Y-118994492D01*
X104302634Y-118994493D01*
X104382821Y-119144513D01*
X104382822Y-119144516D01*
X104432204Y-119307305D01*
X104444700Y-119434180D01*
X104444700Y-121043020D01*
X104432204Y-121169895D01*
X104382822Y-121332684D01*
X104382821Y-121332687D01*
X104302634Y-121482707D01*
X104302631Y-121482712D01*
X104194712Y-121614212D01*
X104063212Y-121722131D01*
X104063208Y-121722133D01*
X104063207Y-121722134D01*
X103913187Y-121802321D01*
X103913184Y-121802322D01*
X103750395Y-121851704D01*
X103581100Y-121868378D01*
X103411806Y-121851704D01*
X103249017Y-121802322D01*
X103249014Y-121802321D01*
X103098994Y-121722134D01*
X103098993Y-121722133D01*
X103098989Y-121722131D01*
X102967489Y-121614212D01*
X102859570Y-121482712D01*
X102859567Y-121482707D01*
X102779380Y-121332687D01*
X102779379Y-121332684D01*
X102729997Y-121169895D01*
X102717501Y-121043020D01*
X102717500Y-119434181D01*
X102729996Y-119307306D01*
X102779378Y-119144517D01*
X102779379Y-119144513D01*
X102859566Y-118994493D01*
X102859570Y-118994488D01*
X102967488Y-118862988D01*
X103098988Y-118755069D01*
X103098992Y-118755067D01*
X103098993Y-118755066D01*
X103249013Y-118674879D01*
X103249016Y-118674878D01*
X103411805Y-118625496D01*
X103581100Y-118608822D01*
X103750394Y-118625496D01*
X103750394Y-118625496D01*
G37*
G36*
X169790394Y-118625496D02*
G01*
X169910826Y-118662029D01*
X169953187Y-118674879D01*
X170103207Y-118755066D01*
X170103210Y-118755068D01*
X170103211Y-118755069D01*
X170234712Y-118862988D01*
X170342631Y-118994488D01*
X170342633Y-118994492D01*
X170342634Y-118994493D01*
X170422821Y-119144513D01*
X170422822Y-119144516D01*
X170472204Y-119307305D01*
X170484700Y-119434180D01*
X170484700Y-121043020D01*
X170472204Y-121169895D01*
X170422822Y-121332684D01*
X170422821Y-121332687D01*
X170342634Y-121482707D01*
X170342631Y-121482712D01*
X170234712Y-121614212D01*
X170103212Y-121722131D01*
X170103208Y-121722133D01*
X170103207Y-121722134D01*
X169953187Y-121802321D01*
X169953184Y-121802322D01*
X169790395Y-121851704D01*
X169621100Y-121868378D01*
X169451806Y-121851704D01*
X169289017Y-121802322D01*
X169289014Y-121802321D01*
X169138994Y-121722134D01*
X169138993Y-121722133D01*
X169138989Y-121722131D01*
X169007489Y-121614212D01*
X168899570Y-121482712D01*
X168899567Y-121482707D01*
X168819380Y-121332687D01*
X168819379Y-121332684D01*
X168769997Y-121169895D01*
X168757501Y-121043020D01*
X168757500Y-119434181D01*
X168769996Y-119307306D01*
X168819378Y-119144517D01*
X168819379Y-119144513D01*
X168899566Y-118994493D01*
X168899570Y-118994488D01*
X169007488Y-118862988D01*
X169138988Y-118755069D01*
X169138992Y-118755067D01*
X169138993Y-118755066D01*
X169289013Y-118674879D01*
X169289016Y-118674878D01*
X169451805Y-118625496D01*
X169621100Y-118608822D01*
X169790394Y-118625496D01*
X169790394Y-118625496D01*
G37*
G36*
X167250394Y-118625496D02*
G01*
X167370826Y-118662029D01*
X167413187Y-118674879D01*
X167563207Y-118755066D01*
X167563210Y-118755068D01*
X167563211Y-118755069D01*
X167694712Y-118862988D01*
X167802631Y-118994488D01*
X167802633Y-118994492D01*
X167802634Y-118994493D01*
X167882821Y-119144513D01*
X167882822Y-119144516D01*
X167932204Y-119307305D01*
X167944700Y-119434180D01*
X167944700Y-121043020D01*
X167932204Y-121169895D01*
X167882822Y-121332684D01*
X167882821Y-121332687D01*
X167802634Y-121482707D01*
X167802631Y-121482712D01*
X167694712Y-121614212D01*
X167563212Y-121722131D01*
X167563208Y-121722133D01*
X167563207Y-121722134D01*
X167413187Y-121802321D01*
X167413184Y-121802322D01*
X167250395Y-121851704D01*
X167081100Y-121868378D01*
X166911806Y-121851704D01*
X166749017Y-121802322D01*
X166749014Y-121802321D01*
X166598994Y-121722134D01*
X166598993Y-121722133D01*
X166598989Y-121722131D01*
X166467489Y-121614212D01*
X166359570Y-121482712D01*
X166359567Y-121482707D01*
X166279380Y-121332687D01*
X166279379Y-121332684D01*
X166229997Y-121169895D01*
X166217501Y-121043020D01*
X166217500Y-119434181D01*
X166229996Y-119307306D01*
X166279378Y-119144517D01*
X166279379Y-119144513D01*
X166359566Y-118994493D01*
X166359570Y-118994488D01*
X166467488Y-118862988D01*
X166598988Y-118755069D01*
X166598992Y-118755067D01*
X166598993Y-118755066D01*
X166749013Y-118674879D01*
X166749016Y-118674878D01*
X166911805Y-118625496D01*
X167081100Y-118608822D01*
X167250394Y-118625496D01*
X167250394Y-118625496D01*
G37*
G36*
X164710394Y-118625496D02*
G01*
X164830826Y-118662029D01*
X164873187Y-118674879D01*
X165023207Y-118755066D01*
X165023210Y-118755068D01*
X165023211Y-118755069D01*
X165154712Y-118862988D01*
X165262631Y-118994488D01*
X165262633Y-118994492D01*
X165262634Y-118994493D01*
X165342821Y-119144513D01*
X165342822Y-119144516D01*
X165392204Y-119307305D01*
X165404700Y-119434180D01*
X165404700Y-121043020D01*
X165392204Y-121169895D01*
X165342822Y-121332684D01*
X165342821Y-121332687D01*
X165262634Y-121482707D01*
X165262631Y-121482712D01*
X165154712Y-121614212D01*
X165023212Y-121722131D01*
X165023208Y-121722133D01*
X165023207Y-121722134D01*
X164873187Y-121802321D01*
X164873184Y-121802322D01*
X164710395Y-121851704D01*
X164541100Y-121868378D01*
X164371806Y-121851704D01*
X164209017Y-121802322D01*
X164209014Y-121802321D01*
X164058994Y-121722134D01*
X164058993Y-121722133D01*
X164058989Y-121722131D01*
X163927489Y-121614212D01*
X163819570Y-121482712D01*
X163819567Y-121482707D01*
X163739380Y-121332687D01*
X163739379Y-121332684D01*
X163689997Y-121169895D01*
X163677501Y-121043020D01*
X163677500Y-119434181D01*
X163689996Y-119307306D01*
X163739378Y-119144517D01*
X163739379Y-119144513D01*
X163819566Y-118994493D01*
X163819570Y-118994488D01*
X163927488Y-118862988D01*
X164058988Y-118755069D01*
X164058992Y-118755067D01*
X164058993Y-118755066D01*
X164209013Y-118674879D01*
X164209016Y-118674878D01*
X164371805Y-118625496D01*
X164541100Y-118608822D01*
X164710394Y-118625496D01*
X164710394Y-118625496D01*
G37*
G36*
X162170394Y-118625496D02*
G01*
X162290826Y-118662029D01*
X162333187Y-118674879D01*
X162483207Y-118755066D01*
X162483210Y-118755068D01*
X162483211Y-118755069D01*
X162614712Y-118862988D01*
X162722631Y-118994488D01*
X162722633Y-118994492D01*
X162722634Y-118994493D01*
X162802821Y-119144513D01*
X162802822Y-119144516D01*
X162852204Y-119307305D01*
X162864700Y-119434180D01*
X162864700Y-121043020D01*
X162852204Y-121169895D01*
X162802822Y-121332684D01*
X162802821Y-121332687D01*
X162722634Y-121482707D01*
X162722631Y-121482712D01*
X162614712Y-121614212D01*
X162483212Y-121722131D01*
X162483208Y-121722133D01*
X162483207Y-121722134D01*
X162333187Y-121802321D01*
X162333184Y-121802322D01*
X162170395Y-121851704D01*
X162001100Y-121868378D01*
X161831806Y-121851704D01*
X161669017Y-121802322D01*
X161669014Y-121802321D01*
X161518994Y-121722134D01*
X161518993Y-121722133D01*
X161518989Y-121722131D01*
X161387489Y-121614212D01*
X161279570Y-121482712D01*
X161279567Y-121482707D01*
X161199380Y-121332687D01*
X161199379Y-121332684D01*
X161149997Y-121169895D01*
X161137501Y-121043020D01*
X161137500Y-119434181D01*
X161149996Y-119307306D01*
X161199378Y-119144517D01*
X161199379Y-119144513D01*
X161279566Y-118994493D01*
X161279570Y-118994488D01*
X161387488Y-118862988D01*
X161518988Y-118755069D01*
X161518992Y-118755067D01*
X161518993Y-118755066D01*
X161669013Y-118674879D01*
X161669016Y-118674878D01*
X161831805Y-118625496D01*
X162001100Y-118608822D01*
X162170394Y-118625496D01*
X162170394Y-118625496D01*
G37*
G36*
X159630394Y-118625496D02*
G01*
X159750826Y-118662029D01*
X159793187Y-118674879D01*
X159943207Y-118755066D01*
X159943210Y-118755068D01*
X159943211Y-118755069D01*
X160074712Y-118862988D01*
X160182631Y-118994488D01*
X160182633Y-118994492D01*
X160182634Y-118994493D01*
X160262821Y-119144513D01*
X160262822Y-119144516D01*
X160312204Y-119307305D01*
X160324700Y-119434180D01*
X160324700Y-121043020D01*
X160312204Y-121169895D01*
X160262822Y-121332684D01*
X160262821Y-121332687D01*
X160182634Y-121482707D01*
X160182631Y-121482712D01*
X160074712Y-121614212D01*
X159943212Y-121722131D01*
X159943208Y-121722133D01*
X159943207Y-121722134D01*
X159793187Y-121802321D01*
X159793184Y-121802322D01*
X159630395Y-121851704D01*
X159461100Y-121868378D01*
X159291806Y-121851704D01*
X159129017Y-121802322D01*
X159129014Y-121802321D01*
X158978994Y-121722134D01*
X158978993Y-121722133D01*
X158978989Y-121722131D01*
X158847489Y-121614212D01*
X158739570Y-121482712D01*
X158739567Y-121482707D01*
X158659380Y-121332687D01*
X158659379Y-121332684D01*
X158609997Y-121169895D01*
X158597501Y-121043020D01*
X158597500Y-119434181D01*
X158609996Y-119307306D01*
X158659378Y-119144517D01*
X158659379Y-119144513D01*
X158739566Y-118994493D01*
X158739570Y-118994488D01*
X158847488Y-118862988D01*
X158978988Y-118755069D01*
X158978992Y-118755067D01*
X158978993Y-118755066D01*
X159129013Y-118674879D01*
X159129016Y-118674878D01*
X159291805Y-118625496D01*
X159461100Y-118608822D01*
X159630394Y-118625496D01*
X159630394Y-118625496D01*
G37*
G36*
X157090394Y-118625496D02*
G01*
X157210826Y-118662029D01*
X157253187Y-118674879D01*
X157403207Y-118755066D01*
X157403210Y-118755068D01*
X157403211Y-118755069D01*
X157534712Y-118862988D01*
X157642631Y-118994488D01*
X157642633Y-118994492D01*
X157642634Y-118994493D01*
X157722821Y-119144513D01*
X157722822Y-119144516D01*
X157772204Y-119307305D01*
X157784700Y-119434180D01*
X157784700Y-121043020D01*
X157772204Y-121169895D01*
X157722822Y-121332684D01*
X157722821Y-121332687D01*
X157642634Y-121482707D01*
X157642631Y-121482712D01*
X157534712Y-121614212D01*
X157403212Y-121722131D01*
X157403208Y-121722133D01*
X157403207Y-121722134D01*
X157253187Y-121802321D01*
X157253184Y-121802322D01*
X157090395Y-121851704D01*
X156921100Y-121868378D01*
X156751806Y-121851704D01*
X156589017Y-121802322D01*
X156589014Y-121802321D01*
X156438994Y-121722134D01*
X156438993Y-121722133D01*
X156438989Y-121722131D01*
X156307489Y-121614212D01*
X156199570Y-121482712D01*
X156199567Y-121482707D01*
X156119380Y-121332687D01*
X156119379Y-121332684D01*
X156069997Y-121169895D01*
X156057501Y-121043020D01*
X156057500Y-119434181D01*
X156069996Y-119307306D01*
X156119378Y-119144517D01*
X156119379Y-119144513D01*
X156199566Y-118994493D01*
X156199570Y-118994488D01*
X156307488Y-118862988D01*
X156438988Y-118755069D01*
X156438992Y-118755067D01*
X156438993Y-118755066D01*
X156589013Y-118674879D01*
X156589016Y-118674878D01*
X156751805Y-118625496D01*
X156921100Y-118608822D01*
X157090394Y-118625496D01*
X157090394Y-118625496D01*
G37*
G36*
X154550394Y-118625496D02*
G01*
X154670826Y-118662029D01*
X154713187Y-118674879D01*
X154863207Y-118755066D01*
X154863210Y-118755068D01*
X154863211Y-118755069D01*
X154994712Y-118862988D01*
X155102631Y-118994488D01*
X155102633Y-118994492D01*
X155102634Y-118994493D01*
X155182821Y-119144513D01*
X155182822Y-119144516D01*
X155232204Y-119307305D01*
X155244700Y-119434180D01*
X155244700Y-121043020D01*
X155232204Y-121169895D01*
X155182822Y-121332684D01*
X155182821Y-121332687D01*
X155102634Y-121482707D01*
X155102631Y-121482712D01*
X154994712Y-121614212D01*
X154863212Y-121722131D01*
X154863208Y-121722133D01*
X154863207Y-121722134D01*
X154713187Y-121802321D01*
X154713184Y-121802322D01*
X154550395Y-121851704D01*
X154381100Y-121868378D01*
X154211806Y-121851704D01*
X154049017Y-121802322D01*
X154049014Y-121802321D01*
X153898994Y-121722134D01*
X153898993Y-121722133D01*
X153898989Y-121722131D01*
X153767489Y-121614212D01*
X153659570Y-121482712D01*
X153659567Y-121482707D01*
X153579380Y-121332687D01*
X153579379Y-121332684D01*
X153529997Y-121169895D01*
X153517501Y-121043020D01*
X153517500Y-119434181D01*
X153529996Y-119307306D01*
X153579378Y-119144517D01*
X153579379Y-119144513D01*
X153659566Y-118994493D01*
X153659570Y-118994488D01*
X153767488Y-118862988D01*
X153898988Y-118755069D01*
X153898992Y-118755067D01*
X153898993Y-118755066D01*
X154049013Y-118674879D01*
X154049016Y-118674878D01*
X154211805Y-118625496D01*
X154381100Y-118608822D01*
X154550394Y-118625496D01*
X154550394Y-118625496D01*
G37*
G36*
X105000477Y-115017226D02*
G01*
X105106741Y-115049461D01*
X105144118Y-115060799D01*
X105276490Y-115131554D01*
X105276492Y-115131555D01*
X105276491Y-115131555D01*
X105392522Y-115226778D01*
X105467332Y-115317935D01*
X105487746Y-115342809D01*
X105558501Y-115475181D01*
X105569839Y-115512558D01*
X105602074Y-115618822D01*
X105613100Y-115730774D01*
X105613100Y-117126426D01*
X105602074Y-117238378D01*
X105569839Y-117344642D01*
X105558501Y-117382019D01*
X105487746Y-117514391D01*
X105392522Y-117630422D01*
X105276491Y-117725646D01*
X105144119Y-117796401D01*
X105106742Y-117807739D01*
X105000478Y-117839974D01*
X104851100Y-117854686D01*
X104701723Y-117839974D01*
X104595459Y-117807739D01*
X104558082Y-117796401D01*
X104425710Y-117725646D01*
X104309679Y-117630422D01*
X104214455Y-117514391D01*
X104143700Y-117382019D01*
X104132362Y-117344642D01*
X104100127Y-117238378D01*
X104089101Y-117126426D01*
X104089100Y-115730775D01*
X104100126Y-115618823D01*
X104143698Y-115475186D01*
X104143699Y-115475182D01*
X104214454Y-115342810D01*
X104234868Y-115317935D01*
X104309678Y-115226778D01*
X104425708Y-115131555D01*
X104425707Y-115131555D01*
X104425709Y-115131554D01*
X104558081Y-115060799D01*
X104595458Y-115049461D01*
X104701722Y-115017226D01*
X104851100Y-115002514D01*
X105000477Y-115017226D01*
X105000477Y-115017226D01*
G37*
G36*
X107540477Y-115017226D02*
G01*
X107646741Y-115049461D01*
X107684118Y-115060799D01*
X107816490Y-115131554D01*
X107816492Y-115131555D01*
X107816491Y-115131555D01*
X107932522Y-115226778D01*
X108007332Y-115317935D01*
X108027746Y-115342809D01*
X108098501Y-115475181D01*
X108109839Y-115512558D01*
X108142074Y-115618822D01*
X108153100Y-115730774D01*
X108153100Y-117126426D01*
X108142074Y-117238378D01*
X108109839Y-117344642D01*
X108098501Y-117382019D01*
X108027746Y-117514391D01*
X107932522Y-117630422D01*
X107816491Y-117725646D01*
X107684119Y-117796401D01*
X107646742Y-117807739D01*
X107540478Y-117839974D01*
X107391100Y-117854686D01*
X107241723Y-117839974D01*
X107135459Y-117807739D01*
X107098082Y-117796401D01*
X106965710Y-117725646D01*
X106849679Y-117630422D01*
X106754455Y-117514391D01*
X106683700Y-117382019D01*
X106672362Y-117344642D01*
X106640127Y-117238378D01*
X106629101Y-117126426D01*
X106629100Y-115730775D01*
X106640126Y-115618823D01*
X106683698Y-115475186D01*
X106683699Y-115475182D01*
X106754454Y-115342810D01*
X106774868Y-115317935D01*
X106849678Y-115226778D01*
X106965708Y-115131555D01*
X106965707Y-115131555D01*
X106965709Y-115131554D01*
X107098081Y-115060799D01*
X107135458Y-115049461D01*
X107241722Y-115017226D01*
X107391100Y-115002514D01*
X107540477Y-115017226D01*
X107540477Y-115017226D01*
G37*
G36*
X117700477Y-115017226D02*
G01*
X117806741Y-115049461D01*
X117844118Y-115060799D01*
X117976490Y-115131554D01*
X117976492Y-115131555D01*
X117976491Y-115131555D01*
X118092522Y-115226778D01*
X118167332Y-115317935D01*
X118187746Y-115342809D01*
X118258501Y-115475181D01*
X118269839Y-115512558D01*
X118302074Y-115618822D01*
X118313100Y-115730774D01*
X118313100Y-117126426D01*
X118302074Y-117238378D01*
X118269839Y-117344642D01*
X118258501Y-117382019D01*
X118187746Y-117514391D01*
X118092522Y-117630422D01*
X117976491Y-117725646D01*
X117844119Y-117796401D01*
X117806742Y-117807739D01*
X117700478Y-117839974D01*
X117551100Y-117854686D01*
X117401723Y-117839974D01*
X117295459Y-117807739D01*
X117258082Y-117796401D01*
X117125710Y-117725646D01*
X117009679Y-117630422D01*
X116914455Y-117514391D01*
X116843700Y-117382019D01*
X116832362Y-117344642D01*
X116800127Y-117238378D01*
X116789101Y-117126426D01*
X116789100Y-115730775D01*
X116800126Y-115618823D01*
X116843698Y-115475186D01*
X116843699Y-115475182D01*
X116914454Y-115342810D01*
X116934868Y-115317935D01*
X117009678Y-115226778D01*
X117125708Y-115131555D01*
X117125707Y-115131555D01*
X117125709Y-115131554D01*
X117258081Y-115060799D01*
X117295458Y-115049461D01*
X117401722Y-115017226D01*
X117551100Y-115002514D01*
X117700477Y-115017226D01*
X117700477Y-115017226D01*
G37*
G36*
X120240477Y-115017226D02*
G01*
X120346741Y-115049461D01*
X120384118Y-115060799D01*
X120516490Y-115131554D01*
X120516492Y-115131555D01*
X120516491Y-115131555D01*
X120632522Y-115226778D01*
X120707332Y-115317935D01*
X120727746Y-115342809D01*
X120798501Y-115475181D01*
X120809839Y-115512558D01*
X120842074Y-115618822D01*
X120853100Y-115730774D01*
X120853100Y-117126426D01*
X120842074Y-117238378D01*
X120809839Y-117344642D01*
X120798501Y-117382019D01*
X120727746Y-117514391D01*
X120632522Y-117630422D01*
X120516491Y-117725646D01*
X120384119Y-117796401D01*
X120346742Y-117807739D01*
X120240478Y-117839974D01*
X120091100Y-117854686D01*
X119941723Y-117839974D01*
X119835459Y-117807739D01*
X119798082Y-117796401D01*
X119665710Y-117725646D01*
X119549679Y-117630422D01*
X119454455Y-117514391D01*
X119383700Y-117382019D01*
X119372362Y-117344642D01*
X119340127Y-117238378D01*
X119329101Y-117126426D01*
X119329100Y-115730775D01*
X119340126Y-115618823D01*
X119383698Y-115475186D01*
X119383699Y-115475182D01*
X119454454Y-115342810D01*
X119474868Y-115317935D01*
X119549678Y-115226778D01*
X119665708Y-115131555D01*
X119665707Y-115131555D01*
X119665709Y-115131554D01*
X119798081Y-115060799D01*
X119835458Y-115049461D01*
X119941722Y-115017226D01*
X120091100Y-115002514D01*
X120240477Y-115017226D01*
X120240477Y-115017226D01*
G37*
G36*
X115160477Y-115017226D02*
G01*
X115266741Y-115049461D01*
X115304118Y-115060799D01*
X115436490Y-115131554D01*
X115436492Y-115131555D01*
X115436491Y-115131555D01*
X115552522Y-115226778D01*
X115627332Y-115317935D01*
X115647746Y-115342809D01*
X115718501Y-115475181D01*
X115729839Y-115512558D01*
X115762074Y-115618822D01*
X115773100Y-115730774D01*
X115773100Y-117126426D01*
X115762074Y-117238378D01*
X115729839Y-117344642D01*
X115718501Y-117382019D01*
X115647746Y-117514391D01*
X115552522Y-117630422D01*
X115436491Y-117725646D01*
X115304119Y-117796401D01*
X115266742Y-117807739D01*
X115160478Y-117839974D01*
X115011100Y-117854686D01*
X114861723Y-117839974D01*
X114755459Y-117807739D01*
X114718082Y-117796401D01*
X114585710Y-117725646D01*
X114469679Y-117630422D01*
X114374455Y-117514391D01*
X114303700Y-117382019D01*
X114292362Y-117344642D01*
X114260127Y-117238378D01*
X114249101Y-117126426D01*
X114249100Y-115730775D01*
X114260126Y-115618823D01*
X114303698Y-115475186D01*
X114303699Y-115475182D01*
X114374454Y-115342810D01*
X114394868Y-115317935D01*
X114469678Y-115226778D01*
X114585708Y-115131555D01*
X114585707Y-115131555D01*
X114585709Y-115131554D01*
X114718081Y-115060799D01*
X114755458Y-115049461D01*
X114861722Y-115017226D01*
X115011100Y-115002514D01*
X115160477Y-115017226D01*
X115160477Y-115017226D01*
G37*
G36*
X112620477Y-115017226D02*
G01*
X112726741Y-115049461D01*
X112764118Y-115060799D01*
X112896490Y-115131554D01*
X112896492Y-115131555D01*
X112896491Y-115131555D01*
X113012522Y-115226778D01*
X113087332Y-115317935D01*
X113107746Y-115342809D01*
X113178501Y-115475181D01*
X113189839Y-115512558D01*
X113222074Y-115618822D01*
X113233100Y-115730774D01*
X113233100Y-117126426D01*
X113222074Y-117238378D01*
X113189839Y-117344642D01*
X113178501Y-117382019D01*
X113107746Y-117514391D01*
X113012522Y-117630422D01*
X112896491Y-117725646D01*
X112764119Y-117796401D01*
X112726742Y-117807739D01*
X112620478Y-117839974D01*
X112471100Y-117854686D01*
X112321723Y-117839974D01*
X112215459Y-117807739D01*
X112178082Y-117796401D01*
X112045710Y-117725646D01*
X111929679Y-117630422D01*
X111834455Y-117514391D01*
X111763700Y-117382019D01*
X111752362Y-117344642D01*
X111720127Y-117238378D01*
X111709101Y-117126426D01*
X111709100Y-115730775D01*
X111720126Y-115618823D01*
X111763698Y-115475186D01*
X111763699Y-115475182D01*
X111834454Y-115342810D01*
X111854868Y-115317935D01*
X111929678Y-115226778D01*
X112045708Y-115131555D01*
X112045707Y-115131555D01*
X112045709Y-115131554D01*
X112178081Y-115060799D01*
X112215458Y-115049461D01*
X112321722Y-115017226D01*
X112471100Y-115002514D01*
X112620477Y-115017226D01*
X112620477Y-115017226D01*
G37*
G36*
X102460477Y-115017226D02*
G01*
X102566741Y-115049461D01*
X102604118Y-115060799D01*
X102736490Y-115131554D01*
X102736492Y-115131555D01*
X102736491Y-115131555D01*
X102852522Y-115226778D01*
X102927332Y-115317935D01*
X102947746Y-115342809D01*
X103018501Y-115475181D01*
X103029839Y-115512558D01*
X103062074Y-115618822D01*
X103073100Y-115730774D01*
X103073100Y-117126426D01*
X103062074Y-117238378D01*
X103029839Y-117344642D01*
X103018501Y-117382019D01*
X102947746Y-117514391D01*
X102852522Y-117630422D01*
X102736491Y-117725646D01*
X102604119Y-117796401D01*
X102566742Y-117807739D01*
X102460478Y-117839974D01*
X102311100Y-117854686D01*
X102161723Y-117839974D01*
X102055459Y-117807739D01*
X102018082Y-117796401D01*
X101885710Y-117725646D01*
X101769679Y-117630422D01*
X101674455Y-117514391D01*
X101603700Y-117382019D01*
X101592362Y-117344642D01*
X101560127Y-117238378D01*
X101549101Y-117126426D01*
X101549100Y-115730775D01*
X101560126Y-115618823D01*
X101603698Y-115475186D01*
X101603699Y-115475182D01*
X101674454Y-115342810D01*
X101694868Y-115317935D01*
X101769678Y-115226778D01*
X101885708Y-115131555D01*
X101885707Y-115131555D01*
X101885709Y-115131554D01*
X102018081Y-115060799D01*
X102055458Y-115049461D01*
X102161722Y-115017226D01*
X102311100Y-115002514D01*
X102460477Y-115017226D01*
X102460477Y-115017226D01*
G37*
G36*
X110080477Y-115017226D02*
G01*
X110186741Y-115049461D01*
X110224118Y-115060799D01*
X110356490Y-115131554D01*
X110356492Y-115131555D01*
X110356491Y-115131555D01*
X110472522Y-115226778D01*
X110547332Y-115317935D01*
X110567746Y-115342809D01*
X110638501Y-115475181D01*
X110649839Y-115512558D01*
X110682074Y-115618822D01*
X110693100Y-115730774D01*
X110693100Y-117126426D01*
X110682074Y-117238378D01*
X110649839Y-117344642D01*
X110638501Y-117382019D01*
X110567746Y-117514391D01*
X110472522Y-117630422D01*
X110356491Y-117725646D01*
X110224119Y-117796401D01*
X110186742Y-117807739D01*
X110080478Y-117839974D01*
X109931100Y-117854686D01*
X109781723Y-117839974D01*
X109675459Y-117807739D01*
X109638082Y-117796401D01*
X109505710Y-117725646D01*
X109389679Y-117630422D01*
X109294455Y-117514391D01*
X109223700Y-117382019D01*
X109212362Y-117344642D01*
X109180127Y-117238378D01*
X109169101Y-117126426D01*
X109169100Y-115730775D01*
X109180126Y-115618823D01*
X109223698Y-115475186D01*
X109223699Y-115475182D01*
X109294454Y-115342810D01*
X109314868Y-115317935D01*
X109389678Y-115226778D01*
X109505708Y-115131555D01*
X109505707Y-115131555D01*
X109505709Y-115131554D01*
X109638081Y-115060799D01*
X109675458Y-115049461D01*
X109781722Y-115017226D01*
X109931100Y-115002514D01*
X110080477Y-115017226D01*
X110080477Y-115017226D01*
G37*
G36*
X181670200Y-116010200D02*
G01*
X149952000Y-116010200D01*
X149952000Y-112307000D01*
X181670200Y-112307000D01*
X181670200Y-116010200D01*
X181670200Y-116010200D01*
G37*
G36*
X125962028Y-114349720D02*
G01*
X126041637Y-114357561D01*
X126194850Y-114404038D01*
X126194853Y-114404039D01*
X126336052Y-114479511D01*
X126459817Y-114581083D01*
X126561389Y-114704848D01*
X126636861Y-114846047D01*
X126636862Y-114846050D01*
X126683339Y-114999263D01*
X126699032Y-115158600D01*
X126683339Y-115317937D01*
X126636862Y-115471150D01*
X126636861Y-115471153D01*
X126561389Y-115612352D01*
X126459817Y-115736117D01*
X126336052Y-115837689D01*
X126194853Y-115913161D01*
X126194850Y-115913162D01*
X126041637Y-115959639D01*
X125962028Y-115967480D01*
X125922224Y-115971400D01*
X124419976Y-115971400D01*
X124380172Y-115967480D01*
X124300563Y-115959639D01*
X124147350Y-115913162D01*
X124147347Y-115913161D01*
X124006148Y-115837689D01*
X123882383Y-115736117D01*
X123780811Y-115612352D01*
X123705339Y-115471153D01*
X123705338Y-115471150D01*
X123658861Y-115317937D01*
X123643168Y-115158600D01*
X123658861Y-114999263D01*
X123705338Y-114846050D01*
X123705339Y-114846047D01*
X123780811Y-114704848D01*
X123882383Y-114581083D01*
X124006148Y-114479511D01*
X124147347Y-114404039D01*
X124147350Y-114404038D01*
X124300563Y-114357561D01*
X124380172Y-114349720D01*
X124419976Y-114345800D01*
X125922224Y-114345800D01*
X125962028Y-114349720D01*
X125962028Y-114349720D01*
G37*
G36*
X125962028Y-111809720D02*
G01*
X126041637Y-111817561D01*
X126194850Y-111864038D01*
X126194853Y-111864039D01*
X126336052Y-111939511D01*
X126459817Y-112041083D01*
X126561389Y-112164848D01*
X126636861Y-112306047D01*
X126636862Y-112306050D01*
X126683339Y-112459263D01*
X126699032Y-112618600D01*
X126683339Y-112777937D01*
X126636862Y-112931150D01*
X126636861Y-112931153D01*
X126561389Y-113072352D01*
X126459817Y-113196117D01*
X126336052Y-113297689D01*
X126194853Y-113373161D01*
X126194850Y-113373162D01*
X126041637Y-113419639D01*
X125962028Y-113427480D01*
X125922224Y-113431400D01*
X124419976Y-113431400D01*
X124380172Y-113427480D01*
X124300563Y-113419639D01*
X124147350Y-113373162D01*
X124147347Y-113373161D01*
X124006148Y-113297689D01*
X123882383Y-113196117D01*
X123780811Y-113072352D01*
X123705339Y-112931153D01*
X123705338Y-112931150D01*
X123658861Y-112777937D01*
X123643168Y-112618600D01*
X123658861Y-112459263D01*
X123705338Y-112306050D01*
X123705339Y-112306047D01*
X123780811Y-112164848D01*
X123882383Y-112041083D01*
X124006148Y-111939511D01*
X124147347Y-111864039D01*
X124147350Y-111864038D01*
X124300563Y-111817561D01*
X124380172Y-111809720D01*
X124419976Y-111805800D01*
X125922224Y-111805800D01*
X125962028Y-111809720D01*
X125962028Y-111809720D01*
G37*
G36*
X186115649Y-110219716D02*
G01*
X186226834Y-110241832D01*
X186436303Y-110328597D01*
X186624820Y-110454560D01*
X186785140Y-110614880D01*
X186911103Y-110803397D01*
X186997868Y-111012866D01*
X187042100Y-111235236D01*
X187042100Y-111461964D01*
X186997868Y-111684334D01*
X186911103Y-111893803D01*
X186785140Y-112082320D01*
X186624820Y-112242640D01*
X186436303Y-112368603D01*
X186226834Y-112455368D01*
X186207252Y-112459263D01*
X186004465Y-112499600D01*
X185777735Y-112499600D01*
X185574948Y-112459263D01*
X185555366Y-112455368D01*
X185345897Y-112368603D01*
X185157380Y-112242640D01*
X184997060Y-112082320D01*
X184871097Y-111893803D01*
X184784332Y-111684334D01*
X184740100Y-111461964D01*
X184740100Y-111235236D01*
X184784332Y-111012866D01*
X184871097Y-110803397D01*
X184997060Y-110614880D01*
X185157380Y-110454560D01*
X185345897Y-110328597D01*
X185555366Y-110241832D01*
X185666551Y-110219716D01*
X185777735Y-110197600D01*
X186004465Y-110197600D01*
X186115649Y-110219716D01*
X186115649Y-110219716D01*
G37*
G36*
X145955649Y-110219716D02*
G01*
X146066834Y-110241832D01*
X146276303Y-110328597D01*
X146464820Y-110454560D01*
X146625140Y-110614880D01*
X146751103Y-110803397D01*
X146837868Y-111012866D01*
X146882100Y-111235236D01*
X146882100Y-111461964D01*
X146837868Y-111684334D01*
X146751103Y-111893803D01*
X146625140Y-112082320D01*
X146464820Y-112242640D01*
X146276303Y-112368603D01*
X146066834Y-112455368D01*
X146047252Y-112459263D01*
X145844465Y-112499600D01*
X145617735Y-112499600D01*
X145414948Y-112459263D01*
X145395366Y-112455368D01*
X145185897Y-112368603D01*
X144997380Y-112242640D01*
X144837060Y-112082320D01*
X144711097Y-111893803D01*
X144624332Y-111684334D01*
X144580100Y-111461964D01*
X144580100Y-111235236D01*
X144624332Y-111012866D01*
X144711097Y-110803397D01*
X144837060Y-110614880D01*
X144997380Y-110454560D01*
X145185897Y-110328597D01*
X145395366Y-110241832D01*
X145506551Y-110219716D01*
X145617735Y-110197600D01*
X145844465Y-110197600D01*
X145955649Y-110219716D01*
X145955649Y-110219716D01*
G37*
G36*
X193924295Y-110606122D02*
G01*
X193973367Y-110615883D01*
X194112042Y-110673324D01*
X194236847Y-110756716D01*
X194342984Y-110862853D01*
X194426376Y-110987658D01*
X194483817Y-111126333D01*
X194513100Y-111273550D01*
X194513100Y-111423650D01*
X194483817Y-111570867D01*
X194426376Y-111709542D01*
X194342984Y-111834347D01*
X194236847Y-111940484D01*
X194112042Y-112023876D01*
X193973367Y-112081317D01*
X193924295Y-112091078D01*
X193826152Y-112110600D01*
X193676048Y-112110600D01*
X193577905Y-112091078D01*
X193528833Y-112081317D01*
X193390158Y-112023876D01*
X193265353Y-111940484D01*
X193159216Y-111834347D01*
X193075824Y-111709542D01*
X193018383Y-111570867D01*
X192989100Y-111423650D01*
X192989100Y-111273550D01*
X193018383Y-111126333D01*
X193075824Y-110987658D01*
X193159216Y-110862853D01*
X193265353Y-110756716D01*
X193390158Y-110673324D01*
X193528833Y-110615883D01*
X193577905Y-110606122D01*
X193676048Y-110586600D01*
X193826152Y-110586600D01*
X193924295Y-110606122D01*
X193924295Y-110606122D01*
G37*
G36*
X99944295Y-110606122D02*
G01*
X99993367Y-110615883D01*
X100132042Y-110673324D01*
X100256847Y-110756716D01*
X100362984Y-110862853D01*
X100446376Y-110987658D01*
X100503817Y-111126333D01*
X100533100Y-111273550D01*
X100533100Y-111423650D01*
X100503817Y-111570867D01*
X100446376Y-111709542D01*
X100362984Y-111834347D01*
X100256847Y-111940484D01*
X100132042Y-112023876D01*
X99993367Y-112081317D01*
X99944295Y-112091078D01*
X99846152Y-112110600D01*
X99696048Y-112110600D01*
X99597905Y-112091078D01*
X99548833Y-112081317D01*
X99410158Y-112023876D01*
X99285353Y-111940484D01*
X99179216Y-111834347D01*
X99095824Y-111709542D01*
X99038383Y-111570867D01*
X99009100Y-111423650D01*
X99009100Y-111273550D01*
X99038383Y-111126333D01*
X99095824Y-110987658D01*
X99179216Y-110862853D01*
X99285353Y-110756716D01*
X99410158Y-110673324D01*
X99548833Y-110615883D01*
X99597905Y-110606122D01*
X99696048Y-110586600D01*
X99846152Y-110586600D01*
X99944295Y-110606122D01*
X99944295Y-110606122D01*
G37*
G36*
X125962028Y-109269720D02*
G01*
X126041637Y-109277561D01*
X126170330Y-109316600D01*
X126194853Y-109324039D01*
X126336052Y-109399511D01*
X126459817Y-109501083D01*
X126561389Y-109624848D01*
X126636861Y-109766047D01*
X126636862Y-109766050D01*
X126683339Y-109919263D01*
X126699032Y-110078600D01*
X126683339Y-110237937D01*
X126655837Y-110328597D01*
X126636861Y-110391153D01*
X126561389Y-110532352D01*
X126459817Y-110656117D01*
X126336052Y-110757689D01*
X126194853Y-110833161D01*
X126194850Y-110833162D01*
X126041637Y-110879639D01*
X125962028Y-110887480D01*
X125922224Y-110891400D01*
X124419976Y-110891400D01*
X124380172Y-110887480D01*
X124300563Y-110879639D01*
X124147350Y-110833162D01*
X124147347Y-110833161D01*
X124006148Y-110757689D01*
X123882383Y-110656117D01*
X123780811Y-110532352D01*
X123705339Y-110391153D01*
X123686363Y-110328597D01*
X123658861Y-110237937D01*
X123643168Y-110078600D01*
X123658861Y-109919263D01*
X123705338Y-109766050D01*
X123705339Y-109766047D01*
X123780811Y-109624848D01*
X123882383Y-109501083D01*
X124006148Y-109399511D01*
X124147347Y-109324039D01*
X124171870Y-109316600D01*
X124300563Y-109277561D01*
X124380172Y-109269720D01*
X124419976Y-109265800D01*
X125922224Y-109265800D01*
X125962028Y-109269720D01*
X125962028Y-109269720D01*
G37*
G36*
X138044295Y-109336122D02*
G01*
X138093367Y-109345883D01*
X138232042Y-109403324D01*
X138356847Y-109486716D01*
X138462984Y-109592853D01*
X138546376Y-109717658D01*
X138603817Y-109856333D01*
X138603817Y-109856334D01*
X138633100Y-110003548D01*
X138633100Y-110153652D01*
X138616981Y-110234686D01*
X138603817Y-110300867D01*
X138546376Y-110439542D01*
X138462984Y-110564347D01*
X138356847Y-110670484D01*
X138232042Y-110753876D01*
X138093367Y-110811317D01*
X138044295Y-110821078D01*
X137946152Y-110840600D01*
X137796048Y-110840600D01*
X137697905Y-110821078D01*
X137648833Y-110811317D01*
X137510158Y-110753876D01*
X137385353Y-110670484D01*
X137279216Y-110564347D01*
X137195824Y-110439542D01*
X137138383Y-110300867D01*
X137125219Y-110234686D01*
X137109100Y-110153652D01*
X137109100Y-110003548D01*
X137138383Y-109856334D01*
X137138383Y-109856333D01*
X137195824Y-109717658D01*
X137279216Y-109592853D01*
X137385353Y-109486716D01*
X137510158Y-109403324D01*
X137648833Y-109345883D01*
X137697905Y-109336122D01*
X137796048Y-109316600D01*
X137946152Y-109316600D01*
X138044295Y-109336122D01*
X138044295Y-109336122D01*
G37*
G36*
X135504295Y-109336122D02*
G01*
X135553367Y-109345883D01*
X135692042Y-109403324D01*
X135816847Y-109486716D01*
X135922984Y-109592853D01*
X136006376Y-109717658D01*
X136063817Y-109856333D01*
X136063817Y-109856334D01*
X136093100Y-110003548D01*
X136093100Y-110153652D01*
X136076981Y-110234686D01*
X136063817Y-110300867D01*
X136006376Y-110439542D01*
X135922984Y-110564347D01*
X135816847Y-110670484D01*
X135692042Y-110753876D01*
X135553367Y-110811317D01*
X135504295Y-110821078D01*
X135406152Y-110840600D01*
X135256048Y-110840600D01*
X135157905Y-110821078D01*
X135108833Y-110811317D01*
X134970158Y-110753876D01*
X134845353Y-110670484D01*
X134739216Y-110564347D01*
X134655824Y-110439542D01*
X134598383Y-110300867D01*
X134585219Y-110234686D01*
X134569100Y-110153652D01*
X134569100Y-110003548D01*
X134598383Y-109856334D01*
X134598383Y-109856333D01*
X134655824Y-109717658D01*
X134739216Y-109592853D01*
X134845353Y-109486716D01*
X134970158Y-109403324D01*
X135108833Y-109345883D01*
X135157905Y-109336122D01*
X135256048Y-109316600D01*
X135406152Y-109316600D01*
X135504295Y-109336122D01*
X135504295Y-109336122D01*
G37*
G36*
X102460477Y-107397226D02*
G01*
X102566741Y-107429461D01*
X102604118Y-107440799D01*
X102736490Y-107511554D01*
X102736492Y-107511555D01*
X102736491Y-107511555D01*
X102852522Y-107606778D01*
X102930670Y-107702002D01*
X102947746Y-107722809D01*
X103018501Y-107855181D01*
X103029839Y-107892558D01*
X103062074Y-107998822D01*
X103073100Y-108110774D01*
X103073100Y-109506426D01*
X103062074Y-109618378D01*
X103060111Y-109624848D01*
X103018501Y-109762019D01*
X102947746Y-109894391D01*
X102852522Y-110010422D01*
X102736491Y-110105646D01*
X102604119Y-110176401D01*
X102566742Y-110187739D01*
X102460478Y-110219974D01*
X102311100Y-110234686D01*
X102161723Y-110219974D01*
X102055459Y-110187739D01*
X102018082Y-110176401D01*
X101885710Y-110105646D01*
X101769679Y-110010422D01*
X101674455Y-109894391D01*
X101603700Y-109762019D01*
X101562090Y-109624848D01*
X101560127Y-109618378D01*
X101549101Y-109506426D01*
X101549100Y-108110775D01*
X101560126Y-107998823D01*
X101603698Y-107855186D01*
X101603699Y-107855182D01*
X101674454Y-107722810D01*
X101735235Y-107648748D01*
X101769678Y-107606778D01*
X101885708Y-107511555D01*
X101885707Y-107511555D01*
X101885709Y-107511554D01*
X102018081Y-107440799D01*
X102055458Y-107429461D01*
X102161722Y-107397226D01*
X102311100Y-107382514D01*
X102460477Y-107397226D01*
X102460477Y-107397226D01*
G37*
G36*
X110080477Y-107397226D02*
G01*
X110186741Y-107429461D01*
X110224118Y-107440799D01*
X110356490Y-107511554D01*
X110356492Y-107511555D01*
X110356491Y-107511555D01*
X110472522Y-107606778D01*
X110550670Y-107702002D01*
X110567746Y-107722809D01*
X110638501Y-107855181D01*
X110649839Y-107892558D01*
X110682074Y-107998822D01*
X110693100Y-108110774D01*
X110693100Y-109506426D01*
X110682074Y-109618378D01*
X110680111Y-109624848D01*
X110638501Y-109762019D01*
X110567746Y-109894391D01*
X110472522Y-110010422D01*
X110356491Y-110105646D01*
X110224119Y-110176401D01*
X110186742Y-110187739D01*
X110080478Y-110219974D01*
X109931100Y-110234686D01*
X109781723Y-110219974D01*
X109675459Y-110187739D01*
X109638082Y-110176401D01*
X109505710Y-110105646D01*
X109389679Y-110010422D01*
X109294455Y-109894391D01*
X109223700Y-109762019D01*
X109182090Y-109624848D01*
X109180127Y-109618378D01*
X109169101Y-109506426D01*
X109169100Y-108110775D01*
X109180126Y-107998823D01*
X109223698Y-107855186D01*
X109223699Y-107855182D01*
X109294454Y-107722810D01*
X109355235Y-107648748D01*
X109389678Y-107606778D01*
X109505708Y-107511555D01*
X109505707Y-107511555D01*
X109505709Y-107511554D01*
X109638081Y-107440799D01*
X109675458Y-107429461D01*
X109781722Y-107397226D01*
X109931100Y-107382514D01*
X110080477Y-107397226D01*
X110080477Y-107397226D01*
G37*
G36*
X105000477Y-107397226D02*
G01*
X105106741Y-107429461D01*
X105144118Y-107440799D01*
X105276490Y-107511554D01*
X105276492Y-107511555D01*
X105276491Y-107511555D01*
X105392522Y-107606778D01*
X105470670Y-107702002D01*
X105487746Y-107722809D01*
X105558501Y-107855181D01*
X105569839Y-107892558D01*
X105602074Y-107998822D01*
X105613100Y-108110774D01*
X105613100Y-109506426D01*
X105602074Y-109618378D01*
X105600111Y-109624848D01*
X105558501Y-109762019D01*
X105487746Y-109894391D01*
X105392522Y-110010422D01*
X105276491Y-110105646D01*
X105144119Y-110176401D01*
X105106742Y-110187739D01*
X105000478Y-110219974D01*
X104851100Y-110234686D01*
X104701723Y-110219974D01*
X104595459Y-110187739D01*
X104558082Y-110176401D01*
X104425710Y-110105646D01*
X104309679Y-110010422D01*
X104214455Y-109894391D01*
X104143700Y-109762019D01*
X104102090Y-109624848D01*
X104100127Y-109618378D01*
X104089101Y-109506426D01*
X104089100Y-108110775D01*
X104100126Y-107998823D01*
X104143698Y-107855186D01*
X104143699Y-107855182D01*
X104214454Y-107722810D01*
X104275235Y-107648748D01*
X104309678Y-107606778D01*
X104425708Y-107511555D01*
X104425707Y-107511555D01*
X104425709Y-107511554D01*
X104558081Y-107440799D01*
X104595458Y-107429461D01*
X104701722Y-107397226D01*
X104851100Y-107382514D01*
X105000477Y-107397226D01*
X105000477Y-107397226D01*
G37*
G36*
X107540477Y-107397226D02*
G01*
X107646741Y-107429461D01*
X107684118Y-107440799D01*
X107816490Y-107511554D01*
X107816492Y-107511555D01*
X107816491Y-107511555D01*
X107932522Y-107606778D01*
X108010670Y-107702002D01*
X108027746Y-107722809D01*
X108098501Y-107855181D01*
X108109839Y-107892558D01*
X108142074Y-107998822D01*
X108153100Y-108110774D01*
X108153100Y-109506426D01*
X108142074Y-109618378D01*
X108140111Y-109624848D01*
X108098501Y-109762019D01*
X108027746Y-109894391D01*
X107932522Y-110010422D01*
X107816491Y-110105646D01*
X107684119Y-110176401D01*
X107646742Y-110187739D01*
X107540478Y-110219974D01*
X107391100Y-110234686D01*
X107241723Y-110219974D01*
X107135459Y-110187739D01*
X107098082Y-110176401D01*
X106965710Y-110105646D01*
X106849679Y-110010422D01*
X106754455Y-109894391D01*
X106683700Y-109762019D01*
X106642090Y-109624848D01*
X106640127Y-109618378D01*
X106629101Y-109506426D01*
X106629100Y-108110775D01*
X106640126Y-107998823D01*
X106683698Y-107855186D01*
X106683699Y-107855182D01*
X106754454Y-107722810D01*
X106815235Y-107648748D01*
X106849678Y-107606778D01*
X106965708Y-107511555D01*
X106965707Y-107511555D01*
X106965709Y-107511554D01*
X107098081Y-107440799D01*
X107135458Y-107429461D01*
X107241722Y-107397226D01*
X107391100Y-107382514D01*
X107540477Y-107397226D01*
X107540477Y-107397226D01*
G37*
G36*
X117700477Y-107397226D02*
G01*
X117806741Y-107429461D01*
X117844118Y-107440799D01*
X117976490Y-107511554D01*
X117976492Y-107511555D01*
X117976491Y-107511555D01*
X118092522Y-107606778D01*
X118170670Y-107702002D01*
X118187746Y-107722809D01*
X118258501Y-107855181D01*
X118269839Y-107892558D01*
X118302074Y-107998822D01*
X118313100Y-108110774D01*
X118313100Y-109506426D01*
X118302074Y-109618378D01*
X118300111Y-109624848D01*
X118258501Y-109762019D01*
X118187746Y-109894391D01*
X118092522Y-110010422D01*
X117976491Y-110105646D01*
X117844119Y-110176401D01*
X117806742Y-110187739D01*
X117700478Y-110219974D01*
X117551100Y-110234686D01*
X117401723Y-110219974D01*
X117295459Y-110187739D01*
X117258082Y-110176401D01*
X117125710Y-110105646D01*
X117009679Y-110010422D01*
X116914455Y-109894391D01*
X116843700Y-109762019D01*
X116802090Y-109624848D01*
X116800127Y-109618378D01*
X116789101Y-109506426D01*
X116789100Y-108110775D01*
X116800126Y-107998823D01*
X116843698Y-107855186D01*
X116843699Y-107855182D01*
X116914454Y-107722810D01*
X116975235Y-107648748D01*
X117009678Y-107606778D01*
X117125708Y-107511555D01*
X117125707Y-107511555D01*
X117125709Y-107511554D01*
X117258081Y-107440799D01*
X117295458Y-107429461D01*
X117401722Y-107397226D01*
X117551100Y-107382514D01*
X117700477Y-107397226D01*
X117700477Y-107397226D01*
G37*
G36*
X115160477Y-107397226D02*
G01*
X115266741Y-107429461D01*
X115304118Y-107440799D01*
X115436490Y-107511554D01*
X115436492Y-107511555D01*
X115436491Y-107511555D01*
X115552522Y-107606778D01*
X115630670Y-107702002D01*
X115647746Y-107722809D01*
X115718501Y-107855181D01*
X115729839Y-107892558D01*
X115762074Y-107998822D01*
X115773100Y-108110774D01*
X115773100Y-109506426D01*
X115762074Y-109618378D01*
X115760111Y-109624848D01*
X115718501Y-109762019D01*
X115647746Y-109894391D01*
X115552522Y-110010422D01*
X115436491Y-110105646D01*
X115304119Y-110176401D01*
X115266742Y-110187739D01*
X115160478Y-110219974D01*
X115011100Y-110234686D01*
X114861723Y-110219974D01*
X114755459Y-110187739D01*
X114718082Y-110176401D01*
X114585710Y-110105646D01*
X114469679Y-110010422D01*
X114374455Y-109894391D01*
X114303700Y-109762019D01*
X114262090Y-109624848D01*
X114260127Y-109618378D01*
X114249101Y-109506426D01*
X114249100Y-108110775D01*
X114260126Y-107998823D01*
X114303698Y-107855186D01*
X114303699Y-107855182D01*
X114374454Y-107722810D01*
X114435235Y-107648748D01*
X114469678Y-107606778D01*
X114585708Y-107511555D01*
X114585707Y-107511555D01*
X114585709Y-107511554D01*
X114718081Y-107440799D01*
X114755458Y-107429461D01*
X114861722Y-107397226D01*
X115011100Y-107382514D01*
X115160477Y-107397226D01*
X115160477Y-107397226D01*
G37*
G36*
X112620477Y-107397226D02*
G01*
X112726741Y-107429461D01*
X112764118Y-107440799D01*
X112896490Y-107511554D01*
X112896492Y-107511555D01*
X112896491Y-107511555D01*
X113012522Y-107606778D01*
X113090670Y-107702002D01*
X113107746Y-107722809D01*
X113178501Y-107855181D01*
X113189839Y-107892558D01*
X113222074Y-107998822D01*
X113233100Y-108110774D01*
X113233100Y-109506426D01*
X113222074Y-109618378D01*
X113220111Y-109624848D01*
X113178501Y-109762019D01*
X113107746Y-109894391D01*
X113012522Y-110010422D01*
X112896491Y-110105646D01*
X112764119Y-110176401D01*
X112726742Y-110187739D01*
X112620478Y-110219974D01*
X112471100Y-110234686D01*
X112321723Y-110219974D01*
X112215459Y-110187739D01*
X112178082Y-110176401D01*
X112045710Y-110105646D01*
X111929679Y-110010422D01*
X111834455Y-109894391D01*
X111763700Y-109762019D01*
X111722090Y-109624848D01*
X111720127Y-109618378D01*
X111709101Y-109506426D01*
X111709100Y-108110775D01*
X111720126Y-107998823D01*
X111763698Y-107855186D01*
X111763699Y-107855182D01*
X111834454Y-107722810D01*
X111895235Y-107648748D01*
X111929678Y-107606778D01*
X112045708Y-107511555D01*
X112045707Y-107511555D01*
X112045709Y-107511554D01*
X112178081Y-107440799D01*
X112215458Y-107429461D01*
X112321722Y-107397226D01*
X112471100Y-107382514D01*
X112620477Y-107397226D01*
X112620477Y-107397226D01*
G37*
G36*
X120240477Y-107397226D02*
G01*
X120346741Y-107429461D01*
X120384118Y-107440799D01*
X120516490Y-107511554D01*
X120516492Y-107511555D01*
X120516491Y-107511555D01*
X120632522Y-107606778D01*
X120710670Y-107702002D01*
X120727746Y-107722809D01*
X120798501Y-107855181D01*
X120809839Y-107892558D01*
X120842074Y-107998822D01*
X120853100Y-108110774D01*
X120853100Y-109506426D01*
X120842074Y-109618378D01*
X120840111Y-109624848D01*
X120798501Y-109762019D01*
X120727746Y-109894391D01*
X120632522Y-110010422D01*
X120516491Y-110105646D01*
X120384119Y-110176401D01*
X120346742Y-110187739D01*
X120240478Y-110219974D01*
X120091100Y-110234686D01*
X119941723Y-110219974D01*
X119835459Y-110187739D01*
X119798082Y-110176401D01*
X119665710Y-110105646D01*
X119549679Y-110010422D01*
X119454455Y-109894391D01*
X119383700Y-109762019D01*
X119342090Y-109624848D01*
X119340127Y-109618378D01*
X119329101Y-109506426D01*
X119329100Y-108110775D01*
X119340126Y-107998823D01*
X119383698Y-107855186D01*
X119383699Y-107855182D01*
X119454454Y-107722810D01*
X119515235Y-107648748D01*
X119549678Y-107606778D01*
X119665708Y-107511555D01*
X119665707Y-107511555D01*
X119665709Y-107511554D01*
X119798081Y-107440799D01*
X119835458Y-107429461D01*
X119941722Y-107397226D01*
X120091100Y-107382514D01*
X120240477Y-107397226D01*
X120240477Y-107397226D01*
G37*
G36*
X193924295Y-108066122D02*
G01*
X193973367Y-108075883D01*
X194112042Y-108133324D01*
X194236847Y-108216716D01*
X194342984Y-108322853D01*
X194426376Y-108447658D01*
X194483817Y-108586333D01*
X194513100Y-108733550D01*
X194513100Y-108883650D01*
X194483817Y-109030867D01*
X194426376Y-109169542D01*
X194342984Y-109294347D01*
X194236847Y-109400484D01*
X194112042Y-109483876D01*
X193973367Y-109541317D01*
X193924295Y-109551078D01*
X193826152Y-109570600D01*
X193676048Y-109570600D01*
X193577905Y-109551078D01*
X193528833Y-109541317D01*
X193390158Y-109483876D01*
X193265353Y-109400484D01*
X193159216Y-109294347D01*
X193075824Y-109169542D01*
X193018383Y-109030867D01*
X192989100Y-108883650D01*
X192989100Y-108733550D01*
X193018383Y-108586333D01*
X193075824Y-108447658D01*
X193159216Y-108322853D01*
X193265353Y-108216716D01*
X193390158Y-108133324D01*
X193528833Y-108075883D01*
X193577905Y-108066122D01*
X193676048Y-108046600D01*
X193826152Y-108046600D01*
X193924295Y-108066122D01*
X193924295Y-108066122D01*
G37*
G36*
X99944295Y-108066122D02*
G01*
X99993367Y-108075883D01*
X100132042Y-108133324D01*
X100256847Y-108216716D01*
X100362984Y-108322853D01*
X100446376Y-108447658D01*
X100503817Y-108586333D01*
X100533100Y-108733550D01*
X100533100Y-108883650D01*
X100503817Y-109030867D01*
X100446376Y-109169542D01*
X100362984Y-109294347D01*
X100256847Y-109400484D01*
X100132042Y-109483876D01*
X99993367Y-109541317D01*
X99944295Y-109551078D01*
X99846152Y-109570600D01*
X99696048Y-109570600D01*
X99597905Y-109551078D01*
X99548833Y-109541317D01*
X99410158Y-109483876D01*
X99285353Y-109400484D01*
X99179216Y-109294347D01*
X99095824Y-109169542D01*
X99038383Y-109030867D01*
X99009100Y-108883650D01*
X99009100Y-108733550D01*
X99038383Y-108586333D01*
X99095824Y-108447658D01*
X99179216Y-108322853D01*
X99285353Y-108216716D01*
X99410158Y-108133324D01*
X99548833Y-108075883D01*
X99597905Y-108066122D01*
X99696048Y-108046600D01*
X99846152Y-108046600D01*
X99944295Y-108066122D01*
X99944295Y-108066122D01*
G37*
G36*
X145844612Y-107452527D02*
G01*
X145993912Y-107482224D01*
X146157884Y-107550144D01*
X146305454Y-107648747D01*
X146430953Y-107774246D01*
X146529556Y-107921816D01*
X146597476Y-108085788D01*
X146632100Y-108259859D01*
X146632100Y-108437341D01*
X146597476Y-108611412D01*
X146529556Y-108775384D01*
X146430953Y-108922954D01*
X146305454Y-109048453D01*
X146157884Y-109147056D01*
X145993912Y-109214976D01*
X145844612Y-109244673D01*
X145819842Y-109249600D01*
X145642358Y-109249600D01*
X145617588Y-109244673D01*
X145468288Y-109214976D01*
X145304316Y-109147056D01*
X145156746Y-109048453D01*
X145031247Y-108922954D01*
X144932644Y-108775384D01*
X144864724Y-108611412D01*
X144830100Y-108437341D01*
X144830100Y-108259859D01*
X144864724Y-108085788D01*
X144932644Y-107921816D01*
X145031247Y-107774246D01*
X145156746Y-107648747D01*
X145304316Y-107550144D01*
X145468288Y-107482224D01*
X145617588Y-107452527D01*
X145642358Y-107447600D01*
X145819842Y-107447600D01*
X145844612Y-107452527D01*
X145844612Y-107452527D01*
G37*
G36*
X186004612Y-107452527D02*
G01*
X186153912Y-107482224D01*
X186317884Y-107550144D01*
X186465454Y-107648747D01*
X186590953Y-107774246D01*
X186689556Y-107921816D01*
X186757476Y-108085788D01*
X186792100Y-108259859D01*
X186792100Y-108437341D01*
X186757476Y-108611412D01*
X186689556Y-108775384D01*
X186590953Y-108922954D01*
X186465454Y-109048453D01*
X186317884Y-109147056D01*
X186153912Y-109214976D01*
X186004612Y-109244673D01*
X185979842Y-109249600D01*
X185802358Y-109249600D01*
X185777588Y-109244673D01*
X185628288Y-109214976D01*
X185464316Y-109147056D01*
X185316746Y-109048453D01*
X185191247Y-108922954D01*
X185092644Y-108775384D01*
X185024724Y-108611412D01*
X184990100Y-108437341D01*
X184990100Y-108259859D01*
X185024724Y-108085788D01*
X185092644Y-107921816D01*
X185191247Y-107774246D01*
X185316746Y-107648747D01*
X185464316Y-107550144D01*
X185628288Y-107482224D01*
X185777588Y-107452527D01*
X185802358Y-107447600D01*
X185979842Y-107447600D01*
X186004612Y-107452527D01*
X186004612Y-107452527D01*
G37*
G36*
X195194295Y-105526122D02*
G01*
X195243367Y-105535883D01*
X195382042Y-105593324D01*
X195506847Y-105676716D01*
X195612984Y-105782853D01*
X195696376Y-105907658D01*
X195753817Y-106046333D01*
X195783100Y-106193550D01*
X195783100Y-106343650D01*
X195753817Y-106490867D01*
X195696376Y-106629542D01*
X195612984Y-106754347D01*
X195506847Y-106860484D01*
X195382042Y-106943876D01*
X195243367Y-107001317D01*
X195194295Y-107011078D01*
X195096152Y-107030600D01*
X194946048Y-107030600D01*
X194847905Y-107011078D01*
X194798833Y-107001317D01*
X194660158Y-106943876D01*
X194535353Y-106860484D01*
X194429216Y-106754347D01*
X194345824Y-106629542D01*
X194288383Y-106490867D01*
X194259100Y-106343650D01*
X194259100Y-106193550D01*
X194288383Y-106046333D01*
X194345824Y-105907658D01*
X194429216Y-105782853D01*
X194535353Y-105676716D01*
X194660158Y-105593324D01*
X194798833Y-105535883D01*
X194847905Y-105526122D01*
X194946048Y-105506600D01*
X195096152Y-105506600D01*
X195194295Y-105526122D01*
X195194295Y-105526122D01*
G37*
G36*
X107643003Y-104168187D02*
G01*
X107800168Y-104233287D01*
X107941613Y-104327798D01*
X108061902Y-104448087D01*
X108156413Y-104589532D01*
X108221513Y-104746697D01*
X108254700Y-104913543D01*
X108254700Y-105083657D01*
X108221513Y-105250503D01*
X108156413Y-105407668D01*
X108061902Y-105549113D01*
X107941613Y-105669402D01*
X107800168Y-105763913D01*
X107643003Y-105829013D01*
X107476157Y-105862200D01*
X107306043Y-105862200D01*
X107139197Y-105829013D01*
X106982032Y-105763913D01*
X106840587Y-105669402D01*
X106720298Y-105549113D01*
X106625787Y-105407668D01*
X106560687Y-105250503D01*
X106527500Y-105083657D01*
X106527500Y-104913543D01*
X106560687Y-104746697D01*
X106625787Y-104589532D01*
X106720298Y-104448087D01*
X106840587Y-104327798D01*
X106982032Y-104233287D01*
X107139197Y-104168187D01*
X107306043Y-104135000D01*
X107476157Y-104135000D01*
X107643003Y-104168187D01*
X107643003Y-104168187D01*
G37*
G36*
X110183003Y-104168187D02*
G01*
X110340168Y-104233287D01*
X110481613Y-104327798D01*
X110601902Y-104448087D01*
X110696413Y-104589532D01*
X110761513Y-104746697D01*
X110794700Y-104913543D01*
X110794700Y-105083657D01*
X110761513Y-105250503D01*
X110696413Y-105407668D01*
X110601902Y-105549113D01*
X110481613Y-105669402D01*
X110340168Y-105763913D01*
X110183003Y-105829013D01*
X110016157Y-105862200D01*
X109846043Y-105862200D01*
X109679197Y-105829013D01*
X109522032Y-105763913D01*
X109380587Y-105669402D01*
X109260298Y-105549113D01*
X109165787Y-105407668D01*
X109100687Y-105250503D01*
X109067500Y-105083657D01*
X109067500Y-104913543D01*
X109100687Y-104746697D01*
X109165787Y-104589532D01*
X109260298Y-104448087D01*
X109380587Y-104327798D01*
X109522032Y-104233287D01*
X109679197Y-104168187D01*
X109846043Y-104135000D01*
X110016157Y-104135000D01*
X110183003Y-104168187D01*
X110183003Y-104168187D01*
G37*
G36*
X105103003Y-104168187D02*
G01*
X105260168Y-104233287D01*
X105401613Y-104327798D01*
X105521902Y-104448087D01*
X105616413Y-104589532D01*
X105681513Y-104746697D01*
X105714700Y-104913543D01*
X105714700Y-105083657D01*
X105681513Y-105250503D01*
X105616413Y-105407668D01*
X105521902Y-105549113D01*
X105401613Y-105669402D01*
X105260168Y-105763913D01*
X105103003Y-105829013D01*
X104936157Y-105862200D01*
X104766043Y-105862200D01*
X104599197Y-105829013D01*
X104442032Y-105763913D01*
X104300587Y-105669402D01*
X104180298Y-105549113D01*
X104085787Y-105407668D01*
X104020687Y-105250503D01*
X103987500Y-105083657D01*
X103987500Y-104913543D01*
X104020687Y-104746697D01*
X104085787Y-104589532D01*
X104180298Y-104448087D01*
X104300587Y-104327798D01*
X104442032Y-104233287D01*
X104599197Y-104168187D01*
X104766043Y-104135000D01*
X104936157Y-104135000D01*
X105103003Y-104168187D01*
X105103003Y-104168187D01*
G37*
G36*
X120343003Y-104168187D02*
G01*
X120500168Y-104233287D01*
X120641613Y-104327798D01*
X120761902Y-104448087D01*
X120856413Y-104589532D01*
X120921513Y-104746697D01*
X120954700Y-104913543D01*
X120954700Y-105083657D01*
X120921513Y-105250503D01*
X120856413Y-105407668D01*
X120761902Y-105549113D01*
X120641613Y-105669402D01*
X120500168Y-105763913D01*
X120343003Y-105829013D01*
X120176157Y-105862200D01*
X120006043Y-105862200D01*
X119839197Y-105829013D01*
X119682032Y-105763913D01*
X119540587Y-105669402D01*
X119420298Y-105549113D01*
X119325787Y-105407668D01*
X119260687Y-105250503D01*
X119227500Y-105083657D01*
X119227500Y-104913543D01*
X119260687Y-104746697D01*
X119325787Y-104589532D01*
X119420298Y-104448087D01*
X119540587Y-104327798D01*
X119682032Y-104233287D01*
X119839197Y-104168187D01*
X120006043Y-104135000D01*
X120176157Y-104135000D01*
X120343003Y-104168187D01*
X120343003Y-104168187D01*
G37*
G36*
X117803003Y-104168187D02*
G01*
X117960168Y-104233287D01*
X118101613Y-104327798D01*
X118221902Y-104448087D01*
X118316413Y-104589532D01*
X118381513Y-104746697D01*
X118414700Y-104913543D01*
X118414700Y-105083657D01*
X118381513Y-105250503D01*
X118316413Y-105407668D01*
X118221902Y-105549113D01*
X118101613Y-105669402D01*
X117960168Y-105763913D01*
X117803003Y-105829013D01*
X117636157Y-105862200D01*
X117466043Y-105862200D01*
X117299197Y-105829013D01*
X117142032Y-105763913D01*
X117000587Y-105669402D01*
X116880298Y-105549113D01*
X116785787Y-105407668D01*
X116720687Y-105250503D01*
X116687500Y-105083657D01*
X116687500Y-104913543D01*
X116720687Y-104746697D01*
X116785787Y-104589532D01*
X116880298Y-104448087D01*
X117000587Y-104327798D01*
X117142032Y-104233287D01*
X117299197Y-104168187D01*
X117466043Y-104135000D01*
X117636157Y-104135000D01*
X117803003Y-104168187D01*
X117803003Y-104168187D01*
G37*
G36*
X115263003Y-104168187D02*
G01*
X115420168Y-104233287D01*
X115561613Y-104327798D01*
X115681902Y-104448087D01*
X115776413Y-104589532D01*
X115841513Y-104746697D01*
X115874700Y-104913543D01*
X115874700Y-105083657D01*
X115841513Y-105250503D01*
X115776413Y-105407668D01*
X115681902Y-105549113D01*
X115561613Y-105669402D01*
X115420168Y-105763913D01*
X115263003Y-105829013D01*
X115096157Y-105862200D01*
X114926043Y-105862200D01*
X114759197Y-105829013D01*
X114602032Y-105763913D01*
X114460587Y-105669402D01*
X114340298Y-105549113D01*
X114245787Y-105407668D01*
X114180687Y-105250503D01*
X114147500Y-105083657D01*
X114147500Y-104913543D01*
X114180687Y-104746697D01*
X114245787Y-104589532D01*
X114340298Y-104448087D01*
X114460587Y-104327798D01*
X114602032Y-104233287D01*
X114759197Y-104168187D01*
X114926043Y-104135000D01*
X115096157Y-104135000D01*
X115263003Y-104168187D01*
X115263003Y-104168187D01*
G37*
G36*
X102563003Y-104168187D02*
G01*
X102720168Y-104233287D01*
X102861613Y-104327798D01*
X102981902Y-104448087D01*
X103076413Y-104589532D01*
X103141513Y-104746697D01*
X103174700Y-104913543D01*
X103174700Y-105083657D01*
X103141513Y-105250503D01*
X103076413Y-105407668D01*
X102981902Y-105549113D01*
X102861613Y-105669402D01*
X102720168Y-105763913D01*
X102563003Y-105829013D01*
X102396157Y-105862200D01*
X102226043Y-105862200D01*
X102059197Y-105829013D01*
X101902032Y-105763913D01*
X101760587Y-105669402D01*
X101640298Y-105549113D01*
X101545787Y-105407668D01*
X101480687Y-105250503D01*
X101447500Y-105083657D01*
X101447500Y-104913543D01*
X101480687Y-104746697D01*
X101545787Y-104589532D01*
X101640298Y-104448087D01*
X101760587Y-104327798D01*
X101902032Y-104233287D01*
X102059197Y-104168187D01*
X102226043Y-104135000D01*
X102396157Y-104135000D01*
X102563003Y-104168187D01*
X102563003Y-104168187D01*
G37*
G36*
X112723003Y-104168187D02*
G01*
X112880168Y-104233287D01*
X113021613Y-104327798D01*
X113141902Y-104448087D01*
X113236413Y-104589532D01*
X113301513Y-104746697D01*
X113334700Y-104913543D01*
X113334700Y-105083657D01*
X113301513Y-105250503D01*
X113236413Y-105407668D01*
X113141902Y-105549113D01*
X113021613Y-105669402D01*
X112880168Y-105763913D01*
X112723003Y-105829013D01*
X112556157Y-105862200D01*
X112386043Y-105862200D01*
X112219197Y-105829013D01*
X112062032Y-105763913D01*
X111920587Y-105669402D01*
X111800298Y-105549113D01*
X111705787Y-105407668D01*
X111640687Y-105250503D01*
X111607500Y-105083657D01*
X111607500Y-104913543D01*
X111640687Y-104746697D01*
X111705787Y-104589532D01*
X111800298Y-104448087D01*
X111920587Y-104327798D01*
X112062032Y-104233287D01*
X112219197Y-104168187D01*
X112386043Y-104135000D01*
X112556157Y-104135000D01*
X112723003Y-104168187D01*
X112723003Y-104168187D01*
G37*
G36*
X129154295Y-102986122D02*
G01*
X129203367Y-102995883D01*
X129342042Y-103053324D01*
X129466847Y-103136716D01*
X129572984Y-103242853D01*
X129656376Y-103367658D01*
X129713817Y-103506333D01*
X129743100Y-103653550D01*
X129743100Y-103803650D01*
X129713817Y-103950867D01*
X129656376Y-104089542D01*
X129572984Y-104214347D01*
X129466847Y-104320484D01*
X129342042Y-104403876D01*
X129203367Y-104461317D01*
X129154295Y-104471078D01*
X129056152Y-104490600D01*
X128906048Y-104490600D01*
X128807905Y-104471078D01*
X128758833Y-104461317D01*
X128620158Y-104403876D01*
X128495353Y-104320484D01*
X128389216Y-104214347D01*
X128305824Y-104089542D01*
X128248383Y-103950867D01*
X128219100Y-103803650D01*
X128219100Y-103653550D01*
X128248383Y-103506333D01*
X128305824Y-103367658D01*
X128389216Y-103242853D01*
X128495353Y-103136716D01*
X128620158Y-103053324D01*
X128758833Y-102995883D01*
X128807905Y-102986122D01*
X128906048Y-102966600D01*
X129056152Y-102966600D01*
X129154295Y-102986122D01*
X129154295Y-102986122D01*
G37*
G36*
X136774295Y-102986122D02*
G01*
X136823367Y-102995883D01*
X136962042Y-103053324D01*
X137086847Y-103136716D01*
X137192984Y-103242853D01*
X137276376Y-103367658D01*
X137333817Y-103506333D01*
X137363100Y-103653550D01*
X137363100Y-103803650D01*
X137333817Y-103950867D01*
X137276376Y-104089542D01*
X137192984Y-104214347D01*
X137086847Y-104320484D01*
X136962042Y-104403876D01*
X136823367Y-104461317D01*
X136774295Y-104471078D01*
X136676152Y-104490600D01*
X136526048Y-104490600D01*
X136427905Y-104471078D01*
X136378833Y-104461317D01*
X136240158Y-104403876D01*
X136115353Y-104320484D01*
X136009216Y-104214347D01*
X135925824Y-104089542D01*
X135868383Y-103950867D01*
X135839100Y-103803650D01*
X135839100Y-103653550D01*
X135868383Y-103506333D01*
X135925824Y-103367658D01*
X136009216Y-103242853D01*
X136115353Y-103136716D01*
X136240158Y-103053324D01*
X136378833Y-102995883D01*
X136427905Y-102986122D01*
X136526048Y-102966600D01*
X136676152Y-102966600D01*
X136774295Y-102986122D01*
X136774295Y-102986122D01*
G37*
G36*
X115263003Y-101628187D02*
G01*
X115420168Y-101693287D01*
X115561613Y-101787798D01*
X115681902Y-101908087D01*
X115776413Y-102049532D01*
X115841513Y-102206697D01*
X115874700Y-102373543D01*
X115874700Y-102543657D01*
X115841513Y-102710503D01*
X115776413Y-102867668D01*
X115681902Y-103009113D01*
X115561613Y-103129402D01*
X115420168Y-103223913D01*
X115263003Y-103289013D01*
X115096157Y-103322200D01*
X114926043Y-103322200D01*
X114759197Y-103289013D01*
X114602032Y-103223913D01*
X114460587Y-103129402D01*
X114340298Y-103009113D01*
X114245787Y-102867668D01*
X114180687Y-102710503D01*
X114147500Y-102543657D01*
X114147500Y-102373543D01*
X114180687Y-102206697D01*
X114245787Y-102049532D01*
X114340298Y-101908087D01*
X114460587Y-101787798D01*
X114602032Y-101693287D01*
X114759197Y-101628187D01*
X114926043Y-101595000D01*
X115096157Y-101595000D01*
X115263003Y-101628187D01*
X115263003Y-101628187D01*
G37*
G36*
X117803003Y-101628187D02*
G01*
X117960168Y-101693287D01*
X118101613Y-101787798D01*
X118221902Y-101908087D01*
X118316413Y-102049532D01*
X118381513Y-102206697D01*
X118414700Y-102373543D01*
X118414700Y-102543657D01*
X118381513Y-102710503D01*
X118316413Y-102867668D01*
X118221902Y-103009113D01*
X118101613Y-103129402D01*
X117960168Y-103223913D01*
X117803003Y-103289013D01*
X117636157Y-103322200D01*
X117466043Y-103322200D01*
X117299197Y-103289013D01*
X117142032Y-103223913D01*
X117000587Y-103129402D01*
X116880298Y-103009113D01*
X116785787Y-102867668D01*
X116720687Y-102710503D01*
X116687500Y-102543657D01*
X116687500Y-102373543D01*
X116720687Y-102206697D01*
X116785787Y-102049532D01*
X116880298Y-101908087D01*
X117000587Y-101787798D01*
X117142032Y-101693287D01*
X117299197Y-101628187D01*
X117466043Y-101595000D01*
X117636157Y-101595000D01*
X117803003Y-101628187D01*
X117803003Y-101628187D01*
G37*
G36*
X107643003Y-101628187D02*
G01*
X107800168Y-101693287D01*
X107941613Y-101787798D01*
X108061902Y-101908087D01*
X108156413Y-102049532D01*
X108221513Y-102206697D01*
X108254700Y-102373543D01*
X108254700Y-102543657D01*
X108221513Y-102710503D01*
X108156413Y-102867668D01*
X108061902Y-103009113D01*
X107941613Y-103129402D01*
X107800168Y-103223913D01*
X107643003Y-103289013D01*
X107476157Y-103322200D01*
X107306043Y-103322200D01*
X107139197Y-103289013D01*
X106982032Y-103223913D01*
X106840587Y-103129402D01*
X106720298Y-103009113D01*
X106625787Y-102867668D01*
X106560687Y-102710503D01*
X106527500Y-102543657D01*
X106527500Y-102373543D01*
X106560687Y-102206697D01*
X106625787Y-102049532D01*
X106720298Y-101908087D01*
X106840587Y-101787798D01*
X106982032Y-101693287D01*
X107139197Y-101628187D01*
X107306043Y-101595000D01*
X107476157Y-101595000D01*
X107643003Y-101628187D01*
X107643003Y-101628187D01*
G37*
G36*
X120343003Y-101628187D02*
G01*
X120500168Y-101693287D01*
X120641613Y-101787798D01*
X120761902Y-101908087D01*
X120856413Y-102049532D01*
X120921513Y-102206697D01*
X120954700Y-102373543D01*
X120954700Y-102543657D01*
X120921513Y-102710503D01*
X120856413Y-102867668D01*
X120761902Y-103009113D01*
X120641613Y-103129402D01*
X120500168Y-103223913D01*
X120343003Y-103289013D01*
X120176157Y-103322200D01*
X120006043Y-103322200D01*
X119839197Y-103289013D01*
X119682032Y-103223913D01*
X119540587Y-103129402D01*
X119420298Y-103009113D01*
X119325787Y-102867668D01*
X119260687Y-102710503D01*
X119227500Y-102543657D01*
X119227500Y-102373543D01*
X119260687Y-102206697D01*
X119325787Y-102049532D01*
X119420298Y-101908087D01*
X119540587Y-101787798D01*
X119682032Y-101693287D01*
X119839197Y-101628187D01*
X120006043Y-101595000D01*
X120176157Y-101595000D01*
X120343003Y-101628187D01*
X120343003Y-101628187D01*
G37*
G36*
X112723003Y-101628187D02*
G01*
X112880168Y-101693287D01*
X113021613Y-101787798D01*
X113141902Y-101908087D01*
X113236413Y-102049532D01*
X113301513Y-102206697D01*
X113334700Y-102373543D01*
X113334700Y-102543657D01*
X113301513Y-102710503D01*
X113236413Y-102867668D01*
X113141902Y-103009113D01*
X113021613Y-103129402D01*
X112880168Y-103223913D01*
X112723003Y-103289013D01*
X112556157Y-103322200D01*
X112386043Y-103322200D01*
X112219197Y-103289013D01*
X112062032Y-103223913D01*
X111920587Y-103129402D01*
X111800298Y-103009113D01*
X111705787Y-102867668D01*
X111640687Y-102710503D01*
X111607500Y-102543657D01*
X111607500Y-102373543D01*
X111640687Y-102206697D01*
X111705787Y-102049532D01*
X111800298Y-101908087D01*
X111920587Y-101787798D01*
X112062032Y-101693287D01*
X112219197Y-101628187D01*
X112386043Y-101595000D01*
X112556157Y-101595000D01*
X112723003Y-101628187D01*
X112723003Y-101628187D01*
G37*
G36*
X110183003Y-101628187D02*
G01*
X110340168Y-101693287D01*
X110481613Y-101787798D01*
X110601902Y-101908087D01*
X110696413Y-102049532D01*
X110761513Y-102206697D01*
X110794700Y-102373543D01*
X110794700Y-102543657D01*
X110761513Y-102710503D01*
X110696413Y-102867668D01*
X110601902Y-103009113D01*
X110481613Y-103129402D01*
X110340168Y-103223913D01*
X110183003Y-103289013D01*
X110016157Y-103322200D01*
X109846043Y-103322200D01*
X109679197Y-103289013D01*
X109522032Y-103223913D01*
X109380587Y-103129402D01*
X109260298Y-103009113D01*
X109165787Y-102867668D01*
X109100687Y-102710503D01*
X109067500Y-102543657D01*
X109067500Y-102373543D01*
X109100687Y-102206697D01*
X109165787Y-102049532D01*
X109260298Y-101908087D01*
X109380587Y-101787798D01*
X109522032Y-101693287D01*
X109679197Y-101628187D01*
X109846043Y-101595000D01*
X110016157Y-101595000D01*
X110183003Y-101628187D01*
X110183003Y-101628187D01*
G37*
G36*
X105103003Y-101628187D02*
G01*
X105260168Y-101693287D01*
X105401613Y-101787798D01*
X105521902Y-101908087D01*
X105616413Y-102049532D01*
X105681513Y-102206697D01*
X105714700Y-102373543D01*
X105714700Y-102543657D01*
X105681513Y-102710503D01*
X105616413Y-102867668D01*
X105521902Y-103009113D01*
X105401613Y-103129402D01*
X105260168Y-103223913D01*
X105103003Y-103289013D01*
X104936157Y-103322200D01*
X104766043Y-103322200D01*
X104599197Y-103289013D01*
X104442032Y-103223913D01*
X104300587Y-103129402D01*
X104180298Y-103009113D01*
X104085787Y-102867668D01*
X104020687Y-102710503D01*
X103987500Y-102543657D01*
X103987500Y-102373543D01*
X104020687Y-102206697D01*
X104085787Y-102049532D01*
X104180298Y-101908087D01*
X104300587Y-101787798D01*
X104442032Y-101693287D01*
X104599197Y-101628187D01*
X104766043Y-101595000D01*
X104936157Y-101595000D01*
X105103003Y-101628187D01*
X105103003Y-101628187D01*
G37*
G36*
X102563003Y-101628187D02*
G01*
X102720168Y-101693287D01*
X102861613Y-101787798D01*
X102981902Y-101908087D01*
X103076413Y-102049532D01*
X103141513Y-102206697D01*
X103174700Y-102373543D01*
X103174700Y-102543657D01*
X103141513Y-102710503D01*
X103076413Y-102867668D01*
X102981902Y-103009113D01*
X102861613Y-103129402D01*
X102720168Y-103223913D01*
X102563003Y-103289013D01*
X102396157Y-103322200D01*
X102226043Y-103322200D01*
X102059197Y-103289013D01*
X101902032Y-103223913D01*
X101760587Y-103129402D01*
X101640298Y-103009113D01*
X101545787Y-102867668D01*
X101480687Y-102710503D01*
X101447500Y-102543657D01*
X101447500Y-102373543D01*
X101480687Y-102206697D01*
X101545787Y-102049532D01*
X101640298Y-101908087D01*
X101760587Y-101787798D01*
X101902032Y-101693287D01*
X102059197Y-101628187D01*
X102226043Y-101595000D01*
X102396157Y-101595000D01*
X102563003Y-101628187D01*
X102563003Y-101628187D01*
G37*
G36*
X129154295Y-99176122D02*
G01*
X129203367Y-99185883D01*
X129342042Y-99243324D01*
X129466847Y-99326716D01*
X129572984Y-99432853D01*
X129656376Y-99557658D01*
X129713817Y-99696333D01*
X129743100Y-99843550D01*
X129743100Y-99993650D01*
X129713817Y-100140867D01*
X129656376Y-100279542D01*
X129572984Y-100404347D01*
X129466847Y-100510484D01*
X129342042Y-100593876D01*
X129203367Y-100651317D01*
X129154295Y-100661078D01*
X129056152Y-100680600D01*
X128906048Y-100680600D01*
X128807905Y-100661078D01*
X128758833Y-100651317D01*
X128620158Y-100593876D01*
X128495353Y-100510484D01*
X128389216Y-100404347D01*
X128305824Y-100279542D01*
X128248383Y-100140867D01*
X128219100Y-99993650D01*
X128219100Y-99843550D01*
X128248383Y-99696333D01*
X128305824Y-99557658D01*
X128389216Y-99432853D01*
X128495353Y-99326716D01*
X128620158Y-99243324D01*
X128758833Y-99185883D01*
X128807905Y-99176122D01*
X128906048Y-99156600D01*
X129056152Y-99156600D01*
X129154295Y-99176122D01*
X129154295Y-99176122D01*
G37*
G36*
X136774295Y-99176122D02*
G01*
X136823367Y-99185883D01*
X136962042Y-99243324D01*
X137086847Y-99326716D01*
X137192984Y-99432853D01*
X137276376Y-99557658D01*
X137333817Y-99696333D01*
X137363100Y-99843550D01*
X137363100Y-99993650D01*
X137333817Y-100140867D01*
X137276376Y-100279542D01*
X137192984Y-100404347D01*
X137086847Y-100510484D01*
X136962042Y-100593876D01*
X136823367Y-100651317D01*
X136774295Y-100661078D01*
X136676152Y-100680600D01*
X136526048Y-100680600D01*
X136427905Y-100661078D01*
X136378833Y-100651317D01*
X136240158Y-100593876D01*
X136115353Y-100510484D01*
X136009216Y-100404347D01*
X135925824Y-100279542D01*
X135868383Y-100140867D01*
X135839100Y-99993650D01*
X135839100Y-99843550D01*
X135868383Y-99696333D01*
X135925824Y-99557658D01*
X136009216Y-99432853D01*
X136115353Y-99326716D01*
X136240158Y-99243324D01*
X136378833Y-99185883D01*
X136427905Y-99176122D01*
X136526048Y-99156600D01*
X136676152Y-99156600D01*
X136774295Y-99176122D01*
X136774295Y-99176122D01*
G37*
G36*
X195194295Y-97906122D02*
G01*
X195243367Y-97915883D01*
X195382042Y-97973324D01*
X195506847Y-98056716D01*
X195612984Y-98162853D01*
X195696376Y-98287658D01*
X195753817Y-98426333D01*
X195753817Y-98426334D01*
X195783100Y-98573548D01*
X195783100Y-98723652D01*
X195766981Y-98804686D01*
X195753817Y-98870867D01*
X195696376Y-99009542D01*
X195612984Y-99134347D01*
X195506847Y-99240484D01*
X195382042Y-99323876D01*
X195243367Y-99381317D01*
X195194295Y-99391078D01*
X195096152Y-99410600D01*
X194946048Y-99410600D01*
X194847905Y-99391078D01*
X194798833Y-99381317D01*
X194660158Y-99323876D01*
X194535353Y-99240484D01*
X194429216Y-99134347D01*
X194345824Y-99009542D01*
X194288383Y-98870867D01*
X194275219Y-98804686D01*
X194259100Y-98723652D01*
X194259100Y-98573548D01*
X194288383Y-98426334D01*
X194288383Y-98426333D01*
X194345824Y-98287658D01*
X194429216Y-98162853D01*
X194535353Y-98056716D01*
X194660158Y-97973324D01*
X194798833Y-97915883D01*
X194847905Y-97906122D01*
X194946048Y-97886600D01*
X195096152Y-97886600D01*
X195194295Y-97906122D01*
X195194295Y-97906122D01*
G37*
G36*
X115160477Y-95967226D02*
G01*
X115266741Y-95999461D01*
X115304118Y-96010799D01*
X115436490Y-96081554D01*
X115436492Y-96081555D01*
X115436491Y-96081555D01*
X115552522Y-96176778D01*
X115558163Y-96183652D01*
X115647746Y-96292809D01*
X115718501Y-96425181D01*
X115729839Y-96462558D01*
X115762074Y-96568822D01*
X115773100Y-96680774D01*
X115773100Y-98076426D01*
X115762074Y-98188378D01*
X115731958Y-98287658D01*
X115718501Y-98332019D01*
X115647746Y-98464391D01*
X115552522Y-98580422D01*
X115436491Y-98675646D01*
X115304119Y-98746401D01*
X115266742Y-98757739D01*
X115160478Y-98789974D01*
X115011100Y-98804686D01*
X114861723Y-98789974D01*
X114755459Y-98757739D01*
X114718082Y-98746401D01*
X114585710Y-98675646D01*
X114469679Y-98580422D01*
X114374455Y-98464391D01*
X114303700Y-98332019D01*
X114290243Y-98287658D01*
X114260127Y-98188378D01*
X114249101Y-98076426D01*
X114249100Y-96680775D01*
X114260126Y-96568823D01*
X114303698Y-96425186D01*
X114303699Y-96425182D01*
X114374454Y-96292810D01*
X114394868Y-96267935D01*
X114469678Y-96176778D01*
X114585708Y-96081555D01*
X114585707Y-96081555D01*
X114585709Y-96081554D01*
X114718081Y-96010799D01*
X114755458Y-95999461D01*
X114861722Y-95967226D01*
X115011100Y-95952514D01*
X115160477Y-95967226D01*
X115160477Y-95967226D01*
G37*
G36*
X112620477Y-95967226D02*
G01*
X112726741Y-95999461D01*
X112764118Y-96010799D01*
X112896490Y-96081554D01*
X112896492Y-96081555D01*
X112896491Y-96081555D01*
X113012522Y-96176778D01*
X113018163Y-96183652D01*
X113107746Y-96292809D01*
X113178501Y-96425181D01*
X113189839Y-96462558D01*
X113222074Y-96568822D01*
X113233100Y-96680774D01*
X113233100Y-98076426D01*
X113222074Y-98188378D01*
X113191958Y-98287658D01*
X113178501Y-98332019D01*
X113107746Y-98464391D01*
X113012522Y-98580422D01*
X112896491Y-98675646D01*
X112764119Y-98746401D01*
X112726742Y-98757739D01*
X112620478Y-98789974D01*
X112471100Y-98804686D01*
X112321723Y-98789974D01*
X112215459Y-98757739D01*
X112178082Y-98746401D01*
X112045710Y-98675646D01*
X111929679Y-98580422D01*
X111834455Y-98464391D01*
X111763700Y-98332019D01*
X111750243Y-98287658D01*
X111720127Y-98188378D01*
X111709101Y-98076426D01*
X111709100Y-96680775D01*
X111720126Y-96568823D01*
X111763698Y-96425186D01*
X111763699Y-96425182D01*
X111834454Y-96292810D01*
X111854868Y-96267935D01*
X111929678Y-96176778D01*
X112045708Y-96081555D01*
X112045707Y-96081555D01*
X112045709Y-96081554D01*
X112178081Y-96010799D01*
X112215458Y-95999461D01*
X112321722Y-95967226D01*
X112471100Y-95952514D01*
X112620477Y-95967226D01*
X112620477Y-95967226D01*
G37*
G36*
X110080477Y-95967226D02*
G01*
X110186741Y-95999461D01*
X110224118Y-96010799D01*
X110356490Y-96081554D01*
X110356492Y-96081555D01*
X110356491Y-96081555D01*
X110472522Y-96176778D01*
X110478163Y-96183652D01*
X110567746Y-96292809D01*
X110638501Y-96425181D01*
X110649839Y-96462558D01*
X110682074Y-96568822D01*
X110693100Y-96680774D01*
X110693100Y-98076426D01*
X110682074Y-98188378D01*
X110651958Y-98287658D01*
X110638501Y-98332019D01*
X110567746Y-98464391D01*
X110472522Y-98580422D01*
X110356491Y-98675646D01*
X110224119Y-98746401D01*
X110186742Y-98757739D01*
X110080478Y-98789974D01*
X109931100Y-98804686D01*
X109781723Y-98789974D01*
X109675459Y-98757739D01*
X109638082Y-98746401D01*
X109505710Y-98675646D01*
X109389679Y-98580422D01*
X109294455Y-98464391D01*
X109223700Y-98332019D01*
X109210243Y-98287658D01*
X109180127Y-98188378D01*
X109169101Y-98076426D01*
X109169100Y-96680775D01*
X109180126Y-96568823D01*
X109223698Y-96425186D01*
X109223699Y-96425182D01*
X109294454Y-96292810D01*
X109314868Y-96267935D01*
X109389678Y-96176778D01*
X109505708Y-96081555D01*
X109505707Y-96081555D01*
X109505709Y-96081554D01*
X109638081Y-96010799D01*
X109675458Y-95999461D01*
X109781722Y-95967226D01*
X109931100Y-95952514D01*
X110080477Y-95967226D01*
X110080477Y-95967226D01*
G37*
G36*
X107540477Y-95967226D02*
G01*
X107646741Y-95999461D01*
X107684118Y-96010799D01*
X107816490Y-96081554D01*
X107816492Y-96081555D01*
X107816491Y-96081555D01*
X107932522Y-96176778D01*
X107938163Y-96183652D01*
X108027746Y-96292809D01*
X108098501Y-96425181D01*
X108109839Y-96462558D01*
X108142074Y-96568822D01*
X108153100Y-96680774D01*
X108153100Y-98076426D01*
X108142074Y-98188378D01*
X108111958Y-98287658D01*
X108098501Y-98332019D01*
X108027746Y-98464391D01*
X107932522Y-98580422D01*
X107816491Y-98675646D01*
X107684119Y-98746401D01*
X107646742Y-98757739D01*
X107540478Y-98789974D01*
X107391100Y-98804686D01*
X107241723Y-98789974D01*
X107135459Y-98757739D01*
X107098082Y-98746401D01*
X106965710Y-98675646D01*
X106849679Y-98580422D01*
X106754455Y-98464391D01*
X106683700Y-98332019D01*
X106670243Y-98287658D01*
X106640127Y-98188378D01*
X106629101Y-98076426D01*
X106629100Y-96680775D01*
X106640126Y-96568823D01*
X106683698Y-96425186D01*
X106683699Y-96425182D01*
X106754454Y-96292810D01*
X106774868Y-96267935D01*
X106849678Y-96176778D01*
X106965708Y-96081555D01*
X106965707Y-96081555D01*
X106965709Y-96081554D01*
X107098081Y-96010799D01*
X107135458Y-95999461D01*
X107241722Y-95967226D01*
X107391100Y-95952514D01*
X107540477Y-95967226D01*
X107540477Y-95967226D01*
G37*
G36*
X102460477Y-95967226D02*
G01*
X102566741Y-95999461D01*
X102604118Y-96010799D01*
X102736490Y-96081554D01*
X102736492Y-96081555D01*
X102736491Y-96081555D01*
X102852522Y-96176778D01*
X102858163Y-96183652D01*
X102947746Y-96292809D01*
X103018501Y-96425181D01*
X103029839Y-96462558D01*
X103062074Y-96568822D01*
X103073100Y-96680774D01*
X103073100Y-98076426D01*
X103062074Y-98188378D01*
X103031958Y-98287658D01*
X103018501Y-98332019D01*
X102947746Y-98464391D01*
X102852522Y-98580422D01*
X102736491Y-98675646D01*
X102604119Y-98746401D01*
X102566742Y-98757739D01*
X102460478Y-98789974D01*
X102311100Y-98804686D01*
X102161723Y-98789974D01*
X102055459Y-98757739D01*
X102018082Y-98746401D01*
X101885710Y-98675646D01*
X101769679Y-98580422D01*
X101674455Y-98464391D01*
X101603700Y-98332019D01*
X101590243Y-98287658D01*
X101560127Y-98188378D01*
X101549101Y-98076426D01*
X101549100Y-96680775D01*
X101560126Y-96568823D01*
X101603698Y-96425186D01*
X101603699Y-96425182D01*
X101674454Y-96292810D01*
X101694868Y-96267935D01*
X101769678Y-96176778D01*
X101885708Y-96081555D01*
X101885707Y-96081555D01*
X101885709Y-96081554D01*
X102018081Y-96010799D01*
X102055458Y-95999461D01*
X102161722Y-95967226D01*
X102311100Y-95952514D01*
X102460477Y-95967226D01*
X102460477Y-95967226D01*
G37*
G36*
X105000477Y-95967226D02*
G01*
X105106741Y-95999461D01*
X105144118Y-96010799D01*
X105276490Y-96081554D01*
X105276492Y-96081555D01*
X105276491Y-96081555D01*
X105392522Y-96176778D01*
X105398163Y-96183652D01*
X105487746Y-96292809D01*
X105558501Y-96425181D01*
X105569839Y-96462558D01*
X105602074Y-96568822D01*
X105613100Y-96680774D01*
X105613100Y-98076426D01*
X105602074Y-98188378D01*
X105571958Y-98287658D01*
X105558501Y-98332019D01*
X105487746Y-98464391D01*
X105392522Y-98580422D01*
X105276491Y-98675646D01*
X105144119Y-98746401D01*
X105106742Y-98757739D01*
X105000478Y-98789974D01*
X104851100Y-98804686D01*
X104701723Y-98789974D01*
X104595459Y-98757739D01*
X104558082Y-98746401D01*
X104425710Y-98675646D01*
X104309679Y-98580422D01*
X104214455Y-98464391D01*
X104143700Y-98332019D01*
X104130243Y-98287658D01*
X104100127Y-98188378D01*
X104089101Y-98076426D01*
X104089100Y-96680775D01*
X104100126Y-96568823D01*
X104143698Y-96425186D01*
X104143699Y-96425182D01*
X104214454Y-96292810D01*
X104234868Y-96267935D01*
X104309678Y-96176778D01*
X104425708Y-96081555D01*
X104425707Y-96081555D01*
X104425709Y-96081554D01*
X104558081Y-96010799D01*
X104595458Y-95999461D01*
X104701722Y-95967226D01*
X104851100Y-95952514D01*
X105000477Y-95967226D01*
X105000477Y-95967226D01*
G37*
G36*
X117700477Y-95967226D02*
G01*
X117806741Y-95999461D01*
X117844118Y-96010799D01*
X117976490Y-96081554D01*
X117976492Y-96081555D01*
X117976491Y-96081555D01*
X118092522Y-96176778D01*
X118098163Y-96183652D01*
X118187746Y-96292809D01*
X118258501Y-96425181D01*
X118269839Y-96462558D01*
X118302074Y-96568822D01*
X118313100Y-96680774D01*
X118313100Y-98076426D01*
X118302074Y-98188378D01*
X118271958Y-98287658D01*
X118258501Y-98332019D01*
X118187746Y-98464391D01*
X118092522Y-98580422D01*
X117976491Y-98675646D01*
X117844119Y-98746401D01*
X117806742Y-98757739D01*
X117700478Y-98789974D01*
X117551100Y-98804686D01*
X117401723Y-98789974D01*
X117295459Y-98757739D01*
X117258082Y-98746401D01*
X117125710Y-98675646D01*
X117009679Y-98580422D01*
X116914455Y-98464391D01*
X116843700Y-98332019D01*
X116830243Y-98287658D01*
X116800127Y-98188378D01*
X116789101Y-98076426D01*
X116789100Y-96680775D01*
X116800126Y-96568823D01*
X116843698Y-96425186D01*
X116843699Y-96425182D01*
X116914454Y-96292810D01*
X116934868Y-96267935D01*
X117009678Y-96176778D01*
X117125708Y-96081555D01*
X117125707Y-96081555D01*
X117125709Y-96081554D01*
X117258081Y-96010799D01*
X117295458Y-95999461D01*
X117401722Y-95967226D01*
X117551100Y-95952514D01*
X117700477Y-95967226D01*
X117700477Y-95967226D01*
G37*
G36*
X125962028Y-95299720D02*
G01*
X126041637Y-95307561D01*
X126170330Y-95346600D01*
X126194853Y-95354039D01*
X126336052Y-95429511D01*
X126459817Y-95531083D01*
X126561389Y-95654848D01*
X126636861Y-95796047D01*
X126636862Y-95796050D01*
X126683339Y-95949263D01*
X126699032Y-96108600D01*
X126683339Y-96267937D01*
X126664249Y-96330867D01*
X126636861Y-96421153D01*
X126561389Y-96562352D01*
X126459817Y-96686117D01*
X126336052Y-96787689D01*
X126194853Y-96863161D01*
X126194850Y-96863162D01*
X126041637Y-96909639D01*
X125962028Y-96917480D01*
X125922224Y-96921400D01*
X124419976Y-96921400D01*
X124380172Y-96917480D01*
X124300563Y-96909639D01*
X124147350Y-96863162D01*
X124147347Y-96863161D01*
X124006148Y-96787689D01*
X123882383Y-96686117D01*
X123780811Y-96562352D01*
X123705339Y-96421153D01*
X123677951Y-96330867D01*
X123658861Y-96267937D01*
X123643168Y-96108600D01*
X123658861Y-95949263D01*
X123705338Y-95796050D01*
X123705339Y-95796047D01*
X123780811Y-95654848D01*
X123882383Y-95531083D01*
X124006148Y-95429511D01*
X124147347Y-95354039D01*
X124171870Y-95346600D01*
X124300563Y-95307561D01*
X124380172Y-95299720D01*
X124419976Y-95295800D01*
X125922224Y-95295800D01*
X125962028Y-95299720D01*
X125962028Y-95299720D01*
G37*
G36*
X122152028Y-95299720D02*
G01*
X122231637Y-95307561D01*
X122360330Y-95346600D01*
X122384853Y-95354039D01*
X122526052Y-95429511D01*
X122649817Y-95531083D01*
X122751389Y-95654848D01*
X122826861Y-95796047D01*
X122826862Y-95796050D01*
X122873339Y-95949263D01*
X122889032Y-96108600D01*
X122873339Y-96267937D01*
X122854249Y-96330867D01*
X122826861Y-96421153D01*
X122751389Y-96562352D01*
X122649817Y-96686117D01*
X122526052Y-96787689D01*
X122384853Y-96863161D01*
X122384850Y-96863162D01*
X122231637Y-96909639D01*
X122152028Y-96917480D01*
X122112224Y-96921400D01*
X120609976Y-96921400D01*
X120570172Y-96917480D01*
X120490563Y-96909639D01*
X120337350Y-96863162D01*
X120337347Y-96863161D01*
X120196148Y-96787689D01*
X120072383Y-96686117D01*
X119970811Y-96562352D01*
X119895339Y-96421153D01*
X119867951Y-96330867D01*
X119848861Y-96267937D01*
X119833168Y-96108600D01*
X119848861Y-95949263D01*
X119895338Y-95796050D01*
X119895339Y-95796047D01*
X119970811Y-95654848D01*
X120072383Y-95531083D01*
X120196148Y-95429511D01*
X120337347Y-95354039D01*
X120361870Y-95346600D01*
X120490563Y-95307561D01*
X120570172Y-95299720D01*
X120609976Y-95295800D01*
X122112224Y-95295800D01*
X122152028Y-95299720D01*
X122152028Y-95299720D01*
G37*
G36*
X129154295Y-95366122D02*
G01*
X129203367Y-95375883D01*
X129342042Y-95433324D01*
X129466847Y-95516716D01*
X129572984Y-95622853D01*
X129656376Y-95747658D01*
X129713817Y-95886333D01*
X129713817Y-95886334D01*
X129738575Y-96010798D01*
X129743100Y-96033550D01*
X129743100Y-96183650D01*
X129713817Y-96330867D01*
X129656376Y-96469542D01*
X129572984Y-96594347D01*
X129466847Y-96700484D01*
X129342042Y-96783876D01*
X129203367Y-96841317D01*
X129154295Y-96851078D01*
X129056152Y-96870600D01*
X128906048Y-96870600D01*
X128807905Y-96851078D01*
X128758833Y-96841317D01*
X128620158Y-96783876D01*
X128495353Y-96700484D01*
X128389216Y-96594347D01*
X128305824Y-96469542D01*
X128248383Y-96330867D01*
X128219100Y-96183650D01*
X128219100Y-96033550D01*
X128223626Y-96010798D01*
X128248383Y-95886334D01*
X128248383Y-95886333D01*
X128305824Y-95747658D01*
X128389216Y-95622853D01*
X128495353Y-95516716D01*
X128620158Y-95433324D01*
X128758833Y-95375883D01*
X128807905Y-95366122D01*
X128906048Y-95346600D01*
X129056152Y-95346600D01*
X129154295Y-95366122D01*
X129154295Y-95366122D01*
G37*
G36*
X136774295Y-95366122D02*
G01*
X136823367Y-95375883D01*
X136962042Y-95433324D01*
X137086847Y-95516716D01*
X137192984Y-95622853D01*
X137276376Y-95747658D01*
X137333817Y-95886333D01*
X137333817Y-95886334D01*
X137358575Y-96010798D01*
X137363100Y-96033550D01*
X137363100Y-96183650D01*
X137333817Y-96330867D01*
X137276376Y-96469542D01*
X137192984Y-96594347D01*
X137086847Y-96700484D01*
X136962042Y-96783876D01*
X136823367Y-96841317D01*
X136774295Y-96851078D01*
X136676152Y-96870600D01*
X136526048Y-96870600D01*
X136427905Y-96851078D01*
X136378833Y-96841317D01*
X136240158Y-96783876D01*
X136115353Y-96700484D01*
X136009216Y-96594347D01*
X135925824Y-96469542D01*
X135868383Y-96330867D01*
X135839100Y-96183650D01*
X135839100Y-96033550D01*
X135843626Y-96010798D01*
X135868383Y-95886334D01*
X135868383Y-95886333D01*
X135925824Y-95747658D01*
X136009216Y-95622853D01*
X136115353Y-95516716D01*
X136240158Y-95433324D01*
X136378833Y-95375883D01*
X136427905Y-95366122D01*
X136526048Y-95346600D01*
X136676152Y-95346600D01*
X136774295Y-95366122D01*
X136774295Y-95366122D01*
G37*
G36*
X125962028Y-92759720D02*
G01*
X126041637Y-92767561D01*
X126170330Y-92806600D01*
X126194853Y-92814039D01*
X126336052Y-92889511D01*
X126459817Y-92991083D01*
X126561389Y-93114848D01*
X126636861Y-93256047D01*
X126636862Y-93256050D01*
X126683339Y-93409263D01*
X126699032Y-93568600D01*
X126683339Y-93727937D01*
X126664249Y-93790867D01*
X126636861Y-93881153D01*
X126561389Y-94022352D01*
X126459817Y-94146117D01*
X126336052Y-94247689D01*
X126194853Y-94323161D01*
X126194850Y-94323162D01*
X126041637Y-94369639D01*
X125962028Y-94377480D01*
X125922224Y-94381400D01*
X124419976Y-94381400D01*
X124380172Y-94377480D01*
X124300563Y-94369639D01*
X124147350Y-94323162D01*
X124147347Y-94323161D01*
X124006148Y-94247689D01*
X123882383Y-94146117D01*
X123780811Y-94022352D01*
X123705339Y-93881153D01*
X123677951Y-93790867D01*
X123658861Y-93727937D01*
X123643168Y-93568600D01*
X123658861Y-93409263D01*
X123705338Y-93256050D01*
X123705339Y-93256047D01*
X123780811Y-93114848D01*
X123882383Y-92991083D01*
X124006148Y-92889511D01*
X124147347Y-92814039D01*
X124171870Y-92806600D01*
X124300563Y-92767561D01*
X124380172Y-92759720D01*
X124419976Y-92755800D01*
X125922224Y-92755800D01*
X125962028Y-92759720D01*
X125962028Y-92759720D01*
G37*
G36*
X122152028Y-92759720D02*
G01*
X122231637Y-92767561D01*
X122360330Y-92806600D01*
X122384853Y-92814039D01*
X122526052Y-92889511D01*
X122649817Y-92991083D01*
X122751389Y-93114848D01*
X122826861Y-93256047D01*
X122826862Y-93256050D01*
X122873339Y-93409263D01*
X122889032Y-93568600D01*
X122873339Y-93727937D01*
X122854249Y-93790867D01*
X122826861Y-93881153D01*
X122751389Y-94022352D01*
X122649817Y-94146117D01*
X122526052Y-94247689D01*
X122384853Y-94323161D01*
X122384850Y-94323162D01*
X122231637Y-94369639D01*
X122152028Y-94377480D01*
X122112224Y-94381400D01*
X120609976Y-94381400D01*
X120570172Y-94377480D01*
X120490563Y-94369639D01*
X120337350Y-94323162D01*
X120337347Y-94323161D01*
X120196148Y-94247689D01*
X120072383Y-94146117D01*
X119970811Y-94022352D01*
X119895339Y-93881153D01*
X119867951Y-93790867D01*
X119848861Y-93727937D01*
X119833168Y-93568600D01*
X119848861Y-93409263D01*
X119895338Y-93256050D01*
X119895339Y-93256047D01*
X119970811Y-93114848D01*
X120072383Y-92991083D01*
X120196148Y-92889511D01*
X120337347Y-92814039D01*
X120361870Y-92806600D01*
X120490563Y-92767561D01*
X120570172Y-92759720D01*
X120609976Y-92755800D01*
X122112224Y-92755800D01*
X122152028Y-92759720D01*
X122152028Y-92759720D01*
G37*
G36*
X196464295Y-92826122D02*
G01*
X196513367Y-92835883D01*
X196652042Y-92893324D01*
X196776847Y-92976716D01*
X196882984Y-93082853D01*
X196966376Y-93207658D01*
X197023817Y-93346333D01*
X197053100Y-93493550D01*
X197053100Y-93643650D01*
X197023817Y-93790867D01*
X196966376Y-93929542D01*
X196882984Y-94054347D01*
X196776847Y-94160484D01*
X196652042Y-94243876D01*
X196513367Y-94301317D01*
X196464295Y-94311078D01*
X196366152Y-94330600D01*
X196216048Y-94330600D01*
X196117905Y-94311078D01*
X196068833Y-94301317D01*
X195930158Y-94243876D01*
X195805353Y-94160484D01*
X195699216Y-94054347D01*
X195615824Y-93929542D01*
X195558383Y-93790867D01*
X195529100Y-93643650D01*
X195529100Y-93493550D01*
X195558383Y-93346333D01*
X195615824Y-93207658D01*
X195699216Y-93082853D01*
X195805353Y-92976716D01*
X195930158Y-92893324D01*
X196068833Y-92835883D01*
X196117905Y-92826122D01*
X196216048Y-92806600D01*
X196366152Y-92806600D01*
X196464295Y-92826122D01*
X196464295Y-92826122D01*
G37*
G36*
X193924295Y-92826122D02*
G01*
X193973367Y-92835883D01*
X194112042Y-92893324D01*
X194236847Y-92976716D01*
X194342984Y-93082853D01*
X194426376Y-93207658D01*
X194483817Y-93346333D01*
X194513100Y-93493550D01*
X194513100Y-93643650D01*
X194483817Y-93790867D01*
X194426376Y-93929542D01*
X194342984Y-94054347D01*
X194236847Y-94160484D01*
X194112042Y-94243876D01*
X193973367Y-94301317D01*
X193924295Y-94311078D01*
X193826152Y-94330600D01*
X193676048Y-94330600D01*
X193577905Y-94311078D01*
X193528833Y-94301317D01*
X193390158Y-94243876D01*
X193265353Y-94160484D01*
X193159216Y-94054347D01*
X193075824Y-93929542D01*
X193018383Y-93790867D01*
X192989100Y-93643650D01*
X192989100Y-93493550D01*
X193018383Y-93346333D01*
X193075824Y-93207658D01*
X193159216Y-93082853D01*
X193265353Y-92976716D01*
X193390158Y-92893324D01*
X193528833Y-92835883D01*
X193577905Y-92826122D01*
X193676048Y-92806600D01*
X193826152Y-92806600D01*
X193924295Y-92826122D01*
X193924295Y-92826122D01*
G37*
G36*
X129154295Y-91556122D02*
G01*
X129203367Y-91565883D01*
X129342042Y-91623324D01*
X129466847Y-91706716D01*
X129572984Y-91812853D01*
X129656376Y-91937658D01*
X129713817Y-92076333D01*
X129743100Y-92223550D01*
X129743100Y-92373650D01*
X129713817Y-92520867D01*
X129656376Y-92659542D01*
X129572984Y-92784347D01*
X129466847Y-92890484D01*
X129342042Y-92973876D01*
X129203367Y-93031317D01*
X129154295Y-93041078D01*
X129056152Y-93060600D01*
X128906048Y-93060600D01*
X128807905Y-93041078D01*
X128758833Y-93031317D01*
X128620158Y-92973876D01*
X128495353Y-92890484D01*
X128389216Y-92784347D01*
X128305824Y-92659542D01*
X128248383Y-92520867D01*
X128219100Y-92373650D01*
X128219100Y-92223550D01*
X128248383Y-92076333D01*
X128305824Y-91937658D01*
X128389216Y-91812853D01*
X128495353Y-91706716D01*
X128620158Y-91623324D01*
X128758833Y-91565883D01*
X128807905Y-91556122D01*
X128906048Y-91536600D01*
X129056152Y-91536600D01*
X129154295Y-91556122D01*
X129154295Y-91556122D01*
G37*
G36*
X136774295Y-91556122D02*
G01*
X136823367Y-91565883D01*
X136962042Y-91623324D01*
X137086847Y-91706716D01*
X137192984Y-91812853D01*
X137276376Y-91937658D01*
X137333817Y-92076333D01*
X137363100Y-92223550D01*
X137363100Y-92373650D01*
X137333817Y-92520867D01*
X137276376Y-92659542D01*
X137192984Y-92784347D01*
X137086847Y-92890484D01*
X136962042Y-92973876D01*
X136823367Y-93031317D01*
X136774295Y-93041078D01*
X136676152Y-93060600D01*
X136526048Y-93060600D01*
X136427905Y-93041078D01*
X136378833Y-93031317D01*
X136240158Y-92973876D01*
X136115353Y-92890484D01*
X136009216Y-92784347D01*
X135925824Y-92659542D01*
X135868383Y-92520867D01*
X135839100Y-92373650D01*
X135839100Y-92223550D01*
X135868383Y-92076333D01*
X135925824Y-91937658D01*
X136009216Y-91812853D01*
X136115353Y-91706716D01*
X136240158Y-91623324D01*
X136378833Y-91565883D01*
X136427905Y-91556122D01*
X136526048Y-91536600D01*
X136676152Y-91536600D01*
X136774295Y-91556122D01*
X136774295Y-91556122D01*
G37*
G36*
X99944295Y-91556122D02*
G01*
X99993367Y-91565883D01*
X100132042Y-91623324D01*
X100256847Y-91706716D01*
X100362984Y-91812853D01*
X100446376Y-91937658D01*
X100503817Y-92076333D01*
X100533100Y-92223550D01*
X100533100Y-92373650D01*
X100503817Y-92520867D01*
X100446376Y-92659542D01*
X100362984Y-92784347D01*
X100256847Y-92890484D01*
X100132042Y-92973876D01*
X99993367Y-93031317D01*
X99944295Y-93041078D01*
X99846152Y-93060600D01*
X99696048Y-93060600D01*
X99597905Y-93041078D01*
X99548833Y-93031317D01*
X99410158Y-92973876D01*
X99285353Y-92890484D01*
X99179216Y-92784347D01*
X99095824Y-92659542D01*
X99038383Y-92520867D01*
X99009100Y-92373650D01*
X99009100Y-92223550D01*
X99038383Y-92076333D01*
X99095824Y-91937658D01*
X99179216Y-91812853D01*
X99285353Y-91706716D01*
X99410158Y-91623324D01*
X99548833Y-91565883D01*
X99597905Y-91556122D01*
X99696048Y-91536600D01*
X99846152Y-91536600D01*
X99944295Y-91556122D01*
X99944295Y-91556122D01*
G37*
G36*
X115160477Y-88347226D02*
G01*
X115266741Y-88379461D01*
X115304118Y-88390799D01*
X115436490Y-88461554D01*
X115436492Y-88461555D01*
X115436491Y-88461555D01*
X115552522Y-88556778D01*
X115630670Y-88652002D01*
X115647746Y-88672809D01*
X115718501Y-88805181D01*
X115729839Y-88842558D01*
X115762074Y-88948822D01*
X115773100Y-89060774D01*
X115773100Y-90456426D01*
X115762074Y-90568378D01*
X115729839Y-90674642D01*
X115718501Y-90712019D01*
X115647746Y-90844391D01*
X115552522Y-90960422D01*
X115436491Y-91055646D01*
X115304119Y-91126401D01*
X115266742Y-91137739D01*
X115160478Y-91169974D01*
X115011100Y-91184686D01*
X114861723Y-91169974D01*
X114755459Y-91137739D01*
X114718082Y-91126401D01*
X114585710Y-91055646D01*
X114469679Y-90960422D01*
X114374455Y-90844391D01*
X114303700Y-90712019D01*
X114292362Y-90674642D01*
X114260127Y-90568378D01*
X114249101Y-90456426D01*
X114249100Y-89060775D01*
X114260126Y-88948823D01*
X114303698Y-88805186D01*
X114303699Y-88805182D01*
X114374454Y-88672810D01*
X114388934Y-88655166D01*
X114469678Y-88556778D01*
X114585708Y-88461555D01*
X114585707Y-88461555D01*
X114585709Y-88461554D01*
X114718081Y-88390799D01*
X114755458Y-88379461D01*
X114861722Y-88347226D01*
X115011100Y-88332514D01*
X115160477Y-88347226D01*
X115160477Y-88347226D01*
G37*
G36*
X117700477Y-88347226D02*
G01*
X117806741Y-88379461D01*
X117844118Y-88390799D01*
X117976490Y-88461554D01*
X117976492Y-88461555D01*
X117976491Y-88461555D01*
X118092522Y-88556778D01*
X118170670Y-88652002D01*
X118187746Y-88672809D01*
X118258501Y-88805181D01*
X118269839Y-88842558D01*
X118302074Y-88948822D01*
X118313100Y-89060774D01*
X118313100Y-90456426D01*
X118302074Y-90568378D01*
X118269839Y-90674642D01*
X118258501Y-90712019D01*
X118187746Y-90844391D01*
X118092522Y-90960422D01*
X117976491Y-91055646D01*
X117844119Y-91126401D01*
X117806742Y-91137739D01*
X117700478Y-91169974D01*
X117551100Y-91184686D01*
X117401723Y-91169974D01*
X117295459Y-91137739D01*
X117258082Y-91126401D01*
X117125710Y-91055646D01*
X117009679Y-90960422D01*
X116914455Y-90844391D01*
X116843700Y-90712019D01*
X116832362Y-90674642D01*
X116800127Y-90568378D01*
X116789101Y-90456426D01*
X116789100Y-89060775D01*
X116800126Y-88948823D01*
X116843698Y-88805186D01*
X116843699Y-88805182D01*
X116914454Y-88672810D01*
X116928934Y-88655166D01*
X117009678Y-88556778D01*
X117125708Y-88461555D01*
X117125707Y-88461555D01*
X117125709Y-88461554D01*
X117258081Y-88390799D01*
X117295458Y-88379461D01*
X117401722Y-88347226D01*
X117551100Y-88332514D01*
X117700477Y-88347226D01*
X117700477Y-88347226D01*
G37*
G36*
X112620477Y-88347226D02*
G01*
X112726741Y-88379461D01*
X112764118Y-88390799D01*
X112896490Y-88461554D01*
X112896492Y-88461555D01*
X112896491Y-88461555D01*
X113012522Y-88556778D01*
X113090670Y-88652002D01*
X113107746Y-88672809D01*
X113178501Y-88805181D01*
X113189839Y-88842558D01*
X113222074Y-88948822D01*
X113233100Y-89060774D01*
X113233100Y-90456426D01*
X113222074Y-90568378D01*
X113189839Y-90674642D01*
X113178501Y-90712019D01*
X113107746Y-90844391D01*
X113012522Y-90960422D01*
X112896491Y-91055646D01*
X112764119Y-91126401D01*
X112726742Y-91137739D01*
X112620478Y-91169974D01*
X112471100Y-91184686D01*
X112321723Y-91169974D01*
X112215459Y-91137739D01*
X112178082Y-91126401D01*
X112045710Y-91055646D01*
X111929679Y-90960422D01*
X111834455Y-90844391D01*
X111763700Y-90712019D01*
X111752362Y-90674642D01*
X111720127Y-90568378D01*
X111709101Y-90456426D01*
X111709100Y-89060775D01*
X111720126Y-88948823D01*
X111763698Y-88805186D01*
X111763699Y-88805182D01*
X111834454Y-88672810D01*
X111848934Y-88655166D01*
X111929678Y-88556778D01*
X112045708Y-88461555D01*
X112045707Y-88461555D01*
X112045709Y-88461554D01*
X112178081Y-88390799D01*
X112215458Y-88379461D01*
X112321722Y-88347226D01*
X112471100Y-88332514D01*
X112620477Y-88347226D01*
X112620477Y-88347226D01*
G37*
G36*
X110080477Y-88347226D02*
G01*
X110186741Y-88379461D01*
X110224118Y-88390799D01*
X110356490Y-88461554D01*
X110356492Y-88461555D01*
X110356491Y-88461555D01*
X110472522Y-88556778D01*
X110550670Y-88652002D01*
X110567746Y-88672809D01*
X110638501Y-88805181D01*
X110649839Y-88842558D01*
X110682074Y-88948822D01*
X110693100Y-89060774D01*
X110693100Y-90456426D01*
X110682074Y-90568378D01*
X110649839Y-90674642D01*
X110638501Y-90712019D01*
X110567746Y-90844391D01*
X110472522Y-90960422D01*
X110356491Y-91055646D01*
X110224119Y-91126401D01*
X110186742Y-91137739D01*
X110080478Y-91169974D01*
X109931100Y-91184686D01*
X109781723Y-91169974D01*
X109675459Y-91137739D01*
X109638082Y-91126401D01*
X109505710Y-91055646D01*
X109389679Y-90960422D01*
X109294455Y-90844391D01*
X109223700Y-90712019D01*
X109212362Y-90674642D01*
X109180127Y-90568378D01*
X109169101Y-90456426D01*
X109169100Y-89060775D01*
X109180126Y-88948823D01*
X109223698Y-88805186D01*
X109223699Y-88805182D01*
X109294454Y-88672810D01*
X109308934Y-88655166D01*
X109389678Y-88556778D01*
X109505708Y-88461555D01*
X109505707Y-88461555D01*
X109505709Y-88461554D01*
X109638081Y-88390799D01*
X109675458Y-88379461D01*
X109781722Y-88347226D01*
X109931100Y-88332514D01*
X110080477Y-88347226D01*
X110080477Y-88347226D01*
G37*
G36*
X107540477Y-88347226D02*
G01*
X107646741Y-88379461D01*
X107684118Y-88390799D01*
X107816490Y-88461554D01*
X107816492Y-88461555D01*
X107816491Y-88461555D01*
X107932522Y-88556778D01*
X108010670Y-88652002D01*
X108027746Y-88672809D01*
X108098501Y-88805181D01*
X108109839Y-88842558D01*
X108142074Y-88948822D01*
X108153100Y-89060774D01*
X108153100Y-90456426D01*
X108142074Y-90568378D01*
X108109839Y-90674642D01*
X108098501Y-90712019D01*
X108027746Y-90844391D01*
X107932522Y-90960422D01*
X107816491Y-91055646D01*
X107684119Y-91126401D01*
X107646742Y-91137739D01*
X107540478Y-91169974D01*
X107391100Y-91184686D01*
X107241723Y-91169974D01*
X107135459Y-91137739D01*
X107098082Y-91126401D01*
X106965710Y-91055646D01*
X106849679Y-90960422D01*
X106754455Y-90844391D01*
X106683700Y-90712019D01*
X106672362Y-90674642D01*
X106640127Y-90568378D01*
X106629101Y-90456426D01*
X106629100Y-89060775D01*
X106640126Y-88948823D01*
X106683698Y-88805186D01*
X106683699Y-88805182D01*
X106754454Y-88672810D01*
X106768934Y-88655166D01*
X106849678Y-88556778D01*
X106965708Y-88461555D01*
X106965707Y-88461555D01*
X106965709Y-88461554D01*
X107098081Y-88390799D01*
X107135458Y-88379461D01*
X107241722Y-88347226D01*
X107391100Y-88332514D01*
X107540477Y-88347226D01*
X107540477Y-88347226D01*
G37*
G36*
X105000477Y-88347226D02*
G01*
X105106741Y-88379461D01*
X105144118Y-88390799D01*
X105276490Y-88461554D01*
X105276492Y-88461555D01*
X105276491Y-88461555D01*
X105392522Y-88556778D01*
X105470670Y-88652002D01*
X105487746Y-88672809D01*
X105558501Y-88805181D01*
X105569839Y-88842558D01*
X105602074Y-88948822D01*
X105613100Y-89060774D01*
X105613100Y-90456426D01*
X105602074Y-90568378D01*
X105569839Y-90674642D01*
X105558501Y-90712019D01*
X105487746Y-90844391D01*
X105392522Y-90960422D01*
X105276491Y-91055646D01*
X105144119Y-91126401D01*
X105106742Y-91137739D01*
X105000478Y-91169974D01*
X104851100Y-91184686D01*
X104701723Y-91169974D01*
X104595459Y-91137739D01*
X104558082Y-91126401D01*
X104425710Y-91055646D01*
X104309679Y-90960422D01*
X104214455Y-90844391D01*
X104143700Y-90712019D01*
X104132362Y-90674642D01*
X104100127Y-90568378D01*
X104089101Y-90456426D01*
X104089100Y-89060775D01*
X104100126Y-88948823D01*
X104143698Y-88805186D01*
X104143699Y-88805182D01*
X104214454Y-88672810D01*
X104228934Y-88655166D01*
X104309678Y-88556778D01*
X104425708Y-88461555D01*
X104425707Y-88461555D01*
X104425709Y-88461554D01*
X104558081Y-88390799D01*
X104595458Y-88379461D01*
X104701722Y-88347226D01*
X104851100Y-88332514D01*
X105000477Y-88347226D01*
X105000477Y-88347226D01*
G37*
G36*
X102460477Y-88347226D02*
G01*
X102566741Y-88379461D01*
X102604118Y-88390799D01*
X102736490Y-88461554D01*
X102736492Y-88461555D01*
X102736491Y-88461555D01*
X102852522Y-88556778D01*
X102930670Y-88652002D01*
X102947746Y-88672809D01*
X103018501Y-88805181D01*
X103029839Y-88842558D01*
X103062074Y-88948822D01*
X103073100Y-89060774D01*
X103073100Y-90456426D01*
X103062074Y-90568378D01*
X103029839Y-90674642D01*
X103018501Y-90712019D01*
X102947746Y-90844391D01*
X102852522Y-90960422D01*
X102736491Y-91055646D01*
X102604119Y-91126401D01*
X102566742Y-91137739D01*
X102460478Y-91169974D01*
X102311100Y-91184686D01*
X102161723Y-91169974D01*
X102055459Y-91137739D01*
X102018082Y-91126401D01*
X101885710Y-91055646D01*
X101769679Y-90960422D01*
X101674455Y-90844391D01*
X101603700Y-90712019D01*
X101592362Y-90674642D01*
X101560127Y-90568378D01*
X101549101Y-90456426D01*
X101549100Y-89060775D01*
X101560126Y-88948823D01*
X101603698Y-88805186D01*
X101603699Y-88805182D01*
X101674454Y-88672810D01*
X101688934Y-88655166D01*
X101769678Y-88556778D01*
X101885708Y-88461555D01*
X101885707Y-88461555D01*
X101885709Y-88461554D01*
X102018081Y-88390799D01*
X102055458Y-88379461D01*
X102161722Y-88347226D01*
X102311100Y-88332514D01*
X102460477Y-88347226D01*
X102460477Y-88347226D01*
G37*
G36*
X99944295Y-89016122D02*
G01*
X99993367Y-89025883D01*
X100132042Y-89083324D01*
X100256847Y-89166716D01*
X100362984Y-89272853D01*
X100446376Y-89397658D01*
X100503817Y-89536333D01*
X100533100Y-89683550D01*
X100533100Y-89833650D01*
X100503817Y-89980867D01*
X100446376Y-90119542D01*
X100362984Y-90244347D01*
X100256847Y-90350484D01*
X100132042Y-90433876D01*
X99993367Y-90491317D01*
X99944295Y-90501078D01*
X99846152Y-90520600D01*
X99696048Y-90520600D01*
X99597905Y-90501078D01*
X99548833Y-90491317D01*
X99410158Y-90433876D01*
X99285353Y-90350484D01*
X99179216Y-90244347D01*
X99095824Y-90119542D01*
X99038383Y-89980867D01*
X99009100Y-89833650D01*
X99009100Y-89683550D01*
X99038383Y-89536333D01*
X99095824Y-89397658D01*
X99179216Y-89272853D01*
X99285353Y-89166716D01*
X99410158Y-89083324D01*
X99548833Y-89025883D01*
X99597905Y-89016122D01*
X99696048Y-88996600D01*
X99846152Y-88996600D01*
X99944295Y-89016122D01*
X99944295Y-89016122D01*
G37*
M02*
