M48
; DRILL file {KiCad 5.1.2} date 23.10.2020 16:09:25
; FORMAT={-:-/ absolute / metric / decimal}
; #@! TF.CreationDate,2020-10-23T16:09:25+02:00
; #@! TF.GenerationSoftware,Kicad,Pcbnew,5.1.2
; #@! TF.FileFunction,Plated,1,2,PTH
FMAT,2
METRIC
T1C0.610
T2C0.813
T3C0.914
T4C1.016
%
G90
G05
T1
X121.996Y-99.284
X131.839Y-115.794
X132.791Y-109.126
X134.061Y-109.126
X136.601Y-113.889
X140.729Y-116.746
X142.951Y-113.254
X154.381Y-110.396
X155.334Y-116.746
X156.921Y-93.569
X156.921Y-111.349
X156.921Y-117.064
X158.509Y-106.586
X159.461Y-105.634
X160.731Y-97.379
X165.494Y-103.729
X170.574Y-101.506
X171.526Y-108.809
X173.114Y-116.746
X173.749Y-105.316
X178.194Y-116.746
X179.464Y-116.746
X182.639Y-113.254
T2
X99.771Y-108.809
X99.771Y-111.349
X128.981Y-92.299
X136.601Y-92.299
X102.311Y-108.809
X102.311Y-116.429
X104.851Y-108.809
X104.851Y-116.429
X107.391Y-108.809
X107.391Y-116.429
X109.931Y-108.809
X109.931Y-116.429
X112.471Y-108.809
X112.471Y-116.429
X115.011Y-108.809
X115.011Y-116.429
X117.551Y-108.809
X117.551Y-116.429
X120.091Y-108.809
X120.091Y-116.429
X99.771Y-89.759
X99.771Y-92.299
X128.981Y-99.919
X136.601Y-99.919
X102.311Y-89.759
X102.311Y-97.379
X104.851Y-89.759
X104.851Y-97.379
X107.391Y-89.759
X107.391Y-97.379
X109.931Y-89.759
X109.931Y-97.379
X112.471Y-89.759
X112.471Y-97.379
X115.011Y-89.759
X115.011Y-97.379
X117.551Y-89.759
X117.551Y-97.379
X195.021Y-98.649
X195.021Y-106.269
X135.331Y-110.079
X137.871Y-110.079
X193.751Y-93.569
X196.291Y-93.569
X128.981Y-96.109
X136.601Y-96.109
X128.981Y-103.729
X136.601Y-103.729
X193.751Y-108.809
X193.751Y-111.349
T3
X125.171Y-93.569
X125.171Y-96.109
X125.171Y-110.079
X125.171Y-112.619
X125.171Y-115.159
X121.361Y-93.569
X121.361Y-96.109
T4
X102.311Y-102.459
X102.311Y-104.999
X104.851Y-102.459
X104.851Y-104.999
X107.391Y-102.459
X107.391Y-104.999
X109.931Y-102.459
X109.931Y-104.999
X112.471Y-102.459
X112.471Y-104.999
X115.011Y-102.459
X115.011Y-104.999
X117.551Y-102.459
X117.551Y-104.999
X120.091Y-102.459
X120.091Y-104.999
X98.501Y-120.239
X101.041Y-120.239
X103.581Y-120.239
X106.121Y-120.239
X108.661Y-120.239
X111.201Y-120.239
X113.741Y-120.239
X116.281Y-120.239
X118.821Y-120.239
X121.361Y-120.239
X123.901Y-120.239
X126.441Y-120.239
X128.981Y-120.239
X131.521Y-120.239
X134.061Y-120.239
X136.601Y-120.239
X139.141Y-120.239
X141.681Y-120.239
X144.221Y-120.239
X146.761Y-120.239
X149.301Y-120.239
X151.841Y-120.239
X154.381Y-120.239
X156.921Y-120.239
X159.461Y-120.239
X162.001Y-120.239
X164.541Y-120.239
X167.081Y-120.239
X169.621Y-120.239
X172.161Y-120.239
X174.701Y-120.239
X177.241Y-120.239
X179.781Y-120.239
X182.321Y-120.239
X184.861Y-120.239
X187.401Y-120.239
X189.941Y-120.239
X192.481Y-120.239
X195.021Y-120.239
X197.561Y-120.239
T0
M30
