M48
; DRILL file {KiCad 5.1.2} date 15.10.2020 13:17:04
; FORMAT={-:-/ absolute / metric / decimal}
; #@! TF.CreationDate,2020-10-15T13:17:04+02:00
; #@! TF.GenerationSoftware,Kicad,Pcbnew,5.1.2
; #@! TF.FileFunction,Plated,1,2,PTH
FMAT,2
METRIC
T1C0.610
T2C0.800
T3C0.813
T4C0.914
T5C1.016
%
G90
G05
T1
X134.379Y-115.159
X135.649Y-107.539
X141.999Y-110.079
X143.269Y-101.189
X144.856Y-108.174
X150.254Y-104.681
X153.111Y-110.079
X154.381Y-103.729
X157.874Y-104.681
X160.731Y-102.141
X162.001Y-111.031
X162.636Y-106.269
X164.224Y-107.221
X164.224Y-109.126
X169.304Y-108.174
X169.939Y-110.079
X176.289Y-103.729
X178.194Y-108.174
X179.464Y-109.126
X189.624Y-105.316
X190.259Y-101.189
X192.164Y-98.649
X192.164Y-111.031
T2
X125.171Y-101.189
T3
X137.871Y-110.079
X137.871Y-112.619
X141.681Y-98.649
X141.681Y-113.889
X144.221Y-98.649
X144.221Y-113.889
X146.761Y-98.649
X146.761Y-113.889
X149.301Y-98.649
X149.301Y-113.889
X151.841Y-98.649
X151.841Y-113.889
X154.381Y-98.649
X154.381Y-113.889
X156.921Y-98.649
X156.921Y-113.889
X159.461Y-98.649
X159.461Y-113.889
X162.001Y-98.649
X162.001Y-113.889
X164.541Y-98.649
X164.541Y-113.889
X167.081Y-98.649
X167.081Y-113.889
X169.621Y-98.649
X169.621Y-113.889
X172.161Y-98.649
X172.161Y-113.889
X174.701Y-98.649
X174.701Y-113.889
X177.241Y-98.649
X177.241Y-113.889
X179.781Y-98.649
X179.781Y-113.889
X182.321Y-98.649
X182.321Y-113.889
X184.861Y-98.649
X184.861Y-113.889
X187.401Y-98.649
X187.401Y-113.889
X189.941Y-98.649
X189.941Y-113.889
X102.311Y-104.999
X102.311Y-112.619
X104.851Y-104.999
X104.851Y-112.619
X107.391Y-104.999
X107.391Y-112.619
X109.931Y-104.999
X109.931Y-112.619
X112.471Y-104.999
X112.471Y-112.619
X115.011Y-104.999
X115.011Y-112.619
X117.551Y-104.999
X117.551Y-112.619
X120.091Y-104.999
X120.091Y-112.619
X183.591Y-96.109
X186.131Y-96.109
X193.751Y-96.109
X196.291Y-96.109
X125.171Y-93.569
X125.171Y-108.809
X132.791Y-93.569
X132.791Y-108.809
X188.671Y-96.109
X191.211Y-96.109
X170.891Y-96.109
X173.431Y-96.109
X175.971Y-96.109
X178.511Y-96.109
X99.771Y-104.999
X99.771Y-107.539
X165.811Y-96.109
X168.351Y-96.109
T4
X187.401Y-104.999
X187.401Y-107.539
X182.321Y-104.999
X182.321Y-107.539
X197.561Y-103.729
X197.561Y-106.269
X197.561Y-108.809
X192.481Y-113.889
X195.021Y-113.889
X197.561Y-113.889
X193.751Y-103.729
X193.751Y-106.269
X193.751Y-108.809
X141.681Y-93.569
X144.221Y-93.569
X125.171Y-113.889
X127.711Y-113.889
X148.031Y-93.569
X150.571Y-93.569
T5
X101.041Y-98.649
X101.041Y-101.189
X103.581Y-98.649
X103.581Y-101.189
X106.121Y-98.649
X106.121Y-101.189
X108.661Y-98.649
X108.661Y-101.189
X111.201Y-98.649
X111.201Y-101.189
X113.741Y-98.649
X113.741Y-101.189
X116.281Y-98.649
X116.281Y-101.189
X118.821Y-98.649
X118.821Y-101.189
X98.501Y-117.699
X101.041Y-117.699
X103.581Y-117.699
X106.121Y-117.699
X108.661Y-117.699
X111.201Y-117.699
X113.741Y-117.699
X116.281Y-117.699
X118.821Y-117.699
X121.361Y-117.699
X123.901Y-117.699
X126.441Y-117.699
X128.981Y-117.699
X131.521Y-117.699
X134.061Y-117.699
X136.601Y-117.699
X139.141Y-117.699
X141.681Y-117.699
X144.221Y-117.699
X146.761Y-117.699
X149.301Y-117.699
X151.841Y-117.699
X154.381Y-117.699
X156.921Y-117.699
X159.461Y-117.699
X162.001Y-117.699
X164.541Y-117.699
X167.081Y-117.699
X169.621Y-117.699
X172.161Y-117.699
X174.701Y-117.699
X177.241Y-117.699
X179.781Y-117.699
X182.321Y-117.699
X184.861Y-117.699
X187.401Y-117.699
X189.941Y-117.699
X192.481Y-117.699
X195.021Y-117.699
X197.561Y-117.699
X182.321Y-93.569
X184.861Y-93.569
X187.401Y-93.569
X189.941Y-93.569
X192.481Y-93.569
X195.021Y-93.569
X164.541Y-93.569
X167.081Y-93.569
X169.621Y-93.569
X172.161Y-93.569
X174.701Y-93.569
X177.241Y-93.569
T0
M30
