G04 #@! TF.GenerationSoftware,KiCad,Pcbnew,5.1.2*
G04 #@! TF.CreationDate,2020-10-15T13:17:00+02:00*
G04 #@! TF.ProjectId,3365c1e53a7ea87593df0e5cd2596002,33333635-6331-4653-9533-613765613837,rev?*
G04 #@! TF.SameCoordinates,Original*
G04 #@! TF.FileFunction,Legend,Top*
G04 #@! TF.FilePolarity,Positive*
%FSLAX46Y46*%
G04 Gerber Fmt 4.6, Leading zero omitted, Abs format (unit mm)*
G04 Created by KiCad (PCBNEW 5.1.2) date 2020-10-15 13:17:00*
%MOMM*%
%LPD*%
G04 APERTURE LIST*
%ADD10C,0.065024*%
%ADD11C,0.142240*%
%ADD12C,0.152400*%
%ADD13C,0.508000*%
%ADD14C,0.304800*%
%ADD15C,0.254000*%
%ADD16C,0.150000*%
%ADD17C,0.127000*%
%ADD18C,0.094107*%
%ADD19C,0.120650*%
%ADD20C,0.135128*%
%ADD21C,0.118872*%
G04 APERTURE END LIST*
D10*
X192596904Y-90219670D02*
X193038138Y-90219670D01*
X192817521Y-90991830D02*
X192817521Y-90219670D01*
X193221986Y-90219670D02*
X193736759Y-90991830D01*
X193736759Y-90219670D02*
X193221986Y-90991830D01*
X172828447Y-90991830D02*
X172571060Y-90624135D01*
X172387213Y-90991830D02*
X172387213Y-90219670D01*
X172681369Y-90219670D01*
X172754908Y-90256440D01*
X172791677Y-90293209D01*
X172828447Y-90366748D01*
X172828447Y-90477057D01*
X172791677Y-90550596D01*
X172754908Y-90587365D01*
X172681369Y-90624135D01*
X172387213Y-90624135D01*
X173085834Y-90219670D02*
X173600607Y-90991830D01*
X173600607Y-90219670D02*
X173085834Y-90991830D01*
X166478447Y-90991830D02*
X166221060Y-90624135D01*
X166037213Y-90991830D02*
X166037213Y-90219670D01*
X166331369Y-90219670D01*
X166404908Y-90256440D01*
X166441677Y-90293209D01*
X166478447Y-90366748D01*
X166478447Y-90477057D01*
X166441677Y-90550596D01*
X166404908Y-90587365D01*
X166331369Y-90624135D01*
X166037213Y-90624135D01*
X166699064Y-90219670D02*
X167140298Y-90219670D01*
X166919681Y-90991830D02*
X166919681Y-90219670D01*
X167360916Y-90955060D02*
X167471224Y-90991830D01*
X167655072Y-90991830D01*
X167728611Y-90955060D01*
X167765380Y-90918291D01*
X167802150Y-90844752D01*
X167802150Y-90771213D01*
X167765380Y-90697674D01*
X167728611Y-90660904D01*
X167655072Y-90624135D01*
X167507994Y-90587365D01*
X167434455Y-90550596D01*
X167397685Y-90513826D01*
X167360916Y-90440287D01*
X167360916Y-90366748D01*
X167397685Y-90293209D01*
X167434455Y-90256440D01*
X167507994Y-90219670D01*
X167691841Y-90219670D01*
X167802150Y-90256440D01*
X181681677Y-90256440D02*
X181608138Y-90219670D01*
X181497830Y-90219670D01*
X181387521Y-90256440D01*
X181313982Y-90329979D01*
X181277213Y-90403518D01*
X181240443Y-90550596D01*
X181240443Y-90660904D01*
X181277213Y-90807982D01*
X181313982Y-90881521D01*
X181387521Y-90955060D01*
X181497830Y-90991830D01*
X181571369Y-90991830D01*
X181681677Y-90955060D01*
X181718447Y-90918291D01*
X181718447Y-90660904D01*
X181571369Y-90660904D01*
X187994908Y-90219670D02*
X187627213Y-90219670D01*
X187590443Y-90587365D01*
X187627213Y-90550596D01*
X187700752Y-90513826D01*
X187884599Y-90513826D01*
X187958138Y-90550596D01*
X187994908Y-90587365D01*
X188031677Y-90660904D01*
X188031677Y-90844752D01*
X187994908Y-90918291D01*
X187958138Y-90955060D01*
X187884599Y-90991830D01*
X187700752Y-90991830D01*
X187627213Y-90955060D01*
X187590443Y-90918291D01*
X188252295Y-90219670D02*
X188509681Y-90991830D01*
X188767068Y-90219670D01*
X119649865Y-95882486D02*
X119649865Y-95625100D01*
X120054330Y-95514791D02*
X120054330Y-95882486D01*
X119282170Y-95882486D01*
X119282170Y-95514791D01*
X119282170Y-95036787D02*
X119282170Y-94963248D01*
X119318940Y-94889709D01*
X119355709Y-94852940D01*
X119429248Y-94816170D01*
X119576326Y-94779401D01*
X119760174Y-94779401D01*
X119907252Y-94816170D01*
X119980791Y-94852940D01*
X120017560Y-94889709D01*
X120054330Y-94963248D01*
X120054330Y-95036787D01*
X120017560Y-95110326D01*
X119980791Y-95147096D01*
X119907252Y-95183865D01*
X119760174Y-95220635D01*
X119576326Y-95220635D01*
X119429248Y-95183865D01*
X119355709Y-95147096D01*
X119318940Y-95110326D01*
X119282170Y-95036787D01*
X116170791Y-95441252D02*
X116207560Y-95478022D01*
X116244330Y-95588330D01*
X116244330Y-95661869D01*
X116207560Y-95772178D01*
X116134021Y-95845717D01*
X116060482Y-95882486D01*
X115913404Y-95919256D01*
X115803096Y-95919256D01*
X115656018Y-95882486D01*
X115582479Y-95845717D01*
X115508940Y-95772178D01*
X115472170Y-95661869D01*
X115472170Y-95588330D01*
X115508940Y-95478022D01*
X115545709Y-95441252D01*
X115472170Y-94963248D02*
X115472170Y-94889709D01*
X115508940Y-94816170D01*
X115545709Y-94779401D01*
X115619248Y-94742631D01*
X115766326Y-94705862D01*
X115950174Y-94705862D01*
X116097252Y-94742631D01*
X116170791Y-94779401D01*
X116207560Y-94816170D01*
X116244330Y-94889709D01*
X116244330Y-94963248D01*
X116207560Y-95036787D01*
X116170791Y-95073557D01*
X116097252Y-95110326D01*
X115950174Y-95147096D01*
X115766326Y-95147096D01*
X115619248Y-95110326D01*
X115545709Y-95073557D01*
X115508940Y-95036787D01*
X115472170Y-94963248D01*
X113483713Y-95919256D02*
X113483713Y-95551561D01*
X113704330Y-95992795D02*
X112932170Y-95735408D01*
X113704330Y-95478022D01*
X112932170Y-95073557D02*
X112932170Y-95000018D01*
X112968940Y-94926479D01*
X113005709Y-94889709D01*
X113079248Y-94852940D01*
X113226326Y-94816170D01*
X113410174Y-94816170D01*
X113557252Y-94852940D01*
X113630791Y-94889709D01*
X113667560Y-94926479D01*
X113704330Y-95000018D01*
X113704330Y-95073557D01*
X113667560Y-95147096D01*
X113630791Y-95183865D01*
X113557252Y-95220635D01*
X113410174Y-95257404D01*
X113226326Y-95257404D01*
X113079248Y-95220635D01*
X113005709Y-95183865D01*
X112968940Y-95147096D01*
X112932170Y-95073557D01*
X110723096Y-95772178D02*
X110686326Y-95845717D01*
X110649557Y-95882486D01*
X110576018Y-95919256D01*
X110539248Y-95919256D01*
X110465709Y-95882486D01*
X110428940Y-95845717D01*
X110392170Y-95772178D01*
X110392170Y-95625100D01*
X110428940Y-95551561D01*
X110465709Y-95514791D01*
X110539248Y-95478022D01*
X110576018Y-95478022D01*
X110649557Y-95514791D01*
X110686326Y-95551561D01*
X110723096Y-95625100D01*
X110723096Y-95772178D01*
X110759865Y-95845717D01*
X110796635Y-95882486D01*
X110870174Y-95919256D01*
X111017252Y-95919256D01*
X111090791Y-95882486D01*
X111127560Y-95845717D01*
X111164330Y-95772178D01*
X111164330Y-95625100D01*
X111127560Y-95551561D01*
X111090791Y-95514791D01*
X111017252Y-95478022D01*
X110870174Y-95478022D01*
X110796635Y-95514791D01*
X110759865Y-95551561D01*
X110723096Y-95625100D01*
X110392170Y-95000018D02*
X110392170Y-94926479D01*
X110428940Y-94852940D01*
X110465709Y-94816170D01*
X110539248Y-94779401D01*
X110686326Y-94742631D01*
X110870174Y-94742631D01*
X111017252Y-94779401D01*
X111090791Y-94816170D01*
X111127560Y-94852940D01*
X111164330Y-94926479D01*
X111164330Y-95000018D01*
X111127560Y-95073557D01*
X111090791Y-95110326D01*
X111017252Y-95147096D01*
X110870174Y-95183865D01*
X110686326Y-95183865D01*
X110539248Y-95147096D01*
X110465709Y-95110326D01*
X110428940Y-95073557D01*
X110392170Y-95000018D01*
X107852170Y-95551561D02*
X107852170Y-95698639D01*
X107888940Y-95772178D01*
X107925709Y-95808947D01*
X108036018Y-95882486D01*
X108183096Y-95919256D01*
X108477252Y-95919256D01*
X108550791Y-95882486D01*
X108587560Y-95845717D01*
X108624330Y-95772178D01*
X108624330Y-95625100D01*
X108587560Y-95551561D01*
X108550791Y-95514791D01*
X108477252Y-95478022D01*
X108293404Y-95478022D01*
X108219865Y-95514791D01*
X108183096Y-95551561D01*
X108146326Y-95625100D01*
X108146326Y-95772178D01*
X108183096Y-95845717D01*
X108219865Y-95882486D01*
X108293404Y-95919256D01*
X107852170Y-95000018D02*
X107852170Y-94926479D01*
X107888940Y-94852940D01*
X107925709Y-94816170D01*
X107999248Y-94779401D01*
X108146326Y-94742631D01*
X108330174Y-94742631D01*
X108477252Y-94779401D01*
X108550791Y-94816170D01*
X108587560Y-94852940D01*
X108624330Y-94926479D01*
X108624330Y-95000018D01*
X108587560Y-95073557D01*
X108550791Y-95110326D01*
X108477252Y-95147096D01*
X108330174Y-95183865D01*
X108146326Y-95183865D01*
X107999248Y-95147096D01*
X107925709Y-95110326D01*
X107888940Y-95073557D01*
X107852170Y-95000018D01*
X105569557Y-95551561D02*
X106084330Y-95551561D01*
X105275400Y-95735408D02*
X105826943Y-95919256D01*
X105826943Y-95441252D01*
X105312170Y-95000018D02*
X105312170Y-94926479D01*
X105348940Y-94852940D01*
X105385709Y-94816170D01*
X105459248Y-94779401D01*
X105606326Y-94742631D01*
X105790174Y-94742631D01*
X105937252Y-94779401D01*
X106010791Y-94816170D01*
X106047560Y-94852940D01*
X106084330Y-94926479D01*
X106084330Y-95000018D01*
X106047560Y-95073557D01*
X106010791Y-95110326D01*
X105937252Y-95147096D01*
X105790174Y-95183865D01*
X105606326Y-95183865D01*
X105459248Y-95147096D01*
X105385709Y-95110326D01*
X105348940Y-95073557D01*
X105312170Y-95000018D01*
X102845709Y-95919256D02*
X102808940Y-95882486D01*
X102772170Y-95808947D01*
X102772170Y-95625100D01*
X102808940Y-95551561D01*
X102845709Y-95514791D01*
X102919248Y-95478022D01*
X102992787Y-95478022D01*
X103103096Y-95514791D01*
X103544330Y-95956025D01*
X103544330Y-95478022D01*
X102772170Y-95000018D02*
X102772170Y-94926479D01*
X102808940Y-94852940D01*
X102845709Y-94816170D01*
X102919248Y-94779401D01*
X103066326Y-94742631D01*
X103250174Y-94742631D01*
X103397252Y-94779401D01*
X103470791Y-94816170D01*
X103507560Y-94852940D01*
X103544330Y-94926479D01*
X103544330Y-95000018D01*
X103507560Y-95073557D01*
X103470791Y-95110326D01*
X103397252Y-95147096D01*
X103250174Y-95183865D01*
X103066326Y-95183865D01*
X102919248Y-95147096D01*
X102845709Y-95110326D01*
X102808940Y-95073557D01*
X102772170Y-95000018D01*
X100232170Y-95735408D02*
X100232170Y-95661869D01*
X100268940Y-95588330D01*
X100305709Y-95551561D01*
X100379248Y-95514791D01*
X100526326Y-95478022D01*
X100710174Y-95478022D01*
X100857252Y-95514791D01*
X100930791Y-95551561D01*
X100967560Y-95588330D01*
X101004330Y-95661869D01*
X101004330Y-95735408D01*
X100967560Y-95808947D01*
X100930791Y-95845717D01*
X100857252Y-95882486D01*
X100710174Y-95919256D01*
X100526326Y-95919256D01*
X100379248Y-95882486D01*
X100305709Y-95845717D01*
X100268940Y-95808947D01*
X100232170Y-95735408D01*
X100232170Y-95000018D02*
X100232170Y-94926479D01*
X100268940Y-94852940D01*
X100305709Y-94816170D01*
X100379248Y-94779401D01*
X100526326Y-94742631D01*
X100710174Y-94742631D01*
X100857252Y-94779401D01*
X100930791Y-94816170D01*
X100967560Y-94852940D01*
X101004330Y-94926479D01*
X101004330Y-95000018D01*
X100967560Y-95073557D01*
X100930791Y-95110326D01*
X100857252Y-95147096D01*
X100710174Y-95183865D01*
X100526326Y-95183865D01*
X100379248Y-95147096D01*
X100305709Y-95110326D01*
X100268940Y-95073557D01*
X100232170Y-95000018D01*
X98464330Y-114932486D02*
X97692170Y-114932486D01*
X97692170Y-114638330D01*
X97728940Y-114564791D01*
X97765709Y-114528022D01*
X97839248Y-114491252D01*
X97949557Y-114491252D01*
X98023096Y-114528022D01*
X98059865Y-114564791D01*
X98096635Y-114638330D01*
X98096635Y-114932486D01*
X98464330Y-114160326D02*
X97692170Y-114160326D01*
X98464330Y-113792631D02*
X97692170Y-113792631D01*
X98464330Y-113351397D01*
X97692170Y-113351397D01*
X98464330Y-112579237D02*
X98464330Y-113020471D01*
X98464330Y-112799854D02*
X97692170Y-112799854D01*
X97802479Y-112873393D01*
X97876018Y-112946932D01*
X97912787Y-113020471D01*
X174816904Y-90219670D02*
X175258138Y-90219670D01*
X175037521Y-90991830D02*
X175037521Y-90219670D01*
X175441986Y-90219670D02*
X175956759Y-90991830D01*
X175956759Y-90219670D02*
X175441986Y-90991830D01*
X190608447Y-90991830D02*
X190351060Y-90624135D01*
X190167213Y-90991830D02*
X190167213Y-90219670D01*
X190461369Y-90219670D01*
X190534908Y-90256440D01*
X190571677Y-90293209D01*
X190608447Y-90366748D01*
X190608447Y-90477057D01*
X190571677Y-90550596D01*
X190534908Y-90587365D01*
X190461369Y-90624135D01*
X190167213Y-90624135D01*
X190865834Y-90219670D02*
X191380607Y-90991830D01*
X191380607Y-90219670D02*
X190865834Y-90991830D01*
X184258447Y-90991830D02*
X184001060Y-90624135D01*
X183817213Y-90991830D02*
X183817213Y-90219670D01*
X184111369Y-90219670D01*
X184184908Y-90256440D01*
X184221677Y-90293209D01*
X184258447Y-90366748D01*
X184258447Y-90477057D01*
X184221677Y-90550596D01*
X184184908Y-90587365D01*
X184111369Y-90624135D01*
X183817213Y-90624135D01*
X184479064Y-90219670D02*
X184920298Y-90219670D01*
X184699681Y-90991830D02*
X184699681Y-90219670D01*
X185140916Y-90955060D02*
X185251224Y-90991830D01*
X185435072Y-90991830D01*
X185508611Y-90955060D01*
X185545380Y-90918291D01*
X185582150Y-90844752D01*
X185582150Y-90771213D01*
X185545380Y-90697674D01*
X185508611Y-90660904D01*
X185435072Y-90624135D01*
X185287994Y-90587365D01*
X185214455Y-90550596D01*
X185177685Y-90513826D01*
X185140916Y-90440287D01*
X185140916Y-90366748D01*
X185177685Y-90293209D01*
X185214455Y-90256440D01*
X185287994Y-90219670D01*
X185471841Y-90219670D01*
X185582150Y-90256440D01*
X163901677Y-90256440D02*
X163828138Y-90219670D01*
X163717830Y-90219670D01*
X163607521Y-90256440D01*
X163533982Y-90329979D01*
X163497213Y-90403518D01*
X163460443Y-90550596D01*
X163460443Y-90660904D01*
X163497213Y-90807982D01*
X163533982Y-90881521D01*
X163607521Y-90955060D01*
X163717830Y-90991830D01*
X163791369Y-90991830D01*
X163901677Y-90955060D01*
X163938447Y-90918291D01*
X163938447Y-90660904D01*
X163791369Y-90660904D01*
X170214908Y-90219670D02*
X169847213Y-90219670D01*
X169810443Y-90587365D01*
X169847213Y-90550596D01*
X169920752Y-90513826D01*
X170104599Y-90513826D01*
X170178138Y-90550596D01*
X170214908Y-90587365D01*
X170251677Y-90660904D01*
X170251677Y-90844752D01*
X170214908Y-90918291D01*
X170178138Y-90955060D01*
X170104599Y-90991830D01*
X169920752Y-90991830D01*
X169847213Y-90955060D01*
X169810443Y-90918291D01*
X170472295Y-90219670D02*
X170729681Y-90991830D01*
X170987068Y-90219670D01*
D11*
X100104856Y-91092100D02*
X100426589Y-92218166D01*
X100748322Y-91413833D01*
X101070056Y-92218166D01*
X101391789Y-91092100D01*
X101874389Y-91092100D02*
X102196122Y-92218166D01*
X102517856Y-91413833D01*
X102839589Y-92218166D01*
X103161322Y-91092100D01*
X103643922Y-91092100D02*
X103965656Y-92218166D01*
X104287389Y-91413833D01*
X104609122Y-92218166D01*
X104930856Y-91092100D01*
X105574322Y-92057300D02*
X105654756Y-92137733D01*
X105574322Y-92218166D01*
X105493889Y-92137733D01*
X105574322Y-92057300D01*
X105574322Y-92218166D01*
X106298222Y-92137733D02*
X106459089Y-92218166D01*
X106780822Y-92218166D01*
X106941689Y-92137733D01*
X107022122Y-91976866D01*
X107022122Y-91896433D01*
X106941689Y-91735566D01*
X106780822Y-91655133D01*
X106539522Y-91655133D01*
X106378656Y-91574700D01*
X106298222Y-91413833D01*
X106298222Y-91333400D01*
X106378656Y-91172533D01*
X106539522Y-91092100D01*
X106780822Y-91092100D01*
X106941689Y-91172533D01*
X107746022Y-92218166D02*
X107746022Y-91092100D01*
X107746022Y-91252966D02*
X107826456Y-91172533D01*
X107987322Y-91092100D01*
X108228622Y-91092100D01*
X108389489Y-91172533D01*
X108469922Y-91333400D01*
X108469922Y-92218166D01*
X108469922Y-91333400D02*
X108550356Y-91172533D01*
X108711222Y-91092100D01*
X108952522Y-91092100D01*
X109113389Y-91172533D01*
X109193822Y-91333400D01*
X109193822Y-92218166D01*
X109998156Y-92218166D02*
X109998156Y-90529066D01*
X109998156Y-91172533D02*
X110159022Y-91092100D01*
X110480756Y-91092100D01*
X110641622Y-91172533D01*
X110722056Y-91252966D01*
X110802489Y-91413833D01*
X110802489Y-91896433D01*
X110722056Y-92057300D01*
X110641622Y-92137733D01*
X110480756Y-92218166D01*
X110159022Y-92218166D01*
X109998156Y-92137733D01*
X112250289Y-92218166D02*
X112250289Y-91333400D01*
X112169856Y-91172533D01*
X112008989Y-91092100D01*
X111687256Y-91092100D01*
X111526389Y-91172533D01*
X112250289Y-92137733D02*
X112089422Y-92218166D01*
X111687256Y-92218166D01*
X111526389Y-92137733D01*
X111445956Y-91976866D01*
X111445956Y-91816000D01*
X111526389Y-91655133D01*
X111687256Y-91574700D01*
X112089422Y-91574700D01*
X112250289Y-91494266D01*
X113054622Y-92218166D02*
X113054622Y-90529066D01*
X113215489Y-91574700D02*
X113698089Y-92218166D01*
X113698089Y-91092100D02*
X113054622Y-91735566D01*
X115065456Y-92137733D02*
X114904589Y-92218166D01*
X114582856Y-92218166D01*
X114421989Y-92137733D01*
X114341556Y-91976866D01*
X114341556Y-91333400D01*
X114421989Y-91172533D01*
X114582856Y-91092100D01*
X114904589Y-91092100D01*
X115065456Y-91172533D01*
X115145889Y-91333400D01*
X115145889Y-91494266D01*
X114341556Y-91655133D01*
X115869789Y-92218166D02*
X115869789Y-91092100D01*
X115869789Y-91413833D02*
X115950222Y-91252966D01*
X116030656Y-91172533D01*
X116191522Y-91092100D01*
X116352389Y-91092100D01*
X116915422Y-92057300D02*
X116995856Y-92137733D01*
X116915422Y-92218166D01*
X116834989Y-92137733D01*
X116915422Y-92057300D01*
X116915422Y-92218166D01*
X118443656Y-92137733D02*
X118282789Y-92218166D01*
X117961056Y-92218166D01*
X117800189Y-92137733D01*
X117719756Y-92057300D01*
X117639322Y-91896433D01*
X117639322Y-91413833D01*
X117719756Y-91252966D01*
X117800189Y-91172533D01*
X117961056Y-91092100D01*
X118282789Y-91092100D01*
X118443656Y-91172533D01*
X119408856Y-92218166D02*
X119247989Y-92137733D01*
X119167556Y-92057300D01*
X119087122Y-91896433D01*
X119087122Y-91413833D01*
X119167556Y-91252966D01*
X119247989Y-91172533D01*
X119408856Y-91092100D01*
X119650156Y-91092100D01*
X119811022Y-91172533D01*
X119891456Y-91252966D01*
X119971889Y-91413833D01*
X119971889Y-91896433D01*
X119891456Y-92057300D01*
X119811022Y-92137733D01*
X119650156Y-92218166D01*
X119408856Y-92218166D01*
X120695789Y-92218166D02*
X120695789Y-91092100D01*
X120695789Y-91252966D02*
X120776222Y-91172533D01*
X120937089Y-91092100D01*
X121178389Y-91092100D01*
X121339256Y-91172533D01*
X121419689Y-91333400D01*
X121419689Y-92218166D01*
X121419689Y-91333400D02*
X121500122Y-91172533D01*
X121660989Y-91092100D01*
X121902289Y-91092100D01*
X122063156Y-91172533D01*
X122143589Y-91333400D01*
X122143589Y-92218166D01*
D10*
X161214599Y-93127365D02*
X161324908Y-93164135D01*
X161361677Y-93200904D01*
X161398447Y-93274443D01*
X161398447Y-93384752D01*
X161361677Y-93458291D01*
X161324908Y-93495060D01*
X161251369Y-93531830D01*
X160957213Y-93531830D01*
X160957213Y-92759670D01*
X161214599Y-92759670D01*
X161288138Y-92796440D01*
X161324908Y-92833209D01*
X161361677Y-92906748D01*
X161361677Y-92980287D01*
X161324908Y-93053826D01*
X161288138Y-93090596D01*
X161214599Y-93127365D01*
X160957213Y-93127365D01*
X197750443Y-93311213D02*
X198118138Y-93311213D01*
X197676904Y-93531830D02*
X197934291Y-92759670D01*
X198191677Y-93531830D01*
X195688447Y-101078291D02*
X195651677Y-101115060D01*
X195541369Y-101151830D01*
X195467830Y-101151830D01*
X195357521Y-101115060D01*
X195283982Y-101041521D01*
X195247213Y-100967982D01*
X195210443Y-100820904D01*
X195210443Y-100710596D01*
X195247213Y-100563518D01*
X195283982Y-100489979D01*
X195357521Y-100416440D01*
X195467830Y-100379670D01*
X195541369Y-100379670D01*
X195651677Y-100416440D01*
X195688447Y-100453209D01*
X196387068Y-101151830D02*
X196019373Y-101151830D01*
X196019373Y-100379670D01*
X196644455Y-101151830D02*
X196644455Y-100379670D01*
X197085689Y-101151830D02*
X196754763Y-100710596D01*
X197085689Y-100379670D02*
X196644455Y-100820904D01*
X141004908Y-95299670D02*
X140637213Y-95299670D01*
X140600443Y-95667365D01*
X140637213Y-95630596D01*
X140710752Y-95593826D01*
X140894599Y-95593826D01*
X140968138Y-95630596D01*
X141004908Y-95667365D01*
X141041677Y-95740904D01*
X141041677Y-95924752D01*
X141004908Y-95998291D01*
X140968138Y-96035060D01*
X140894599Y-96071830D01*
X140710752Y-96071830D01*
X140637213Y-96035060D01*
X140600443Y-95998291D01*
X141262295Y-95299670D02*
X141519681Y-96071830D01*
X141777068Y-95299670D01*
X147354908Y-95299670D02*
X146987213Y-95299670D01*
X146950443Y-95667365D01*
X146987213Y-95630596D01*
X147060752Y-95593826D01*
X147244599Y-95593826D01*
X147318138Y-95630596D01*
X147354908Y-95667365D01*
X147391677Y-95740904D01*
X147391677Y-95924752D01*
X147354908Y-95998291D01*
X147318138Y-96035060D01*
X147244599Y-96071830D01*
X147060752Y-96071830D01*
X146987213Y-96035060D01*
X146950443Y-95998291D01*
X147612295Y-95299670D02*
X147869681Y-96071830D01*
X148127068Y-95299670D01*
X143177213Y-95299670D02*
X143177213Y-95924752D01*
X143213982Y-95998291D01*
X143250752Y-96035060D01*
X143324291Y-96071830D01*
X143471369Y-96071830D01*
X143544908Y-96035060D01*
X143581677Y-95998291D01*
X143618447Y-95924752D01*
X143618447Y-95299670D01*
X143986142Y-96071830D02*
X143986142Y-95299670D01*
X144280298Y-95299670D01*
X144353837Y-95336440D01*
X144390607Y-95373209D01*
X144427377Y-95446748D01*
X144427377Y-95557057D01*
X144390607Y-95630596D01*
X144353837Y-95667365D01*
X144280298Y-95704135D01*
X143986142Y-95704135D01*
X149527213Y-95299670D02*
X149527213Y-95924752D01*
X149563982Y-95998291D01*
X149600752Y-96035060D01*
X149674291Y-96071830D01*
X149821369Y-96071830D01*
X149894908Y-96035060D01*
X149931677Y-95998291D01*
X149968447Y-95924752D01*
X149968447Y-95299670D01*
X150336142Y-96071830D02*
X150336142Y-95299670D01*
X150630298Y-95299670D01*
X150703837Y-95336440D01*
X150740607Y-95373209D01*
X150777377Y-95446748D01*
X150777377Y-95557057D01*
X150740607Y-95630596D01*
X150703837Y-95667365D01*
X150630298Y-95704135D01*
X150336142Y-95704135D01*
X195247213Y-112073830D02*
X195247213Y-111301670D01*
X195614908Y-111669365D02*
X195872295Y-111669365D01*
X195982603Y-112073830D02*
X195614908Y-112073830D01*
X195614908Y-111301670D01*
X195982603Y-111301670D01*
X196313529Y-112073830D02*
X196313529Y-111301670D01*
D12*
X102946100Y-97378600D02*
X104216100Y-97378600D01*
X104851100Y-98013600D02*
X104216100Y-97378600D01*
X101676100Y-97378600D02*
X102311100Y-98013600D01*
X100406100Y-97378600D02*
X101676100Y-97378600D01*
X99771100Y-98013600D02*
X100406100Y-97378600D01*
X102311100Y-98013600D02*
X102946100Y-97378600D01*
X99771100Y-101823600D02*
X99771100Y-98013600D01*
X104216100Y-102458600D02*
X104851100Y-101823600D01*
X100406100Y-102458600D02*
X99771100Y-101823600D01*
X101676100Y-102458600D02*
X100406100Y-102458600D01*
X102311100Y-101823600D02*
X101676100Y-102458600D01*
X102946100Y-102458600D02*
X102311100Y-101823600D01*
X104216100Y-102458600D02*
X102946100Y-102458600D01*
X106756100Y-97378600D02*
X107391100Y-98013600D01*
X105486100Y-97378600D02*
X106756100Y-97378600D01*
X104851100Y-98013600D02*
X105486100Y-97378600D01*
X110566100Y-97378600D02*
X111836100Y-97378600D01*
X112471100Y-98013600D02*
X111836100Y-97378600D01*
X109296100Y-97378600D02*
X109931100Y-98013600D01*
X108026100Y-97378600D02*
X109296100Y-97378600D01*
X107391100Y-98013600D02*
X108026100Y-97378600D01*
X109931100Y-98013600D02*
X110566100Y-97378600D01*
X114376100Y-97378600D02*
X115011100Y-98013600D01*
X113106100Y-97378600D02*
X114376100Y-97378600D01*
X112471100Y-98013600D02*
X113106100Y-97378600D01*
X118186100Y-97378600D02*
X119456100Y-97378600D01*
X120091100Y-98013600D02*
X119456100Y-97378600D01*
X120091100Y-101823600D02*
X120091100Y-98013600D01*
X116916100Y-97378600D02*
X117551100Y-98013600D01*
X115646100Y-97378600D02*
X116916100Y-97378600D01*
X115011100Y-98013600D02*
X115646100Y-97378600D01*
X117551100Y-98013600D02*
X118186100Y-97378600D01*
X105486100Y-102458600D02*
X104851100Y-101823600D01*
X106756100Y-102458600D02*
X105486100Y-102458600D01*
X107391100Y-101823600D02*
X106756100Y-102458600D01*
X111836100Y-102458600D02*
X112471100Y-101823600D01*
X108026100Y-102458600D02*
X107391100Y-101823600D01*
X109296100Y-102458600D02*
X108026100Y-102458600D01*
X109931100Y-101823600D02*
X109296100Y-102458600D01*
X110566100Y-102458600D02*
X109931100Y-101823600D01*
X111836100Y-102458600D02*
X110566100Y-102458600D01*
X113106100Y-102458600D02*
X112471100Y-101823600D01*
X114376100Y-102458600D02*
X113106100Y-102458600D01*
X115011100Y-101823600D02*
X114376100Y-102458600D01*
X119456100Y-102458600D02*
X120091100Y-101823600D01*
X115646100Y-102458600D02*
X115011100Y-101823600D01*
X116916100Y-102458600D02*
X115646100Y-102458600D01*
X117551100Y-101823600D02*
X116916100Y-102458600D01*
X118186100Y-102458600D02*
X117551100Y-101823600D01*
X119456100Y-102458600D02*
X118186100Y-102458600D01*
X196291100Y-92933600D02*
X196291100Y-94203600D01*
X194386100Y-94838600D02*
X193751100Y-94203600D01*
X195656100Y-94838600D02*
X194386100Y-94838600D01*
X196291100Y-94203600D02*
X195656100Y-94838600D01*
X195656100Y-92298600D02*
X196291100Y-92933600D01*
X194386100Y-92298600D02*
X195656100Y-92298600D01*
X193751100Y-92933600D02*
X194386100Y-92298600D01*
X190576100Y-94838600D02*
X189306100Y-94838600D01*
X188671100Y-94203600D02*
X189306100Y-94838600D01*
X189306100Y-92298600D02*
X188671100Y-92933600D01*
X191846100Y-94838600D02*
X191211100Y-94203600D01*
X193116100Y-94838600D02*
X191846100Y-94838600D01*
X193751100Y-94203600D02*
X193116100Y-94838600D01*
X193116100Y-92298600D02*
X193751100Y-92933600D01*
X191846100Y-92298600D02*
X193116100Y-92298600D01*
X191211100Y-92933600D02*
X191846100Y-92298600D01*
X191211100Y-94203600D02*
X190576100Y-94838600D01*
X190576100Y-92298600D02*
X191211100Y-92933600D01*
X189306100Y-92298600D02*
X190576100Y-92298600D01*
X186766100Y-94838600D02*
X186131100Y-94203600D01*
X188036100Y-94838600D02*
X186766100Y-94838600D01*
X188671100Y-94203600D02*
X188036100Y-94838600D01*
X188036100Y-92298600D02*
X188671100Y-92933600D01*
X186766100Y-92298600D02*
X188036100Y-92298600D01*
X186131100Y-92933600D02*
X186766100Y-92298600D01*
X182956100Y-94838600D02*
X181686100Y-94838600D01*
X181051100Y-94203600D02*
X181686100Y-94838600D01*
X181686100Y-92298600D02*
X181051100Y-92933600D01*
X181051100Y-92933600D02*
X181051100Y-94203600D01*
X184226100Y-94838600D02*
X183591100Y-94203600D01*
X185496100Y-94838600D02*
X184226100Y-94838600D01*
X186131100Y-94203600D02*
X185496100Y-94838600D01*
X185496100Y-92298600D02*
X186131100Y-92933600D01*
X184226100Y-92298600D02*
X185496100Y-92298600D01*
X183591100Y-92933600D02*
X184226100Y-92298600D01*
X183591100Y-94203600D02*
X182956100Y-94838600D01*
X182956100Y-92298600D02*
X183591100Y-92933600D01*
X181686100Y-92298600D02*
X182956100Y-92298600D01*
D13*
X184988100Y-96108600D02*
X184734100Y-96108600D01*
X190068100Y-96108600D02*
X189814100Y-96108600D01*
X195148100Y-96108600D02*
X194894100Y-96108600D01*
D14*
X125171100Y-102128400D02*
X126441100Y-102128400D01*
D12*
X125171100Y-102128400D02*
X125171100Y-103728600D01*
D14*
X125171100Y-100248800D02*
X126441100Y-100248800D01*
D12*
X125171100Y-100248800D02*
X125171100Y-98648600D01*
D14*
X123901100Y-102128400D02*
X125171100Y-102128400D01*
X123901100Y-100248800D02*
X125171100Y-100248800D01*
X123901100Y-100883800D02*
X123901100Y-101518800D01*
X126441100Y-100883800D02*
X123901100Y-100883800D01*
X126441100Y-101518800D02*
X126441100Y-100883800D01*
X123901100Y-101518800D02*
X126441100Y-101518800D01*
D12*
X134696100Y-110078600D02*
G75*
G02X134061100Y-110713600I-635000J0D01*
G01*
D15*
X122631100Y-110078600D02*
G75*
G03X123901100Y-111348600I1270000J0D01*
G01*
D12*
X123266100Y-110078600D02*
G75*
G03X123901100Y-110713600I635000J0D01*
G01*
D15*
X123901100Y-91028600D02*
G75*
G03X122631100Y-92298600I0J-1270000D01*
G01*
D12*
X123901100Y-91663600D02*
G75*
G03X123266100Y-92298600I0J-635000D01*
G01*
X134061100Y-91663600D02*
G75*
G02X134696100Y-92298600I0J-635000D01*
G01*
D15*
X134061100Y-91028600D02*
G75*
G02X135331100Y-92298600I0J-1270000D01*
G01*
D12*
X123901100Y-110713600D02*
X134061100Y-110713600D01*
X123266100Y-92298600D02*
X123266100Y-110078600D01*
X134061100Y-91663600D02*
X123901100Y-91663600D01*
X134696100Y-110078600D02*
X134696100Y-92298600D01*
D15*
X135331100Y-111348600D02*
X123901100Y-111348600D01*
X122631100Y-92298600D02*
X122631100Y-110078600D01*
X134061100Y-91028600D02*
X123901100Y-91028600D01*
X135331100Y-111348600D02*
X135331100Y-92298600D01*
D12*
X99771100Y-106014600D02*
X99771100Y-105887600D01*
D15*
X99771100Y-106014600D02*
X99009100Y-106014600D01*
X100533100Y-106014600D02*
X99771100Y-106014600D01*
X99771100Y-106522600D02*
X99009100Y-106522600D01*
X99771100Y-106522600D02*
X100533100Y-106522600D01*
D12*
X99771100Y-106649600D02*
X99771100Y-106522600D01*
X98501100Y-104109600D02*
G75*
G02X98755100Y-103855600I254000J0D01*
G01*
X98755100Y-108681600D02*
G75*
G02X98501100Y-108427600I0J254000D01*
G01*
X101041100Y-104109600D02*
G75*
G03X100787100Y-103855600I-254000J0D01*
G01*
X100787100Y-108681600D02*
G75*
G03X101041100Y-108427600I0J254000D01*
G01*
X100787100Y-103855600D02*
X98755100Y-103855600D01*
X100787100Y-108681600D02*
X98755100Y-108681600D01*
X98501100Y-108427600D02*
X98501100Y-104109600D01*
X101041100Y-104109600D02*
X101041100Y-108427600D01*
X123901100Y-112872600D02*
X123901100Y-114904600D01*
X123901100Y-112872600D02*
X124155100Y-112618600D01*
X126187100Y-112618600D02*
X124155100Y-112618600D01*
X128727100Y-112618600D02*
X126695100Y-112618600D01*
X128727100Y-112618600D02*
X128981100Y-112872600D01*
X128981100Y-114904600D02*
X128981100Y-112872600D01*
X128727100Y-115158600D02*
X126695100Y-115158600D01*
X128727100Y-115158600D02*
X128981100Y-114904600D01*
X123901100Y-114904600D02*
X124155100Y-115158600D01*
X126187100Y-115158600D02*
X124155100Y-115158600D01*
X126441100Y-114904600D02*
X126187100Y-115158600D01*
X126441100Y-114904600D02*
X126695100Y-115158600D01*
X126441100Y-112872600D02*
X126187100Y-112618600D01*
X126441100Y-112872600D02*
X126695100Y-112618600D01*
X151841100Y-94584600D02*
X151841100Y-92552600D01*
X151841100Y-94584600D02*
X151587100Y-94838600D01*
X149555100Y-94838600D02*
X151587100Y-94838600D01*
X147015100Y-94838600D02*
X149047100Y-94838600D01*
X147015100Y-94838600D02*
X146761100Y-94584600D01*
X146761100Y-92552600D02*
X146761100Y-94584600D01*
X147015100Y-92298600D02*
X149047100Y-92298600D01*
X147015100Y-92298600D02*
X146761100Y-92552600D01*
X151841100Y-92552600D02*
X151587100Y-92298600D01*
X149555100Y-92298600D02*
X151587100Y-92298600D01*
X149301100Y-92552600D02*
X149555100Y-92298600D01*
X149301100Y-92552600D02*
X149047100Y-92298600D01*
X149301100Y-94584600D02*
X149555100Y-94838600D01*
X149301100Y-94584600D02*
X149047100Y-94838600D01*
X178511100Y-92933600D02*
X178511100Y-94203600D01*
X176606100Y-94838600D02*
X175971100Y-94203600D01*
X177876100Y-94838600D02*
X176606100Y-94838600D01*
X178511100Y-94203600D02*
X177876100Y-94838600D01*
X177876100Y-92298600D02*
X178511100Y-92933600D01*
X176606100Y-92298600D02*
X177876100Y-92298600D01*
X175971100Y-92933600D02*
X176606100Y-92298600D01*
X172796100Y-94838600D02*
X171526100Y-94838600D01*
X170891100Y-94203600D02*
X171526100Y-94838600D01*
X171526100Y-92298600D02*
X170891100Y-92933600D01*
X174066100Y-94838600D02*
X173431100Y-94203600D01*
X175336100Y-94838600D02*
X174066100Y-94838600D01*
X175971100Y-94203600D02*
X175336100Y-94838600D01*
X175336100Y-92298600D02*
X175971100Y-92933600D01*
X174066100Y-92298600D02*
X175336100Y-92298600D01*
X173431100Y-92933600D02*
X174066100Y-92298600D01*
X173431100Y-94203600D02*
X172796100Y-94838600D01*
X172796100Y-92298600D02*
X173431100Y-92933600D01*
X171526100Y-92298600D02*
X172796100Y-92298600D01*
X168986100Y-94838600D02*
X168351100Y-94203600D01*
X170256100Y-94838600D02*
X168986100Y-94838600D01*
X170891100Y-94203600D02*
X170256100Y-94838600D01*
X170256100Y-92298600D02*
X170891100Y-92933600D01*
X168986100Y-92298600D02*
X170256100Y-92298600D01*
X168351100Y-92933600D02*
X168986100Y-92298600D01*
X165176100Y-94838600D02*
X163906100Y-94838600D01*
X163271100Y-94203600D02*
X163906100Y-94838600D01*
X163906100Y-92298600D02*
X163271100Y-92933600D01*
X163271100Y-92933600D02*
X163271100Y-94203600D01*
X166446100Y-94838600D02*
X165811100Y-94203600D01*
X167716100Y-94838600D02*
X166446100Y-94838600D01*
X168351100Y-94203600D02*
X167716100Y-94838600D01*
X167716100Y-92298600D02*
X168351100Y-92933600D01*
X166446100Y-92298600D02*
X167716100Y-92298600D01*
X165811100Y-92933600D02*
X166446100Y-92298600D01*
X165811100Y-94203600D02*
X165176100Y-94838600D01*
X165176100Y-92298600D02*
X165811100Y-92933600D01*
X163906100Y-92298600D02*
X165176100Y-92298600D01*
D13*
X167208100Y-96108600D02*
X166954100Y-96108600D01*
X172288100Y-96108600D02*
X172034100Y-96108600D01*
X177368100Y-96108600D02*
X177114100Y-96108600D01*
D12*
X145491100Y-94584600D02*
X145491100Y-92552600D01*
X145491100Y-94584600D02*
X145237100Y-94838600D01*
X143205100Y-94838600D02*
X145237100Y-94838600D01*
X140665100Y-94838600D02*
X142697100Y-94838600D01*
X140665100Y-94838600D02*
X140411100Y-94584600D01*
X140411100Y-92552600D02*
X140411100Y-94584600D01*
X140665100Y-92298600D02*
X142697100Y-92298600D01*
X140665100Y-92298600D02*
X140411100Y-92552600D01*
X145491100Y-92552600D02*
X145237100Y-92298600D01*
X143205100Y-92298600D02*
X145237100Y-92298600D01*
X142951100Y-92552600D02*
X143205100Y-92298600D01*
X142951100Y-92552600D02*
X142697100Y-92298600D01*
X142951100Y-94584600D02*
X143205100Y-94838600D01*
X142951100Y-94584600D02*
X142697100Y-94838600D01*
X137871100Y-111094600D02*
X137871100Y-110967600D01*
D15*
X137871100Y-111094600D02*
X137109100Y-111094600D01*
X138633100Y-111094600D02*
X137871100Y-111094600D01*
X137871100Y-111602600D02*
X137109100Y-111602600D01*
X137871100Y-111602600D02*
X138633100Y-111602600D01*
D12*
X137871100Y-111729600D02*
X137871100Y-111602600D01*
X136601100Y-109189600D02*
G75*
G02X136855100Y-108935600I254000J0D01*
G01*
X136855100Y-113761600D02*
G75*
G02X136601100Y-113507600I0J254000D01*
G01*
X139141100Y-109189600D02*
G75*
G03X138887100Y-108935600I-254000J0D01*
G01*
X138887100Y-113761600D02*
G75*
G03X139141100Y-113507600I0J254000D01*
G01*
X138887100Y-108935600D02*
X136855100Y-108935600D01*
X138887100Y-113761600D02*
X136855100Y-113761600D01*
X136601100Y-113507600D02*
X136601100Y-109189600D01*
X139141100Y-109189600D02*
X139141100Y-113507600D01*
X140411100Y-107411600D02*
G75*
G03X140411100Y-105379600I0J1016000D01*
G01*
X140411100Y-112999600D02*
X140411100Y-107411600D01*
X140411100Y-99537600D02*
X140411100Y-105379600D01*
X191211100Y-99537600D02*
X191211100Y-112999600D01*
X140411100Y-112999600D02*
X191211100Y-112999600D01*
X191211100Y-99537600D02*
X140411100Y-99537600D01*
X101041100Y-109824600D02*
G75*
G03X101041100Y-107792600I0J1016000D01*
G01*
X101041100Y-111729600D02*
X101041100Y-109824600D01*
X101041100Y-105887600D02*
X101041100Y-107792600D01*
X121361100Y-105887600D02*
X121361100Y-111729600D01*
X101041100Y-111729600D02*
X121361100Y-111729600D01*
X121361100Y-105887600D02*
X101041100Y-105887600D01*
X192481100Y-104744600D02*
X192481100Y-102712600D01*
X192481100Y-107284600D02*
X192481100Y-105252600D01*
X192735100Y-102458600D02*
X192481100Y-102712600D01*
X192481100Y-104744600D02*
X192735100Y-104998600D01*
X192735100Y-104998600D02*
X192481100Y-105252600D01*
X192481100Y-107284600D02*
X192735100Y-107538600D01*
X195021100Y-104744600D02*
X195021100Y-102712600D01*
X194767100Y-102458600D02*
X195021100Y-102712600D01*
X195021100Y-104744600D02*
X194767100Y-104998600D01*
X194767100Y-104998600D02*
X195021100Y-105252600D01*
X195021100Y-107284600D02*
X195021100Y-105252600D01*
X195021100Y-107284600D02*
X194767100Y-107538600D01*
X194767100Y-110078600D02*
X192735100Y-110078600D01*
X195021100Y-109824600D02*
X194767100Y-110078600D01*
X192481100Y-109824600D02*
X192735100Y-110078600D01*
X192735100Y-107538600D02*
X192481100Y-107792600D01*
X192481100Y-109824600D02*
X192481100Y-107792600D01*
X194767100Y-107538600D02*
X195021100Y-107792600D01*
X195021100Y-109824600D02*
X195021100Y-107792600D01*
X192735100Y-102458600D02*
X194767100Y-102458600D01*
X196291100Y-104744600D02*
X196291100Y-102712600D01*
X196291100Y-107284600D02*
X196291100Y-105252600D01*
X196545100Y-102458600D02*
X196291100Y-102712600D01*
X196291100Y-104744600D02*
X196545100Y-104998600D01*
X196545100Y-104998600D02*
X196291100Y-105252600D01*
X196291100Y-107284600D02*
X196545100Y-107538600D01*
X198831100Y-104744600D02*
X198831100Y-102712600D01*
X198577100Y-102458600D02*
X198831100Y-102712600D01*
X198831100Y-104744600D02*
X198577100Y-104998600D01*
X198577100Y-104998600D02*
X198831100Y-105252600D01*
X198831100Y-107284600D02*
X198831100Y-105252600D01*
X198831100Y-107284600D02*
X198577100Y-107538600D01*
X198577100Y-110078600D02*
X196545100Y-110078600D01*
X198831100Y-109824600D02*
X198577100Y-110078600D01*
X196291100Y-109824600D02*
X196545100Y-110078600D01*
X196545100Y-107538600D02*
X196291100Y-107792600D01*
X196291100Y-109824600D02*
X196291100Y-107792600D01*
X198577100Y-107538600D02*
X198831100Y-107792600D01*
X198831100Y-109824600D02*
X198831100Y-107792600D01*
X196545100Y-102458600D02*
X198577100Y-102458600D01*
X193497100Y-115158600D02*
X191465100Y-115158600D01*
X196037100Y-115158600D02*
X194005100Y-115158600D01*
X191211100Y-114904600D02*
X191465100Y-115158600D01*
X193497100Y-115158600D02*
X193751100Y-114904600D01*
X193751100Y-114904600D02*
X194005100Y-115158600D01*
X196037100Y-115158600D02*
X196291100Y-114904600D01*
X193497100Y-112618600D02*
X191465100Y-112618600D01*
X191211100Y-112872600D02*
X191465100Y-112618600D01*
X193497100Y-112618600D02*
X193751100Y-112872600D01*
X193751100Y-112872600D02*
X194005100Y-112618600D01*
X196037100Y-112618600D02*
X194005100Y-112618600D01*
X196037100Y-112618600D02*
X196291100Y-112872600D01*
X198831100Y-112872600D02*
X198831100Y-114904600D01*
X198577100Y-112618600D02*
X198831100Y-112872600D01*
X198577100Y-115158600D02*
X198831100Y-114904600D01*
X196291100Y-114904600D02*
X196545100Y-115158600D01*
X198577100Y-115158600D02*
X196545100Y-115158600D01*
X196291100Y-112872600D02*
X196545100Y-112618600D01*
X198577100Y-112618600D02*
X196545100Y-112618600D01*
X191211100Y-114904600D02*
X191211100Y-112872600D01*
D16*
D17*
X103312888Y-102782147D02*
X102623459Y-102782147D01*
X102968173Y-102782147D02*
X102968173Y-101575647D01*
X102853269Y-101748004D01*
X102738364Y-101862909D01*
X102623459Y-101920361D01*
X104347030Y-101575647D02*
X104117221Y-101575647D01*
X104002316Y-101633100D01*
X103944864Y-101690552D01*
X103829959Y-101862909D01*
X103772507Y-102092719D01*
X103772507Y-102552338D01*
X103829959Y-102667242D01*
X103887411Y-102724695D01*
X104002316Y-102782147D01*
X104232126Y-102782147D01*
X104347030Y-102724695D01*
X104404483Y-102667242D01*
X104461935Y-102552338D01*
X104461935Y-102265076D01*
X104404483Y-102150171D01*
X104347030Y-102092719D01*
X104232126Y-102035266D01*
X104002316Y-102035266D01*
X103887411Y-102092719D01*
X103829959Y-102150171D01*
X103772507Y-102265076D01*
X120330888Y-95670147D02*
X119641459Y-95670147D01*
X119986173Y-95670147D02*
X119986173Y-94463647D01*
X119871269Y-94636004D01*
X119756364Y-94750909D01*
X119641459Y-94808361D01*
X195272983Y-90653647D02*
X195043173Y-90653647D01*
X194928269Y-90711100D01*
X194870816Y-90768552D01*
X194755911Y-90940909D01*
X194698459Y-91170719D01*
X194698459Y-91630338D01*
X194755911Y-91745242D01*
X194813364Y-91802695D01*
X194928269Y-91860147D01*
X195158078Y-91860147D01*
X195272983Y-91802695D01*
X195330435Y-91745242D01*
X195387888Y-91630338D01*
X195387888Y-91343076D01*
X195330435Y-91228171D01*
X195272983Y-91170719D01*
X195158078Y-91113266D01*
X194928269Y-91113266D01*
X194813364Y-91170719D01*
X194755911Y-91228171D01*
X194698459Y-91343076D01*
X182687888Y-96432147D02*
X181998459Y-96432147D01*
X182343173Y-96432147D02*
X182343173Y-95225647D01*
X182228269Y-95398004D01*
X182113364Y-95512909D01*
X181998459Y-95570361D01*
D18*
X184994421Y-96496857D02*
X184680731Y-96048728D01*
X184456667Y-96496857D02*
X184456667Y-95555787D01*
X184815170Y-95555787D01*
X184904796Y-95600600D01*
X184949609Y-95645412D01*
X184994421Y-95735038D01*
X184994421Y-95869477D01*
X184949609Y-95959102D01*
X184904796Y-96003915D01*
X184815170Y-96048728D01*
X184456667Y-96048728D01*
X185890679Y-96496857D02*
X185352924Y-96496857D01*
X185621801Y-96496857D02*
X185621801Y-95555787D01*
X185532176Y-95690225D01*
X185442550Y-95779851D01*
X185352924Y-95824664D01*
X190074421Y-96496857D02*
X189760731Y-96048728D01*
X189536667Y-96496857D02*
X189536667Y-95555787D01*
X189895170Y-95555787D01*
X189984796Y-95600600D01*
X190029609Y-95645412D01*
X190074421Y-95735038D01*
X190074421Y-95869477D01*
X190029609Y-95959102D01*
X189984796Y-96003915D01*
X189895170Y-96048728D01*
X189536667Y-96048728D01*
X190432924Y-95645412D02*
X190477737Y-95600600D01*
X190567363Y-95555787D01*
X190791427Y-95555787D01*
X190881053Y-95600600D01*
X190925866Y-95645412D01*
X190970679Y-95735038D01*
X190970679Y-95824664D01*
X190925866Y-95959102D01*
X190388111Y-96496857D01*
X190970679Y-96496857D01*
X195154421Y-96496857D02*
X194840731Y-96048728D01*
X194616667Y-96496857D02*
X194616667Y-95555787D01*
X194975170Y-95555787D01*
X195064796Y-95600600D01*
X195109609Y-95645412D01*
X195154421Y-95735038D01*
X195154421Y-95869477D01*
X195109609Y-95959102D01*
X195064796Y-96003915D01*
X194975170Y-96048728D01*
X194616667Y-96048728D01*
X195468111Y-95555787D02*
X196050679Y-95555787D01*
X195736989Y-95914290D01*
X195871427Y-95914290D01*
X195961053Y-95959102D01*
X196005866Y-96003915D01*
X196050679Y-96093541D01*
X196050679Y-96317605D01*
X196005866Y-96407231D01*
X195961053Y-96452044D01*
X195871427Y-96496857D01*
X195602550Y-96496857D01*
X195512924Y-96452044D01*
X195468111Y-96407231D01*
D19*
X128914772Y-105475152D02*
X128799867Y-105417700D01*
X128684963Y-105302795D01*
X128512606Y-105130438D01*
X128397701Y-105072985D01*
X128282796Y-105072985D01*
X128340248Y-105360247D02*
X128225344Y-105302795D01*
X128110439Y-105187890D01*
X128052987Y-104958080D01*
X128052987Y-104555914D01*
X128110439Y-104326104D01*
X128225344Y-104211200D01*
X128340248Y-104153747D01*
X128570058Y-104153747D01*
X128684963Y-104211200D01*
X128799867Y-104326104D01*
X128857320Y-104555914D01*
X128857320Y-104958080D01*
X128799867Y-105187890D01*
X128684963Y-105302795D01*
X128570058Y-105360247D01*
X128340248Y-105360247D01*
X130006367Y-104211200D02*
X129891463Y-104153747D01*
X129719106Y-104153747D01*
X129546748Y-104211200D01*
X129431844Y-104326104D01*
X129374391Y-104441009D01*
X129316939Y-104670819D01*
X129316939Y-104843176D01*
X129374391Y-105072985D01*
X129431844Y-105187890D01*
X129546748Y-105302795D01*
X129719106Y-105360247D01*
X129834010Y-105360247D01*
X130006367Y-105302795D01*
X130063820Y-105245342D01*
X130063820Y-104843176D01*
X129834010Y-104843176D01*
X131212867Y-105360247D02*
X130523439Y-105360247D01*
X130868153Y-105360247D02*
X130868153Y-104153747D01*
X130753248Y-104326104D01*
X130638344Y-104441009D01*
X130523439Y-104498461D01*
D17*
X134384647Y-106663811D02*
X134384647Y-107353240D01*
X134384647Y-107008526D02*
X133178147Y-107008526D01*
X133350504Y-107123430D01*
X133465409Y-107238335D01*
X133522861Y-107353240D01*
X177492983Y-90653647D02*
X177263173Y-90653647D01*
X177148269Y-90711100D01*
X177090816Y-90768552D01*
X176975911Y-90940909D01*
X176918459Y-91170719D01*
X176918459Y-91630338D01*
X176975911Y-91745242D01*
X177033364Y-91802695D01*
X177148269Y-91860147D01*
X177378078Y-91860147D01*
X177492983Y-91802695D01*
X177550435Y-91745242D01*
X177607888Y-91630338D01*
X177607888Y-91343076D01*
X177550435Y-91228171D01*
X177492983Y-91170719D01*
X177378078Y-91113266D01*
X177148269Y-91113266D01*
X177033364Y-91170719D01*
X176975911Y-91228171D01*
X176918459Y-91343076D01*
X164907888Y-96432147D02*
X164218459Y-96432147D01*
X164563173Y-96432147D02*
X164563173Y-95225647D01*
X164448269Y-95398004D01*
X164333364Y-95512909D01*
X164218459Y-95570361D01*
D18*
X167214421Y-96496857D02*
X166900731Y-96048728D01*
X166676667Y-96496857D02*
X166676667Y-95555787D01*
X167035170Y-95555787D01*
X167124796Y-95600600D01*
X167169609Y-95645412D01*
X167214421Y-95735038D01*
X167214421Y-95869477D01*
X167169609Y-95959102D01*
X167124796Y-96003915D01*
X167035170Y-96048728D01*
X166676667Y-96048728D01*
X168021053Y-95869477D02*
X168021053Y-96496857D01*
X167796989Y-95510974D02*
X167572924Y-96183167D01*
X168155491Y-96183167D01*
X172294421Y-96496857D02*
X171980731Y-96048728D01*
X171756667Y-96496857D02*
X171756667Y-95555787D01*
X172115170Y-95555787D01*
X172204796Y-95600600D01*
X172249609Y-95645412D01*
X172294421Y-95735038D01*
X172294421Y-95869477D01*
X172249609Y-95959102D01*
X172204796Y-96003915D01*
X172115170Y-96048728D01*
X171756667Y-96048728D01*
X173145866Y-95555787D02*
X172697737Y-95555787D01*
X172652924Y-96003915D01*
X172697737Y-95959102D01*
X172787363Y-95914290D01*
X173011427Y-95914290D01*
X173101053Y-95959102D01*
X173145866Y-96003915D01*
X173190679Y-96093541D01*
X173190679Y-96317605D01*
X173145866Y-96407231D01*
X173101053Y-96452044D01*
X173011427Y-96496857D01*
X172787363Y-96496857D01*
X172697737Y-96452044D01*
X172652924Y-96407231D01*
X177374421Y-96496857D02*
X177060731Y-96048728D01*
X176836667Y-96496857D02*
X176836667Y-95555787D01*
X177195170Y-95555787D01*
X177284796Y-95600600D01*
X177329609Y-95645412D01*
X177374421Y-95735038D01*
X177374421Y-95869477D01*
X177329609Y-95959102D01*
X177284796Y-96003915D01*
X177195170Y-96048728D01*
X176836667Y-96048728D01*
X178181053Y-95555787D02*
X178001801Y-95555787D01*
X177912176Y-95600600D01*
X177867363Y-95645412D01*
X177777737Y-95779851D01*
X177732924Y-95959102D01*
X177732924Y-96317605D01*
X177777737Y-96407231D01*
X177822550Y-96452044D01*
X177912176Y-96496857D01*
X178091427Y-96496857D01*
X178181053Y-96452044D01*
X178225866Y-96407231D01*
X178270679Y-96317605D01*
X178270679Y-96093541D01*
X178225866Y-96003915D01*
X178181053Y-95959102D01*
X178091427Y-95914290D01*
X177912176Y-95914290D01*
X177822550Y-95959102D01*
X177777737Y-96003915D01*
X177732924Y-96093541D01*
D20*
X158427099Y-106950166D02*
X158427099Y-105261066D01*
X160196633Y-106789300D02*
X160116199Y-106869733D01*
X159874899Y-106950166D01*
X159714033Y-106950166D01*
X159472733Y-106869733D01*
X159311866Y-106708866D01*
X159231433Y-106548000D01*
X159150999Y-106226266D01*
X159150999Y-105984966D01*
X159231433Y-105663233D01*
X159311866Y-105502366D01*
X159472733Y-105341500D01*
X159714033Y-105261066D01*
X159874899Y-105261066D01*
X160116199Y-105341500D01*
X160196633Y-105421933D01*
X161805299Y-106950166D02*
X160840099Y-106950166D01*
X161322699Y-106950166D02*
X161322699Y-105261066D01*
X161161833Y-105502366D01*
X161000966Y-105663233D01*
X160840099Y-105743666D01*
D19*
X116265784Y-109640147D02*
X116265784Y-108433647D01*
X117529736Y-109525242D02*
X117472284Y-109582695D01*
X117299927Y-109640147D01*
X117185022Y-109640147D01*
X117012665Y-109582695D01*
X116897760Y-109467790D01*
X116840308Y-109352885D01*
X116782855Y-109123076D01*
X116782855Y-108950719D01*
X116840308Y-108720909D01*
X116897760Y-108606004D01*
X117012665Y-108491100D01*
X117185022Y-108433647D01*
X117299927Y-108433647D01*
X117472284Y-108491100D01*
X117529736Y-108548552D01*
X117989355Y-108548552D02*
X118046808Y-108491100D01*
X118161712Y-108433647D01*
X118448974Y-108433647D01*
X118563879Y-108491100D01*
X118621332Y-108548552D01*
X118678784Y-108663457D01*
X118678784Y-108778361D01*
X118621332Y-108950719D01*
X117931903Y-109640147D01*
X118678784Y-109640147D01*
D21*
X190098217Y-108596894D02*
X190098217Y-108014327D01*
X190456720Y-108328017D01*
X190456720Y-108193578D01*
X190501532Y-108103953D01*
X190546345Y-108059140D01*
X190635971Y-108014327D01*
X190860035Y-108014327D01*
X190949661Y-108059140D01*
X190994474Y-108103953D01*
X191039287Y-108193578D01*
X191039287Y-108462456D01*
X190994474Y-108552081D01*
X190949661Y-108596894D01*
X190187842Y-106012081D02*
X190143030Y-105967268D01*
X190098217Y-105877643D01*
X190098217Y-105653578D01*
X190143030Y-105563953D01*
X190187842Y-105519140D01*
X190277468Y-105474327D01*
X190367094Y-105474327D01*
X190501532Y-105519140D01*
X191039287Y-106056894D01*
X191039287Y-105474327D01*
X191039287Y-102934327D02*
X191039287Y-103472081D01*
X191039287Y-103203204D02*
X190098217Y-103203204D01*
X190232655Y-103292830D01*
X190322281Y-103382456D01*
X190367094Y-103472081D01*
X193908217Y-108596894D02*
X193908217Y-108014327D01*
X194266720Y-108328017D01*
X194266720Y-108193578D01*
X194311532Y-108103953D01*
X194356345Y-108059140D01*
X194445971Y-108014327D01*
X194670035Y-108014327D01*
X194759661Y-108059140D01*
X194804474Y-108103953D01*
X194849287Y-108193578D01*
X194849287Y-108462456D01*
X194804474Y-108552081D01*
X194759661Y-108596894D01*
X193997842Y-106012081D02*
X193953030Y-105967268D01*
X193908217Y-105877643D01*
X193908217Y-105653578D01*
X193953030Y-105563953D01*
X193997842Y-105519140D01*
X194087468Y-105474327D01*
X194177094Y-105474327D01*
X194311532Y-105519140D01*
X194849287Y-106056894D01*
X194849287Y-105474327D01*
X194849287Y-102934327D02*
X194849287Y-103472081D01*
X194849287Y-103203204D02*
X193908217Y-103203204D01*
X194042655Y-103292830D01*
X194132281Y-103382456D01*
X194177094Y-103472081D01*
X197772805Y-115569717D02*
X198355372Y-115569717D01*
X198041682Y-115928220D01*
X198176121Y-115928220D01*
X198265746Y-115973032D01*
X198310559Y-116017845D01*
X198355372Y-116107471D01*
X198355372Y-116331535D01*
X198310559Y-116421161D01*
X198265746Y-116465974D01*
X198176121Y-116510787D01*
X197907243Y-116510787D01*
X197817618Y-116465974D01*
X197772805Y-116421161D01*
X195277618Y-115659342D02*
X195322431Y-115614530D01*
X195412056Y-115569717D01*
X195636121Y-115569717D01*
X195725746Y-115614530D01*
X195770559Y-115659342D01*
X195815372Y-115748968D01*
X195815372Y-115838594D01*
X195770559Y-115973032D01*
X195232805Y-116510787D01*
X195815372Y-116510787D01*
X193275372Y-116510787D02*
X192737618Y-116510787D01*
X193006495Y-116510787D02*
X193006495Y-115569717D01*
X192916869Y-115704155D01*
X192827243Y-115793781D01*
X192737618Y-115838594D01*
M02*
