G04 #@! TF.GenerationSoftware,KiCad,Pcbnew,5.1.2*
G04 #@! TF.CreationDate,2020-10-15T13:17:01+02:00*
G04 #@! TF.ProjectId,3365c1e53a7ea87593df0e5cd2596002,33333635-6331-4653-9533-613765613837,rev?*
G04 #@! TF.SameCoordinates,Original*
G04 #@! TF.FileFunction,Other,Fab,Top*
%FSLAX46Y46*%
G04 Gerber Fmt 4.6, Leading zero omitted, Abs format (unit mm)*
G04 Created by KiCad (PCBNEW 5.1.2) date 2020-10-15 13:17:01*
%MOMM*%
%LPD*%
G04 APERTURE LIST*
%ADD10C,0.100000*%
%ADD11C,0.050800*%
%ADD12C,0.152400*%
%ADD13C,0.508000*%
%ADD14C,0.304800*%
%ADD15C,0.120650*%
%ADD16C,0.094107*%
%ADD17C,0.135128*%
G04 APERTURE END LIST*
D10*
G36*
X101295100Y-100934600D02*
G01*
X100787100Y-100934600D01*
X100787100Y-101442600D01*
X101295100Y-101442600D01*
X101295100Y-100934600D01*
G37*
G36*
X103835100Y-100934600D02*
G01*
X103327100Y-100934600D01*
X103327100Y-101442600D01*
X103835100Y-101442600D01*
X103835100Y-100934600D01*
G37*
G36*
X103835100Y-98394600D02*
G01*
X103327100Y-98394600D01*
X103327100Y-98902600D01*
X103835100Y-98902600D01*
X103835100Y-98394600D01*
G37*
G36*
X101295100Y-98394600D02*
G01*
X100787100Y-98394600D01*
X100787100Y-98902600D01*
X101295100Y-98902600D01*
X101295100Y-98394600D01*
G37*
G36*
X106375100Y-100934600D02*
G01*
X105867100Y-100934600D01*
X105867100Y-101442600D01*
X106375100Y-101442600D01*
X106375100Y-100934600D01*
G37*
G36*
X108915100Y-100934600D02*
G01*
X108407100Y-100934600D01*
X108407100Y-101442600D01*
X108915100Y-101442600D01*
X108915100Y-100934600D01*
G37*
G36*
X111455100Y-100934600D02*
G01*
X110947100Y-100934600D01*
X110947100Y-101442600D01*
X111455100Y-101442600D01*
X111455100Y-100934600D01*
G37*
G36*
X113995100Y-100934600D02*
G01*
X113487100Y-100934600D01*
X113487100Y-101442600D01*
X113995100Y-101442600D01*
X113995100Y-100934600D01*
G37*
G36*
X116535100Y-100934600D02*
G01*
X116027100Y-100934600D01*
X116027100Y-101442600D01*
X116535100Y-101442600D01*
X116535100Y-100934600D01*
G37*
G36*
X119075100Y-100934600D02*
G01*
X118567100Y-100934600D01*
X118567100Y-101442600D01*
X119075100Y-101442600D01*
X119075100Y-100934600D01*
G37*
G36*
X106375100Y-98394600D02*
G01*
X105867100Y-98394600D01*
X105867100Y-98902600D01*
X106375100Y-98902600D01*
X106375100Y-98394600D01*
G37*
G36*
X111455100Y-98394600D02*
G01*
X110947100Y-98394600D01*
X110947100Y-98902600D01*
X111455100Y-98902600D01*
X111455100Y-98394600D01*
G37*
G36*
X108915100Y-98394600D02*
G01*
X108407100Y-98394600D01*
X108407100Y-98902600D01*
X108915100Y-98902600D01*
X108915100Y-98394600D01*
G37*
G36*
X113995100Y-98394600D02*
G01*
X113487100Y-98394600D01*
X113487100Y-98902600D01*
X113995100Y-98902600D01*
X113995100Y-98394600D01*
G37*
G36*
X119075100Y-98394600D02*
G01*
X118567100Y-98394600D01*
X118567100Y-98902600D01*
X119075100Y-98902600D01*
X119075100Y-98394600D01*
G37*
G36*
X116535100Y-98394600D02*
G01*
X116027100Y-98394600D01*
X116027100Y-98902600D01*
X116535100Y-98902600D01*
X116535100Y-98394600D01*
G37*
G36*
X194767100Y-93822600D02*
G01*
X195275100Y-93822600D01*
X195275100Y-93314600D01*
X194767100Y-93314600D01*
X194767100Y-93822600D01*
G37*
G36*
X189687100Y-93822600D02*
G01*
X190195100Y-93822600D01*
X190195100Y-93314600D01*
X189687100Y-93314600D01*
X189687100Y-93822600D01*
G37*
G36*
X192227100Y-93822600D02*
G01*
X192735100Y-93822600D01*
X192735100Y-93314600D01*
X192227100Y-93314600D01*
X192227100Y-93822600D01*
G37*
G36*
X187147100Y-93822600D02*
G01*
X187655100Y-93822600D01*
X187655100Y-93314600D01*
X187147100Y-93314600D01*
X187147100Y-93822600D01*
G37*
G36*
X182067100Y-93822600D02*
G01*
X182575100Y-93822600D01*
X182575100Y-93314600D01*
X182067100Y-93314600D01*
X182067100Y-93822600D01*
G37*
G36*
X184607100Y-93822600D02*
G01*
X185115100Y-93822600D01*
X185115100Y-93314600D01*
X184607100Y-93314600D01*
X184607100Y-93822600D01*
G37*
D11*
X186766100Y-96108600D02*
G75*
G03X186766100Y-96108600I-635000J0D01*
G01*
D12*
X187020100Y-96108600D02*
G75*
G03X187020100Y-96108600I-889000J0D01*
G01*
D13*
X186131100Y-96108600D02*
X183591100Y-96108600D01*
D11*
X191846100Y-96108600D02*
G75*
G03X191846100Y-96108600I-635000J0D01*
G01*
D12*
X192100100Y-96108600D02*
G75*
G03X192100100Y-96108600I-889000J0D01*
G01*
D13*
X191211100Y-96108600D02*
X188671100Y-96108600D01*
D11*
X196926100Y-96108600D02*
G75*
G03X196926100Y-96108600I-635000J0D01*
G01*
D12*
X197180100Y-96108600D02*
G75*
G03X197180100Y-96108600I-889000J0D01*
G01*
D13*
X196291100Y-96108600D02*
X193751100Y-96108600D01*
D14*
X134315100Y-109697600D02*
G75*
G03X134315100Y-109697600I-635000J0D01*
G01*
D12*
X99771100Y-105887600D02*
X99771100Y-105506600D01*
X99771100Y-107030600D02*
X99771100Y-106649600D01*
D10*
G36*
X124866300Y-113583800D02*
G01*
X124866300Y-114193400D01*
X125475900Y-114193400D01*
X125475900Y-113583800D01*
X124866300Y-113583800D01*
G37*
G36*
X127406300Y-113583800D02*
G01*
X127406300Y-114193400D01*
X128015900Y-114193400D01*
X128015900Y-113583800D01*
X127406300Y-113583800D01*
G37*
G36*
X150875900Y-93873400D02*
G01*
X150875900Y-93263800D01*
X150266300Y-93263800D01*
X150266300Y-93873400D01*
X150875900Y-93873400D01*
G37*
G36*
X148335900Y-93873400D02*
G01*
X148335900Y-93263800D01*
X147726300Y-93263800D01*
X147726300Y-93873400D01*
X148335900Y-93873400D01*
G37*
G36*
X176987100Y-93822600D02*
G01*
X177495100Y-93822600D01*
X177495100Y-93314600D01*
X176987100Y-93314600D01*
X176987100Y-93822600D01*
G37*
G36*
X171907100Y-93822600D02*
G01*
X172415100Y-93822600D01*
X172415100Y-93314600D01*
X171907100Y-93314600D01*
X171907100Y-93822600D01*
G37*
G36*
X174447100Y-93822600D02*
G01*
X174955100Y-93822600D01*
X174955100Y-93314600D01*
X174447100Y-93314600D01*
X174447100Y-93822600D01*
G37*
G36*
X169367100Y-93822600D02*
G01*
X169875100Y-93822600D01*
X169875100Y-93314600D01*
X169367100Y-93314600D01*
X169367100Y-93822600D01*
G37*
G36*
X164287100Y-93822600D02*
G01*
X164795100Y-93822600D01*
X164795100Y-93314600D01*
X164287100Y-93314600D01*
X164287100Y-93822600D01*
G37*
G36*
X166827100Y-93822600D02*
G01*
X167335100Y-93822600D01*
X167335100Y-93314600D01*
X166827100Y-93314600D01*
X166827100Y-93822600D01*
G37*
D11*
X168986100Y-96108600D02*
G75*
G03X168986100Y-96108600I-635000J0D01*
G01*
D12*
X169240100Y-96108600D02*
G75*
G03X169240100Y-96108600I-889000J0D01*
G01*
D13*
X168351100Y-96108600D02*
X165811100Y-96108600D01*
D11*
X174066100Y-96108600D02*
G75*
G03X174066100Y-96108600I-635000J0D01*
G01*
D12*
X174320100Y-96108600D02*
G75*
G03X174320100Y-96108600I-889000J0D01*
G01*
D13*
X173431100Y-96108600D02*
X170891100Y-96108600D01*
D11*
X179146100Y-96108600D02*
G75*
G03X179146100Y-96108600I-635000J0D01*
G01*
D12*
X179400100Y-96108600D02*
G75*
G03X179400100Y-96108600I-889000J0D01*
G01*
D13*
X178511100Y-96108600D02*
X175971100Y-96108600D01*
D10*
G36*
X144525900Y-93873400D02*
G01*
X144525900Y-93263800D01*
X143916300Y-93263800D01*
X143916300Y-93873400D01*
X144525900Y-93873400D01*
G37*
G36*
X141985900Y-93873400D02*
G01*
X141985900Y-93263800D01*
X141376300Y-93263800D01*
X141376300Y-93873400D01*
X141985900Y-93873400D01*
G37*
D12*
X137871100Y-110967600D02*
X137871100Y-110586600D01*
X137871100Y-112110600D02*
X137871100Y-111729600D01*
D10*
G36*
X193446300Y-108503800D02*
G01*
X193446300Y-109113400D01*
X194055900Y-109113400D01*
X194055900Y-108503800D01*
X193446300Y-108503800D01*
G37*
G36*
X193446300Y-105963800D02*
G01*
X193446300Y-106573400D01*
X194055900Y-106573400D01*
X194055900Y-105963800D01*
X193446300Y-105963800D01*
G37*
G36*
X193446300Y-103423800D02*
G01*
X193446300Y-104033400D01*
X194055900Y-104033400D01*
X194055900Y-103423800D01*
X193446300Y-103423800D01*
G37*
G36*
X197256300Y-108503800D02*
G01*
X197256300Y-109113400D01*
X197865900Y-109113400D01*
X197865900Y-108503800D01*
X197256300Y-108503800D01*
G37*
G36*
X197256300Y-105963800D02*
G01*
X197256300Y-106573400D01*
X197865900Y-106573400D01*
X197865900Y-105963800D01*
X197256300Y-105963800D01*
G37*
G36*
X197256300Y-103423800D02*
G01*
X197256300Y-104033400D01*
X197865900Y-104033400D01*
X197865900Y-103423800D01*
X197256300Y-103423800D01*
G37*
G36*
X197256300Y-114193400D02*
G01*
X197865900Y-114193400D01*
X197865900Y-113583800D01*
X197256300Y-113583800D01*
X197256300Y-114193400D01*
G37*
G36*
X194716300Y-114193400D02*
G01*
X195325900Y-114193400D01*
X195325900Y-113583800D01*
X194716300Y-113583800D01*
X194716300Y-114193400D01*
G37*
G36*
X192176300Y-114193400D02*
G01*
X192785900Y-114193400D01*
X192785900Y-113583800D01*
X192176300Y-113583800D01*
X192176300Y-114193400D01*
G37*
D15*
D16*
D15*
D16*
D15*
D17*
D15*
X103958879Y-108179647D02*
X104763212Y-108179647D01*
X104246141Y-109386147D01*
X105739903Y-108581814D02*
X105739903Y-109386147D01*
X105452641Y-108122195D02*
X105165379Y-108983980D01*
X105912260Y-108983980D01*
X106371879Y-109386147D02*
X106371879Y-108179647D01*
X106371879Y-108754171D02*
X107061308Y-108754171D01*
X107061308Y-109386147D02*
X107061308Y-108179647D01*
X108325260Y-109271242D02*
X108267808Y-109328695D01*
X108095451Y-109386147D01*
X107980546Y-109386147D01*
X107808189Y-109328695D01*
X107693284Y-109213790D01*
X107635832Y-109098885D01*
X107578379Y-108869076D01*
X107578379Y-108696719D01*
X107635832Y-108466909D01*
X107693284Y-108352004D01*
X107808189Y-108237100D01*
X107980546Y-108179647D01*
X108095451Y-108179647D01*
X108267808Y-108237100D01*
X108325260Y-108294552D01*
X108669974Y-108179647D02*
X109359403Y-108179647D01*
X109014689Y-109386147D02*
X109014689Y-108179647D01*
X110393546Y-109386147D02*
X109704117Y-109386147D01*
X110048832Y-109386147D02*
X110048832Y-108179647D01*
X109933927Y-108352004D01*
X109819022Y-108466909D01*
X109704117Y-108524361D01*
X110795712Y-108179647D02*
X111542593Y-108179647D01*
X111140427Y-108639266D01*
X111312784Y-108639266D01*
X111427689Y-108696719D01*
X111485141Y-108754171D01*
X111542593Y-108869076D01*
X111542593Y-109156338D01*
X111485141Y-109271242D01*
X111427689Y-109328695D01*
X111312784Y-109386147D01*
X110968070Y-109386147D01*
X110853165Y-109328695D01*
X110795712Y-109271242D01*
X112232022Y-108696719D02*
X112117117Y-108639266D01*
X112059665Y-108581814D01*
X112002212Y-108466909D01*
X112002212Y-108409457D01*
X112059665Y-108294552D01*
X112117117Y-108237100D01*
X112232022Y-108179647D01*
X112461832Y-108179647D01*
X112576736Y-108237100D01*
X112634189Y-108294552D01*
X112691641Y-108409457D01*
X112691641Y-108466909D01*
X112634189Y-108581814D01*
X112576736Y-108639266D01*
X112461832Y-108696719D01*
X112232022Y-108696719D01*
X112117117Y-108754171D01*
X112059665Y-108811623D01*
X112002212Y-108926528D01*
X112002212Y-109156338D01*
X112059665Y-109271242D01*
X112117117Y-109328695D01*
X112232022Y-109386147D01*
X112461832Y-109386147D01*
X112576736Y-109328695D01*
X112634189Y-109271242D01*
X112691641Y-109156338D01*
X112691641Y-108926528D01*
X112634189Y-108811623D01*
X112576736Y-108754171D01*
X112461832Y-108696719D01*
X113208712Y-109386147D02*
X113208712Y-108179647D01*
X113898141Y-109386147D01*
X113898141Y-108179647D01*
M02*
