G04 #@! TF.GenerationSoftware,KiCad,Pcbnew,5.1.2*
G04 #@! TF.CreationDate,2020-10-20T13:32:52+02:00*
G04 #@! TF.ProjectId,eaa651fdd346d6544176813de3c28a36,65616136-3531-4666-9464-333436643635,rev?*
G04 #@! TF.SameCoordinates,Original*
G04 #@! TF.FileFunction,Soldermask,Top*
G04 #@! TF.FilePolarity,Negative*
%FSLAX46Y46*%
G04 Gerber Fmt 4.6, Leading zero omitted, Abs format (unit mm)*
G04 Created by KiCad (PCBNEW 5.1.2) date 2020-10-20 13:32:52*
%MOMM*%
%LPD*%
G04 APERTURE LIST*
%ADD10C,0.100000*%
G04 APERTURE END LIST*
D10*
G36*
X182676700Y-103652400D02*
G01*
X182676700Y-103804800D01*
X184505500Y-103804800D01*
X184505500Y-103652400D01*
X182676700Y-103652400D01*
G37*
G36*
X177410394Y-117355496D02*
G01*
X177530826Y-117392029D01*
X177573187Y-117404879D01*
X177723207Y-117485066D01*
X177723210Y-117485068D01*
X177723211Y-117485069D01*
X177854712Y-117592988D01*
X177962631Y-117724488D01*
X177962633Y-117724492D01*
X177962634Y-117724493D01*
X178042821Y-117874513D01*
X178042822Y-117874516D01*
X178092204Y-118037305D01*
X178104700Y-118164180D01*
X178104700Y-119773020D01*
X178092204Y-119899895D01*
X178042822Y-120062684D01*
X178042821Y-120062687D01*
X177962634Y-120212707D01*
X177962631Y-120212712D01*
X177854712Y-120344212D01*
X177723212Y-120452131D01*
X177723208Y-120452133D01*
X177723207Y-120452134D01*
X177573187Y-120532321D01*
X177573184Y-120532322D01*
X177410395Y-120581704D01*
X177241100Y-120598378D01*
X177071806Y-120581704D01*
X176909017Y-120532322D01*
X176909014Y-120532321D01*
X176758994Y-120452134D01*
X176758993Y-120452133D01*
X176758989Y-120452131D01*
X176627489Y-120344212D01*
X176519570Y-120212712D01*
X176519567Y-120212707D01*
X176439380Y-120062687D01*
X176439379Y-120062684D01*
X176389997Y-119899895D01*
X176377501Y-119773020D01*
X176377500Y-118164181D01*
X176389996Y-118037306D01*
X176439378Y-117874517D01*
X176439379Y-117874513D01*
X176519566Y-117724493D01*
X176519570Y-117724488D01*
X176627488Y-117592988D01*
X176758988Y-117485069D01*
X176758992Y-117485067D01*
X176758993Y-117485066D01*
X176909013Y-117404879D01*
X176909016Y-117404878D01*
X177071805Y-117355496D01*
X177241100Y-117338822D01*
X177410394Y-117355496D01*
X177410394Y-117355496D01*
G37*
G36*
X154550394Y-117355496D02*
G01*
X154670826Y-117392029D01*
X154713187Y-117404879D01*
X154863207Y-117485066D01*
X154863210Y-117485068D01*
X154863211Y-117485069D01*
X154994712Y-117592988D01*
X155102631Y-117724488D01*
X155102633Y-117724492D01*
X155102634Y-117724493D01*
X155182821Y-117874513D01*
X155182822Y-117874516D01*
X155232204Y-118037305D01*
X155244700Y-118164180D01*
X155244700Y-119773020D01*
X155232204Y-119899895D01*
X155182822Y-120062684D01*
X155182821Y-120062687D01*
X155102634Y-120212707D01*
X155102631Y-120212712D01*
X154994712Y-120344212D01*
X154863212Y-120452131D01*
X154863208Y-120452133D01*
X154863207Y-120452134D01*
X154713187Y-120532321D01*
X154713184Y-120532322D01*
X154550395Y-120581704D01*
X154381100Y-120598378D01*
X154211806Y-120581704D01*
X154049017Y-120532322D01*
X154049014Y-120532321D01*
X153898994Y-120452134D01*
X153898993Y-120452133D01*
X153898989Y-120452131D01*
X153767489Y-120344212D01*
X153659570Y-120212712D01*
X153659567Y-120212707D01*
X153579380Y-120062687D01*
X153579379Y-120062684D01*
X153529997Y-119899895D01*
X153517501Y-119773020D01*
X153517500Y-118164181D01*
X153529996Y-118037306D01*
X153579378Y-117874517D01*
X153579379Y-117874513D01*
X153659566Y-117724493D01*
X153659570Y-117724488D01*
X153767488Y-117592988D01*
X153898988Y-117485069D01*
X153898992Y-117485067D01*
X153898993Y-117485066D01*
X154049013Y-117404879D01*
X154049016Y-117404878D01*
X154211805Y-117355496D01*
X154381100Y-117338822D01*
X154550394Y-117355496D01*
X154550394Y-117355496D01*
G37*
G36*
X152010394Y-117355496D02*
G01*
X152130826Y-117392029D01*
X152173187Y-117404879D01*
X152323207Y-117485066D01*
X152323210Y-117485068D01*
X152323211Y-117485069D01*
X152454712Y-117592988D01*
X152562631Y-117724488D01*
X152562633Y-117724492D01*
X152562634Y-117724493D01*
X152642821Y-117874513D01*
X152642822Y-117874516D01*
X152692204Y-118037305D01*
X152704700Y-118164180D01*
X152704700Y-119773020D01*
X152692204Y-119899895D01*
X152642822Y-120062684D01*
X152642821Y-120062687D01*
X152562634Y-120212707D01*
X152562631Y-120212712D01*
X152454712Y-120344212D01*
X152323212Y-120452131D01*
X152323208Y-120452133D01*
X152323207Y-120452134D01*
X152173187Y-120532321D01*
X152173184Y-120532322D01*
X152010395Y-120581704D01*
X151841100Y-120598378D01*
X151671806Y-120581704D01*
X151509017Y-120532322D01*
X151509014Y-120532321D01*
X151358994Y-120452134D01*
X151358993Y-120452133D01*
X151358989Y-120452131D01*
X151227489Y-120344212D01*
X151119570Y-120212712D01*
X151119567Y-120212707D01*
X151039380Y-120062687D01*
X151039379Y-120062684D01*
X150989997Y-119899895D01*
X150977501Y-119773020D01*
X150977500Y-118164181D01*
X150989996Y-118037306D01*
X151039378Y-117874517D01*
X151039379Y-117874513D01*
X151119566Y-117724493D01*
X151119570Y-117724488D01*
X151227488Y-117592988D01*
X151358988Y-117485069D01*
X151358992Y-117485067D01*
X151358993Y-117485066D01*
X151509013Y-117404879D01*
X151509016Y-117404878D01*
X151671805Y-117355496D01*
X151841100Y-117338822D01*
X152010394Y-117355496D01*
X152010394Y-117355496D01*
G37*
G36*
X149470394Y-117355496D02*
G01*
X149590826Y-117392029D01*
X149633187Y-117404879D01*
X149783207Y-117485066D01*
X149783210Y-117485068D01*
X149783211Y-117485069D01*
X149914712Y-117592988D01*
X150022631Y-117724488D01*
X150022633Y-117724492D01*
X150022634Y-117724493D01*
X150102821Y-117874513D01*
X150102822Y-117874516D01*
X150152204Y-118037305D01*
X150164700Y-118164180D01*
X150164700Y-119773020D01*
X150152204Y-119899895D01*
X150102822Y-120062684D01*
X150102821Y-120062687D01*
X150022634Y-120212707D01*
X150022631Y-120212712D01*
X149914712Y-120344212D01*
X149783212Y-120452131D01*
X149783208Y-120452133D01*
X149783207Y-120452134D01*
X149633187Y-120532321D01*
X149633184Y-120532322D01*
X149470395Y-120581704D01*
X149301100Y-120598378D01*
X149131806Y-120581704D01*
X148969017Y-120532322D01*
X148969014Y-120532321D01*
X148818994Y-120452134D01*
X148818993Y-120452133D01*
X148818989Y-120452131D01*
X148687489Y-120344212D01*
X148579570Y-120212712D01*
X148579567Y-120212707D01*
X148499380Y-120062687D01*
X148499379Y-120062684D01*
X148449997Y-119899895D01*
X148437501Y-119773020D01*
X148437500Y-118164181D01*
X148449996Y-118037306D01*
X148499378Y-117874517D01*
X148499379Y-117874513D01*
X148579566Y-117724493D01*
X148579570Y-117724488D01*
X148687488Y-117592988D01*
X148818988Y-117485069D01*
X148818992Y-117485067D01*
X148818993Y-117485066D01*
X148969013Y-117404879D01*
X148969016Y-117404878D01*
X149131805Y-117355496D01*
X149301100Y-117338822D01*
X149470394Y-117355496D01*
X149470394Y-117355496D01*
G37*
G36*
X157090394Y-117355496D02*
G01*
X157210826Y-117392029D01*
X157253187Y-117404879D01*
X157403207Y-117485066D01*
X157403210Y-117485068D01*
X157403211Y-117485069D01*
X157534712Y-117592988D01*
X157642631Y-117724488D01*
X157642633Y-117724492D01*
X157642634Y-117724493D01*
X157722821Y-117874513D01*
X157722822Y-117874516D01*
X157772204Y-118037305D01*
X157784700Y-118164180D01*
X157784700Y-119773020D01*
X157772204Y-119899895D01*
X157722822Y-120062684D01*
X157722821Y-120062687D01*
X157642634Y-120212707D01*
X157642631Y-120212712D01*
X157534712Y-120344212D01*
X157403212Y-120452131D01*
X157403208Y-120452133D01*
X157403207Y-120452134D01*
X157253187Y-120532321D01*
X157253184Y-120532322D01*
X157090395Y-120581704D01*
X156921100Y-120598378D01*
X156751806Y-120581704D01*
X156589017Y-120532322D01*
X156589014Y-120532321D01*
X156438994Y-120452134D01*
X156438993Y-120452133D01*
X156438989Y-120452131D01*
X156307489Y-120344212D01*
X156199570Y-120212712D01*
X156199567Y-120212707D01*
X156119380Y-120062687D01*
X156119379Y-120062684D01*
X156069997Y-119899895D01*
X156057501Y-119773020D01*
X156057500Y-118164181D01*
X156069996Y-118037306D01*
X156119378Y-117874517D01*
X156119379Y-117874513D01*
X156199566Y-117724493D01*
X156199570Y-117724488D01*
X156307488Y-117592988D01*
X156438988Y-117485069D01*
X156438992Y-117485067D01*
X156438993Y-117485066D01*
X156589013Y-117404879D01*
X156589016Y-117404878D01*
X156751805Y-117355496D01*
X156921100Y-117338822D01*
X157090394Y-117355496D01*
X157090394Y-117355496D01*
G37*
G36*
X159630394Y-117355496D02*
G01*
X159750826Y-117392029D01*
X159793187Y-117404879D01*
X159943207Y-117485066D01*
X159943210Y-117485068D01*
X159943211Y-117485069D01*
X160074712Y-117592988D01*
X160182631Y-117724488D01*
X160182633Y-117724492D01*
X160182634Y-117724493D01*
X160262821Y-117874513D01*
X160262822Y-117874516D01*
X160312204Y-118037305D01*
X160324700Y-118164180D01*
X160324700Y-119773020D01*
X160312204Y-119899895D01*
X160262822Y-120062684D01*
X160262821Y-120062687D01*
X160182634Y-120212707D01*
X160182631Y-120212712D01*
X160074712Y-120344212D01*
X159943212Y-120452131D01*
X159943208Y-120452133D01*
X159943207Y-120452134D01*
X159793187Y-120532321D01*
X159793184Y-120532322D01*
X159630395Y-120581704D01*
X159461100Y-120598378D01*
X159291806Y-120581704D01*
X159129017Y-120532322D01*
X159129014Y-120532321D01*
X158978994Y-120452134D01*
X158978993Y-120452133D01*
X158978989Y-120452131D01*
X158847489Y-120344212D01*
X158739570Y-120212712D01*
X158739567Y-120212707D01*
X158659380Y-120062687D01*
X158659379Y-120062684D01*
X158609997Y-119899895D01*
X158597501Y-119773020D01*
X158597500Y-118164181D01*
X158609996Y-118037306D01*
X158659378Y-117874517D01*
X158659379Y-117874513D01*
X158739566Y-117724493D01*
X158739570Y-117724488D01*
X158847488Y-117592988D01*
X158978988Y-117485069D01*
X158978992Y-117485067D01*
X158978993Y-117485066D01*
X159129013Y-117404879D01*
X159129016Y-117404878D01*
X159291805Y-117355496D01*
X159461100Y-117338822D01*
X159630394Y-117355496D01*
X159630394Y-117355496D01*
G37*
G36*
X162170394Y-117355496D02*
G01*
X162290826Y-117392029D01*
X162333187Y-117404879D01*
X162483207Y-117485066D01*
X162483210Y-117485068D01*
X162483211Y-117485069D01*
X162614712Y-117592988D01*
X162722631Y-117724488D01*
X162722633Y-117724492D01*
X162722634Y-117724493D01*
X162802821Y-117874513D01*
X162802822Y-117874516D01*
X162852204Y-118037305D01*
X162864700Y-118164180D01*
X162864700Y-119773020D01*
X162852204Y-119899895D01*
X162802822Y-120062684D01*
X162802821Y-120062687D01*
X162722634Y-120212707D01*
X162722631Y-120212712D01*
X162614712Y-120344212D01*
X162483212Y-120452131D01*
X162483208Y-120452133D01*
X162483207Y-120452134D01*
X162333187Y-120532321D01*
X162333184Y-120532322D01*
X162170395Y-120581704D01*
X162001100Y-120598378D01*
X161831806Y-120581704D01*
X161669017Y-120532322D01*
X161669014Y-120532321D01*
X161518994Y-120452134D01*
X161518993Y-120452133D01*
X161518989Y-120452131D01*
X161387489Y-120344212D01*
X161279570Y-120212712D01*
X161279567Y-120212707D01*
X161199380Y-120062687D01*
X161199379Y-120062684D01*
X161149997Y-119899895D01*
X161137501Y-119773020D01*
X161137500Y-118164181D01*
X161149996Y-118037306D01*
X161199378Y-117874517D01*
X161199379Y-117874513D01*
X161279566Y-117724493D01*
X161279570Y-117724488D01*
X161387488Y-117592988D01*
X161518988Y-117485069D01*
X161518992Y-117485067D01*
X161518993Y-117485066D01*
X161669013Y-117404879D01*
X161669016Y-117404878D01*
X161831805Y-117355496D01*
X162001100Y-117338822D01*
X162170394Y-117355496D01*
X162170394Y-117355496D01*
G37*
G36*
X164710394Y-117355496D02*
G01*
X164830826Y-117392029D01*
X164873187Y-117404879D01*
X165023207Y-117485066D01*
X165023210Y-117485068D01*
X165023211Y-117485069D01*
X165154712Y-117592988D01*
X165262631Y-117724488D01*
X165262633Y-117724492D01*
X165262634Y-117724493D01*
X165342821Y-117874513D01*
X165342822Y-117874516D01*
X165392204Y-118037305D01*
X165404700Y-118164180D01*
X165404700Y-119773020D01*
X165392204Y-119899895D01*
X165342822Y-120062684D01*
X165342821Y-120062687D01*
X165262634Y-120212707D01*
X165262631Y-120212712D01*
X165154712Y-120344212D01*
X165023212Y-120452131D01*
X165023208Y-120452133D01*
X165023207Y-120452134D01*
X164873187Y-120532321D01*
X164873184Y-120532322D01*
X164710395Y-120581704D01*
X164541100Y-120598378D01*
X164371806Y-120581704D01*
X164209017Y-120532322D01*
X164209014Y-120532321D01*
X164058994Y-120452134D01*
X164058993Y-120452133D01*
X164058989Y-120452131D01*
X163927489Y-120344212D01*
X163819570Y-120212712D01*
X163819567Y-120212707D01*
X163739380Y-120062687D01*
X163739379Y-120062684D01*
X163689997Y-119899895D01*
X163677501Y-119773020D01*
X163677500Y-118164181D01*
X163689996Y-118037306D01*
X163739378Y-117874517D01*
X163739379Y-117874513D01*
X163819566Y-117724493D01*
X163819570Y-117724488D01*
X163927488Y-117592988D01*
X164058988Y-117485069D01*
X164058992Y-117485067D01*
X164058993Y-117485066D01*
X164209013Y-117404879D01*
X164209016Y-117404878D01*
X164371805Y-117355496D01*
X164541100Y-117338822D01*
X164710394Y-117355496D01*
X164710394Y-117355496D01*
G37*
G36*
X167250394Y-117355496D02*
G01*
X167370826Y-117392029D01*
X167413187Y-117404879D01*
X167563207Y-117485066D01*
X167563210Y-117485068D01*
X167563211Y-117485069D01*
X167694712Y-117592988D01*
X167802631Y-117724488D01*
X167802633Y-117724492D01*
X167802634Y-117724493D01*
X167882821Y-117874513D01*
X167882822Y-117874516D01*
X167932204Y-118037305D01*
X167944700Y-118164180D01*
X167944700Y-119773020D01*
X167932204Y-119899895D01*
X167882822Y-120062684D01*
X167882821Y-120062687D01*
X167802634Y-120212707D01*
X167802631Y-120212712D01*
X167694712Y-120344212D01*
X167563212Y-120452131D01*
X167563208Y-120452133D01*
X167563207Y-120452134D01*
X167413187Y-120532321D01*
X167413184Y-120532322D01*
X167250395Y-120581704D01*
X167081100Y-120598378D01*
X166911806Y-120581704D01*
X166749017Y-120532322D01*
X166749014Y-120532321D01*
X166598994Y-120452134D01*
X166598993Y-120452133D01*
X166598989Y-120452131D01*
X166467489Y-120344212D01*
X166359570Y-120212712D01*
X166359567Y-120212707D01*
X166279380Y-120062687D01*
X166279379Y-120062684D01*
X166229997Y-119899895D01*
X166217501Y-119773020D01*
X166217500Y-118164181D01*
X166229996Y-118037306D01*
X166279378Y-117874517D01*
X166279379Y-117874513D01*
X166359566Y-117724493D01*
X166359570Y-117724488D01*
X166467488Y-117592988D01*
X166598988Y-117485069D01*
X166598992Y-117485067D01*
X166598993Y-117485066D01*
X166749013Y-117404879D01*
X166749016Y-117404878D01*
X166911805Y-117355496D01*
X167081100Y-117338822D01*
X167250394Y-117355496D01*
X167250394Y-117355496D01*
G37*
G36*
X169790394Y-117355496D02*
G01*
X169910826Y-117392029D01*
X169953187Y-117404879D01*
X170103207Y-117485066D01*
X170103210Y-117485068D01*
X170103211Y-117485069D01*
X170234712Y-117592988D01*
X170342631Y-117724488D01*
X170342633Y-117724492D01*
X170342634Y-117724493D01*
X170422821Y-117874513D01*
X170422822Y-117874516D01*
X170472204Y-118037305D01*
X170484700Y-118164180D01*
X170484700Y-119773020D01*
X170472204Y-119899895D01*
X170422822Y-120062684D01*
X170422821Y-120062687D01*
X170342634Y-120212707D01*
X170342631Y-120212712D01*
X170234712Y-120344212D01*
X170103212Y-120452131D01*
X170103208Y-120452133D01*
X170103207Y-120452134D01*
X169953187Y-120532321D01*
X169953184Y-120532322D01*
X169790395Y-120581704D01*
X169621100Y-120598378D01*
X169451806Y-120581704D01*
X169289017Y-120532322D01*
X169289014Y-120532321D01*
X169138994Y-120452134D01*
X169138993Y-120452133D01*
X169138989Y-120452131D01*
X169007489Y-120344212D01*
X168899570Y-120212712D01*
X168899567Y-120212707D01*
X168819380Y-120062687D01*
X168819379Y-120062684D01*
X168769997Y-119899895D01*
X168757501Y-119773020D01*
X168757500Y-118164181D01*
X168769996Y-118037306D01*
X168819378Y-117874517D01*
X168819379Y-117874513D01*
X168899566Y-117724493D01*
X168899570Y-117724488D01*
X169007488Y-117592988D01*
X169138988Y-117485069D01*
X169138992Y-117485067D01*
X169138993Y-117485066D01*
X169289013Y-117404879D01*
X169289016Y-117404878D01*
X169451805Y-117355496D01*
X169621100Y-117338822D01*
X169790394Y-117355496D01*
X169790394Y-117355496D01*
G37*
G36*
X172330394Y-117355496D02*
G01*
X172450826Y-117392029D01*
X172493187Y-117404879D01*
X172643207Y-117485066D01*
X172643210Y-117485068D01*
X172643211Y-117485069D01*
X172774712Y-117592988D01*
X172882631Y-117724488D01*
X172882633Y-117724492D01*
X172882634Y-117724493D01*
X172962821Y-117874513D01*
X172962822Y-117874516D01*
X173012204Y-118037305D01*
X173024700Y-118164180D01*
X173024700Y-119773020D01*
X173012204Y-119899895D01*
X172962822Y-120062684D01*
X172962821Y-120062687D01*
X172882634Y-120212707D01*
X172882631Y-120212712D01*
X172774712Y-120344212D01*
X172643212Y-120452131D01*
X172643208Y-120452133D01*
X172643207Y-120452134D01*
X172493187Y-120532321D01*
X172493184Y-120532322D01*
X172330395Y-120581704D01*
X172161100Y-120598378D01*
X171991806Y-120581704D01*
X171829017Y-120532322D01*
X171829014Y-120532321D01*
X171678994Y-120452134D01*
X171678993Y-120452133D01*
X171678989Y-120452131D01*
X171547489Y-120344212D01*
X171439570Y-120212712D01*
X171439567Y-120212707D01*
X171359380Y-120062687D01*
X171359379Y-120062684D01*
X171309997Y-119899895D01*
X171297501Y-119773020D01*
X171297500Y-118164181D01*
X171309996Y-118037306D01*
X171359378Y-117874517D01*
X171359379Y-117874513D01*
X171439566Y-117724493D01*
X171439570Y-117724488D01*
X171547488Y-117592988D01*
X171678988Y-117485069D01*
X171678992Y-117485067D01*
X171678993Y-117485066D01*
X171829013Y-117404879D01*
X171829016Y-117404878D01*
X171991805Y-117355496D01*
X172161100Y-117338822D01*
X172330394Y-117355496D01*
X172330394Y-117355496D01*
G37*
G36*
X98670394Y-117355496D02*
G01*
X98790826Y-117392029D01*
X98833187Y-117404879D01*
X98983207Y-117485066D01*
X98983210Y-117485068D01*
X98983211Y-117485069D01*
X99114712Y-117592988D01*
X99222631Y-117724488D01*
X99222633Y-117724492D01*
X99222634Y-117724493D01*
X99302821Y-117874513D01*
X99302822Y-117874516D01*
X99352204Y-118037305D01*
X99364700Y-118164180D01*
X99364700Y-119773020D01*
X99352204Y-119899895D01*
X99302822Y-120062684D01*
X99302821Y-120062687D01*
X99222634Y-120212707D01*
X99222631Y-120212712D01*
X99114712Y-120344212D01*
X98983212Y-120452131D01*
X98983208Y-120452133D01*
X98983207Y-120452134D01*
X98833187Y-120532321D01*
X98833184Y-120532322D01*
X98670395Y-120581704D01*
X98501100Y-120598378D01*
X98331806Y-120581704D01*
X98169017Y-120532322D01*
X98169014Y-120532321D01*
X98018994Y-120452134D01*
X98018993Y-120452133D01*
X98018989Y-120452131D01*
X97887489Y-120344212D01*
X97779570Y-120212712D01*
X97779567Y-120212707D01*
X97699380Y-120062687D01*
X97699379Y-120062684D01*
X97649997Y-119899895D01*
X97637501Y-119773020D01*
X97637500Y-118164181D01*
X97649996Y-118037306D01*
X97699378Y-117874517D01*
X97699379Y-117874513D01*
X97779566Y-117724493D01*
X97779570Y-117724488D01*
X97887488Y-117592988D01*
X98018988Y-117485069D01*
X98018992Y-117485067D01*
X98018993Y-117485066D01*
X98169013Y-117404879D01*
X98169016Y-117404878D01*
X98331805Y-117355496D01*
X98501100Y-117338822D01*
X98670394Y-117355496D01*
X98670394Y-117355496D01*
G37*
G36*
X179950394Y-117355496D02*
G01*
X180070826Y-117392029D01*
X180113187Y-117404879D01*
X180263207Y-117485066D01*
X180263210Y-117485068D01*
X180263211Y-117485069D01*
X180394712Y-117592988D01*
X180502631Y-117724488D01*
X180502633Y-117724492D01*
X180502634Y-117724493D01*
X180582821Y-117874513D01*
X180582822Y-117874516D01*
X180632204Y-118037305D01*
X180644700Y-118164180D01*
X180644700Y-119773020D01*
X180632204Y-119899895D01*
X180582822Y-120062684D01*
X180582821Y-120062687D01*
X180502634Y-120212707D01*
X180502631Y-120212712D01*
X180394712Y-120344212D01*
X180263212Y-120452131D01*
X180263208Y-120452133D01*
X180263207Y-120452134D01*
X180113187Y-120532321D01*
X180113184Y-120532322D01*
X179950395Y-120581704D01*
X179781100Y-120598378D01*
X179611806Y-120581704D01*
X179449017Y-120532322D01*
X179449014Y-120532321D01*
X179298994Y-120452134D01*
X179298993Y-120452133D01*
X179298989Y-120452131D01*
X179167489Y-120344212D01*
X179059570Y-120212712D01*
X179059567Y-120212707D01*
X178979380Y-120062687D01*
X178979379Y-120062684D01*
X178929997Y-119899895D01*
X178917501Y-119773020D01*
X178917500Y-118164181D01*
X178929996Y-118037306D01*
X178979378Y-117874517D01*
X178979379Y-117874513D01*
X179059566Y-117724493D01*
X179059570Y-117724488D01*
X179167488Y-117592988D01*
X179298988Y-117485069D01*
X179298992Y-117485067D01*
X179298993Y-117485066D01*
X179449013Y-117404879D01*
X179449016Y-117404878D01*
X179611805Y-117355496D01*
X179781100Y-117338822D01*
X179950394Y-117355496D01*
X179950394Y-117355496D01*
G37*
G36*
X182490394Y-117355496D02*
G01*
X182610826Y-117392029D01*
X182653187Y-117404879D01*
X182803207Y-117485066D01*
X182803210Y-117485068D01*
X182803211Y-117485069D01*
X182934712Y-117592988D01*
X183042631Y-117724488D01*
X183042633Y-117724492D01*
X183042634Y-117724493D01*
X183122821Y-117874513D01*
X183122822Y-117874516D01*
X183172204Y-118037305D01*
X183184700Y-118164180D01*
X183184700Y-119773020D01*
X183172204Y-119899895D01*
X183122822Y-120062684D01*
X183122821Y-120062687D01*
X183042634Y-120212707D01*
X183042631Y-120212712D01*
X182934712Y-120344212D01*
X182803212Y-120452131D01*
X182803208Y-120452133D01*
X182803207Y-120452134D01*
X182653187Y-120532321D01*
X182653184Y-120532322D01*
X182490395Y-120581704D01*
X182321100Y-120598378D01*
X182151806Y-120581704D01*
X181989017Y-120532322D01*
X181989014Y-120532321D01*
X181838994Y-120452134D01*
X181838993Y-120452133D01*
X181838989Y-120452131D01*
X181707489Y-120344212D01*
X181599570Y-120212712D01*
X181599567Y-120212707D01*
X181519380Y-120062687D01*
X181519379Y-120062684D01*
X181469997Y-119899895D01*
X181457501Y-119773020D01*
X181457500Y-118164181D01*
X181469996Y-118037306D01*
X181519378Y-117874517D01*
X181519379Y-117874513D01*
X181599566Y-117724493D01*
X181599570Y-117724488D01*
X181707488Y-117592988D01*
X181838988Y-117485069D01*
X181838992Y-117485067D01*
X181838993Y-117485066D01*
X181989013Y-117404879D01*
X181989016Y-117404878D01*
X182151805Y-117355496D01*
X182321100Y-117338822D01*
X182490394Y-117355496D01*
X182490394Y-117355496D01*
G37*
G36*
X185030394Y-117355496D02*
G01*
X185150826Y-117392029D01*
X185193187Y-117404879D01*
X185343207Y-117485066D01*
X185343210Y-117485068D01*
X185343211Y-117485069D01*
X185474712Y-117592988D01*
X185582631Y-117724488D01*
X185582633Y-117724492D01*
X185582634Y-117724493D01*
X185662821Y-117874513D01*
X185662822Y-117874516D01*
X185712204Y-118037305D01*
X185724700Y-118164180D01*
X185724700Y-119773020D01*
X185712204Y-119899895D01*
X185662822Y-120062684D01*
X185662821Y-120062687D01*
X185582634Y-120212707D01*
X185582631Y-120212712D01*
X185474712Y-120344212D01*
X185343212Y-120452131D01*
X185343208Y-120452133D01*
X185343207Y-120452134D01*
X185193187Y-120532321D01*
X185193184Y-120532322D01*
X185030395Y-120581704D01*
X184861100Y-120598378D01*
X184691806Y-120581704D01*
X184529017Y-120532322D01*
X184529014Y-120532321D01*
X184378994Y-120452134D01*
X184378993Y-120452133D01*
X184378989Y-120452131D01*
X184247489Y-120344212D01*
X184139570Y-120212712D01*
X184139567Y-120212707D01*
X184059380Y-120062687D01*
X184059379Y-120062684D01*
X184009997Y-119899895D01*
X183997501Y-119773020D01*
X183997500Y-118164181D01*
X184009996Y-118037306D01*
X184059378Y-117874517D01*
X184059379Y-117874513D01*
X184139566Y-117724493D01*
X184139570Y-117724488D01*
X184247488Y-117592988D01*
X184378988Y-117485069D01*
X184378992Y-117485067D01*
X184378993Y-117485066D01*
X184529013Y-117404879D01*
X184529016Y-117404878D01*
X184691805Y-117355496D01*
X184861100Y-117338822D01*
X185030394Y-117355496D01*
X185030394Y-117355496D01*
G37*
G36*
X187570394Y-117355496D02*
G01*
X187690826Y-117392029D01*
X187733187Y-117404879D01*
X187883207Y-117485066D01*
X187883210Y-117485068D01*
X187883211Y-117485069D01*
X188014712Y-117592988D01*
X188122631Y-117724488D01*
X188122633Y-117724492D01*
X188122634Y-117724493D01*
X188202821Y-117874513D01*
X188202822Y-117874516D01*
X188252204Y-118037305D01*
X188264700Y-118164180D01*
X188264700Y-119773020D01*
X188252204Y-119899895D01*
X188202822Y-120062684D01*
X188202821Y-120062687D01*
X188122634Y-120212707D01*
X188122631Y-120212712D01*
X188014712Y-120344212D01*
X187883212Y-120452131D01*
X187883208Y-120452133D01*
X187883207Y-120452134D01*
X187733187Y-120532321D01*
X187733184Y-120532322D01*
X187570395Y-120581704D01*
X187401100Y-120598378D01*
X187231806Y-120581704D01*
X187069017Y-120532322D01*
X187069014Y-120532321D01*
X186918994Y-120452134D01*
X186918993Y-120452133D01*
X186918989Y-120452131D01*
X186787489Y-120344212D01*
X186679570Y-120212712D01*
X186679567Y-120212707D01*
X186599380Y-120062687D01*
X186599379Y-120062684D01*
X186549997Y-119899895D01*
X186537501Y-119773020D01*
X186537500Y-118164181D01*
X186549996Y-118037306D01*
X186599378Y-117874517D01*
X186599379Y-117874513D01*
X186679566Y-117724493D01*
X186679570Y-117724488D01*
X186787488Y-117592988D01*
X186918988Y-117485069D01*
X186918992Y-117485067D01*
X186918993Y-117485066D01*
X187069013Y-117404879D01*
X187069016Y-117404878D01*
X187231805Y-117355496D01*
X187401100Y-117338822D01*
X187570394Y-117355496D01*
X187570394Y-117355496D01*
G37*
G36*
X190110394Y-117355496D02*
G01*
X190230826Y-117392029D01*
X190273187Y-117404879D01*
X190423207Y-117485066D01*
X190423210Y-117485068D01*
X190423211Y-117485069D01*
X190554712Y-117592988D01*
X190662631Y-117724488D01*
X190662633Y-117724492D01*
X190662634Y-117724493D01*
X190742821Y-117874513D01*
X190742822Y-117874516D01*
X190792204Y-118037305D01*
X190804700Y-118164180D01*
X190804700Y-119773020D01*
X190792204Y-119899895D01*
X190742822Y-120062684D01*
X190742821Y-120062687D01*
X190662634Y-120212707D01*
X190662631Y-120212712D01*
X190554712Y-120344212D01*
X190423212Y-120452131D01*
X190423208Y-120452133D01*
X190423207Y-120452134D01*
X190273187Y-120532321D01*
X190273184Y-120532322D01*
X190110395Y-120581704D01*
X189941100Y-120598378D01*
X189771806Y-120581704D01*
X189609017Y-120532322D01*
X189609014Y-120532321D01*
X189458994Y-120452134D01*
X189458993Y-120452133D01*
X189458989Y-120452131D01*
X189327489Y-120344212D01*
X189219570Y-120212712D01*
X189219567Y-120212707D01*
X189139380Y-120062687D01*
X189139379Y-120062684D01*
X189089997Y-119899895D01*
X189077501Y-119773020D01*
X189077500Y-118164181D01*
X189089996Y-118037306D01*
X189139378Y-117874517D01*
X189139379Y-117874513D01*
X189219566Y-117724493D01*
X189219570Y-117724488D01*
X189327488Y-117592988D01*
X189458988Y-117485069D01*
X189458992Y-117485067D01*
X189458993Y-117485066D01*
X189609013Y-117404879D01*
X189609016Y-117404878D01*
X189771805Y-117355496D01*
X189941100Y-117338822D01*
X190110394Y-117355496D01*
X190110394Y-117355496D01*
G37*
G36*
X192650394Y-117355496D02*
G01*
X192770826Y-117392029D01*
X192813187Y-117404879D01*
X192963207Y-117485066D01*
X192963210Y-117485068D01*
X192963211Y-117485069D01*
X193094712Y-117592988D01*
X193202631Y-117724488D01*
X193202633Y-117724492D01*
X193202634Y-117724493D01*
X193282821Y-117874513D01*
X193282822Y-117874516D01*
X193332204Y-118037305D01*
X193344700Y-118164180D01*
X193344700Y-119773020D01*
X193332204Y-119899895D01*
X193282822Y-120062684D01*
X193282821Y-120062687D01*
X193202634Y-120212707D01*
X193202631Y-120212712D01*
X193094712Y-120344212D01*
X192963212Y-120452131D01*
X192963208Y-120452133D01*
X192963207Y-120452134D01*
X192813187Y-120532321D01*
X192813184Y-120532322D01*
X192650395Y-120581704D01*
X192481100Y-120598378D01*
X192311806Y-120581704D01*
X192149017Y-120532322D01*
X192149014Y-120532321D01*
X191998994Y-120452134D01*
X191998993Y-120452133D01*
X191998989Y-120452131D01*
X191867489Y-120344212D01*
X191759570Y-120212712D01*
X191759567Y-120212707D01*
X191679380Y-120062687D01*
X191679379Y-120062684D01*
X191629997Y-119899895D01*
X191617501Y-119773020D01*
X191617500Y-118164181D01*
X191629996Y-118037306D01*
X191679378Y-117874517D01*
X191679379Y-117874513D01*
X191759566Y-117724493D01*
X191759570Y-117724488D01*
X191867488Y-117592988D01*
X191998988Y-117485069D01*
X191998992Y-117485067D01*
X191998993Y-117485066D01*
X192149013Y-117404879D01*
X192149016Y-117404878D01*
X192311805Y-117355496D01*
X192481100Y-117338822D01*
X192650394Y-117355496D01*
X192650394Y-117355496D01*
G37*
G36*
X195190394Y-117355496D02*
G01*
X195310826Y-117392029D01*
X195353187Y-117404879D01*
X195503207Y-117485066D01*
X195503210Y-117485068D01*
X195503211Y-117485069D01*
X195634712Y-117592988D01*
X195742631Y-117724488D01*
X195742633Y-117724492D01*
X195742634Y-117724493D01*
X195822821Y-117874513D01*
X195822822Y-117874516D01*
X195872204Y-118037305D01*
X195884700Y-118164180D01*
X195884700Y-119773020D01*
X195872204Y-119899895D01*
X195822822Y-120062684D01*
X195822821Y-120062687D01*
X195742634Y-120212707D01*
X195742631Y-120212712D01*
X195634712Y-120344212D01*
X195503212Y-120452131D01*
X195503208Y-120452133D01*
X195503207Y-120452134D01*
X195353187Y-120532321D01*
X195353184Y-120532322D01*
X195190395Y-120581704D01*
X195021100Y-120598378D01*
X194851806Y-120581704D01*
X194689017Y-120532322D01*
X194689014Y-120532321D01*
X194538994Y-120452134D01*
X194538993Y-120452133D01*
X194538989Y-120452131D01*
X194407489Y-120344212D01*
X194299570Y-120212712D01*
X194299567Y-120212707D01*
X194219380Y-120062687D01*
X194219379Y-120062684D01*
X194169997Y-119899895D01*
X194157501Y-119773020D01*
X194157500Y-118164181D01*
X194169996Y-118037306D01*
X194219378Y-117874517D01*
X194219379Y-117874513D01*
X194299566Y-117724493D01*
X194299570Y-117724488D01*
X194407488Y-117592988D01*
X194538988Y-117485069D01*
X194538992Y-117485067D01*
X194538993Y-117485066D01*
X194689013Y-117404879D01*
X194689016Y-117404878D01*
X194851805Y-117355496D01*
X195021100Y-117338822D01*
X195190394Y-117355496D01*
X195190394Y-117355496D01*
G37*
G36*
X197730394Y-117355496D02*
G01*
X197850826Y-117392029D01*
X197893187Y-117404879D01*
X198043207Y-117485066D01*
X198043210Y-117485068D01*
X198043211Y-117485069D01*
X198174712Y-117592988D01*
X198282631Y-117724488D01*
X198282633Y-117724492D01*
X198282634Y-117724493D01*
X198362821Y-117874513D01*
X198362822Y-117874516D01*
X198412204Y-118037305D01*
X198424700Y-118164180D01*
X198424700Y-119773020D01*
X198412204Y-119899895D01*
X198362822Y-120062684D01*
X198362821Y-120062687D01*
X198282634Y-120212707D01*
X198282631Y-120212712D01*
X198174712Y-120344212D01*
X198043212Y-120452131D01*
X198043208Y-120452133D01*
X198043207Y-120452134D01*
X197893187Y-120532321D01*
X197893184Y-120532322D01*
X197730395Y-120581704D01*
X197561100Y-120598378D01*
X197391806Y-120581704D01*
X197229017Y-120532322D01*
X197229014Y-120532321D01*
X197078994Y-120452134D01*
X197078993Y-120452133D01*
X197078989Y-120452131D01*
X196947489Y-120344212D01*
X196839570Y-120212712D01*
X196839567Y-120212707D01*
X196759380Y-120062687D01*
X196759379Y-120062684D01*
X196709997Y-119899895D01*
X196697501Y-119773020D01*
X196697500Y-118164181D01*
X196709996Y-118037306D01*
X196759378Y-117874517D01*
X196759379Y-117874513D01*
X196839566Y-117724493D01*
X196839570Y-117724488D01*
X196947488Y-117592988D01*
X197078988Y-117485069D01*
X197078992Y-117485067D01*
X197078993Y-117485066D01*
X197229013Y-117404879D01*
X197229016Y-117404878D01*
X197391805Y-117355496D01*
X197561100Y-117338822D01*
X197730394Y-117355496D01*
X197730394Y-117355496D01*
G37*
G36*
X124070394Y-117355496D02*
G01*
X124190826Y-117392029D01*
X124233187Y-117404879D01*
X124383207Y-117485066D01*
X124383210Y-117485068D01*
X124383211Y-117485069D01*
X124514712Y-117592988D01*
X124622631Y-117724488D01*
X124622633Y-117724492D01*
X124622634Y-117724493D01*
X124702821Y-117874513D01*
X124702822Y-117874516D01*
X124752204Y-118037305D01*
X124764700Y-118164180D01*
X124764700Y-119773020D01*
X124752204Y-119899895D01*
X124702822Y-120062684D01*
X124702821Y-120062687D01*
X124622634Y-120212707D01*
X124622631Y-120212712D01*
X124514712Y-120344212D01*
X124383212Y-120452131D01*
X124383208Y-120452133D01*
X124383207Y-120452134D01*
X124233187Y-120532321D01*
X124233184Y-120532322D01*
X124070395Y-120581704D01*
X123901100Y-120598378D01*
X123731806Y-120581704D01*
X123569017Y-120532322D01*
X123569014Y-120532321D01*
X123418994Y-120452134D01*
X123418993Y-120452133D01*
X123418989Y-120452131D01*
X123287489Y-120344212D01*
X123179570Y-120212712D01*
X123179567Y-120212707D01*
X123099380Y-120062687D01*
X123099379Y-120062684D01*
X123049997Y-119899895D01*
X123037501Y-119773020D01*
X123037500Y-118164181D01*
X123049996Y-118037306D01*
X123099378Y-117874517D01*
X123099379Y-117874513D01*
X123179566Y-117724493D01*
X123179570Y-117724488D01*
X123287488Y-117592988D01*
X123418988Y-117485069D01*
X123418992Y-117485067D01*
X123418993Y-117485066D01*
X123569013Y-117404879D01*
X123569016Y-117404878D01*
X123731805Y-117355496D01*
X123901100Y-117338822D01*
X124070394Y-117355496D01*
X124070394Y-117355496D01*
G37*
G36*
X144390394Y-117355496D02*
G01*
X144510826Y-117392029D01*
X144553187Y-117404879D01*
X144703207Y-117485066D01*
X144703210Y-117485068D01*
X144703211Y-117485069D01*
X144834712Y-117592988D01*
X144942631Y-117724488D01*
X144942633Y-117724492D01*
X144942634Y-117724493D01*
X145022821Y-117874513D01*
X145022822Y-117874516D01*
X145072204Y-118037305D01*
X145084700Y-118164180D01*
X145084700Y-119773020D01*
X145072204Y-119899895D01*
X145022822Y-120062684D01*
X145022821Y-120062687D01*
X144942634Y-120212707D01*
X144942631Y-120212712D01*
X144834712Y-120344212D01*
X144703212Y-120452131D01*
X144703208Y-120452133D01*
X144703207Y-120452134D01*
X144553187Y-120532321D01*
X144553184Y-120532322D01*
X144390395Y-120581704D01*
X144221100Y-120598378D01*
X144051806Y-120581704D01*
X143889017Y-120532322D01*
X143889014Y-120532321D01*
X143738994Y-120452134D01*
X143738993Y-120452133D01*
X143738989Y-120452131D01*
X143607489Y-120344212D01*
X143499570Y-120212712D01*
X143499567Y-120212707D01*
X143419380Y-120062687D01*
X143419379Y-120062684D01*
X143369997Y-119899895D01*
X143357501Y-119773020D01*
X143357500Y-118164181D01*
X143369996Y-118037306D01*
X143419378Y-117874517D01*
X143419379Y-117874513D01*
X143499566Y-117724493D01*
X143499570Y-117724488D01*
X143607488Y-117592988D01*
X143738988Y-117485069D01*
X143738992Y-117485067D01*
X143738993Y-117485066D01*
X143889013Y-117404879D01*
X143889016Y-117404878D01*
X144051805Y-117355496D01*
X144221100Y-117338822D01*
X144390394Y-117355496D01*
X144390394Y-117355496D01*
G37*
G36*
X146930394Y-117355496D02*
G01*
X147050826Y-117392029D01*
X147093187Y-117404879D01*
X147243207Y-117485066D01*
X147243210Y-117485068D01*
X147243211Y-117485069D01*
X147374712Y-117592988D01*
X147482631Y-117724488D01*
X147482633Y-117724492D01*
X147482634Y-117724493D01*
X147562821Y-117874513D01*
X147562822Y-117874516D01*
X147612204Y-118037305D01*
X147624700Y-118164180D01*
X147624700Y-119773020D01*
X147612204Y-119899895D01*
X147562822Y-120062684D01*
X147562821Y-120062687D01*
X147482634Y-120212707D01*
X147482631Y-120212712D01*
X147374712Y-120344212D01*
X147243212Y-120452131D01*
X147243208Y-120452133D01*
X147243207Y-120452134D01*
X147093187Y-120532321D01*
X147093184Y-120532322D01*
X146930395Y-120581704D01*
X146761100Y-120598378D01*
X146591806Y-120581704D01*
X146429017Y-120532322D01*
X146429014Y-120532321D01*
X146278994Y-120452134D01*
X146278993Y-120452133D01*
X146278989Y-120452131D01*
X146147489Y-120344212D01*
X146039570Y-120212712D01*
X146039567Y-120212707D01*
X145959380Y-120062687D01*
X145959379Y-120062684D01*
X145909997Y-119899895D01*
X145897501Y-119773020D01*
X145897500Y-118164181D01*
X145909996Y-118037306D01*
X145959378Y-117874517D01*
X145959379Y-117874513D01*
X146039566Y-117724493D01*
X146039570Y-117724488D01*
X146147488Y-117592988D01*
X146278988Y-117485069D01*
X146278992Y-117485067D01*
X146278993Y-117485066D01*
X146429013Y-117404879D01*
X146429016Y-117404878D01*
X146591805Y-117355496D01*
X146761100Y-117338822D01*
X146930394Y-117355496D01*
X146930394Y-117355496D01*
G37*
G36*
X174870394Y-117355496D02*
G01*
X174990826Y-117392029D01*
X175033187Y-117404879D01*
X175183207Y-117485066D01*
X175183210Y-117485068D01*
X175183211Y-117485069D01*
X175314712Y-117592988D01*
X175422631Y-117724488D01*
X175422633Y-117724492D01*
X175422634Y-117724493D01*
X175502821Y-117874513D01*
X175502822Y-117874516D01*
X175552204Y-118037305D01*
X175564700Y-118164180D01*
X175564700Y-119773020D01*
X175552204Y-119899895D01*
X175502822Y-120062684D01*
X175502821Y-120062687D01*
X175422634Y-120212707D01*
X175422631Y-120212712D01*
X175314712Y-120344212D01*
X175183212Y-120452131D01*
X175183208Y-120452133D01*
X175183207Y-120452134D01*
X175033187Y-120532321D01*
X175033184Y-120532322D01*
X174870395Y-120581704D01*
X174701100Y-120598378D01*
X174531806Y-120581704D01*
X174369017Y-120532322D01*
X174369014Y-120532321D01*
X174218994Y-120452134D01*
X174218993Y-120452133D01*
X174218989Y-120452131D01*
X174087489Y-120344212D01*
X173979570Y-120212712D01*
X173979567Y-120212707D01*
X173899380Y-120062687D01*
X173899379Y-120062684D01*
X173849997Y-119899895D01*
X173837501Y-119773020D01*
X173837500Y-118164181D01*
X173849996Y-118037306D01*
X173899378Y-117874517D01*
X173899379Y-117874513D01*
X173979566Y-117724493D01*
X173979570Y-117724488D01*
X174087488Y-117592988D01*
X174218988Y-117485069D01*
X174218992Y-117485067D01*
X174218993Y-117485066D01*
X174369013Y-117404879D01*
X174369016Y-117404878D01*
X174531805Y-117355496D01*
X174701100Y-117338822D01*
X174870394Y-117355496D01*
X174870394Y-117355496D01*
G37*
G36*
X101210394Y-117355496D02*
G01*
X101330826Y-117392029D01*
X101373187Y-117404879D01*
X101523207Y-117485066D01*
X101523210Y-117485068D01*
X101523211Y-117485069D01*
X101654712Y-117592988D01*
X101762631Y-117724488D01*
X101762633Y-117724492D01*
X101762634Y-117724493D01*
X101842821Y-117874513D01*
X101842822Y-117874516D01*
X101892204Y-118037305D01*
X101904700Y-118164180D01*
X101904700Y-119773020D01*
X101892204Y-119899895D01*
X101842822Y-120062684D01*
X101842821Y-120062687D01*
X101762634Y-120212707D01*
X101762631Y-120212712D01*
X101654712Y-120344212D01*
X101523212Y-120452131D01*
X101523208Y-120452133D01*
X101523207Y-120452134D01*
X101373187Y-120532321D01*
X101373184Y-120532322D01*
X101210395Y-120581704D01*
X101041100Y-120598378D01*
X100871806Y-120581704D01*
X100709017Y-120532322D01*
X100709014Y-120532321D01*
X100558994Y-120452134D01*
X100558993Y-120452133D01*
X100558989Y-120452131D01*
X100427489Y-120344212D01*
X100319570Y-120212712D01*
X100319567Y-120212707D01*
X100239380Y-120062687D01*
X100239379Y-120062684D01*
X100189997Y-119899895D01*
X100177501Y-119773020D01*
X100177500Y-118164181D01*
X100189996Y-118037306D01*
X100239378Y-117874517D01*
X100239379Y-117874513D01*
X100319566Y-117724493D01*
X100319570Y-117724488D01*
X100427488Y-117592988D01*
X100558988Y-117485069D01*
X100558992Y-117485067D01*
X100558993Y-117485066D01*
X100709013Y-117404879D01*
X100709016Y-117404878D01*
X100871805Y-117355496D01*
X101041100Y-117338822D01*
X101210394Y-117355496D01*
X101210394Y-117355496D01*
G37*
G36*
X106290394Y-117355496D02*
G01*
X106410826Y-117392029D01*
X106453187Y-117404879D01*
X106603207Y-117485066D01*
X106603210Y-117485068D01*
X106603211Y-117485069D01*
X106734712Y-117592988D01*
X106842631Y-117724488D01*
X106842633Y-117724492D01*
X106842634Y-117724493D01*
X106922821Y-117874513D01*
X106922822Y-117874516D01*
X106972204Y-118037305D01*
X106984700Y-118164180D01*
X106984700Y-119773020D01*
X106972204Y-119899895D01*
X106922822Y-120062684D01*
X106922821Y-120062687D01*
X106842634Y-120212707D01*
X106842631Y-120212712D01*
X106734712Y-120344212D01*
X106603212Y-120452131D01*
X106603208Y-120452133D01*
X106603207Y-120452134D01*
X106453187Y-120532321D01*
X106453184Y-120532322D01*
X106290395Y-120581704D01*
X106121100Y-120598378D01*
X105951806Y-120581704D01*
X105789017Y-120532322D01*
X105789014Y-120532321D01*
X105638994Y-120452134D01*
X105638993Y-120452133D01*
X105638989Y-120452131D01*
X105507489Y-120344212D01*
X105399570Y-120212712D01*
X105399567Y-120212707D01*
X105319380Y-120062687D01*
X105319379Y-120062684D01*
X105269997Y-119899895D01*
X105257501Y-119773020D01*
X105257500Y-118164181D01*
X105269996Y-118037306D01*
X105319378Y-117874517D01*
X105319379Y-117874513D01*
X105399566Y-117724493D01*
X105399570Y-117724488D01*
X105507488Y-117592988D01*
X105638988Y-117485069D01*
X105638992Y-117485067D01*
X105638993Y-117485066D01*
X105789013Y-117404879D01*
X105789016Y-117404878D01*
X105951805Y-117355496D01*
X106121100Y-117338822D01*
X106290394Y-117355496D01*
X106290394Y-117355496D01*
G37*
G36*
X108830394Y-117355496D02*
G01*
X108950826Y-117392029D01*
X108993187Y-117404879D01*
X109143207Y-117485066D01*
X109143210Y-117485068D01*
X109143211Y-117485069D01*
X109274712Y-117592988D01*
X109382631Y-117724488D01*
X109382633Y-117724492D01*
X109382634Y-117724493D01*
X109462821Y-117874513D01*
X109462822Y-117874516D01*
X109512204Y-118037305D01*
X109524700Y-118164180D01*
X109524700Y-119773020D01*
X109512204Y-119899895D01*
X109462822Y-120062684D01*
X109462821Y-120062687D01*
X109382634Y-120212707D01*
X109382631Y-120212712D01*
X109274712Y-120344212D01*
X109143212Y-120452131D01*
X109143208Y-120452133D01*
X109143207Y-120452134D01*
X108993187Y-120532321D01*
X108993184Y-120532322D01*
X108830395Y-120581704D01*
X108661100Y-120598378D01*
X108491806Y-120581704D01*
X108329017Y-120532322D01*
X108329014Y-120532321D01*
X108178994Y-120452134D01*
X108178993Y-120452133D01*
X108178989Y-120452131D01*
X108047489Y-120344212D01*
X107939570Y-120212712D01*
X107939567Y-120212707D01*
X107859380Y-120062687D01*
X107859379Y-120062684D01*
X107809997Y-119899895D01*
X107797501Y-119773020D01*
X107797500Y-118164181D01*
X107809996Y-118037306D01*
X107859378Y-117874517D01*
X107859379Y-117874513D01*
X107939566Y-117724493D01*
X107939570Y-117724488D01*
X108047488Y-117592988D01*
X108178988Y-117485069D01*
X108178992Y-117485067D01*
X108178993Y-117485066D01*
X108329013Y-117404879D01*
X108329016Y-117404878D01*
X108491805Y-117355496D01*
X108661100Y-117338822D01*
X108830394Y-117355496D01*
X108830394Y-117355496D01*
G37*
G36*
X111370394Y-117355496D02*
G01*
X111490826Y-117392029D01*
X111533187Y-117404879D01*
X111683207Y-117485066D01*
X111683210Y-117485068D01*
X111683211Y-117485069D01*
X111814712Y-117592988D01*
X111922631Y-117724488D01*
X111922633Y-117724492D01*
X111922634Y-117724493D01*
X112002821Y-117874513D01*
X112002822Y-117874516D01*
X112052204Y-118037305D01*
X112064700Y-118164180D01*
X112064700Y-119773020D01*
X112052204Y-119899895D01*
X112002822Y-120062684D01*
X112002821Y-120062687D01*
X111922634Y-120212707D01*
X111922631Y-120212712D01*
X111814712Y-120344212D01*
X111683212Y-120452131D01*
X111683208Y-120452133D01*
X111683207Y-120452134D01*
X111533187Y-120532321D01*
X111533184Y-120532322D01*
X111370395Y-120581704D01*
X111201100Y-120598378D01*
X111031806Y-120581704D01*
X110869017Y-120532322D01*
X110869014Y-120532321D01*
X110718994Y-120452134D01*
X110718993Y-120452133D01*
X110718989Y-120452131D01*
X110587489Y-120344212D01*
X110479570Y-120212712D01*
X110479567Y-120212707D01*
X110399380Y-120062687D01*
X110399379Y-120062684D01*
X110349997Y-119899895D01*
X110337501Y-119773020D01*
X110337500Y-118164181D01*
X110349996Y-118037306D01*
X110399378Y-117874517D01*
X110399379Y-117874513D01*
X110479566Y-117724493D01*
X110479570Y-117724488D01*
X110587488Y-117592988D01*
X110718988Y-117485069D01*
X110718992Y-117485067D01*
X110718993Y-117485066D01*
X110869013Y-117404879D01*
X110869016Y-117404878D01*
X111031805Y-117355496D01*
X111201100Y-117338822D01*
X111370394Y-117355496D01*
X111370394Y-117355496D01*
G37*
G36*
X113910394Y-117355496D02*
G01*
X114030826Y-117392029D01*
X114073187Y-117404879D01*
X114223207Y-117485066D01*
X114223210Y-117485068D01*
X114223211Y-117485069D01*
X114354712Y-117592988D01*
X114462631Y-117724488D01*
X114462633Y-117724492D01*
X114462634Y-117724493D01*
X114542821Y-117874513D01*
X114542822Y-117874516D01*
X114592204Y-118037305D01*
X114604700Y-118164180D01*
X114604700Y-119773020D01*
X114592204Y-119899895D01*
X114542822Y-120062684D01*
X114542821Y-120062687D01*
X114462634Y-120212707D01*
X114462631Y-120212712D01*
X114354712Y-120344212D01*
X114223212Y-120452131D01*
X114223208Y-120452133D01*
X114223207Y-120452134D01*
X114073187Y-120532321D01*
X114073184Y-120532322D01*
X113910395Y-120581704D01*
X113741100Y-120598378D01*
X113571806Y-120581704D01*
X113409017Y-120532322D01*
X113409014Y-120532321D01*
X113258994Y-120452134D01*
X113258993Y-120452133D01*
X113258989Y-120452131D01*
X113127489Y-120344212D01*
X113019570Y-120212712D01*
X113019567Y-120212707D01*
X112939380Y-120062687D01*
X112939379Y-120062684D01*
X112889997Y-119899895D01*
X112877501Y-119773020D01*
X112877500Y-118164181D01*
X112889996Y-118037306D01*
X112939378Y-117874517D01*
X112939379Y-117874513D01*
X113019566Y-117724493D01*
X113019570Y-117724488D01*
X113127488Y-117592988D01*
X113258988Y-117485069D01*
X113258992Y-117485067D01*
X113258993Y-117485066D01*
X113409013Y-117404879D01*
X113409016Y-117404878D01*
X113571805Y-117355496D01*
X113741100Y-117338822D01*
X113910394Y-117355496D01*
X113910394Y-117355496D01*
G37*
G36*
X116450394Y-117355496D02*
G01*
X116570826Y-117392029D01*
X116613187Y-117404879D01*
X116763207Y-117485066D01*
X116763210Y-117485068D01*
X116763211Y-117485069D01*
X116894712Y-117592988D01*
X117002631Y-117724488D01*
X117002633Y-117724492D01*
X117002634Y-117724493D01*
X117082821Y-117874513D01*
X117082822Y-117874516D01*
X117132204Y-118037305D01*
X117144700Y-118164180D01*
X117144700Y-119773020D01*
X117132204Y-119899895D01*
X117082822Y-120062684D01*
X117082821Y-120062687D01*
X117002634Y-120212707D01*
X117002631Y-120212712D01*
X116894712Y-120344212D01*
X116763212Y-120452131D01*
X116763208Y-120452133D01*
X116763207Y-120452134D01*
X116613187Y-120532321D01*
X116613184Y-120532322D01*
X116450395Y-120581704D01*
X116281100Y-120598378D01*
X116111806Y-120581704D01*
X115949017Y-120532322D01*
X115949014Y-120532321D01*
X115798994Y-120452134D01*
X115798993Y-120452133D01*
X115798989Y-120452131D01*
X115667489Y-120344212D01*
X115559570Y-120212712D01*
X115559567Y-120212707D01*
X115479380Y-120062687D01*
X115479379Y-120062684D01*
X115429997Y-119899895D01*
X115417501Y-119773020D01*
X115417500Y-118164181D01*
X115429996Y-118037306D01*
X115479378Y-117874517D01*
X115479379Y-117874513D01*
X115559566Y-117724493D01*
X115559570Y-117724488D01*
X115667488Y-117592988D01*
X115798988Y-117485069D01*
X115798992Y-117485067D01*
X115798993Y-117485066D01*
X115949013Y-117404879D01*
X115949016Y-117404878D01*
X116111805Y-117355496D01*
X116281100Y-117338822D01*
X116450394Y-117355496D01*
X116450394Y-117355496D01*
G37*
G36*
X118990394Y-117355496D02*
G01*
X119110826Y-117392029D01*
X119153187Y-117404879D01*
X119303207Y-117485066D01*
X119303210Y-117485068D01*
X119303211Y-117485069D01*
X119434712Y-117592988D01*
X119542631Y-117724488D01*
X119542633Y-117724492D01*
X119542634Y-117724493D01*
X119622821Y-117874513D01*
X119622822Y-117874516D01*
X119672204Y-118037305D01*
X119684700Y-118164180D01*
X119684700Y-119773020D01*
X119672204Y-119899895D01*
X119622822Y-120062684D01*
X119622821Y-120062687D01*
X119542634Y-120212707D01*
X119542631Y-120212712D01*
X119434712Y-120344212D01*
X119303212Y-120452131D01*
X119303208Y-120452133D01*
X119303207Y-120452134D01*
X119153187Y-120532321D01*
X119153184Y-120532322D01*
X118990395Y-120581704D01*
X118821100Y-120598378D01*
X118651806Y-120581704D01*
X118489017Y-120532322D01*
X118489014Y-120532321D01*
X118338994Y-120452134D01*
X118338993Y-120452133D01*
X118338989Y-120452131D01*
X118207489Y-120344212D01*
X118099570Y-120212712D01*
X118099567Y-120212707D01*
X118019380Y-120062687D01*
X118019379Y-120062684D01*
X117969997Y-119899895D01*
X117957501Y-119773020D01*
X117957500Y-118164181D01*
X117969996Y-118037306D01*
X118019378Y-117874517D01*
X118019379Y-117874513D01*
X118099566Y-117724493D01*
X118099570Y-117724488D01*
X118207488Y-117592988D01*
X118338988Y-117485069D01*
X118338992Y-117485067D01*
X118338993Y-117485066D01*
X118489013Y-117404879D01*
X118489016Y-117404878D01*
X118651805Y-117355496D01*
X118821100Y-117338822D01*
X118990394Y-117355496D01*
X118990394Y-117355496D01*
G37*
G36*
X121530394Y-117355496D02*
G01*
X121650826Y-117392029D01*
X121693187Y-117404879D01*
X121843207Y-117485066D01*
X121843210Y-117485068D01*
X121843211Y-117485069D01*
X121974712Y-117592988D01*
X122082631Y-117724488D01*
X122082633Y-117724492D01*
X122082634Y-117724493D01*
X122162821Y-117874513D01*
X122162822Y-117874516D01*
X122212204Y-118037305D01*
X122224700Y-118164180D01*
X122224700Y-119773020D01*
X122212204Y-119899895D01*
X122162822Y-120062684D01*
X122162821Y-120062687D01*
X122082634Y-120212707D01*
X122082631Y-120212712D01*
X121974712Y-120344212D01*
X121843212Y-120452131D01*
X121843208Y-120452133D01*
X121843207Y-120452134D01*
X121693187Y-120532321D01*
X121693184Y-120532322D01*
X121530395Y-120581704D01*
X121361100Y-120598378D01*
X121191806Y-120581704D01*
X121029017Y-120532322D01*
X121029014Y-120532321D01*
X120878994Y-120452134D01*
X120878993Y-120452133D01*
X120878989Y-120452131D01*
X120747489Y-120344212D01*
X120639570Y-120212712D01*
X120639567Y-120212707D01*
X120559380Y-120062687D01*
X120559379Y-120062684D01*
X120509997Y-119899895D01*
X120497501Y-119773020D01*
X120497500Y-118164181D01*
X120509996Y-118037306D01*
X120559378Y-117874517D01*
X120559379Y-117874513D01*
X120639566Y-117724493D01*
X120639570Y-117724488D01*
X120747488Y-117592988D01*
X120878988Y-117485069D01*
X120878992Y-117485067D01*
X120878993Y-117485066D01*
X121029013Y-117404879D01*
X121029016Y-117404878D01*
X121191805Y-117355496D01*
X121361100Y-117338822D01*
X121530394Y-117355496D01*
X121530394Y-117355496D01*
G37*
G36*
X103750394Y-117355496D02*
G01*
X103870826Y-117392029D01*
X103913187Y-117404879D01*
X104063207Y-117485066D01*
X104063210Y-117485068D01*
X104063211Y-117485069D01*
X104194712Y-117592988D01*
X104302631Y-117724488D01*
X104302633Y-117724492D01*
X104302634Y-117724493D01*
X104382821Y-117874513D01*
X104382822Y-117874516D01*
X104432204Y-118037305D01*
X104444700Y-118164180D01*
X104444700Y-119773020D01*
X104432204Y-119899895D01*
X104382822Y-120062684D01*
X104382821Y-120062687D01*
X104302634Y-120212707D01*
X104302631Y-120212712D01*
X104194712Y-120344212D01*
X104063212Y-120452131D01*
X104063208Y-120452133D01*
X104063207Y-120452134D01*
X103913187Y-120532321D01*
X103913184Y-120532322D01*
X103750395Y-120581704D01*
X103581100Y-120598378D01*
X103411806Y-120581704D01*
X103249017Y-120532322D01*
X103249014Y-120532321D01*
X103098994Y-120452134D01*
X103098993Y-120452133D01*
X103098989Y-120452131D01*
X102967489Y-120344212D01*
X102859570Y-120212712D01*
X102859567Y-120212707D01*
X102779380Y-120062687D01*
X102779379Y-120062684D01*
X102729997Y-119899895D01*
X102717501Y-119773020D01*
X102717500Y-118164181D01*
X102729996Y-118037306D01*
X102779378Y-117874517D01*
X102779379Y-117874513D01*
X102859566Y-117724493D01*
X102859570Y-117724488D01*
X102967488Y-117592988D01*
X103098988Y-117485069D01*
X103098992Y-117485067D01*
X103098993Y-117485066D01*
X103249013Y-117404879D01*
X103249016Y-117404878D01*
X103411805Y-117355496D01*
X103581100Y-117338822D01*
X103750394Y-117355496D01*
X103750394Y-117355496D01*
G37*
G36*
X126610394Y-117355496D02*
G01*
X126730826Y-117392029D01*
X126773187Y-117404879D01*
X126923207Y-117485066D01*
X126923210Y-117485068D01*
X126923211Y-117485069D01*
X127054712Y-117592988D01*
X127162631Y-117724488D01*
X127162633Y-117724492D01*
X127162634Y-117724493D01*
X127242821Y-117874513D01*
X127242822Y-117874516D01*
X127292204Y-118037305D01*
X127304700Y-118164180D01*
X127304700Y-119773020D01*
X127292204Y-119899895D01*
X127242822Y-120062684D01*
X127242821Y-120062687D01*
X127162634Y-120212707D01*
X127162631Y-120212712D01*
X127054712Y-120344212D01*
X126923212Y-120452131D01*
X126923208Y-120452133D01*
X126923207Y-120452134D01*
X126773187Y-120532321D01*
X126773184Y-120532322D01*
X126610395Y-120581704D01*
X126441100Y-120598378D01*
X126271806Y-120581704D01*
X126109017Y-120532322D01*
X126109014Y-120532321D01*
X125958994Y-120452134D01*
X125958993Y-120452133D01*
X125958989Y-120452131D01*
X125827489Y-120344212D01*
X125719570Y-120212712D01*
X125719567Y-120212707D01*
X125639380Y-120062687D01*
X125639379Y-120062684D01*
X125589997Y-119899895D01*
X125577501Y-119773020D01*
X125577500Y-118164181D01*
X125589996Y-118037306D01*
X125639378Y-117874517D01*
X125639379Y-117874513D01*
X125719566Y-117724493D01*
X125719570Y-117724488D01*
X125827488Y-117592988D01*
X125958988Y-117485069D01*
X125958992Y-117485067D01*
X125958993Y-117485066D01*
X126109013Y-117404879D01*
X126109016Y-117404878D01*
X126271805Y-117355496D01*
X126441100Y-117338822D01*
X126610394Y-117355496D01*
X126610394Y-117355496D01*
G37*
G36*
X129150394Y-117355496D02*
G01*
X129270826Y-117392029D01*
X129313187Y-117404879D01*
X129463207Y-117485066D01*
X129463210Y-117485068D01*
X129463211Y-117485069D01*
X129594712Y-117592988D01*
X129702631Y-117724488D01*
X129702633Y-117724492D01*
X129702634Y-117724493D01*
X129782821Y-117874513D01*
X129782822Y-117874516D01*
X129832204Y-118037305D01*
X129844700Y-118164180D01*
X129844700Y-119773020D01*
X129832204Y-119899895D01*
X129782822Y-120062684D01*
X129782821Y-120062687D01*
X129702634Y-120212707D01*
X129702631Y-120212712D01*
X129594712Y-120344212D01*
X129463212Y-120452131D01*
X129463208Y-120452133D01*
X129463207Y-120452134D01*
X129313187Y-120532321D01*
X129313184Y-120532322D01*
X129150395Y-120581704D01*
X128981100Y-120598378D01*
X128811806Y-120581704D01*
X128649017Y-120532322D01*
X128649014Y-120532321D01*
X128498994Y-120452134D01*
X128498993Y-120452133D01*
X128498989Y-120452131D01*
X128367489Y-120344212D01*
X128259570Y-120212712D01*
X128259567Y-120212707D01*
X128179380Y-120062687D01*
X128179379Y-120062684D01*
X128129997Y-119899895D01*
X128117501Y-119773020D01*
X128117500Y-118164181D01*
X128129996Y-118037306D01*
X128179378Y-117874517D01*
X128179379Y-117874513D01*
X128259566Y-117724493D01*
X128259570Y-117724488D01*
X128367488Y-117592988D01*
X128498988Y-117485069D01*
X128498992Y-117485067D01*
X128498993Y-117485066D01*
X128649013Y-117404879D01*
X128649016Y-117404878D01*
X128811805Y-117355496D01*
X128981100Y-117338822D01*
X129150394Y-117355496D01*
X129150394Y-117355496D01*
G37*
G36*
X131690394Y-117355496D02*
G01*
X131810826Y-117392029D01*
X131853187Y-117404879D01*
X132003207Y-117485066D01*
X132003210Y-117485068D01*
X132003211Y-117485069D01*
X132134712Y-117592988D01*
X132242631Y-117724488D01*
X132242633Y-117724492D01*
X132242634Y-117724493D01*
X132322821Y-117874513D01*
X132322822Y-117874516D01*
X132372204Y-118037305D01*
X132384700Y-118164180D01*
X132384700Y-119773020D01*
X132372204Y-119899895D01*
X132322822Y-120062684D01*
X132322821Y-120062687D01*
X132242634Y-120212707D01*
X132242631Y-120212712D01*
X132134712Y-120344212D01*
X132003212Y-120452131D01*
X132003208Y-120452133D01*
X132003207Y-120452134D01*
X131853187Y-120532321D01*
X131853184Y-120532322D01*
X131690395Y-120581704D01*
X131521100Y-120598378D01*
X131351806Y-120581704D01*
X131189017Y-120532322D01*
X131189014Y-120532321D01*
X131038994Y-120452134D01*
X131038993Y-120452133D01*
X131038989Y-120452131D01*
X130907489Y-120344212D01*
X130799570Y-120212712D01*
X130799567Y-120212707D01*
X130719380Y-120062687D01*
X130719379Y-120062684D01*
X130669997Y-119899895D01*
X130657501Y-119773020D01*
X130657500Y-118164181D01*
X130669996Y-118037306D01*
X130719378Y-117874517D01*
X130719379Y-117874513D01*
X130799566Y-117724493D01*
X130799570Y-117724488D01*
X130907488Y-117592988D01*
X131038988Y-117485069D01*
X131038992Y-117485067D01*
X131038993Y-117485066D01*
X131189013Y-117404879D01*
X131189016Y-117404878D01*
X131351805Y-117355496D01*
X131521100Y-117338822D01*
X131690394Y-117355496D01*
X131690394Y-117355496D01*
G37*
G36*
X134230394Y-117355496D02*
G01*
X134350826Y-117392029D01*
X134393187Y-117404879D01*
X134543207Y-117485066D01*
X134543210Y-117485068D01*
X134543211Y-117485069D01*
X134674712Y-117592988D01*
X134782631Y-117724488D01*
X134782633Y-117724492D01*
X134782634Y-117724493D01*
X134862821Y-117874513D01*
X134862822Y-117874516D01*
X134912204Y-118037305D01*
X134924700Y-118164180D01*
X134924700Y-119773020D01*
X134912204Y-119899895D01*
X134862822Y-120062684D01*
X134862821Y-120062687D01*
X134782634Y-120212707D01*
X134782631Y-120212712D01*
X134674712Y-120344212D01*
X134543212Y-120452131D01*
X134543208Y-120452133D01*
X134543207Y-120452134D01*
X134393187Y-120532321D01*
X134393184Y-120532322D01*
X134230395Y-120581704D01*
X134061100Y-120598378D01*
X133891806Y-120581704D01*
X133729017Y-120532322D01*
X133729014Y-120532321D01*
X133578994Y-120452134D01*
X133578993Y-120452133D01*
X133578989Y-120452131D01*
X133447489Y-120344212D01*
X133339570Y-120212712D01*
X133339567Y-120212707D01*
X133259380Y-120062687D01*
X133259379Y-120062684D01*
X133209997Y-119899895D01*
X133197501Y-119773020D01*
X133197500Y-118164181D01*
X133209996Y-118037306D01*
X133259378Y-117874517D01*
X133259379Y-117874513D01*
X133339566Y-117724493D01*
X133339570Y-117724488D01*
X133447488Y-117592988D01*
X133578988Y-117485069D01*
X133578992Y-117485067D01*
X133578993Y-117485066D01*
X133729013Y-117404879D01*
X133729016Y-117404878D01*
X133891805Y-117355496D01*
X134061100Y-117338822D01*
X134230394Y-117355496D01*
X134230394Y-117355496D01*
G37*
G36*
X136770394Y-117355496D02*
G01*
X136890826Y-117392029D01*
X136933187Y-117404879D01*
X137083207Y-117485066D01*
X137083210Y-117485068D01*
X137083211Y-117485069D01*
X137214712Y-117592988D01*
X137322631Y-117724488D01*
X137322633Y-117724492D01*
X137322634Y-117724493D01*
X137402821Y-117874513D01*
X137402822Y-117874516D01*
X137452204Y-118037305D01*
X137464700Y-118164180D01*
X137464700Y-119773020D01*
X137452204Y-119899895D01*
X137402822Y-120062684D01*
X137402821Y-120062687D01*
X137322634Y-120212707D01*
X137322631Y-120212712D01*
X137214712Y-120344212D01*
X137083212Y-120452131D01*
X137083208Y-120452133D01*
X137083207Y-120452134D01*
X136933187Y-120532321D01*
X136933184Y-120532322D01*
X136770395Y-120581704D01*
X136601100Y-120598378D01*
X136431806Y-120581704D01*
X136269017Y-120532322D01*
X136269014Y-120532321D01*
X136118994Y-120452134D01*
X136118993Y-120452133D01*
X136118989Y-120452131D01*
X135987489Y-120344212D01*
X135879570Y-120212712D01*
X135879567Y-120212707D01*
X135799380Y-120062687D01*
X135799379Y-120062684D01*
X135749997Y-119899895D01*
X135737501Y-119773020D01*
X135737500Y-118164181D01*
X135749996Y-118037306D01*
X135799378Y-117874517D01*
X135799379Y-117874513D01*
X135879566Y-117724493D01*
X135879570Y-117724488D01*
X135987488Y-117592988D01*
X136118988Y-117485069D01*
X136118992Y-117485067D01*
X136118993Y-117485066D01*
X136269013Y-117404879D01*
X136269016Y-117404878D01*
X136431805Y-117355496D01*
X136601100Y-117338822D01*
X136770394Y-117355496D01*
X136770394Y-117355496D01*
G37*
G36*
X139310394Y-117355496D02*
G01*
X139430826Y-117392029D01*
X139473187Y-117404879D01*
X139623207Y-117485066D01*
X139623210Y-117485068D01*
X139623211Y-117485069D01*
X139754712Y-117592988D01*
X139862631Y-117724488D01*
X139862633Y-117724492D01*
X139862634Y-117724493D01*
X139942821Y-117874513D01*
X139942822Y-117874516D01*
X139992204Y-118037305D01*
X140004700Y-118164180D01*
X140004700Y-119773020D01*
X139992204Y-119899895D01*
X139942822Y-120062684D01*
X139942821Y-120062687D01*
X139862634Y-120212707D01*
X139862631Y-120212712D01*
X139754712Y-120344212D01*
X139623212Y-120452131D01*
X139623208Y-120452133D01*
X139623207Y-120452134D01*
X139473187Y-120532321D01*
X139473184Y-120532322D01*
X139310395Y-120581704D01*
X139141100Y-120598378D01*
X138971806Y-120581704D01*
X138809017Y-120532322D01*
X138809014Y-120532321D01*
X138658994Y-120452134D01*
X138658993Y-120452133D01*
X138658989Y-120452131D01*
X138527489Y-120344212D01*
X138419570Y-120212712D01*
X138419567Y-120212707D01*
X138339380Y-120062687D01*
X138339379Y-120062684D01*
X138289997Y-119899895D01*
X138277501Y-119773020D01*
X138277500Y-118164181D01*
X138289996Y-118037306D01*
X138339378Y-117874517D01*
X138339379Y-117874513D01*
X138419566Y-117724493D01*
X138419570Y-117724488D01*
X138527488Y-117592988D01*
X138658988Y-117485069D01*
X138658992Y-117485067D01*
X138658993Y-117485066D01*
X138809013Y-117404879D01*
X138809016Y-117404878D01*
X138971805Y-117355496D01*
X139141100Y-117338822D01*
X139310394Y-117355496D01*
X139310394Y-117355496D01*
G37*
G36*
X141850394Y-117355496D02*
G01*
X141970826Y-117392029D01*
X142013187Y-117404879D01*
X142163207Y-117485066D01*
X142163210Y-117485068D01*
X142163211Y-117485069D01*
X142294712Y-117592988D01*
X142402631Y-117724488D01*
X142402633Y-117724492D01*
X142402634Y-117724493D01*
X142482821Y-117874513D01*
X142482822Y-117874516D01*
X142532204Y-118037305D01*
X142544700Y-118164180D01*
X142544700Y-119773020D01*
X142532204Y-119899895D01*
X142482822Y-120062684D01*
X142482821Y-120062687D01*
X142402634Y-120212707D01*
X142402631Y-120212712D01*
X142294712Y-120344212D01*
X142163212Y-120452131D01*
X142163208Y-120452133D01*
X142163207Y-120452134D01*
X142013187Y-120532321D01*
X142013184Y-120532322D01*
X141850395Y-120581704D01*
X141681100Y-120598378D01*
X141511806Y-120581704D01*
X141349017Y-120532322D01*
X141349014Y-120532321D01*
X141198994Y-120452134D01*
X141198993Y-120452133D01*
X141198989Y-120452131D01*
X141067489Y-120344212D01*
X140959570Y-120212712D01*
X140959567Y-120212707D01*
X140879380Y-120062687D01*
X140879379Y-120062684D01*
X140829997Y-119899895D01*
X140817501Y-119773020D01*
X140817500Y-118164181D01*
X140829996Y-118037306D01*
X140879378Y-117874517D01*
X140879379Y-117874513D01*
X140959566Y-117724493D01*
X140959570Y-117724488D01*
X141067488Y-117592988D01*
X141198988Y-117485069D01*
X141198992Y-117485067D01*
X141198993Y-117485066D01*
X141349013Y-117404879D01*
X141349016Y-117404878D01*
X141511805Y-117355496D01*
X141681100Y-117338822D01*
X141850394Y-117355496D01*
X141850394Y-117355496D01*
G37*
G36*
X197813003Y-114328187D02*
G01*
X197970168Y-114393287D01*
X198111613Y-114487798D01*
X198231902Y-114608087D01*
X198326413Y-114749532D01*
X198391513Y-114906697D01*
X198424700Y-115073543D01*
X198424700Y-115243657D01*
X198391513Y-115410503D01*
X198326413Y-115567668D01*
X198231902Y-115709113D01*
X198111613Y-115829402D01*
X197970168Y-115923913D01*
X197813003Y-115989013D01*
X197646157Y-116022200D01*
X197476043Y-116022200D01*
X197309197Y-115989013D01*
X197152032Y-115923913D01*
X197010587Y-115829402D01*
X196890298Y-115709113D01*
X196795787Y-115567668D01*
X196730687Y-115410503D01*
X196697500Y-115243657D01*
X196697500Y-115073543D01*
X196730687Y-114906697D01*
X196795787Y-114749532D01*
X196890298Y-114608087D01*
X197010587Y-114487798D01*
X197152032Y-114393287D01*
X197309197Y-114328187D01*
X197476043Y-114295000D01*
X197646157Y-114295000D01*
X197813003Y-114328187D01*
X197813003Y-114328187D01*
G37*
G36*
X185113003Y-114328187D02*
G01*
X185270168Y-114393287D01*
X185411613Y-114487798D01*
X185531902Y-114608087D01*
X185626413Y-114749532D01*
X185691513Y-114906697D01*
X185724700Y-115073543D01*
X185724700Y-115243657D01*
X185691513Y-115410503D01*
X185626413Y-115567668D01*
X185531902Y-115709113D01*
X185411613Y-115829402D01*
X185270168Y-115923913D01*
X185113003Y-115989013D01*
X184946157Y-116022200D01*
X184776043Y-116022200D01*
X184609197Y-115989013D01*
X184452032Y-115923913D01*
X184310587Y-115829402D01*
X184190298Y-115709113D01*
X184095787Y-115567668D01*
X184030687Y-115410503D01*
X183997500Y-115243657D01*
X183997500Y-115073543D01*
X184030687Y-114906697D01*
X184095787Y-114749532D01*
X184190298Y-114608087D01*
X184310587Y-114487798D01*
X184452032Y-114393287D01*
X184609197Y-114328187D01*
X184776043Y-114295000D01*
X184946157Y-114295000D01*
X185113003Y-114328187D01*
X185113003Y-114328187D01*
G37*
G36*
X187653003Y-114328187D02*
G01*
X187810168Y-114393287D01*
X187951613Y-114487798D01*
X188071902Y-114608087D01*
X188166413Y-114749532D01*
X188231513Y-114906697D01*
X188264700Y-115073543D01*
X188264700Y-115243657D01*
X188231513Y-115410503D01*
X188166413Y-115567668D01*
X188071902Y-115709113D01*
X187951613Y-115829402D01*
X187810168Y-115923913D01*
X187653003Y-115989013D01*
X187486157Y-116022200D01*
X187316043Y-116022200D01*
X187149197Y-115989013D01*
X186992032Y-115923913D01*
X186850587Y-115829402D01*
X186730298Y-115709113D01*
X186635787Y-115567668D01*
X186570687Y-115410503D01*
X186537500Y-115243657D01*
X186537500Y-115073543D01*
X186570687Y-114906697D01*
X186635787Y-114749532D01*
X186730298Y-114608087D01*
X186850587Y-114487798D01*
X186992032Y-114393287D01*
X187149197Y-114328187D01*
X187316043Y-114295000D01*
X187486157Y-114295000D01*
X187653003Y-114328187D01*
X187653003Y-114328187D01*
G37*
G36*
X192733003Y-114328187D02*
G01*
X192890168Y-114393287D01*
X193031613Y-114487798D01*
X193151902Y-114608087D01*
X193246413Y-114749532D01*
X193311513Y-114906697D01*
X193344700Y-115073543D01*
X193344700Y-115243657D01*
X193311513Y-115410503D01*
X193246413Y-115567668D01*
X193151902Y-115709113D01*
X193031613Y-115829402D01*
X192890168Y-115923913D01*
X192733003Y-115989013D01*
X192566157Y-116022200D01*
X192396043Y-116022200D01*
X192229197Y-115989013D01*
X192072032Y-115923913D01*
X191930587Y-115829402D01*
X191810298Y-115709113D01*
X191715787Y-115567668D01*
X191650687Y-115410503D01*
X191617500Y-115243657D01*
X191617500Y-115073543D01*
X191650687Y-114906697D01*
X191715787Y-114749532D01*
X191810298Y-114608087D01*
X191930587Y-114487798D01*
X192072032Y-114393287D01*
X192229197Y-114328187D01*
X192396043Y-114295000D01*
X192566157Y-114295000D01*
X192733003Y-114328187D01*
X192733003Y-114328187D01*
G37*
G36*
X195273003Y-114328187D02*
G01*
X195430168Y-114393287D01*
X195571613Y-114487798D01*
X195691902Y-114608087D01*
X195786413Y-114749532D01*
X195851513Y-114906697D01*
X195884700Y-115073543D01*
X195884700Y-115243657D01*
X195851513Y-115410503D01*
X195786413Y-115567668D01*
X195691902Y-115709113D01*
X195571613Y-115829402D01*
X195430168Y-115923913D01*
X195273003Y-115989013D01*
X195106157Y-116022200D01*
X194936043Y-116022200D01*
X194769197Y-115989013D01*
X194612032Y-115923913D01*
X194470587Y-115829402D01*
X194350298Y-115709113D01*
X194255787Y-115567668D01*
X194190687Y-115410503D01*
X194157500Y-115243657D01*
X194157500Y-115073543D01*
X194190687Y-114906697D01*
X194255787Y-114749532D01*
X194350298Y-114608087D01*
X194470587Y-114487798D01*
X194612032Y-114393287D01*
X194769197Y-114328187D01*
X194936043Y-114295000D01*
X195106157Y-114295000D01*
X195273003Y-114328187D01*
X195273003Y-114328187D01*
G37*
G36*
X190193003Y-114328187D02*
G01*
X190350168Y-114393287D01*
X190491613Y-114487798D01*
X190611902Y-114608087D01*
X190706413Y-114749532D01*
X190771513Y-114906697D01*
X190804700Y-115073543D01*
X190804700Y-115243657D01*
X190771513Y-115410503D01*
X190706413Y-115567668D01*
X190611902Y-115709113D01*
X190491613Y-115829402D01*
X190350168Y-115923913D01*
X190193003Y-115989013D01*
X190026157Y-116022200D01*
X189856043Y-116022200D01*
X189689197Y-115989013D01*
X189532032Y-115923913D01*
X189390587Y-115829402D01*
X189270298Y-115709113D01*
X189175787Y-115567668D01*
X189110687Y-115410503D01*
X189077500Y-115243657D01*
X189077500Y-115073543D01*
X189110687Y-114906697D01*
X189175787Y-114749532D01*
X189270298Y-114608087D01*
X189390587Y-114487798D01*
X189532032Y-114393287D01*
X189689197Y-114328187D01*
X189856043Y-114295000D01*
X190026157Y-114295000D01*
X190193003Y-114328187D01*
X190193003Y-114328187D01*
G37*
G36*
X144394295Y-114416122D02*
G01*
X144443367Y-114425883D01*
X144582042Y-114483324D01*
X144706847Y-114566716D01*
X144812984Y-114672853D01*
X144896376Y-114797658D01*
X144953817Y-114936333D01*
X144983100Y-115083550D01*
X144983100Y-115233650D01*
X144953817Y-115380867D01*
X144896376Y-115519542D01*
X144812984Y-115644347D01*
X144706847Y-115750484D01*
X144582042Y-115833876D01*
X144443367Y-115891317D01*
X144394295Y-115901078D01*
X144296152Y-115920600D01*
X144146048Y-115920600D01*
X144047905Y-115901078D01*
X143998833Y-115891317D01*
X143860158Y-115833876D01*
X143735353Y-115750484D01*
X143629216Y-115644347D01*
X143545824Y-115519542D01*
X143488383Y-115380867D01*
X143459100Y-115233650D01*
X143459100Y-115083550D01*
X143488383Y-114936333D01*
X143545824Y-114797658D01*
X143629216Y-114672853D01*
X143735353Y-114566716D01*
X143860158Y-114483324D01*
X143998833Y-114425883D01*
X144047905Y-114416122D01*
X144146048Y-114396600D01*
X144296152Y-114396600D01*
X144394295Y-114416122D01*
X144394295Y-114416122D01*
G37*
G36*
X141854295Y-114416122D02*
G01*
X141903367Y-114425883D01*
X142042042Y-114483324D01*
X142166847Y-114566716D01*
X142272984Y-114672853D01*
X142356376Y-114797658D01*
X142413817Y-114936333D01*
X142443100Y-115083550D01*
X142443100Y-115233650D01*
X142413817Y-115380867D01*
X142356376Y-115519542D01*
X142272984Y-115644347D01*
X142166847Y-115750484D01*
X142042042Y-115833876D01*
X141903367Y-115891317D01*
X141854295Y-115901078D01*
X141756152Y-115920600D01*
X141606048Y-115920600D01*
X141507905Y-115901078D01*
X141458833Y-115891317D01*
X141320158Y-115833876D01*
X141195353Y-115750484D01*
X141089216Y-115644347D01*
X141005824Y-115519542D01*
X140948383Y-115380867D01*
X140919100Y-115233650D01*
X140919100Y-115083550D01*
X140948383Y-114936333D01*
X141005824Y-114797658D01*
X141089216Y-114672853D01*
X141195353Y-114566716D01*
X141320158Y-114483324D01*
X141458833Y-114425883D01*
X141507905Y-114416122D01*
X141606048Y-114396600D01*
X141756152Y-114396600D01*
X141854295Y-114416122D01*
X141854295Y-114416122D01*
G37*
G36*
X176144295Y-114416122D02*
G01*
X176193367Y-114425883D01*
X176332042Y-114483324D01*
X176456847Y-114566716D01*
X176562984Y-114672853D01*
X176646376Y-114797658D01*
X176703817Y-114936333D01*
X176733100Y-115083550D01*
X176733100Y-115233650D01*
X176703817Y-115380867D01*
X176646376Y-115519542D01*
X176562984Y-115644347D01*
X176456847Y-115750484D01*
X176332042Y-115833876D01*
X176193367Y-115891317D01*
X176144295Y-115901078D01*
X176046152Y-115920600D01*
X175896048Y-115920600D01*
X175797905Y-115901078D01*
X175748833Y-115891317D01*
X175610158Y-115833876D01*
X175485353Y-115750484D01*
X175379216Y-115644347D01*
X175295824Y-115519542D01*
X175238383Y-115380867D01*
X175209100Y-115233650D01*
X175209100Y-115083550D01*
X175238383Y-114936333D01*
X175295824Y-114797658D01*
X175379216Y-114672853D01*
X175485353Y-114566716D01*
X175610158Y-114483324D01*
X175748833Y-114425883D01*
X175797905Y-114416122D01*
X175896048Y-114396600D01*
X176046152Y-114396600D01*
X176144295Y-114416122D01*
X176144295Y-114416122D01*
G37*
G36*
X99920477Y-111207226D02*
G01*
X100026741Y-111239461D01*
X100064118Y-111250799D01*
X100196490Y-111321554D01*
X100196492Y-111321555D01*
X100196491Y-111321555D01*
X100312522Y-111416778D01*
X100390670Y-111512002D01*
X100407746Y-111532809D01*
X100478501Y-111665181D01*
X100489839Y-111702558D01*
X100522074Y-111808822D01*
X100533100Y-111920774D01*
X100533100Y-113316426D01*
X100522074Y-113428378D01*
X100515814Y-113449013D01*
X100478501Y-113572019D01*
X100407746Y-113704391D01*
X100312522Y-113820422D01*
X100196491Y-113915646D01*
X100064119Y-113986401D01*
X100026742Y-113997739D01*
X99920478Y-114029974D01*
X99771100Y-114044686D01*
X99621723Y-114029974D01*
X99515459Y-113997739D01*
X99478082Y-113986401D01*
X99345710Y-113915646D01*
X99229679Y-113820422D01*
X99134455Y-113704391D01*
X99063700Y-113572019D01*
X99026387Y-113449013D01*
X99020127Y-113428378D01*
X99009101Y-113316426D01*
X99009100Y-111920775D01*
X99020126Y-111808823D01*
X99063698Y-111665186D01*
X99063699Y-111665182D01*
X99134454Y-111532810D01*
X99148934Y-111515166D01*
X99229678Y-111416778D01*
X99345708Y-111321555D01*
X99345707Y-111321555D01*
X99345709Y-111321554D01*
X99478081Y-111250799D01*
X99515458Y-111239461D01*
X99621722Y-111207226D01*
X99771100Y-111192514D01*
X99920477Y-111207226D01*
X99920477Y-111207226D01*
G37*
G36*
X153260477Y-111207226D02*
G01*
X153366741Y-111239461D01*
X153404118Y-111250799D01*
X153536490Y-111321554D01*
X153536492Y-111321555D01*
X153536491Y-111321555D01*
X153652522Y-111416778D01*
X153730670Y-111512002D01*
X153747746Y-111532809D01*
X153818501Y-111665181D01*
X153829839Y-111702558D01*
X153862074Y-111808822D01*
X153873100Y-111920774D01*
X153873100Y-113316426D01*
X153862074Y-113428378D01*
X153855814Y-113449013D01*
X153818501Y-113572019D01*
X153747746Y-113704391D01*
X153652522Y-113820422D01*
X153536491Y-113915646D01*
X153404119Y-113986401D01*
X153366742Y-113997739D01*
X153260478Y-114029974D01*
X153111100Y-114044686D01*
X152961723Y-114029974D01*
X152855459Y-113997739D01*
X152818082Y-113986401D01*
X152685710Y-113915646D01*
X152569679Y-113820422D01*
X152474455Y-113704391D01*
X152403700Y-113572019D01*
X152366387Y-113449013D01*
X152360127Y-113428378D01*
X152349101Y-113316426D01*
X152349100Y-111920775D01*
X152360126Y-111808823D01*
X152403698Y-111665186D01*
X152403699Y-111665182D01*
X152474454Y-111532810D01*
X152488934Y-111515166D01*
X152569678Y-111416778D01*
X152685708Y-111321555D01*
X152685707Y-111321555D01*
X152685709Y-111321554D01*
X152818081Y-111250799D01*
X152855458Y-111239461D01*
X152961722Y-111207226D01*
X153111100Y-111192514D01*
X153260477Y-111207226D01*
X153260477Y-111207226D01*
G37*
G36*
X155800477Y-111207226D02*
G01*
X155906741Y-111239461D01*
X155944118Y-111250799D01*
X156076490Y-111321554D01*
X156076492Y-111321555D01*
X156076491Y-111321555D01*
X156192522Y-111416778D01*
X156270670Y-111512002D01*
X156287746Y-111532809D01*
X156358501Y-111665181D01*
X156369839Y-111702558D01*
X156402074Y-111808822D01*
X156413100Y-111920774D01*
X156413100Y-113316426D01*
X156402074Y-113428378D01*
X156395814Y-113449013D01*
X156358501Y-113572019D01*
X156287746Y-113704391D01*
X156192522Y-113820422D01*
X156076491Y-113915646D01*
X155944119Y-113986401D01*
X155906742Y-113997739D01*
X155800478Y-114029974D01*
X155651100Y-114044686D01*
X155501723Y-114029974D01*
X155395459Y-113997739D01*
X155358082Y-113986401D01*
X155225710Y-113915646D01*
X155109679Y-113820422D01*
X155014455Y-113704391D01*
X154943700Y-113572019D01*
X154906387Y-113449013D01*
X154900127Y-113428378D01*
X154889101Y-113316426D01*
X154889100Y-111920775D01*
X154900126Y-111808823D01*
X154943698Y-111665186D01*
X154943699Y-111665182D01*
X155014454Y-111532810D01*
X155028934Y-111515166D01*
X155109678Y-111416778D01*
X155225708Y-111321555D01*
X155225707Y-111321555D01*
X155225709Y-111321554D01*
X155358081Y-111250799D01*
X155395458Y-111239461D01*
X155501722Y-111207226D01*
X155651100Y-111192514D01*
X155800477Y-111207226D01*
X155800477Y-111207226D01*
G37*
G36*
X158340477Y-111207226D02*
G01*
X158446741Y-111239461D01*
X158484118Y-111250799D01*
X158616490Y-111321554D01*
X158616492Y-111321555D01*
X158616491Y-111321555D01*
X158732522Y-111416778D01*
X158810670Y-111512002D01*
X158827746Y-111532809D01*
X158898501Y-111665181D01*
X158909839Y-111702558D01*
X158942074Y-111808822D01*
X158953100Y-111920774D01*
X158953100Y-113316426D01*
X158942074Y-113428378D01*
X158935814Y-113449013D01*
X158898501Y-113572019D01*
X158827746Y-113704391D01*
X158732522Y-113820422D01*
X158616491Y-113915646D01*
X158484119Y-113986401D01*
X158446742Y-113997739D01*
X158340478Y-114029974D01*
X158191100Y-114044686D01*
X158041723Y-114029974D01*
X157935459Y-113997739D01*
X157898082Y-113986401D01*
X157765710Y-113915646D01*
X157649679Y-113820422D01*
X157554455Y-113704391D01*
X157483700Y-113572019D01*
X157446387Y-113449013D01*
X157440127Y-113428378D01*
X157429101Y-113316426D01*
X157429100Y-111920775D01*
X157440126Y-111808823D01*
X157483698Y-111665186D01*
X157483699Y-111665182D01*
X157554454Y-111532810D01*
X157568934Y-111515166D01*
X157649678Y-111416778D01*
X157765708Y-111321555D01*
X157765707Y-111321555D01*
X157765709Y-111321554D01*
X157898081Y-111250799D01*
X157935458Y-111239461D01*
X158041722Y-111207226D01*
X158191100Y-111192514D01*
X158340477Y-111207226D01*
X158340477Y-111207226D01*
G37*
G36*
X160880477Y-111207226D02*
G01*
X160986741Y-111239461D01*
X161024118Y-111250799D01*
X161156490Y-111321554D01*
X161156492Y-111321555D01*
X161156491Y-111321555D01*
X161272522Y-111416778D01*
X161350670Y-111512002D01*
X161367746Y-111532809D01*
X161438501Y-111665181D01*
X161449839Y-111702558D01*
X161482074Y-111808822D01*
X161493100Y-111920774D01*
X161493100Y-113316426D01*
X161482074Y-113428378D01*
X161475814Y-113449013D01*
X161438501Y-113572019D01*
X161367746Y-113704391D01*
X161272522Y-113820422D01*
X161156491Y-113915646D01*
X161024119Y-113986401D01*
X160986742Y-113997739D01*
X160880478Y-114029974D01*
X160731100Y-114044686D01*
X160581723Y-114029974D01*
X160475459Y-113997739D01*
X160438082Y-113986401D01*
X160305710Y-113915646D01*
X160189679Y-113820422D01*
X160094455Y-113704391D01*
X160023700Y-113572019D01*
X159986387Y-113449013D01*
X159980127Y-113428378D01*
X159969101Y-113316426D01*
X159969100Y-111920775D01*
X159980126Y-111808823D01*
X160023698Y-111665186D01*
X160023699Y-111665182D01*
X160094454Y-111532810D01*
X160108934Y-111515166D01*
X160189678Y-111416778D01*
X160305708Y-111321555D01*
X160305707Y-111321555D01*
X160305709Y-111321554D01*
X160438081Y-111250799D01*
X160475458Y-111239461D01*
X160581722Y-111207226D01*
X160731100Y-111192514D01*
X160880477Y-111207226D01*
X160880477Y-111207226D01*
G37*
G36*
X163420477Y-111207226D02*
G01*
X163526741Y-111239461D01*
X163564118Y-111250799D01*
X163696490Y-111321554D01*
X163696492Y-111321555D01*
X163696491Y-111321555D01*
X163812522Y-111416778D01*
X163890670Y-111512002D01*
X163907746Y-111532809D01*
X163978501Y-111665181D01*
X163989839Y-111702558D01*
X164022074Y-111808822D01*
X164033100Y-111920774D01*
X164033100Y-113316426D01*
X164022074Y-113428378D01*
X164015814Y-113449013D01*
X163978501Y-113572019D01*
X163907746Y-113704391D01*
X163812522Y-113820422D01*
X163696491Y-113915646D01*
X163564119Y-113986401D01*
X163526742Y-113997739D01*
X163420478Y-114029974D01*
X163271100Y-114044686D01*
X163121723Y-114029974D01*
X163015459Y-113997739D01*
X162978082Y-113986401D01*
X162845710Y-113915646D01*
X162729679Y-113820422D01*
X162634455Y-113704391D01*
X162563700Y-113572019D01*
X162526387Y-113449013D01*
X162520127Y-113428378D01*
X162509101Y-113316426D01*
X162509100Y-111920775D01*
X162520126Y-111808823D01*
X162563698Y-111665186D01*
X162563699Y-111665182D01*
X162634454Y-111532810D01*
X162648934Y-111515166D01*
X162729678Y-111416778D01*
X162845708Y-111321555D01*
X162845707Y-111321555D01*
X162845709Y-111321554D01*
X162978081Y-111250799D01*
X163015458Y-111239461D01*
X163121722Y-111207226D01*
X163271100Y-111192514D01*
X163420477Y-111207226D01*
X163420477Y-111207226D01*
G37*
G36*
X165960477Y-111207226D02*
G01*
X166066741Y-111239461D01*
X166104118Y-111250799D01*
X166236490Y-111321554D01*
X166236492Y-111321555D01*
X166236491Y-111321555D01*
X166352522Y-111416778D01*
X166430670Y-111512002D01*
X166447746Y-111532809D01*
X166518501Y-111665181D01*
X166529839Y-111702558D01*
X166562074Y-111808822D01*
X166573100Y-111920774D01*
X166573100Y-113316426D01*
X166562074Y-113428378D01*
X166555814Y-113449013D01*
X166518501Y-113572019D01*
X166447746Y-113704391D01*
X166352522Y-113820422D01*
X166236491Y-113915646D01*
X166104119Y-113986401D01*
X166066742Y-113997739D01*
X165960478Y-114029974D01*
X165811100Y-114044686D01*
X165661723Y-114029974D01*
X165555459Y-113997739D01*
X165518082Y-113986401D01*
X165385710Y-113915646D01*
X165269679Y-113820422D01*
X165174455Y-113704391D01*
X165103700Y-113572019D01*
X165066387Y-113449013D01*
X165060127Y-113428378D01*
X165049101Y-113316426D01*
X165049100Y-111920775D01*
X165060126Y-111808823D01*
X165103698Y-111665186D01*
X165103699Y-111665182D01*
X165174454Y-111532810D01*
X165188934Y-111515166D01*
X165269678Y-111416778D01*
X165385708Y-111321555D01*
X165385707Y-111321555D01*
X165385709Y-111321554D01*
X165518081Y-111250799D01*
X165555458Y-111239461D01*
X165661722Y-111207226D01*
X165811100Y-111192514D01*
X165960477Y-111207226D01*
X165960477Y-111207226D01*
G37*
G36*
X107540477Y-111207226D02*
G01*
X107646741Y-111239461D01*
X107684118Y-111250799D01*
X107816490Y-111321554D01*
X107816492Y-111321555D01*
X107816491Y-111321555D01*
X107932522Y-111416778D01*
X108010670Y-111512002D01*
X108027746Y-111532809D01*
X108098501Y-111665181D01*
X108109839Y-111702558D01*
X108142074Y-111808822D01*
X108153100Y-111920774D01*
X108153100Y-113316426D01*
X108142074Y-113428378D01*
X108135814Y-113449013D01*
X108098501Y-113572019D01*
X108027746Y-113704391D01*
X107932522Y-113820422D01*
X107816491Y-113915646D01*
X107684119Y-113986401D01*
X107646742Y-113997739D01*
X107540478Y-114029974D01*
X107391100Y-114044686D01*
X107241723Y-114029974D01*
X107135459Y-113997739D01*
X107098082Y-113986401D01*
X106965710Y-113915646D01*
X106849679Y-113820422D01*
X106754455Y-113704391D01*
X106683700Y-113572019D01*
X106646387Y-113449013D01*
X106640127Y-113428378D01*
X106629101Y-113316426D01*
X106629100Y-111920775D01*
X106640126Y-111808823D01*
X106683698Y-111665186D01*
X106683699Y-111665182D01*
X106754454Y-111532810D01*
X106768934Y-111515166D01*
X106849678Y-111416778D01*
X106965708Y-111321555D01*
X106965707Y-111321555D01*
X106965709Y-111321554D01*
X107098081Y-111250799D01*
X107135458Y-111239461D01*
X107241722Y-111207226D01*
X107391100Y-111192514D01*
X107540477Y-111207226D01*
X107540477Y-111207226D01*
G37*
G36*
X105000477Y-111207226D02*
G01*
X105106741Y-111239461D01*
X105144118Y-111250799D01*
X105276490Y-111321554D01*
X105276492Y-111321555D01*
X105276491Y-111321555D01*
X105392522Y-111416778D01*
X105470670Y-111512002D01*
X105487746Y-111532809D01*
X105558501Y-111665181D01*
X105569839Y-111702558D01*
X105602074Y-111808822D01*
X105613100Y-111920774D01*
X105613100Y-113316426D01*
X105602074Y-113428378D01*
X105595814Y-113449013D01*
X105558501Y-113572019D01*
X105487746Y-113704391D01*
X105392522Y-113820422D01*
X105276491Y-113915646D01*
X105144119Y-113986401D01*
X105106742Y-113997739D01*
X105000478Y-114029974D01*
X104851100Y-114044686D01*
X104701723Y-114029974D01*
X104595459Y-113997739D01*
X104558082Y-113986401D01*
X104425710Y-113915646D01*
X104309679Y-113820422D01*
X104214455Y-113704391D01*
X104143700Y-113572019D01*
X104106387Y-113449013D01*
X104100127Y-113428378D01*
X104089101Y-113316426D01*
X104089100Y-111920775D01*
X104100126Y-111808823D01*
X104143698Y-111665186D01*
X104143699Y-111665182D01*
X104214454Y-111532810D01*
X104228934Y-111515166D01*
X104309678Y-111416778D01*
X104425708Y-111321555D01*
X104425707Y-111321555D01*
X104425709Y-111321554D01*
X104558081Y-111250799D01*
X104595458Y-111239461D01*
X104701722Y-111207226D01*
X104851100Y-111192514D01*
X105000477Y-111207226D01*
X105000477Y-111207226D01*
G37*
G36*
X115160477Y-111207226D02*
G01*
X115266741Y-111239461D01*
X115304118Y-111250799D01*
X115436490Y-111321554D01*
X115436492Y-111321555D01*
X115436491Y-111321555D01*
X115552522Y-111416778D01*
X115630670Y-111512002D01*
X115647746Y-111532809D01*
X115718501Y-111665181D01*
X115729839Y-111702558D01*
X115762074Y-111808822D01*
X115773100Y-111920774D01*
X115773100Y-113316426D01*
X115762074Y-113428378D01*
X115755814Y-113449013D01*
X115718501Y-113572019D01*
X115647746Y-113704391D01*
X115552522Y-113820422D01*
X115436491Y-113915646D01*
X115304119Y-113986401D01*
X115266742Y-113997739D01*
X115160478Y-114029974D01*
X115011100Y-114044686D01*
X114861723Y-114029974D01*
X114755459Y-113997739D01*
X114718082Y-113986401D01*
X114585710Y-113915646D01*
X114469679Y-113820422D01*
X114374455Y-113704391D01*
X114303700Y-113572019D01*
X114266387Y-113449013D01*
X114260127Y-113428378D01*
X114249101Y-113316426D01*
X114249100Y-111920775D01*
X114260126Y-111808823D01*
X114303698Y-111665186D01*
X114303699Y-111665182D01*
X114374454Y-111532810D01*
X114388934Y-111515166D01*
X114469678Y-111416778D01*
X114585708Y-111321555D01*
X114585707Y-111321555D01*
X114585709Y-111321554D01*
X114718081Y-111250799D01*
X114755458Y-111239461D01*
X114861722Y-111207226D01*
X115011100Y-111192514D01*
X115160477Y-111207226D01*
X115160477Y-111207226D01*
G37*
G36*
X102460477Y-111207226D02*
G01*
X102566741Y-111239461D01*
X102604118Y-111250799D01*
X102736490Y-111321554D01*
X102736492Y-111321555D01*
X102736491Y-111321555D01*
X102852522Y-111416778D01*
X102930670Y-111512002D01*
X102947746Y-111532809D01*
X103018501Y-111665181D01*
X103029839Y-111702558D01*
X103062074Y-111808822D01*
X103073100Y-111920774D01*
X103073100Y-113316426D01*
X103062074Y-113428378D01*
X103055814Y-113449013D01*
X103018501Y-113572019D01*
X102947746Y-113704391D01*
X102852522Y-113820422D01*
X102736491Y-113915646D01*
X102604119Y-113986401D01*
X102566742Y-113997739D01*
X102460478Y-114029974D01*
X102311100Y-114044686D01*
X102161723Y-114029974D01*
X102055459Y-113997739D01*
X102018082Y-113986401D01*
X101885710Y-113915646D01*
X101769679Y-113820422D01*
X101674455Y-113704391D01*
X101603700Y-113572019D01*
X101566387Y-113449013D01*
X101560127Y-113428378D01*
X101549101Y-113316426D01*
X101549100Y-111920775D01*
X101560126Y-111808823D01*
X101603698Y-111665186D01*
X101603699Y-111665182D01*
X101674454Y-111532810D01*
X101688934Y-111515166D01*
X101769678Y-111416778D01*
X101885708Y-111321555D01*
X101885707Y-111321555D01*
X101885709Y-111321554D01*
X102018081Y-111250799D01*
X102055458Y-111239461D01*
X102161722Y-111207226D01*
X102311100Y-111192514D01*
X102460477Y-111207226D01*
X102460477Y-111207226D01*
G37*
G36*
X112620477Y-111207226D02*
G01*
X112726741Y-111239461D01*
X112764118Y-111250799D01*
X112896490Y-111321554D01*
X112896492Y-111321555D01*
X112896491Y-111321555D01*
X113012522Y-111416778D01*
X113090670Y-111512002D01*
X113107746Y-111532809D01*
X113178501Y-111665181D01*
X113189839Y-111702558D01*
X113222074Y-111808822D01*
X113233100Y-111920774D01*
X113233100Y-113316426D01*
X113222074Y-113428378D01*
X113215814Y-113449013D01*
X113178501Y-113572019D01*
X113107746Y-113704391D01*
X113012522Y-113820422D01*
X112896491Y-113915646D01*
X112764119Y-113986401D01*
X112726742Y-113997739D01*
X112620478Y-114029974D01*
X112471100Y-114044686D01*
X112321723Y-114029974D01*
X112215459Y-113997739D01*
X112178082Y-113986401D01*
X112045710Y-113915646D01*
X111929679Y-113820422D01*
X111834455Y-113704391D01*
X111763700Y-113572019D01*
X111726387Y-113449013D01*
X111720127Y-113428378D01*
X111709101Y-113316426D01*
X111709100Y-111920775D01*
X111720126Y-111808823D01*
X111763698Y-111665186D01*
X111763699Y-111665182D01*
X111834454Y-111532810D01*
X111848934Y-111515166D01*
X111929678Y-111416778D01*
X112045708Y-111321555D01*
X112045707Y-111321555D01*
X112045709Y-111321554D01*
X112178081Y-111250799D01*
X112215458Y-111239461D01*
X112321722Y-111207226D01*
X112471100Y-111192514D01*
X112620477Y-111207226D01*
X112620477Y-111207226D01*
G37*
G36*
X110080477Y-111207226D02*
G01*
X110186741Y-111239461D01*
X110224118Y-111250799D01*
X110356490Y-111321554D01*
X110356492Y-111321555D01*
X110356491Y-111321555D01*
X110472522Y-111416778D01*
X110550670Y-111512002D01*
X110567746Y-111532809D01*
X110638501Y-111665181D01*
X110649839Y-111702558D01*
X110682074Y-111808822D01*
X110693100Y-111920774D01*
X110693100Y-113316426D01*
X110682074Y-113428378D01*
X110675814Y-113449013D01*
X110638501Y-113572019D01*
X110567746Y-113704391D01*
X110472522Y-113820422D01*
X110356491Y-113915646D01*
X110224119Y-113986401D01*
X110186742Y-113997739D01*
X110080478Y-114029974D01*
X109931100Y-114044686D01*
X109781723Y-114029974D01*
X109675459Y-113997739D01*
X109638082Y-113986401D01*
X109505710Y-113915646D01*
X109389679Y-113820422D01*
X109294455Y-113704391D01*
X109223700Y-113572019D01*
X109186387Y-113449013D01*
X109180127Y-113428378D01*
X109169101Y-113316426D01*
X109169100Y-111920775D01*
X109180126Y-111808823D01*
X109223698Y-111665186D01*
X109223699Y-111665182D01*
X109294454Y-111532810D01*
X109308934Y-111515166D01*
X109389678Y-111416778D01*
X109505708Y-111321555D01*
X109505707Y-111321555D01*
X109505709Y-111321554D01*
X109638081Y-111250799D01*
X109675458Y-111239461D01*
X109781722Y-111207226D01*
X109931100Y-111192514D01*
X110080477Y-111207226D01*
X110080477Y-111207226D01*
G37*
G36*
X135480477Y-111207226D02*
G01*
X135586741Y-111239461D01*
X135624118Y-111250799D01*
X135756490Y-111321554D01*
X135756492Y-111321555D01*
X135756491Y-111321555D01*
X135872522Y-111416778D01*
X135950670Y-111512002D01*
X135967746Y-111532809D01*
X136038501Y-111665181D01*
X136049839Y-111702558D01*
X136082074Y-111808822D01*
X136093100Y-111920774D01*
X136093100Y-113316426D01*
X136082074Y-113428378D01*
X136075814Y-113449013D01*
X136038501Y-113572019D01*
X135967746Y-113704391D01*
X135872522Y-113820422D01*
X135756491Y-113915646D01*
X135624119Y-113986401D01*
X135586742Y-113997739D01*
X135480478Y-114029974D01*
X135331100Y-114044686D01*
X135181723Y-114029974D01*
X135075459Y-113997739D01*
X135038082Y-113986401D01*
X134905710Y-113915646D01*
X134789679Y-113820422D01*
X134694455Y-113704391D01*
X134623700Y-113572019D01*
X134586387Y-113449013D01*
X134580127Y-113428378D01*
X134569101Y-113316426D01*
X134569100Y-111920775D01*
X134580126Y-111808823D01*
X134623698Y-111665186D01*
X134623699Y-111665182D01*
X134694454Y-111532810D01*
X134708934Y-111515166D01*
X134789678Y-111416778D01*
X134905708Y-111321555D01*
X134905707Y-111321555D01*
X134905709Y-111321554D01*
X135038081Y-111250799D01*
X135075458Y-111239461D01*
X135181722Y-111207226D01*
X135331100Y-111192514D01*
X135480477Y-111207226D01*
X135480477Y-111207226D01*
G37*
G36*
X150720477Y-111207226D02*
G01*
X150826741Y-111239461D01*
X150864118Y-111250799D01*
X150996490Y-111321554D01*
X150996492Y-111321555D01*
X150996491Y-111321555D01*
X151112522Y-111416778D01*
X151190670Y-111512002D01*
X151207746Y-111532809D01*
X151278501Y-111665181D01*
X151289839Y-111702558D01*
X151322074Y-111808822D01*
X151333100Y-111920774D01*
X151333100Y-113316426D01*
X151322074Y-113428378D01*
X151315814Y-113449013D01*
X151278501Y-113572019D01*
X151207746Y-113704391D01*
X151112522Y-113820422D01*
X150996491Y-113915646D01*
X150864119Y-113986401D01*
X150826742Y-113997739D01*
X150720478Y-114029974D01*
X150571100Y-114044686D01*
X150421723Y-114029974D01*
X150315459Y-113997739D01*
X150278082Y-113986401D01*
X150145710Y-113915646D01*
X150029679Y-113820422D01*
X149934455Y-113704391D01*
X149863700Y-113572019D01*
X149826387Y-113449013D01*
X149820127Y-113428378D01*
X149809101Y-113316426D01*
X149809100Y-111920775D01*
X149820126Y-111808823D01*
X149863698Y-111665186D01*
X149863699Y-111665182D01*
X149934454Y-111532810D01*
X149948934Y-111515166D01*
X150029678Y-111416778D01*
X150145708Y-111321555D01*
X150145707Y-111321555D01*
X150145709Y-111321554D01*
X150278081Y-111250799D01*
X150315458Y-111239461D01*
X150421722Y-111207226D01*
X150571100Y-111192514D01*
X150720477Y-111207226D01*
X150720477Y-111207226D01*
G37*
G36*
X148180477Y-111207226D02*
G01*
X148286741Y-111239461D01*
X148324118Y-111250799D01*
X148456490Y-111321554D01*
X148456492Y-111321555D01*
X148456491Y-111321555D01*
X148572522Y-111416778D01*
X148650670Y-111512002D01*
X148667746Y-111532809D01*
X148738501Y-111665181D01*
X148749839Y-111702558D01*
X148782074Y-111808822D01*
X148793100Y-111920774D01*
X148793100Y-113316426D01*
X148782074Y-113428378D01*
X148775814Y-113449013D01*
X148738501Y-113572019D01*
X148667746Y-113704391D01*
X148572522Y-113820422D01*
X148456491Y-113915646D01*
X148324119Y-113986401D01*
X148286742Y-113997739D01*
X148180478Y-114029974D01*
X148031100Y-114044686D01*
X147881723Y-114029974D01*
X147775459Y-113997739D01*
X147738082Y-113986401D01*
X147605710Y-113915646D01*
X147489679Y-113820422D01*
X147394455Y-113704391D01*
X147323700Y-113572019D01*
X147286387Y-113449013D01*
X147280127Y-113428378D01*
X147269101Y-113316426D01*
X147269100Y-111920775D01*
X147280126Y-111808823D01*
X147323698Y-111665186D01*
X147323699Y-111665182D01*
X147394454Y-111532810D01*
X147408934Y-111515166D01*
X147489678Y-111416778D01*
X147605708Y-111321555D01*
X147605707Y-111321555D01*
X147605709Y-111321554D01*
X147738081Y-111250799D01*
X147775458Y-111239461D01*
X147881722Y-111207226D01*
X148031100Y-111192514D01*
X148180477Y-111207226D01*
X148180477Y-111207226D01*
G37*
G36*
X145640477Y-111207226D02*
G01*
X145746741Y-111239461D01*
X145784118Y-111250799D01*
X145916490Y-111321554D01*
X145916492Y-111321555D01*
X145916491Y-111321555D01*
X146032522Y-111416778D01*
X146110670Y-111512002D01*
X146127746Y-111532809D01*
X146198501Y-111665181D01*
X146209839Y-111702558D01*
X146242074Y-111808822D01*
X146253100Y-111920774D01*
X146253100Y-113316426D01*
X146242074Y-113428378D01*
X146235814Y-113449013D01*
X146198501Y-113572019D01*
X146127746Y-113704391D01*
X146032522Y-113820422D01*
X145916491Y-113915646D01*
X145784119Y-113986401D01*
X145746742Y-113997739D01*
X145640478Y-114029974D01*
X145491100Y-114044686D01*
X145341723Y-114029974D01*
X145235459Y-113997739D01*
X145198082Y-113986401D01*
X145065710Y-113915646D01*
X144949679Y-113820422D01*
X144854455Y-113704391D01*
X144783700Y-113572019D01*
X144746387Y-113449013D01*
X144740127Y-113428378D01*
X144729101Y-113316426D01*
X144729100Y-111920775D01*
X144740126Y-111808823D01*
X144783698Y-111665186D01*
X144783699Y-111665182D01*
X144854454Y-111532810D01*
X144868934Y-111515166D01*
X144949678Y-111416778D01*
X145065708Y-111321555D01*
X145065707Y-111321555D01*
X145065709Y-111321554D01*
X145198081Y-111250799D01*
X145235458Y-111239461D01*
X145341722Y-111207226D01*
X145491100Y-111192514D01*
X145640477Y-111207226D01*
X145640477Y-111207226D01*
G37*
G36*
X143100477Y-111207226D02*
G01*
X143206741Y-111239461D01*
X143244118Y-111250799D01*
X143376490Y-111321554D01*
X143376492Y-111321555D01*
X143376491Y-111321555D01*
X143492522Y-111416778D01*
X143570670Y-111512002D01*
X143587746Y-111532809D01*
X143658501Y-111665181D01*
X143669839Y-111702558D01*
X143702074Y-111808822D01*
X143713100Y-111920774D01*
X143713100Y-113316426D01*
X143702074Y-113428378D01*
X143695814Y-113449013D01*
X143658501Y-113572019D01*
X143587746Y-113704391D01*
X143492522Y-113820422D01*
X143376491Y-113915646D01*
X143244119Y-113986401D01*
X143206742Y-113997739D01*
X143100478Y-114029974D01*
X142951100Y-114044686D01*
X142801723Y-114029974D01*
X142695459Y-113997739D01*
X142658082Y-113986401D01*
X142525710Y-113915646D01*
X142409679Y-113820422D01*
X142314455Y-113704391D01*
X142243700Y-113572019D01*
X142206387Y-113449013D01*
X142200127Y-113428378D01*
X142189101Y-113316426D01*
X142189100Y-111920775D01*
X142200126Y-111808823D01*
X142243698Y-111665186D01*
X142243699Y-111665182D01*
X142314454Y-111532810D01*
X142328934Y-111515166D01*
X142409678Y-111416778D01*
X142525708Y-111321555D01*
X142525707Y-111321555D01*
X142525709Y-111321554D01*
X142658081Y-111250799D01*
X142695458Y-111239461D01*
X142801722Y-111207226D01*
X142951100Y-111192514D01*
X143100477Y-111207226D01*
X143100477Y-111207226D01*
G37*
G36*
X140560477Y-111207226D02*
G01*
X140666741Y-111239461D01*
X140704118Y-111250799D01*
X140836490Y-111321554D01*
X140836492Y-111321555D01*
X140836491Y-111321555D01*
X140952522Y-111416778D01*
X141030670Y-111512002D01*
X141047746Y-111532809D01*
X141118501Y-111665181D01*
X141129839Y-111702558D01*
X141162074Y-111808822D01*
X141173100Y-111920774D01*
X141173100Y-113316426D01*
X141162074Y-113428378D01*
X141155814Y-113449013D01*
X141118501Y-113572019D01*
X141047746Y-113704391D01*
X140952522Y-113820422D01*
X140836491Y-113915646D01*
X140704119Y-113986401D01*
X140666742Y-113997739D01*
X140560478Y-114029974D01*
X140411100Y-114044686D01*
X140261723Y-114029974D01*
X140155459Y-113997739D01*
X140118082Y-113986401D01*
X139985710Y-113915646D01*
X139869679Y-113820422D01*
X139774455Y-113704391D01*
X139703700Y-113572019D01*
X139666387Y-113449013D01*
X139660127Y-113428378D01*
X139649101Y-113316426D01*
X139649100Y-111920775D01*
X139660126Y-111808823D01*
X139703698Y-111665186D01*
X139703699Y-111665182D01*
X139774454Y-111532810D01*
X139788934Y-111515166D01*
X139869678Y-111416778D01*
X139985708Y-111321555D01*
X139985707Y-111321555D01*
X139985709Y-111321554D01*
X140118081Y-111250799D01*
X140155458Y-111239461D01*
X140261722Y-111207226D01*
X140411100Y-111192514D01*
X140560477Y-111207226D01*
X140560477Y-111207226D01*
G37*
G36*
X130400477Y-111207226D02*
G01*
X130506741Y-111239461D01*
X130544118Y-111250799D01*
X130676490Y-111321554D01*
X130676492Y-111321555D01*
X130676491Y-111321555D01*
X130792522Y-111416778D01*
X130870670Y-111512002D01*
X130887746Y-111532809D01*
X130958501Y-111665181D01*
X130969839Y-111702558D01*
X131002074Y-111808822D01*
X131013100Y-111920774D01*
X131013100Y-113316426D01*
X131002074Y-113428378D01*
X130995814Y-113449013D01*
X130958501Y-113572019D01*
X130887746Y-113704391D01*
X130792522Y-113820422D01*
X130676491Y-113915646D01*
X130544119Y-113986401D01*
X130506742Y-113997739D01*
X130400478Y-114029974D01*
X130251100Y-114044686D01*
X130101723Y-114029974D01*
X129995459Y-113997739D01*
X129958082Y-113986401D01*
X129825710Y-113915646D01*
X129709679Y-113820422D01*
X129614455Y-113704391D01*
X129543700Y-113572019D01*
X129506387Y-113449013D01*
X129500127Y-113428378D01*
X129489101Y-113316426D01*
X129489100Y-111920775D01*
X129500126Y-111808823D01*
X129543698Y-111665186D01*
X129543699Y-111665182D01*
X129614454Y-111532810D01*
X129628934Y-111515166D01*
X129709678Y-111416778D01*
X129825708Y-111321555D01*
X129825707Y-111321555D01*
X129825709Y-111321554D01*
X129958081Y-111250799D01*
X129995458Y-111239461D01*
X130101722Y-111207226D01*
X130251100Y-111192514D01*
X130400477Y-111207226D01*
X130400477Y-111207226D01*
G37*
G36*
X132940477Y-111207226D02*
G01*
X133046741Y-111239461D01*
X133084118Y-111250799D01*
X133216490Y-111321554D01*
X133216492Y-111321555D01*
X133216491Y-111321555D01*
X133332522Y-111416778D01*
X133410670Y-111512002D01*
X133427746Y-111532809D01*
X133498501Y-111665181D01*
X133509839Y-111702558D01*
X133542074Y-111808822D01*
X133553100Y-111920774D01*
X133553100Y-113316426D01*
X133542074Y-113428378D01*
X133535814Y-113449013D01*
X133498501Y-113572019D01*
X133427746Y-113704391D01*
X133332522Y-113820422D01*
X133216491Y-113915646D01*
X133084119Y-113986401D01*
X133046742Y-113997739D01*
X132940478Y-114029974D01*
X132791100Y-114044686D01*
X132641723Y-114029974D01*
X132535459Y-113997739D01*
X132498082Y-113986401D01*
X132365710Y-113915646D01*
X132249679Y-113820422D01*
X132154455Y-113704391D01*
X132083700Y-113572019D01*
X132046387Y-113449013D01*
X132040127Y-113428378D01*
X132029101Y-113316426D01*
X132029100Y-111920775D01*
X132040126Y-111808823D01*
X132083698Y-111665186D01*
X132083699Y-111665182D01*
X132154454Y-111532810D01*
X132168934Y-111515166D01*
X132249678Y-111416778D01*
X132365708Y-111321555D01*
X132365707Y-111321555D01*
X132365709Y-111321554D01*
X132498081Y-111250799D01*
X132535458Y-111239461D01*
X132641722Y-111207226D01*
X132791100Y-111192514D01*
X132940477Y-111207226D01*
X132940477Y-111207226D01*
G37*
G36*
X168500477Y-111207226D02*
G01*
X168606741Y-111239461D01*
X168644118Y-111250799D01*
X168776490Y-111321554D01*
X168776492Y-111321555D01*
X168776491Y-111321555D01*
X168892522Y-111416778D01*
X168970670Y-111512002D01*
X168987746Y-111532809D01*
X169058501Y-111665181D01*
X169069839Y-111702558D01*
X169102074Y-111808822D01*
X169113100Y-111920774D01*
X169113100Y-113316426D01*
X169102074Y-113428378D01*
X169095814Y-113449013D01*
X169058501Y-113572019D01*
X168987746Y-113704391D01*
X168892522Y-113820422D01*
X168776491Y-113915646D01*
X168644119Y-113986401D01*
X168606742Y-113997739D01*
X168500478Y-114029974D01*
X168351100Y-114044686D01*
X168201723Y-114029974D01*
X168095459Y-113997739D01*
X168058082Y-113986401D01*
X167925710Y-113915646D01*
X167809679Y-113820422D01*
X167714455Y-113704391D01*
X167643700Y-113572019D01*
X167606387Y-113449013D01*
X167600127Y-113428378D01*
X167589101Y-113316426D01*
X167589100Y-111920775D01*
X167600126Y-111808823D01*
X167643698Y-111665186D01*
X167643699Y-111665182D01*
X167714454Y-111532810D01*
X167728934Y-111515166D01*
X167809678Y-111416778D01*
X167925708Y-111321555D01*
X167925707Y-111321555D01*
X167925709Y-111321554D01*
X168058081Y-111250799D01*
X168095458Y-111239461D01*
X168201722Y-111207226D01*
X168351100Y-111192514D01*
X168500477Y-111207226D01*
X168500477Y-111207226D01*
G37*
G36*
X125320477Y-111207226D02*
G01*
X125426741Y-111239461D01*
X125464118Y-111250799D01*
X125596490Y-111321554D01*
X125596492Y-111321555D01*
X125596491Y-111321555D01*
X125712522Y-111416778D01*
X125790670Y-111512002D01*
X125807746Y-111532809D01*
X125878501Y-111665181D01*
X125889839Y-111702558D01*
X125922074Y-111808822D01*
X125933100Y-111920774D01*
X125933100Y-113316426D01*
X125922074Y-113428378D01*
X125915814Y-113449013D01*
X125878501Y-113572019D01*
X125807746Y-113704391D01*
X125712522Y-113820422D01*
X125596491Y-113915646D01*
X125464119Y-113986401D01*
X125426742Y-113997739D01*
X125320478Y-114029974D01*
X125171100Y-114044686D01*
X125021723Y-114029974D01*
X124915459Y-113997739D01*
X124878082Y-113986401D01*
X124745710Y-113915646D01*
X124629679Y-113820422D01*
X124534455Y-113704391D01*
X124463700Y-113572019D01*
X124426387Y-113449013D01*
X124420127Y-113428378D01*
X124409101Y-113316426D01*
X124409100Y-111920775D01*
X124420126Y-111808823D01*
X124463698Y-111665186D01*
X124463699Y-111665182D01*
X124534454Y-111532810D01*
X124548934Y-111515166D01*
X124629678Y-111416778D01*
X124745708Y-111321555D01*
X124745707Y-111321555D01*
X124745709Y-111321554D01*
X124878081Y-111250799D01*
X124915458Y-111239461D01*
X125021722Y-111207226D01*
X125171100Y-111192514D01*
X125320477Y-111207226D01*
X125320477Y-111207226D01*
G37*
G36*
X138020477Y-111207226D02*
G01*
X138126741Y-111239461D01*
X138164118Y-111250799D01*
X138296490Y-111321554D01*
X138296492Y-111321555D01*
X138296491Y-111321555D01*
X138412522Y-111416778D01*
X138490670Y-111512002D01*
X138507746Y-111532809D01*
X138578501Y-111665181D01*
X138589839Y-111702558D01*
X138622074Y-111808822D01*
X138633100Y-111920774D01*
X138633100Y-113316426D01*
X138622074Y-113428378D01*
X138615814Y-113449013D01*
X138578501Y-113572019D01*
X138507746Y-113704391D01*
X138412522Y-113820422D01*
X138296491Y-113915646D01*
X138164119Y-113986401D01*
X138126742Y-113997739D01*
X138020478Y-114029974D01*
X137871100Y-114044686D01*
X137721723Y-114029974D01*
X137615459Y-113997739D01*
X137578082Y-113986401D01*
X137445710Y-113915646D01*
X137329679Y-113820422D01*
X137234455Y-113704391D01*
X137163700Y-113572019D01*
X137126387Y-113449013D01*
X137120127Y-113428378D01*
X137109101Y-113316426D01*
X137109100Y-111920775D01*
X137120126Y-111808823D01*
X137163698Y-111665186D01*
X137163699Y-111665182D01*
X137234454Y-111532810D01*
X137248934Y-111515166D01*
X137329678Y-111416778D01*
X137445708Y-111321555D01*
X137445707Y-111321555D01*
X137445709Y-111321554D01*
X137578081Y-111250799D01*
X137615458Y-111239461D01*
X137721722Y-111207226D01*
X137871100Y-111192514D01*
X138020477Y-111207226D01*
X138020477Y-111207226D01*
G37*
G36*
X122780477Y-111207226D02*
G01*
X122886741Y-111239461D01*
X122924118Y-111250799D01*
X123056490Y-111321554D01*
X123056492Y-111321555D01*
X123056491Y-111321555D01*
X123172522Y-111416778D01*
X123250670Y-111512002D01*
X123267746Y-111532809D01*
X123338501Y-111665181D01*
X123349839Y-111702558D01*
X123382074Y-111808822D01*
X123393100Y-111920774D01*
X123393100Y-113316426D01*
X123382074Y-113428378D01*
X123375814Y-113449013D01*
X123338501Y-113572019D01*
X123267746Y-113704391D01*
X123172522Y-113820422D01*
X123056491Y-113915646D01*
X122924119Y-113986401D01*
X122886742Y-113997739D01*
X122780478Y-114029974D01*
X122631100Y-114044686D01*
X122481723Y-114029974D01*
X122375459Y-113997739D01*
X122338082Y-113986401D01*
X122205710Y-113915646D01*
X122089679Y-113820422D01*
X121994455Y-113704391D01*
X121923700Y-113572019D01*
X121886387Y-113449013D01*
X121880127Y-113428378D01*
X121869101Y-113316426D01*
X121869100Y-111920775D01*
X121880126Y-111808823D01*
X121923698Y-111665186D01*
X121923699Y-111665182D01*
X121994454Y-111532810D01*
X122008934Y-111515166D01*
X122089678Y-111416778D01*
X122205708Y-111321555D01*
X122205707Y-111321555D01*
X122205709Y-111321554D01*
X122338081Y-111250799D01*
X122375458Y-111239461D01*
X122481722Y-111207226D01*
X122631100Y-111192514D01*
X122780477Y-111207226D01*
X122780477Y-111207226D01*
G37*
G36*
X120240477Y-111207226D02*
G01*
X120346741Y-111239461D01*
X120384118Y-111250799D01*
X120516490Y-111321554D01*
X120516492Y-111321555D01*
X120516491Y-111321555D01*
X120632522Y-111416778D01*
X120710670Y-111512002D01*
X120727746Y-111532809D01*
X120798501Y-111665181D01*
X120809839Y-111702558D01*
X120842074Y-111808822D01*
X120853100Y-111920774D01*
X120853100Y-113316426D01*
X120842074Y-113428378D01*
X120835814Y-113449013D01*
X120798501Y-113572019D01*
X120727746Y-113704391D01*
X120632522Y-113820422D01*
X120516491Y-113915646D01*
X120384119Y-113986401D01*
X120346742Y-113997739D01*
X120240478Y-114029974D01*
X120091100Y-114044686D01*
X119941723Y-114029974D01*
X119835459Y-113997739D01*
X119798082Y-113986401D01*
X119665710Y-113915646D01*
X119549679Y-113820422D01*
X119454455Y-113704391D01*
X119383700Y-113572019D01*
X119346387Y-113449013D01*
X119340127Y-113428378D01*
X119329101Y-113316426D01*
X119329100Y-111920775D01*
X119340126Y-111808823D01*
X119383698Y-111665186D01*
X119383699Y-111665182D01*
X119454454Y-111532810D01*
X119468934Y-111515166D01*
X119549678Y-111416778D01*
X119665708Y-111321555D01*
X119665707Y-111321555D01*
X119665709Y-111321554D01*
X119798081Y-111250799D01*
X119835458Y-111239461D01*
X119941722Y-111207226D01*
X120091100Y-111192514D01*
X120240477Y-111207226D01*
X120240477Y-111207226D01*
G37*
G36*
X127860477Y-111207226D02*
G01*
X127966741Y-111239461D01*
X128004118Y-111250799D01*
X128136490Y-111321554D01*
X128136492Y-111321555D01*
X128136491Y-111321555D01*
X128252522Y-111416778D01*
X128330670Y-111512002D01*
X128347746Y-111532809D01*
X128418501Y-111665181D01*
X128429839Y-111702558D01*
X128462074Y-111808822D01*
X128473100Y-111920774D01*
X128473100Y-113316426D01*
X128462074Y-113428378D01*
X128455814Y-113449013D01*
X128418501Y-113572019D01*
X128347746Y-113704391D01*
X128252522Y-113820422D01*
X128136491Y-113915646D01*
X128004119Y-113986401D01*
X127966742Y-113997739D01*
X127860478Y-114029974D01*
X127711100Y-114044686D01*
X127561723Y-114029974D01*
X127455459Y-113997739D01*
X127418082Y-113986401D01*
X127285710Y-113915646D01*
X127169679Y-113820422D01*
X127074455Y-113704391D01*
X127003700Y-113572019D01*
X126966387Y-113449013D01*
X126960127Y-113428378D01*
X126949101Y-113316426D01*
X126949100Y-111920775D01*
X126960126Y-111808823D01*
X127003698Y-111665186D01*
X127003699Y-111665182D01*
X127074454Y-111532810D01*
X127088934Y-111515166D01*
X127169678Y-111416778D01*
X127285708Y-111321555D01*
X127285707Y-111321555D01*
X127285709Y-111321554D01*
X127418081Y-111250799D01*
X127455458Y-111239461D01*
X127561722Y-111207226D01*
X127711100Y-111192514D01*
X127860477Y-111207226D01*
X127860477Y-111207226D01*
G37*
G36*
X185113003Y-111788187D02*
G01*
X185270168Y-111853287D01*
X185411613Y-111947798D01*
X185531902Y-112068087D01*
X185626413Y-112209532D01*
X185691513Y-112366697D01*
X185724700Y-112533543D01*
X185724700Y-112703657D01*
X185691513Y-112870503D01*
X185626413Y-113027668D01*
X185531902Y-113169113D01*
X185411613Y-113289402D01*
X185270168Y-113383913D01*
X185113003Y-113449013D01*
X184946157Y-113482200D01*
X184776043Y-113482200D01*
X184609197Y-113449013D01*
X184452032Y-113383913D01*
X184310587Y-113289402D01*
X184190298Y-113169113D01*
X184095787Y-113027668D01*
X184030687Y-112870503D01*
X183997500Y-112703657D01*
X183997500Y-112533543D01*
X184030687Y-112366697D01*
X184095787Y-112209532D01*
X184190298Y-112068087D01*
X184310587Y-111947798D01*
X184452032Y-111853287D01*
X184609197Y-111788187D01*
X184776043Y-111755000D01*
X184946157Y-111755000D01*
X185113003Y-111788187D01*
X185113003Y-111788187D01*
G37*
G36*
X195273003Y-111788187D02*
G01*
X195430168Y-111853287D01*
X195571613Y-111947798D01*
X195691902Y-112068087D01*
X195786413Y-112209532D01*
X195851513Y-112366697D01*
X195884700Y-112533543D01*
X195884700Y-112703657D01*
X195851513Y-112870503D01*
X195786413Y-113027668D01*
X195691902Y-113169113D01*
X195571613Y-113289402D01*
X195430168Y-113383913D01*
X195273003Y-113449013D01*
X195106157Y-113482200D01*
X194936043Y-113482200D01*
X194769197Y-113449013D01*
X194612032Y-113383913D01*
X194470587Y-113289402D01*
X194350298Y-113169113D01*
X194255787Y-113027668D01*
X194190687Y-112870503D01*
X194157500Y-112703657D01*
X194157500Y-112533543D01*
X194190687Y-112366697D01*
X194255787Y-112209532D01*
X194350298Y-112068087D01*
X194470587Y-111947798D01*
X194612032Y-111853287D01*
X194769197Y-111788187D01*
X194936043Y-111755000D01*
X195106157Y-111755000D01*
X195273003Y-111788187D01*
X195273003Y-111788187D01*
G37*
G36*
X187653003Y-111788187D02*
G01*
X187810168Y-111853287D01*
X187951613Y-111947798D01*
X188071902Y-112068087D01*
X188166413Y-112209532D01*
X188231513Y-112366697D01*
X188264700Y-112533543D01*
X188264700Y-112703657D01*
X188231513Y-112870503D01*
X188166413Y-113027668D01*
X188071902Y-113169113D01*
X187951613Y-113289402D01*
X187810168Y-113383913D01*
X187653003Y-113449013D01*
X187486157Y-113482200D01*
X187316043Y-113482200D01*
X187149197Y-113449013D01*
X186992032Y-113383913D01*
X186850587Y-113289402D01*
X186730298Y-113169113D01*
X186635787Y-113027668D01*
X186570687Y-112870503D01*
X186537500Y-112703657D01*
X186537500Y-112533543D01*
X186570687Y-112366697D01*
X186635787Y-112209532D01*
X186730298Y-112068087D01*
X186850587Y-111947798D01*
X186992032Y-111853287D01*
X187149197Y-111788187D01*
X187316043Y-111755000D01*
X187486157Y-111755000D01*
X187653003Y-111788187D01*
X187653003Y-111788187D01*
G37*
G36*
X190193003Y-111788187D02*
G01*
X190350168Y-111853287D01*
X190491613Y-111947798D01*
X190611902Y-112068087D01*
X190706413Y-112209532D01*
X190771513Y-112366697D01*
X190804700Y-112533543D01*
X190804700Y-112703657D01*
X190771513Y-112870503D01*
X190706413Y-113027668D01*
X190611902Y-113169113D01*
X190491613Y-113289402D01*
X190350168Y-113383913D01*
X190193003Y-113449013D01*
X190026157Y-113482200D01*
X189856043Y-113482200D01*
X189689197Y-113449013D01*
X189532032Y-113383913D01*
X189390587Y-113289402D01*
X189270298Y-113169113D01*
X189175787Y-113027668D01*
X189110687Y-112870503D01*
X189077500Y-112703657D01*
X189077500Y-112533543D01*
X189110687Y-112366697D01*
X189175787Y-112209532D01*
X189270298Y-112068087D01*
X189390587Y-111947798D01*
X189532032Y-111853287D01*
X189689197Y-111788187D01*
X189856043Y-111755000D01*
X190026157Y-111755000D01*
X190193003Y-111788187D01*
X190193003Y-111788187D01*
G37*
G36*
X192733003Y-111788187D02*
G01*
X192890168Y-111853287D01*
X193031613Y-111947798D01*
X193151902Y-112068087D01*
X193246413Y-112209532D01*
X193311513Y-112366697D01*
X193344700Y-112533543D01*
X193344700Y-112703657D01*
X193311513Y-112870503D01*
X193246413Y-113027668D01*
X193151902Y-113169113D01*
X193031613Y-113289402D01*
X192890168Y-113383913D01*
X192733003Y-113449013D01*
X192566157Y-113482200D01*
X192396043Y-113482200D01*
X192229197Y-113449013D01*
X192072032Y-113383913D01*
X191930587Y-113289402D01*
X191810298Y-113169113D01*
X191715787Y-113027668D01*
X191650687Y-112870503D01*
X191617500Y-112703657D01*
X191617500Y-112533543D01*
X191650687Y-112366697D01*
X191715787Y-112209532D01*
X191810298Y-112068087D01*
X191930587Y-111947798D01*
X192072032Y-111853287D01*
X192229197Y-111788187D01*
X192396043Y-111755000D01*
X192566157Y-111755000D01*
X192733003Y-111788187D01*
X192733003Y-111788187D01*
G37*
G36*
X197813003Y-111788187D02*
G01*
X197970168Y-111853287D01*
X198111613Y-111947798D01*
X198231902Y-112068087D01*
X198326413Y-112209532D01*
X198391513Y-112366697D01*
X198424700Y-112533543D01*
X198424700Y-112703657D01*
X198391513Y-112870503D01*
X198326413Y-113027668D01*
X198231902Y-113169113D01*
X198111613Y-113289402D01*
X197970168Y-113383913D01*
X197813003Y-113449013D01*
X197646157Y-113482200D01*
X197476043Y-113482200D01*
X197309197Y-113449013D01*
X197152032Y-113383913D01*
X197010587Y-113289402D01*
X196890298Y-113169113D01*
X196795787Y-113027668D01*
X196730687Y-112870503D01*
X196697500Y-112703657D01*
X196697500Y-112533543D01*
X196730687Y-112366697D01*
X196795787Y-112209532D01*
X196890298Y-112068087D01*
X197010587Y-111947798D01*
X197152032Y-111853287D01*
X197309197Y-111788187D01*
X197476043Y-111755000D01*
X197646157Y-111755000D01*
X197813003Y-111788187D01*
X197813003Y-111788187D01*
G37*
G36*
X172896243Y-111860275D02*
G01*
X172970878Y-111867626D01*
X173077142Y-111899861D01*
X173114519Y-111911199D01*
X173246891Y-111981954D01*
X173362922Y-112077178D01*
X173458146Y-112193209D01*
X173528901Y-112325581D01*
X173528902Y-112325585D01*
X173572474Y-112469222D01*
X173587186Y-112618600D01*
X173572474Y-112767978D01*
X173541374Y-112870502D01*
X173528901Y-112911619D01*
X173458146Y-113043991D01*
X173362922Y-113160022D01*
X173246891Y-113255246D01*
X173114519Y-113326001D01*
X173077142Y-113337339D01*
X172970878Y-113369574D01*
X172896243Y-113376925D01*
X172858927Y-113380600D01*
X171463273Y-113380600D01*
X171425957Y-113376925D01*
X171351322Y-113369574D01*
X171245058Y-113337339D01*
X171207681Y-113326001D01*
X171075309Y-113255246D01*
X170959278Y-113160022D01*
X170864054Y-113043991D01*
X170793299Y-112911619D01*
X170780826Y-112870502D01*
X170749726Y-112767978D01*
X170735014Y-112618600D01*
X170749726Y-112469222D01*
X170793298Y-112325585D01*
X170793299Y-112325581D01*
X170864054Y-112193209D01*
X170959278Y-112077178D01*
X171075309Y-111981954D01*
X171207681Y-111911199D01*
X171245058Y-111899861D01*
X171351322Y-111867626D01*
X171425957Y-111860275D01*
X171463273Y-111856600D01*
X172858927Y-111856600D01*
X172896243Y-111860275D01*
X172896243Y-111860275D01*
G37*
G36*
X172896243Y-109320275D02*
G01*
X172970878Y-109327626D01*
X173077142Y-109359861D01*
X173114519Y-109371199D01*
X173246891Y-109441954D01*
X173362922Y-109537178D01*
X173458146Y-109653209D01*
X173528901Y-109785581D01*
X173528902Y-109785585D01*
X173572474Y-109929222D01*
X173587186Y-110078600D01*
X173572474Y-110227978D01*
X173540239Y-110334242D01*
X173528901Y-110371619D01*
X173458146Y-110503991D01*
X173362922Y-110620022D01*
X173246891Y-110715246D01*
X173114519Y-110786001D01*
X173077142Y-110797339D01*
X172970878Y-110829574D01*
X172896243Y-110836925D01*
X172858927Y-110840600D01*
X171463273Y-110840600D01*
X171425957Y-110836925D01*
X171351322Y-110829574D01*
X171245058Y-110797339D01*
X171207681Y-110786001D01*
X171075309Y-110715246D01*
X170959278Y-110620022D01*
X170864054Y-110503991D01*
X170793299Y-110371619D01*
X170781961Y-110334242D01*
X170749726Y-110227978D01*
X170735014Y-110078600D01*
X170749726Y-109929222D01*
X170793298Y-109785585D01*
X170793299Y-109785581D01*
X170864054Y-109653209D01*
X170959278Y-109537178D01*
X171075309Y-109441954D01*
X171207681Y-109371199D01*
X171245058Y-109359861D01*
X171351322Y-109327626D01*
X171425957Y-109320275D01*
X171463273Y-109316600D01*
X172858927Y-109316600D01*
X172896243Y-109320275D01*
X172896243Y-109320275D01*
G37*
G36*
X172896243Y-106780275D02*
G01*
X172970878Y-106787626D01*
X173077142Y-106819861D01*
X173114519Y-106831199D01*
X173246891Y-106901954D01*
X173362922Y-106997178D01*
X173458146Y-107113209D01*
X173528901Y-107245581D01*
X173528902Y-107245585D01*
X173572474Y-107389222D01*
X173587186Y-107538600D01*
X173572474Y-107687978D01*
X173550363Y-107760867D01*
X173528901Y-107831619D01*
X173458146Y-107963991D01*
X173362922Y-108080022D01*
X173246891Y-108175246D01*
X173114519Y-108246001D01*
X173077142Y-108257339D01*
X172970878Y-108289574D01*
X172896243Y-108296925D01*
X172858927Y-108300600D01*
X171463273Y-108300600D01*
X171425957Y-108296925D01*
X171351322Y-108289574D01*
X171245058Y-108257339D01*
X171207681Y-108246001D01*
X171075309Y-108175246D01*
X170959278Y-108080022D01*
X170864054Y-107963991D01*
X170793299Y-107831619D01*
X170771837Y-107760867D01*
X170749726Y-107687978D01*
X170735014Y-107538600D01*
X170749726Y-107389222D01*
X170793298Y-107245585D01*
X170793299Y-107245581D01*
X170864054Y-107113209D01*
X170959278Y-106997178D01*
X171075309Y-106901954D01*
X171207681Y-106831199D01*
X171245058Y-106819861D01*
X171351322Y-106787626D01*
X171425957Y-106780275D01*
X171463273Y-106776600D01*
X172858927Y-106776600D01*
X172896243Y-106780275D01*
X172896243Y-106780275D01*
G37*
G36*
X176144295Y-106796122D02*
G01*
X176193367Y-106805883D01*
X176332042Y-106863324D01*
X176456847Y-106946716D01*
X176562984Y-107052853D01*
X176646376Y-107177658D01*
X176703817Y-107316333D01*
X176733100Y-107463550D01*
X176733100Y-107613650D01*
X176703817Y-107760867D01*
X176646376Y-107899542D01*
X176562984Y-108024347D01*
X176456847Y-108130484D01*
X176332042Y-108213876D01*
X176193367Y-108271317D01*
X176144295Y-108281078D01*
X176046152Y-108300600D01*
X175896048Y-108300600D01*
X175797905Y-108281078D01*
X175748833Y-108271317D01*
X175610158Y-108213876D01*
X175485353Y-108130484D01*
X175379216Y-108024347D01*
X175295824Y-107899542D01*
X175238383Y-107760867D01*
X175209100Y-107613650D01*
X175209100Y-107463550D01*
X175238383Y-107316333D01*
X175295824Y-107177658D01*
X175379216Y-107052853D01*
X175485353Y-106946716D01*
X175610158Y-106863324D01*
X175748833Y-106805883D01*
X175797905Y-106796122D01*
X175896048Y-106776600D01*
X176046152Y-106776600D01*
X176144295Y-106796122D01*
X176144295Y-106796122D01*
G37*
G36*
X99920477Y-103587226D02*
G01*
X100026741Y-103619461D01*
X100064118Y-103630799D01*
X100196490Y-103701554D01*
X100196492Y-103701555D01*
X100196491Y-103701555D01*
X100312522Y-103796778D01*
X100319105Y-103804800D01*
X100407746Y-103912809D01*
X100478501Y-104045181D01*
X100489839Y-104082558D01*
X100522074Y-104188822D01*
X100533100Y-104300774D01*
X100533100Y-105696426D01*
X100522074Y-105808378D01*
X100489839Y-105914642D01*
X100478501Y-105952019D01*
X100407746Y-106084391D01*
X100312522Y-106200422D01*
X100196491Y-106295646D01*
X100064119Y-106366401D01*
X100026742Y-106377739D01*
X99920478Y-106409974D01*
X99771100Y-106424686D01*
X99621723Y-106409974D01*
X99515459Y-106377739D01*
X99478082Y-106366401D01*
X99345710Y-106295646D01*
X99229679Y-106200422D01*
X99134455Y-106084391D01*
X99063700Y-105952019D01*
X99052362Y-105914642D01*
X99020127Y-105808378D01*
X99009101Y-105696426D01*
X99009100Y-104300775D01*
X99020126Y-104188823D01*
X99063698Y-104045186D01*
X99063699Y-104045182D01*
X99134454Y-103912810D01*
X99148934Y-103895166D01*
X99229678Y-103796778D01*
X99345708Y-103701555D01*
X99345707Y-103701555D01*
X99345709Y-103701554D01*
X99478081Y-103630799D01*
X99515458Y-103619461D01*
X99621722Y-103587226D01*
X99771100Y-103572514D01*
X99920477Y-103587226D01*
X99920477Y-103587226D01*
G37*
G36*
X102460477Y-103587226D02*
G01*
X102566741Y-103619461D01*
X102604118Y-103630799D01*
X102736490Y-103701554D01*
X102736492Y-103701555D01*
X102736491Y-103701555D01*
X102852522Y-103796778D01*
X102859105Y-103804800D01*
X102947746Y-103912809D01*
X103018501Y-104045181D01*
X103029839Y-104082558D01*
X103062074Y-104188822D01*
X103073100Y-104300774D01*
X103073100Y-105696426D01*
X103062074Y-105808378D01*
X103029839Y-105914642D01*
X103018501Y-105952019D01*
X102947746Y-106084391D01*
X102852522Y-106200422D01*
X102736491Y-106295646D01*
X102604119Y-106366401D01*
X102566742Y-106377739D01*
X102460478Y-106409974D01*
X102311100Y-106424686D01*
X102161723Y-106409974D01*
X102055459Y-106377739D01*
X102018082Y-106366401D01*
X101885710Y-106295646D01*
X101769679Y-106200422D01*
X101674455Y-106084391D01*
X101603700Y-105952019D01*
X101592362Y-105914642D01*
X101560127Y-105808378D01*
X101549101Y-105696426D01*
X101549100Y-104300775D01*
X101560126Y-104188823D01*
X101603698Y-104045186D01*
X101603699Y-104045182D01*
X101674454Y-103912810D01*
X101688934Y-103895166D01*
X101769678Y-103796778D01*
X101885708Y-103701555D01*
X101885707Y-103701555D01*
X101885709Y-103701554D01*
X102018081Y-103630799D01*
X102055458Y-103619461D01*
X102161722Y-103587226D01*
X102311100Y-103572514D01*
X102460477Y-103587226D01*
X102460477Y-103587226D01*
G37*
G36*
X105000477Y-103587226D02*
G01*
X105106741Y-103619461D01*
X105144118Y-103630799D01*
X105276490Y-103701554D01*
X105276492Y-103701555D01*
X105276491Y-103701555D01*
X105392522Y-103796778D01*
X105399105Y-103804800D01*
X105487746Y-103912809D01*
X105558501Y-104045181D01*
X105569839Y-104082558D01*
X105602074Y-104188822D01*
X105613100Y-104300774D01*
X105613100Y-105696426D01*
X105602074Y-105808378D01*
X105569839Y-105914642D01*
X105558501Y-105952019D01*
X105487746Y-106084391D01*
X105392522Y-106200422D01*
X105276491Y-106295646D01*
X105144119Y-106366401D01*
X105106742Y-106377739D01*
X105000478Y-106409974D01*
X104851100Y-106424686D01*
X104701723Y-106409974D01*
X104595459Y-106377739D01*
X104558082Y-106366401D01*
X104425710Y-106295646D01*
X104309679Y-106200422D01*
X104214455Y-106084391D01*
X104143700Y-105952019D01*
X104132362Y-105914642D01*
X104100127Y-105808378D01*
X104089101Y-105696426D01*
X104089100Y-104300775D01*
X104100126Y-104188823D01*
X104143698Y-104045186D01*
X104143699Y-104045182D01*
X104214454Y-103912810D01*
X104228934Y-103895166D01*
X104309678Y-103796778D01*
X104425708Y-103701555D01*
X104425707Y-103701555D01*
X104425709Y-103701554D01*
X104558081Y-103630799D01*
X104595458Y-103619461D01*
X104701722Y-103587226D01*
X104851100Y-103572514D01*
X105000477Y-103587226D01*
X105000477Y-103587226D01*
G37*
G36*
X107540477Y-103587226D02*
G01*
X107646741Y-103619461D01*
X107684118Y-103630799D01*
X107816490Y-103701554D01*
X107816492Y-103701555D01*
X107816491Y-103701555D01*
X107932522Y-103796778D01*
X107939105Y-103804800D01*
X108027746Y-103912809D01*
X108098501Y-104045181D01*
X108109839Y-104082558D01*
X108142074Y-104188822D01*
X108153100Y-104300774D01*
X108153100Y-105696426D01*
X108142074Y-105808378D01*
X108109839Y-105914642D01*
X108098501Y-105952019D01*
X108027746Y-106084391D01*
X107932522Y-106200422D01*
X107816491Y-106295646D01*
X107684119Y-106366401D01*
X107646742Y-106377739D01*
X107540478Y-106409974D01*
X107391100Y-106424686D01*
X107241723Y-106409974D01*
X107135459Y-106377739D01*
X107098082Y-106366401D01*
X106965710Y-106295646D01*
X106849679Y-106200422D01*
X106754455Y-106084391D01*
X106683700Y-105952019D01*
X106672362Y-105914642D01*
X106640127Y-105808378D01*
X106629101Y-105696426D01*
X106629100Y-104300775D01*
X106640126Y-104188823D01*
X106683698Y-104045186D01*
X106683699Y-104045182D01*
X106754454Y-103912810D01*
X106768934Y-103895166D01*
X106849678Y-103796778D01*
X106965708Y-103701555D01*
X106965707Y-103701555D01*
X106965709Y-103701554D01*
X107098081Y-103630799D01*
X107135458Y-103619461D01*
X107241722Y-103587226D01*
X107391100Y-103572514D01*
X107540477Y-103587226D01*
X107540477Y-103587226D01*
G37*
G36*
X110080477Y-103587226D02*
G01*
X110186741Y-103619461D01*
X110224118Y-103630799D01*
X110356490Y-103701554D01*
X110356492Y-103701555D01*
X110356491Y-103701555D01*
X110472522Y-103796778D01*
X110479105Y-103804800D01*
X110567746Y-103912809D01*
X110638501Y-104045181D01*
X110649839Y-104082558D01*
X110682074Y-104188822D01*
X110693100Y-104300774D01*
X110693100Y-105696426D01*
X110682074Y-105808378D01*
X110649839Y-105914642D01*
X110638501Y-105952019D01*
X110567746Y-106084391D01*
X110472522Y-106200422D01*
X110356491Y-106295646D01*
X110224119Y-106366401D01*
X110186742Y-106377739D01*
X110080478Y-106409974D01*
X109931100Y-106424686D01*
X109781723Y-106409974D01*
X109675459Y-106377739D01*
X109638082Y-106366401D01*
X109505710Y-106295646D01*
X109389679Y-106200422D01*
X109294455Y-106084391D01*
X109223700Y-105952019D01*
X109212362Y-105914642D01*
X109180127Y-105808378D01*
X109169101Y-105696426D01*
X109169100Y-104300775D01*
X109180126Y-104188823D01*
X109223698Y-104045186D01*
X109223699Y-104045182D01*
X109294454Y-103912810D01*
X109308934Y-103895166D01*
X109389678Y-103796778D01*
X109505708Y-103701555D01*
X109505707Y-103701555D01*
X109505709Y-103701554D01*
X109638081Y-103630799D01*
X109675458Y-103619461D01*
X109781722Y-103587226D01*
X109931100Y-103572514D01*
X110080477Y-103587226D01*
X110080477Y-103587226D01*
G37*
G36*
X112620477Y-103587226D02*
G01*
X112726741Y-103619461D01*
X112764118Y-103630799D01*
X112896490Y-103701554D01*
X112896492Y-103701555D01*
X112896491Y-103701555D01*
X113012522Y-103796778D01*
X113019105Y-103804800D01*
X113107746Y-103912809D01*
X113178501Y-104045181D01*
X113189839Y-104082558D01*
X113222074Y-104188822D01*
X113233100Y-104300774D01*
X113233100Y-105696426D01*
X113222074Y-105808378D01*
X113189839Y-105914642D01*
X113178501Y-105952019D01*
X113107746Y-106084391D01*
X113012522Y-106200422D01*
X112896491Y-106295646D01*
X112764119Y-106366401D01*
X112726742Y-106377739D01*
X112620478Y-106409974D01*
X112471100Y-106424686D01*
X112321723Y-106409974D01*
X112215459Y-106377739D01*
X112178082Y-106366401D01*
X112045710Y-106295646D01*
X111929679Y-106200422D01*
X111834455Y-106084391D01*
X111763700Y-105952019D01*
X111752362Y-105914642D01*
X111720127Y-105808378D01*
X111709101Y-105696426D01*
X111709100Y-104300775D01*
X111720126Y-104188823D01*
X111763698Y-104045186D01*
X111763699Y-104045182D01*
X111834454Y-103912810D01*
X111848934Y-103895166D01*
X111929678Y-103796778D01*
X112045708Y-103701555D01*
X112045707Y-103701555D01*
X112045709Y-103701554D01*
X112178081Y-103630799D01*
X112215458Y-103619461D01*
X112321722Y-103587226D01*
X112471100Y-103572514D01*
X112620477Y-103587226D01*
X112620477Y-103587226D01*
G37*
G36*
X115160477Y-103587226D02*
G01*
X115266741Y-103619461D01*
X115304118Y-103630799D01*
X115436490Y-103701554D01*
X115436492Y-103701555D01*
X115436491Y-103701555D01*
X115552522Y-103796778D01*
X115559105Y-103804800D01*
X115647746Y-103912809D01*
X115718501Y-104045181D01*
X115729839Y-104082558D01*
X115762074Y-104188822D01*
X115773100Y-104300774D01*
X115773100Y-105696426D01*
X115762074Y-105808378D01*
X115729839Y-105914642D01*
X115718501Y-105952019D01*
X115647746Y-106084391D01*
X115552522Y-106200422D01*
X115436491Y-106295646D01*
X115304119Y-106366401D01*
X115266742Y-106377739D01*
X115160478Y-106409974D01*
X115011100Y-106424686D01*
X114861723Y-106409974D01*
X114755459Y-106377739D01*
X114718082Y-106366401D01*
X114585710Y-106295646D01*
X114469679Y-106200422D01*
X114374455Y-106084391D01*
X114303700Y-105952019D01*
X114292362Y-105914642D01*
X114260127Y-105808378D01*
X114249101Y-105696426D01*
X114249100Y-104300775D01*
X114260126Y-104188823D01*
X114303698Y-104045186D01*
X114303699Y-104045182D01*
X114374454Y-103912810D01*
X114388934Y-103895166D01*
X114469678Y-103796778D01*
X114585708Y-103701555D01*
X114585707Y-103701555D01*
X114585709Y-103701554D01*
X114718081Y-103630799D01*
X114755458Y-103619461D01*
X114861722Y-103587226D01*
X115011100Y-103572514D01*
X115160477Y-103587226D01*
X115160477Y-103587226D01*
G37*
G36*
X172896243Y-104240275D02*
G01*
X172970878Y-104247626D01*
X173077142Y-104279861D01*
X173114519Y-104291199D01*
X173246891Y-104361954D01*
X173362922Y-104457178D01*
X173458146Y-104573209D01*
X173528901Y-104705581D01*
X173528902Y-104705585D01*
X173572474Y-104849222D01*
X173587186Y-104998600D01*
X173572474Y-105147978D01*
X173563852Y-105176400D01*
X173528901Y-105291619D01*
X173458146Y-105423991D01*
X173362922Y-105540022D01*
X173246891Y-105635246D01*
X173114519Y-105706001D01*
X173077142Y-105717339D01*
X172970878Y-105749574D01*
X172896243Y-105756925D01*
X172858927Y-105760600D01*
X171463273Y-105760600D01*
X171425957Y-105756925D01*
X171351322Y-105749574D01*
X171245058Y-105717339D01*
X171207681Y-105706001D01*
X171075309Y-105635246D01*
X170959278Y-105540022D01*
X170864054Y-105423991D01*
X170793299Y-105291619D01*
X170758348Y-105176400D01*
X170749726Y-105147978D01*
X170735014Y-104998600D01*
X170749726Y-104849222D01*
X170793298Y-104705585D01*
X170793299Y-104705581D01*
X170864054Y-104573209D01*
X170959278Y-104457178D01*
X171075309Y-104361954D01*
X171207681Y-104291199D01*
X171245058Y-104279861D01*
X171351322Y-104247626D01*
X171425957Y-104240275D01*
X171463273Y-104236600D01*
X172858927Y-104236600D01*
X172896243Y-104240275D01*
X172896243Y-104240275D01*
G37*
G36*
X179732700Y-105650200D02*
G01*
X178329500Y-105650200D01*
X178329500Y-104007000D01*
X179732700Y-104007000D01*
X179732700Y-105650200D01*
X179732700Y-105650200D01*
G37*
G36*
X181332700Y-105650200D02*
G01*
X180129500Y-105650200D01*
X180129500Y-104007000D01*
X181332700Y-104007000D01*
X181332700Y-105650200D01*
X181332700Y-105650200D01*
G37*
G36*
X184492800Y-105176400D02*
G01*
X182689400Y-105176400D01*
X182689400Y-102280800D01*
X184492800Y-102280800D01*
X184492800Y-105176400D01*
X184492800Y-105176400D01*
G37*
G36*
X179432700Y-103450200D02*
G01*
X178229500Y-103450200D01*
X178229500Y-101807000D01*
X179432700Y-101807000D01*
X179432700Y-103450200D01*
X179432700Y-103450200D01*
G37*
G36*
X181332700Y-103450200D02*
G01*
X180129500Y-103450200D01*
X180129500Y-101807000D01*
X181332700Y-101807000D01*
X181332700Y-103450200D01*
X181332700Y-103450200D01*
G37*
G36*
X172896243Y-101700275D02*
G01*
X172970878Y-101707626D01*
X173077142Y-101739861D01*
X173114519Y-101751199D01*
X173246891Y-101821954D01*
X173362922Y-101917178D01*
X173458146Y-102033209D01*
X173528901Y-102165581D01*
X173528902Y-102165585D01*
X173572474Y-102309222D01*
X173587186Y-102458600D01*
X173572474Y-102607978D01*
X173540239Y-102714242D01*
X173528901Y-102751619D01*
X173458146Y-102883991D01*
X173362922Y-103000022D01*
X173246891Y-103095246D01*
X173114519Y-103166001D01*
X173077142Y-103177339D01*
X172970878Y-103209574D01*
X172896243Y-103216925D01*
X172858927Y-103220600D01*
X171463273Y-103220600D01*
X171425957Y-103216925D01*
X171351322Y-103209574D01*
X171245058Y-103177339D01*
X171207681Y-103166001D01*
X171075309Y-103095246D01*
X170959278Y-103000022D01*
X170864054Y-102883991D01*
X170793299Y-102751619D01*
X170781961Y-102714242D01*
X170749726Y-102607978D01*
X170735014Y-102458600D01*
X170749726Y-102309222D01*
X170793298Y-102165585D01*
X170793299Y-102165581D01*
X170864054Y-102033209D01*
X170959278Y-101917178D01*
X171075309Y-101821954D01*
X171207681Y-101751199D01*
X171245058Y-101739861D01*
X171351322Y-101707626D01*
X171425957Y-101700275D01*
X171463273Y-101696600D01*
X172858927Y-101696600D01*
X172896243Y-101700275D01*
X172896243Y-101700275D01*
G37*
G36*
X108834295Y-99176122D02*
G01*
X108883367Y-99185883D01*
X109022042Y-99243324D01*
X109146847Y-99326716D01*
X109252984Y-99432853D01*
X109336376Y-99557658D01*
X109393817Y-99696333D01*
X109423100Y-99843550D01*
X109423100Y-99993650D01*
X109393817Y-100140867D01*
X109336376Y-100279542D01*
X109252984Y-100404347D01*
X109146847Y-100510484D01*
X109022042Y-100593876D01*
X108883367Y-100651317D01*
X108834295Y-100661078D01*
X108736152Y-100680600D01*
X108586048Y-100680600D01*
X108487905Y-100661078D01*
X108438833Y-100651317D01*
X108300158Y-100593876D01*
X108175353Y-100510484D01*
X108069216Y-100404347D01*
X107985824Y-100279542D01*
X107928383Y-100140867D01*
X107899100Y-99993650D01*
X107899100Y-99843550D01*
X107928383Y-99696333D01*
X107985824Y-99557658D01*
X108069216Y-99432853D01*
X108175353Y-99326716D01*
X108300158Y-99243324D01*
X108438833Y-99185883D01*
X108487905Y-99176122D01*
X108586048Y-99156600D01*
X108736152Y-99156600D01*
X108834295Y-99176122D01*
X108834295Y-99176122D01*
G37*
G36*
X172896243Y-99160275D02*
G01*
X172970878Y-99167626D01*
X173077142Y-99199861D01*
X173114519Y-99211199D01*
X173246891Y-99281954D01*
X173362922Y-99377178D01*
X173458146Y-99493209D01*
X173528901Y-99625581D01*
X173528902Y-99625585D01*
X173572474Y-99769222D01*
X173587186Y-99918600D01*
X173572474Y-100067978D01*
X173550363Y-100140867D01*
X173528901Y-100211619D01*
X173458146Y-100343991D01*
X173362922Y-100460022D01*
X173246891Y-100555246D01*
X173114519Y-100626001D01*
X173077142Y-100637339D01*
X172970878Y-100669574D01*
X172896243Y-100676925D01*
X172858927Y-100680600D01*
X171463273Y-100680600D01*
X171425957Y-100676925D01*
X171351322Y-100669574D01*
X171245058Y-100637339D01*
X171207681Y-100626001D01*
X171075309Y-100555246D01*
X170959278Y-100460022D01*
X170864054Y-100343991D01*
X170793299Y-100211619D01*
X170771837Y-100140867D01*
X170749726Y-100067978D01*
X170735014Y-99918600D01*
X170749726Y-99769222D01*
X170793298Y-99625585D01*
X170793299Y-99625581D01*
X170864054Y-99493209D01*
X170959278Y-99377178D01*
X171075309Y-99281954D01*
X171207681Y-99211199D01*
X171245058Y-99199861D01*
X171351322Y-99167626D01*
X171425957Y-99160275D01*
X171463273Y-99156600D01*
X172858927Y-99156600D01*
X172896243Y-99160275D01*
X172896243Y-99160275D01*
G37*
G36*
X101214295Y-99176122D02*
G01*
X101263367Y-99185883D01*
X101402042Y-99243324D01*
X101526847Y-99326716D01*
X101632984Y-99432853D01*
X101716376Y-99557658D01*
X101773817Y-99696333D01*
X101803100Y-99843550D01*
X101803100Y-99993650D01*
X101773817Y-100140867D01*
X101716376Y-100279542D01*
X101632984Y-100404347D01*
X101526847Y-100510484D01*
X101402042Y-100593876D01*
X101263367Y-100651317D01*
X101214295Y-100661078D01*
X101116152Y-100680600D01*
X100966048Y-100680600D01*
X100867905Y-100661078D01*
X100818833Y-100651317D01*
X100680158Y-100593876D01*
X100555353Y-100510484D01*
X100449216Y-100404347D01*
X100365824Y-100279542D01*
X100308383Y-100140867D01*
X100279100Y-99993650D01*
X100279100Y-99843550D01*
X100308383Y-99696333D01*
X100365824Y-99557658D01*
X100449216Y-99432853D01*
X100555353Y-99326716D01*
X100680158Y-99243324D01*
X100818833Y-99185883D01*
X100867905Y-99176122D01*
X100966048Y-99156600D01*
X101116152Y-99156600D01*
X101214295Y-99176122D01*
X101214295Y-99176122D01*
G37*
G36*
X113914295Y-97906122D02*
G01*
X113963367Y-97915883D01*
X114102042Y-97973324D01*
X114226847Y-98056716D01*
X114332984Y-98162853D01*
X114416376Y-98287658D01*
X114473817Y-98426333D01*
X114473817Y-98426334D01*
X114503100Y-98573548D01*
X114503100Y-98723652D01*
X114486981Y-98804686D01*
X114473817Y-98870867D01*
X114416376Y-99009542D01*
X114332984Y-99134347D01*
X114226847Y-99240484D01*
X114102042Y-99323876D01*
X113963367Y-99381317D01*
X113914295Y-99391078D01*
X113816152Y-99410600D01*
X113666048Y-99410600D01*
X113567905Y-99391078D01*
X113518833Y-99381317D01*
X113380158Y-99323876D01*
X113255353Y-99240484D01*
X113149216Y-99134347D01*
X113065824Y-99009542D01*
X113008383Y-98870867D01*
X112995219Y-98804686D01*
X112979100Y-98723652D01*
X112979100Y-98573548D01*
X113008383Y-98426334D01*
X113008383Y-98426333D01*
X113065824Y-98287658D01*
X113149216Y-98162853D01*
X113255353Y-98056716D01*
X113380158Y-97973324D01*
X113518833Y-97915883D01*
X113567905Y-97906122D01*
X113666048Y-97886600D01*
X113816152Y-97886600D01*
X113914295Y-97906122D01*
X113914295Y-97906122D01*
G37*
G36*
X140560477Y-95967226D02*
G01*
X140666741Y-95999461D01*
X140704118Y-96010799D01*
X140836490Y-96081554D01*
X140836492Y-96081555D01*
X140836491Y-96081555D01*
X140952522Y-96176778D01*
X140958163Y-96183652D01*
X141047746Y-96292809D01*
X141118501Y-96425181D01*
X141129839Y-96462558D01*
X141162074Y-96568822D01*
X141173100Y-96680774D01*
X141173100Y-98076426D01*
X141162074Y-98188378D01*
X141131958Y-98287658D01*
X141118501Y-98332019D01*
X141047746Y-98464391D01*
X140952522Y-98580422D01*
X140836491Y-98675646D01*
X140704119Y-98746401D01*
X140666742Y-98757739D01*
X140560478Y-98789974D01*
X140411100Y-98804686D01*
X140261723Y-98789974D01*
X140155459Y-98757739D01*
X140118082Y-98746401D01*
X139985710Y-98675646D01*
X139869679Y-98580422D01*
X139774455Y-98464391D01*
X139703700Y-98332019D01*
X139690243Y-98287658D01*
X139660127Y-98188378D01*
X139649101Y-98076426D01*
X139649100Y-96680775D01*
X139660126Y-96568823D01*
X139703698Y-96425186D01*
X139703699Y-96425182D01*
X139774454Y-96292810D01*
X139788934Y-96275166D01*
X139869678Y-96176778D01*
X139985708Y-96081555D01*
X139985707Y-96081555D01*
X139985709Y-96081554D01*
X140118081Y-96010799D01*
X140155458Y-95999461D01*
X140261722Y-95967226D01*
X140411100Y-95952514D01*
X140560477Y-95967226D01*
X140560477Y-95967226D01*
G37*
G36*
X138020477Y-95967226D02*
G01*
X138126741Y-95999461D01*
X138164118Y-96010799D01*
X138296490Y-96081554D01*
X138296492Y-96081555D01*
X138296491Y-96081555D01*
X138412522Y-96176778D01*
X138418163Y-96183652D01*
X138507746Y-96292809D01*
X138578501Y-96425181D01*
X138589839Y-96462558D01*
X138622074Y-96568822D01*
X138633100Y-96680774D01*
X138633100Y-98076426D01*
X138622074Y-98188378D01*
X138591958Y-98287658D01*
X138578501Y-98332019D01*
X138507746Y-98464391D01*
X138412522Y-98580422D01*
X138296491Y-98675646D01*
X138164119Y-98746401D01*
X138126742Y-98757739D01*
X138020478Y-98789974D01*
X137871100Y-98804686D01*
X137721723Y-98789974D01*
X137615459Y-98757739D01*
X137578082Y-98746401D01*
X137445710Y-98675646D01*
X137329679Y-98580422D01*
X137234455Y-98464391D01*
X137163700Y-98332019D01*
X137150243Y-98287658D01*
X137120127Y-98188378D01*
X137109101Y-98076426D01*
X137109100Y-96680775D01*
X137120126Y-96568823D01*
X137163698Y-96425186D01*
X137163699Y-96425182D01*
X137234454Y-96292810D01*
X137248934Y-96275166D01*
X137329678Y-96176778D01*
X137445708Y-96081555D01*
X137445707Y-96081555D01*
X137445709Y-96081554D01*
X137578081Y-96010799D01*
X137615458Y-95999461D01*
X137721722Y-95967226D01*
X137871100Y-95952514D01*
X138020477Y-95967226D01*
X138020477Y-95967226D01*
G37*
G36*
X135480477Y-95967226D02*
G01*
X135586741Y-95999461D01*
X135624118Y-96010799D01*
X135756490Y-96081554D01*
X135756492Y-96081555D01*
X135756491Y-96081555D01*
X135872522Y-96176778D01*
X135878163Y-96183652D01*
X135967746Y-96292809D01*
X136038501Y-96425181D01*
X136049839Y-96462558D01*
X136082074Y-96568822D01*
X136093100Y-96680774D01*
X136093100Y-98076426D01*
X136082074Y-98188378D01*
X136051958Y-98287658D01*
X136038501Y-98332019D01*
X135967746Y-98464391D01*
X135872522Y-98580422D01*
X135756491Y-98675646D01*
X135624119Y-98746401D01*
X135586742Y-98757739D01*
X135480478Y-98789974D01*
X135331100Y-98804686D01*
X135181723Y-98789974D01*
X135075459Y-98757739D01*
X135038082Y-98746401D01*
X134905710Y-98675646D01*
X134789679Y-98580422D01*
X134694455Y-98464391D01*
X134623700Y-98332019D01*
X134610243Y-98287658D01*
X134580127Y-98188378D01*
X134569101Y-98076426D01*
X134569100Y-96680775D01*
X134580126Y-96568823D01*
X134623698Y-96425186D01*
X134623699Y-96425182D01*
X134694454Y-96292810D01*
X134708934Y-96275166D01*
X134789678Y-96176778D01*
X134905708Y-96081555D01*
X134905707Y-96081555D01*
X134905709Y-96081554D01*
X135038081Y-96010799D01*
X135075458Y-95999461D01*
X135181722Y-95967226D01*
X135331100Y-95952514D01*
X135480477Y-95967226D01*
X135480477Y-95967226D01*
G37*
G36*
X132940477Y-95967226D02*
G01*
X133046741Y-95999461D01*
X133084118Y-96010799D01*
X133216490Y-96081554D01*
X133216492Y-96081555D01*
X133216491Y-96081555D01*
X133332522Y-96176778D01*
X133338163Y-96183652D01*
X133427746Y-96292809D01*
X133498501Y-96425181D01*
X133509839Y-96462558D01*
X133542074Y-96568822D01*
X133553100Y-96680774D01*
X133553100Y-98076426D01*
X133542074Y-98188378D01*
X133511958Y-98287658D01*
X133498501Y-98332019D01*
X133427746Y-98464391D01*
X133332522Y-98580422D01*
X133216491Y-98675646D01*
X133084119Y-98746401D01*
X133046742Y-98757739D01*
X132940478Y-98789974D01*
X132791100Y-98804686D01*
X132641723Y-98789974D01*
X132535459Y-98757739D01*
X132498082Y-98746401D01*
X132365710Y-98675646D01*
X132249679Y-98580422D01*
X132154455Y-98464391D01*
X132083700Y-98332019D01*
X132070243Y-98287658D01*
X132040127Y-98188378D01*
X132029101Y-98076426D01*
X132029100Y-96680775D01*
X132040126Y-96568823D01*
X132083698Y-96425186D01*
X132083699Y-96425182D01*
X132154454Y-96292810D01*
X132168934Y-96275166D01*
X132249678Y-96176778D01*
X132365708Y-96081555D01*
X132365707Y-96081555D01*
X132365709Y-96081554D01*
X132498081Y-96010799D01*
X132535458Y-95999461D01*
X132641722Y-95967226D01*
X132791100Y-95952514D01*
X132940477Y-95967226D01*
X132940477Y-95967226D01*
G37*
G36*
X130400477Y-95967226D02*
G01*
X130506741Y-95999461D01*
X130544118Y-96010799D01*
X130676490Y-96081554D01*
X130676492Y-96081555D01*
X130676491Y-96081555D01*
X130792522Y-96176778D01*
X130798163Y-96183652D01*
X130887746Y-96292809D01*
X130958501Y-96425181D01*
X130969839Y-96462558D01*
X131002074Y-96568822D01*
X131013100Y-96680774D01*
X131013100Y-98076426D01*
X131002074Y-98188378D01*
X130971958Y-98287658D01*
X130958501Y-98332019D01*
X130887746Y-98464391D01*
X130792522Y-98580422D01*
X130676491Y-98675646D01*
X130544119Y-98746401D01*
X130506742Y-98757739D01*
X130400478Y-98789974D01*
X130251100Y-98804686D01*
X130101723Y-98789974D01*
X129995459Y-98757739D01*
X129958082Y-98746401D01*
X129825710Y-98675646D01*
X129709679Y-98580422D01*
X129614455Y-98464391D01*
X129543700Y-98332019D01*
X129530243Y-98287658D01*
X129500127Y-98188378D01*
X129489101Y-98076426D01*
X129489100Y-96680775D01*
X129500126Y-96568823D01*
X129543698Y-96425186D01*
X129543699Y-96425182D01*
X129614454Y-96292810D01*
X129628934Y-96275166D01*
X129709678Y-96176778D01*
X129825708Y-96081555D01*
X129825707Y-96081555D01*
X129825709Y-96081554D01*
X129958081Y-96010799D01*
X129995458Y-95999461D01*
X130101722Y-95967226D01*
X130251100Y-95952514D01*
X130400477Y-95967226D01*
X130400477Y-95967226D01*
G37*
G36*
X127860477Y-95967226D02*
G01*
X127966741Y-95999461D01*
X128004118Y-96010799D01*
X128136490Y-96081554D01*
X128136492Y-96081555D01*
X128136491Y-96081555D01*
X128252522Y-96176778D01*
X128258163Y-96183652D01*
X128347746Y-96292809D01*
X128418501Y-96425181D01*
X128429839Y-96462558D01*
X128462074Y-96568822D01*
X128473100Y-96680774D01*
X128473100Y-98076426D01*
X128462074Y-98188378D01*
X128431958Y-98287658D01*
X128418501Y-98332019D01*
X128347746Y-98464391D01*
X128252522Y-98580422D01*
X128136491Y-98675646D01*
X128004119Y-98746401D01*
X127966742Y-98757739D01*
X127860478Y-98789974D01*
X127711100Y-98804686D01*
X127561723Y-98789974D01*
X127455459Y-98757739D01*
X127418082Y-98746401D01*
X127285710Y-98675646D01*
X127169679Y-98580422D01*
X127074455Y-98464391D01*
X127003700Y-98332019D01*
X126990243Y-98287658D01*
X126960127Y-98188378D01*
X126949101Y-98076426D01*
X126949100Y-96680775D01*
X126960126Y-96568823D01*
X127003698Y-96425186D01*
X127003699Y-96425182D01*
X127074454Y-96292810D01*
X127088934Y-96275166D01*
X127169678Y-96176778D01*
X127285708Y-96081555D01*
X127285707Y-96081555D01*
X127285709Y-96081554D01*
X127418081Y-96010799D01*
X127455458Y-95999461D01*
X127561722Y-95967226D01*
X127711100Y-95952514D01*
X127860477Y-95967226D01*
X127860477Y-95967226D01*
G37*
G36*
X125320477Y-95967226D02*
G01*
X125426741Y-95999461D01*
X125464118Y-96010799D01*
X125596490Y-96081554D01*
X125596492Y-96081555D01*
X125596491Y-96081555D01*
X125712522Y-96176778D01*
X125718163Y-96183652D01*
X125807746Y-96292809D01*
X125878501Y-96425181D01*
X125889839Y-96462558D01*
X125922074Y-96568822D01*
X125933100Y-96680774D01*
X125933100Y-98076426D01*
X125922074Y-98188378D01*
X125891958Y-98287658D01*
X125878501Y-98332019D01*
X125807746Y-98464391D01*
X125712522Y-98580422D01*
X125596491Y-98675646D01*
X125464119Y-98746401D01*
X125426742Y-98757739D01*
X125320478Y-98789974D01*
X125171100Y-98804686D01*
X125021723Y-98789974D01*
X124915459Y-98757739D01*
X124878082Y-98746401D01*
X124745710Y-98675646D01*
X124629679Y-98580422D01*
X124534455Y-98464391D01*
X124463700Y-98332019D01*
X124450243Y-98287658D01*
X124420127Y-98188378D01*
X124409101Y-98076426D01*
X124409100Y-96680775D01*
X124420126Y-96568823D01*
X124463698Y-96425186D01*
X124463699Y-96425182D01*
X124534454Y-96292810D01*
X124548934Y-96275166D01*
X124629678Y-96176778D01*
X124745708Y-96081555D01*
X124745707Y-96081555D01*
X124745709Y-96081554D01*
X124878081Y-96010799D01*
X124915458Y-95999461D01*
X125021722Y-95967226D01*
X125171100Y-95952514D01*
X125320477Y-95967226D01*
X125320477Y-95967226D01*
G37*
G36*
X122780477Y-95967226D02*
G01*
X122886741Y-95999461D01*
X122924118Y-96010799D01*
X123056490Y-96081554D01*
X123056492Y-96081555D01*
X123056491Y-96081555D01*
X123172522Y-96176778D01*
X123178163Y-96183652D01*
X123267746Y-96292809D01*
X123338501Y-96425181D01*
X123349839Y-96462558D01*
X123382074Y-96568822D01*
X123393100Y-96680774D01*
X123393100Y-98076426D01*
X123382074Y-98188378D01*
X123351958Y-98287658D01*
X123338501Y-98332019D01*
X123267746Y-98464391D01*
X123172522Y-98580422D01*
X123056491Y-98675646D01*
X122924119Y-98746401D01*
X122886742Y-98757739D01*
X122780478Y-98789974D01*
X122631100Y-98804686D01*
X122481723Y-98789974D01*
X122375459Y-98757739D01*
X122338082Y-98746401D01*
X122205710Y-98675646D01*
X122089679Y-98580422D01*
X121994455Y-98464391D01*
X121923700Y-98332019D01*
X121910243Y-98287658D01*
X121880127Y-98188378D01*
X121869101Y-98076426D01*
X121869100Y-96680775D01*
X121880126Y-96568823D01*
X121923698Y-96425186D01*
X121923699Y-96425182D01*
X121994454Y-96292810D01*
X122008934Y-96275166D01*
X122089678Y-96176778D01*
X122205708Y-96081555D01*
X122205707Y-96081555D01*
X122205709Y-96081554D01*
X122338081Y-96010799D01*
X122375458Y-95999461D01*
X122481722Y-95967226D01*
X122631100Y-95952514D01*
X122780477Y-95967226D01*
X122780477Y-95967226D01*
G37*
G36*
X168500477Y-95967226D02*
G01*
X168606741Y-95999461D01*
X168644118Y-96010799D01*
X168776490Y-96081554D01*
X168776492Y-96081555D01*
X168776491Y-96081555D01*
X168892522Y-96176778D01*
X168898163Y-96183652D01*
X168987746Y-96292809D01*
X169058501Y-96425181D01*
X169069839Y-96462558D01*
X169102074Y-96568822D01*
X169113100Y-96680774D01*
X169113100Y-98076426D01*
X169102074Y-98188378D01*
X169071958Y-98287658D01*
X169058501Y-98332019D01*
X168987746Y-98464391D01*
X168892522Y-98580422D01*
X168776491Y-98675646D01*
X168644119Y-98746401D01*
X168606742Y-98757739D01*
X168500478Y-98789974D01*
X168351100Y-98804686D01*
X168201723Y-98789974D01*
X168095459Y-98757739D01*
X168058082Y-98746401D01*
X167925710Y-98675646D01*
X167809679Y-98580422D01*
X167714455Y-98464391D01*
X167643700Y-98332019D01*
X167630243Y-98287658D01*
X167600127Y-98188378D01*
X167589101Y-98076426D01*
X167589100Y-96680775D01*
X167600126Y-96568823D01*
X167643698Y-96425186D01*
X167643699Y-96425182D01*
X167714454Y-96292810D01*
X167728934Y-96275166D01*
X167809678Y-96176778D01*
X167925708Y-96081555D01*
X167925707Y-96081555D01*
X167925709Y-96081554D01*
X168058081Y-96010799D01*
X168095458Y-95999461D01*
X168201722Y-95967226D01*
X168351100Y-95952514D01*
X168500477Y-95967226D01*
X168500477Y-95967226D01*
G37*
G36*
X145640477Y-95967226D02*
G01*
X145746741Y-95999461D01*
X145784118Y-96010799D01*
X145916490Y-96081554D01*
X145916492Y-96081555D01*
X145916491Y-96081555D01*
X146032522Y-96176778D01*
X146038163Y-96183652D01*
X146127746Y-96292809D01*
X146198501Y-96425181D01*
X146209839Y-96462558D01*
X146242074Y-96568822D01*
X146253100Y-96680774D01*
X146253100Y-98076426D01*
X146242074Y-98188378D01*
X146211958Y-98287658D01*
X146198501Y-98332019D01*
X146127746Y-98464391D01*
X146032522Y-98580422D01*
X145916491Y-98675646D01*
X145784119Y-98746401D01*
X145746742Y-98757739D01*
X145640478Y-98789974D01*
X145491100Y-98804686D01*
X145341723Y-98789974D01*
X145235459Y-98757739D01*
X145198082Y-98746401D01*
X145065710Y-98675646D01*
X144949679Y-98580422D01*
X144854455Y-98464391D01*
X144783700Y-98332019D01*
X144770243Y-98287658D01*
X144740127Y-98188378D01*
X144729101Y-98076426D01*
X144729100Y-96680775D01*
X144740126Y-96568823D01*
X144783698Y-96425186D01*
X144783699Y-96425182D01*
X144854454Y-96292810D01*
X144868934Y-96275166D01*
X144949678Y-96176778D01*
X145065708Y-96081555D01*
X145065707Y-96081555D01*
X145065709Y-96081554D01*
X145198081Y-96010799D01*
X145235458Y-95999461D01*
X145341722Y-95967226D01*
X145491100Y-95952514D01*
X145640477Y-95967226D01*
X145640477Y-95967226D01*
G37*
G36*
X150720477Y-95967226D02*
G01*
X150826741Y-95999461D01*
X150864118Y-96010799D01*
X150996490Y-96081554D01*
X150996492Y-96081555D01*
X150996491Y-96081555D01*
X151112522Y-96176778D01*
X151118163Y-96183652D01*
X151207746Y-96292809D01*
X151278501Y-96425181D01*
X151289839Y-96462558D01*
X151322074Y-96568822D01*
X151333100Y-96680774D01*
X151333100Y-98076426D01*
X151322074Y-98188378D01*
X151291958Y-98287658D01*
X151278501Y-98332019D01*
X151207746Y-98464391D01*
X151112522Y-98580422D01*
X150996491Y-98675646D01*
X150864119Y-98746401D01*
X150826742Y-98757739D01*
X150720478Y-98789974D01*
X150571100Y-98804686D01*
X150421723Y-98789974D01*
X150315459Y-98757739D01*
X150278082Y-98746401D01*
X150145710Y-98675646D01*
X150029679Y-98580422D01*
X149934455Y-98464391D01*
X149863700Y-98332019D01*
X149850243Y-98287658D01*
X149820127Y-98188378D01*
X149809101Y-98076426D01*
X149809100Y-96680775D01*
X149820126Y-96568823D01*
X149863698Y-96425186D01*
X149863699Y-96425182D01*
X149934454Y-96292810D01*
X149948934Y-96275166D01*
X150029678Y-96176778D01*
X150145708Y-96081555D01*
X150145707Y-96081555D01*
X150145709Y-96081554D01*
X150278081Y-96010799D01*
X150315458Y-95999461D01*
X150421722Y-95967226D01*
X150571100Y-95952514D01*
X150720477Y-95967226D01*
X150720477Y-95967226D01*
G37*
G36*
X153260477Y-95967226D02*
G01*
X153366741Y-95999461D01*
X153404118Y-96010799D01*
X153536490Y-96081554D01*
X153536492Y-96081555D01*
X153536491Y-96081555D01*
X153652522Y-96176778D01*
X153658163Y-96183652D01*
X153747746Y-96292809D01*
X153818501Y-96425181D01*
X153829839Y-96462558D01*
X153862074Y-96568822D01*
X153873100Y-96680774D01*
X153873100Y-98076426D01*
X153862074Y-98188378D01*
X153831958Y-98287658D01*
X153818501Y-98332019D01*
X153747746Y-98464391D01*
X153652522Y-98580422D01*
X153536491Y-98675646D01*
X153404119Y-98746401D01*
X153366742Y-98757739D01*
X153260478Y-98789974D01*
X153111100Y-98804686D01*
X152961723Y-98789974D01*
X152855459Y-98757739D01*
X152818082Y-98746401D01*
X152685710Y-98675646D01*
X152569679Y-98580422D01*
X152474455Y-98464391D01*
X152403700Y-98332019D01*
X152390243Y-98287658D01*
X152360127Y-98188378D01*
X152349101Y-98076426D01*
X152349100Y-96680775D01*
X152360126Y-96568823D01*
X152403698Y-96425186D01*
X152403699Y-96425182D01*
X152474454Y-96292810D01*
X152488934Y-96275166D01*
X152569678Y-96176778D01*
X152685708Y-96081555D01*
X152685707Y-96081555D01*
X152685709Y-96081554D01*
X152818081Y-96010799D01*
X152855458Y-95999461D01*
X152961722Y-95967226D01*
X153111100Y-95952514D01*
X153260477Y-95967226D01*
X153260477Y-95967226D01*
G37*
G36*
X155800477Y-95967226D02*
G01*
X155906741Y-95999461D01*
X155944118Y-96010799D01*
X156076490Y-96081554D01*
X156076492Y-96081555D01*
X156076491Y-96081555D01*
X156192522Y-96176778D01*
X156198163Y-96183652D01*
X156287746Y-96292809D01*
X156358501Y-96425181D01*
X156369839Y-96462558D01*
X156402074Y-96568822D01*
X156413100Y-96680774D01*
X156413100Y-98076426D01*
X156402074Y-98188378D01*
X156371958Y-98287658D01*
X156358501Y-98332019D01*
X156287746Y-98464391D01*
X156192522Y-98580422D01*
X156076491Y-98675646D01*
X155944119Y-98746401D01*
X155906742Y-98757739D01*
X155800478Y-98789974D01*
X155651100Y-98804686D01*
X155501723Y-98789974D01*
X155395459Y-98757739D01*
X155358082Y-98746401D01*
X155225710Y-98675646D01*
X155109679Y-98580422D01*
X155014455Y-98464391D01*
X154943700Y-98332019D01*
X154930243Y-98287658D01*
X154900127Y-98188378D01*
X154889101Y-98076426D01*
X154889100Y-96680775D01*
X154900126Y-96568823D01*
X154943698Y-96425186D01*
X154943699Y-96425182D01*
X155014454Y-96292810D01*
X155028934Y-96275166D01*
X155109678Y-96176778D01*
X155225708Y-96081555D01*
X155225707Y-96081555D01*
X155225709Y-96081554D01*
X155358081Y-96010799D01*
X155395458Y-95999461D01*
X155501722Y-95967226D01*
X155651100Y-95952514D01*
X155800477Y-95967226D01*
X155800477Y-95967226D01*
G37*
G36*
X158340477Y-95967226D02*
G01*
X158446741Y-95999461D01*
X158484118Y-96010799D01*
X158616490Y-96081554D01*
X158616492Y-96081555D01*
X158616491Y-96081555D01*
X158732522Y-96176778D01*
X158738163Y-96183652D01*
X158827746Y-96292809D01*
X158898501Y-96425181D01*
X158909839Y-96462558D01*
X158942074Y-96568822D01*
X158953100Y-96680774D01*
X158953100Y-98076426D01*
X158942074Y-98188378D01*
X158911958Y-98287658D01*
X158898501Y-98332019D01*
X158827746Y-98464391D01*
X158732522Y-98580422D01*
X158616491Y-98675646D01*
X158484119Y-98746401D01*
X158446742Y-98757739D01*
X158340478Y-98789974D01*
X158191100Y-98804686D01*
X158041723Y-98789974D01*
X157935459Y-98757739D01*
X157898082Y-98746401D01*
X157765710Y-98675646D01*
X157649679Y-98580422D01*
X157554455Y-98464391D01*
X157483700Y-98332019D01*
X157470243Y-98287658D01*
X157440127Y-98188378D01*
X157429101Y-98076426D01*
X157429100Y-96680775D01*
X157440126Y-96568823D01*
X157483698Y-96425186D01*
X157483699Y-96425182D01*
X157554454Y-96292810D01*
X157568934Y-96275166D01*
X157649678Y-96176778D01*
X157765708Y-96081555D01*
X157765707Y-96081555D01*
X157765709Y-96081554D01*
X157898081Y-96010799D01*
X157935458Y-95999461D01*
X158041722Y-95967226D01*
X158191100Y-95952514D01*
X158340477Y-95967226D01*
X158340477Y-95967226D01*
G37*
G36*
X160880477Y-95967226D02*
G01*
X160986741Y-95999461D01*
X161024118Y-96010799D01*
X161156490Y-96081554D01*
X161156492Y-96081555D01*
X161156491Y-96081555D01*
X161272522Y-96176778D01*
X161278163Y-96183652D01*
X161367746Y-96292809D01*
X161438501Y-96425181D01*
X161449839Y-96462558D01*
X161482074Y-96568822D01*
X161493100Y-96680774D01*
X161493100Y-98076426D01*
X161482074Y-98188378D01*
X161451958Y-98287658D01*
X161438501Y-98332019D01*
X161367746Y-98464391D01*
X161272522Y-98580422D01*
X161156491Y-98675646D01*
X161024119Y-98746401D01*
X160986742Y-98757739D01*
X160880478Y-98789974D01*
X160731100Y-98804686D01*
X160581723Y-98789974D01*
X160475459Y-98757739D01*
X160438082Y-98746401D01*
X160305710Y-98675646D01*
X160189679Y-98580422D01*
X160094455Y-98464391D01*
X160023700Y-98332019D01*
X160010243Y-98287658D01*
X159980127Y-98188378D01*
X159969101Y-98076426D01*
X159969100Y-96680775D01*
X159980126Y-96568823D01*
X160023698Y-96425186D01*
X160023699Y-96425182D01*
X160094454Y-96292810D01*
X160108934Y-96275166D01*
X160189678Y-96176778D01*
X160305708Y-96081555D01*
X160305707Y-96081555D01*
X160305709Y-96081554D01*
X160438081Y-96010799D01*
X160475458Y-95999461D01*
X160581722Y-95967226D01*
X160731100Y-95952514D01*
X160880477Y-95967226D01*
X160880477Y-95967226D01*
G37*
G36*
X163420477Y-95967226D02*
G01*
X163526741Y-95999461D01*
X163564118Y-96010799D01*
X163696490Y-96081554D01*
X163696492Y-96081555D01*
X163696491Y-96081555D01*
X163812522Y-96176778D01*
X163818163Y-96183652D01*
X163907746Y-96292809D01*
X163978501Y-96425181D01*
X163989839Y-96462558D01*
X164022074Y-96568822D01*
X164033100Y-96680774D01*
X164033100Y-98076426D01*
X164022074Y-98188378D01*
X163991958Y-98287658D01*
X163978501Y-98332019D01*
X163907746Y-98464391D01*
X163812522Y-98580422D01*
X163696491Y-98675646D01*
X163564119Y-98746401D01*
X163526742Y-98757739D01*
X163420478Y-98789974D01*
X163271100Y-98804686D01*
X163121723Y-98789974D01*
X163015459Y-98757739D01*
X162978082Y-98746401D01*
X162845710Y-98675646D01*
X162729679Y-98580422D01*
X162634455Y-98464391D01*
X162563700Y-98332019D01*
X162550243Y-98287658D01*
X162520127Y-98188378D01*
X162509101Y-98076426D01*
X162509100Y-96680775D01*
X162520126Y-96568823D01*
X162563698Y-96425186D01*
X162563699Y-96425182D01*
X162634454Y-96292810D01*
X162648934Y-96275166D01*
X162729678Y-96176778D01*
X162845708Y-96081555D01*
X162845707Y-96081555D01*
X162845709Y-96081554D01*
X162978081Y-96010799D01*
X163015458Y-95999461D01*
X163121722Y-95967226D01*
X163271100Y-95952514D01*
X163420477Y-95967226D01*
X163420477Y-95967226D01*
G37*
G36*
X165960477Y-95967226D02*
G01*
X166066741Y-95999461D01*
X166104118Y-96010799D01*
X166236490Y-96081554D01*
X166236492Y-96081555D01*
X166236491Y-96081555D01*
X166352522Y-96176778D01*
X166358163Y-96183652D01*
X166447746Y-96292809D01*
X166518501Y-96425181D01*
X166529839Y-96462558D01*
X166562074Y-96568822D01*
X166573100Y-96680774D01*
X166573100Y-98076426D01*
X166562074Y-98188378D01*
X166531958Y-98287658D01*
X166518501Y-98332019D01*
X166447746Y-98464391D01*
X166352522Y-98580422D01*
X166236491Y-98675646D01*
X166104119Y-98746401D01*
X166066742Y-98757739D01*
X165960478Y-98789974D01*
X165811100Y-98804686D01*
X165661723Y-98789974D01*
X165555459Y-98757739D01*
X165518082Y-98746401D01*
X165385710Y-98675646D01*
X165269679Y-98580422D01*
X165174455Y-98464391D01*
X165103700Y-98332019D01*
X165090243Y-98287658D01*
X165060127Y-98188378D01*
X165049101Y-98076426D01*
X165049100Y-96680775D01*
X165060126Y-96568823D01*
X165103698Y-96425186D01*
X165103699Y-96425182D01*
X165174454Y-96292810D01*
X165188934Y-96275166D01*
X165269678Y-96176778D01*
X165385708Y-96081555D01*
X165385707Y-96081555D01*
X165385709Y-96081554D01*
X165518081Y-96010799D01*
X165555458Y-95999461D01*
X165661722Y-95967226D01*
X165811100Y-95952514D01*
X165960477Y-95967226D01*
X165960477Y-95967226D01*
G37*
G36*
X143100477Y-95967226D02*
G01*
X143206741Y-95999461D01*
X143244118Y-96010799D01*
X143376490Y-96081554D01*
X143376492Y-96081555D01*
X143376491Y-96081555D01*
X143492522Y-96176778D01*
X143498163Y-96183652D01*
X143587746Y-96292809D01*
X143658501Y-96425181D01*
X143669839Y-96462558D01*
X143702074Y-96568822D01*
X143713100Y-96680774D01*
X143713100Y-98076426D01*
X143702074Y-98188378D01*
X143671958Y-98287658D01*
X143658501Y-98332019D01*
X143587746Y-98464391D01*
X143492522Y-98580422D01*
X143376491Y-98675646D01*
X143244119Y-98746401D01*
X143206742Y-98757739D01*
X143100478Y-98789974D01*
X142951100Y-98804686D01*
X142801723Y-98789974D01*
X142695459Y-98757739D01*
X142658082Y-98746401D01*
X142525710Y-98675646D01*
X142409679Y-98580422D01*
X142314455Y-98464391D01*
X142243700Y-98332019D01*
X142230243Y-98287658D01*
X142200127Y-98188378D01*
X142189101Y-98076426D01*
X142189100Y-96680775D01*
X142200126Y-96568823D01*
X142243698Y-96425186D01*
X142243699Y-96425182D01*
X142314454Y-96292810D01*
X142328934Y-96275166D01*
X142409678Y-96176778D01*
X142525708Y-96081555D01*
X142525707Y-96081555D01*
X142525709Y-96081554D01*
X142658081Y-96010799D01*
X142695458Y-95999461D01*
X142801722Y-95967226D01*
X142951100Y-95952514D01*
X143100477Y-95967226D01*
X143100477Y-95967226D01*
G37*
G36*
X120240477Y-95967226D02*
G01*
X120346741Y-95999461D01*
X120384118Y-96010799D01*
X120516490Y-96081554D01*
X120516492Y-96081555D01*
X120516491Y-96081555D01*
X120632522Y-96176778D01*
X120638163Y-96183652D01*
X120727746Y-96292809D01*
X120798501Y-96425181D01*
X120809839Y-96462558D01*
X120842074Y-96568822D01*
X120853100Y-96680774D01*
X120853100Y-98076426D01*
X120842074Y-98188378D01*
X120811958Y-98287658D01*
X120798501Y-98332019D01*
X120727746Y-98464391D01*
X120632522Y-98580422D01*
X120516491Y-98675646D01*
X120384119Y-98746401D01*
X120346742Y-98757739D01*
X120240478Y-98789974D01*
X120091100Y-98804686D01*
X119941723Y-98789974D01*
X119835459Y-98757739D01*
X119798082Y-98746401D01*
X119665710Y-98675646D01*
X119549679Y-98580422D01*
X119454455Y-98464391D01*
X119383700Y-98332019D01*
X119370243Y-98287658D01*
X119340127Y-98188378D01*
X119329101Y-98076426D01*
X119329100Y-96680775D01*
X119340126Y-96568823D01*
X119383698Y-96425186D01*
X119383699Y-96425182D01*
X119454454Y-96292810D01*
X119468934Y-96275166D01*
X119549678Y-96176778D01*
X119665708Y-96081555D01*
X119665707Y-96081555D01*
X119665709Y-96081554D01*
X119798081Y-96010799D01*
X119835458Y-95999461D01*
X119941722Y-95967226D01*
X120091100Y-95952514D01*
X120240477Y-95967226D01*
X120240477Y-95967226D01*
G37*
G36*
X148180477Y-95967226D02*
G01*
X148286741Y-95999461D01*
X148324118Y-96010799D01*
X148456490Y-96081554D01*
X148456492Y-96081555D01*
X148456491Y-96081555D01*
X148572522Y-96176778D01*
X148578163Y-96183652D01*
X148667746Y-96292809D01*
X148738501Y-96425181D01*
X148749839Y-96462558D01*
X148782074Y-96568822D01*
X148793100Y-96680774D01*
X148793100Y-98076426D01*
X148782074Y-98188378D01*
X148751958Y-98287658D01*
X148738501Y-98332019D01*
X148667746Y-98464391D01*
X148572522Y-98580422D01*
X148456491Y-98675646D01*
X148324119Y-98746401D01*
X148286742Y-98757739D01*
X148180478Y-98789974D01*
X148031100Y-98804686D01*
X147881723Y-98789974D01*
X147775459Y-98757739D01*
X147738082Y-98746401D01*
X147605710Y-98675646D01*
X147489679Y-98580422D01*
X147394455Y-98464391D01*
X147323700Y-98332019D01*
X147310243Y-98287658D01*
X147280127Y-98188378D01*
X147269101Y-98076426D01*
X147269100Y-96680775D01*
X147280126Y-96568823D01*
X147323698Y-96425186D01*
X147323699Y-96425182D01*
X147394454Y-96292810D01*
X147408934Y-96275166D01*
X147489678Y-96176778D01*
X147605708Y-96081555D01*
X147605707Y-96081555D01*
X147605709Y-96081554D01*
X147738081Y-96010799D01*
X147775458Y-95999461D01*
X147881722Y-95967226D01*
X148031100Y-95952514D01*
X148180477Y-95967226D01*
X148180477Y-95967226D01*
G37*
G36*
X113914295Y-95366122D02*
G01*
X113963367Y-95375883D01*
X114102042Y-95433324D01*
X114226847Y-95516716D01*
X114332984Y-95622853D01*
X114416376Y-95747658D01*
X114416376Y-95747659D01*
X114473817Y-95886334D01*
X114498575Y-96010798D01*
X114503100Y-96033550D01*
X114503100Y-96183650D01*
X114473817Y-96330867D01*
X114416376Y-96469542D01*
X114332984Y-96594347D01*
X114226847Y-96700484D01*
X114102042Y-96783876D01*
X113963367Y-96841317D01*
X113914295Y-96851078D01*
X113816152Y-96870600D01*
X113666048Y-96870600D01*
X113567905Y-96851078D01*
X113518833Y-96841317D01*
X113380158Y-96783876D01*
X113255353Y-96700484D01*
X113149216Y-96594347D01*
X113065824Y-96469542D01*
X113008383Y-96330867D01*
X112979100Y-96183650D01*
X112979100Y-96033550D01*
X112983626Y-96010798D01*
X113008383Y-95886334D01*
X113065824Y-95747659D01*
X113065824Y-95747658D01*
X113149216Y-95622853D01*
X113255353Y-95516716D01*
X113380158Y-95433324D01*
X113518833Y-95375883D01*
X113567905Y-95366122D01*
X113666048Y-95346600D01*
X113816152Y-95346600D01*
X113914295Y-95366122D01*
X113914295Y-95366122D01*
G37*
G36*
X197135650Y-94692550D02*
G01*
X194836950Y-94692550D01*
X194836950Y-92393850D01*
X197135650Y-92393850D01*
X197135650Y-94692550D01*
X197135650Y-94692550D01*
G37*
G36*
X190125250Y-94692550D02*
G01*
X187826550Y-94692550D01*
X187826550Y-92393850D01*
X190125250Y-92393850D01*
X190125250Y-94692550D01*
X190125250Y-94692550D01*
G37*
G36*
X183760394Y-90685496D02*
G01*
X183880826Y-90722029D01*
X183923187Y-90734879D01*
X184073207Y-90815066D01*
X184073210Y-90815068D01*
X184073211Y-90815069D01*
X184204712Y-90922988D01*
X184312631Y-91054488D01*
X184312633Y-91054492D01*
X184312634Y-91054493D01*
X184392821Y-91204513D01*
X184392822Y-91204516D01*
X184442204Y-91367305D01*
X184442204Y-91367307D01*
X184454700Y-91494179D01*
X184454700Y-93103021D01*
X184454172Y-93108377D01*
X184442204Y-93229895D01*
X184414157Y-93322352D01*
X184392821Y-93392687D01*
X184312634Y-93542707D01*
X184312631Y-93542712D01*
X184204712Y-93674212D01*
X184073212Y-93782131D01*
X184073208Y-93782133D01*
X184073207Y-93782134D01*
X183923187Y-93862321D01*
X183923184Y-93862322D01*
X183760395Y-93911704D01*
X183591100Y-93928378D01*
X183421806Y-93911704D01*
X183259017Y-93862322D01*
X183259014Y-93862321D01*
X183108994Y-93782134D01*
X183108993Y-93782133D01*
X183108989Y-93782131D01*
X182977489Y-93674212D01*
X182869570Y-93542712D01*
X182869567Y-93542707D01*
X182789380Y-93392687D01*
X182768044Y-93322352D01*
X182739997Y-93229895D01*
X182728029Y-93108377D01*
X182727501Y-93103021D01*
X182727500Y-91494180D01*
X182739996Y-91367308D01*
X182739996Y-91367306D01*
X182776529Y-91246874D01*
X182789379Y-91204513D01*
X182869566Y-91054493D01*
X182869570Y-91054488D01*
X182977488Y-90922988D01*
X183108988Y-90815069D01*
X183108992Y-90815067D01*
X183108993Y-90815066D01*
X183259013Y-90734879D01*
X183259016Y-90734878D01*
X183421805Y-90685496D01*
X183591100Y-90668822D01*
X183760394Y-90685496D01*
X183760394Y-90685496D01*
G37*
G36*
X181220394Y-90685496D02*
G01*
X181340826Y-90722029D01*
X181383187Y-90734879D01*
X181533207Y-90815066D01*
X181533210Y-90815068D01*
X181533211Y-90815069D01*
X181664712Y-90922988D01*
X181772631Y-91054488D01*
X181772633Y-91054492D01*
X181772634Y-91054493D01*
X181852821Y-91204513D01*
X181852822Y-91204516D01*
X181902204Y-91367305D01*
X181902204Y-91367307D01*
X181914700Y-91494179D01*
X181914700Y-93103021D01*
X181914172Y-93108377D01*
X181902204Y-93229895D01*
X181874157Y-93322352D01*
X181852821Y-93392687D01*
X181772634Y-93542707D01*
X181772631Y-93542712D01*
X181664712Y-93674212D01*
X181533212Y-93782131D01*
X181533208Y-93782133D01*
X181533207Y-93782134D01*
X181383187Y-93862321D01*
X181383184Y-93862322D01*
X181220395Y-93911704D01*
X181051100Y-93928378D01*
X180881806Y-93911704D01*
X180719017Y-93862322D01*
X180719014Y-93862321D01*
X180568994Y-93782134D01*
X180568993Y-93782133D01*
X180568989Y-93782131D01*
X180437489Y-93674212D01*
X180329570Y-93542712D01*
X180329567Y-93542707D01*
X180249380Y-93392687D01*
X180228044Y-93322352D01*
X180199997Y-93229895D01*
X180188029Y-93108377D01*
X180187501Y-93103021D01*
X180187500Y-91494180D01*
X180199996Y-91367308D01*
X180199996Y-91367306D01*
X180236529Y-91246874D01*
X180249379Y-91204513D01*
X180329566Y-91054493D01*
X180329570Y-91054488D01*
X180437488Y-90922988D01*
X180568988Y-90815069D01*
X180568992Y-90815067D01*
X180568993Y-90815066D01*
X180719013Y-90734879D01*
X180719016Y-90734878D01*
X180881805Y-90685496D01*
X181051100Y-90668822D01*
X181220394Y-90685496D01*
X181220394Y-90685496D01*
G37*
G36*
X178680394Y-90685496D02*
G01*
X178800826Y-90722029D01*
X178843187Y-90734879D01*
X178993207Y-90815066D01*
X178993210Y-90815068D01*
X178993211Y-90815069D01*
X179124712Y-90922988D01*
X179232631Y-91054488D01*
X179232633Y-91054492D01*
X179232634Y-91054493D01*
X179312821Y-91204513D01*
X179312822Y-91204516D01*
X179362204Y-91367305D01*
X179362204Y-91367307D01*
X179374700Y-91494179D01*
X179374700Y-93103021D01*
X179374172Y-93108377D01*
X179362204Y-93229895D01*
X179334157Y-93322352D01*
X179312821Y-93392687D01*
X179232634Y-93542707D01*
X179232631Y-93542712D01*
X179124712Y-93674212D01*
X178993212Y-93782131D01*
X178993208Y-93782133D01*
X178993207Y-93782134D01*
X178843187Y-93862321D01*
X178843184Y-93862322D01*
X178680395Y-93911704D01*
X178511100Y-93928378D01*
X178341806Y-93911704D01*
X178179017Y-93862322D01*
X178179014Y-93862321D01*
X178028994Y-93782134D01*
X178028993Y-93782133D01*
X178028989Y-93782131D01*
X177897489Y-93674212D01*
X177789570Y-93542712D01*
X177789567Y-93542707D01*
X177709380Y-93392687D01*
X177688044Y-93322352D01*
X177659997Y-93229895D01*
X177648029Y-93108377D01*
X177647501Y-93103021D01*
X177647500Y-91494180D01*
X177659996Y-91367308D01*
X177659996Y-91367306D01*
X177696529Y-91246874D01*
X177709379Y-91204513D01*
X177789566Y-91054493D01*
X177789570Y-91054488D01*
X177897488Y-90922988D01*
X178028988Y-90815069D01*
X178028992Y-90815067D01*
X178028993Y-90815066D01*
X178179013Y-90734879D01*
X178179016Y-90734878D01*
X178341805Y-90685496D01*
X178511100Y-90668822D01*
X178680394Y-90685496D01*
X178680394Y-90685496D01*
G37*
G36*
X116440437Y-90786361D02*
G01*
X116593650Y-90832838D01*
X116593653Y-90832839D01*
X116734852Y-90908311D01*
X116858617Y-91009883D01*
X116960189Y-91133648D01*
X117035661Y-91274847D01*
X117035662Y-91274850D01*
X117082139Y-91428063D01*
X117093900Y-91547477D01*
X117093900Y-93049723D01*
X117082139Y-93169137D01*
X117063708Y-93229895D01*
X117035661Y-93322353D01*
X116960189Y-93463552D01*
X116929930Y-93500422D01*
X116858617Y-93587317D01*
X116753670Y-93673444D01*
X116734850Y-93688889D01*
X116593652Y-93764361D01*
X116593649Y-93764362D01*
X116440436Y-93810839D01*
X116281100Y-93826532D01*
X116121763Y-93810839D01*
X115968550Y-93764362D01*
X115968547Y-93764361D01*
X115827348Y-93688889D01*
X115759371Y-93633101D01*
X115703583Y-93587317D01*
X115602012Y-93463551D01*
X115564134Y-93392687D01*
X115526539Y-93322352D01*
X115526538Y-93322349D01*
X115480061Y-93169136D01*
X115468300Y-93049722D01*
X115468301Y-91547477D01*
X115480062Y-91428063D01*
X115526539Y-91274850D01*
X115526540Y-91274847D01*
X115602012Y-91133648D01*
X115703584Y-91009883D01*
X115827349Y-90908311D01*
X115968548Y-90832839D01*
X115968551Y-90832838D01*
X116121764Y-90786361D01*
X116281100Y-90770668D01*
X116440437Y-90786361D01*
X116440437Y-90786361D01*
G37*
G36*
X113900437Y-90786361D02*
G01*
X114053650Y-90832838D01*
X114053653Y-90832839D01*
X114194852Y-90908311D01*
X114318617Y-91009883D01*
X114420189Y-91133648D01*
X114495661Y-91274847D01*
X114495662Y-91274850D01*
X114542139Y-91428063D01*
X114553900Y-91547477D01*
X114553900Y-93049723D01*
X114542139Y-93169137D01*
X114523708Y-93229895D01*
X114495661Y-93322353D01*
X114420189Y-93463552D01*
X114389930Y-93500422D01*
X114318617Y-93587317D01*
X114213670Y-93673444D01*
X114194850Y-93688889D01*
X114053652Y-93764361D01*
X114053649Y-93764362D01*
X113900436Y-93810839D01*
X113741100Y-93826532D01*
X113581763Y-93810839D01*
X113428550Y-93764362D01*
X113428547Y-93764361D01*
X113287348Y-93688889D01*
X113219371Y-93633101D01*
X113163583Y-93587317D01*
X113062012Y-93463551D01*
X113024134Y-93392687D01*
X112986539Y-93322352D01*
X112986538Y-93322349D01*
X112940061Y-93169136D01*
X112928300Y-93049722D01*
X112928301Y-91547477D01*
X112940062Y-91428063D01*
X112986539Y-91274850D01*
X112986540Y-91274847D01*
X113062012Y-91133648D01*
X113163584Y-91009883D01*
X113287349Y-90908311D01*
X113428548Y-90832839D01*
X113428551Y-90832838D01*
X113581764Y-90786361D01*
X113741100Y-90770668D01*
X113900437Y-90786361D01*
X113900437Y-90786361D01*
G37*
G36*
X171040478Y-90887226D02*
G01*
X171146742Y-90919461D01*
X171184119Y-90930799D01*
X171316491Y-91001554D01*
X171432522Y-91096778D01*
X171527746Y-91212809D01*
X171598501Y-91345181D01*
X171598502Y-91345185D01*
X171642074Y-91488822D01*
X171653100Y-91600774D01*
X171653100Y-92996426D01*
X171642074Y-93108378D01*
X171623644Y-93169134D01*
X171598501Y-93252019D01*
X171527746Y-93384391D01*
X171510670Y-93405198D01*
X171432522Y-93500422D01*
X171334134Y-93581166D01*
X171316490Y-93595646D01*
X171184118Y-93666401D01*
X171158368Y-93674212D01*
X171040477Y-93709974D01*
X170891100Y-93724686D01*
X170741722Y-93709974D01*
X170623831Y-93674212D01*
X170598081Y-93666401D01*
X170465709Y-93595646D01*
X170401203Y-93542707D01*
X170349678Y-93500422D01*
X170254455Y-93384391D01*
X170254454Y-93384390D01*
X170183699Y-93252018D01*
X170172361Y-93214641D01*
X170140126Y-93108377D01*
X170129100Y-92996425D01*
X170129101Y-91600774D01*
X170140127Y-91488822D01*
X170183699Y-91345185D01*
X170183700Y-91345181D01*
X170254455Y-91212809D01*
X170349679Y-91096778D01*
X170465710Y-91001554D01*
X170598082Y-90930799D01*
X170635459Y-90919461D01*
X170741723Y-90887226D01*
X170891100Y-90872514D01*
X171040478Y-90887226D01*
X171040478Y-90887226D01*
G37*
G36*
X168500478Y-90887226D02*
G01*
X168606742Y-90919461D01*
X168644119Y-90930799D01*
X168776491Y-91001554D01*
X168892522Y-91096778D01*
X168987746Y-91212809D01*
X169058501Y-91345181D01*
X169058502Y-91345185D01*
X169102074Y-91488822D01*
X169113100Y-91600774D01*
X169113100Y-92996426D01*
X169102074Y-93108378D01*
X169083644Y-93169134D01*
X169058501Y-93252019D01*
X168987746Y-93384391D01*
X168970670Y-93405198D01*
X168892522Y-93500422D01*
X168794134Y-93581166D01*
X168776490Y-93595646D01*
X168644118Y-93666401D01*
X168618368Y-93674212D01*
X168500477Y-93709974D01*
X168351100Y-93724686D01*
X168201722Y-93709974D01*
X168083831Y-93674212D01*
X168058081Y-93666401D01*
X167925709Y-93595646D01*
X167861203Y-93542707D01*
X167809678Y-93500422D01*
X167714455Y-93384391D01*
X167714454Y-93384390D01*
X167643699Y-93252018D01*
X167632361Y-93214641D01*
X167600126Y-93108377D01*
X167589100Y-92996425D01*
X167589101Y-91600774D01*
X167600127Y-91488822D01*
X167643699Y-91345185D01*
X167643700Y-91345181D01*
X167714455Y-91212809D01*
X167809679Y-91096778D01*
X167925710Y-91001554D01*
X168058082Y-90930799D01*
X168095459Y-90919461D01*
X168201723Y-90887226D01*
X168351100Y-90872514D01*
X168500478Y-90887226D01*
X168500478Y-90887226D01*
G37*
G36*
X160880478Y-90887226D02*
G01*
X160986742Y-90919461D01*
X161024119Y-90930799D01*
X161156491Y-91001554D01*
X161272522Y-91096778D01*
X161367746Y-91212809D01*
X161438501Y-91345181D01*
X161438502Y-91345185D01*
X161482074Y-91488822D01*
X161493100Y-91600774D01*
X161493100Y-92996426D01*
X161482074Y-93108378D01*
X161463644Y-93169134D01*
X161438501Y-93252019D01*
X161367746Y-93384391D01*
X161350670Y-93405198D01*
X161272522Y-93500422D01*
X161174134Y-93581166D01*
X161156490Y-93595646D01*
X161024118Y-93666401D01*
X160998368Y-93674212D01*
X160880477Y-93709974D01*
X160731100Y-93724686D01*
X160581722Y-93709974D01*
X160463831Y-93674212D01*
X160438081Y-93666401D01*
X160305709Y-93595646D01*
X160241203Y-93542707D01*
X160189678Y-93500422D01*
X160094455Y-93384391D01*
X160094454Y-93384390D01*
X160023699Y-93252018D01*
X160012361Y-93214641D01*
X159980126Y-93108377D01*
X159969100Y-92996425D01*
X159969101Y-91600774D01*
X159980127Y-91488822D01*
X160023699Y-91345185D01*
X160023700Y-91345181D01*
X160094455Y-91212809D01*
X160189679Y-91096778D01*
X160305710Y-91001554D01*
X160438082Y-90930799D01*
X160475459Y-90919461D01*
X160581723Y-90887226D01*
X160731100Y-90872514D01*
X160880478Y-90887226D01*
X160880478Y-90887226D01*
G37*
G36*
X165960478Y-90887226D02*
G01*
X166066742Y-90919461D01*
X166104119Y-90930799D01*
X166236491Y-91001554D01*
X166352522Y-91096778D01*
X166447746Y-91212809D01*
X166518501Y-91345181D01*
X166518502Y-91345185D01*
X166562074Y-91488822D01*
X166573100Y-91600774D01*
X166573100Y-92996426D01*
X166562074Y-93108378D01*
X166543644Y-93169134D01*
X166518501Y-93252019D01*
X166447746Y-93384391D01*
X166430670Y-93405198D01*
X166352522Y-93500422D01*
X166254134Y-93581166D01*
X166236490Y-93595646D01*
X166104118Y-93666401D01*
X166078368Y-93674212D01*
X165960477Y-93709974D01*
X165811100Y-93724686D01*
X165661722Y-93709974D01*
X165543831Y-93674212D01*
X165518081Y-93666401D01*
X165385709Y-93595646D01*
X165321203Y-93542707D01*
X165269678Y-93500422D01*
X165174455Y-93384391D01*
X165174454Y-93384390D01*
X165103699Y-93252018D01*
X165092361Y-93214641D01*
X165060126Y-93108377D01*
X165049100Y-92996425D01*
X165049101Y-91600774D01*
X165060127Y-91488822D01*
X165103699Y-91345185D01*
X165103700Y-91345181D01*
X165174455Y-91212809D01*
X165269679Y-91096778D01*
X165385710Y-91001554D01*
X165518082Y-90930799D01*
X165555459Y-90919461D01*
X165661723Y-90887226D01*
X165811100Y-90872514D01*
X165960478Y-90887226D01*
X165960478Y-90887226D01*
G37*
G36*
X158340478Y-90887226D02*
G01*
X158446742Y-90919461D01*
X158484119Y-90930799D01*
X158616491Y-91001554D01*
X158732522Y-91096778D01*
X158827746Y-91212809D01*
X158898501Y-91345181D01*
X158898502Y-91345185D01*
X158942074Y-91488822D01*
X158953100Y-91600774D01*
X158953100Y-92996426D01*
X158942074Y-93108378D01*
X158923644Y-93169134D01*
X158898501Y-93252019D01*
X158827746Y-93384391D01*
X158810670Y-93405198D01*
X158732522Y-93500422D01*
X158634134Y-93581166D01*
X158616490Y-93595646D01*
X158484118Y-93666401D01*
X158458368Y-93674212D01*
X158340477Y-93709974D01*
X158191100Y-93724686D01*
X158041722Y-93709974D01*
X157923831Y-93674212D01*
X157898081Y-93666401D01*
X157765709Y-93595646D01*
X157701203Y-93542707D01*
X157649678Y-93500422D01*
X157554455Y-93384391D01*
X157554454Y-93384390D01*
X157483699Y-93252018D01*
X157472361Y-93214641D01*
X157440126Y-93108377D01*
X157429100Y-92996425D01*
X157429101Y-91600774D01*
X157440127Y-91488822D01*
X157483699Y-91345185D01*
X157483700Y-91345181D01*
X157554455Y-91212809D01*
X157649679Y-91096778D01*
X157765710Y-91001554D01*
X157898082Y-90930799D01*
X157935459Y-90919461D01*
X158041723Y-90887226D01*
X158191100Y-90872514D01*
X158340478Y-90887226D01*
X158340478Y-90887226D01*
G37*
G36*
X173580478Y-90887226D02*
G01*
X173686742Y-90919461D01*
X173724119Y-90930799D01*
X173856491Y-91001554D01*
X173972522Y-91096778D01*
X174067746Y-91212809D01*
X174138501Y-91345181D01*
X174138502Y-91345185D01*
X174182074Y-91488822D01*
X174193100Y-91600774D01*
X174193100Y-92996426D01*
X174182074Y-93108378D01*
X174163644Y-93169134D01*
X174138501Y-93252019D01*
X174067746Y-93384391D01*
X174050670Y-93405198D01*
X173972522Y-93500422D01*
X173874134Y-93581166D01*
X173856490Y-93595646D01*
X173724118Y-93666401D01*
X173698368Y-93674212D01*
X173580477Y-93709974D01*
X173431100Y-93724686D01*
X173281722Y-93709974D01*
X173163831Y-93674212D01*
X173138081Y-93666401D01*
X173005709Y-93595646D01*
X172941203Y-93542707D01*
X172889678Y-93500422D01*
X172794455Y-93384391D01*
X172794454Y-93384390D01*
X172723699Y-93252018D01*
X172712361Y-93214641D01*
X172680126Y-93108377D01*
X172669100Y-92996425D01*
X172669101Y-91600774D01*
X172680127Y-91488822D01*
X172723699Y-91345185D01*
X172723700Y-91345181D01*
X172794455Y-91212809D01*
X172889679Y-91096778D01*
X173005710Y-91001554D01*
X173138082Y-90930799D01*
X173175459Y-90919461D01*
X173281723Y-90887226D01*
X173431100Y-90872514D01*
X173580478Y-90887226D01*
X173580478Y-90887226D01*
G37*
G36*
X163420478Y-90887226D02*
G01*
X163526742Y-90919461D01*
X163564119Y-90930799D01*
X163696491Y-91001554D01*
X163812522Y-91096778D01*
X163907746Y-91212809D01*
X163978501Y-91345181D01*
X163978502Y-91345185D01*
X164022074Y-91488822D01*
X164033100Y-91600774D01*
X164033100Y-92996426D01*
X164022074Y-93108378D01*
X164003644Y-93169134D01*
X163978501Y-93252019D01*
X163907746Y-93384391D01*
X163890670Y-93405198D01*
X163812522Y-93500422D01*
X163714134Y-93581166D01*
X163696490Y-93595646D01*
X163564118Y-93666401D01*
X163538368Y-93674212D01*
X163420477Y-93709974D01*
X163271100Y-93724686D01*
X163121722Y-93709974D01*
X163003831Y-93674212D01*
X162978081Y-93666401D01*
X162845709Y-93595646D01*
X162781203Y-93542707D01*
X162729678Y-93500422D01*
X162634455Y-93384391D01*
X162634454Y-93384390D01*
X162563699Y-93252018D01*
X162552361Y-93214641D01*
X162520126Y-93108377D01*
X162509100Y-92996425D01*
X162509101Y-91600774D01*
X162520127Y-91488822D01*
X162563699Y-91345185D01*
X162563700Y-91345181D01*
X162634455Y-91212809D01*
X162729679Y-91096778D01*
X162845710Y-91001554D01*
X162978082Y-90930799D01*
X163015459Y-90919461D01*
X163121723Y-90887226D01*
X163271100Y-90872514D01*
X163420478Y-90887226D01*
X163420478Y-90887226D01*
G37*
G36*
X148204295Y-91556122D02*
G01*
X148253367Y-91565883D01*
X148392042Y-91623324D01*
X148516847Y-91706716D01*
X148622984Y-91812853D01*
X148706376Y-91937658D01*
X148763817Y-92076333D01*
X148793100Y-92223550D01*
X148793100Y-92373650D01*
X148763817Y-92520867D01*
X148706376Y-92659542D01*
X148622984Y-92784347D01*
X148516847Y-92890484D01*
X148392042Y-92973876D01*
X148253367Y-93031317D01*
X148204295Y-93041078D01*
X148106152Y-93060600D01*
X147956048Y-93060600D01*
X147857905Y-93041078D01*
X147808833Y-93031317D01*
X147670158Y-92973876D01*
X147545353Y-92890484D01*
X147439216Y-92784347D01*
X147355824Y-92659542D01*
X147298383Y-92520867D01*
X147269100Y-92373650D01*
X147269100Y-92223550D01*
X147298383Y-92076333D01*
X147355824Y-91937658D01*
X147439216Y-91812853D01*
X147545353Y-91706716D01*
X147670158Y-91623324D01*
X147808833Y-91565883D01*
X147857905Y-91556122D01*
X147956048Y-91536600D01*
X148106152Y-91536600D01*
X148204295Y-91556122D01*
X148204295Y-91556122D01*
G37*
G36*
X122804295Y-91556122D02*
G01*
X122853367Y-91565883D01*
X122992042Y-91623324D01*
X123116847Y-91706716D01*
X123222984Y-91812853D01*
X123306376Y-91937658D01*
X123363817Y-92076333D01*
X123393100Y-92223550D01*
X123393100Y-92373650D01*
X123363817Y-92520867D01*
X123306376Y-92659542D01*
X123222984Y-92784347D01*
X123116847Y-92890484D01*
X122992042Y-92973876D01*
X122853367Y-93031317D01*
X122804295Y-93041078D01*
X122706152Y-93060600D01*
X122556048Y-93060600D01*
X122457905Y-93041078D01*
X122408833Y-93031317D01*
X122270158Y-92973876D01*
X122145353Y-92890484D01*
X122039216Y-92784347D01*
X121955824Y-92659542D01*
X121898383Y-92520867D01*
X121869100Y-92373650D01*
X121869100Y-92223550D01*
X121898383Y-92076333D01*
X121955824Y-91937658D01*
X122039216Y-91812853D01*
X122145353Y-91706716D01*
X122270158Y-91623324D01*
X122408833Y-91565883D01*
X122457905Y-91556122D01*
X122556048Y-91536600D01*
X122706152Y-91536600D01*
X122804295Y-91556122D01*
X122804295Y-91556122D01*
G37*
G36*
X120264295Y-91556122D02*
G01*
X120313367Y-91565883D01*
X120452042Y-91623324D01*
X120576847Y-91706716D01*
X120682984Y-91812853D01*
X120766376Y-91937658D01*
X120823817Y-92076333D01*
X120853100Y-92223550D01*
X120853100Y-92373650D01*
X120823817Y-92520867D01*
X120766376Y-92659542D01*
X120682984Y-92784347D01*
X120576847Y-92890484D01*
X120452042Y-92973876D01*
X120313367Y-93031317D01*
X120264295Y-93041078D01*
X120166152Y-93060600D01*
X120016048Y-93060600D01*
X119917905Y-93041078D01*
X119868833Y-93031317D01*
X119730158Y-92973876D01*
X119605353Y-92890484D01*
X119499216Y-92784347D01*
X119415824Y-92659542D01*
X119358383Y-92520867D01*
X119329100Y-92373650D01*
X119329100Y-92223550D01*
X119358383Y-92076333D01*
X119415824Y-91937658D01*
X119499216Y-91812853D01*
X119605353Y-91706716D01*
X119730158Y-91623324D01*
X119868833Y-91565883D01*
X119917905Y-91556122D01*
X120016048Y-91536600D01*
X120166152Y-91536600D01*
X120264295Y-91556122D01*
X120264295Y-91556122D01*
G37*
G36*
X126614295Y-91556122D02*
G01*
X126663367Y-91565883D01*
X126802042Y-91623324D01*
X126926847Y-91706716D01*
X127032984Y-91812853D01*
X127116376Y-91937658D01*
X127173817Y-92076333D01*
X127203100Y-92223550D01*
X127203100Y-92373650D01*
X127173817Y-92520867D01*
X127116376Y-92659542D01*
X127032984Y-92784347D01*
X126926847Y-92890484D01*
X126802042Y-92973876D01*
X126663367Y-93031317D01*
X126614295Y-93041078D01*
X126516152Y-93060600D01*
X126366048Y-93060600D01*
X126267905Y-93041078D01*
X126218833Y-93031317D01*
X126080158Y-92973876D01*
X125955353Y-92890484D01*
X125849216Y-92784347D01*
X125765824Y-92659542D01*
X125708383Y-92520867D01*
X125679100Y-92373650D01*
X125679100Y-92223550D01*
X125708383Y-92076333D01*
X125765824Y-91937658D01*
X125849216Y-91812853D01*
X125955353Y-91706716D01*
X126080158Y-91623324D01*
X126218833Y-91565883D01*
X126267905Y-91556122D01*
X126366048Y-91536600D01*
X126516152Y-91536600D01*
X126614295Y-91556122D01*
X126614295Y-91556122D01*
G37*
G36*
X135504295Y-91556122D02*
G01*
X135553367Y-91565883D01*
X135692042Y-91623324D01*
X135816847Y-91706716D01*
X135922984Y-91812853D01*
X136006376Y-91937658D01*
X136063817Y-92076333D01*
X136093100Y-92223550D01*
X136093100Y-92373650D01*
X136063817Y-92520867D01*
X136006376Y-92659542D01*
X135922984Y-92784347D01*
X135816847Y-92890484D01*
X135692042Y-92973876D01*
X135553367Y-93031317D01*
X135504295Y-93041078D01*
X135406152Y-93060600D01*
X135256048Y-93060600D01*
X135157905Y-93041078D01*
X135108833Y-93031317D01*
X134970158Y-92973876D01*
X134845353Y-92890484D01*
X134739216Y-92784347D01*
X134655824Y-92659542D01*
X134598383Y-92520867D01*
X134569100Y-92373650D01*
X134569100Y-92223550D01*
X134598383Y-92076333D01*
X134655824Y-91937658D01*
X134739216Y-91812853D01*
X134845353Y-91706716D01*
X134970158Y-91623324D01*
X135108833Y-91565883D01*
X135157905Y-91556122D01*
X135256048Y-91536600D01*
X135406152Y-91536600D01*
X135504295Y-91556122D01*
X135504295Y-91556122D01*
G37*
G36*
X132964295Y-91556122D02*
G01*
X133013367Y-91565883D01*
X133152042Y-91623324D01*
X133276847Y-91706716D01*
X133382984Y-91812853D01*
X133466376Y-91937658D01*
X133523817Y-92076333D01*
X133553100Y-92223550D01*
X133553100Y-92373650D01*
X133523817Y-92520867D01*
X133466376Y-92659542D01*
X133382984Y-92784347D01*
X133276847Y-92890484D01*
X133152042Y-92973876D01*
X133013367Y-93031317D01*
X132964295Y-93041078D01*
X132866152Y-93060600D01*
X132716048Y-93060600D01*
X132617905Y-93041078D01*
X132568833Y-93031317D01*
X132430158Y-92973876D01*
X132305353Y-92890484D01*
X132199216Y-92784347D01*
X132115824Y-92659542D01*
X132058383Y-92520867D01*
X132029100Y-92373650D01*
X132029100Y-92223550D01*
X132058383Y-92076333D01*
X132115824Y-91937658D01*
X132199216Y-91812853D01*
X132305353Y-91706716D01*
X132430158Y-91623324D01*
X132568833Y-91565883D01*
X132617905Y-91556122D01*
X132716048Y-91536600D01*
X132866152Y-91536600D01*
X132964295Y-91556122D01*
X132964295Y-91556122D01*
G37*
G36*
X141854295Y-91556122D02*
G01*
X141903367Y-91565883D01*
X142042042Y-91623324D01*
X142166847Y-91706716D01*
X142272984Y-91812853D01*
X142356376Y-91937658D01*
X142413817Y-92076333D01*
X142443100Y-92223550D01*
X142443100Y-92373650D01*
X142413817Y-92520867D01*
X142356376Y-92659542D01*
X142272984Y-92784347D01*
X142166847Y-92890484D01*
X142042042Y-92973876D01*
X141903367Y-93031317D01*
X141854295Y-93041078D01*
X141756152Y-93060600D01*
X141606048Y-93060600D01*
X141507905Y-93041078D01*
X141458833Y-93031317D01*
X141320158Y-92973876D01*
X141195353Y-92890484D01*
X141089216Y-92784347D01*
X141005824Y-92659542D01*
X140948383Y-92520867D01*
X140919100Y-92373650D01*
X140919100Y-92223550D01*
X140948383Y-92076333D01*
X141005824Y-91937658D01*
X141089216Y-91812853D01*
X141195353Y-91706716D01*
X141320158Y-91623324D01*
X141458833Y-91565883D01*
X141507905Y-91556122D01*
X141606048Y-91536600D01*
X141756152Y-91536600D01*
X141854295Y-91556122D01*
X141854295Y-91556122D01*
G37*
G36*
X139314295Y-91556122D02*
G01*
X139363367Y-91565883D01*
X139502042Y-91623324D01*
X139626847Y-91706716D01*
X139732984Y-91812853D01*
X139816376Y-91937658D01*
X139873817Y-92076333D01*
X139903100Y-92223550D01*
X139903100Y-92373650D01*
X139873817Y-92520867D01*
X139816376Y-92659542D01*
X139732984Y-92784347D01*
X139626847Y-92890484D01*
X139502042Y-92973876D01*
X139363367Y-93031317D01*
X139314295Y-93041078D01*
X139216152Y-93060600D01*
X139066048Y-93060600D01*
X138967905Y-93041078D01*
X138918833Y-93031317D01*
X138780158Y-92973876D01*
X138655353Y-92890484D01*
X138549216Y-92784347D01*
X138465824Y-92659542D01*
X138408383Y-92520867D01*
X138379100Y-92373650D01*
X138379100Y-92223550D01*
X138408383Y-92076333D01*
X138465824Y-91937658D01*
X138549216Y-91812853D01*
X138655353Y-91706716D01*
X138780158Y-91623324D01*
X138918833Y-91565883D01*
X138967905Y-91556122D01*
X139066048Y-91536600D01*
X139216152Y-91536600D01*
X139314295Y-91556122D01*
X139314295Y-91556122D01*
G37*
G36*
X145664295Y-91556122D02*
G01*
X145713367Y-91565883D01*
X145852042Y-91623324D01*
X145976847Y-91706716D01*
X146082984Y-91812853D01*
X146166376Y-91937658D01*
X146223817Y-92076333D01*
X146253100Y-92223550D01*
X146253100Y-92373650D01*
X146223817Y-92520867D01*
X146166376Y-92659542D01*
X146082984Y-92784347D01*
X145976847Y-92890484D01*
X145852042Y-92973876D01*
X145713367Y-93031317D01*
X145664295Y-93041078D01*
X145566152Y-93060600D01*
X145416048Y-93060600D01*
X145317905Y-93041078D01*
X145268833Y-93031317D01*
X145130158Y-92973876D01*
X145005353Y-92890484D01*
X144899216Y-92784347D01*
X144815824Y-92659542D01*
X144758383Y-92520867D01*
X144729100Y-92373650D01*
X144729100Y-92223550D01*
X144758383Y-92076333D01*
X144815824Y-91937658D01*
X144899216Y-91812853D01*
X145005353Y-91706716D01*
X145130158Y-91623324D01*
X145268833Y-91565883D01*
X145317905Y-91556122D01*
X145416048Y-91536600D01*
X145566152Y-91536600D01*
X145664295Y-91556122D01*
X145664295Y-91556122D01*
G37*
G36*
X152014295Y-91556122D02*
G01*
X152063367Y-91565883D01*
X152202042Y-91623324D01*
X152326847Y-91706716D01*
X152432984Y-91812853D01*
X152516376Y-91937658D01*
X152573817Y-92076333D01*
X152603100Y-92223550D01*
X152603100Y-92373650D01*
X152573817Y-92520867D01*
X152516376Y-92659542D01*
X152432984Y-92784347D01*
X152326847Y-92890484D01*
X152202042Y-92973876D01*
X152063367Y-93031317D01*
X152014295Y-93041078D01*
X151916152Y-93060600D01*
X151766048Y-93060600D01*
X151667905Y-93041078D01*
X151618833Y-93031317D01*
X151480158Y-92973876D01*
X151355353Y-92890484D01*
X151249216Y-92784347D01*
X151165824Y-92659542D01*
X151108383Y-92520867D01*
X151079100Y-92373650D01*
X151079100Y-92223550D01*
X151108383Y-92076333D01*
X151165824Y-91937658D01*
X151249216Y-91812853D01*
X151355353Y-91706716D01*
X151480158Y-91623324D01*
X151618833Y-91565883D01*
X151667905Y-91556122D01*
X151766048Y-91536600D01*
X151916152Y-91536600D01*
X152014295Y-91556122D01*
X152014295Y-91556122D01*
G37*
G36*
X154554295Y-91556122D02*
G01*
X154603367Y-91565883D01*
X154742042Y-91623324D01*
X154866847Y-91706716D01*
X154972984Y-91812853D01*
X155056376Y-91937658D01*
X155113817Y-92076333D01*
X155143100Y-92223550D01*
X155143100Y-92373650D01*
X155113817Y-92520867D01*
X155056376Y-92659542D01*
X154972984Y-92784347D01*
X154866847Y-92890484D01*
X154742042Y-92973876D01*
X154603367Y-93031317D01*
X154554295Y-93041078D01*
X154456152Y-93060600D01*
X154306048Y-93060600D01*
X154207905Y-93041078D01*
X154158833Y-93031317D01*
X154020158Y-92973876D01*
X153895353Y-92890484D01*
X153789216Y-92784347D01*
X153705824Y-92659542D01*
X153648383Y-92520867D01*
X153619100Y-92373650D01*
X153619100Y-92223550D01*
X153648383Y-92076333D01*
X153705824Y-91937658D01*
X153789216Y-91812853D01*
X153895353Y-91706716D01*
X154020158Y-91623324D01*
X154158833Y-91565883D01*
X154207905Y-91556122D01*
X154306048Y-91536600D01*
X154456152Y-91536600D01*
X154554295Y-91556122D01*
X154554295Y-91556122D01*
G37*
G36*
X101214295Y-91556122D02*
G01*
X101263367Y-91565883D01*
X101402042Y-91623324D01*
X101526847Y-91706716D01*
X101632984Y-91812853D01*
X101716376Y-91937658D01*
X101773817Y-92076333D01*
X101803100Y-92223550D01*
X101803100Y-92373650D01*
X101773817Y-92520867D01*
X101716376Y-92659542D01*
X101632984Y-92784347D01*
X101526847Y-92890484D01*
X101402042Y-92973876D01*
X101263367Y-93031317D01*
X101214295Y-93041078D01*
X101116152Y-93060600D01*
X100966048Y-93060600D01*
X100867905Y-93041078D01*
X100818833Y-93031317D01*
X100680158Y-92973876D01*
X100555353Y-92890484D01*
X100449216Y-92784347D01*
X100365824Y-92659542D01*
X100308383Y-92520867D01*
X100279100Y-92373650D01*
X100279100Y-92223550D01*
X100308383Y-92076333D01*
X100365824Y-91937658D01*
X100449216Y-91812853D01*
X100555353Y-91706716D01*
X100680158Y-91623324D01*
X100818833Y-91565883D01*
X100867905Y-91556122D01*
X100966048Y-91536600D01*
X101116152Y-91536600D01*
X101214295Y-91556122D01*
X101214295Y-91556122D01*
G37*
G36*
X108834295Y-91556122D02*
G01*
X108883367Y-91565883D01*
X109022042Y-91623324D01*
X109146847Y-91706716D01*
X109252984Y-91812853D01*
X109336376Y-91937658D01*
X109393817Y-92076333D01*
X109423100Y-92223550D01*
X109423100Y-92373650D01*
X109393817Y-92520867D01*
X109336376Y-92659542D01*
X109252984Y-92784347D01*
X109146847Y-92890484D01*
X109022042Y-92973876D01*
X108883367Y-93031317D01*
X108834295Y-93041078D01*
X108736152Y-93060600D01*
X108586048Y-93060600D01*
X108487905Y-93041078D01*
X108438833Y-93031317D01*
X108300158Y-92973876D01*
X108175353Y-92890484D01*
X108069216Y-92784347D01*
X107985824Y-92659542D01*
X107928383Y-92520867D01*
X107899100Y-92373650D01*
X107899100Y-92223550D01*
X107928383Y-92076333D01*
X107985824Y-91937658D01*
X108069216Y-91812853D01*
X108175353Y-91706716D01*
X108300158Y-91623324D01*
X108438833Y-91565883D01*
X108487905Y-91556122D01*
X108586048Y-91536600D01*
X108736152Y-91536600D01*
X108834295Y-91556122D01*
X108834295Y-91556122D01*
G37*
G36*
X129154295Y-91556122D02*
G01*
X129203367Y-91565883D01*
X129342042Y-91623324D01*
X129466847Y-91706716D01*
X129572984Y-91812853D01*
X129656376Y-91937658D01*
X129713817Y-92076333D01*
X129743100Y-92223550D01*
X129743100Y-92373650D01*
X129713817Y-92520867D01*
X129656376Y-92659542D01*
X129572984Y-92784347D01*
X129466847Y-92890484D01*
X129342042Y-92973876D01*
X129203367Y-93031317D01*
X129154295Y-93041078D01*
X129056152Y-93060600D01*
X128906048Y-93060600D01*
X128807905Y-93041078D01*
X128758833Y-93031317D01*
X128620158Y-92973876D01*
X128495353Y-92890484D01*
X128389216Y-92784347D01*
X128305824Y-92659542D01*
X128248383Y-92520867D01*
X128219100Y-92373650D01*
X128219100Y-92223550D01*
X128248383Y-92076333D01*
X128305824Y-91937658D01*
X128389216Y-91812853D01*
X128495353Y-91706716D01*
X128620158Y-91623324D01*
X128758833Y-91565883D01*
X128807905Y-91556122D01*
X128906048Y-91536600D01*
X129056152Y-91536600D01*
X129154295Y-91556122D01*
X129154295Y-91556122D01*
G37*
G36*
X195592600Y-91917600D02*
G01*
X193865400Y-91917600D01*
X193865400Y-90190400D01*
X195592600Y-90190400D01*
X195592600Y-91917600D01*
X195592600Y-91917600D01*
G37*
G36*
X191096800Y-91917600D02*
G01*
X189369600Y-91917600D01*
X189369600Y-90190400D01*
X191096800Y-90190400D01*
X191096800Y-91917600D01*
X191096800Y-91917600D01*
G37*
M02*
