M48
; DRILL file {KiCad 5.1.2} date 20.10.2020 13:32:58
; FORMAT={-:-/ absolute / metric / decimal}
; #@! TF.CreationDate,2020-10-20T13:32:58+02:00
; #@! TF.GenerationSoftware,Kicad,Pcbnew,5.1.2
; #@! TF.FileFunction,Plated,1,2,PTH
FMAT,2
METRIC
T1C0.610
T2C0.813
T3C0.914
T4C1.016
T5C1.397
%
G90
G05
T1
X107.709Y-102.141
X108.979Y-116.111
X111.519Y-114.524
X112.154Y-91.346
X112.471Y-101.506
X112.471Y-108.809
X112.789Y-94.204
X113.741Y-109.761
X118.186Y-97.696
X118.186Y-104.046
X124.854Y-105.951
X127.711Y-107.856
X128.981Y-114.206
X129.299Y-102.141
X131.521Y-114.206
X132.474Y-102.776
X135.966Y-107.856
X138.506Y-107.856
X140.729Y-103.094
X141.681Y-104.046
X143.269Y-104.046
X145.174Y-102.141
X145.174Y-105.951
X145.491Y-109.761
X148.666Y-105.951
X150.254Y-108.809
X152.159Y-103.094
X154.699Y-107.856
X155.016Y-109.761
X155.651Y-93.251
X155.969Y-107.856
X156.604Y-91.029
X158.191Y-104.046
X159.779Y-100.236
X160.731Y-106.586
X162.001Y-103.094
X162.954Y-102.141
X162.954Y-109.761
X165.176Y-108.174
X165.176Y-109.761
X165.811Y-104.046
X167.081Y-98.966
X168.034Y-103.411
X168.351Y-117.064
X169.304Y-109.444
X169.621Y-98.966
X169.939Y-97.379
X170.891Y-96.426
X174.384Y-100.236
X174.701Y-112.301
X175.336Y-95.791
X179.781Y-98.649
X179.781Y-106.586
X180.734Y-97.696
X181.686Y-96.744
T2
X120.091Y-97.379
X120.091Y-112.619
X122.631Y-97.379
X122.631Y-112.619
X125.171Y-97.379
X125.171Y-112.619
X127.711Y-97.379
X127.711Y-112.619
X130.251Y-97.379
X130.251Y-112.619
X132.791Y-97.379
X132.791Y-112.619
X135.331Y-97.379
X135.331Y-112.619
X137.871Y-97.379
X137.871Y-112.619
X140.411Y-97.379
X140.411Y-112.619
X142.951Y-97.379
X142.951Y-112.619
X145.491Y-97.379
X145.491Y-112.619
X148.031Y-97.379
X148.031Y-112.619
X150.571Y-97.379
X150.571Y-112.619
X153.111Y-97.379
X153.111Y-112.619
X155.651Y-97.379
X155.651Y-112.619
X158.191Y-97.379
X158.191Y-112.619
X160.731Y-97.379
X160.731Y-112.619
X163.271Y-97.379
X163.271Y-112.619
X165.811Y-97.379
X165.811Y-112.619
X168.351Y-97.379
X168.351Y-112.619
X175.971Y-107.539
X175.971Y-115.159
X101.041Y-92.299
X101.041Y-99.919
X108.661Y-92.299
X108.661Y-99.919
X158.191Y-92.299
X160.731Y-92.299
X163.271Y-92.299
X165.811Y-92.299
X168.351Y-92.299
X170.891Y-92.299
X173.431Y-92.299
X126.441Y-92.299
X128.981Y-92.299
X113.741Y-96.109
X113.741Y-98.649
X120.091Y-92.299
X122.631Y-92.299
X141.681Y-115.159
X144.221Y-115.159
X99.771Y-104.999
X99.771Y-112.619
X102.311Y-104.999
X102.311Y-112.619
X104.851Y-104.999
X104.851Y-112.619
X107.391Y-104.999
X107.391Y-112.619
X109.931Y-104.999
X109.931Y-112.619
X112.471Y-104.999
X112.471Y-112.619
X115.011Y-104.999
X115.011Y-112.619
X132.791Y-92.299
X135.331Y-92.299
X139.141Y-92.299
X141.681Y-92.299
X172.161Y-99.919
X172.161Y-102.459
X172.161Y-104.999
X172.161Y-107.539
X172.161Y-110.079
X172.161Y-112.619
X145.491Y-92.299
X148.031Y-92.299
X151.841Y-92.299
X154.381Y-92.299
T3
X113.741Y-92.299
X116.281Y-92.299
T4
X184.861Y-112.619
X184.861Y-115.159
X187.401Y-112.619
X187.401Y-115.159
X189.941Y-112.619
X189.941Y-115.159
X192.481Y-112.619
X192.481Y-115.159
X195.021Y-112.619
X195.021Y-115.159
X197.561Y-112.619
X197.561Y-115.159
X98.501Y-118.969
X101.041Y-118.969
X103.581Y-118.969
X106.121Y-118.969
X108.661Y-118.969
X111.201Y-118.969
X113.741Y-118.969
X116.281Y-118.969
X118.821Y-118.969
X121.361Y-118.969
X123.901Y-118.969
X126.441Y-118.969
X128.981Y-118.969
X131.521Y-118.969
X134.061Y-118.969
X136.601Y-118.969
X139.141Y-118.969
X141.681Y-118.969
X144.221Y-118.969
X146.761Y-118.969
X149.301Y-118.969
X151.841Y-118.969
X154.381Y-118.969
X156.921Y-118.969
X159.461Y-118.969
X162.001Y-118.969
X164.541Y-118.969
X167.081Y-118.969
X169.621Y-118.969
X172.161Y-118.969
X174.701Y-118.969
X177.241Y-118.969
X179.781Y-118.969
X182.321Y-118.969
X184.861Y-118.969
X187.401Y-118.969
X189.941Y-118.969
X192.481Y-118.969
X195.021Y-118.969
X197.561Y-118.969
X190.233Y-91.054
X194.729Y-91.054
X178.511Y-92.299
X181.051Y-92.299
X183.591Y-92.299
T5
X188.976Y-93.543
X195.986Y-93.543
T0
M30
