G04 #@! TF.GenerationSoftware,KiCad,Pcbnew,5.1.2*
G04 #@! TF.CreationDate,2020-10-23T14:26:57+02:00*
G04 #@! TF.ProjectId,eaa651fdd346d6544176813de3c28a36,65616136-3531-4666-9464-333436643635,rev?*
G04 #@! TF.SameCoordinates,Original*
G04 #@! TF.FileFunction,Legend,Top*
G04 #@! TF.FilePolarity,Positive*
%FSLAX46Y46*%
G04 Gerber Fmt 4.6, Leading zero omitted, Abs format (unit mm)*
G04 Created by KiCad (PCBNEW 5.1.2) date 2020-10-23 14:26:57*
%MOMM*%
%LPD*%
G04 APERTURE LIST*
%ADD10C,0.065024*%
%ADD11C,0.142240*%
%ADD12C,0.048768*%
%ADD13C,0.152400*%
%ADD14C,0.100000*%
%ADD15C,0.304800*%
%ADD16C,0.254000*%
%ADD17C,0.127000*%
%ADD18C,0.135128*%
%ADD19C,0.057912*%
%ADD20C,0.120650*%
%ADD21C,0.101600*%
%ADD22C,0.150000*%
%ADD23C,0.118872*%
G04 APERTURE END LIST*
D10*
X197424765Y-108736500D02*
X197461535Y-108626191D01*
X197498304Y-108589422D01*
X197571843Y-108552652D01*
X197682152Y-108552652D01*
X197755691Y-108589422D01*
X197792460Y-108626191D01*
X197829230Y-108699730D01*
X197829230Y-108993886D01*
X197057070Y-108993886D01*
X197057070Y-108736500D01*
X197093840Y-108662961D01*
X197130609Y-108626191D01*
X197204148Y-108589422D01*
X197277687Y-108589422D01*
X197351226Y-108626191D01*
X197387996Y-108662961D01*
X197424765Y-108736500D01*
X197424765Y-108993886D01*
X197057070Y-108221726D02*
X197682152Y-108221726D01*
X197755691Y-108184957D01*
X197792460Y-108148187D01*
X197829230Y-108074648D01*
X197829230Y-107927570D01*
X197792460Y-107854031D01*
X197755691Y-107817262D01*
X197682152Y-107780492D01*
X197057070Y-107780492D01*
X197792460Y-107449566D02*
X197829230Y-107339258D01*
X197829230Y-107155410D01*
X197792460Y-107081871D01*
X197755691Y-107045102D01*
X197682152Y-107008332D01*
X197608613Y-107008332D01*
X197535074Y-107045102D01*
X197498304Y-107081871D01*
X197461535Y-107155410D01*
X197424765Y-107302488D01*
X197387996Y-107376027D01*
X197351226Y-107412797D01*
X197277687Y-107449566D01*
X197204148Y-107449566D01*
X197130609Y-107412797D01*
X197093840Y-107376027D01*
X197057070Y-107302488D01*
X197057070Y-107118641D01*
X197093840Y-107008332D01*
X197608613Y-106714176D02*
X197608613Y-106346481D01*
X197829230Y-106787715D02*
X197057070Y-106530328D01*
X197829230Y-106272942D01*
X197829230Y-106015555D02*
X197057070Y-106015555D01*
X197829230Y-105574321D02*
X197387996Y-105905246D01*
X197057070Y-105574321D02*
X197498304Y-106015555D01*
X194884765Y-110006500D02*
X194921535Y-109896191D01*
X194958304Y-109859422D01*
X195031843Y-109822652D01*
X195142152Y-109822652D01*
X195215691Y-109859422D01*
X195252460Y-109896191D01*
X195289230Y-109969730D01*
X195289230Y-110263886D01*
X194517070Y-110263886D01*
X194517070Y-110006500D01*
X194553840Y-109932961D01*
X194590609Y-109896191D01*
X194664148Y-109859422D01*
X194737687Y-109859422D01*
X194811226Y-109896191D01*
X194847996Y-109932961D01*
X194884765Y-110006500D01*
X194884765Y-110263886D01*
X194517070Y-109491726D02*
X195142152Y-109491726D01*
X195215691Y-109454957D01*
X195252460Y-109418187D01*
X195289230Y-109344648D01*
X195289230Y-109197570D01*
X195252460Y-109124031D01*
X195215691Y-109087262D01*
X195142152Y-109050492D01*
X194517070Y-109050492D01*
X195252460Y-108719566D02*
X195289230Y-108609258D01*
X195289230Y-108425410D01*
X195252460Y-108351871D01*
X195215691Y-108315102D01*
X195142152Y-108278332D01*
X195068613Y-108278332D01*
X194995074Y-108315102D01*
X194958304Y-108351871D01*
X194921535Y-108425410D01*
X194884765Y-108572488D01*
X194847996Y-108646027D01*
X194811226Y-108682797D01*
X194737687Y-108719566D01*
X194664148Y-108719566D01*
X194590609Y-108682797D01*
X194553840Y-108646027D01*
X194517070Y-108572488D01*
X194517070Y-108388641D01*
X194553840Y-108278332D01*
X195289230Y-107506172D02*
X194921535Y-107763559D01*
X195289230Y-107947406D02*
X194517070Y-107947406D01*
X194517070Y-107653250D01*
X194553840Y-107579711D01*
X194590609Y-107542942D01*
X194664148Y-107506172D01*
X194774457Y-107506172D01*
X194847996Y-107542942D01*
X194884765Y-107579711D01*
X194921535Y-107653250D01*
X194921535Y-107947406D01*
X195362769Y-106660473D02*
X195326000Y-106734012D01*
X195252460Y-106807551D01*
X195142152Y-106917860D01*
X195105382Y-106991399D01*
X195105382Y-107064938D01*
X195289230Y-107028168D02*
X195252460Y-107101707D01*
X195178921Y-107175246D01*
X195031843Y-107212016D01*
X194774457Y-107212016D01*
X194627379Y-107175246D01*
X194553840Y-107101707D01*
X194517070Y-107028168D01*
X194517070Y-106881090D01*
X194553840Y-106807551D01*
X194627379Y-106734012D01*
X194774457Y-106697242D01*
X195031843Y-106697242D01*
X195178921Y-106734012D01*
X195252460Y-106807551D01*
X195289230Y-106881090D01*
X195289230Y-107028168D01*
X191878447Y-96071830D02*
X191621060Y-95704135D01*
X191437213Y-96071830D02*
X191437213Y-95299670D01*
X191731369Y-95299670D01*
X191804908Y-95336440D01*
X191841677Y-95373209D01*
X191878447Y-95446748D01*
X191878447Y-95557057D01*
X191841677Y-95630596D01*
X191804908Y-95667365D01*
X191731369Y-95704135D01*
X191437213Y-95704135D01*
X192209373Y-95667365D02*
X192466759Y-95667365D01*
X192577068Y-96071830D02*
X192209373Y-96071830D01*
X192209373Y-95299670D01*
X192577068Y-95299670D01*
X192871224Y-96035060D02*
X192981533Y-96071830D01*
X193165380Y-96071830D01*
X193238919Y-96035060D01*
X193275689Y-95998291D01*
X193312458Y-95924752D01*
X193312458Y-95851213D01*
X193275689Y-95777674D01*
X193238919Y-95740904D01*
X193165380Y-95704135D01*
X193018302Y-95667365D01*
X192944763Y-95630596D01*
X192907994Y-95593826D01*
X192871224Y-95520287D01*
X192871224Y-95446748D01*
X192907994Y-95373209D01*
X192944763Y-95336440D01*
X193018302Y-95299670D01*
X193202150Y-95299670D01*
X193312458Y-95336440D01*
X193643384Y-95667365D02*
X193900771Y-95667365D01*
X194011079Y-96071830D02*
X193643384Y-96071830D01*
X193643384Y-95299670D01*
X194011079Y-95299670D01*
X194231697Y-95299670D02*
X194672931Y-95299670D01*
X194452314Y-96071830D02*
X194452314Y-95299670D01*
X192749230Y-110263886D02*
X191977070Y-110263886D01*
X192344765Y-110263886D02*
X192344765Y-109822652D01*
X192749230Y-109822652D02*
X191977070Y-109822652D01*
X192528613Y-109491726D02*
X192528613Y-109124031D01*
X192749230Y-109565265D02*
X191977070Y-109307879D01*
X192749230Y-109050492D01*
X192749230Y-108425410D02*
X192749230Y-108793105D01*
X191977070Y-108793105D01*
X191977070Y-108278332D02*
X191977070Y-107837098D01*
X192749230Y-108057715D02*
X191977070Y-108057715D01*
X189437070Y-110337425D02*
X190209230Y-110153578D01*
X189657687Y-110006500D01*
X190209230Y-109859422D01*
X189437070Y-109675574D01*
X189988613Y-109418187D02*
X189988613Y-109050492D01*
X190209230Y-109491726D02*
X189437070Y-109234340D01*
X190209230Y-108976953D01*
X190209230Y-108719566D02*
X189437070Y-108719566D01*
X189437070Y-108462180D02*
X189437070Y-108020945D01*
X190209230Y-108241562D02*
X189437070Y-108241562D01*
X98863230Y-116613886D02*
X98091070Y-116613886D01*
X98091070Y-116319730D01*
X98127840Y-116246191D01*
X98164609Y-116209422D01*
X98238148Y-116172652D01*
X98348457Y-116172652D01*
X98421996Y-116209422D01*
X98458765Y-116246191D01*
X98495535Y-116319730D01*
X98495535Y-116613886D01*
X98863230Y-115841726D02*
X98091070Y-115841726D01*
X98863230Y-115474031D02*
X98091070Y-115474031D01*
X98863230Y-115032797D01*
X98091070Y-115032797D01*
X98863230Y-114260637D02*
X98863230Y-114701871D01*
X98863230Y-114481254D02*
X98091070Y-114481254D01*
X98201379Y-114554793D01*
X98274918Y-114628332D01*
X98311687Y-114701871D01*
X187669230Y-110263886D02*
X186897070Y-110263886D01*
X187669230Y-109822652D01*
X186897070Y-109822652D01*
X187669230Y-109454957D02*
X186897070Y-109454957D01*
X187448613Y-109197570D01*
X186897070Y-108940183D01*
X187669230Y-108940183D01*
X187669230Y-108572488D02*
X186897070Y-108572488D01*
X185129230Y-109822652D02*
X184761535Y-110080039D01*
X185129230Y-110263886D02*
X184357070Y-110263886D01*
X184357070Y-109969730D01*
X184393840Y-109896191D01*
X184430609Y-109859422D01*
X184504148Y-109822652D01*
X184614457Y-109822652D01*
X184687996Y-109859422D01*
X184724765Y-109896191D01*
X184761535Y-109969730D01*
X184761535Y-110263886D01*
X184724765Y-109234340D02*
X184724765Y-109491726D01*
X185129230Y-109491726D02*
X184357070Y-109491726D01*
X184357070Y-109124031D01*
X185092460Y-108866644D02*
X185129230Y-108756336D01*
X185129230Y-108572488D01*
X185092460Y-108498949D01*
X185055691Y-108462180D01*
X184982152Y-108425410D01*
X184908613Y-108425410D01*
X184835074Y-108462180D01*
X184798304Y-108498949D01*
X184761535Y-108572488D01*
X184724765Y-108719566D01*
X184687996Y-108793105D01*
X184651226Y-108829875D01*
X184577687Y-108866644D01*
X184504148Y-108866644D01*
X184430609Y-108829875D01*
X184393840Y-108793105D01*
X184357070Y-108719566D01*
X184357070Y-108535719D01*
X184393840Y-108425410D01*
X185129230Y-108094484D02*
X184357070Y-108094484D01*
X184724765Y-108094484D02*
X184724765Y-107653250D01*
X185129230Y-107653250D02*
X184357070Y-107653250D01*
D11*
X101171756Y-115125500D02*
X101493489Y-116251566D01*
X101815222Y-115447233D01*
X102136956Y-116251566D01*
X102458689Y-115125500D01*
X102941289Y-115125500D02*
X103263022Y-116251566D01*
X103584756Y-115447233D01*
X103906489Y-116251566D01*
X104228222Y-115125500D01*
X104710822Y-115125500D02*
X105032556Y-116251566D01*
X105354289Y-115447233D01*
X105676022Y-116251566D01*
X105997756Y-115125500D01*
X106641222Y-116090700D02*
X106721656Y-116171133D01*
X106641222Y-116251566D01*
X106560789Y-116171133D01*
X106641222Y-116090700D01*
X106641222Y-116251566D01*
X107365122Y-116171133D02*
X107525989Y-116251566D01*
X107847722Y-116251566D01*
X108008589Y-116171133D01*
X108089022Y-116010266D01*
X108089022Y-115929833D01*
X108008589Y-115768966D01*
X107847722Y-115688533D01*
X107606422Y-115688533D01*
X107445556Y-115608100D01*
X107365122Y-115447233D01*
X107365122Y-115366800D01*
X107445556Y-115205933D01*
X107606422Y-115125500D01*
X107847722Y-115125500D01*
X108008589Y-115205933D01*
X108812922Y-116251566D02*
X108812922Y-115125500D01*
X108812922Y-115286366D02*
X108893356Y-115205933D01*
X109054222Y-115125500D01*
X109295522Y-115125500D01*
X109456389Y-115205933D01*
X109536822Y-115366800D01*
X109536822Y-116251566D01*
X109536822Y-115366800D02*
X109617256Y-115205933D01*
X109778122Y-115125500D01*
X110019422Y-115125500D01*
X110180289Y-115205933D01*
X110260722Y-115366800D01*
X110260722Y-116251566D01*
X111065056Y-116251566D02*
X111065056Y-114562466D01*
X111065056Y-115205933D02*
X111225922Y-115125500D01*
X111547656Y-115125500D01*
X111708522Y-115205933D01*
X111788956Y-115286366D01*
X111869389Y-115447233D01*
X111869389Y-115929833D01*
X111788956Y-116090700D01*
X111708522Y-116171133D01*
X111547656Y-116251566D01*
X111225922Y-116251566D01*
X111065056Y-116171133D01*
X113317189Y-116251566D02*
X113317189Y-115366800D01*
X113236756Y-115205933D01*
X113075889Y-115125500D01*
X112754156Y-115125500D01*
X112593289Y-115205933D01*
X113317189Y-116171133D02*
X113156322Y-116251566D01*
X112754156Y-116251566D01*
X112593289Y-116171133D01*
X112512856Y-116010266D01*
X112512856Y-115849400D01*
X112593289Y-115688533D01*
X112754156Y-115608100D01*
X113156322Y-115608100D01*
X113317189Y-115527666D01*
X114121522Y-116251566D02*
X114121522Y-114562466D01*
X114282389Y-115608100D02*
X114764989Y-116251566D01*
X114764989Y-115125500D02*
X114121522Y-115768966D01*
X116132356Y-116171133D02*
X115971489Y-116251566D01*
X115649756Y-116251566D01*
X115488889Y-116171133D01*
X115408456Y-116010266D01*
X115408456Y-115366800D01*
X115488889Y-115205933D01*
X115649756Y-115125500D01*
X115971489Y-115125500D01*
X116132356Y-115205933D01*
X116212789Y-115366800D01*
X116212789Y-115527666D01*
X115408456Y-115688533D01*
X116936689Y-116251566D02*
X116936689Y-115125500D01*
X116936689Y-115447233D02*
X117017122Y-115286366D01*
X117097556Y-115205933D01*
X117258422Y-115125500D01*
X117419289Y-115125500D01*
X117982322Y-116090700D02*
X118062756Y-116171133D01*
X117982322Y-116251566D01*
X117901889Y-116171133D01*
X117982322Y-116090700D01*
X117982322Y-116251566D01*
X119510556Y-116171133D02*
X119349689Y-116251566D01*
X119027956Y-116251566D01*
X118867089Y-116171133D01*
X118786656Y-116090700D01*
X118706222Y-115929833D01*
X118706222Y-115447233D01*
X118786656Y-115286366D01*
X118867089Y-115205933D01*
X119027956Y-115125500D01*
X119349689Y-115125500D01*
X119510556Y-115205933D01*
X120475756Y-116251566D02*
X120314889Y-116171133D01*
X120234456Y-116090700D01*
X120154022Y-115929833D01*
X120154022Y-115447233D01*
X120234456Y-115286366D01*
X120314889Y-115205933D01*
X120475756Y-115125500D01*
X120717056Y-115125500D01*
X120877922Y-115205933D01*
X120958356Y-115286366D01*
X121038789Y-115447233D01*
X121038789Y-115929833D01*
X120958356Y-116090700D01*
X120877922Y-116171133D01*
X120717056Y-116251566D01*
X120475756Y-116251566D01*
X121762689Y-116251566D02*
X121762689Y-115125500D01*
X121762689Y-115286366D02*
X121843122Y-115205933D01*
X122003989Y-115125500D01*
X122245289Y-115125500D01*
X122406156Y-115205933D01*
X122486589Y-115366800D01*
X122486589Y-116251566D01*
X122486589Y-115366800D02*
X122567022Y-115205933D01*
X122727889Y-115125500D01*
X122969189Y-115125500D01*
X123130056Y-115205933D01*
X123210489Y-115366800D01*
X123210489Y-116251566D01*
D12*
X181551610Y-94811022D02*
X181358570Y-94535251D01*
X181220684Y-94811022D02*
X181220684Y-94231902D01*
X181441302Y-94231902D01*
X181496456Y-94259480D01*
X181524033Y-94287057D01*
X181551610Y-94342211D01*
X181551610Y-94424942D01*
X181524033Y-94480097D01*
X181496456Y-94507674D01*
X181441302Y-94535251D01*
X181220684Y-94535251D01*
X184064033Y-94259480D02*
X184008879Y-94231902D01*
X183926147Y-94231902D01*
X183843416Y-94259480D01*
X183788262Y-94314634D01*
X183760684Y-94369788D01*
X183733107Y-94480097D01*
X183733107Y-94562828D01*
X183760684Y-94673137D01*
X183788262Y-94728291D01*
X183843416Y-94783445D01*
X183926147Y-94811022D01*
X183981302Y-94811022D01*
X184064033Y-94783445D01*
X184091610Y-94755868D01*
X184091610Y-94562828D01*
X183981302Y-94562828D01*
X178956456Y-94231902D02*
X178680684Y-94231902D01*
X178653107Y-94507674D01*
X178680684Y-94480097D01*
X178735839Y-94452520D01*
X178873724Y-94452520D01*
X178928879Y-94480097D01*
X178956456Y-94507674D01*
X178984033Y-94562828D01*
X178984033Y-94700714D01*
X178956456Y-94755868D01*
X178928879Y-94783445D01*
X178873724Y-94811022D01*
X178735839Y-94811022D01*
X178680684Y-94783445D01*
X178653107Y-94755868D01*
X179149496Y-94231902D02*
X179342536Y-94811022D01*
X179535576Y-94231902D01*
X112971610Y-89675868D02*
X112944033Y-89703445D01*
X112861302Y-89731022D01*
X112806147Y-89731022D01*
X112723416Y-89703445D01*
X112668262Y-89648291D01*
X112640684Y-89593137D01*
X112613107Y-89482828D01*
X112613107Y-89400097D01*
X112640684Y-89289788D01*
X112668262Y-89234634D01*
X112723416Y-89179480D01*
X112806147Y-89151902D01*
X112861302Y-89151902D01*
X112944033Y-89179480D01*
X112971610Y-89207057D01*
X113495576Y-89731022D02*
X113219804Y-89731022D01*
X113219804Y-89151902D01*
X113688616Y-89731022D02*
X113688616Y-89151902D01*
X114019542Y-89731022D02*
X113771347Y-89400097D01*
X114019542Y-89151902D02*
X113688616Y-89482828D01*
X178675356Y-89213302D02*
X178399584Y-89213302D01*
X178372007Y-89489074D01*
X178399584Y-89461497D01*
X178454739Y-89433920D01*
X178592624Y-89433920D01*
X178647779Y-89461497D01*
X178675356Y-89489074D01*
X178702933Y-89544228D01*
X178702933Y-89682114D01*
X178675356Y-89737268D01*
X178647779Y-89764845D01*
X178592624Y-89792422D01*
X178454739Y-89792422D01*
X178399584Y-89764845D01*
X178372007Y-89737268D01*
X178868396Y-89213302D02*
X179061436Y-89792422D01*
X179254476Y-89213302D01*
X181551610Y-89731022D02*
X181358570Y-89455251D01*
X181220684Y-89731022D02*
X181220684Y-89151902D01*
X181441302Y-89151902D01*
X181496456Y-89179480D01*
X181524033Y-89207057D01*
X181551610Y-89262211D01*
X181551610Y-89344942D01*
X181524033Y-89400097D01*
X181496456Y-89427674D01*
X181441302Y-89455251D01*
X181220684Y-89455251D01*
X184064033Y-89179480D02*
X184008879Y-89151902D01*
X183926147Y-89151902D01*
X183843416Y-89179480D01*
X183788262Y-89234634D01*
X183760684Y-89289788D01*
X183733107Y-89400097D01*
X183733107Y-89482828D01*
X183760684Y-89593137D01*
X183788262Y-89648291D01*
X183843416Y-89703445D01*
X183926147Y-89731022D01*
X183981302Y-89731022D01*
X184064033Y-89703445D01*
X184091610Y-89675868D01*
X184091610Y-89482828D01*
X183981302Y-89482828D01*
D10*
X120243674Y-94791670D02*
X120427521Y-95563830D01*
X120574599Y-95012287D01*
X120721677Y-95563830D01*
X120905525Y-94791670D01*
X121640916Y-95563830D02*
X121383529Y-95196135D01*
X121199681Y-95563830D02*
X121199681Y-94791670D01*
X121493837Y-94791670D01*
X121567377Y-94828440D01*
X121604146Y-94865209D01*
X121640916Y-94938748D01*
X121640916Y-95049057D01*
X121604146Y-95122596D01*
X121567377Y-95159365D01*
X121493837Y-95196135D01*
X121199681Y-95196135D01*
X127108447Y-95563830D02*
X126851060Y-95196135D01*
X126667213Y-95563830D02*
X126667213Y-94791670D01*
X126961369Y-94791670D01*
X127034908Y-94828440D01*
X127071677Y-94865209D01*
X127108447Y-94938748D01*
X127108447Y-95049057D01*
X127071677Y-95122596D01*
X127034908Y-95159365D01*
X126961369Y-95196135D01*
X126667213Y-95196135D01*
X127439373Y-95563830D02*
X127439373Y-94791670D01*
X127623220Y-94791670D01*
X127733529Y-94828440D01*
X127807068Y-94901979D01*
X127843837Y-94975518D01*
X127880607Y-95122596D01*
X127880607Y-95232904D01*
X127843837Y-95379982D01*
X127807068Y-95453521D01*
X127733529Y-95527060D01*
X127623220Y-95563830D01*
X127439373Y-95563830D01*
X133017213Y-95563830D02*
X133017213Y-94791670D01*
X133531986Y-94791670D02*
X133679064Y-94791670D01*
X133752603Y-94828440D01*
X133826142Y-94901979D01*
X133862912Y-95049057D01*
X133862912Y-95306443D01*
X133826142Y-95453521D01*
X133752603Y-95527060D01*
X133679064Y-95563830D01*
X133531986Y-95563830D01*
X133458447Y-95527060D01*
X133384908Y-95453521D01*
X133348138Y-95306443D01*
X133348138Y-95049057D01*
X133384908Y-94901979D01*
X133458447Y-94828440D01*
X133531986Y-94791670D01*
X134635072Y-95563830D02*
X134377685Y-95196135D01*
X134193837Y-95563830D02*
X134193837Y-94791670D01*
X134487994Y-94791670D01*
X134561533Y-94828440D01*
X134598302Y-94865209D01*
X134635072Y-94938748D01*
X134635072Y-95049057D01*
X134598302Y-95122596D01*
X134561533Y-95159365D01*
X134487994Y-95196135D01*
X134193837Y-95196135D01*
X135480771Y-95637369D02*
X135407232Y-95600600D01*
X135333693Y-95527060D01*
X135223384Y-95416752D01*
X135149845Y-95379982D01*
X135076306Y-95379982D01*
X135113076Y-95563830D02*
X135039537Y-95527060D01*
X134965997Y-95453521D01*
X134929228Y-95306443D01*
X134929228Y-95049057D01*
X134965997Y-94901979D01*
X135039537Y-94828440D01*
X135113076Y-94791670D01*
X135260154Y-94791670D01*
X135333693Y-94828440D01*
X135407232Y-94901979D01*
X135444001Y-95049057D01*
X135444001Y-95306443D01*
X135407232Y-95453521D01*
X135333693Y-95527060D01*
X135260154Y-95563830D01*
X135113076Y-95563830D01*
X139367213Y-95563830D02*
X139367213Y-94791670D01*
X139624599Y-95343213D01*
X139881986Y-94791670D01*
X139881986Y-95563830D01*
X140690916Y-95563830D02*
X140433529Y-95196135D01*
X140249681Y-95563830D02*
X140249681Y-94791670D01*
X140543837Y-94791670D01*
X140617377Y-94828440D01*
X140654146Y-94865209D01*
X140690916Y-94938748D01*
X140690916Y-95049057D01*
X140654146Y-95122596D01*
X140617377Y-95159365D01*
X140543837Y-95196135D01*
X140249681Y-95196135D01*
X141021841Y-95159365D02*
X141279228Y-95159365D01*
X141389537Y-95563830D02*
X141021841Y-95563830D01*
X141021841Y-94791670D01*
X141389537Y-94791670D01*
X142235236Y-95637369D02*
X142161697Y-95600600D01*
X142088157Y-95527060D01*
X141977849Y-95416752D01*
X141904310Y-95379982D01*
X141830771Y-95379982D01*
X141867540Y-95563830D02*
X141794001Y-95527060D01*
X141720462Y-95453521D01*
X141683693Y-95306443D01*
X141683693Y-95049057D01*
X141720462Y-94901979D01*
X141794001Y-94828440D01*
X141867540Y-94791670D01*
X142014618Y-94791670D01*
X142088157Y-94828440D01*
X142161697Y-94901979D01*
X142198466Y-95049057D01*
X142198466Y-95306443D01*
X142161697Y-95453521D01*
X142088157Y-95527060D01*
X142014618Y-95563830D01*
X141867540Y-95563830D01*
X146987213Y-95563830D02*
X146987213Y-94791670D01*
X147244599Y-95343213D01*
X147501986Y-94791670D01*
X147501986Y-95563830D01*
X148274146Y-95563830D02*
X147832912Y-95563830D01*
X148053529Y-95563830D02*
X148053529Y-94791670D01*
X147979990Y-94901979D01*
X147906451Y-94975518D01*
X147832912Y-95012287D01*
X152067213Y-95563830D02*
X152067213Y-94791670D01*
X152067213Y-95159365D02*
X152508447Y-95159365D01*
X152508447Y-95563830D02*
X152508447Y-94791670D01*
X152839373Y-95343213D02*
X153207068Y-95343213D01*
X152765834Y-95563830D02*
X153023220Y-94791670D01*
X153280607Y-95563830D01*
X153905689Y-95563830D02*
X153537994Y-95563830D01*
X153537994Y-94791670D01*
X154052767Y-94791670D02*
X154494001Y-94791670D01*
X154273384Y-95563830D02*
X154273384Y-94791670D01*
D13*
X118821100Y-106141600D02*
G75*
G03X118821100Y-104109600I0J1016000D01*
G01*
X118821100Y-111729600D02*
X118821100Y-106141600D01*
X118821100Y-98267600D02*
X118821100Y-104109600D01*
X169621100Y-98267600D02*
X169621100Y-111729600D01*
X118821100Y-111729600D02*
X169621100Y-111729600D01*
X169621100Y-98267600D02*
X118821100Y-98267600D01*
X196926100Y-116428600D02*
X196291100Y-115793600D01*
X198196100Y-116428600D02*
X196926100Y-116428600D01*
X198831100Y-115793600D02*
X198196100Y-116428600D01*
X193116100Y-116428600D02*
X191846100Y-116428600D01*
X191211100Y-115793600D02*
X191846100Y-116428600D01*
X194386100Y-116428600D02*
X193751100Y-115793600D01*
X195656100Y-116428600D02*
X194386100Y-116428600D01*
X196291100Y-115793600D02*
X195656100Y-116428600D01*
X193751100Y-115793600D02*
X193116100Y-116428600D01*
X189306100Y-116428600D02*
X188671100Y-115793600D01*
X190576100Y-116428600D02*
X189306100Y-116428600D01*
X191211100Y-115793600D02*
X190576100Y-116428600D01*
X185496100Y-116428600D02*
X184226100Y-116428600D01*
X183591100Y-115793600D02*
X184226100Y-116428600D01*
X183591100Y-111983600D02*
X183591100Y-115793600D01*
X186766100Y-116428600D02*
X186131100Y-115793600D01*
X188036100Y-116428600D02*
X186766100Y-116428600D01*
X188671100Y-115793600D02*
X188036100Y-116428600D01*
X186131100Y-115793600D02*
X185496100Y-116428600D01*
X198831100Y-111983600D02*
X198831100Y-115793600D01*
X198196100Y-111348600D02*
X198831100Y-111983600D01*
X196926100Y-111348600D02*
X198196100Y-111348600D01*
X196291100Y-111983600D02*
X196926100Y-111348600D01*
X191846100Y-111348600D02*
X191211100Y-111983600D01*
X195656100Y-111348600D02*
X196291100Y-111983600D01*
X194386100Y-111348600D02*
X195656100Y-111348600D01*
X193751100Y-111983600D02*
X194386100Y-111348600D01*
X193116100Y-111348600D02*
X193751100Y-111983600D01*
X191846100Y-111348600D02*
X193116100Y-111348600D01*
X190576100Y-111348600D02*
X191211100Y-111983600D01*
X189306100Y-111348600D02*
X190576100Y-111348600D01*
X188671100Y-111983600D02*
X189306100Y-111348600D01*
X184226100Y-111348600D02*
X183591100Y-111983600D01*
X188036100Y-111348600D02*
X188671100Y-111983600D01*
X186766100Y-111348600D02*
X188036100Y-111348600D01*
X186131100Y-111983600D02*
X186766100Y-111348600D01*
X185496100Y-111348600D02*
X186131100Y-111983600D01*
X184226100Y-111348600D02*
X185496100Y-111348600D01*
D14*
G36*
X176664000Y-114991000D02*
G01*
X176664000Y-114610000D01*
X176156000Y-114610000D01*
X176156000Y-114991000D01*
X176664000Y-114991000D01*
G37*
G36*
X176664000Y-109530000D02*
G01*
X176664000Y-109149000D01*
X176156000Y-109149000D01*
X176156000Y-109530000D01*
X176664000Y-109530000D01*
G37*
D13*
X177172000Y-109530000D02*
X175648000Y-109530000D01*
X177426000Y-109784000D02*
X177426000Y-110165000D01*
X175394000Y-109784000D02*
X175394000Y-110165000D01*
X177299000Y-110292000D02*
X177299000Y-113848000D01*
X177299000Y-110292000D02*
X177426000Y-110165000D01*
X175521000Y-110292000D02*
X175521000Y-113848000D01*
X175521000Y-110292000D02*
X175394000Y-110165000D01*
X177299000Y-113848000D02*
X177426000Y-113975000D01*
X177426000Y-114356000D02*
X177426000Y-113975000D01*
X175521000Y-113848000D02*
X175394000Y-113975000D01*
X175394000Y-114356000D02*
X175394000Y-113975000D01*
X177172000Y-114610000D02*
X175648000Y-114610000D01*
X175648000Y-109530000D02*
G75*
G03X175394000Y-109784000I0J-254000D01*
G01*
X177172000Y-109530000D02*
G75*
G02X177426000Y-109784000I0J-254000D01*
G01*
X177426000Y-114356000D02*
G75*
G02X177172000Y-114610000I-254000J0D01*
G01*
X175394000Y-114356000D02*
G75*
G03X175648000Y-114610000I254000J0D01*
G01*
D15*
X101041100Y-97048400D02*
X102311100Y-97048400D01*
D13*
X101041100Y-97048400D02*
X101041100Y-98648600D01*
D15*
X101041100Y-95168800D02*
X102311100Y-95168800D01*
D13*
X101041100Y-95168800D02*
X101041100Y-93568600D01*
D15*
X99771100Y-97048400D02*
X101041100Y-97048400D01*
X99771100Y-95168800D02*
X101041100Y-95168800D01*
X99771100Y-95803800D02*
X99771100Y-96438800D01*
X102311100Y-95803800D02*
X99771100Y-95803800D01*
X102311100Y-96438800D02*
X102311100Y-95803800D01*
X99771100Y-96438800D02*
X102311100Y-96438800D01*
D13*
X110820100Y-101442600D02*
G75*
G02X110185100Y-102077600I-635000J0D01*
G01*
D16*
X98247100Y-101442600D02*
G75*
G03X99517100Y-102712600I1270000J0D01*
G01*
D13*
X98882100Y-101442600D02*
G75*
G03X99517100Y-102077600I635000J0D01*
G01*
D16*
X99517100Y-89504600D02*
G75*
G03X98247100Y-90774600I0J-1270000D01*
G01*
D13*
X99517100Y-90139600D02*
G75*
G03X98882100Y-90774600I0J-635000D01*
G01*
X110185100Y-90139600D02*
G75*
G02X110820100Y-90774600I0J-635000D01*
G01*
D16*
X110185100Y-89504600D02*
G75*
G02X111455100Y-90774600I0J-1270000D01*
G01*
D13*
X99517100Y-102077600D02*
X110185100Y-102077600D01*
X98882100Y-90774600D02*
X98882100Y-101442600D01*
X110185100Y-90139600D02*
X99517100Y-90139600D01*
X110820100Y-101442600D02*
X110820100Y-90774600D01*
D16*
X111455100Y-102712600D02*
X99517100Y-102712600D01*
X98247100Y-90774600D02*
X98247100Y-101442600D01*
X110185100Y-89504600D02*
X99517100Y-89504600D01*
X111455100Y-102712600D02*
X111455100Y-90774600D01*
D13*
X143205100Y-115158600D02*
X143332100Y-115158600D01*
D16*
X143205100Y-115158600D02*
X143205100Y-114396600D01*
X143205100Y-115920600D02*
X143205100Y-115158600D01*
X142697100Y-115158600D02*
X142697100Y-114396600D01*
X142697100Y-115158600D02*
X142697100Y-115920600D01*
D13*
X142570100Y-115158600D02*
X142697100Y-115158600D01*
X145110100Y-113888600D02*
G75*
G02X145364100Y-114142600I0J-254000D01*
G01*
X140538100Y-114142600D02*
G75*
G02X140792100Y-113888600I254000J0D01*
G01*
X145110100Y-116428600D02*
G75*
G03X145364100Y-116174600I0J254000D01*
G01*
X140538100Y-116174600D02*
G75*
G03X140792100Y-116428600I254000J0D01*
G01*
X145364100Y-116174600D02*
X145364100Y-114142600D01*
X140538100Y-116174600D02*
X140538100Y-114142600D01*
X140792100Y-113888600D02*
X145110100Y-113888600D01*
X145110100Y-116428600D02*
X140792100Y-116428600D01*
X184607100Y-102331600D02*
X184607100Y-105125600D01*
X182829100Y-102077600D02*
X184353100Y-102077600D01*
X182829100Y-105379600D02*
X184353100Y-105379600D01*
X182829100Y-105379600D02*
G75*
G02X182575100Y-105125600I0J254000D01*
G01*
X182575100Y-102331600D02*
G75*
G02X182829100Y-102077600I254000J0D01*
G01*
X184607100Y-102331600D02*
G75*
G03X184353100Y-102077600I-254000J0D01*
G01*
X184353100Y-105379600D02*
G75*
G03X184607100Y-105125600I0J254000D01*
G01*
X182575100Y-105125600D02*
X182575100Y-102331600D01*
D17*
X189941100Y-88234600D02*
X189941100Y-88463200D01*
X195021100Y-88234600D02*
X189941100Y-88234600D01*
X195021100Y-88463200D02*
X195021100Y-88234600D01*
X195021100Y-88463200D02*
X197561100Y-88463200D01*
X189941100Y-88463200D02*
X195021100Y-88463200D01*
X187401100Y-88463200D02*
X189941100Y-88463200D01*
X187401100Y-95067200D02*
X187401100Y-88463200D01*
X197561100Y-95067200D02*
X187401100Y-95067200D01*
X197561100Y-88463200D02*
X197561100Y-95067200D01*
D13*
X184861100Y-91663600D02*
X184861100Y-92933600D01*
X182956100Y-93568600D02*
X182321100Y-92933600D01*
X184226100Y-93568600D02*
X182956100Y-93568600D01*
X184861100Y-92933600D02*
X184226100Y-93568600D01*
X184226100Y-91028600D02*
X184861100Y-91663600D01*
X182956100Y-91028600D02*
X184226100Y-91028600D01*
X182321100Y-91663600D02*
X182956100Y-91028600D01*
X179146100Y-93568600D02*
X177876100Y-93568600D01*
X177241100Y-92933600D02*
X177876100Y-93568600D01*
X177876100Y-91028600D02*
X177241100Y-91663600D01*
X177241100Y-91663600D02*
X177241100Y-92933600D01*
X180416100Y-93568600D02*
X179781100Y-92933600D01*
X181686100Y-93568600D02*
X180416100Y-93568600D01*
X182321100Y-92933600D02*
X181686100Y-93568600D01*
X181686100Y-91028600D02*
X182321100Y-91663600D01*
X180416100Y-91028600D02*
X181686100Y-91028600D01*
X179781100Y-91663600D02*
X180416100Y-91028600D01*
X179781100Y-92933600D02*
X179146100Y-93568600D01*
X179146100Y-91028600D02*
X179781100Y-91663600D01*
X177876100Y-91028600D02*
X179146100Y-91028600D01*
X171272100Y-113507600D02*
X173050100Y-113507600D01*
X171272100Y-111729600D02*
X171272100Y-113507600D01*
X173177100Y-113380600D02*
X173177100Y-99156600D01*
X171145100Y-113380600D02*
X171145100Y-99156600D01*
X171653100Y-98648600D02*
X172669100Y-98648600D01*
X173177099Y-113380599D02*
G75*
G02X172669100Y-113888600I-508000J-1D01*
G01*
X171653101Y-98648599D02*
G75*
G03X171145100Y-99156600I0J-508001D01*
G01*
X172669099Y-98648599D02*
G75*
G02X173177100Y-99156600I0J-508001D01*
G01*
X171145101Y-113380599D02*
G75*
G03X171653100Y-113888600I508000J-1D01*
G01*
X173050100Y-111729600D02*
X173050100Y-113507600D01*
X171272100Y-111729600D02*
X173050100Y-111729600D01*
X171653100Y-113888600D02*
X172669100Y-113888600D01*
X112471100Y-91282600D02*
X112471100Y-93314600D01*
X112471100Y-91282600D02*
X112725100Y-91028600D01*
X114757100Y-91028600D02*
X112725100Y-91028600D01*
X117297100Y-91028600D02*
X115265100Y-91028600D01*
X117297100Y-91028600D02*
X117551100Y-91282600D01*
X117551100Y-93314600D02*
X117551100Y-91282600D01*
X117297100Y-93568600D02*
X115265100Y-93568600D01*
X117297100Y-93568600D02*
X117551100Y-93314600D01*
X112471100Y-93314600D02*
X112725100Y-93568600D01*
X114757100Y-93568600D02*
X112725100Y-93568600D01*
X115011100Y-93314600D02*
X114757100Y-93568600D01*
X115011100Y-93314600D02*
X115265100Y-93568600D01*
X115011100Y-91282600D02*
X114757100Y-91028600D01*
X115011100Y-91282600D02*
X115265100Y-91028600D01*
X113741100Y-97632600D02*
X113741100Y-97759600D01*
D16*
X113741100Y-97632600D02*
X114503100Y-97632600D01*
X112979100Y-97632600D02*
X113741100Y-97632600D01*
X113741100Y-97124600D02*
X114503100Y-97124600D01*
X113741100Y-97124600D02*
X112979100Y-97124600D01*
D13*
X113741100Y-96997600D02*
X113741100Y-97124600D01*
X115011100Y-99537600D02*
G75*
G02X114757100Y-99791600I-254000J0D01*
G01*
X114757100Y-94965600D02*
G75*
G02X115011100Y-95219600I0J-254000D01*
G01*
X112471100Y-99537600D02*
G75*
G03X112725100Y-99791600I254000J0D01*
G01*
X112725100Y-94965600D02*
G75*
G03X112471100Y-95219600I0J-254000D01*
G01*
X112725100Y-99791600D02*
X114757100Y-99791600D01*
X112725100Y-94965600D02*
X114757100Y-94965600D01*
X115011100Y-95219600D02*
X115011100Y-99537600D01*
X112471100Y-99537600D02*
X112471100Y-95219600D01*
X98501100Y-109824600D02*
G75*
G03X98501100Y-107792600I0J1016000D01*
G01*
X98501100Y-111729600D02*
X98501100Y-109824600D01*
X98501100Y-105887600D02*
X98501100Y-107792600D01*
X116281100Y-105887600D02*
X116281100Y-111729600D01*
X98501100Y-111729600D02*
X116281100Y-111729600D01*
X116281100Y-105887600D02*
X98501100Y-105887600D01*
D16*
X121361100Y-94330600D02*
G75*
G02X119596800Y-93306800I-56J2032000D01*
G01*
X122912300Y-93611200D02*
G75*
G02X121361100Y-94330600I-1551163J1312600D01*
G01*
X121361100Y-90266600D02*
G75*
G03X119568200Y-91342400I60J-2032000D01*
G01*
X122922100Y-90997700D02*
G75*
G03X121361100Y-90266600I-1560988J-1300900D01*
G01*
D13*
X121361100Y-93822600D02*
G75*
G02X120158100Y-93234200I8J1524000D01*
G01*
X122564100Y-93234200D02*
G75*
G02X121361100Y-93822600I-1203008J935600D01*
G01*
X121361100Y-90774600D02*
G75*
G03X120141900Y-91384200I0J-1524000D01*
G01*
X122601200Y-91412799D02*
G75*
G03X121361100Y-90774600I-1240134J-885801D01*
G01*
D16*
X127711100Y-94330600D02*
G75*
G02X125946800Y-93306800I-56J2032000D01*
G01*
X129262300Y-93611200D02*
G75*
G02X127711100Y-94330600I-1551163J1312600D01*
G01*
X127711100Y-90266600D02*
G75*
G03X125918200Y-91342400I60J-2032000D01*
G01*
X129272100Y-90997700D02*
G75*
G03X127711100Y-90266600I-1560988J-1300900D01*
G01*
D13*
X127711100Y-93822600D02*
G75*
G02X126508100Y-93234200I8J1524000D01*
G01*
X128914100Y-93234200D02*
G75*
G02X127711100Y-93822600I-1203008J935600D01*
G01*
X127711100Y-90774600D02*
G75*
G03X126491900Y-91384200I0J-1524000D01*
G01*
X128951200Y-91412799D02*
G75*
G03X127711100Y-90774600I-1240134J-885801D01*
G01*
D16*
X134061100Y-94330600D02*
G75*
G02X132296800Y-93306800I-56J2032000D01*
G01*
X135612300Y-93611200D02*
G75*
G02X134061100Y-94330600I-1551163J1312600D01*
G01*
X134061100Y-90266600D02*
G75*
G03X132268200Y-91342400I60J-2032000D01*
G01*
X135622100Y-90997700D02*
G75*
G03X134061100Y-90266600I-1560988J-1300900D01*
G01*
D13*
X134061100Y-93822600D02*
G75*
G02X132858100Y-93234200I8J1524000D01*
G01*
X135264100Y-93234200D02*
G75*
G02X134061100Y-93822600I-1203008J935600D01*
G01*
X134061100Y-90774600D02*
G75*
G03X132841900Y-91384200I0J-1524000D01*
G01*
X135301200Y-91412799D02*
G75*
G03X134061100Y-90774600I-1240134J-885801D01*
G01*
D16*
X140411100Y-94330600D02*
G75*
G02X138646800Y-93306800I-56J2032000D01*
G01*
X141962300Y-93611200D02*
G75*
G02X140411100Y-94330600I-1551163J1312600D01*
G01*
X140411100Y-90266600D02*
G75*
G03X138618200Y-91342400I60J-2032000D01*
G01*
X141972100Y-90997700D02*
G75*
G03X140411100Y-90266600I-1560988J-1300900D01*
G01*
D13*
X140411100Y-93822600D02*
G75*
G02X139208100Y-93234200I8J1524000D01*
G01*
X141614100Y-93234200D02*
G75*
G02X140411100Y-93822600I-1203008J935600D01*
G01*
X140411100Y-90774600D02*
G75*
G03X139191900Y-91384200I0J-1524000D01*
G01*
X141651200Y-91412799D02*
G75*
G03X140411100Y-90774600I-1240134J-885801D01*
G01*
D16*
X146761100Y-94330600D02*
G75*
G02X144996800Y-93306800I-56J2032000D01*
G01*
X148312300Y-93611200D02*
G75*
G02X146761100Y-94330600I-1551163J1312600D01*
G01*
X146761100Y-90266600D02*
G75*
G03X144968200Y-91342400I60J-2032000D01*
G01*
X148322100Y-90997700D02*
G75*
G03X146761100Y-90266600I-1560988J-1300900D01*
G01*
D13*
X146761100Y-93822600D02*
G75*
G02X145558100Y-93234200I8J1524000D01*
G01*
X147964100Y-93234200D02*
G75*
G02X146761100Y-93822600I-1203008J935600D01*
G01*
X146761100Y-90774600D02*
G75*
G03X145541900Y-91384200I0J-1524000D01*
G01*
X148001200Y-91412799D02*
G75*
G03X146761100Y-90774600I-1240134J-885801D01*
G01*
D16*
X153111100Y-94330600D02*
G75*
G02X151346800Y-93306800I-56J2032000D01*
G01*
X154662300Y-93611200D02*
G75*
G02X153111100Y-94330600I-1551163J1312600D01*
G01*
X153111100Y-90266600D02*
G75*
G03X151318200Y-91342400I60J-2032000D01*
G01*
X154672100Y-90997700D02*
G75*
G03X153111100Y-90266600I-1560988J-1300900D01*
G01*
D13*
X153111100Y-93822600D02*
G75*
G02X151908100Y-93234200I8J1524000D01*
G01*
X154314100Y-93234200D02*
G75*
G02X153111100Y-93822600I-1203008J935600D01*
G01*
X153111100Y-90774600D02*
G75*
G03X151891900Y-91384200I0J-1524000D01*
G01*
X154351200Y-91412799D02*
G75*
G03X153111100Y-90774600I-1240134J-885801D01*
G01*
X174320100Y-93187600D02*
X174320100Y-91409600D01*
X172542100Y-93187600D02*
X174320100Y-93187600D01*
X174701100Y-92806600D02*
X174701100Y-91790600D01*
X156921100Y-91790600D02*
X156921100Y-92806600D01*
X174193099Y-91282601D02*
G75*
G02X174701100Y-91790600I1J-508000D01*
G01*
X156921099Y-92806599D02*
G75*
G03X157429100Y-93314600I508001J0D01*
G01*
X156921099Y-91790601D02*
G75*
G02X157429100Y-91282600I508001J0D01*
G01*
X174193099Y-93314599D02*
G75*
G03X174701100Y-92806600I1J508000D01*
G01*
X172542100Y-91409600D02*
X174320100Y-91409600D01*
X172542100Y-93187600D02*
X172542100Y-91409600D01*
X157429100Y-93314600D02*
X174193100Y-93314600D01*
X174193100Y-91282600D02*
X157429100Y-91282600D01*
D18*
X152889999Y-105959566D02*
X152889999Y-104270466D01*
X154659533Y-105798700D02*
X154579099Y-105879133D01*
X154337799Y-105959566D01*
X154176933Y-105959566D01*
X153935633Y-105879133D01*
X153774766Y-105718266D01*
X153694333Y-105557400D01*
X153613899Y-105235666D01*
X153613899Y-104994366D01*
X153694333Y-104672633D01*
X153774766Y-104511766D01*
X153935633Y-104350900D01*
X154176933Y-104270466D01*
X154337799Y-104270466D01*
X154579099Y-104350900D01*
X154659533Y-104431333D01*
X156268199Y-105959566D02*
X155302999Y-105959566D01*
X155785599Y-105959566D02*
X155785599Y-104270466D01*
X155624733Y-104511766D01*
X155463866Y-104672633D01*
X155302999Y-104753066D01*
X127405233Y-104245066D02*
X128531299Y-104245066D01*
X127405233Y-105934166D01*
X128531299Y-105934166D01*
X129416066Y-104968966D02*
X129255199Y-104888533D01*
X129174766Y-104808100D01*
X129094333Y-104647233D01*
X129094333Y-104566800D01*
X129174766Y-104405933D01*
X129255199Y-104325500D01*
X129416066Y-104245066D01*
X129737799Y-104245066D01*
X129898666Y-104325500D01*
X129979099Y-104405933D01*
X130059533Y-104566800D01*
X130059533Y-104647233D01*
X129979099Y-104808100D01*
X129898666Y-104888533D01*
X129737799Y-104968966D01*
X129416066Y-104968966D01*
X129255199Y-105049400D01*
X129174766Y-105129833D01*
X129094333Y-105290700D01*
X129094333Y-105612433D01*
X129174766Y-105773300D01*
X129255199Y-105853733D01*
X129416066Y-105934166D01*
X129737799Y-105934166D01*
X129898666Y-105853733D01*
X129979099Y-105773300D01*
X130059533Y-105612433D01*
X130059533Y-105290700D01*
X129979099Y-105129833D01*
X129898666Y-105049400D01*
X129737799Y-104968966D01*
X131105166Y-104245066D02*
X131266033Y-104245066D01*
X131426899Y-104325500D01*
X131507333Y-104405933D01*
X131587766Y-104566800D01*
X131668199Y-104888533D01*
X131668199Y-105290700D01*
X131587766Y-105612433D01*
X131507333Y-105773300D01*
X131426899Y-105853733D01*
X131266033Y-105934166D01*
X131105166Y-105934166D01*
X130944299Y-105853733D01*
X130863866Y-105773300D01*
X130783433Y-105612433D01*
X130702999Y-105290700D01*
X130702999Y-104888533D01*
X130783433Y-104566800D01*
X130863866Y-104405933D01*
X130944299Y-104325500D01*
X131105166Y-104245066D01*
X134644233Y-105773300D02*
X134563799Y-105853733D01*
X134322499Y-105934166D01*
X134161633Y-105934166D01*
X133920333Y-105853733D01*
X133759466Y-105692866D01*
X133679033Y-105532000D01*
X133598599Y-105210266D01*
X133598599Y-104968966D01*
X133679033Y-104647233D01*
X133759466Y-104486366D01*
X133920333Y-104325500D01*
X134161633Y-104245066D01*
X134322499Y-104245066D01*
X134563799Y-104325500D01*
X134644233Y-104405933D01*
X135368133Y-105934166D02*
X135368133Y-104245066D01*
X136011599Y-104245066D01*
X136172466Y-104325500D01*
X136252899Y-104405933D01*
X136333333Y-104566800D01*
X136333333Y-104808100D01*
X136252899Y-104968966D01*
X136172466Y-105049400D01*
X136011599Y-105129833D01*
X135368133Y-105129833D01*
X137057233Y-104245066D02*
X137057233Y-105612433D01*
X137137666Y-105773300D01*
X137218099Y-105853733D01*
X137378966Y-105934166D01*
X137700699Y-105934166D01*
X137861566Y-105853733D01*
X137941999Y-105773300D01*
X138022433Y-105612433D01*
X138022433Y-104245066D01*
D17*
X182765095Y-113987640D02*
X182822547Y-113815283D01*
X182822547Y-113528021D01*
X182765095Y-113413116D01*
X182707642Y-113355664D01*
X182592738Y-113298211D01*
X182477833Y-113298211D01*
X182362928Y-113355664D01*
X182305476Y-113413116D01*
X182248023Y-113528021D01*
X182190571Y-113757830D01*
X182133119Y-113872735D01*
X182075666Y-113930188D01*
X181960761Y-113987640D01*
X181845857Y-113987640D01*
X181730952Y-113930188D01*
X181673500Y-113872735D01*
X181616047Y-113757830D01*
X181616047Y-113470569D01*
X181673500Y-113298211D01*
X181616047Y-112953497D02*
X182822547Y-112551330D01*
X181616047Y-112149164D01*
X182822547Y-111115021D02*
X182822547Y-111804450D01*
X182822547Y-111459735D02*
X181616047Y-111459735D01*
X181788404Y-111574640D01*
X181903309Y-111689545D01*
X181960761Y-111804450D01*
X197292888Y-110910147D02*
X196603459Y-110910147D01*
X196948173Y-110910147D02*
X196948173Y-109703647D01*
X196833269Y-109876004D01*
X196718364Y-109990909D01*
X196603459Y-110048361D01*
X197752507Y-109818552D02*
X197809959Y-109761100D01*
X197924864Y-109703647D01*
X198212126Y-109703647D01*
X198327030Y-109761100D01*
X198384483Y-109818552D01*
X198441935Y-109933457D01*
X198441935Y-110048361D01*
X198384483Y-110220719D01*
X197695054Y-110910147D01*
X198441935Y-110910147D01*
X183161788Y-115802547D02*
X182472359Y-115802547D01*
X182817073Y-115802547D02*
X182817073Y-114596047D01*
X182702169Y-114768404D01*
X182587264Y-114883309D01*
X182472359Y-114940761D01*
X179379047Y-112411407D02*
X178804523Y-112813573D01*
X179379047Y-113100835D02*
X178172547Y-113100835D01*
X178172547Y-112641216D01*
X178230000Y-112526311D01*
X178287452Y-112468859D01*
X178402357Y-112411407D01*
X178574714Y-112411407D01*
X178689619Y-112468859D01*
X178747071Y-112526311D01*
X178804523Y-112641216D01*
X178804523Y-113100835D01*
X179379047Y-111262359D02*
X179379047Y-111951788D01*
X179379047Y-111607073D02*
X178172547Y-111607073D01*
X178344904Y-111721978D01*
X178459809Y-111836883D01*
X178517261Y-111951788D01*
D19*
X176157577Y-113325311D02*
X176130000Y-113297734D01*
X176102422Y-113242579D01*
X176102422Y-113104694D01*
X176130000Y-113049539D01*
X176157577Y-113021962D01*
X176212731Y-112994385D01*
X176267885Y-112994385D01*
X176350617Y-113021962D01*
X176681542Y-113352888D01*
X176681542Y-112994385D01*
X176626388Y-112746191D02*
X176653965Y-112718614D01*
X176681542Y-112746191D01*
X176653965Y-112773768D01*
X176626388Y-112746191D01*
X176681542Y-112746191D01*
X176157577Y-112497997D02*
X176130000Y-112470419D01*
X176102422Y-112415265D01*
X176102422Y-112277379D01*
X176130000Y-112222225D01*
X176157577Y-112194648D01*
X176212731Y-112167071D01*
X176267885Y-112167071D01*
X176350617Y-112194648D01*
X176681542Y-112525574D01*
X176681542Y-112167071D01*
X176681542Y-111918877D02*
X176102422Y-111918877D01*
X176681542Y-111587951D02*
X176350617Y-111836145D01*
X176102422Y-111587951D02*
X176433348Y-111918877D01*
D20*
X109417452Y-96719982D02*
X109360000Y-96834887D01*
X109245095Y-96949791D01*
X109072738Y-97122148D01*
X109015285Y-97237053D01*
X109015285Y-97351958D01*
X109302547Y-97294506D02*
X109245095Y-97409410D01*
X109130190Y-97524315D01*
X108900380Y-97581767D01*
X108498214Y-97581767D01*
X108268404Y-97524315D01*
X108153500Y-97409410D01*
X108096047Y-97294506D01*
X108096047Y-97064696D01*
X108153500Y-96949791D01*
X108268404Y-96834887D01*
X108498214Y-96777434D01*
X108900380Y-96777434D01*
X109130190Y-96834887D01*
X109245095Y-96949791D01*
X109302547Y-97064696D01*
X109302547Y-97294506D01*
X108153500Y-95628387D02*
X108096047Y-95743291D01*
X108096047Y-95915648D01*
X108153500Y-96088006D01*
X108268404Y-96202910D01*
X108383309Y-96260363D01*
X108613119Y-96317815D01*
X108785476Y-96317815D01*
X109015285Y-96260363D01*
X109130190Y-96202910D01*
X109245095Y-96088006D01*
X109302547Y-95915648D01*
X109302547Y-95800744D01*
X109245095Y-95628387D01*
X109187642Y-95570934D01*
X108785476Y-95570934D01*
X108785476Y-95800744D01*
X109302547Y-94421887D02*
X109302547Y-95111315D01*
X109302547Y-94766601D02*
X108096047Y-94766601D01*
X108268404Y-94881506D01*
X108383309Y-94996410D01*
X108440761Y-95111315D01*
X104145947Y-100937820D02*
X104145947Y-100133487D01*
X105352447Y-100650558D01*
X105237542Y-99673867D02*
X105294995Y-99616415D01*
X105352447Y-99673867D01*
X105294995Y-99731320D01*
X105237542Y-99673867D01*
X105352447Y-99673867D01*
X104145947Y-99214248D02*
X104145947Y-98467367D01*
X104605566Y-98869534D01*
X104605566Y-98697177D01*
X104663019Y-98582272D01*
X104720471Y-98524820D01*
X104835376Y-98467367D01*
X105122638Y-98467367D01*
X105237542Y-98524820D01*
X105294995Y-98582272D01*
X105352447Y-98697177D01*
X105352447Y-99041891D01*
X105294995Y-99156796D01*
X105237542Y-99214248D01*
X104145947Y-98065201D02*
X104145947Y-97260867D01*
X105352447Y-97777939D01*
X104260852Y-96858701D02*
X104203400Y-96801248D01*
X104145947Y-96686344D01*
X104145947Y-96399082D01*
X104203400Y-96284177D01*
X104260852Y-96226725D01*
X104375757Y-96169272D01*
X104490661Y-96169272D01*
X104663019Y-96226725D01*
X105352447Y-96916153D01*
X105352447Y-96169272D01*
X104663019Y-95479844D02*
X104605566Y-95594748D01*
X104548114Y-95652201D01*
X104433209Y-95709653D01*
X104375757Y-95709653D01*
X104260852Y-95652201D01*
X104203400Y-95594748D01*
X104145947Y-95479844D01*
X104145947Y-95250034D01*
X104203400Y-95135129D01*
X104260852Y-95077677D01*
X104375757Y-95020225D01*
X104433209Y-95020225D01*
X104548114Y-95077677D01*
X104605566Y-95135129D01*
X104663019Y-95250034D01*
X104663019Y-95479844D01*
X104720471Y-95594748D01*
X104777923Y-95652201D01*
X104892828Y-95709653D01*
X105122638Y-95709653D01*
X105237542Y-95652201D01*
X105294995Y-95594748D01*
X105352447Y-95479844D01*
X105352447Y-95250034D01*
X105294995Y-95135129D01*
X105237542Y-95077677D01*
X105122638Y-95020225D01*
X104892828Y-95020225D01*
X104777923Y-95077677D01*
X104720471Y-95135129D01*
X104663019Y-95250034D01*
X105352447Y-94503153D02*
X104145947Y-94503153D01*
X105007733Y-94100987D01*
X104145947Y-93698820D01*
X105352447Y-93698820D01*
X105352447Y-93124296D02*
X104145947Y-93124296D01*
X104720471Y-93124296D02*
X104720471Y-92434867D01*
X105352447Y-92434867D02*
X104145947Y-92434867D01*
X104548114Y-91975248D02*
X104548114Y-91343272D01*
X105352447Y-91975248D01*
X105352447Y-91343272D01*
D17*
X147078592Y-115844142D02*
X147021140Y-115901595D01*
X146848783Y-115959047D01*
X146733878Y-115959047D01*
X146561521Y-115901595D01*
X146446616Y-115786690D01*
X146389164Y-115671785D01*
X146331711Y-115441976D01*
X146331711Y-115269619D01*
X146389164Y-115039809D01*
X146446616Y-114924904D01*
X146561521Y-114810000D01*
X146733878Y-114752547D01*
X146848783Y-114752547D01*
X147021140Y-114810000D01*
X147078592Y-114867452D01*
X148227640Y-115959047D02*
X147538211Y-115959047D01*
X147882926Y-115959047D02*
X147882926Y-114752547D01*
X147768021Y-114924904D01*
X147653116Y-115039809D01*
X147538211Y-115097261D01*
D20*
X135221934Y-116211047D02*
X134532506Y-116211047D01*
X134877220Y-116211047D02*
X134877220Y-115004547D01*
X134762315Y-115176904D01*
X134647410Y-115291809D01*
X134532506Y-115349261D01*
X135968815Y-115004547D02*
X136083720Y-115004547D01*
X136198625Y-115062000D01*
X136256077Y-115119452D01*
X136313529Y-115234357D01*
X136370982Y-115464166D01*
X136370982Y-115751428D01*
X136313529Y-115981238D01*
X136256077Y-116096142D01*
X136198625Y-116153595D01*
X136083720Y-116211047D01*
X135968815Y-116211047D01*
X135853910Y-116153595D01*
X135796458Y-116096142D01*
X135739006Y-115981238D01*
X135681553Y-115751428D01*
X135681553Y-115464166D01*
X135739006Y-115234357D01*
X135796458Y-115119452D01*
X135853910Y-115062000D01*
X135968815Y-115004547D01*
X137117863Y-115004547D02*
X137232767Y-115004547D01*
X137347672Y-115062000D01*
X137405125Y-115119452D01*
X137462577Y-115234357D01*
X137520029Y-115464166D01*
X137520029Y-115751428D01*
X137462577Y-115981238D01*
X137405125Y-116096142D01*
X137347672Y-116153595D01*
X137232767Y-116211047D01*
X137117863Y-116211047D01*
X137002958Y-116153595D01*
X136945506Y-116096142D01*
X136888053Y-115981238D01*
X136830601Y-115751428D01*
X136830601Y-115464166D01*
X136888053Y-115234357D01*
X136945506Y-115119452D01*
X137002958Y-115062000D01*
X137117863Y-115004547D01*
X138037101Y-115406714D02*
X138037101Y-116211047D01*
X138037101Y-115521619D02*
X138094553Y-115464166D01*
X138209458Y-115406714D01*
X138381815Y-115406714D01*
X138496720Y-115464166D01*
X138554172Y-115579071D01*
X138554172Y-116211047D01*
X139530863Y-115579071D02*
X139128696Y-115579071D01*
X139128696Y-116211047D02*
X139128696Y-115004547D01*
X139703220Y-115004547D01*
D21*
X178863301Y-101132547D02*
X178863301Y-99926047D01*
X180127254Y-101017642D02*
X180069801Y-101075095D01*
X179897444Y-101132547D01*
X179782540Y-101132547D01*
X179610182Y-101075095D01*
X179495278Y-100960190D01*
X179437825Y-100845285D01*
X179380373Y-100615476D01*
X179380373Y-100443119D01*
X179437825Y-100213309D01*
X179495278Y-100098404D01*
X179610182Y-99983500D01*
X179782540Y-99926047D01*
X179897444Y-99926047D01*
X180069801Y-99983500D01*
X180127254Y-100040952D01*
X180529420Y-99926047D02*
X181276301Y-99926047D01*
X180874135Y-100385666D01*
X181046492Y-100385666D01*
X181161397Y-100443119D01*
X181218849Y-100500571D01*
X181276301Y-100615476D01*
X181276301Y-100902738D01*
X181218849Y-101017642D01*
X181161397Y-101075095D01*
X181046492Y-101132547D01*
X180701778Y-101132547D01*
X180586873Y-101075095D01*
X180529420Y-101017642D01*
X177899301Y-107130547D02*
X177899301Y-105924047D01*
X178301468Y-106785833D01*
X178703635Y-105924047D01*
X178703635Y-107130547D01*
X179220706Y-106785833D02*
X179795230Y-106785833D01*
X179105801Y-107130547D02*
X179507968Y-105924047D01*
X179910135Y-107130547D01*
X180197397Y-105924047D02*
X181001730Y-107130547D01*
X181001730Y-105924047D02*
X180197397Y-107130547D01*
X181633706Y-106441119D02*
X181518801Y-106383666D01*
X181461349Y-106326214D01*
X181403897Y-106211309D01*
X181403897Y-106153857D01*
X181461349Y-106038952D01*
X181518801Y-105981500D01*
X181633706Y-105924047D01*
X181863516Y-105924047D01*
X181978420Y-105981500D01*
X182035873Y-106038952D01*
X182093325Y-106153857D01*
X182093325Y-106211309D01*
X182035873Y-106326214D01*
X181978420Y-106383666D01*
X181863516Y-106441119D01*
X181633706Y-106441119D01*
X181518801Y-106498571D01*
X181461349Y-106556023D01*
X181403897Y-106670928D01*
X181403897Y-106900738D01*
X181461349Y-107015642D01*
X181518801Y-107073095D01*
X181633706Y-107130547D01*
X181863516Y-107130547D01*
X181978420Y-107073095D01*
X182035873Y-107015642D01*
X182093325Y-106900738D01*
X182093325Y-106670928D01*
X182035873Y-106556023D01*
X181978420Y-106498571D01*
X181863516Y-106441119D01*
X183242373Y-107130547D02*
X182552944Y-107130547D01*
X182897659Y-107130547D02*
X182897659Y-105924047D01*
X182782754Y-106096404D01*
X182667849Y-106211309D01*
X182552944Y-106268761D01*
X184391420Y-107130547D02*
X183701992Y-107130547D01*
X184046706Y-107130547D02*
X184046706Y-105924047D01*
X183931801Y-106096404D01*
X183816897Y-106211309D01*
X183701992Y-106268761D01*
D17*
X185825695Y-105147673D02*
X185883147Y-104975316D01*
X185883147Y-104688054D01*
X185825695Y-104573150D01*
X185768242Y-104515697D01*
X185653338Y-104458245D01*
X185538433Y-104458245D01*
X185423528Y-104515697D01*
X185366076Y-104573150D01*
X185308623Y-104688054D01*
X185251171Y-104917864D01*
X185193719Y-105032769D01*
X185136266Y-105090221D01*
X185021361Y-105147673D01*
X184906457Y-105147673D01*
X184791552Y-105090221D01*
X184734100Y-105032769D01*
X184676647Y-104917864D01*
X184676647Y-104630602D01*
X184734100Y-104458245D01*
X184676647Y-103596459D02*
X185538433Y-103596459D01*
X185710790Y-103653911D01*
X185825695Y-103768816D01*
X185883147Y-103941173D01*
X185883147Y-104056078D01*
X185883147Y-102389959D02*
X185883147Y-103079388D01*
X185883147Y-102734673D02*
X184676647Y-102734673D01*
X184849004Y-102849578D01*
X184963909Y-102964483D01*
X185021361Y-103079388D01*
D22*
X190723928Y-94199047D02*
X190905357Y-94259523D01*
X191207738Y-94259523D01*
X191328690Y-94199047D01*
X191389166Y-94138571D01*
X191449642Y-94017619D01*
X191449642Y-93896666D01*
X191389166Y-93775714D01*
X191328690Y-93715238D01*
X191207738Y-93654761D01*
X190965833Y-93594285D01*
X190844880Y-93533809D01*
X190784404Y-93473333D01*
X190723928Y-93352380D01*
X190723928Y-93231428D01*
X190784404Y-93110476D01*
X190844880Y-93050000D01*
X190965833Y-92989523D01*
X191268214Y-92989523D01*
X191449642Y-93050000D01*
X191872976Y-92989523D02*
X192175357Y-94259523D01*
X192417261Y-93352380D01*
X192659166Y-94259523D01*
X192961547Y-92989523D01*
X194110595Y-94259523D02*
X193384880Y-94259523D01*
X193747738Y-94259523D02*
X193747738Y-92989523D01*
X193626785Y-93170952D01*
X193505833Y-93291904D01*
X193384880Y-93352380D01*
D17*
X180092359Y-96445095D02*
X180264716Y-96502547D01*
X180551978Y-96502547D01*
X180666883Y-96445095D01*
X180724335Y-96387642D01*
X180781788Y-96272738D01*
X180781788Y-96157833D01*
X180724335Y-96042928D01*
X180666883Y-95985476D01*
X180551978Y-95928023D01*
X180322169Y-95870571D01*
X180207264Y-95813119D01*
X180149811Y-95755666D01*
X180092359Y-95640761D01*
X180092359Y-95525857D01*
X180149811Y-95410952D01*
X180207264Y-95353500D01*
X180322169Y-95296047D01*
X180609430Y-95296047D01*
X180781788Y-95353500D01*
X181126502Y-95296047D02*
X181528669Y-96502547D01*
X181930835Y-95296047D01*
X182275550Y-95410952D02*
X182333002Y-95353500D01*
X182447907Y-95296047D01*
X182735169Y-95296047D01*
X182850073Y-95353500D01*
X182907526Y-95410952D01*
X182964978Y-95525857D01*
X182964978Y-95640761D01*
X182907526Y-95813119D01*
X182218097Y-96502547D01*
X182964978Y-96502547D01*
X176972888Y-92876147D02*
X176283459Y-92876147D01*
X176628173Y-92876147D02*
X176628173Y-91669647D01*
X176513269Y-91842004D01*
X176398364Y-91956909D01*
X176283459Y-92014361D01*
X175202547Y-105620759D02*
X174628023Y-106022926D01*
X175202547Y-106310188D02*
X173996047Y-106310188D01*
X173996047Y-105850569D01*
X174053500Y-105735664D01*
X174110952Y-105678211D01*
X174225857Y-105620759D01*
X174398214Y-105620759D01*
X174513119Y-105678211D01*
X174570571Y-105735664D01*
X174628023Y-105850569D01*
X174628023Y-106310188D01*
X175202547Y-105103688D02*
X173996047Y-105103688D01*
X175202547Y-104414259D01*
X173996047Y-104414259D01*
X175202547Y-103207759D02*
X175202547Y-103897188D01*
X175202547Y-103552473D02*
X173996047Y-103552473D01*
X174168404Y-103667378D01*
X174283309Y-103782283D01*
X174340761Y-103897188D01*
X175202547Y-100852211D02*
X175202547Y-101541640D01*
X175202547Y-101196926D02*
X173996047Y-101196926D01*
X174168404Y-101311830D01*
X174283309Y-101426735D01*
X174340761Y-101541640D01*
X173996047Y-100105330D02*
X173996047Y-99990426D01*
X174053500Y-99875521D01*
X174110952Y-99818069D01*
X174225857Y-99760616D01*
X174455666Y-99703164D01*
X174742928Y-99703164D01*
X174972738Y-99760616D01*
X175087642Y-99818069D01*
X175145095Y-99875521D01*
X175202547Y-99990426D01*
X175202547Y-100105330D01*
X175145095Y-100220235D01*
X175087642Y-100277688D01*
X174972738Y-100335140D01*
X174742928Y-100392592D01*
X174455666Y-100392592D01*
X174225857Y-100335140D01*
X174110952Y-100277688D01*
X174053500Y-100220235D01*
X173996047Y-100105330D01*
X175202547Y-99186092D02*
X173996047Y-99186092D01*
X175202547Y-98496664D02*
X174513119Y-99013735D01*
X173996047Y-98496664D02*
X174685476Y-99186092D01*
D23*
X172624287Y-114110327D02*
X172624287Y-114648081D01*
X172624287Y-114379204D02*
X171683217Y-114379204D01*
X171817655Y-114468830D01*
X171907281Y-114558456D01*
X171952094Y-114648081D01*
D17*
X115694526Y-88976047D02*
X115694526Y-89837833D01*
X115637073Y-90010190D01*
X115522169Y-90125095D01*
X115349811Y-90182547D01*
X115234907Y-90182547D01*
X116269050Y-90182547D02*
X116269050Y-88976047D01*
X116728669Y-88976047D01*
X116843573Y-89033500D01*
X116901026Y-89090952D01*
X116958478Y-89205857D01*
X116958478Y-89378214D01*
X116901026Y-89493119D01*
X116843573Y-89550571D01*
X116728669Y-89608023D01*
X116269050Y-89608023D01*
X118107526Y-90182547D02*
X117418097Y-90182547D01*
X117762811Y-90182547D02*
X117762811Y-88976047D01*
X117647907Y-89148404D01*
X117533002Y-89263309D01*
X117418097Y-89320761D01*
X114127642Y-101556759D02*
X114185095Y-101614211D01*
X114242547Y-101786569D01*
X114242547Y-101901473D01*
X114185095Y-102073830D01*
X114070190Y-102188735D01*
X113955285Y-102246188D01*
X113725476Y-102303640D01*
X113553119Y-102303640D01*
X113323309Y-102246188D01*
X113208404Y-102188735D01*
X113093500Y-102073830D01*
X113036047Y-101901473D01*
X113036047Y-101786569D01*
X113093500Y-101614211D01*
X113150952Y-101556759D01*
X113150952Y-101097140D02*
X113093500Y-101039688D01*
X113036047Y-100924783D01*
X113036047Y-100637521D01*
X113093500Y-100522616D01*
X113150952Y-100465164D01*
X113265857Y-100407711D01*
X113380761Y-100407711D01*
X113553119Y-100465164D01*
X114242547Y-101154592D01*
X114242547Y-100407711D01*
D20*
X117036547Y-99586339D02*
X117036547Y-100275767D01*
X117036547Y-99931053D02*
X115830047Y-99931053D01*
X116002404Y-100045958D01*
X116117309Y-100160863D01*
X116174761Y-100275767D01*
X115830047Y-98839458D02*
X115830047Y-98724553D01*
X115887500Y-98609648D01*
X115944952Y-98552196D01*
X116059857Y-98494744D01*
X116289666Y-98437291D01*
X116576928Y-98437291D01*
X116806738Y-98494744D01*
X116921642Y-98552196D01*
X116979095Y-98609648D01*
X117036547Y-98724553D01*
X117036547Y-98839458D01*
X116979095Y-98954363D01*
X116921642Y-99011815D01*
X116806738Y-99069267D01*
X116576928Y-99126720D01*
X116289666Y-99126720D01*
X116059857Y-99069267D01*
X115944952Y-99011815D01*
X115887500Y-98954363D01*
X115830047Y-98839458D01*
X115830047Y-97690410D02*
X115830047Y-97575506D01*
X115887500Y-97460601D01*
X115944952Y-97403148D01*
X116059857Y-97345696D01*
X116289666Y-97288244D01*
X116576928Y-97288244D01*
X116806738Y-97345696D01*
X116921642Y-97403148D01*
X116979095Y-97460601D01*
X117036547Y-97575506D01*
X117036547Y-97690410D01*
X116979095Y-97805315D01*
X116921642Y-97862767D01*
X116806738Y-97920220D01*
X116576928Y-97977672D01*
X116289666Y-97977672D01*
X116059857Y-97920220D01*
X115944952Y-97862767D01*
X115887500Y-97805315D01*
X115830047Y-97690410D01*
X116232214Y-96771172D02*
X117036547Y-96771172D01*
X116347119Y-96771172D02*
X116289666Y-96713720D01*
X116232214Y-96598815D01*
X116232214Y-96426458D01*
X116289666Y-96311553D01*
X116404571Y-96254101D01*
X117036547Y-96254101D01*
X116404571Y-95277410D02*
X116404571Y-95679577D01*
X117036547Y-95679577D02*
X115830047Y-95679577D01*
X115830047Y-95105053D01*
X111905684Y-109492547D02*
X111905684Y-108286047D01*
X113169636Y-109377642D02*
X113112184Y-109435095D01*
X112939827Y-109492547D01*
X112824922Y-109492547D01*
X112652565Y-109435095D01*
X112537660Y-109320190D01*
X112480208Y-109205285D01*
X112422755Y-108975476D01*
X112422755Y-108803119D01*
X112480208Y-108573309D01*
X112537660Y-108458404D01*
X112652565Y-108343500D01*
X112824922Y-108286047D01*
X112939827Y-108286047D01*
X113112184Y-108343500D01*
X113169636Y-108400952D01*
X113629255Y-108400952D02*
X113686708Y-108343500D01*
X113801612Y-108286047D01*
X114088874Y-108286047D01*
X114203779Y-108343500D01*
X114261232Y-108400952D01*
X114318684Y-108515857D01*
X114318684Y-108630761D01*
X114261232Y-108803119D01*
X113571803Y-109492547D01*
X114318684Y-109492547D01*
X100910879Y-108179647D02*
X101715212Y-108179647D01*
X101198141Y-109386147D01*
X102691903Y-108581814D02*
X102691903Y-109386147D01*
X102404641Y-108122195D02*
X102117379Y-108983980D01*
X102864260Y-108983980D01*
X103323879Y-109386147D02*
X103323879Y-108179647D01*
X103323879Y-108754171D02*
X104013308Y-108754171D01*
X104013308Y-109386147D02*
X104013308Y-108179647D01*
X105277260Y-109271242D02*
X105219808Y-109328695D01*
X105047451Y-109386147D01*
X104932546Y-109386147D01*
X104760189Y-109328695D01*
X104645284Y-109213790D01*
X104587832Y-109098885D01*
X104530379Y-108869076D01*
X104530379Y-108696719D01*
X104587832Y-108466909D01*
X104645284Y-108352004D01*
X104760189Y-108237100D01*
X104932546Y-108179647D01*
X105047451Y-108179647D01*
X105219808Y-108237100D01*
X105277260Y-108294552D01*
X106024141Y-108179647D02*
X106139046Y-108179647D01*
X106253951Y-108237100D01*
X106311403Y-108294552D01*
X106368855Y-108409457D01*
X106426308Y-108639266D01*
X106426308Y-108926528D01*
X106368855Y-109156338D01*
X106311403Y-109271242D01*
X106253951Y-109328695D01*
X106139046Y-109386147D01*
X106024141Y-109386147D01*
X105909236Y-109328695D01*
X105851784Y-109271242D01*
X105794332Y-109156338D01*
X105736879Y-108926528D01*
X105736879Y-108639266D01*
X105794332Y-108409457D01*
X105851784Y-108294552D01*
X105909236Y-108237100D01*
X106024141Y-108179647D01*
X107460451Y-108581814D02*
X107460451Y-109386147D01*
X107173189Y-108122195D02*
X106885927Y-108983980D01*
X107632808Y-108983980D01*
X108092427Y-109386147D02*
X108092427Y-108179647D01*
X108781855Y-109386147D01*
X108781855Y-108179647D01*
D17*
X171714640Y-95739047D02*
X171312473Y-95164523D01*
X171025211Y-95739047D02*
X171025211Y-94532547D01*
X171484830Y-94532547D01*
X171599735Y-94590000D01*
X171657188Y-94647452D01*
X171714640Y-94762357D01*
X171714640Y-94934714D01*
X171657188Y-95049619D01*
X171599735Y-95107071D01*
X171484830Y-95164523D01*
X171025211Y-95164523D01*
X172231711Y-95739047D02*
X172231711Y-94532547D01*
X172921140Y-95739047D01*
X172921140Y-94532547D01*
X173438211Y-94647452D02*
X173495664Y-94590000D01*
X173610569Y-94532547D01*
X173897830Y-94532547D01*
X174012735Y-94590000D01*
X174070188Y-94647452D01*
X174127640Y-94762357D01*
X174127640Y-94877261D01*
X174070188Y-95049619D01*
X173380759Y-95739047D01*
X174127640Y-95739047D01*
D23*
X173904272Y-90055187D02*
X173366518Y-90055187D01*
X173635395Y-90055187D02*
X173635395Y-89114117D01*
X173545769Y-89248555D01*
X173456143Y-89338181D01*
X173366518Y-89382994D01*
M02*
